<?xml version="1.0" standalone="no"?>
<!DOCTYPE svg PUBLIC "-//W3C//DTD SVG 1.1//EN" "http://www.w3.org/Graphics/SVG/1.1/DTD/svg11.dtd" >
<svg xmlns="http://www.w3.org/2000/svg">
<metadata>
This is a custom SVG webfont generated by Font Squirrel.
Copyright   : Digitized data  2007 Ascender Corporation All rights reserved
Designer    : Steve Matteson
Foundry     : Ascender Corporation
Foundry URL : httpwwwascendercorpcom
</metadata>
<defs>
<font id="webfontXdA6kstW" horiz-adv-x="1138" >
<font-face units-per-em="2048" ascent="1638" descent="-410" />
<missing-glyph horiz-adv-x="567" />
<glyph unicode=" "  horiz-adv-x="567" />
<glyph unicode="&#x09;" horiz-adv-x="567" />
<glyph unicode="&#xa0;" horiz-adv-x="567" />
<glyph unicode="!" horiz-adv-x="681" d="M80 0l51 270h289l-53 -270h-287zM193 426l159 983h295l-223 -983h-231z" />
<glyph unicode="&#x22;" horiz-adv-x="970" d="M219 897l72 512h272l-125 -512h-219zM645 897l72 512h274l-127 -512h-219z" />
<glyph unicode="#" d="M66 381v149h188l70 332h-207v148h237l84 385h154l-82 -385h305l84 385h158l-84 -385h164v-148h-199l-68 -332h215v-149h-245l-82 -381h-158l82 381h-307l-80 -381h-154l78 381h-153zM408 530h309l69 332h-307z" />
<glyph unicode="$" d="M-10 367l262 41q6 -90 53 -132q51 -45 139 -45l74 387q-70 16 -145 52q-63 29 -119 78q-49 43 -80 104t-31 135t23 137q20 55 61 105q39 43 92 76q59 35 111 51q63 20 121 28q68 10 121 11l24 125l111 -4l-29 -130q86 0 158 -22q66 -20 115 -64q51 -45 73 -94 q27 -61 33 -116l-260 -58q-9 43 -24.5 74t-36.5 49q-18 16 -48 27q-23 8 -47 8l-67 -352q86 -20 166 -54q76 -31 129 -75q57 -47 82 -101q29 -61 28 -135q0 -109 -37 -192q-37 -80 -110 -140q-70 -55 -176 -86q-96 -29 -240 -35l-33 -172h-112l32 175q-78 0 -155 22 q-68 20 -129 68q-57 45 -90 106.5t-39 147.5zM412 1006q0 -27 10 -52q8 -18 31 -36q25 -20 47 -31l65 -25l68 332q-55 0 -92 -14q-41 -16 -70 -41q-27 -25 -43 -60q-16 -36 -16 -73zM555 231q57 0 96 11q41 10 82 34q33 18 55 56q23 35 23 82q0 76 -45 116q-45 43 -139 64z " />
<glyph unicode="%" horiz-adv-x="1820" d="M113 842q0 51 4 82q6 46 18 92q27 125 76 211q46 80 104 123q57 43 117 57q57 14 115 14q59 0 119 -16q53 -14 98 -53q43 -37 67 -95q23 -53 23 -145q0 -35 -6 -82q-6 -43 -19 -94q-27 -125 -77 -207q-47 -76 -109 -125q-55 -43 -121 -63q-55 -16 -114 -17q-61 0 -117 19 q-57 18 -94 55q-41 41 -62 98q-22 64 -22 146zM289 0l1085 1409h201l-1090 -1409h-196zM326 827q0 -76 20 -108q23 -35 66 -35q20 0 57 12q27 8 57 39q29 29 49 78q23 53 37 131q29 111 29 186q0 74 -24.5 107t-71.5 33q-29 0 -60 -10q-27 -8 -53 -39t-47 -80 q-25 -61 -39 -135q-6 -29 -16 -97q-4 -29 -4 -82zM1022 301q0 53 4 84q6 41 18 90q27 125 76 211q49 84 105 125q57 43 116 57q57 14 113 15q61 0 121 -17q53 -14 98 -53q41 -35 65.5 -94.5t24.5 -145.5q0 -37 -6 -81q-6 -49 -18 -97q-27 -121 -78 -205q-49 -80 -109 -127 q-51 -41 -120 -61q-55 -16 -115 -16q-68 0 -117 16q-55 18 -94 57q-41 41 -62 99q-22 63 -22 143zM1235 289q0 -76 20 -109q23 -35 66 -35q27 0 57 11q25 8 56 39q28 28 49 79q27 61 39 132q29 111 28 186q0 72 -24 106q-25 33 -72 33q-29 0 -59 -10q-27 -8 -53.5 -39 t-47.5 -80q-25 -61 -39 -135q-6 -25 -16 -98q-4 -29 -4 -80z" />
<glyph unicode="&#x26;" horiz-adv-x="1478" d="M49 354q0 82 33 158q31 70 88 125q58 55 135 98q84 47 170 76q-6 18 -12 43q-2 10 -5 28.5t-5 26.5q-4 25 -9 62q-4 45 -4 65q0 78 29 152q27 70 82 121q57 53 133 80q82 29 184 28q72 0 138 -16q63 -16 106 -49q45 -35 68 -80q25 -49 24 -113q0 -82 -39 -149 q-37 -66 -102 -115q-70 -53 -150 -90q-102 -47 -178 -78q4 -12 33 -84q20 -53 35 -80q8 -16 25.5 -46t21.5 -36q27 -47 57 -86q76 80 131 168q55 89 105 197l186 -82q-29 -66 -55 -113q-41 -74 -66 -108q-49 -70 -75 -103q-53 -66 -82 -94q37 -31 86 -47t98 -16q23 0 59 4 q27 2 52 12l-39 -203q-23 -8 -64 -16q-31 -6 -76 -6q-92 0 -166 30q-82 35 -139 86q-33 -27 -65 -47q-29 -18 -80 -38.5t-107 -28.5q-68 -10 -145 -10q-201 0 -309 96q-107 94 -107 278zM303 360q0 -45 14.5 -79.5t39 -59t59.5 -37.5q39 -14 78 -14q31 0 65 6q33 6 64 19 q49 20 57 24q16 10 45 31q-31 43 -63 94q-31 49 -56 98q-33 66 -47 98.5t-35 90.5q-27 -12 -80 -41q-31 -16 -69 -55q-35 -35 -51 -74q-21 -48 -21 -101zM668 1040q0 -55 4 -77q8 -45 14 -66l119 45q41 16 92 51q39 27 61.5 66t22.5 84q0 49 -35 78q-33 27 -92 26 q-39 0 -72 -12q-35 -12 -61 -39q-23 -23 -39 -66q-14 -37 -14 -90z" />
<glyph unicode="'" horiz-adv-x="485" d="M199 897l71 512h273l-125 -512h-219z" />
<glyph unicode="(" horiz-adv-x="681" d="M74 297q0 182 32 344q35 168 99 317q66 154 162 283q100 135 227 244h280q-258 -246 -391 -545q-133 -301 -133 -659q0 -205 35 -373t113 -334h-277q-74 156 -110 340q-37 180 -37 383z" />
<glyph unicode=")" horiz-adv-x="681" d="M-180 -426q260 254 391 559q133 309 133 676q0 90 -8 166q-8 78 -29 176q-16 78 -47 174q-29 92 -63 160h264q78 -160 119 -326q43 -176 43 -366q0 -188 -33 -353q-35 -174 -98 -325q-63 -150 -164 -289q-104 -143 -228 -252h-280z" />
<glyph unicode="*" horiz-adv-x="796" d="M88 1042l68 197l239 -104l-18 274h215l-19 -274l236 104l68 -197l-250 -61l186 -213l-184 -121l-146 252l-149 -252l-187 123l191 211z" />
<glyph unicode="+" horiz-adv-x="1193" d="M125 569v224h399v407h226v-407h401v-224h-401v-407h-226v407h-399z" />
<glyph unicode="," horiz-adv-x="567" d="M-20 -317q47 47 67 73q41 53 57 80q29 47 46 82q12 25 24 82h-129l59 305h289l-47 -239q-12 -63 -31 -121q-16 -51 -41 -103q-22 -46 -49 -86q-25 -35 -59 -73h-186z" />
<glyph unicode="-" horiz-adv-x="681" d="M55 410l47 243h521l-48 -243h-520z" />
<glyph unicode="." horiz-adv-x="567" d="M45 0l59 305h289l-57 -305h-291z" />
<glyph unicode="/" horiz-adv-x="567" d="M-76 -41l588 1526h238l-584 -1526h-242z" />
<glyph unicode="0" d="M86 455q0 68 8 131q14 106 25 159q29 152 65 248q35 92 88 183q45 76 101 124q59 53 112 78q63 31 119 41q51 10 121 11q80 0 154 -23q76 -23 125 -76q55 -57 83 -143q31 -90 31 -223q0 -72 -8 -136q-8 -59 -29 -163q-27 -127 -65 -238q-31 -84 -86 -178 q-43 -72 -98.5 -127t-110.5 -84q-63 -33 -121 -45q-72 -14 -123 -14q-94 0 -166 26q-76 29 -123 84q-55 66 -77 148q-25 90 -25 217zM358 416q0 -46 7 -86q6 -37 22 -68t43 -45q29 -16 68 -16q55 0 100 24q49 27 84 78q35 53 68 150q35 104 57 231l15 93.5t12 70.5 q12 71 12 129q0 111 -37 172t-115 61q-59 0 -104 -24q-47 -25 -80 -78q-37 -59 -64 -150q-25 -84 -51 -233q-10 -57 -26 -168q-11 -69 -11 -141z" />
<glyph unicode="1" d="M33 0l43 231h350l178 920l-381 -213l47 242l396 229h270l-229 -1178h321l-43 -231h-952z" />
<glyph unicode="2" d="M-33 0l37 195q51 86 111 151q74 80 127 127q78 68 137 109l135 96l123 88q51 39 100 90q39 43 68 98q25 49 24 109q0 40 -12 67q-12 29 -33 44q-27 18 -53 24q-41 8 -63 8q-37 0 -74 -10t-62 -29q-33 -25 -51 -57q-23 -39 -37 -88l-266 59q25 78 66 146q37 59 102 108 q61 45 146 70q86 25 194 25q115 0 195 -25q86 -27 135 -70q55 -49 78 -108q25 -63 24.5 -143t-24.5 -146q-23 -59 -70 -123q-41 -55 -98.5 -106.5t-120.5 -96.5l-129 -90q-61 -41 -127 -90q-61 -45 -115 -96q-61 -57 -92 -105h655l-45 -231h-985z" />
<glyph unicode="3" d="M16 342l283 39q6 -55 23 -84q16 -31 45 -53q23 -18 69 -29q35 -8 88 -8q55 0 97 14q39 14 69.5 45t40.5 66q14 47 14 84q0 92 -55 139q-57 47 -166 47h-106l45 227h72q53 0 100 9q61 10 96 30q45 25 72 68q29 45 28 115q0 74 -38.5 114.5t-118.5 40.5q-92 0 -152 -45 q-61 -47 -86 -139l-266 51q27 94 74 162q45 66 112 111q61 41 148 63q80 20 180 21q109 0 182 -23q84 -27 138 -68q55 -43 83 -108q29 -68 29 -146q0 -74 -24 -139q-25 -63 -70 -108q-49 -49 -115 -76q-68 -29 -151 -37l-2 -4q66 -10 114 -33q47 -23 86 -61q37 -37 56 -90 q20 -57 20 -119q0 -84 -35 -166q-34 -80 -98 -141q-57 -53 -164 -95q-98 -37 -221 -36q-129 0 -215 26q-92 29 -151.5 76t-90.5 115q-33 73 -39 145z" />
<glyph unicode="4" d="M-35 287l41 207l719 915h369l-179 -913h189l-41 -209h-189l-55 -287h-266l53 287h-641zM258 496h389l103 524l10 41q8 33 12 51l16 53q6 27 13 41q-2 -4 -23 -32q-8 -10 -16 -23.5l-14 -24.5l-11.5 -16t-9.5 -15.5t-12 -17.5q-10 -14 -18.5 -24.5t-14.5 -16.5z" />
<glyph unicode="5" d="M20 330l283 45q10 -51 23 -74q18 -37 36 -53q25 -22 62 -31q41 -10 86 -10q70 0 117 20q51 23 84 62q37 45 51 90q16 55 16 106q0 59 -14 101q-14 39 -41 69q-23 25 -59 39q-34 12 -74 13q-63 0 -115 -23q-47 -20 -88 -68h-274l202 793h848l-43 -231h-594l-88 -334 q29 25 43 33q29 18 55.5 28t69.5 21q35 8 88 8q80 0 146 -27q68 -28 116 -80q53 -55 80 -131q29 -80 29 -178q0 -119 -41 -219q-41 -102 -112.5 -170t-180.5 -109q-111 -41 -246 -40q-113 0 -192 26q-84 29 -139 74q-57 47 -91 110q-29 56 -43 140z" />
<glyph unicode="6" d="M94 487q0 193 49 377q45 168 133 297q88 131 205 199q119 70 264 70q74 0 138 -15q70 -16 123 -51q51 -35 94 -100q39 -59 51 -158l-266 -41q-16 76 -51 109q-39 35 -105 34q-113 0 -199 -114q-84 -113 -124 -349q55 76 135 117q86 45 184 45q78 0 143.5 -24.5 t112.5 -71.5t72 -117q25 -72 24 -162q0 -117 -37 -210q-39 -98 -110 -177q-68 -74 -172 -120q-98 -45 -226 -45q-102 0 -188 34q-78 33 -137 101q-57 66 -84 159q-29 98 -29 213zM369 428q0 -104 49 -165.5t139 -61.5q57 0 94 18q45 23 74 60q31 41 49 94q18 55 19 127 q0 47 -15 90q-12 37 -36.5 61.5t-57.5 36.5t-70 12q-47 0 -90 -18q-49 -23 -78 -49q-35 -35 -55 -84q-22 -55 -22 -121z" />
<glyph unicode="7" d="M143 1178l45 231h1031l-43 -223l-162 -195l-147.5 -180.5t-131.5 -179.5q-59 -86 -110 -189q-43 -88 -88 -206q-41 -111 -66 -236h-297q33 178 102 336q55 127 164 293q94 145 209 274l244 275h-750z" />
<glyph unicode="8" d="M27 360q0 92 34 158q37 70 86 111q59 49 115 69q80 31 123 39v4q-92 41 -139 121q-47 82 -47 191q0 82 34 155q33 68 101 119q61 47 160 76q92 27 213 27q100 0 180 -25t135 -68q51 -39 84 -106q31 -61 31 -139q0 -66 -23 -127q-22 -58 -61 -105q-37 -43 -101 -76 q-61 -33 -133 -41v-4q51 -14 94 -43q43 -27 72 -65q27 -35 47 -88q16 -43 17 -111q0 -94 -35 -180q-33 -82 -105 -143q-70 -59 -174 -95q-109 -35 -241 -34q-115 0 -207 28q-86 27 -145.5 80t-86.5 121q-28 73 -28 151zM317 377q0 -43 13 -80q10 -33 37 -61q25 -29 63 -43 q37 -14 90 -15q55 0 94 17q43 18 76 51t51.5 82t18.5 116q0 35 -10 72q-10 35 -33 61.5t-62 45.5q-33 16 -94 16t-106 -18q-43 -16 -76 -54q-29 -33 -45 -82q-17 -53 -17 -108zM475 1020q0 -33 8 -64q8 -33 28.5 -59.5t51.5 -40.5q37 -16 84 -16q59 0 101 22q37 20 61 53 q23 31 33 74q10 45 10 76q0 80 -43 123q-45 45 -129 45q-39 0 -82 -14q-35 -12 -63 -37q-27 -23 -43 -68q-17 -43 -17 -94z" />
<glyph unicode="9" d="M47 311l275 47q16 -76 57 -114q45 -41 119 -41q43 0 90 18q41 16 88 70q35 41 78 139q39 92 63 223q-31 -37 -65 -65q-39 -31 -70 -47q-37 -18 -84 -29q-39 -8 -98 -8q-80 0 -148 28q-65 28 -110 80q-45 51 -70 123t-25 158q0 111 41 211q39 94 111 170q68 70 172 115 q96 41 221 41q94 0 174 -31q82 -31 140 -92q59 -63 92 -148q33 -86 32 -203q0 -37 -2 -59.5t-6 -71.5t-8 -73l-12 -72q-37 -186 -103 -322q-68 -139 -145 -217q-83 -83 -178 -123q-92 -39 -197 -38q-88 0 -157 20q-80 23 -129 61q-59 45 -94.5 104.5t-51.5 145.5zM432 899 q0 -37 14 -80q12 -33 37 -59q27 -27 56 -37q35 -12 71 -12q35 0 76 10q39 10 70 35q29 25 55 65q25 40 37 99q4 33 6 47v43q0 41 -12 77q-12 39 -35 64q-25 29 -57 43q-37 16 -72 16q-55 0 -98 -20q-45 -20 -78 -59t-51 -99q-19 -57 -19 -133z" />
<glyph unicode=":" horiz-adv-x="681" d="M88 0l55 281h289l-55 -281h-289zM236 752l55 282h287l-56 -282h-286z" />
<glyph unicode=";" horiz-adv-x="681" d="M23 -317q47 47 67 73q41 53 57 80q29 47 46 82q12 25 24 82h-129l55 281h289l-43 -215q-12 -63 -31 -121q-16 -51 -41 -103q-16 -37 -51 -86q-25 -35 -59 -73h-184zM236 752l55 282h287l-56 -282h-286z" />
<glyph unicode="&#x37e;" horiz-adv-x="681" d="M23 -317q47 47 67 73q41 53 57 80q29 47 46 82q12 25 24 82h-129l55 281h289l-43 -215q-12 -63 -31 -121q-16 -51 -41 -103q-16 -37 -51 -86q-25 -35 -59 -73h-184zM236 752l55 282h287l-56 -282h-286z" />
<glyph unicode="&#x3c;" horiz-adv-x="1193" d="M125 516v322l1026 391v-228l-834 -325l834 -324v-227z" />
<glyph unicode="=" horiz-adv-x="1193" d="M123 291v221h1028v-221h-1028zM123 842v223h1028v-223h-1028z" />
<glyph unicode="&#x3e;" horiz-adv-x="1193" d="M125 125v227l831 324l-831 325v228l1026 -391v-322z" />
<glyph unicode="?" horiz-adv-x="1249" d="M184 1049q29 92 72 157q45 68 117 121q66 47 159 76q88 27 213 27q111 0 189 -23q88 -25 147.5 -70t94.5 -110q33 -63 32.5 -151.5t-32.5 -151.5q-37 -70 -84 -117q-55 -53 -119 -94q-86 -53 -131 -78l-66 -43q-31 -20 -51 -45q-25 -29 -39 -53.5t-20 -67.5h-267 q10 61 39 121q25 52 62 92q45 49 84 76l106 69q86 55 115 76q43 31 72 64q27 29 38 61q10 27 11 70q0 63 -47.5 104t-149.5 41q-111 0 -180 -45q-71 -46 -98 -147zM309 0l51 270h289l-51 -270h-289z" />
<glyph unicode="@" horiz-adv-x="1996" d="M150 492q0 129 32 266q29 121 90 237q57 111 146 201q84 88 194 154q113 68 238 100q133 35 274 35q203 0 353 -60q152 -59 245 -159q96 -102 142 -232q47 -135 47 -278q0 -144 -37 -264q-35 -111 -105 -205q-61 -82 -153 -135q-82 -47 -186 -48q-37 0 -78 11 q-31 8 -60 32q-25 20 -39 54q-14 31 -14 75q0 4 1 15.5t1 17.5q0 12 4 33h-6q-22 -43 -55 -86q-29 -37 -82 -76q-49 -37 -98 -55q-53 -20 -115 -21q-94 0 -158 33q-66 35 -102 90q-39 57 -54 123q-16 72 -16 139q0 111 35 226q35 113 96 194q66 86 158 140q94 53 211 53 q102 0 167.5 -47t96.5 -127h6l39 151h156l-117 -506q-16 -68 -27 -141q-10 -68 -10 -98q0 -51 22.5 -71.5t55.5 -20.5q59 0 115 37q57 37 100 106q41 66 70 162q27 92 26 207q0 123 -41 233q-39 104 -121 187q-78 78 -198 124q-115 45 -273 45q-125 0 -243.5 -32.5 t-202.5 -87.5q-102 -68 -160 -136q-72 -84 -114 -174q-45 -92 -70 -200t-25 -221q0 -86 18.5 -170t51.5 -152q34 -71 86 -129q51 -57 125 -102q63 -39 160 -66q82 -23 200 -23q86 0 166 13q88 14 154 33q74 22 141 49q57 23 129 59l62 -121q-72 -39 -129 -65 q-78 -35 -150 -58q-74 -23 -174 -39q-102 -16 -205 -16q-125 0 -239 29q-109 27 -199 80q-82 49 -156 125q-63 68 -112 157q-45 86 -68 189q-22 107 -22 207zM725 492q0 -115 49 -180.5t148 -65.5q47 0 96 22q43 20 90 68q37 37 76 110q33 63 55 150q8 25 10 39q0 8 4 22.5 t4 20.5t1.5 19.5t3.5 19.5q2 12 2 35q0 49 -14.5 85.5t-45.5 67.5q-33 33 -65 45q-43 16 -88 17q-57 0 -100.5 -20.5t-82.5 -55.5q-33 -29 -63 -82q-23 -39 -45 -100q-16 -45 -27 -109q-8 -49 -8 -108z" />
<glyph unicode="A" horiz-adv-x="1478" d="M-43 0l788 1409h349l237 -1409h-293l-55 360h-537l-194 -360h-295zM565 582h396l-66 452q0 4 -2 14.5t-4 22.5q0 10 -2 22.5l-4 24.5q0 8 -1 21.5t-3 21.5q-2 14 -2 31q0 -4 -3.5 -9t-6.5 -13.5l-5 -14.5t-24 -53q-12 -31 -29 -64q-2 -4 -31 -57z" />
<glyph unicode="B" horiz-adv-x="1478" d="M37 0l272 1409h586q125 0 225 -23q98 -23 159.5 -63.5t92.5 -102t31 -137.5q0 -70 -23 -131q-20 -55 -65 -100q-43 -43 -103 -70q-72 -33 -133 -45q72 -12 125 -39q47 -25 90 -69q37 -39 56 -90q18 -49 18 -109q0 -121 -51 -207q-49 -84 -135 -133q-82 -47 -201 -70 q-109 -20 -240 -20h-704zM373 219h327q88 0 166 10q66 8 115 35q46 25 68 68q23 45 22 104q0 90 -67 139q-66 47 -222 48h-329zM494 842h294q96 0 148 10q66 12 100.5 34.5t55.5 61.5q18 37 18 90q0 41 -16 74q-12 25 -50 47q-31 18 -77 25q-46 6 -105 6h-301z" />
<glyph unicode="C" horiz-adv-x="1478" d="M100 569q0 115 27 236q25 113 74 207q47 92 123 174q68 74 163 131q86 51 203 84q102 29 238 29q137 0 235 -31q102 -33 168 -86q74 -61 111 -125q39 -70 61 -150l-274 -71q-12 43 -37 86q-20 37 -62 73q-33 31 -92 52q-57 20 -120 20q-129 0 -222 -45 q-102 -49 -164 -129q-65 -83 -98 -197q-33 -111 -33 -254q0 -88 21 -151q23 -72 63 -115q45 -49 103 -71q61 -25 143 -25q80 0 141 20q68 23 117 58t90 82q37 43 70 98l227 -117q-45 -80 -102 -143q-66 -72 -141 -119q-78 -47 -187 -80q-104 -31 -235 -30q-154 0 -273 47 t-190 125q-74 80 -111 186q-37 108 -37 231z" />
<glyph unicode="D" horiz-adv-x="1478" d="M37 0l272 1409h424q156 0 291 -39q127 -37 215 -113q90 -78 135 -188q47 -117 47 -262q0 -133 -30 -244q-31 -113 -86 -201q-59 -98 -129 -157q-74 -66 -166 -113q-96 -49 -191 -69q-106 -23 -205 -23h-577zM375 227h229q117 0 215 37q102 39 172 109q72 72 113 178 t41 244q0 94 -29 170q-27 70 -80 120q-49 45 -129 72q-77 25 -172 25h-176z" />
<glyph unicode="E" horiz-adv-x="1363" d="M37 0l272 1409h1108l-45 -227h-813l-67 -355h751l-45 -229h-752l-71 -371h854l-45 -227h-1147z" />
<glyph unicode="F" horiz-adv-x="1249" d="M37 0l272 1409h985l-43 -227h-692l-84 -437h668l-43 -229h-670l-100 -516h-293z" />
<glyph unicode="G" horiz-adv-x="1591" d="M100 584q0 184 60 344q57 158 168 266q115 115 266 174q156 61 348 62q131 0 232 -31t172 -86q72 -57 116 -125q45 -70 68 -150l-283 -77q-14 55 -35 90q-25 43 -63.5 75.5t-93.5 51.5q-61 20 -129 20q-125 0 -226 -47q-96 -45 -165 -127q-66 -78 -101 -190 q-35 -115 -35 -242q0 -82 21 -146q25 -74 63 -122q41 -49 115 -82q70 -31 166 -31q70 0 119 8q68 10 104 21q51 12 90 30q45 20 72 37l45 228h-342l39 208h614l-104 -569q-57 -39 -139 -82q-72 -37 -150 -61q-80 -25 -172 -37t-201 -12q-166 0 -282 45q-121 47 -199 124.5 t-119 190.5q-39 109 -39 242z" />
<glyph unicode="H" horiz-adv-x="1478" d="M37 0l272 1409h295l-108 -561h624l111 561h282l-274 -1409h-283l117 604h-624l-119 -604h-293z" />
<glyph unicode="I" horiz-adv-x="567" d="M37 0l272 1409h295l-274 -1409h-293z" />
<glyph unicode="J" d="M25 379l268 57q6 -33 26 -90q12 -37 41 -72q23 -29 58 -47q31 -16 82 -16q49 0 82 18q31 16 55 52q23 33 35 73q10 39 20 86l144 738h-281l43 231h576l-193 -985q-20 -106 -59 -193q-37 -84 -99 -139q-66 -59 -143 -84q-90 -29 -201 -28q-102 0 -182 28q-78 29 -133 80 t-88 125q-33 70 -51 166z" />
<glyph unicode="K" horiz-adv-x="1478" d="M37 0l272 1409h295l-131 -639l762 639h369l-748 -616l465 -793h-326l-356 639l-211 -123l-100 -516h-291z" />
<glyph unicode="L" horiz-adv-x="1249" d="M37 0l272 1409h295l-229 -1182h755l-45 -227h-1048z" />
<glyph unicode="M" horiz-adv-x="1705" d="M37 0l272 1409h396l88 -788q0 -2 3 -31l5 -47l8 -90q4 -74 8 -109l49 107l43 90l37 75l404 793h393l-275 -1409h-262l172 885l25 110l22 105q6 31 14.5 58.5t12.5 47.5l-70 -151q-6 -12 -13 -28.5l-15 -35.5l-31 -65l-29 -60q-16 -37 -24 -51l-414 -815h-209l-94 819 q-2 18 -4 45q-2 14 -4 29.5t-4 28.5q-2 16 -3 31.5t-3 31.5q-4 31 -7 66l-8 82t-8 73l-12 -121q0 -10 -1 -17t-3 -15.5t-4 -18.5q-2 -14 -3.5 -26.5t-3.5 -26.5q-2 -8 -4 -24.5t-4 -24.5t-5 -23.5t-3 -21.5l-170 -887h-262z" />
<glyph unicode="N" horiz-adv-x="1478" d="M37 0l272 1409h350l377 -1141l13 82l12 82q4 31 16 92l174 885h262l-274 -1409h-354l-375 1130l-12 -83l-13 -78q-2 -16 -8 -44t-6 -32l-172 -893h-262z" />
<glyph unicode="O" horiz-adv-x="1591" d="M100 573q0 29 4 95q2 29 15 96q29 143 100 272q70 127 172 211q113 92 238 135q137 47 299 48q147 0 266 -41q115 -39 197 -115t125 -182q43 -108 43 -240q0 -68 -4.5 -102.5t-16.5 -100.5q-33 -160 -100 -278q-72 -125 -174 -209q-111 -92 -240 -135q-137 -47 -297 -47 q-154 0 -270.5 43t-196.5 122q-78 78 -119 188.5t-41 239.5zM399 582q0 -182 90 -277q88 -92 252 -92q117 0 193 31q86 35 145 94q63 63 103 147q39 86 61 195q8 47 10 78q2 27 2 69q0 94 -24 162q-25 70 -68 115q-45 49 -108 70q-68 23 -142 22q-108 0 -190 -31 q-84 -31 -145 -92q-63 -63 -102.5 -147t-61.5 -199q-8 -49 -11 -74q-4 -48 -4 -71z" />
<glyph unicode="P" horiz-adv-x="1363" d="M37 0l272 1409h541q123 0 221 -29q92 -27 162 -84q68 -55 102 -133q33 -74 33 -176q0 -115 -39 -205q-39 -88 -115 -155q-70 -61 -178 -96t-231 -35h-377l-98 -496h-293zM471 723h289q158 0 233.5 57.5t75.5 190.5q0 59 -16 94q-20 43 -52 65q-34 25 -79 37t-101 13h-262 z" />
<glyph unicode="Q" horiz-adv-x="1591" d="M100 573q0 29 4 95q2 29 15 96q29 143 100 272q70 127 172 211q113 92 238 135q137 47 299 48q147 0 266 -41q115 -39 197 -115t125 -182q43 -108 43 -240q0 -68 -4.5 -102.5t-16.5 -100.5q-29 -141 -84 -246q-58 -111 -141 -196q-78 -80 -193 -139q-104 -53 -237 -76 q18 -100 63 -142q49 -45 135 -45q6 0 17.5 1t19.5 1q25 0 39 3q6 0 19.5 1t19.5 3q25 4 35 6l-45 -195q-43 -14 -74 -18q-47 -6 -94 -6q-117 0 -191 26q-77 28 -129 80q-49 49 -77 123q-27 70 -37 162q-117 18 -209 69.5t-152 124.5q-61 78 -92 174q-31 98 -31 213zM399 582 q0 -182 90 -277q88 -92 252 -92q117 0 193 31q86 35 145 94q63 63 103 147q39 86 61 195q8 47 10 78q2 27 2 69q0 94 -24 162q-25 70 -68 115q-45 49 -108 70q-68 23 -142 22q-108 0 -190 -31q-84 -31 -145 -92q-63 -63 -102.5 -147t-61.5 -199q-8 -49 -11 -74 q-4 -48 -4 -71z" />
<glyph unicode="R" horiz-adv-x="1478" d="M37 0l272 1409h652q139 0 231 -33q96 -35 156 -88q63 -57 89.5 -129t26.5 -153q0 -96 -32 -168q-33 -74 -89 -125q-61 -57 -129 -86q-76 -31 -151 -43l272 -584h-325l-230 535h-346l-102 -535h-295zM479 764h393q66 0 121 12q49 10 92 41q37 25 60 72q20 41 20 100 q0 51 -18 88q-20 39 -51 60q-39 25 -78 32q-47 10 -94 11h-365z" />
<glyph unicode="S" horiz-adv-x="1363" d="M25 365l288 49q8 -49 33 -95q18 -35 60 -65q39 -29 90 -41q53 -12 125 -12q68 0 139 10q63 8 108 33q47 25 72 61.5t25 93.5q0 46 -19 80q-16 31 -57 58q-37 25 -92 43q-80 27 -129 38q-88 23 -176 56q-82 31 -146 78q-55 41 -96 116q-37 68 -37 168q0 98 45 170 q46 74 123 123q82 51 182 76q104 25 223 25q127 0 226 -25q102 -25 168 -68q66 -41 108 -108q43 -66 58 -137l-289 -68q-23 90 -96 143q-76 53 -191 54q-66 0 -115 -13q-43 -10 -84 -37q-29 -18 -51 -55q-16 -27 -16 -69.5t22 -75.5q20 -29 62 -51q37 -20 94 -39 q16 -6 36.5 -11.5l46.5 -12.5l40 -11l104 -31q41 -12 103 -39q51 -23 94 -53q45 -33 78 -74t51 -98q18 -55 18 -127q0 -109 -39 -188q-37 -78 -120 -140q-72 -53 -205 -86q-123 -31 -289 -30q-137 0 -238 24q-106 27 -172 72q-70 49 -110 121q-39 70 -55 168z" />
<glyph unicode="T" horiz-adv-x="1249" d="M145 1182l43 227h1207l-43 -227h-457l-229 -1182h-295l229 1182h-455z" />
<glyph unicode="U" horiz-adv-x="1478" d="M119 430q0 31 2 49l6 56l6 55q2 10 5 26.5t3 18.5l150 774h295l-154 -811q-6 -34 -12 -80q-6 -47 -6 -92q0 -55 20 -94q23 -41 57.5 -67.5t86.5 -39.5q57 -14 110 -14q84 0 139 16q61 18 107 58q47 41 76 100q31 66 49 156l168 868h295l-172 -879q-29 -143 -82 -245 q-55 -102 -140 -172q-82 -66 -196 -101q-111 -33 -260 -32q-127 0 -232 30q-109 33 -174 86q-74 61 -108 142q-39 90 -39 192z" />
<glyph unicode="V" horiz-adv-x="1363" d="M170 1409h305l115 -905q4 -31 8 -92q2 -16 5 -45t3 -41l6 -88l17.5 40.5l19.5 45.5l41 86l45 94l465 905h309l-772 -1409h-340z" />
<glyph unicode="W" horiz-adv-x="1931" d="M150 1409h280l37 -815q2 -33 2 -107q0 -20 1 -58t1 -56q0 -20 1 -61.5t1 -63.5l57 143l25 64q6 18 13 32.5l14 28.5l24 59q6 14 11.5 28.5l9.5 25.5l334 780h317l31 -895q4 -57 4 -88q0 -33 4 -86q2 -31 2 -92q12 33 24.5 63.5t20.5 53.5l43 112l47 119l334 813h291 l-637 -1409h-350l-27 811q0 2 -1 17.5t-1 29.5q0 12 -1 38t-1 42q0 14 -1 46t-1 48v84l-43 -115q-8 -25 -19 -49l-20 -51l-19 -47l-16 -39l-348 -815h-354z" />
<glyph unicode="X" horiz-adv-x="1363" d="M-94 0l651 735l-338 674h309l226 -471l401 471h313l-600 -678l367 -731h-307l-252 532l-457 -532h-313z" />
<glyph unicode="Y" horiz-adv-x="1363" d="M172 1409h293l258 -604l473 604h324l-684 -831l-111 -578h-295l113 578z" />
<glyph unicode="Z" horiz-adv-x="1249" d="M-47 0l39 209l928 969h-664l45 231h1014l-39 -205l-932 -973h782l-45 -231h-1128z" />
<glyph unicode="[" horiz-adv-x="681" d="M-53 -426l368 1911h543l-37 -191h-276l-297 -1527h276l-37 -193h-540z" />
<glyph unicode="\" horiz-adv-x="567" d="M111 1485h237l184 -1526h-243z" />
<glyph unicode="]" horiz-adv-x="681" d="M-174 -426l37 193h276l297 1527h-276l37 191h540l-370 -1911h-541z" />
<glyph unicode="^" horiz-adv-x="1193" d="M86 514l389 895h324l393 -895h-229l-326 752l-326 -752h-225z" />
<glyph unicode="_" d="M-121 -172h1178v-78h-1178v78z" />
<glyph unicode="`" horiz-adv-x="681" d="M289 1458l8 43h258l195 -287l-7 -30h-147z" />
<glyph unicode="a" d="M10 279q0 78 23 139q20 57 61 100q39 41 92 70q45 25 113 41q55 14 125 20q86 8 127 8l190 2l9 37l10 52q4 29 4 43q0 68 -35 98q-34 31 -92 31q-20 0 -62 -5q-29 -2 -57 -18q-31 -16 -51 -43q-23 -29 -35 -78l-262 33q14 68 51 121q35 51 94 92q53 37 140 59 q76 20 186 21q207 0 303 -74t96 -221q0 -35 -8 -74q-4 -20 -7 -41.5t-7 -42.5l-72 -352l-6 -37q-2 -12 -2 -34.5t10 -37.5q8 -12 23 -18q16 -8 26 -8q4 0 11.5 -1t9.5 -1q6 0 14 1t12 1q12 0 35 6l-14 -156q-43 -16 -84 -18q-57 -4 -88 -4q-100 0 -156 43q-53 41 -53 110v31 q0 12 4 33h-6q-31 -47 -68 -94q-29 -37 -77 -72q-39 -29 -97 -45q-55 -16 -123 -16q-77 0 -135 24q-59 25 -96 68q-41 49 -57 96q-19 56 -19 111zM297 326q0 -40 12 -68q14 -31 33 -47q23 -18 45 -27q25 -8 55 -8q29 0 66 12q41 14 70 37q31 27 63 74q29 41 47 113l23 92 h-162q-117 -3 -184.5 -49t-67.5 -129z" />
<glyph unicode="b" horiz-adv-x="1249" d="M35 0q2 4 4 14.5t4 16.5q2 8 5 21.5t7 29.5q2 10 15 65q6 29 14 76l246 1262h280l-84 -428q-16 -90 -20 -105l-10 -39h4q55 82 145 135.5t209 53.5q80 0 145 -25q57 -23 105 -71q45 -47 65 -111q23 -68 23 -147v-15q0 -66 -4 -102q-8 -78 -17 -115q-27 -139 -71 -244 q-41 -98 -107 -166q-61 -66 -143 -96q-80 -31 -180 -30q-125 0 -203 53q-82 55 -111 145h-2q0 -2 -6 -22.5t-8 -32.5t-8 -32.5t-6 -22.5l-13 -45q-6 -23 -8 -23h-270zM408 401q0 -57 14 -98q16 -47 41 -72q29 -29 63 -43q39 -16 82 -16q49 0 92 16q39 14 72 54q37 43 59 106 q23 61 46 168q6 29 16 96q6 43 6 82q0 109 -35 160q-35 53 -129 53q-47 0 -100 -16q-45 -14 -88 -57q-41 -41 -72 -109q-29 -66 -51 -170q-8 -41 -12 -84q-4 -50 -4 -70z" />
<glyph unicode="c" d="M63 406q0 55 3 86q2 41 16 92q25 113 63 192q37 78 86 139q43 55 103 95q53 35 112 57q55 20 117 27q78 8 117 8q104 0 184 -29q78 -29 131 -78q49 -47 80 -116q29 -68 35 -138l-285 -22q-6 92 -45 139q-41 51 -123 51q-53 0 -96 -18q-41 -18 -74 -60q-35 -45 -57 -104 q-35 -90 -49 -152q0 -6 -4 -20t-4 -22.5t-4 -22.5t-4 -22.5t-2.5 -22.5t-2.5 -21q-2 -14 -2 -36q0 -125 45 -179q47 -57 134 -57q80 0 137 53q55 53 86 156l270 -49q-27 -88 -65 -146q-45 -68 -103 -110q-63 -47 -147 -72q-86 -25 -195 -24q-117 0 -203 30q-82 29 -141 88 q-57 57 -86 135q-27 75 -27 173z" />
<glyph unicode="d" horiz-adv-x="1249" d="M57 354q0 18 3 53t3 44q2 41 17 114q29 147 76 244q51 106 112 168q63 63 143.5 94t168.5 31q78 0 127 -15q53 -16 90 -43q39 -29 61 -63q25 -37 37 -78h4q0 4 3 24.5t5 37.5q6 45 19 102l84 418h276l-237 -1254q-12 -63 -19 -118q-8 -80 -10 -113h-283q0 2 1 10t1 15 q0 23 2 36q2 8 3 23.5t1 24t4.5 26t4.5 25.5h-4q-37 -46 -74 -80q-39 -37 -82 -57q-49 -25 -92 -33q-55 -10 -111 -10q-82 0 -141 26q-57 27 -105 80q-43 49 -65 119q-23 71 -23 149zM354 393q0 -102 39 -164q37 -57 121 -57q53 0 102 16q43 14 86 58q41 41 72 108 q29 63 51 172q8 43 13 84q4 53 4 72q0 117 -47 174q-45 53 -142 53q-49 0 -90 -14q-37 -12 -78 -57t-65 -105q-31 -74 -47 -168q-10 -55 -13 -92q0 -6 -3 -36t-3 -44z" />
<glyph unicode="e" d="M63 418q0 164 43 291q45 129 121 215q78 88 185 133q104 45 233 45q113 0 195 -31q84 -31 137 -84q57 -57 80 -129q25 -76 24 -168q0 -43 -6 -102q-8 -78 -16 -113h-701q0 -4 -2 -13t-3 -16.5t-1 -13.5t-1 -22.5t-1 -22.5q0 -104 47 -161.5t138 -57.5q43 0 75 12 q29 10 60 37q27 25 45 53q14 25 33 68l245 -76q-29 -57 -67 -115q-37 -51 -95 -90q-53 -35 -131 -57q-74 -20 -184 -20q-109 0 -194 30q-82 29 -142 88q-55 55 -88 140q-29 74 -29 180zM391 664h430q4 20 4 28v27q0 106 -49 155.5t-131 49.5q-41 0 -72 -11q-41 -14 -73 -41 q-35 -29 -64 -79q-27 -45 -45 -129z" />
<glyph unicode="f" horiz-adv-x="681" d="M74 0l174 893h-158l37 188h158l22 113q12 72 39 123q28 55 74 92q45 37 115 55q76 20 163 21q46 0 86 -6q47 -8 70 -13l-37 -180q-12 4 -22 4h-11.5t-13.5 2q-4 0 -13 1t-13.5 1t-12.5 1t-10 1q-63 0 -96 -32q-31 -31 -43 -97l-17 -86h213l-37 -188h-213l-174 -893h-280z " />
<glyph unicode="g" horiz-adv-x="1249" d="M-6 -141l282 28q16 -66 62 -96q47 -31 127 -31q55 0 100 16.5t74 47.5q33 35 53 84q20 47 37 119q4 18 12 59l11 57q8 43 10 58h-2q-27 -39 -60 -78q-37 -43 -73 -68q-41 -27 -96.5 -45t-124.5 -18q-82 0 -144 26q-63 27 -106 76q-45 51 -68 115q-23 61 -22 147 q0 31 4 105q2 47 16 119q53 262 172 391q121 131 328 131q59 0 108 -15q57 -16 92 -40q45 -31 72 -66t43 -88h2q4 16 12 57l15 60q6 28 12 49q6 20 8 22h267l-4 -8q-3 -8 -5 -22q-2 -10 -5 -22.5l-7 -29.5q0 -4 -6 -29.5t-8 -39.5l-7.5 -39t-7.5 -37l-166 -844 q-20 -100 -63 -190q-39 -80 -107 -135q-66 -53 -165 -82q-102 -29 -236 -29q-94 0 -180 20q-84 20 -131 54q-55 39 -84 88q-27 45 -41 123zM358 395q0 -98 45 -149q43 -49 129 -49q39 0 91 20q46 18 86 62q43 45 73 108q33 66 52 162q8 43 10 72q2 25 2 65q0 57 -14.5 98 t-43.5 70q-31 31 -61 41q-43 14 -80 14q-47 0 -92 -16q-37 -12 -74 -53q-33 -35 -57 -101q-25 -68 -43 -157q-12 -61 -16 -101q-7 -49 -7 -86z" />
<glyph unicode="h" horiz-adv-x="1249" d="M35 0l287 1485h278l-78 -406q-2 -8 -5 -19t-5 -26q-2 -8 -5 -24.5t-5 -24.5q-6 -25 -10.5 -47.5t-8.5 -40.5h2q31 43 68 80q37 35 82 63q53 33 100 45q59 16 123 17q154 0 229 -74q78 -74 78 -211q0 -27 -2 -41l-6 -45l-6 -43q-2 -14 -6 -35l-127 -653h-281l119 596 q4 18 8 41q0 6 4 22.5t4 22.5l7 45q4 29 4 33q0 63 -39 96t-115 33q-49 0 -92 -21q-53 -25 -88 -57q-43 -41 -72 -88q-31 -52 -43 -117l-117 -606h-282z" />
<glyph unicode="i" horiz-adv-x="567" d="M35 0l211 1081h280l-211 -1081h-280zM283 1278l41 207h280l-41 -207h-280z" />
<glyph unicode="j" horiz-adv-x="567" d="M-219 -406l35 189q16 -4 30 -4h27q37 0 59.5 8t40.5 27q14 14 29 49q10 25 21 78l223 1140h280l-235 -1208q-12 -63 -41 -121q-29 -59 -68 -94q-43 -41 -100 -61q-61 -23 -135 -23q-51 0 -94 6q-45 6 -72 14zM283 1278l41 207h280l-41 -207h-280z" />
<glyph unicode="k" d="M35 0l289 1485h280l-168 -850l465 446h324l-473 -422l274 -659h-299l-186 498l-142 -76l-84 -422h-280z" />
<glyph unicode="l" horiz-adv-x="567" d="M35 0l289 1485h280l-289 -1485h-280z" />
<glyph unicode="m" horiz-adv-x="1820" d="M35 0l166 852l7 33.5t7 36.5q10 55 12 71q4 18 9 58q4 25 4 30h272q0 -12 -2 -26q0 -4 -3 -22.5t-5 -28.5q-2 -14 -5 -28.5t-5 -29.5q-2 -12 -5.5 -28.5t-3.5 -20.5h4q37 53 64 84q43 47 70 66q35 25 86 40q43 14 108 15q125 0 197 -60q70 -57 86 -174q27 43 65 93 q33 41 78 73q43 31 94 49q53 18 115 19q139 0 213 -74t74 -211q0 -20 -8 -82q-6 -53 -15 -82l-127 -653h-278l121 627q2 10 6 35q2 10 4 18t2 18q4 25 4 35q0 6 1 17.5t1 15.5v4q-4 123 -125 123q-47 0 -86 -21q-41 -23 -74 -57q-27 -29 -55 -90q-25 -51 -37 -119l-119 -606 h-278l123 635q2 10 6 35q0 6 2 18t2 19q4 25 4 36q0 6 1 14.5t1 12.5q0 123 -127 123q-47 0 -86 -21q-35 -18 -72 -59q-31 -33 -57 -90q-25 -51 -37 -119l-117 -604h-282z" />
<glyph unicode="n" horiz-adv-x="1249" d="M35 0l166 852l7 33.5t7 36t5 36t5 35.5q2 18 5 33.5t6 24.5q4 25 4 30h268q0 -2 -1 -5t-2 -9t-1 -12q-2 -23 -6 -51q-4 -37 -6 -58q-2 -12 -5.5 -28.5t-3.5 -20.5h2q31 43 68 80q37 35 82 63q53 33 100 45q59 16 123 17q154 0 229 -74q78 -74 78 -211q0 -27 -2 -41 l-6 -45l-6 -43q-2 -14 -6 -35l-127 -653h-281l119 596q4 18 8 41q0 6 4 22.5t4 22.5l7 45q4 29 4 33q0 61 -39 96q-35 33 -115 33q-49 0 -92 -21q-53 -25 -88 -57q-43 -41 -72 -88q-31 -52 -43 -117l-117 -606h-282z" />
<glyph unicode="o" horiz-adv-x="1249" d="M63 420q0 158 46 280q45 125 133 215q84 88 202 138q117 49 261 49q115 0 207 -29t151 -82t90 -131q33 -82 33 -178q0 -164 -49 -293q-47 -125 -138 -221q-84 -90 -204 -139q-119 -49 -260 -49q-106 0 -193 30q-90 33 -149 86q-63 57 -96.5 137.5t-33.5 186.5zM358 430 q0 -76 14.5 -121t45.5 -80q27 -31 65 -43q43 -14 82 -14q43 0 90 10q45 10 84 43t72 92q37 68 57 162q6 29 17 96l6 87q0 70 -14 112q-16 51 -41 78t-66 43q-37 14 -88 14q-37 0 -88 -10q-43 -8 -86 -45t-74 -92q-35 -61 -55 -162q-14 -55 -17 -90q-4 -57 -4 -80z" />
<glyph unicode="p" horiz-adv-x="1249" d="M-45 -426l244 1260q8 49 10 59q0 8 4 24.5t4 24.5q4 25 8 57l5 35t8 47h274q0 -10 -2 -24q-2 -8 -3 -23.5t-1 -24t-3 -24.5l-5 -27q-4 -31 -9 -45h5q27 39 71 84q33 33 80 60q37 20 92 35q41 10 111 10q78 0 143 -25q61 -23 107 -71q45 -47 65 -111q23 -68 23 -147 q0 -58 -6 -117q-8 -74 -17 -115q-27 -139 -71 -244q-41 -98 -107 -166q-61 -66 -143 -96q-80 -31 -180 -30q-125 0 -203 53q-82 55 -111 145h-2q0 -6 -4 -40t-8 -52q-4 -27 -9.5 -52.5l-9.5 -43.5l-79 -416h-281zM399 401q0 -57 15 -98q16 -47 41 -72q29 -29 63 -43 q39 -16 82 -16q49 0 94 16q39 14 74 56q37 43 59 106q27 72 43 166q2 16 15 96q4 29 4 82q0 109 -39 160q-41 53 -123 53q-45 0 -98 -16q-45 -14 -88 -57q-41 -41 -72 -109q-29 -66 -51 -170q-8 -41 -12 -84q0 -4 -3.5 -31t-3.5 -39z" />
<glyph unicode="q" horiz-adv-x="1249" d="M59 348q0 27 4 101q2 43 17 116q27 141 78 246q49 102 112.5 165.5t143.5 94.5t166 31q76 0 116 -10q53 -14 86 -35t64 -64q23 -29 47 -90h4q4 16 12 53q4 18 13 52q2 8 7 23.5l7 21.5l4 12t3 10t1 6h270q-4 -12 -20 -88l-41 -198l-235 -1221h-281l86 432q10 51 14 74 q4 20 10.5 41.5t10.5 42.5h-4q-43 -53 -74 -82q-39 -37 -82 -57q-45 -23 -94 -35q-41 -10 -111 -10q-82 0 -141 26q-66 31 -107 76q-41 47 -63 117q-23 71 -23 149zM356 385q0 -53 9 -88q8 -33 30 -68q18 -28 49 -43q29 -14 74 -14q51 0 100 16q45 16 89 58q37 37 69 108 q35 76 51 172q8 41 13 82q4 49 4 72q0 115 -43 172t-131 57q-55 0 -99 -14q-47 -16 -84 -55q-41 -45 -65 -105q-31 -74 -47 -170q-12 -72 -15 -96q-4 -57 -4 -84z" />
<glyph unicode="r" horiz-adv-x="796" d="M35 0l162 829l12 70l4 24.5t4 21.5t4 24q6 33 10 61q2 27 7 51h268q-4 -25 -6 -51q0 -10 -4 -30.5t-4 -30.5q-2 -10 -5.5 -30.5t-3.5 -29.5q-2 -14 -4 -26.5t-4 -22.5h4q37 66 68 109q31 41 71 75q33 27 78 43q41 14 90 15q4 0 12.5 -1t14.5 -1q18 0 29 -2q20 -4 28 -6 q4 0 10.5 -1t10.5 -4l-47 -233q-8 2 -24.5 4t-24.5 4q-25 6 -66 6q-121 0 -199 -88q-80 -90 -112 -266l-103 -514h-280z" />
<glyph unicode="s" d="M23 270l251 37q10 -37 27 -63q14 -20 47 -43q25 -16 72 -27q39 -8 96 -8q37 0 90 8q35 6 70 23q29 14 47 43q16 27 16 61q0 29 -14 53q-10 18 -41 35q-25 14 -70 27q-18 6 -100 22q-74 16 -145 43q-61 23 -113 64q-49 39 -76 94q-27 53 -26 129q0 92 36.5 153.5 t102.5 102.5q61 39 153 57q89 18 191 19q98 0 168 -15q74 -15 129 -49q53 -33 88 -90t47 -135l-252 -29q-20 72 -65 101q-49 31 -134 30q-45 0 -81 -6q-43 -8 -64 -18q-31 -16 -45 -37t-14 -59q0 -31 18 -54q18 -20 53 -37q29 -12 80 -26q47 -12 103 -25q53 -12 131 -39 q53 -18 104 -59q47 -37 72 -90q25 -52 24 -129q0 -90 -32 -156q-34 -68 -99 -110q-66 -45 -157 -66q-96 -23 -213 -22q-199 0 -317.5 71.5t-157.5 218.5z" />
<glyph unicode="t" horiz-adv-x="681" d="M86 893l37 188h162l137 254h176l-47 -254h201l-35 -188h-205l-104 -537q0 -6 -3.5 -21.5t-5.5 -25.5q-2 -18 -2 -49q4 -45 25 -63q23 -20 61 -21q16 0 49 4q10 2 60 10l-33 -182q-37 -12 -84 -18q-46 -6 -98 -6q-63 0 -109 14q-47 14 -82 43q-33 27 -51 70t-18 98 q0 59 4 88q10 66 10 70l102 526h-147z" />
<glyph unicode="u" horiz-adv-x="1249" d="M86 264q0 27 2 41q2 6 2 22.5t2 24.5t4 22.5t4 20.5q2 18 6 33l127 653h279l-119 -594q-2 -8 -8 -43q0 -6 -4 -22t-4 -23l-6 -43q-2 -14 -2 -34q0 -63 37 -97q35 -33 114 -32q51 0 94 20q53 25 88 57q37 33 70 90q31 53 43 115l119 606h280l-165 -850l-12.5 -71.5 l-12.5 -71.5q-4 -33 -8 -57.5t-4 -30.5h-269q0 12 2 27q2 23 7 51q0 8 3 27.5t5 29.5q2 12 5 28.5t3 20.5h-4q-31 -43 -66 -78q-41 -41 -82 -65q-47 -29 -100 -43q-59 -16 -125 -16q-156 0 -229 71q-76 74 -76 211z" />
<glyph unicode="v" d="M111 1081h288l70 -604q0 -8 3 -29.5l5 -35.5l4 -36t2 -36q4 -49 6.5 -71.5t2.5 -59.5q4 12 12 26.5t14 32.5q2 6 31 70l33 72q8 18 17 33.5t15 29.5l316 608h303l-610 -1081h-336z" />
<glyph unicode="w" horiz-adv-x="1591" d="M98 1081h258l15 -635v-61v-61v-68l26 68l27 61q2 8 27 61l292 635h301l43 -635q2 -16 3 -59q0 -12 1 -32.5t1 -28.5v-70l28 70l25 61q6 18 13 32.5t11 26.5l267 635h266l-496 -1081h-297l-43 659q-2 20 -2 72q0 14 -1 40t-1 36v84q-20 -57 -33 -84l-30 -76 q-20 -53 -31 -74l-303 -657h-297z" />
<glyph unicode="x" d="M-90 0l508 561l-279 520h291l174 -346l295 346h309l-483 -524l295 -557h-295l-186 383l-328 -383h-301z" />
<glyph unicode="y" d="M-86 -408l39 197q18 -3 43 -6q16 -2 45 -2q39 0 70 8q23 6 63 35q29 20 62 59q31 37 61 92l27 50l-211 1056h290l70 -495q3 -12 6 -37q0 -4 3 -25.5t5 -34.5q2 -16 3.5 -34.5t3.5 -36.5q2 -12 5 -36t3 -34q2 -33 4 -59q4 -33 4 -37q4 10 16 35q6 12 12.5 26.5l14.5 32.5 q25 49 33 68q16 37 32 69q10 18 16.5 33.5t10.5 26.5l13.5 26.5t7.5 12.5l258 499h301l-656 -1138q-51 -80 -106 -156q-51 -70 -105 -115q-57 -47 -120 -71q-70 -27 -150 -27q-8 0 -94 6q-43 3 -80 12z" />
<glyph unicode="z" horiz-adv-x="1024" d="M-35 0l37 199l653 680h-479l39 202h809l-39 -200l-649 -676h567l-41 -205h-897z" />
<glyph unicode="{" horiz-adv-x="796" d="M18 432l39 193q45 0 99 14q47 12 80 39q37 31 59 70q25 43 37 104l65 338q27 143 113 219t238 76h194l-37 -191h-76q-43 0 -77 -14q-29 -12 -52 -37q-20 -25 -36 -65q-16 -43 -25 -88l-59 -312q-8 -43 -35 -90q-23 -41 -60 -74q-37 -35 -75 -53q-37 -18 -86 -29l-2 -4 q37 -8 65 -26q33 -18 51 -41q23 -25 35 -58q12 -31 12 -69q0 -4 -1 -13.5t-1 -13.5q0 -6 -4 -26l-63 -334q-3 -15 -6 -37q-4 -29 -4 -39q0 -55 32.5 -79.5t89.5 -24.5h80l-37 -193h-184q-57 0 -106 16q-41 14 -80 45q-33 27 -51.5 70t-18.5 92q0 10 4 47q4 41 8 56l62 307 q6 34 6 67q0 37 -14 72q-12 31 -37 49q-27 20 -62 29q-33 8 -80 8z" />
<glyph unicode="|" horiz-adv-x="571" d="M190 -426v1911h263v-1911h-263z" />
<glyph unicode="}" horiz-adv-x="796" d="M-156 -426l37 190h76q43 0 78 15q33 12 53 37q16 20 35 65q16 43 24 88l62 312q10 51 32.5 92t59.5 73q31 27 78 52q43 22 86 30v2q-37 8 -66 27q-33 18 -51 41q-23 25 -35 57q-12 31 -12 72q0 4 1 12.5t1 12.5q0 6 4 26l66 334q3 15 6 37q2 14 2 41q0 53 -33 78 q-37 27 -90 26h-80l37 191h184q63 0 107 -15q41 -14 80 -45q31 -27 51 -71q18 -43 18 -92q0 -4 -4 -45q-4 -37 -8 -56l-59 -307q0 -4 -2 -11t-3 -13.5t-1 -12.5t-1.5 -17.5t-1.5 -15.5q0 -35 15 -71q12 -29 39 -49q23 -18 59 -27q41 -10 80 -10l-39 -193q-49 0 -96 -12 t-80 -39q-39 -31 -61 -72q-20 -37 -35 -104l-68 -336q-15 -74 -43 -129q-29 -57 -70 -92q-43 -37 -102 -56q-66 -20 -135 -20h-195z" />
<glyph unicode="~" horiz-adv-x="1193" d="M119 543v213q61 43 119 61q72 23 151 23q76 0 156 -23q63 -18 151 -47q47 -16 109 -33q51 -14 102 -14q68 0 133 25q61 23 115 67v-219q-31 -22 -61 -37q-41 -20 -62 -27q-29 -8 -67 -12q-45 -4 -76 -4q-78 0 -148 21q-49 14 -147 47q-72 25 -121 34q-55 12 -100 13 q-37 0 -72 -6q-45 -8 -65 -17q-29 -10 -60 -28q-22 -12 -57 -37z" />
<glyph unicode="&#xa1;" horiz-adv-x="681" d="M20 -328l222 981h229l-158 -981h-293zM248 811l51 270h289l-53 -270h-287z" />
<glyph unicode="&#xa2;" d="M76 559q0 27 4 88q4 51 14 92q33 145 94 250q57 98 131 156q72 57 156 82q86 27 164 28l31 154h161l-32 -162q80 -12 137 -45q58 -34 98 -80t62 -104q20 -55 26 -121l-284 -25q-6 94 -45 142q-41 51 -121 51q-51 0 -99 -21q-45 -18 -73 -57q-35 -45 -58 -104 q-33 -86 -49 -154q0 -8 -4 -20.5t-4 -20.5l-6 -45l-6 -43q-2 -14 -2 -39q0 -123 45 -176q47 -57 133 -57q80 0 137 53q55 53 86 156l270 -52q-23 -74 -59 -137q-33 -55 -94 -106q-51 -43 -131 -72t-174 -35l-31 -166h-164l33 174q-96 16 -154 50q-63 35 -106 92 q-47 59 -66 123q-20 67 -20 151z" />
<glyph unicode="&#xa3;" d="M-51 0l39 205q92 35 151 104q55 63 78 172l25 123h-187l31 170h178l51 260q18 98 52 168q37 78 88 125q53 47 133 76q74 27 184 27q104 0 172 -23q74 -25 121 -66q49 -43 75.5 -96t33.5 -115l-244 -49q-16 86 -58 121q-43 37 -112 37q-35 0 -66 -10q-27 -8 -51 -33 q-23 -23 -39 -61q-12 -31 -26 -93l-54 -268h287l-33 -170h-286l-27 -127q-20 -106 -82 -170q-59 -61 -150 -96h408q96 0 154 45q59 47 84 145l225 -39q-43 -180 -156 -270q-113 -92 -284 -92h-715z" />
<glyph unicode="&#xa4;" d="M72 328l135 137q-28 49 -43 104q-14 51 -14 115q0 66 14 117q14 47 45 104l-133 133l157 156l132 -133q49 28 104 43q59 16 115 16q66 0 116 -14q45 -12 103 -45l135 135l158 -158l-135 -135q28 -49 43 -104q16 -59 16 -115q0 -63 -14.5 -114.5t-42.5 -102.5l133 -133 l-158 -160l-133 135q-102 -59 -221 -59q-63 0 -115 14q-55 15 -104 43l-136 -137zM375 686q0 -43 16 -82q14 -35 45 -65q29 -29 68 -45.5t80 -16.5t79.5 16.5t67.5 45.5q31 31 45 65q16 39 16.5 82t-16.5 82q-14 35 -45 66q-29 29 -67.5 45t-79.5 16t-80 -16.5t-68 -44.5 q-31 -31 -45 -66q-16 -39 -16 -82z" />
<glyph unicode="&#xa5;" d="M39 236l29 147h335l33 162h-338l29 145h276l-225 719h285l153 -596l392 596h292l-503 -719h276l-29 -145h-337l-31 -162h338l-29 -147h-338l-47 -236h-270l45 236h-336z" />
<glyph unicode="&#xa6;" horiz-adv-x="571" d="M193 324h262v-750h-262v750zM193 735v750h262v-750h-262z" />
<glyph unicode="&#xa7;" d="M-43 59l246 37q16 -84 71 -119q57 -37 164 -36q35 0 101 8q47 6 88 24q45 20 65 47q25 31 25 74q0 47 -25 78q-23 27 -65 49q-49 25 -97 35q-31 8 -59.5 14t-54.5 13q-59 14 -121 36q-57 20 -102.5 59.5t-72 86.5t-26.5 121q0 53 20.5 100t55.5 80q35 31 86 57 q37 18 111 37q-29 16 -56 39q-29 25 -47 51q-16 23 -31 68q-12 37 -12 82q0 88 35 151q35 61 96.5 100.5t157.5 57.5q92 18 209 18q92 0 164 -14q70 -14 133 -47q61 -33 94 -84q37 -55 39 -129l-246 -25q-12 68 -67.5 98.5t-139.5 30.5q-111 0 -170 -34q-57 -33 -57 -99 q0 -39 23 -63q23 -27 61.5 -45.5t81.5 -30.5q70 -18 88 -22q57 -14 127 -37q53 -18 115 -58q49 -33 82 -84q33 -53 32.5 -116.5t-18.5 -112.5q-18 -51 -49 -84q-33 -35 -78 -59q-46 -25 -105 -43q63 -33 99 -95q35 -59 35 -133q0 -92 -37 -161q-35 -68 -106.5 -117 t-168.5 -70q-102 -23 -225 -22q-98 0 -186 16q-83 15 -142 49q-57 33 -94 88q-39 57 -47 135zM346 627q0 -41 20.5 -68t57.5 -47q41 -23 80 -33l96 -24q53 4 80 10q31 6 74 27q33 14 55 40q20 23 20 66q0 37 -12 61q-12 27 -43 48q-27 18 -80 38q-33 12 -123 35 q-104 -6 -163 -45q-62 -38 -62 -108z" />
<glyph unicode="&#xa8;" horiz-adv-x="681" d="M135 1198l41 219h215l-43 -219h-213zM567 1198l43 219h217l-43 -219h-217z" />
<glyph unicode="&#xa9;" horiz-adv-x="1507" d="M61 707q0 92 27 192q23 82 74 172q47 82 112 148q68 68 146 112q88 51 174 74q92 25 190 25q154 0 283 -58q135 -59 229 -153q102 -102 156 -230q55 -132 55 -282q0 -100 -24 -193q-23 -82 -74 -172q-47 -82 -113 -147q-63 -63 -145 -111q-88 -51 -174 -74 q-100 -27 -193 -26q-90 0 -190 26q-82 23 -172 74q-80 46 -148 111q-61 59 -112 147q-51 90 -74 172q-27 101 -27 193zM176 707q0 -127 49 -238q51 -115 131 -195q82 -82 193 -131q106 -47 235 -47q133 0 240 47q111 49 193 131q80 80 131 195q49 111 49 238t-49.5 237.5 t-131 192.5t-192.5 131q-106 47 -240 47q-82 0 -161 -23q-78 -23 -146 -61q-70 -41 -123 -94.5t-94 -122.5q-39 -68 -61 -146q-23 -79 -23 -161zM393 709q0 98 25 174q25 77 74 129q55 59 122 84q76 29 174 28q80 0 138 -18q47 -14 98 -51q43 -31 70 -72q37 -57 49 -88 l-158 -41q-10 27 -24 47q-16 23 -41 41q-27 20 -53.5 30.5t-71.5 10.5q-53 0 -101 -20q-41 -18 -69 -56q-27 -35 -39 -86q-12 -49 -13 -112q0 -51 15 -113q12 -51 40.5 -90t69.5 -59.5t101 -20.5q41 0 71 12q33 12 58 35q20 18 39 47q20 33 26 49l160 -47q-29 -57 -47 -86 q-25 -39 -72 -76q-45 -37 -98 -55q-55 -20 -137 -20q-98 0 -181 32q-76 31 -126 89q-49 55 -74 133q-25 76 -25 170z" />
<glyph unicode="&#xaa;" horiz-adv-x="757" d="M104 885q0 78 31 125q33 47 84 73q53 27 113 35q72 10 125 10l123 2l6 25q8 33 8 62q0 41 -23 63q-18 18 -59 18q-25 0 -39 -2q-20 -2 -39 -12q-14 -8 -31 -27q-12 -14 -22 -49l-172 19q20 88 94 139q72 51 211 51t199 -45q61 -45 61 -145q0 -29 -4 -47q-6 -29 -10 -56 l-47 -229q0 -6 -4 -23q-2 -8 -2 -24q0 -15 6 -25q6 -8 16 -12q12 -4 16.5 -4t9.5 -1l5 -1q4 0 9 1t7 1q4 0 25 4l-10 -102q-27 -10 -56 -11q-10 0 -28.5 -1t-26.5 -1q-61 0 -102 27q-35 23 -35 72v20q0 14 2 21h-2q-12 -18 -45 -62q-23 -31 -49 -47q-29 -18 -64 -29 q-37 -10 -82 -10q-47 0 -86 17q-37 16 -63 45q-25 28 -37 61q-13 33 -13 74zM299 913q0 -49 24.5 -73.5t63.5 -24.5q12 0 41 8q25 6 45 25q27 23 41 47q18 31 31 74l16 59l-98 -2q-82 -4 -121 -29q-43 -27 -43 -84z" />
<glyph unicode="&#xab;" d="M72 500l14 71l324 367h237l-6 -41l-328 -367l189 -352l-6 -39h-232zM530 500l15 71l321 367h240l-6 -41l-330 -367l188 -352l-4 -39h-231z" />
<glyph unicode="&#xac;" horiz-adv-x="1193" d="M76 569v224h1026v-652h-223v428h-803z" />
<glyph unicode="&#xad;" horiz-adv-x="681" d="M55 410l47 243h521l-48 -243h-520z" />
<glyph unicode="&#xae;" horiz-adv-x="1507" d="M61 707q0 92 27 192q23 82 74 172q47 82 112 148q68 68 146 112q88 51 174 74q92 25 190 25q154 0 283 -58q135 -59 229 -153q102 -102 156 -230q55 -132 55 -282q0 -100 -24 -193q-23 -82 -74 -172q-47 -82 -113 -147q-63 -63 -145 -111q-88 -51 -174 -74 q-100 -27 -193 -26q-90 0 -190 26q-82 23 -172 74q-80 46 -148 111q-61 59 -112 147q-51 90 -74 172q-27 101 -27 193zM176 707q0 -127 49 -238q51 -115 131 -195q82 -82 193 -131q106 -47 235 -47q133 0 240 47q111 49 193 131q80 80 131 195q49 111 49 238t-49.5 237.5 t-131 192.5t-192.5 131q-106 47 -240 47q-82 0 -161 -23q-78 -23 -146 -61q-70 -41 -123 -94.5t-94 -122.5q-39 -68 -61 -146q-23 -79 -23 -161zM479 297v815h332q150 0 227 -65q76 -63 76 -177q0 -98 -47 -153q-49 -59 -127 -84l213 -336h-201l-178 313h-117v-313h-178z M657 739h146q66 0 98 35q35 39 35 94q0 53 -39 86q-37 31 -106 31h-134v-246z" />
<glyph unicode="&#xaf;" horiz-adv-x="1130" d="M-16 1452v94h1165v-94h-1165z" />
<glyph unicode="&#xb0;" horiz-adv-x="817" d="M188 1110q0 66 25 125q23 53 70 100q39 39 102 66q57 25 125 24q65 0 123 -24q63 -27 102 -66q47 -47 70 -100q25 -59 24 -125q0 -65 -24 -123q-23 -53 -70 -100q-43 -43 -102 -68q-58 -25 -123 -24q-68 0 -125 24q-59 25 -102 68q-47 47 -70 100q-25 58 -25 123z M342 1110q0 -29 14 -66q12 -31 35 -53t53 -35q35 -14 66 -14q27 0 63 14q27 10 52 35q23 23 35 53.5t12 65.5t-12.5 65.5t-34.5 53.5q-25 25 -52 35q-31 12 -63 12q-35 0 -65.5 -12.5t-53 -35t-35.5 -52.5q-14 -37 -14 -66z" />
<glyph unicode="&#xb1;" horiz-adv-x="1122" d="M86 0v223h1028v-223h-1028zM86 707v223h401v340h226v-340h401v-223h-401v-340h-226v340h-401z" />
<glyph unicode="&#xb2;" horiz-adv-x="681" d="M72 696l22 119q35 57 84 98q51 45 98 74q51 33 97 57q59 33 86 54q37 29 59 59q25 35 25 74q0 31 -23 49q-20 18 -57 18q-41 0 -68 -18q-33 -23 -47 -78l-162 35q31 94 101 143q66 45 192 45q66 0 109 -14q49 -16 77.5 -38.5t45.5 -59.5q14 -31 14 -74q0 -61 -25 -104 q-29 -51 -63 -80q-45 -39 -86 -62l-94 -51q-31 -16 -84 -49q-43 -27 -62 -53h348l-24 -144h-563z" />
<glyph unicode="&#xb3;" horiz-adv-x="681" d="M96 885l180 24q10 -51 33 -73q25 -25 76 -25q45 0 78 26.5t33 77.5q0 27 -11 43q-9 15 -24 25q-20 12 -34.5 14t-41.5 2h-68l25 127h59q63 0 100.5 25t37.5 70q0 41 -21 61q-23 23 -61.5 23t-71.5 -23q-27 -18 -43 -72l-164 25q16 59 41 92q29 37 66 59t86 31q43 8 104 8 q119 0 184.5 -43t65.5 -135q0 -39 -10 -63q-12 -29 -35 -56q-20 -23 -59 -41t-78 -20v-2q63 -12 102 -51t39 -101q0 -47 -22 -92q-18 -37 -64 -71q-37 -29 -100 -45q-61 -16 -129 -17q-82 0 -125 17q-55 20 -82 45q-31 27 -45 63q-15 35 -21 72z" />
<glyph unicode="&#xb4;" horiz-adv-x="681" d="M256 1184l4 30l248 287h276l-8 -43l-375 -274h-145z" />
<glyph unicode="&#xb5;" horiz-adv-x="1179" d="M-47 -426l291 1507h280l-116 -604q-8 -47 -11 -63q-4 -41 -4 -56q0 -74 31 -120q29 -45 94 -45q41 0 80 22q37 20 66 64q28 40 49 98q20 55 32 127l113 577h281l-148 -755q-3 -22 -6 -37q-2 -10 -2 -29q0 -39 16 -55q14 -14 33 -15q16 0 25 3q16 4 22 6l-16 -195 l-24.5 -5t-33 -6l-30.5 -5q-43 -8 -101 -8q-45 0 -79.5 10t-51.5 26q-20 20 -26 45q-6 28 -6 62v20q0 12 2 21h-4q-43 -84 -97 -135q-51 -49 -133 -49q-58 0 -98 24q-37 23 -53 66h-6q-3 -28 -7 -43q-2 -10 -2 -27q0 -4 -1 -10t-1 -10.5t-3 -12.5t-3 -12l-72 -381h-280z" />
<glyph unicode="&#xb6;" d="M106 1049q0 84 25 151q23 63 72 113q45 45 116 71q68 25 158 25h629v-143h-131v-1530h-156v1530h-194v-1530h-156v958q-76 0 -147 23q-63 20 -115 65q-43 37 -74 113q-27 66 -27 154z" />
<glyph unicode="&#xb7;" horiz-adv-x="567" d="M127 530l57 306h289l-59 -306h-287z" />
<glyph unicode="&#x2219;" horiz-adv-x="567" d="M127 530l57 306h289l-59 -306h-287z" />
<glyph unicode="&#xb8;" horiz-adv-x="681" d="M88 -420l29 119q4 0 20.5 -3t24.5 -3t19.5 -1t17.5 -1q82 0 118.5 18.5t36.5 59.5q0 31 -26 47q-23 14 -84 14h-25h-29l99 170h141l-47 -84q72 0 113 -33q43 -34 43 -98q0 -98 -84 -154q-86 -57 -260 -57q-6 0 -23.5 1t-28.5 1q-18 0 -55 4z" />
<glyph unicode="&#xb9;" horiz-adv-x="681" d="M98 692l23 121h184l90 469l-192 -108l22 122l203 117h174l-115 -600h170l-22 -121h-537z" />
<glyph unicode="&#xba;" horiz-adv-x="747" d="M102 981q0 100 31 180q31 82 84 137q55 57 131 88q78 31 166 31q154 0 233.5 -73.5t79.5 -200.5q0 -106 -30 -191q-29 -80 -88 -141q-55 -59 -134 -90q-82 -33 -165 -33q-74 0 -127 21q-59 23 -97 57q-40 37 -61 92q-23 57 -23 123zM305 987q0 -43 10 -78 q10 -33 26.5 -49t41.5 -26q18 -8 45 -9q18 0 51 4q23 2 49 23q23 16 45 55q22 37 37 105q6 18 11 59q2 10 2 28.5t2 28.5q0 41 -10.5 72t-26.5 47q-18 18 -39 25q-29 8 -47 8q-27 0 -53 -6q-29 -6 -54 -25q-20 -16 -45 -57q-20 -35 -33 -96q-4 -20 -8 -57.5t-4 -51.5z" />
<glyph unicode="&#xbb;" d="M39 139l4 41l330 367l-189 352l6 39h232l192 -360l-14 -72l-324 -367h-237zM496 139l6 41l329 367l-188 352l4 39h234l190 -360l-12 -72l-324 -367h-239z" />
<glyph unicode="&#xbc;" horiz-adv-x="1705" d="M98 692l23 121h184l90 469l-192 -108l22 122l203 117h174l-115 -600h170l-22 -121h-537zM231 0l1085 1409h199l-1087 -1409h-197zM889 142l28 147l396 432h219l-84 -436h102l-29 -143h-102l-27 -140h-184l29 140h-348zM1063 285h200l64 299l-4 -2q-2 -2 -7 -9.5t-8 -11.5 q-4 -6 -10 -13t-10 -13l-11 -14.5t-12 -14.5l-24 -31z" />
<glyph unicode="&#xbd;" horiz-adv-x="1705" d="M98 692l23 121h184l90 469l-192 -108l22 122l203 117h174l-115 -600h170l-22 -121h-537zM231 0l1085 1409h199l-1087 -1409h-197zM951 2l22 119q35 57 84 98q51 45 98 74q51 33 97 57q59 33 86 54q37 29 59 59q25 35 25 74q0 31 -23 49q-20 18 -57 18q-41 0 -68 -18 q-33 -23 -47 -78l-162 35q31 94 101 143q66 45 192 45q66 0 109 -14q49 -16 77.5 -38.5t45.5 -59.5q14 -31 14 -74q0 -61 -25 -104q-29 -51 -63 -80q-45 -39 -86 -62l-94 -51q-31 -16 -84 -49q-43 -27 -62 -53h348l-24 -144h-563z" />
<glyph unicode="&#xbe;" horiz-adv-x="1705" d="M231 0l1085 1409h199l-1087 -1409h-197zM889 142l28 147l396 432h219l-84 -436h102l-29 -143h-102l-27 -140h-184l29 140h-348zM1063 285h200l64 299l-4 -2q-2 -2 -7 -9.5t-8 -11.5q-4 -6 -10 -13t-10 -13l-11 -14.5t-12 -14.5l-24 -31zM110 885l180 24q10 -51 33 -73 q25 -25 76 -25q45 0 78 26.5t33 77.5q0 27 -11 43q-9 15 -24 25q-20 12 -34.5 14t-41.5 2h-68l25 127h59q63 0 100.5 25t37.5 70q0 41 -21 61q-23 23 -61.5 23t-71.5 -23q-27 -18 -43 -72l-164 25q16 59 41 92q29 37 66 59t86 31q43 8 104 8q119 0 184.5 -43t65.5 -135 q0 -39 -10 -63q-12 -29 -35 -56q-20 -23 -59 -41t-78 -20v-2q63 -12 102 -51t39 -101q0 -47 -22 -92q-18 -37 -64 -71q-37 -29 -100 -45q-61 -16 -129 -17q-82 0 -125 17q-55 20 -82 45q-31 27 -45 63q-15 35 -21 72z" />
<glyph unicode="&#xbf;" horiz-adv-x="1249" d="M27 6q0 88 32 152q39 74 84 118q49 49 119 93q86 53 131 77q27 16 66 46q41 29 53 43q20 23 37 53q14 25 20 67h267q-10 -61 -39 -120q-25 -52 -62 -93q-41 -43 -84 -73l-106 -70q-66 -41 -115 -78q-43 -31 -72 -63q-27 -29 -39 -62q-10 -27 -10 -69q0 -63 47 -104.5 t150 -41.5q109 0 180.5 47t97.5 146l267 -39q-29 -94 -72 -160q-43 -63 -117 -119q-70 -51 -160 -78q-88 -27 -213 -26q-102 0 -188 24q-92 27 -147 68q-59 45 -95 111q-32 63 -32 151zM586 811l51 270h289l-52 -270h-288z" />
<glyph unicode="&#xc0;" horiz-adv-x="1478" d="M-43 0l788 1409h349l237 -1409h-293l-55 360h-537l-194 -360h-295zM565 582h396l-66 452q0 4 -2 14.5t-4 22.5q0 10 -2 22.5l-4 24.5q0 8 -1 21.5t-3 21.5q-2 14 -2 31q0 -4 -3.5 -9t-6.5 -13.5l-5 -14.5t-24 -53q-12 -31 -29 -64q-2 -4 -31 -57zM649 1765l8 43h240 l203 -247l-9 -31h-139z" />
<glyph unicode="&#xc1;" horiz-adv-x="1478" d="M-43 0l788 1409h349l237 -1409h-293l-55 360h-537l-194 -360h-295zM565 582h396l-66 452q0 4 -2 14.5t-4 22.5q0 10 -2 22.5l-4 24.5q0 8 -1 21.5t-3 21.5q-2 14 -2 31q0 -4 -3.5 -9t-6.5 -13.5l-5 -14.5t-24 -53q-12 -31 -29 -64q-2 -4 -31 -57zM763 1530l9 31l270 247 h266l-10 -43l-385 -235h-150z" />
<glyph unicode="&#xc2;" horiz-adv-x="1478" d="M-43 0l788 1409h349l237 -1409h-293l-55 360h-537l-194 -360h-295zM565 582h396l-66 452q0 4 -2 14.5t-4 22.5q0 10 -2 22.5l-4 24.5q0 8 -1 21.5t-3 21.5q-2 14 -2 31q0 -4 -3.5 -9t-6.5 -13.5l-5 -14.5t-24 -53q-12 -31 -29 -64q-2 -4 -31 -57zM547 1530l4 29l311 276 h230l196 -276l-6 -29h-147l-174 151h-5l-239 -151h-170z" />
<glyph unicode="&#xc3;" horiz-adv-x="1478" d="M-43 0l788 1409h349l237 -1409h-293l-55 360h-537l-194 -360h-295zM565 582h396l-66 452q0 4 -2 14.5t-4 22.5q0 10 -2 22.5l-4 24.5q0 8 -1 21.5t-3 21.5q-2 14 -2 31q0 -4 -3.5 -9t-6.5 -13.5l-5 -14.5t-24 -53q-12 -31 -29 -64q-2 -4 -31 -57zM510 1530q16 61 28 96 q16 45 51 94t80 74q51 29 121 29q41 0 88 -21q45 -20 78 -41q41 -27 70 -43q34 -18 61 -18q29 0 45.5 8t32.5 24q6 6 25 39q8 14 20 52h135q-16 -61 -29 -97q-18 -53 -49 -96q-33 -45 -80 -72q-51 -29 -120 -28q-47 0 -86 18q-43 20 -78 43q-14 10 -72 41q-37 20 -63 21 q-29 0 -45 -9q-12 -6 -31 -24q-14 -14 -25 -39q-16 -35 -20 -51h-137z" />
<glyph unicode="&#xc4;" horiz-adv-x="1478" d="M-43 0l788 1409h349l237 -1409h-293l-55 360h-537l-194 -360h-295zM565 582h396l-66 452q0 4 -2 14.5t-4 22.5q0 10 -2 22.5l-4 24.5q0 8 -1 21.5t-3 21.5q-2 14 -2 31q0 -4 -3.5 -9t-6.5 -13.5l-5 -14.5t-24 -53q-12 -31 -29 -64q-2 -4 -31 -57zM606 1530l41 219h215 l-43 -219h-213zM1038 1530l43 219h217l-43 -219h-217z" />
<glyph unicode="&#xc5;" horiz-adv-x="1478" d="M-43 0l788 1409h349l237 -1409h-293l-55 360h-537l-194 -360h-295zM565 582h396l-66 452q0 4 -2 14.5t-4 22.5q0 10 -2 22.5l-4 24.5q0 8 -1 21.5t-3 21.5q-2 14 -2 31q0 -4 -3.5 -9t-6.5 -13.5l-5 -14.5t-24 -53q-12 -31 -29 -64q-2 -4 -31 -57zM671 1538q0 55 21 98 q23 49 53 80q33 33 82 55q43 20 98.5 20.5t98.5 -20.5q49 -23 82 -55q31 -31 53 -80q20 -43 20 -98q0 -57 -20 -101q-23 -49 -53 -80q-37 -37 -82 -55q-46 -18 -99 -18q-52 0 -98 18q-45 18 -82 55q-31 31 -53 80q-21 44 -21 101zM800 1537.5q0 -28.5 8.5 -51t26.5 -41.5 q16 -16 41 -26t49 -10q23 0 49 10q23 8 41.5 26.5t26.5 40.5q10 27 10 52q0 23 -10 47t-27 41q-18 18 -41 26q-27 10 -49 11q-25 0 -49 -10.5t-40.5 -27t-26.5 -40.5q-9 -19 -9 -47.5z" />
<glyph unicode="&#xc6;" horiz-adv-x="2048" d="M-96 0l964 1409h1231l-45 -227h-700l-70 -355h639l-43 -221h-639l-74 -379h744l-45 -227h-1028l69 360h-450l-242 -360h-311zM602 582h348l117 610h-59l-25 -37l-39 -61l-43 -66q-27 -37 -31 -45z" />
<glyph unicode="&#xc7;" horiz-adv-x="1478" d="M82 569q0 115 27 236q25 113 74 207q47 92 123 174q68 74 163 131q86 51 203 84q102 29 238 29q137 0 235 -31q102 -33 168 -86q74 -61 111 -125q39 -70 61 -150l-274 -71q-12 43 -37 86q-20 37 -62 73q-33 31 -92 52q-57 20 -120 20q-129 0 -222 -45q-102 -49 -164 -129 q-65 -83 -98 -197q-33 -111 -33 -254q0 -88 21 -151q23 -72 63 -115q45 -49 103 -71q61 -25 143 -25q80 0 141 20q68 23 117 58t90 82q37 43 70 98l227 -117q-45 -80 -102 -143q-66 -72 -141 -119q-78 -47 -187 -80q-104 -31 -235 -30q-154 0 -273 47t-190 125 q-74 80 -111 186q-37 108 -37 231zM436 -420l29 119q4 0 20.5 -3t24.5 -3t19.5 -1t17.5 -1q82 0 118.5 18.5t36.5 59.5q0 31 -26 47q-23 14 -84 14h-25h-29l99 170h141l-47 -84q72 0 113 -33q43 -34 43 -98q0 -98 -84 -154q-86 -57 -260 -57q-6 0 -23.5 1t-28.5 1 q-18 0 -55 4z" />
<glyph unicode="&#xc8;" horiz-adv-x="1363" d="M37 0l272 1409h1108l-45 -227h-813l-67 -355h751l-45 -229h-752l-71 -371h854l-45 -227h-1147zM557 1765l8 43h240l203 -247l-9 -31h-139z" />
<glyph unicode="&#xc9;" horiz-adv-x="1363" d="M37 0l272 1409h1108l-45 -227h-813l-67 -355h751l-45 -229h-752l-71 -371h854l-45 -227h-1147zM712 1530l9 31l270 247h266l-10 -43l-385 -235h-150z" />
<glyph unicode="&#xca;" horiz-adv-x="1363" d="M37 0l272 1409h1108l-45 -227h-813l-67 -355h751l-45 -229h-752l-71 -371h854l-45 -227h-1147zM512 1530l4 29l311 276h230l196 -276l-6 -29h-147l-174 151h-5l-239 -151h-170z" />
<glyph unicode="&#xcb;" horiz-adv-x="1363" d="M37 0l272 1409h1108l-45 -227h-813l-67 -355h751l-45 -229h-752l-71 -371h854l-45 -227h-1147zM561 1530l41 219h215l-43 -219h-213zM993 1530l43 219h217l-43 -219h-217z" />
<glyph unicode="&#xcc;" horiz-adv-x="567" d="M37 0l272 1409h295l-274 -1409h-293zM178 1765l8 43h240l203 -247l-9 -31h-139z" />
<glyph unicode="&#xcd;" horiz-adv-x="567" d="M37 0l272 1409h295l-274 -1409h-293zM325 1530l9 31l270 247h266l-10 -43l-385 -235h-150z" />
<glyph unicode="&#xce;" horiz-adv-x="567" d="M37 0l272 1409h295l-274 -1409h-293zM105 1530l4 29l311 276h230l196 -276l-6 -29h-147l-174 151h-5l-239 -151h-170z" />
<glyph unicode="&#xcf;" horiz-adv-x="567" d="M37 0l272 1409h295l-274 -1409h-293zM151 1530l41 219h215l-43 -219h-213zM583 1530l43 219h217l-43 -219h-217z" />
<glyph unicode="&#xd0;" horiz-adv-x="1478" d="M23 594l43 219h129l114 596h424q156 0 291 -39q127 -37 215 -113q90 -78 135 -188q47 -117 47 -262q0 -133 -30 -244q-31 -113 -86 -201q-59 -98 -129 -157q-74 -66 -166 -113q-96 -49 -191 -69q-106 -23 -205 -23h-577l115 594h-129zM375 227h229q117 0 215 37 q102 39 172 109q72 72 113 178t41 244q0 94 -29 170q-27 70 -80 120q-49 45 -129 72q-77 25 -172 25h-176l-72 -369h359l-45 -219h-355z" />
<glyph unicode="&#xd1;" horiz-adv-x="1478" d="M37 0l272 1409h350l377 -1141l13 82l12 82q4 31 16 92l174 885h262l-274 -1409h-354l-375 1130l-12 -83l-13 -78q-2 -16 -8 -44t-6 -32l-172 -893h-262zM543 1530q16 61 28 96q16 45 51 94t80 74q51 29 121 29q41 0 88 -21q45 -20 78 -41q41 -27 70 -43q34 -18 61 -18 q29 0 45.5 8t32.5 24q6 6 25 39q8 14 20 52h135q-16 -61 -29 -97q-18 -53 -49 -96q-33 -45 -80 -72q-51 -29 -120 -28q-47 0 -86 18q-43 20 -78 43q-14 10 -72 41q-37 20 -63 21q-29 0 -45 -9q-12 -6 -31 -24q-14 -14 -25 -39q-16 -35 -20 -51h-137z" />
<glyph unicode="&#xd2;" horiz-adv-x="1591" d="M100 573q0 29 4 95q2 29 15 96q29 143 100 272q70 127 172 211q113 92 238 135q137 47 299 48q147 0 266 -41q115 -39 197 -115t125 -182q43 -108 43 -240q0 -68 -4.5 -102.5t-16.5 -100.5q-33 -160 -100 -278q-72 -125 -174 -209q-111 -92 -240 -135q-137 -47 -297 -47 q-154 0 -270.5 43t-196.5 122q-78 78 -119 188.5t-41 239.5zM399 582q0 -182 90 -277q88 -92 252 -92q117 0 193 31q86 35 145 94q63 63 103 147q39 86 61 195q8 47 10 78q2 27 2 69q0 94 -24 162q-25 70 -68 115q-45 49 -108 70q-68 23 -142 22q-108 0 -190 -31 q-84 -31 -145 -92q-63 -63 -102.5 -147t-61.5 -199q-8 -49 -11 -74q-4 -48 -4 -71zM684 1765l8 43h240l203 -247l-9 -31h-139z" />
<glyph unicode="&#xd3;" horiz-adv-x="1591" d="M100 573q0 29 4 95q2 29 15 96q29 143 100 272q70 127 172 211q113 92 238 135q137 47 299 48q147 0 266 -41q115 -39 197 -115t125 -182q43 -108 43 -240q0 -68 -4.5 -102.5t-16.5 -100.5q-33 -160 -100 -278q-72 -125 -174 -209q-111 -92 -240 -135q-137 -47 -297 -47 q-154 0 -270.5 43t-196.5 122q-78 78 -119 188.5t-41 239.5zM399 582q0 -182 90 -277q88 -92 252 -92q117 0 193 31q86 35 145 94q63 63 103 147q39 86 61 195q8 47 10 78q2 27 2 69q0 94 -24 162q-25 70 -68 115q-45 49 -108 70q-68 23 -142 22q-108 0 -190 -31 q-84 -31 -145 -92q-63 -63 -102.5 -147t-61.5 -199q-8 -49 -11 -74q-4 -48 -4 -71zM856 1530l9 31l270 247h266l-10 -43l-385 -235h-150z" />
<glyph unicode="&#xd4;" horiz-adv-x="1591" d="M100 573q0 29 4 95q2 29 15 96q29 143 100 272q70 127 172 211q113 92 238 135q137 47 299 48q147 0 266 -41q115 -39 197 -115t125 -182q43 -108 43 -240q0 -68 -4.5 -102.5t-16.5 -100.5q-33 -160 -100 -278q-72 -125 -174 -209q-111 -92 -240 -135q-137 -47 -297 -47 q-154 0 -270.5 43t-196.5 122q-78 78 -119 188.5t-41 239.5zM399 582q0 -182 90 -277q88 -92 252 -92q117 0 193 31q86 35 145 94q63 63 103 147q39 86 61 195q8 47 10 78q2 27 2 69q0 94 -24 162q-25 70 -68 115q-45 49 -108 70q-68 23 -142 22q-108 0 -190 -31 q-84 -31 -145 -92q-63 -63 -102.5 -147t-61.5 -199q-8 -49 -11 -74q-4 -48 -4 -71zM576 1530l4 29l311 276h230l196 -276l-6 -29h-147l-174 151h-5l-239 -151h-170z" />
<glyph unicode="&#xd5;" horiz-adv-x="1591" d="M100 573q0 29 4 95q2 29 15 96q29 143 100 272q70 127 172 211q113 92 238 135q137 47 299 48q147 0 266 -41q115 -39 197 -115t125 -182q43 -108 43 -240q0 -68 -4.5 -102.5t-16.5 -100.5q-33 -160 -100 -278q-72 -125 -174 -209q-111 -92 -240 -135q-137 -47 -297 -47 q-154 0 -270.5 43t-196.5 122q-78 78 -119 188.5t-41 239.5zM399 582q0 -182 90 -277q88 -92 252 -92q117 0 193 31q86 35 145 94q63 63 103 147q39 86 61 195q8 47 10 78q2 27 2 69q0 94 -24 162q-25 70 -68 115q-45 49 -108 70q-68 23 -142 22q-108 0 -190 -31 q-84 -31 -145 -92q-63 -63 -102.5 -147t-61.5 -199q-8 -49 -11 -74q-4 -48 -4 -71zM580 1530q16 61 28 96q16 45 51 94t80 74q51 29 121 29q41 0 88 -21q45 -20 78 -41q41 -27 70 -43q34 -18 61 -18q29 0 45.5 8t32.5 24q6 6 25 39q8 14 20 52h135q-16 -61 -29 -97 q-18 -53 -49 -96q-33 -45 -80 -72q-51 -29 -120 -28q-47 0 -86 18q-43 20 -78 43q-14 10 -72 41q-37 20 -63 21q-29 0 -45 -9q-12 -6 -31 -24q-14 -14 -25 -39q-16 -35 -20 -51h-137z" />
<glyph unicode="&#xd6;" horiz-adv-x="1591" d="M100 573q0 29 4 95q2 29 15 96q29 143 100 272q70 127 172 211q113 92 238 135q137 47 299 48q147 0 266 -41q115 -39 197 -115t125 -182q43 -108 43 -240q0 -68 -4.5 -102.5t-16.5 -100.5q-33 -160 -100 -278q-72 -125 -174 -209q-111 -92 -240 -135q-137 -47 -297 -47 q-154 0 -270.5 43t-196.5 122q-78 78 -119 188.5t-41 239.5zM399 582q0 -182 90 -277q88 -92 252 -92q117 0 193 31q86 35 145 94q63 63 103 147q39 86 61 195q8 47 10 78q2 27 2 69q0 94 -24 162q-25 70 -68 115q-45 49 -108 70q-68 23 -142 22q-108 0 -190 -31 q-84 -31 -145 -92q-63 -63 -102.5 -147t-61.5 -199q-8 -49 -11 -74q-4 -48 -4 -71zM649 1530l41 219h215l-43 -219h-213zM1081 1530l43 219h217l-43 -219h-217z" />
<glyph unicode="&#xd7;" horiz-adv-x="1193" d="M127 326l354 358l-352 352l160 156l350 -350l352 352l160 -158l-352 -354l352 -350l-160 -160l-352 354l-354 -358z" />
<glyph unicode="&#xd8;" horiz-adv-x="1591" d="M35 -53l205 221q-66 76 -105 180q-35 96 -35 225q0 29 4 95q2 29 15 96q29 143 100 272q70 127 172 211q113 92 238 135q137 47 299 48q125 0 219 -27q104 -29 176 -78l131 141h205l-223 -239q61 -74 92 -168q31 -96 31 -207q0 -68 -4.5 -102.5t-16.5 -100.5 q-33 -160 -100 -278q-72 -125 -174 -209q-111 -92 -240 -135q-137 -47 -297 -47q-109 0 -205 22q-86 20 -166 70l-114 -125h-207zM399 582q0 -125 39 -203l701 747q-84 70 -226 70q-108 0 -190 -31q-84 -31 -145 -92q-63 -63 -102.5 -147t-61.5 -199q-8 -49 -11 -74 q-4 -48 -4 -71zM539 264q78 -51 202 -51q117 0 193 31q86 35 145 94q63 63 103 147q39 86 61 195q8 47 10 78q2 27 2 69q0 98 -28 174z" />
<glyph unicode="&#xd9;" horiz-adv-x="1478" d="M119 430q0 31 2 49l6 56l6 55q2 10 5 26.5t3 18.5l150 774h295l-154 -811q-6 -34 -12 -80q-6 -47 -6 -92q0 -55 20 -94q23 -41 57.5 -67.5t86.5 -39.5q57 -14 110 -14q84 0 139 16q61 18 107 58q47 41 76 100q31 66 49 156l168 868h295l-172 -879q-29 -143 -82 -245 q-55 -102 -140 -172q-82 -66 -196 -101q-111 -33 -260 -32q-127 0 -232 30q-109 33 -174 86q-74 61 -108 142q-39 90 -39 192zM623 1765l8 43h240l203 -247l-9 -31h-139z" />
<glyph unicode="&#xda;" horiz-adv-x="1478" d="M119 430q0 31 2 49l6 56l6 55q2 10 5 26.5t3 18.5l150 774h295l-154 -811q-6 -34 -12 -80q-6 -47 -6 -92q0 -55 20 -94q23 -41 57.5 -67.5t86.5 -39.5q57 -14 110 -14q84 0 139 16q61 18 107 58q47 41 76 100q31 66 49 156l168 868h295l-172 -879q-29 -143 -82 -245 q-55 -102 -140 -172q-82 -66 -196 -101q-111 -33 -260 -32q-127 0 -232 30q-109 33 -174 86q-74 61 -108 142q-39 90 -39 192zM788 1530l9 31l270 247h266l-10 -43l-385 -235h-150z" />
<glyph unicode="&#xdb;" horiz-adv-x="1478" d="M119 430q0 31 2 49l6 56l6 55q2 10 5 26.5t3 18.5l150 774h295l-154 -811q-6 -34 -12 -80q-6 -47 -6 -92q0 -55 20 -94q23 -41 57.5 -67.5t86.5 -39.5q57 -14 110 -14q84 0 139 16q61 18 107 58q47 41 76 100q31 66 49 156l168 868h295l-172 -879q-29 -143 -82 -245 q-55 -102 -140 -172q-82 -66 -196 -101q-111 -33 -260 -32q-127 0 -232 30q-109 33 -174 86q-74 61 -108 142q-39 90 -39 192zM549 1530l4 29l311 276h230l196 -276l-6 -29h-147l-174 151h-5l-239 -151h-170z" />
<glyph unicode="&#xdc;" horiz-adv-x="1478" d="M119 430q0 31 2 49l6 56l6 55q2 10 5 26.5t3 18.5l150 774h295l-154 -811q-6 -34 -12 -80q-6 -47 -6 -92q0 -55 20 -94q23 -41 57.5 -67.5t86.5 -39.5q57 -14 110 -14q84 0 139 16q61 18 107 58q47 41 76 100q31 66 49 156l168 868h295l-172 -879q-29 -143 -82 -245 q-55 -102 -140 -172q-82 -66 -196 -101q-111 -33 -260 -32q-127 0 -232 30q-109 33 -174 86q-74 61 -108 142q-39 90 -39 192zM600 1530l41 219h215l-43 -219h-213zM1032 1530l43 219h217l-43 -219h-217z" />
<glyph unicode="&#xdd;" horiz-adv-x="1363" d="M172 1409h293l258 -604l473 604h324l-684 -831l-111 -578h-295l113 578zM714 1530l9 31l270 247h266l-10 -43l-385 -235h-150z" />
<glyph unicode="&#xde;" horiz-adv-x="1363" d="M37 0l272 1409h295l-43 -225h246q123 0 221 -29q92 -27 162 -84q68 -55 102 -133q33 -74 33 -176q0 -115 -39 -205q-37 -86 -115 -154q-74 -65 -178 -98q-109 -35 -231 -35h-377l-53 -270h-295zM428 498h289q158 0 233.5 57t75.5 190q0 59 -16 95q-20 43 -52 65 q-34 25 -79 37q-47 12 -101 12h-262z" />
<glyph unicode="&#xdf;" horiz-adv-x="1249" d="M35 0l201 1026q49 238 188 348q137 111 373 111q84 0 161 -21q71 -18 123 -55q47 -33 78 -92q29 -53 29 -121t-22.5 -119t-53.5 -88q-33 -39 -68 -65l-69 -54q-29 -23 -53 -51q-23 -27 -23 -59q0 -37 19 -62q16 -23 47 -49q28 -25 61 -49q37 -27 61 -57q25 -29 46 -82 q18 -47 18 -117q0 -82 -29 -151q-27 -66 -82 -115q-53 -47 -127 -72q-80 -27 -163 -26q-109 0 -191 16q-72 14 -131 41l68 186l24 -12t25 -10l53 -19q29 -10 57 -12q41 -4 66 -4q78 0 121 43q41 41 41 113q0 45 -19 75q-20 33 -45 56q-41 35 -59 49q-20 14 -58 51 q-29 29 -47 68q-16 35 -16 98q0 57 20.5 98t55.5 76q29 29 69 59q25 18 70 60q34 31 55 67q23 39 23 88q0 53 -37 84q-35 29 -107 29q-63 0 -98 -12q-49 -18 -80 -45q-33 -31 -59 -82q-23 -47 -39 -119l-197 -1022h-280z" />
<glyph unicode="&#xe0;" d="M10 279q0 78 23 139q20 57 61 100q39 41 92 70q45 25 113 41q55 14 125 20q86 8 127 8l190 2l9 37l10 52q4 29 4 43q0 68 -35 98q-34 31 -92 31q-20 0 -62 -5q-29 -2 -57 -18q-31 -16 -51 -43q-23 -29 -35 -78l-262 33q14 68 51 121q35 51 94 92q53 37 140 59 q76 20 186 21q207 0 303 -74t96 -221q0 -35 -8 -74q-4 -20 -7 -41.5t-7 -42.5l-72 -352l-6 -37q-2 -12 -2 -34.5t10 -37.5q8 -12 23 -18q16 -8 26 -8q4 0 11.5 -1t9.5 -1q6 0 14 1t12 1q12 0 35 6l-14 -156q-43 -16 -84 -18q-57 -4 -88 -4q-100 0 -156 43q-53 41 -53 110v31 q0 12 4 33h-6q-31 -47 -68 -94q-29 -37 -77 -72q-39 -29 -97 -45q-55 -16 -123 -16q-77 0 -135 24q-59 25 -96 68q-41 49 -57 96q-19 56 -19 111zM297 326q0 -40 12 -68q14 -31 33 -47q23 -18 45 -27q25 -8 55 -8q29 0 66 12q41 14 70 37q31 27 63 74q29 41 47 113l23 92 h-162q-117 -3 -184.5 -49t-67.5 -129zM393 1458l8 43h258l195 -287l-7 -30h-147z" />
<glyph unicode="&#xe1;" d="M10 279q0 78 23 139q20 57 61 100q39 41 92 70q45 25 113 41q55 14 125 20q86 8 127 8l190 2l9 37l10 52q4 29 4 43q0 68 -35 98q-34 31 -92 31q-20 0 -62 -5q-29 -2 -57 -18q-31 -16 -51 -43q-23 -29 -35 -78l-262 33q14 68 51 121q35 51 94 92q53 37 140 59 q76 20 186 21q207 0 303 -74t96 -221q0 -35 -8 -74q-4 -20 -7 -41.5t-7 -42.5l-72 -352l-6 -37q-2 -12 -2 -34.5t10 -37.5q8 -12 23 -18q16 -8 26 -8q4 0 11.5 -1t9.5 -1q6 0 14 1t12 1q12 0 35 6l-14 -156q-43 -16 -84 -18q-57 -4 -88 -4q-100 0 -156 43q-53 41 -53 110v31 q0 12 4 33h-6q-31 -47 -68 -94q-29 -37 -77 -72q-39 -29 -97 -45q-55 -16 -123 -16q-77 0 -135 24q-59 25 -96 68q-41 49 -57 96q-19 56 -19 111zM297 326q0 -40 12 -68q14 -31 33 -47q23 -18 45 -27q25 -8 55 -8q29 0 66 12q41 14 70 37q31 27 63 74q29 41 47 113l23 92 h-162q-117 -3 -184.5 -49t-67.5 -129zM543 1184l4 30l248 287h276l-8 -43l-375 -274h-145z" />
<glyph unicode="&#xe2;" d="M10 279q0 78 23 139q20 57 61 100q39 41 92 70q45 25 113 41q55 14 125 20q86 8 127 8l190 2l9 37l10 52q4 29 4 43q0 68 -35 98q-34 31 -92 31q-20 0 -62 -5q-29 -2 -57 -18q-31 -16 -51 -43q-23 -29 -35 -78l-262 33q14 68 51 121q35 51 94 92q53 37 140 59 q76 20 186 21q207 0 303 -74t96 -221q0 -35 -8 -74q-4 -20 -7 -41.5t-7 -42.5l-72 -352l-6 -37q-2 -12 -2 -34.5t10 -37.5q8 -12 23 -18q16 -8 26 -8q4 0 11.5 -1t9.5 -1q6 0 14 1t12 1q12 0 35 6l-14 -156q-43 -16 -84 -18q-57 -4 -88 -4q-100 0 -156 43q-53 41 -53 110v31 q0 12 4 33h-6q-31 -47 -68 -94q-29 -37 -77 -72q-39 -29 -97 -45q-55 -16 -123 -16q-77 0 -135 24q-59 25 -96 68q-41 49 -57 96q-19 56 -19 111zM297 326q0 -40 12 -68q14 -31 33 -47q23 -18 45 -27q25 -8 55 -8q29 0 66 12q41 14 70 37q31 27 63 74q29 41 47 113l23 92 h-162q-117 -3 -184.5 -49t-67.5 -129zM307 1184l6 26l319 320h230l186 -320l-4 -26h-149l-166 190h-4l-248 -190h-170z" />
<glyph unicode="&#xe3;" d="M10 279q0 78 23 139q20 57 61 100q39 41 92 70q45 25 113 41q55 14 125 20q86 8 127 8l190 2l9 37l10 52q4 29 4 43q0 68 -35 98q-34 31 -92 31q-20 0 -62 -5q-29 -2 -57 -18q-31 -16 -51 -43q-23 -29 -35 -78l-262 33q14 68 51 121q35 51 94 92q53 37 140 59 q76 20 186 21q207 0 303 -74t96 -221q0 -35 -8 -74q-4 -20 -7 -41.5t-7 -42.5l-72 -352l-6 -37q-2 -12 -2 -34.5t10 -37.5q8 -12 23 -18q16 -8 26 -8q4 0 11.5 -1t9.5 -1q6 0 14 1t12 1q12 0 35 6l-14 -156q-43 -16 -84 -18q-57 -4 -88 -4q-100 0 -156 43q-53 41 -53 110v31 q0 12 4 33h-6q-31 -47 -68 -94q-29 -37 -77 -72q-39 -29 -97 -45q-55 -16 -123 -16q-77 0 -135 24q-59 25 -96 68q-41 49 -57 96q-19 56 -19 111zM297 326q0 -40 12 -68q14 -31 33 -47q23 -18 45 -27q25 -8 55 -8q29 0 66 12q41 14 70 37q31 27 63 74q29 41 47 113l23 92 h-162q-117 -3 -184.5 -49t-67.5 -129zM273 1184q16 61 28 96q16 45 51 94t80 74q51 29 121 29q41 0 88 -21q45 -20 78 -41q41 -27 70 -43q34 -18 61 -18q29 0 45.5 8t32.5 24q6 6 25 39q8 14 20 52h135q-16 -61 -29 -97q-18 -53 -49 -96q-33 -45 -80 -72q-51 -29 -120 -28 q-47 0 -86 18q-43 20 -78 43q-14 10 -72 41q-37 20 -63 21q-29 0 -45 -9q-12 -6 -31 -24q-14 -14 -25 -39q-16 -35 -20 -51h-137z" />
<glyph unicode="&#xe4;" d="M10 279q0 78 23 139q20 57 61 100q39 41 92 70q45 25 113 41q55 14 125 20q86 8 127 8l190 2l9 37l10 52q4 29 4 43q0 68 -35 98q-34 31 -92 31q-20 0 -62 -5q-29 -2 -57 -18q-31 -16 -51 -43q-23 -29 -35 -78l-262 33q14 68 51 121q35 51 94 92q53 37 140 59 q76 20 186 21q207 0 303 -74t96 -221q0 -35 -8 -74q-4 -20 -7 -41.5t-7 -42.5l-72 -352l-6 -37q-2 -12 -2 -34.5t10 -37.5q8 -12 23 -18q16 -8 26 -8q4 0 11.5 -1t9.5 -1q6 0 14 1t12 1q12 0 35 6l-14 -156q-43 -16 -84 -18q-57 -4 -88 -4q-100 0 -156 43q-53 41 -53 110v31 q0 12 4 33h-6q-31 -47 -68 -94q-29 -37 -77 -72q-39 -29 -97 -45q-55 -16 -123 -16q-77 0 -135 24q-59 25 -96 68q-41 49 -57 96q-19 56 -19 111zM297 326q0 -40 12 -68q14 -31 33 -47q23 -18 45 -27q25 -8 55 -8q29 0 66 12q41 14 70 37q31 27 63 74q29 41 47 113l23 92 h-162q-117 -3 -184.5 -49t-67.5 -129zM350 1198l41 219h215l-43 -219h-213zM782 1198l43 219h217l-43 -219h-217z" />
<glyph unicode="&#xe5;" d="M10 279q0 78 23 139q20 57 61 100q39 41 92 70q45 25 113 41q55 14 125 20q86 8 127 8l190 2l9 37l10 52q4 29 4 43q0 68 -35 98q-34 31 -92 31q-20 0 -62 -5q-29 -2 -57 -18q-31 -16 -51 -43q-23 -29 -35 -78l-262 33q14 68 51 121q35 51 94 92q53 37 140 59 q76 20 186 21q207 0 303 -74t96 -221q0 -35 -8 -74q-4 -20 -7 -41.5t-7 -42.5l-72 -352l-6 -37q-2 -12 -2 -34.5t10 -37.5q8 -12 23 -18q16 -8 26 -8q4 0 11.5 -1t9.5 -1q6 0 14 1t12 1q12 0 35 6l-14 -156q-43 -16 -84 -18q-57 -4 -88 -4q-100 0 -156 43q-53 41 -53 110v31 q0 12 4 33h-6q-31 -47 -68 -94q-29 -37 -77 -72q-39 -29 -97 -45q-55 -16 -123 -16q-77 0 -135 24q-59 25 -96 68q-41 49 -57 96q-19 56 -19 111zM297 326q0 -40 12 -68q14 -31 33 -47q23 -18 45 -27q25 -8 55 -8q29 0 66 12q41 14 70 37q31 27 63 74q29 41 47 113l23 92 h-162q-117 -3 -184.5 -49t-67.5 -129zM452 1432q0 55 21 98q23 49 53 80q33 33 82 55q43 20 98.5 20.5t98.5 -20.5q49 -23 82 -55q31 -31 53 -80q20 -43 20 -98q0 -57 -20 -101q-23 -49 -53 -80q-37 -37 -82 -55q-46 -18 -99 -18q-52 0 -98 18q-45 18 -82 55q-31 31 -53 80 q-21 44 -21 101zM581 1431.5q0 -28.5 8.5 -51t26.5 -41.5q16 -16 41 -26t49 -10q23 0 49 10q23 8 41.5 26.5t26.5 40.5q10 27 10 52q0 23 -10 47t-27 41q-18 18 -41 26q-27 10 -49 11q-25 0 -49 -10.5t-40.5 -27t-26.5 -40.5q-9 -19 -9 -47.5z" />
<glyph unicode="&#xe6;" horiz-adv-x="1820" d="M43 279q0 84 20 139q20 57 64 102q41 43 90 70q53 29 113 43q55 14 125 20q65 6 129 6h190l8 37l11 52q2 14 2 43q0 68 -33 98.5t-94 30.5q-18 0 -60 -5q-33 -4 -59 -18q-28 -15 -49 -43q-23 -29 -35 -78l-262 33q14 68 51 121q35 51 94 92q53 37 139 59q76 20 187 21 q113 0 186 -31q70 -29 113 -82q139 113 342 113q111 0 194 -31q82 -31 136 -84q57 -57 79 -129q27 -84 27 -168q0 -43 -6 -102q-6 -61 -19 -113h-700q-4 -29 -4 -43q0 -6 -1 -22.5t-1 -22.5q0 -104 47 -161.5t137 -57.5q41 0 76 12q27 10 57 37q33 29 47.5 53.5t32.5 67.5 l246 -76q-23 -49 -70 -115q-39 -53 -92 -90q-51 -35 -133 -57q-74 -20 -182 -20q-156 0 -252 57q-98 57 -143 162q-47 -74 -99 -115q-47 -39 -106 -66q-55 -25 -117 -30q-78 -8 -121 -8q-77 0 -135 24q-57 25 -94 68q-41 49 -58 96q-18 56 -18 111zM342 326q0 -43 8 -68 q10 -29 29 -47q16 -16 43 -27q23 -8 53 -8q27 0 64 12q45 14 71 37q31 27 64 74q29 41 47 113l22 88h-161q-113 0 -176.5 -45t-63.5 -129zM1061 664h430q2 10 2 28v27q0 106 -49 155.5t-129 49.5q-41 0 -72 -11q-41 -14 -74 -41q-35 -29 -63 -79q-27 -45 -45 -129z" />
<glyph unicode="&#xe7;" d="M63 406q0 55 3 86q2 41 16 92q25 113 63 192q37 78 86 139q43 55 103 95q53 35 112 57q55 20 117 27q78 8 117 8q104 0 184 -29q78 -29 131 -78q49 -47 80 -116q29 -68 35 -138l-285 -22q-6 92 -45 139q-41 51 -123 51q-53 0 -96 -18q-41 -18 -74 -60q-35 -45 -57 -104 q-35 -90 -49 -152q0 -6 -4 -20t-4 -22.5t-4 -22.5t-4 -22.5t-2.5 -22.5t-2.5 -21q-2 -14 -2 -36q0 -125 45 -179q47 -57 134 -57q80 0 137 53q55 53 86 156l270 -49q-27 -88 -65 -146q-45 -68 -103 -110q-63 -47 -147 -72q-86 -25 -195 -24q-117 0 -203 30q-82 29 -141 88 q-57 57 -86 135q-27 75 -27 173zM281 -420l29 119q4 0 20.5 -3t24.5 -3t19.5 -1t17.5 -1q82 0 118.5 18.5t36.5 59.5q0 31 -26 47q-23 14 -84 14h-25h-29l99 170h141l-47 -84q72 0 113 -33q43 -34 43 -98q0 -98 -84 -154q-86 -57 -260 -57q-6 0 -23.5 1t-28.5 1q-18 0 -55 4 z" />
<glyph unicode="&#xe8;" d="M63 418q0 164 43 291q45 129 121 215q78 88 185 133q104 45 233 45q113 0 195 -31q84 -31 137 -84q57 -57 80 -129q25 -76 24 -168q0 -43 -6 -102q-8 -78 -16 -113h-701q0 -4 -2 -13t-3 -16.5t-1 -13.5t-1 -22.5t-1 -22.5q0 -104 47 -161.5t138 -57.5q43 0 75 12 q29 10 60 37q27 25 45 53q14 25 33 68l245 -76q-29 -57 -67 -115q-37 -51 -95 -90q-53 -35 -131 -57q-74 -20 -184 -20q-109 0 -194 30q-82 29 -142 88q-55 55 -88 140q-29 74 -29 180zM391 664h430q4 20 4 28v27q0 106 -49 155.5t-131 49.5q-41 0 -72 -11q-41 -14 -73 -41 q-35 -29 -64 -79q-27 -45 -45 -129zM408 1458l8 43h258l195 -287l-7 -30h-147z" />
<glyph unicode="&#xe9;" d="M63 418q0 164 43 291q45 129 121 215q78 88 185 133q104 45 233 45q113 0 195 -31q84 -31 137 -84q57 -57 80 -129q25 -76 24 -168q0 -43 -6 -102q-8 -78 -16 -113h-701q0 -4 -2 -13t-3 -16.5t-1 -13.5t-1 -22.5t-1 -22.5q0 -104 47 -161.5t138 -57.5q43 0 75 12 q29 10 60 37q27 25 45 53q14 25 33 68l245 -76q-29 -57 -67 -115q-37 -51 -95 -90q-53 -35 -131 -57q-74 -20 -184 -20q-109 0 -194 30q-82 29 -142 88q-55 55 -88 140q-29 74 -29 180zM391 664h430q4 20 4 28v27q0 106 -49 155.5t-131 49.5q-41 0 -72 -11q-41 -14 -73 -41 q-35 -29 -64 -79q-27 -45 -45 -129zM524 1184l4 30l248 287h276l-8 -43l-375 -274h-145z" />
<glyph unicode="&#xea;" d="M63 418q0 164 43 291q45 129 121 215q78 88 185 133q104 45 233 45q113 0 195 -31q84 -31 137 -84q57 -57 80 -129q25 -76 24 -168q0 -43 -6 -102q-8 -78 -16 -113h-701q0 -4 -2 -13t-3 -16.5t-1 -13.5t-1 -22.5t-1 -22.5q0 -104 47 -161.5t138 -57.5q43 0 75 12 q29 10 60 37q27 25 45 53q14 25 33 68l245 -76q-29 -57 -67 -115q-37 -51 -95 -90q-53 -35 -131 -57q-74 -20 -184 -20q-109 0 -194 30q-82 29 -142 88q-55 55 -88 140q-29 74 -29 180zM391 664h430q4 20 4 28v27q0 106 -49 155.5t-131 49.5q-41 0 -72 -11q-41 -14 -73 -41 q-35 -29 -64 -79q-27 -45 -45 -129zM307 1184l6 26l319 320h230l186 -320l-4 -26h-149l-166 190h-4l-248 -190h-170z" />
<glyph unicode="&#xeb;" d="M63 418q0 164 43 291q45 129 121 215q78 88 185 133q104 45 233 45q113 0 195 -31q84 -31 137 -84q57 -57 80 -129q25 -76 24 -168q0 -43 -6 -102q-8 -78 -16 -113h-701q0 -4 -2 -13t-3 -16.5t-1 -13.5t-1 -22.5t-1 -22.5q0 -104 47 -161.5t138 -57.5q43 0 75 12 q29 10 60 37q27 25 45 53q14 25 33 68l245 -76q-29 -57 -67 -115q-37 -51 -95 -90q-53 -35 -131 -57q-74 -20 -184 -20q-109 0 -194 30q-82 29 -142 88q-55 55 -88 140q-29 74 -29 180zM391 664h430q4 20 4 28v27q0 106 -49 155.5t-131 49.5q-41 0 -72 -11q-41 -14 -73 -41 q-35 -29 -64 -79q-27 -45 -45 -129zM362 1198l41 219h215l-43 -219h-213zM794 1198l43 219h217l-43 -219h-217z" />
<glyph unicode="&#xec;" horiz-adv-x="567" d="M35 0l211 1081h280l-211 -1081h-280zM99 1458l8 43h258l195 -287l-7 -30h-147z" />
<glyph unicode="&#xed;" horiz-adv-x="567" d="M35 0l211 1081h280l-211 -1081h-280zM258 1184l4 30l248 287h276l-8 -43l-375 -274h-145z" />
<glyph unicode="&#xee;" horiz-adv-x="567" d="M35 0l211 1081h280l-211 -1081h-280zM27 1184l6 26l319 320h230l186 -320l-4 -26h-149l-166 190h-4l-248 -190h-170z" />
<glyph unicode="&#xef;" horiz-adv-x="567" d="M35 0l211 1081h280l-211 -1081h-280zM82 1198l41 219h215l-43 -219h-213zM514 1198l43 219h217l-43 -219h-217z" />
<glyph unicode="&#xf0;" horiz-adv-x="1249" d="M57 410q0 123 41 229t115 180q76 76 186 119q104 41 250 41q41 0 64 -4q45 -8 65 -14q35 -10 58 -21q25 -10 45 -25q-16 72 -50 140q-35 70 -75 125l-277 -111l33 178l150 58q-31 31 -101 92q-53 47 -123 88h293q25 -12 74 -45q37 -25 67 -49l295 108l-30 -176l-146 -53 q49 -68 78 -119q39 -72 57 -125q23 -70 35 -139q10 -61 10 -160q0 -164 -41 -305q-39 -137 -122 -236q-82 -96 -201 -151t-281 -55q-119 0 -204 32q-89 34 -148 92q-63 63 -88 136q-29 82 -29 170zM352 395q0 -49 10 -82q12 -41 37 -71q27 -33 62 -49q45 -20 94 -21 q68 0 125 33q53 31 98 92q39 53 66 139q25 80 24 170q0 84 -53 133q-49 47 -158 47q-70 0 -127 -28q-55 -27 -96 -82q-40 -52 -61 -123q-21 -68 -21 -158z" />
<glyph unicode="&#xf1;" horiz-adv-x="1249" d="M35 0l166 852l7 33.5t7 36t5 36t5 35.5q2 18 5 33.5t6 24.5q4 25 4 30h268q0 -2 -1 -5t-2 -9t-1 -12q-2 -23 -6 -51q-4 -37 -6 -58q-2 -12 -5.5 -28.5t-3.5 -20.5h2q31 43 68 80q37 35 82 63q53 33 100 45q59 16 123 17q154 0 229 -74q78 -74 78 -211q0 -27 -2 -41 l-6 -45l-6 -43q-2 -14 -6 -35l-127 -653h-281l119 596q4 18 8 41q0 6 4 22.5t4 22.5l7 45q4 29 4 33q0 61 -39 96q-35 33 -115 33q-49 0 -92 -21q-53 -25 -88 -57q-43 -41 -72 -88q-31 -52 -43 -117l-117 -606h-282zM363 1184q16 61 28 96q16 45 51 94t80 74q51 29 121 29 q41 0 88 -21q45 -20 78 -41q41 -27 70 -43q34 -18 61 -18q29 0 45.5 8t32.5 24q6 6 25 39q8 14 20 52h135q-16 -61 -29 -97q-18 -53 -49 -96q-33 -45 -80 -72q-51 -29 -120 -28q-47 0 -86 18q-43 20 -78 43q-14 10 -72 41q-37 20 -63 21q-29 0 -45 -9q-12 -6 -31 -24 q-14 -14 -25 -39q-16 -35 -20 -51h-137z" />
<glyph unicode="&#xf2;" horiz-adv-x="1249" d="M63 420q0 158 46 280q45 125 133 215q84 88 202 138q117 49 261 49q115 0 207 -29t151 -82t90 -131q33 -82 33 -178q0 -164 -49 -293q-47 -125 -138 -221q-84 -90 -204 -139q-119 -49 -260 -49q-106 0 -193 30q-90 33 -149 86q-63 57 -96.5 137.5t-33.5 186.5zM358 430 q0 -76 14.5 -121t45.5 -80q27 -31 65 -43q43 -14 82 -14q43 0 90 10q45 10 84 43t72 92q37 68 57 162q6 29 17 96l6 87q0 70 -14 112q-16 51 -41 78t-66 43q-37 14 -88 14q-37 0 -88 -10q-43 -8 -86 -45t-74 -92q-35 -61 -55 -162q-14 -55 -17 -90q-4 -57 -4 -80zM432 1458 l8 43h258l195 -287l-7 -30h-147z" />
<glyph unicode="&#xf3;" horiz-adv-x="1249" d="M63 420q0 158 46 280q45 125 133 215q84 88 202 138q117 49 261 49q115 0 207 -29t151 -82t90 -131q33 -82 33 -178q0 -164 -49 -293q-47 -125 -138 -221q-84 -90 -204 -139q-119 -49 -260 -49q-106 0 -193 30q-90 33 -149 86q-63 57 -96.5 137.5t-33.5 186.5zM358 430 q0 -76 14.5 -121t45.5 -80q27 -31 65 -43q43 -14 82 -14q43 0 90 10q45 10 84 43t72 92q37 68 57 162q6 29 17 96l6 87q0 70 -14 112q-16 51 -41 78t-66 43q-37 14 -88 14q-37 0 -88 -10q-43 -8 -86 -45t-74 -92q-35 -61 -55 -162q-14 -55 -17 -90q-4 -57 -4 -80zM621 1184 l4 30l248 287h276l-8 -43l-375 -274h-145z" />
<glyph unicode="&#xf4;" horiz-adv-x="1249" d="M63 420q0 158 46 280q45 125 133 215q84 88 202 138q117 49 261 49q115 0 207 -29t151 -82t90 -131q33 -82 33 -178q0 -164 -49 -293q-47 -125 -138 -221q-84 -90 -204 -139q-119 -49 -260 -49q-106 0 -193 30q-90 33 -149 86q-63 57 -96.5 137.5t-33.5 186.5zM358 430 q0 -76 14.5 -121t45.5 -80q27 -31 65 -43q43 -14 82 -14q43 0 90 10q45 10 84 43t72 92q37 68 57 162q6 29 17 96l6 87q0 70 -14 112q-16 51 -41 78t-66 43q-37 14 -88 14q-37 0 -88 -10q-43 -8 -86 -45t-74 -92q-35 -61 -55 -162q-14 -55 -17 -90q-4 -57 -4 -80zM361 1184 l6 26l319 320h230l186 -320l-4 -26h-149l-166 190h-4l-248 -190h-170z" />
<glyph unicode="&#xf5;" horiz-adv-x="1249" d="M63 420q0 158 46 280q45 125 133 215q84 88 202 138q117 49 261 49q115 0 207 -29t151 -82t90 -131q33 -82 33 -178q0 -164 -49 -293q-47 -125 -138 -221q-84 -90 -204 -139q-119 -49 -260 -49q-106 0 -193 30q-90 33 -149 86q-63 57 -96.5 137.5t-33.5 186.5zM358 430 q0 -76 14.5 -121t45.5 -80q27 -31 65 -43q43 -14 82 -14q43 0 90 10q45 10 84 43t72 92q37 68 57 162q6 29 17 96l6 87q0 70 -14 112q-16 51 -41 78t-66 43q-37 14 -88 14q-37 0 -88 -10q-43 -8 -86 -45t-74 -92q-35 -61 -55 -162q-14 -55 -17 -90q-4 -57 -4 -80zM336 1184 q16 61 28 96q16 45 51 94t80 74q51 29 121 29q41 0 88 -21q45 -20 78 -41q41 -27 70 -43q34 -18 61 -18q29 0 45.5 8t32.5 24q6 6 25 39q8 14 20 52h135q-16 -61 -29 -97q-18 -53 -49 -96q-33 -45 -80 -72q-51 -29 -120 -28q-47 0 -86 18q-43 20 -78 43q-14 10 -72 41 q-37 20 -63 21q-29 0 -45 -9q-12 -6 -31 -24q-14 -14 -25 -39q-16 -35 -20 -51h-137z" />
<glyph unicode="&#xf6;" horiz-adv-x="1249" d="M63 420q0 158 46 280q45 125 133 215q84 88 202 138q117 49 261 49q115 0 207 -29t151 -82t90 -131q33 -82 33 -178q0 -164 -49 -293q-47 -125 -138 -221q-84 -90 -204 -139q-119 -49 -260 -49q-106 0 -193 30q-90 33 -149 86q-63 57 -96.5 137.5t-33.5 186.5zM358 430 q0 -76 14.5 -121t45.5 -80q27 -31 65 -43q43 -14 82 -14q43 0 90 10q45 10 84 43t72 92q37 68 57 162q6 29 17 96l6 87q0 70 -14 112q-16 51 -41 78t-66 43q-37 14 -88 14q-37 0 -88 -10q-43 -8 -86 -45t-74 -92q-35 -61 -55 -162q-14 -55 -17 -90q-4 -57 -4 -80zM426 1198 l41 219h215l-43 -219h-213zM858 1198l43 219h217l-43 -219h-217z" />
<glyph unicode="&#xf7;" horiz-adv-x="1122" d="M70 569v224h1026v-224h-1026zM463 170v233h237v-233h-237zM463 961v233h237v-233h-237z" />
<glyph unicode="&#xf8;" horiz-adv-x="1249" d="M43 -39l129 154q-53 53 -82 131q-27 74 -27 174q0 158 46 280q45 125 133 215q84 88 202 138q117 49 261 49q86 0 149.5 -14.5t122.5 -40.5l59 69h191l-135 -155q94 -106 94 -279q0 -164 -49 -293q-47 -125 -138 -221q-84 -90 -204 -139q-119 -49 -260 -49 q-137 0 -244 49l-58 -68h-190zM358 430q0 -53 9 -92l454 526q-31 27 -61 35q-37 10 -78 10q-37 0 -88 -10q-43 -8 -86 -45t-74 -92q-35 -61 -55 -162q-14 -55 -17 -90q-4 -57 -4 -80zM442 207q20 -16 58 -27q27 -8 65 -8q43 0 90 10q45 10 84 43t72 92q37 68 57 162 q6 29 17 96l6 87v32q0 8 -4 29z" />
<glyph unicode="&#xf9;" horiz-adv-x="1249" d="M86 264q0 27 2 41q2 6 2 22.5t2 24.5t4 22.5t4 20.5q2 18 6 33l127 653h279l-119 -594q-2 -8 -8 -43q0 -6 -4 -22t-4 -23l-6 -43q-2 -14 -2 -34q0 -63 37 -97q35 -33 114 -32q51 0 94 20q53 25 88 57q37 33 70 90q31 53 43 115l119 606h280l-165 -850l-12.5 -71.5 l-12.5 -71.5q-4 -33 -8 -57.5t-4 -30.5h-269q0 12 2 27q2 23 7 51q0 8 3 27.5t5 29.5q2 12 5 28.5t3 20.5h-4q-31 -43 -66 -78q-41 -41 -82 -65q-47 -29 -100 -43q-59 -16 -125 -16q-156 0 -229 71q-76 74 -76 211zM426 1458l8 43h258l195 -287l-7 -30h-147z" />
<glyph unicode="&#xfa;" horiz-adv-x="1249" d="M86 264q0 27 2 41q2 6 2 22.5t2 24.5t4 22.5t4 20.5q2 18 6 33l127 653h279l-119 -594q-2 -8 -8 -43q0 -6 -4 -22t-4 -23l-6 -43q-2 -14 -2 -34q0 -63 37 -97q35 -33 114 -32q51 0 94 20q53 25 88 57q37 33 70 90q31 53 43 115l119 606h280l-165 -850l-12.5 -71.5 l-12.5 -71.5q-4 -33 -8 -57.5t-4 -30.5h-269q0 12 2 27q2 23 7 51q0 8 3 27.5t5 29.5q2 12 5 28.5t3 20.5h-4q-31 -43 -66 -78q-41 -41 -82 -65q-47 -29 -100 -43q-59 -16 -125 -16q-156 0 -229 71q-76 74 -76 211zM604 1184l4 30l248 287h276l-8 -43l-375 -274h-145z" />
<glyph unicode="&#xfb;" horiz-adv-x="1249" d="M86 264q0 27 2 41q2 6 2 22.5t2 24.5t4 22.5t4 20.5q2 18 6 33l127 653h279l-119 -594q-2 -8 -8 -43q0 -6 -4 -22t-4 -23l-6 -43q-2 -14 -2 -34q0 -63 37 -97q35 -33 114 -32q51 0 94 20q53 25 88 57q37 33 70 90q31 53 43 115l119 606h280l-165 -850l-12.5 -71.5 l-12.5 -71.5q-4 -33 -8 -57.5t-4 -30.5h-269q0 12 2 27q2 23 7 51q0 8 3 27.5t5 29.5q2 12 5 28.5t3 20.5h-4q-31 -43 -66 -78q-41 -41 -82 -65q-47 -29 -100 -43q-59 -16 -125 -16q-156 0 -229 71q-76 74 -76 211zM369 1184l6 26l319 320h230l186 -320l-4 -26h-149 l-166 190h-4l-248 -190h-170z" />
<glyph unicode="&#xfc;" horiz-adv-x="1249" d="M86 264q0 27 2 41q2 6 2 22.5t2 24.5t4 22.5t4 20.5q2 18 6 33l127 653h279l-119 -594q-2 -8 -8 -43q0 -6 -4 -22t-4 -23l-6 -43q-2 -14 -2 -34q0 -63 37 -97q35 -33 114 -32q51 0 94 20q53 25 88 57q37 33 70 90q31 53 43 115l119 606h280l-165 -850l-12.5 -71.5 l-12.5 -71.5q-4 -33 -8 -57.5t-4 -30.5h-269q0 12 2 27q2 23 7 51q0 8 3 27.5t5 29.5q2 12 5 28.5t3 20.5h-4q-31 -43 -66 -78q-41 -41 -82 -65q-47 -29 -100 -43q-59 -16 -125 -16q-156 0 -229 71q-76 74 -76 211zM420 1198l41 219h215l-43 -219h-213zM852 1198l43 219h217 l-43 -219h-217z" />
<glyph unicode="&#xfd;" d="M-86 -408l39 197q18 -3 43 -6q16 -2 45 -2q39 0 70 8q23 6 63 35q29 20 62 59q31 37 61 92l27 50l-211 1056h290l70 -495q3 -12 6 -37q0 -4 3 -25.5t5 -34.5q2 -16 3.5 -34.5t3.5 -36.5q2 -12 5 -36t3 -34q2 -33 4 -59q4 -33 4 -37q4 10 16 35q6 12 12.5 26.5l14.5 32.5 q25 49 33 68q16 37 32 69q10 18 16.5 33.5t10.5 26.5l13.5 26.5t7.5 12.5l258 499h301l-656 -1138q-51 -80 -106 -156q-51 -70 -105 -115q-57 -47 -120 -71q-70 -27 -150 -27q-8 0 -94 6q-43 3 -80 12zM528 1184l4 30l248 287h276l-8 -43l-375 -274h-145z" />
<glyph unicode="&#xfe;" horiz-adv-x="1249" d="M-45 -426l369 1911h280l-84 -428q-2 -8 -5 -30.5t-7 -37.5q-10 -47 -21 -76h7q27 39 71 84q33 33 80 60q37 20 92 35q41 10 111 10q78 0 143 -25q61 -23 107 -71q45 -47 65 -111q23 -68 23 -147q0 -58 -6 -117q-8 -74 -17 -115q-27 -139 -71 -244q-41 -98 -107 -166 q-61 -66 -143 -96q-80 -31 -180 -30q-125 0 -203 53q-82 55 -111 145h-2q-2 -25 -6 -43q-2 -12 -3 -23.5t-3 -23.5l-6 -24.5t-4 -24.5q-4 -37 -9 -49l-82 -416h-278zM399 401q0 -57 15 -98q16 -47 41 -72q29 -29 63 -43q39 -16 82 -16q49 0 94 16q39 14 74 56q37 43 59 106 q27 72 43 166q2 16 15 96q4 29 4 82q0 109 -39 160q-41 53 -123 53q-45 0 -98 -16q-45 -14 -88 -57q-41 -41 -72 -109q-29 -66 -51 -170q-8 -41 -12 -84q0 -4 -3.5 -31t-3.5 -39z" />
<glyph unicode="&#xff;" d="M-68 -408l39 197q18 -3 43 -6q16 -2 45 -2q39 0 70 8q23 6 63 35q29 20 62 59q31 37 61 92l27 50l-211 1056h290l70 -495q3 -12 6 -37q0 -4 3 -25.5t5 -34.5q2 -16 3.5 -34.5t3.5 -36.5q2 -12 5 -36t3 -34q2 -33 4 -59q4 -33 4 -37q4 10 16 35q6 12 12.5 26.5l14.5 32.5 q25 49 33 68q16 37 32 69q10 18 16.5 33.5t10.5 26.5l13.5 26.5t7.5 12.5l258 499h301l-656 -1138q-51 -80 -106 -156q-51 -70 -105 -115q-57 -47 -120 -71q-70 -27 -150 -27q-8 0 -94 6q-43 3 -80 12zM375 1196l41 219h215l-43 -219h-213zM807 1196l43 219h217l-43 -219 h-217z" />
<glyph unicode="&#x100;" horiz-adv-x="1478" d="M-43 0l788 1409h349l237 -1409h-293l-55 360h-537l-194 -360h-295zM565 582h396l-66 452q0 4 -2 14.5t-4 22.5q0 10 -2 22.5l-4 24.5q0 8 -1 21.5t-3 21.5q-2 14 -2 31q0 -4 -3.5 -9t-6.5 -13.5l-5 -14.5t-24 -53q-12 -31 -29 -64q-2 -4 -31 -57zM631 1536l33 168h590 l-37 -168h-586z" />
<glyph unicode="&#x101;" d="M10 279q0 78 23 139q20 57 61 100q39 41 92 70q45 25 113 41q55 14 125 20q86 8 127 8l190 2l9 37l10 52q4 29 4 43q0 68 -35 98q-34 31 -92 31q-20 0 -62 -5q-29 -2 -57 -18q-31 -16 -51 -43q-23 -29 -35 -78l-262 33q14 68 51 121q35 51 94 92q53 37 140 59 q76 20 186 21q207 0 303 -74t96 -221q0 -35 -8 -74q-4 -20 -7 -41.5t-7 -42.5l-72 -352l-6 -37q-2 -12 -2 -34.5t10 -37.5q8 -12 23 -18q16 -8 26 -8q4 0 11.5 -1t9.5 -1q6 0 14 1t12 1q12 0 35 6l-14 -156q-43 -16 -84 -18q-57 -4 -88 -4q-100 0 -156 43q-53 41 -53 110v31 q0 12 4 33h-6q-31 -47 -68 -94q-29 -37 -77 -72q-39 -29 -97 -45q-55 -16 -123 -16q-77 0 -135 24q-59 25 -96 68q-41 49 -57 96q-19 56 -19 111zM297 326q0 -40 12 -68q14 -31 33 -47q23 -18 45 -27q25 -8 55 -8q29 0 66 12q41 14 70 37q31 27 63 74q29 41 47 113l23 92 h-162q-117 -3 -184.5 -49t-67.5 -129zM385 1202l33 168h590l-37 -168h-586z" />
<glyph unicode="&#x102;" horiz-adv-x="1478" d="M-43 0l788 1409h349l237 -1409h-293l-55 360h-537l-194 -360h-295zM565 582h396l-66 452q0 4 -2 14.5t-4 22.5q0 10 -2 22.5l-4 24.5q0 8 -1 21.5t-3 21.5q-2 14 -2 31q0 -4 -3.5 -9t-6.5 -13.5l-5 -14.5t-24 -53q-12 -31 -29 -64q-2 -4 -31 -57zM613 1823h164 q0 -37 14 -72q10 -25 37 -51q20 -20 53 -31q35 -10 66 -10q76 0 131 39q53 37 79 125h164q-20 -72 -49 -125q-27 -49 -80 -94q-45 -39 -112.5 -61.5t-155.5 -22.5q-70 0 -131 22q-58 22 -98 62q-39 39 -62 96q-20 53 -20 123z" />
<glyph unicode="&#x103;" d="M10 279q0 78 23 139q20 57 61 100q39 41 92 70q45 25 113 41q55 14 125 20q86 8 127 8l190 2l9 37l10 52q4 29 4 43q0 68 -35 98q-34 31 -92 31q-20 0 -62 -5q-29 -2 -57 -18q-31 -16 -51 -43q-23 -29 -35 -78l-262 33q14 68 51 121q35 51 94 92q53 37 140 59 q76 20 186 21q207 0 303 -74t96 -221q0 -35 -8 -74q-4 -20 -7 -41.5t-7 -42.5l-72 -352l-6 -37q-2 -12 -2 -34.5t10 -37.5q8 -12 23 -18q16 -8 26 -8q4 0 11.5 -1t9.5 -1q6 0 14 1t12 1q12 0 35 6l-14 -156q-43 -16 -84 -18q-57 -4 -88 -4q-100 0 -156 43q-53 41 -53 110v31 q0 12 4 33h-6q-31 -47 -68 -94q-29 -37 -77 -72q-39 -29 -97 -45q-55 -16 -123 -16q-77 0 -135 24q-59 25 -96 68q-41 49 -57 96q-19 56 -19 111zM297 326q0 -40 12 -68q14 -31 33 -47q23 -18 45 -27q25 -8 55 -8q29 0 66 12q41 14 70 37q31 27 63 74q29 41 47 113l23 92 h-162q-117 -3 -184.5 -49t-67.5 -129zM394 1468v19q0 2 1 8t1 10h162q0 -43 14 -71.5t37 -51.5q25 -25 51 -32q35 -10 61 -11q33 0 70 10.5t63 30.5q29 23 50 52q23 33 34 73h164q-18 -72 -49 -131q-29 -55 -80 -102q-47 -43 -112 -66q-68 -23 -156 -22q-76 0 -131 20 q-58 22 -98 62q-41 41 -61.5 90t-20.5 112z" />
<glyph unicode="&#x104;" horiz-adv-x="1478" d="M-43 0l788 1409h349l237 -1409h-293l-55 360h-537l-194 -360h-295zM565 582h396l-66 452q0 4 -2 14.5t-4 22.5q0 10 -2 22.5l-4 24.5q0 8 -1 21.5t-3 21.5q-2 14 -2 31q0 -4 -3.5 -9t-6.5 -13.5l-5 -14.5t-24 -53q-12 -31 -29 -64q-2 -4 -31 -57zM894 -236q0 47 15 82 q18 43 39 70q31 37 57 57q45 33 70 47h164q-41 -29 -60 -47q-31 -33 -47 -57q-20 -35 -29 -62q-12 -41 -12 -55q0 -39 22.5 -57.5t57.5 -18.5q29 0 53 6q27 6 49 17l-18 -127q-35 -14 -78 -25q-45 -10 -84 -10t-75.5 12.5t-63.5 32.5q-28 22 -43 55q-17 37 -17 80z" />
<glyph unicode="&#x105;" d="M10 279q0 78 23 139q20 57 61 100q39 41 92 70q45 25 113 41q55 14 125 20q86 8 127 8l190 2l9 37l10 52q4 29 4 43q0 68 -35 98q-34 31 -92 31q-20 0 -62 -5q-29 -2 -57 -18q-31 -16 -51 -43q-23 -29 -35 -78l-262 33q14 68 51 121q35 51 94 92q53 37 140 59 q76 20 186 21q207 0 303 -74t96 -221q0 -35 -8 -74q-4 -20 -7 -41.5t-7 -42.5l-72 -352l-6 -37q-2 -12 -2 -34.5t10 -37.5q8 -12 23 -18q16 -8 26 -8q4 0 11.5 -1t9.5 -1q6 0 14 1t12 1q12 0 35 6l-14 -156q-43 -16 -84 -18q-57 -4 -88 -4q-100 0 -156 43q-53 41 -53 110v31 q0 12 4 33h-6q-31 -47 -68 -94q-29 -37 -77 -72q-39 -29 -97 -45q-55 -16 -123 -16q-77 0 -135 24q-59 25 -96 68q-41 49 -57 96q-19 56 -19 111zM297 326q0 -40 12 -68q14 -31 33 -47q23 -18 45 -27q25 -8 55 -8q29 0 66 12q41 14 70 37q31 27 63 74q29 41 47 113l23 92 h-162q-117 -3 -184.5 -49t-67.5 -129zM608 -246q0 47 15 82q18 43 39 70q31 37 57 57q45 33 70 47h164q-41 -29 -60 -47q-31 -33 -47 -57q-20 -35 -29 -62q-12 -41 -12 -55q0 -39 22.5 -57.5t57.5 -18.5q29 0 53 6q27 6 49 17l-18 -127q-35 -14 -78 -25q-45 -10 -84 -10 t-75.5 12.5t-63.5 32.5q-28 22 -43 55q-17 37 -17 80z" />
<glyph unicode="&#x106;" horiz-adv-x="1478" d="M100 569q0 115 27 236q25 113 74 207q47 92 123 174q68 74 163 131q86 51 203 84q102 29 238 29q137 0 235 -31q102 -33 168 -86q74 -61 111 -125q39 -70 61 -150l-274 -71q-12 43 -37 86q-20 37 -62 73q-33 31 -92 52q-57 20 -120 20q-129 0 -222 -45 q-102 -49 -164 -129q-65 -83 -98 -197q-33 -111 -33 -254q0 -88 21 -151q23 -72 63 -115q45 -49 103 -71q61 -25 143 -25q80 0 141 20q68 23 117 58t90 82q37 43 70 98l227 -117q-45 -80 -102 -143q-66 -72 -141 -119q-78 -47 -187 -80q-104 -31 -235 -30q-154 0 -273 47 t-190 125q-74 80 -111 186q-37 108 -37 231zM841 1530l9 31l270 247h266l-10 -43l-385 -235h-150z" />
<glyph unicode="&#x107;" d="M63 406q0 55 3 86q2 41 16 92q25 113 63 192q37 78 86 139q43 55 103 95q53 35 112 57q55 20 117 27q78 8 117 8q104 0 184 -29q78 -29 131 -78q49 -47 80 -116q29 -68 35 -138l-285 -22q-6 92 -45 139q-41 51 -123 51q-53 0 -96 -18q-41 -18 -74 -60q-35 -45 -57 -104 q-35 -90 -49 -152q0 -6 -4 -20t-4 -22.5t-4 -22.5t-4 -22.5t-2.5 -22.5t-2.5 -21q-2 -14 -2 -36q0 -125 45 -179q47 -57 134 -57q80 0 137 53q55 53 86 156l270 -49q-27 -88 -65 -146q-45 -68 -103 -110q-63 -47 -147 -72q-86 -25 -195 -24q-117 0 -203 30q-82 29 -141 88 q-57 57 -86 135q-27 75 -27 173zM604 1184l4 30l248 287h276l-8 -43l-375 -274h-145z" />
<glyph unicode="&#x108;" horiz-adv-x="1478" d="M100 569q0 115 27 236q25 113 74 207q47 92 123 174q68 74 163 131q86 51 203 84q102 29 238 29q137 0 235 -31q102 -33 168 -86q74 -61 111 -125q39 -70 61 -150l-274 -71q-12 43 -37 86q-20 37 -62 73q-33 31 -92 52q-57 20 -120 20q-129 0 -222 -45 q-102 -49 -164 -129q-65 -83 -98 -197q-33 -111 -33 -254q0 -88 21 -151q23 -72 63 -115q45 -49 103 -71q61 -25 143 -25q80 0 141 20q68 23 117 58t90 82q37 43 70 98l227 -117q-45 -80 -102 -143q-66 -72 -141 -119q-78 -47 -187 -80q-104 -31 -235 -30q-154 0 -273 47 t-190 125q-74 80 -111 186q-37 108 -37 231zM598 1530l4 29l311 276h230l196 -276l-6 -29h-147l-174 151h-5l-239 -151h-170z" />
<glyph unicode="&#x109;" d="M63 406q0 55 3 86q2 41 16 92q25 113 63 192q37 78 86 139q43 55 103 95q53 35 112 57q55 20 117 27q78 8 117 8q104 0 184 -29q78 -29 131 -78q49 -47 80 -116q29 -68 35 -138l-285 -22q-6 92 -45 139q-41 51 -123 51q-53 0 -96 -18q-41 -18 -74 -60q-35 -45 -57 -104 q-35 -90 -49 -152q0 -6 -4 -20t-4 -22.5t-4 -22.5t-4 -22.5t-2.5 -22.5t-2.5 -21q-2 -14 -2 -36q0 -125 45 -179q47 -57 134 -57q80 0 137 53q55 53 86 156l270 -49q-27 -88 -65 -146q-45 -68 -103 -110q-63 -47 -147 -72q-86 -25 -195 -24q-117 0 -203 30q-82 29 -141 88 q-57 57 -86 135q-27 75 -27 173zM305 1184l6 26l319 320h230l186 -320l-4 -26h-149l-166 190h-4l-248 -190h-170z" />
<glyph unicode="&#x10a;" horiz-adv-x="1478" d="M100 569q0 115 27 236q25 113 74 207q47 92 123 174q68 74 163 131q86 51 203 84q102 29 238 29q137 0 235 -31q102 -33 168 -86q74 -61 111 -125q39 -70 61 -150l-274 -71q-12 43 -37 86q-20 37 -62 73q-33 31 -92 52q-57 20 -120 20q-129 0 -222 -45 q-102 -49 -164 -129q-65 -83 -98 -197q-33 -111 -33 -254q0 -88 21 -151q23 -72 63 -115q45 -49 103 -71q61 -25 143 -25q80 0 141 20q68 23 117 58t90 82q37 43 70 98l227 -117q-45 -80 -102 -143q-66 -72 -141 -119q-78 -47 -187 -80q-104 -31 -235 -30q-154 0 -273 47 t-190 125q-74 80 -111 186q-37 108 -37 231zM776 1530l41 207h280l-41 -207h-280z" />
<glyph unicode="&#x10b;" d="M63 406q0 55 3 86q2 41 16 92q25 113 63 192q37 78 86 139q43 55 103 95q53 35 112 57q55 20 117 27q78 8 117 8q104 0 184 -29q78 -29 131 -78q49 -47 80 -116q29 -68 35 -138l-285 -22q-6 92 -45 139q-41 51 -123 51q-53 0 -96 -18q-41 -18 -74 -60q-35 -45 -57 -104 q-35 -90 -49 -152q0 -6 -4 -20t-4 -22.5t-4 -22.5t-4 -22.5t-2.5 -22.5t-2.5 -21q-2 -14 -2 -36q0 -125 45 -179q47 -57 134 -57q80 0 137 53q55 53 86 156l270 -49q-27 -88 -65 -146q-45 -68 -103 -110q-63 -47 -147 -72q-86 -25 -195 -24q-117 0 -203 30q-82 29 -141 88 q-57 57 -86 135q-27 75 -27 173zM570 1268l41 207h280l-41 -207h-280z" />
<glyph unicode="&#x10c;" horiz-adv-x="1478" d="M100 569q0 115 27 236q25 113 74 207q47 92 123 174q68 74 163 131q86 51 203 84q102 29 238 29q137 0 235 -31q102 -33 168 -86q74 -61 111 -125q39 -70 61 -150l-274 -71q-12 43 -37 86q-20 37 -62 73q-33 31 -92 52q-57 20 -120 20q-129 0 -222 -45 q-102 -49 -164 -129q-65 -83 -98 -197q-33 -111 -33 -254q0 -88 21 -151q23 -72 63 -115q45 -49 103 -71q61 -25 143 -25q80 0 141 20q68 23 117 58t90 82q37 43 70 98l227 -117q-45 -80 -102 -143q-66 -72 -141 -119q-78 -47 -187 -80q-104 -31 -235 -30q-154 0 -273 47 t-190 125q-74 80 -111 186q-37 108 -37 231zM617 1806l4 29h149l182 -152h5l233 152h168l-6 -29l-303 -276h-230z" />
<glyph unicode="&#x10d;" d="M63 406q0 55 3 86q2 41 16 92q25 113 63 192q37 78 86 139q43 55 103 95q53 35 112 57q55 20 117 27q78 8 117 8q104 0 184 -29q78 -29 131 -78q49 -47 80 -116q29 -68 35 -138l-285 -22q-6 92 -45 139q-41 51 -123 51q-53 0 -96 -18q-41 -18 -74 -60q-35 -45 -57 -104 q-35 -90 -49 -152q0 -6 -4 -20t-4 -22.5t-4 -22.5t-4 -22.5t-2.5 -22.5t-2.5 -21q-2 -14 -2 -36q0 -125 45 -179q47 -57 134 -57q80 0 137 53q55 53 86 156l270 -49q-27 -88 -65 -146q-45 -68 -103 -110q-63 -47 -147 -72q-86 -25 -195 -24q-117 0 -203 30q-82 29 -141 88 q-57 57 -86 135q-27 75 -27 173zM378 1499l7 31h149l174 -195h4l240 195h170l-6 -31l-312 -315h-229z" />
<glyph unicode="&#x10e;" horiz-adv-x="1478" d="M37 0l272 1409h424q156 0 291 -39q127 -37 215 -113q90 -78 135 -188q47 -117 47 -262q0 -133 -30 -244q-31 -113 -86 -201q-59 -98 -129 -157q-74 -66 -166 -113q-96 -49 -191 -69q-106 -23 -205 -23h-577zM375 227h229q117 0 215 37q102 39 172 109q72 72 113 178 t41 244q0 94 -29 170q-27 70 -80 120q-49 45 -129 72q-77 25 -172 25h-176zM510 1806l4 29h149l182 -152h5l233 152h168l-6 -29l-303 -276h-230z" />
<glyph unicode="&#x10f;" horiz-adv-x="1513" d="M57 354q0 18 3 53t3 44q2 41 17 114q29 147 76 244q51 106 112 168q63 63 143.5 94t168.5 31q78 0 127 -15q53 -16 90 -43q39 -29 61 -63q25 -37 37 -78h4q0 4 3 24.5t5 37.5q6 45 19 102l84 418h276l-237 -1254q-12 -63 -19 -118q-8 -80 -10 -113h-283q0 2 1 10t1 15 q0 23 2 36q2 8 3 23.5t1 24t4.5 26t4.5 25.5h-4q-37 -46 -74 -80q-39 -37 -82 -57q-49 -25 -92 -33q-55 -10 -111 -10q-82 0 -141 26q-57 27 -105 80q-43 49 -65 119q-23 71 -23 149zM354 393q0 -102 39 -164q37 -57 121 -57q53 0 102 16q43 14 86 58q41 41 72 108 q29 63 51 172q8 43 13 84q4 53 4 72q0 117 -47 174q-45 53 -142 53q-49 0 -90 -14q-37 -12 -78 -57t-65 -105q-31 -74 -47 -168q-10 -55 -13 -92q0 -6 -3 -36t-3 -44zM1354 1088q55 49 88 96q35 49 43 94h-108l41 207h243l-26 -145q-9 -43 -25 -80q-20 -47 -31 -66 q-20 -33 -41 -57q-14 -16 -47 -49h-137z" />
<glyph unicode="&#x110;" horiz-adv-x="1478" d="M23 594l43 219h129l114 596h424q156 0 291 -39q127 -37 215 -113q90 -78 135 -188q47 -117 47 -262q0 -133 -30 -244q-31 -113 -86 -201q-59 -98 -129 -157q-74 -66 -166 -113q-96 -49 -191 -69q-106 -23 -205 -23h-577l115 594h-129zM375 227h229q117 0 215 37 q102 39 172 109q72 72 113 178t41 244q0 94 -29 170q-27 70 -80 120q-49 45 -129 72q-77 25 -172 25h-176l-72 -369h359l-45 -219h-355z" />
<glyph unicode="&#x111;" horiz-adv-x="1249" d="M57 340q0 16 3 53t3 41q2 41 17 111q29 139 76 235q51 104 110 160q65 61 142 92q72 29 163 29q78 0 127 -14q55 -16 93 -41q33 -23 61 -62q20 -29 35 -74h6q0 6 3 29l5 39q8 59 21 115l24 123h-289l33 170h291l29 139h276l-26 -139h131l-33 -170h-131l-178 -945 q-12 -63 -19 -118q-8 -80 -10 -113h-283q0 2 1 10t1 15q0 23 2 36q2 8 3 23.5t1 24t4.5 26t4.5 25.5h-4q-37 -46 -74 -80q-39 -37 -82 -57q-49 -25 -92 -33q-55 -10 -111 -10q-82 0 -141 26q-63 29 -105 76q-47 53 -65 113q-23 71 -23 145zM354 383q0 -96 39 -156 q37 -55 121 -55q49 0 98.5 16.5t85.5 53.5q39 39 70 104q29 59 51 164q16 76 17 145q0 115 -48 168q-45 51 -141 51q-41 0 -86 -16q-41 -14 -78 -51q-35 -35 -63 -102q-31 -70 -47 -158q-10 -49 -13 -88q0 -4 -3 -33t-3 -43z" />
<glyph unicode="&#x112;" horiz-adv-x="1363" d="M37 0l272 1409h1108l-45 -227h-813l-67 -355h751l-45 -229h-752l-71 -371h854l-45 -227h-1147zM592 1536l33 168h590l-37 -168h-586z" />
<glyph unicode="&#x113;" d="M63 418q0 164 43 291q45 129 121 215q78 88 185 133q104 45 233 45q113 0 195 -31q84 -31 137 -84q57 -57 80 -129q25 -76 24 -168q0 -43 -6 -102q-8 -78 -16 -113h-701q0 -4 -2 -13t-3 -16.5t-1 -13.5t-1 -22.5t-1 -22.5q0 -104 47 -161.5t138 -57.5q43 0 75 12 q29 10 60 37q27 25 45 53q14 25 33 68l245 -76q-29 -57 -67 -115q-37 -51 -95 -90q-53 -35 -131 -57q-74 -20 -184 -20q-109 0 -194 30q-82 29 -142 88q-55 55 -88 140q-29 74 -29 180zM391 664h430q4 20 4 28v27q0 106 -49 155.5t-131 49.5q-41 0 -72 -11q-41 -14 -73 -41 q-35 -29 -64 -79q-27 -45 -45 -129zM381 1202l33 168h590l-37 -168h-586z" />
<glyph unicode="&#x114;" horiz-adv-x="1363" d="M37 0l272 1409h1108l-45 -227h-813l-67 -355h751l-45 -229h-752l-71 -371h854l-45 -227h-1147zM564 1823h164q0 -37 14 -72q10 -25 37 -51q20 -20 53 -31q35 -10 66 -10q76 0 131 39q53 37 79 125h164q-20 -72 -49 -125q-27 -49 -80 -94q-45 -39 -112.5 -61.5 t-155.5 -22.5q-70 0 -131 22q-58 22 -98 62q-39 39 -62 96q-20 53 -20 123z" />
<glyph unicode="&#x115;" d="M63 418q0 164 43 291q45 129 121 215q78 88 185 133q104 45 233 45q113 0 195 -31q84 -31 137 -84q57 -57 80 -129q25 -76 24 -168q0 -43 -6 -102q-8 -78 -16 -113h-701q0 -4 -2 -13t-3 -16.5t-1 -13.5t-1 -22.5t-1 -22.5q0 -104 47 -161.5t138 -57.5q43 0 75 12 q29 10 60 37q27 25 45 53q14 25 33 68l245 -76q-29 -57 -67 -115q-37 -51 -95 -90q-53 -35 -131 -57q-74 -20 -184 -20q-109 0 -194 30q-82 29 -142 88q-55 55 -88 140q-29 74 -29 180zM391 664h430q4 20 4 28v27q0 106 -49 155.5t-131 49.5q-41 0 -72 -11q-41 -14 -73 -41 q-35 -29 -64 -79q-27 -45 -45 -129zM381 1468v19q0 2 1 8t1 10h162q0 -43 14 -71.5t37 -51.5q25 -25 51 -32q35 -10 61 -11q33 0 70 10.5t63 30.5q29 23 50 52q23 33 34 73h164q-18 -72 -49 -131q-29 -55 -80 -102q-47 -43 -112 -66q-68 -23 -156 -22q-76 0 -131 20 q-58 22 -98 62q-41 41 -61.5 90t-20.5 112z" />
<glyph unicode="&#x116;" horiz-adv-x="1363" d="M37 0l272 1409h1108l-45 -227h-813l-67 -355h751l-45 -229h-752l-71 -371h854l-45 -227h-1147zM733 1538l41 207h280l-41 -207h-280z" />
<glyph unicode="&#x117;" d="M63 418q0 164 43 291q45 129 121 215q78 88 185 133q104 45 233 45q113 0 195 -31q84 -31 137 -84q57 -57 80 -129q25 -76 24 -168q0 -43 -6 -102q-8 -78 -16 -113h-701q0 -4 -2 -13t-3 -16.5t-1 -13.5t-1 -22.5t-1 -22.5q0 -104 47 -161.5t138 -57.5q43 0 75 12 q29 10 60 37q27 25 45 53q14 25 33 68l245 -76q-29 -57 -67 -115q-37 -51 -95 -90q-53 -35 -131 -57q-74 -20 -184 -20q-109 0 -194 30q-82 29 -142 88q-55 55 -88 140q-29 74 -29 180zM391 664h430q4 20 4 28v27q0 106 -49 155.5t-131 49.5q-41 0 -72 -11q-41 -14 -73 -41 q-35 -29 -64 -79q-27 -45 -45 -129zM551 1268l41 207h280l-41 -207h-280z" />
<glyph unicode="&#x118;" horiz-adv-x="1363" d="M37 0l272 1409h1108l-45 -227h-813l-67 -355h751l-45 -229h-752l-71 -371h854l-45 -227h-1147zM688 -246q0 47 15 82q18 43 39 70q31 37 57 57q45 33 70 47h164q-41 -29 -60 -47q-31 -33 -47 -57q-20 -35 -29 -62q-12 -41 -12 -55q0 -39 22.5 -57.5t57.5 -18.5q29 0 53 6 q27 6 49 17l-18 -127q-35 -14 -78 -25q-45 -10 -84 -10t-75.5 12.5t-63.5 32.5q-28 22 -43 55q-17 37 -17 80z" />
<glyph unicode="&#x119;" d="M63 418q0 164 43 291q45 129 121 215q78 88 185 133q104 45 233 45q113 0 195 -31q84 -31 137 -84q57 -57 80 -129q25 -76 24 -168q0 -43 -6 -102q-8 -78 -16 -113h-701q0 -4 -2 -13t-3 -16.5t-1 -13.5t-1 -22.5t-1 -22.5q0 -104 47 -161.5t138 -57.5q43 0 75 12 q29 10 60 37q27 25 45 53q14 25 33 68l245 -76q-29 -57 -67 -115q-37 -51 -95 -90q-53 -35 -131 -57q-74 -20 -184 -20q-109 0 -194 30q-82 29 -142 88q-55 55 -88 140q-29 74 -29 180zM391 664h430q4 20 4 28v27q0 106 -49 155.5t-131 49.5q-41 0 -72 -11q-41 -14 -73 -41 q-35 -29 -64 -79q-27 -45 -45 -129zM442 -226q0 47 15 82q18 43 39 70q31 37 57 57q45 33 70 47h164q-41 -29 -60 -47q-31 -33 -47 -57q-20 -35 -29 -62q-12 -41 -12 -55q0 -39 22.5 -57.5t57.5 -18.5q29 0 53 6q27 6 49 17l-18 -127q-35 -14 -78 -25q-45 -10 -84 -10 t-75.5 12.5t-63.5 32.5q-28 22 -43 55q-17 37 -17 80z" />
<glyph unicode="&#x11a;" horiz-adv-x="1363" d="M37 0l272 1409h1108l-45 -227h-813l-67 -355h751l-45 -229h-752l-71 -371h854l-45 -227h-1147zM539 1806l4 29h149l182 -152h5l233 152h168l-6 -29l-303 -276h-230z" />
<glyph unicode="&#x11b;" d="M63 418q0 164 43 291q45 129 121 215q78 88 185 133q104 45 233 45q113 0 195 -31q84 -31 137 -84q57 -57 80 -129q25 -76 24 -168q0 -43 -6 -102q-8 -78 -16 -113h-701q0 -4 -2 -13t-3 -16.5t-1 -13.5t-1 -22.5t-1 -22.5q0 -104 47 -161.5t138 -57.5q43 0 75 12 q29 10 60 37q27 25 45 53q14 25 33 68l245 -76q-29 -57 -67 -115q-37 -51 -95 -90q-53 -35 -131 -57q-74 -20 -184 -20q-109 0 -194 30q-82 29 -142 88q-55 55 -88 140q-29 74 -29 180zM391 664h430q4 20 4 28v27q0 106 -49 155.5t-131 49.5q-41 0 -72 -11q-41 -14 -73 -41 q-35 -29 -64 -79q-27 -45 -45 -129zM362 1499l7 31h149l174 -195h4l240 195h170l-6 -31l-312 -315h-229z" />
<glyph unicode="&#x11c;" horiz-adv-x="1591" d="M100 584q0 184 60 344q57 158 168 266q115 115 266 174q156 61 348 62q131 0 232 -31t172 -86q72 -57 116 -125q45 -70 68 -150l-283 -77q-14 55 -35 90q-25 43 -63.5 75.5t-93.5 51.5q-61 20 -129 20q-125 0 -226 -47q-96 -45 -165 -127q-66 -78 -101 -190 q-35 -115 -35 -242q0 -82 21 -146q25 -74 63 -122q41 -49 115 -82q70 -31 166 -31q70 0 119 8q68 10 104 21q51 12 90 30q45 20 72 37l45 228h-342l39 208h614l-104 -569q-57 -39 -139 -82q-72 -37 -150 -61q-80 -25 -172 -37t-201 -12q-166 0 -282 45q-121 47 -199 124.5 t-119 190.5q-39 109 -39 242zM588 1530l4 29l311 276h230l196 -276l-6 -29h-147l-174 151h-5l-239 -151h-170z" />
<glyph unicode="&#x11d;" horiz-adv-x="1249" d="M-6 -141l282 28q16 -66 62 -96q47 -31 127 -31q55 0 100 16.5t74 47.5q33 35 53 84q20 47 37 119q4 18 12 59l11 57q8 43 10 58h-2q-27 -39 -60 -78q-37 -43 -73 -68q-41 -27 -96.5 -45t-124.5 -18q-82 0 -144 26q-63 27 -106 76q-45 51 -68 115q-23 61 -22 147 q0 31 4 105q2 47 16 119q53 262 172 391q121 131 328 131q59 0 108 -15q57 -16 92 -40q45 -31 72 -66t43 -88h2q4 16 12 57l15 60q6 28 12 49q6 20 8 22h267l-4 -8q-3 -8 -5 -22q-2 -10 -5 -22.5l-7 -29.5q0 -4 -6 -29.5t-8 -39.5l-7.5 -39t-7.5 -37l-166 -844 q-20 -100 -63 -190q-39 -80 -107 -135q-66 -53 -165 -82q-102 -29 -236 -29q-94 0 -180 20q-84 20 -131 54q-55 39 -84 88q-27 45 -41 123zM358 395q0 -98 45 -149q43 -49 129 -49q39 0 91 20q46 18 86 62q43 45 73 108q33 66 52 162q8 43 10 72q2 25 2 65q0 57 -14.5 98 t-43.5 70q-31 31 -61 41q-43 14 -80 14q-47 0 -92 -16q-37 -12 -74 -53q-33 -35 -57 -101q-25 -68 -43 -157q-12 -61 -16 -101q-7 -49 -7 -86zM336 1184l6 26l319 320h230l186 -320l-4 -26h-149l-166 190h-4l-248 -190h-170z" />
<glyph unicode="&#x11e;" horiz-adv-x="1591" d="M100 584q0 184 60 344q57 158 168 266q115 115 266 174q156 61 348 62q131 0 232 -31t172 -86q72 -57 116 -125q45 -70 68 -150l-283 -77q-14 55 -35 90q-25 43 -63.5 75.5t-93.5 51.5q-61 20 -129 20q-125 0 -226 -47q-96 -45 -165 -127q-66 -78 -101 -190 q-35 -115 -35 -242q0 -82 21 -146q25 -74 63 -122q41 -49 115 -82q70 -31 166 -31q70 0 119 8q68 10 104 21q51 12 90 30q45 20 72 37l45 228h-342l39 208h614l-104 -569q-57 -39 -139 -82q-72 -37 -150 -61q-80 -25 -172 -37t-201 -12q-166 0 -282 45q-121 47 -199 124.5 t-119 190.5q-39 109 -39 242zM670 1823h164q0 -37 14 -72q10 -25 37 -51q20 -20 53 -31q35 -10 66 -10q76 0 131 39q53 37 79 125h164q-20 -72 -49 -125q-27 -49 -80 -94q-45 -39 -112.5 -61.5t-155.5 -22.5q-70 0 -131 22q-58 22 -98 62q-39 39 -62 96q-20 53 -20 123z" />
<glyph unicode="&#x11f;" horiz-adv-x="1249" d="M-6 -141l282 28q16 -66 62 -96q47 -31 127 -31q55 0 100 16.5t74 47.5q33 35 53 84q20 47 37 119q4 18 12 59l11 57q8 43 10 58h-2q-27 -39 -60 -78q-37 -43 -73 -68q-41 -27 -96.5 -45t-124.5 -18q-82 0 -144 26q-63 27 -106 76q-45 51 -68 115q-23 61 -22 147 q0 31 4 105q2 47 16 119q53 262 172 391q121 131 328 131q59 0 108 -15q57 -16 92 -40q45 -31 72 -66t43 -88h2q4 16 12 57l15 60q6 28 12 49q6 20 8 22h267l-4 -8q-3 -8 -5 -22q-2 -10 -5 -22.5l-7 -29.5q0 -4 -6 -29.5t-8 -39.5l-7.5 -39t-7.5 -37l-166 -844 q-20 -100 -63 -190q-39 -80 -107 -135q-66 -53 -165 -82q-102 -29 -236 -29q-94 0 -180 20q-84 20 -131 54q-55 39 -84 88q-27 45 -41 123zM358 395q0 -98 45 -149q43 -49 129 -49q39 0 91 20q46 18 86 62q43 45 73 108q33 66 52 162q8 43 10 72q2 25 2 65q0 57 -14.5 98 t-43.5 70q-31 31 -61 41q-43 14 -80 14q-47 0 -92 -16q-37 -12 -74 -53q-33 -35 -57 -101q-25 -68 -43 -157q-12 -61 -16 -101q-7 -49 -7 -86zM404 1468v19q0 2 1 8t1 10h162q0 -43 14 -71.5t37 -51.5q25 -25 51 -32q35 -10 61 -11q33 0 70 10.5t63 30.5q29 23 50 52 q23 33 34 73h164q-18 -72 -49 -131q-29 -55 -80 -102q-47 -43 -112 -66q-68 -23 -156 -22q-76 0 -131 20q-58 22 -98 62q-41 41 -61.5 90t-20.5 112z" />
<glyph unicode="&#x120;" horiz-adv-x="1591" d="M100 584q0 184 60 344q57 158 168 266q115 115 266 174q156 61 348 62q131 0 232 -31t172 -86q72 -57 116 -125q45 -70 68 -150l-283 -77q-14 55 -35 90q-25 43 -63.5 75.5t-93.5 51.5q-61 20 -129 20q-125 0 -226 -47q-96 -45 -165 -127q-66 -78 -101 -190 q-35 -115 -35 -242q0 -82 21 -146q25 -74 63 -122q41 -49 115 -82q70 -31 166 -31q70 0 119 8q68 10 104 21q51 12 90 30q45 20 72 37l45 228h-342l39 208h614l-104 -569q-57 -39 -139 -82q-72 -37 -150 -61q-80 -25 -172 -37t-201 -12q-166 0 -282 45q-121 47 -199 124.5 t-119 190.5q-39 109 -39 242zM813 1538l41 207h280l-41 -207h-280z" />
<glyph unicode="&#x121;" horiz-adv-x="1249" d="M-6 -141l282 28q16 -66 62 -96q47 -31 127 -31q55 0 100 16.5t74 47.5q33 35 53 84q20 47 37 119q4 18 12 59l11 57q8 43 10 58h-2q-27 -39 -60 -78q-37 -43 -73 -68q-41 -27 -96.5 -45t-124.5 -18q-82 0 -144 26q-63 27 -106 76q-45 51 -68 115q-23 61 -22 147 q0 31 4 105q2 47 16 119q53 262 172 391q121 131 328 131q59 0 108 -15q57 -16 92 -40q45 -31 72 -66t43 -88h2q4 16 12 57l15 60q6 28 12 49q6 20 8 22h267l-4 -8q-3 -8 -5 -22q-2 -10 -5 -22.5l-7 -29.5q0 -4 -6 -29.5t-8 -39.5l-7.5 -39t-7.5 -37l-166 -844 q-20 -100 -63 -190q-39 -80 -107 -135q-66 -53 -165 -82q-102 -29 -236 -29q-94 0 -180 20q-84 20 -131 54q-55 39 -84 88q-27 45 -41 123zM358 395q0 -98 45 -149q43 -49 129 -49q39 0 91 20q46 18 86 62q43 45 73 108q33 66 52 162q8 43 10 72q2 25 2 65q0 57 -14.5 98 t-43.5 70q-31 31 -61 41q-43 14 -80 14q-47 0 -92 -16q-37 -12 -74 -53q-33 -35 -57 -101q-25 -68 -43 -157q-12 -61 -16 -101q-7 -49 -7 -86zM596 1268l41 207h280l-41 -207h-280z" />
<glyph unicode="&#x122;" horiz-adv-x="1591" d="M100 584q0 184 60 344q57 158 168 266q115 115 266 174q156 61 348 62q131 0 232 -31t172 -86q72 -57 116 -125q45 -70 68 -150l-283 -77q-14 55 -35 90q-25 43 -63.5 75.5t-93.5 51.5q-61 20 -129 20q-125 0 -226 -47q-96 -45 -165 -127q-66 -78 -101 -190 q-35 -115 -35 -242q0 -82 21 -146q25 -74 63 -122q41 -49 115 -82q70 -31 166 -31q70 0 119 8q68 10 104 21q51 12 90 30q45 20 72 37l45 228h-342l39 208h614l-104 -569q-57 -39 -139 -82q-72 -37 -150 -61q-80 -25 -172 -37t-201 -12q-166 0 -282 45q-121 47 -199 124.5 t-119 190.5q-39 109 -39 242zM598 -455q51 45 86 90q31 39 41 80h-109l41 207h246l-25 -127q-10 -49 -22 -78q-18 -43 -33 -67q-16 -27 -41 -56q-14 -16 -47 -49h-137z" />
<glyph unicode="&#x123;" horiz-adv-x="1249" d="M-6 -141l282 28q16 -66 62 -96q47 -31 127 -31q55 0 100 16.5t74 47.5q33 35 53 84q20 47 37 119q4 18 12 59l11 57q8 43 10 58h-2q-27 -39 -60 -78q-37 -43 -73 -68q-41 -27 -96.5 -45t-124.5 -18q-82 0 -144 26q-63 27 -106 76q-45 51 -68 115q-23 61 -22 147 q0 31 4 105q2 47 16 119q53 262 172 391q121 131 328 131q59 0 108 -15q57 -16 92 -40q45 -31 72 -66t43 -88h2q4 16 12 57l15 60q6 28 12 49q6 20 8 22h267l-4 -8q-3 -8 -5 -22q-2 -10 -5 -22.5l-7 -29.5q0 -4 -6 -29.5t-8 -39.5l-7.5 -39t-7.5 -37l-166 -844 q-20 -100 -63 -190q-39 -80 -107 -135q-66 -53 -165 -82q-102 -29 -236 -29q-94 0 -180 20q-84 20 -131 54q-55 39 -84 88q-27 45 -41 123zM358 395q0 -98 45 -149q43 -49 129 -49q39 0 91 20q46 18 86 62q43 45 73 108q33 66 52 162q8 43 10 72q2 25 2 65q0 57 -14.5 98 t-43.5 70q-31 31 -61 41q-43 14 -80 14q-47 0 -92 -16q-37 -12 -74 -53q-33 -35 -57 -101q-25 -68 -43 -157q-12 -61 -16 -101q-7 -49 -7 -86zM581 1212l29 146q18 90 51 145q37 66 82 107h148q-55 -49 -88 -97q-35 -49 -43 -94h106l-39 -207h-246z" />
<glyph unicode="&#x124;" horiz-adv-x="1478" d="M37 0l272 1409h295l-108 -561h624l111 561h282l-274 -1409h-283l117 604h-624l-119 -604h-293zM569 1530l4 29l311 276h230l196 -276l-6 -29h-147l-174 151h-5l-239 -151h-170z" />
<glyph unicode="&#x125;" horiz-adv-x="1249" d="M35 0l287 1485h278l-78 -406q-2 -8 -5 -19t-5 -26q-2 -8 -5 -24.5t-5 -24.5q-6 -25 -10.5 -47.5t-8.5 -40.5h2q31 43 68 80q37 35 82 63q53 33 100 45q59 16 123 17q154 0 229 -74q78 -74 78 -211q0 -27 -2 -41l-6 -45l-6 -43q-2 -14 -6 -35l-127 -653h-281l119 596 q4 18 8 41q0 6 4 22.5t4 22.5l7 45q4 29 4 33q0 63 -39 96t-115 33q-49 0 -92 -21q-53 -25 -88 -57q-43 -41 -72 -88q-31 -52 -43 -117l-117 -606h-282zM457 1610l4 29l311 276h230l196 -276l-6 -29h-147l-174 151h-5l-239 -151h-170z" />
<glyph unicode="&#x126;" horiz-adv-x="1478" d="M37 0l201 1044h-123l32 170h123l39 195h295l-39 -195h627l39 195h282l-36 -195h122l-32 -170h-123l-205 -1044h-283l117 604h-624l-119 -604h-293zM496 848h624l39 196h-627z" />
<glyph unicode="&#x127;" horiz-adv-x="1249" d="M35 0l225 1176h-135l33 170h137l27 139h278l-27 -139h314l-33 -170h-313l-27 -138q-4 -20 -8 -45l-12 -49q-6 -25 -10.5 -47.5t-8.5 -40.5h2q31 43 68 80q41 41 82 65q47 29 100 43q59 16 125 17q151 0 227 -74q78 -74 78 -211q0 -27 -2 -41l-6 -45l-6 -43q-2 -14 -6 -35 l-119 -612h-281l111 555q2 10 8 43q0 8 4 22.5t4 22.5t4 22.5t4 20.5q2 14 2 35q0 61 -38 94q-41 35 -113 35q-51 0 -94 -21q-53 -25 -88 -57q-41 -37 -72 -90q-31 -52 -43 -117l-109 -565h-282z" />
<glyph unicode="&#x128;" horiz-adv-x="567" d="M37 0l272 1409h295l-274 -1409h-293zM68 1530q14 53 28 94q16 49 51 96q33 45 80 72q55 31 121 31q41 0 88 -21q45 -20 78 -41q41 -29 70 -43q34 -18 61 -18q29 0 45.5 8t32.5 25q6 6 25 39q8 14 20 51h135q-16 -61 -28 -97q-18 -53 -50 -96q-33 -45 -80 -71 q-51 -29 -120 -29q-45 0 -86 18q-43 20 -78 43q-16 10 -72 41q-37 20 -63 21q-25 0 -45 -11q-16 -8 -30.5 -22t-25.5 -39q-14 -37 -20 -51h-137z" />
<glyph unicode="&#x129;" horiz-adv-x="567" d="M35 0l211 1081h280l-211 -1081h-280zM-16 1184q16 61 28 96q16 45 51 94t80 74q51 29 121 29q41 0 88 -21q45 -20 78 -41q41 -27 70 -43q34 -18 61 -18q29 0 45.5 8t32.5 24q6 6 25 39q8 14 20 52h135q-16 -61 -29 -97q-18 -53 -49 -96q-33 -45 -80 -72q-51 -29 -120 -28 q-47 0 -86 18q-43 20 -78 43q-14 10 -72 41q-37 20 -63 21q-29 0 -45 -9q-12 -6 -31 -24q-14 -14 -25 -39q-16 -35 -20 -51h-137z" />
<glyph unicode="&#x12a;" horiz-adv-x="567" d="M37 0l272 1409h295l-274 -1409h-293zM170 1536l33 168h590l-37 -168h-586z" />
<glyph unicode="&#x12b;" horiz-adv-x="567" d="M35 0l211 1081h280l-211 -1081h-280zM113 1202l33 168h590l-37 -168h-586z" />
<glyph unicode="&#x12c;" horiz-adv-x="567" d="M37 0l272 1409h295l-274 -1409h-293zM158 1823h164q0 -37 14 -72q10 -25 37 -51q20 -20 53 -31q35 -10 66 -10q76 0 131 39q53 37 79 125h164q-20 -72 -49 -125q-27 -49 -80 -94q-45 -39 -112.5 -61.5t-155.5 -22.5q-70 0 -131 22q-58 22 -98 62q-39 39 -62 96 q-20 53 -20 123z" />
<glyph unicode="&#x12d;" horiz-adv-x="567" d="M35 0l211 1081h280l-211 -1081h-280zM99 1468v19q0 2 1 8t1 10h162q0 -43 14 -71.5t37 -51.5q25 -25 51 -32q35 -10 61 -11q33 0 70 10.5t63 30.5q29 23 50 52q23 33 34 73h164q-18 -72 -49 -131q-29 -55 -80 -102q-47 -43 -112 -66q-68 -23 -156 -22q-76 0 -131 20 q-58 22 -98 62q-41 41 -61.5 90t-20.5 112z" />
<glyph unicode="&#x12e;" horiz-adv-x="567" d="M37 0l272 1409h295l-274 -1409h-293zM-23 -246q0 47 15 82q18 43 39 70q31 37 57 57q45 33 70 47h164q-41 -29 -60 -47q-31 -33 -47 -57q-20 -35 -29 -62q-12 -41 -12 -55q0 -39 22.5 -57.5t57.5 -18.5q29 0 53 6q27 6 49 17l-18 -127q-35 -14 -78 -25q-45 -10 -84 -10 t-75.5 12.5t-63.5 32.5q-28 22 -43 55q-17 37 -17 80z" />
<glyph unicode="&#x12f;" horiz-adv-x="567" d="M35 0l211 1081h280l-211 -1081h-280zM283 1278l41 207h280l-41 -207h-280zM-37 -246q0 47 15 82q18 43 39 70q31 37 57 57q45 33 70 47h164q-41 -29 -60 -47q-31 -33 -47 -57q-20 -35 -29 -62q-12 -41 -12 -55q0 -39 22.5 -57.5t57.5 -18.5q29 0 53 6q27 6 49 17 l-18 -127q-35 -14 -78 -25q-45 -10 -84 -10t-75.5 12.5t-63.5 32.5q-28 22 -43 55q-17 37 -17 80z" />
<glyph unicode="&#x130;" horiz-adv-x="567" d="M37 0l272 1409h295l-274 -1409h-293zM338 1538l41 207h280l-41 -207h-280z" />
<glyph unicode="&#x131;" horiz-adv-x="567" d="M35 0l211 1081h280l-211 -1081h-280z" />
<glyph unicode="&#x132;" horiz-adv-x="1601" d="M37 0l272 1409h295l-274 -1409h-293zM490 379l268 57q6 -33 26 -90q12 -37 41 -72q23 -29 58 -47q31 -16 82 -16q49 0 82 18q31 16 55 52q23 33 35 73q10 39 20 86l144 738h-281l43 231h576l-193 -985q-20 -106 -59 -193q-37 -84 -99 -139q-66 -59 -143 -84 q-90 -29 -201 -28q-102 0 -182 28q-78 29 -133 80t-88 125q-33 70 -51 166z" />
<glyph unicode="&#x133;" d="M35 0l211 1081h280l-211 -1081h-280zM283 1278l41 207h280l-41 -207h-280zM350 -406l35 189q16 -4 30 -4h27q37 0 59.5 8t40.5 27q14 14 29 49q10 25 21 78l223 1140h280l-235 -1208q-12 -63 -41 -121q-29 -59 -68 -94q-43 -41 -100 -61q-61 -23 -135 -23q-51 0 -94 6 q-45 6 -72 14zM852 1278l41 207h280l-41 -207h-280z" />
<glyph unicode="&#x134;" d="M25 379l268 57q6 -33 26 -90q12 -37 41 -72q23 -29 58 -47q31 -16 82 -16q49 0 82 18q31 16 55 52q23 33 35 73q10 39 20 86l144 738h-281l43 231h576l-193 -985q-20 -106 -59 -193q-37 -84 -99 -139q-66 -59 -143 -84q-90 -29 -201 -28q-102 0 -182 28q-78 29 -133 80 t-88 125q-33 70 -51 166zM541 1530l4 29l311 276h230l196 -276l-6 -29h-147l-174 151h-5l-239 -151h-170z" />
<glyph unicode="&#x135;" horiz-adv-x="567" d="M-219 -406l35 189q16 -4 30 -4h27q37 0 59.5 8t40.5 27q14 14 29 49q10 25 21 78l223 1140h280l-235 -1208q-12 -63 -41 -121q-29 -59 -68 -94q-43 -41 -100 -61q-61 -23 -135 -23q-51 0 -94 6q-45 6 -72 14zM12 1184l6 26l320 320h229l189 -320l-6 -26h-150l-166 190h-4 l-248 -190h-170z" />
<glyph unicode="&#x136;" horiz-adv-x="1478" d="M37 0l272 1409h295l-131 -639l762 639h369l-748 -616l465 -793h-326l-356 639l-211 -123l-100 -516h-291zM467 -455q51 45 86 90q31 39 41 80h-109l41 207h246l-25 -127q-10 -49 -22 -78q-18 -43 -33 -67q-16 -27 -41 -56q-14 -16 -47 -49h-137z" />
<glyph unicode="&#x137;" d="M35 0l289 1485h280l-168 -850l465 446h324l-473 -422l274 -659h-299l-186 498l-142 -76l-84 -422h-280zM334 -455q51 45 86 90q31 39 41 80h-109l41 207h246l-25 -127q-10 -49 -22 -78q-18 -43 -33 -67q-16 -27 -41 -56q-14 -16 -47 -49h-137z" />
<glyph unicode="&#x138;" d="M35 0l211 1081h280l-88 -446l463 446h324l-473 -422l274 -659h-299l-186 498l-142 -76l-84 -422h-280z" />
<glyph unicode="&#x139;" horiz-adv-x="1249" d="M37 0l272 1409h295l-229 -1182h755l-45 -227h-1048zM448 1530l9 31l270 247h266l-10 -43l-385 -235h-150z" />
<glyph unicode="&#x13a;" horiz-adv-x="567" d="M35 0l289 1485h280l-289 -1485h-280zM325 1610l9 31l270 247h266l-10 -43l-385 -235h-150z" />
<glyph unicode="&#x13b;" horiz-adv-x="1249" d="M37 0l272 1409h295l-229 -1182h755l-45 -227h-1048zM397 -455q51 45 86 90q31 39 41 80h-109l41 207h246l-25 -127q-10 -49 -22 -78q-18 -43 -33 -67q-16 -27 -41 -56q-14 -16 -47 -49h-137z" />
<glyph unicode="&#x13c;" horiz-adv-x="567" d="M35 0l289 1485h280l-289 -1485h-280zM-16 -455q51 45 86 90q31 39 41 80h-109l41 207h246l-25 -127q-10 -49 -22 -78q-18 -43 -33 -67q-16 -27 -41 -56q-14 -16 -47 -49h-137z" />
<glyph unicode="&#x13d;" horiz-adv-x="1249" d="M37 0l272 1409h295l-229 -1182h755l-45 -227h-1048zM829 1012q55 49 88 96q35 49 43 94h-108l41 207h243l-26 -145q-9 -43 -25 -80q-20 -47 -31 -66q-20 -33 -41 -57q-14 -16 -47 -49h-137z" />
<glyph unicode="&#x13e;" horiz-adv-x="808" d="M35 0l289 1485h280l-289 -1485h-280zM672 1088q55 49 88 96q35 49 43 94h-108l41 207h243l-26 -145q-9 -43 -25 -80q-20 -47 -31 -66q-20 -33 -41 -57q-14 -16 -47 -49h-137z" />
<glyph unicode="&#x13f;" horiz-adv-x="1249" d="M37 0l272 1409h295l-229 -1182h755l-45 -227h-1048zM719 641l41 207h280l-41 -207h-280z" />
<glyph unicode="&#x140;" horiz-adv-x="980" d="M35 0l289 1485h280l-289 -1485h-280zM617 641l41 207h280l-41 -207h-280z" />
<glyph unicode="&#x141;" horiz-adv-x="1249" d="M-18 418l43 225l147 66l137 700h295l-108 -561l335 149l-43 -223l-335 -149l-78 -398h755l-45 -227h-1048l92 481z" />
<glyph unicode="&#x142;" horiz-adv-x="567" d="M6 492l41 215l137 69l140 709h280l-108 -553l143 74l-41 -213l-143 -76l-140 -717h-280l108 561z" />
<glyph unicode="&#x143;" horiz-adv-x="1478" d="M37 0l272 1409h350l377 -1141l13 82l12 82q4 31 16 92l174 885h262l-274 -1409h-354l-375 1130l-12 -83l-13 -78q-2 -16 -8 -44t-6 -32l-172 -893h-262zM763 1530l9 31l270 247h266l-10 -43l-385 -235h-150z" />
<glyph unicode="&#x144;" horiz-adv-x="1249" d="M35 0l166 852l7 33.5t7 36t5 36t5 35.5q2 18 5 33.5t6 24.5q4 25 4 30h268q0 -2 -1 -5t-2 -9t-1 -12q-2 -23 -6 -51q-4 -37 -6 -58q-2 -12 -5.5 -28.5t-3.5 -20.5h2q31 43 68 80q37 35 82 63q53 33 100 45q59 16 123 17q154 0 229 -74q78 -74 78 -211q0 -27 -2 -41 l-6 -45l-6 -43q-2 -14 -6 -35l-127 -653h-281l119 596q4 18 8 41q0 6 4 22.5t4 22.5l7 45q4 29 4 33q0 61 -39 96q-35 33 -115 33q-49 0 -92 -21q-53 -25 -88 -57q-43 -41 -72 -88q-31 -52 -43 -117l-117 -606h-282zM618 1184l4 30l248 287h276l-8 -43l-375 -274h-145z" />
<glyph unicode="&#x145;" horiz-adv-x="1478" d="M37 0l272 1409h350l377 -1141l13 82l12 82q4 31 16 92l174 885h262l-274 -1409h-354l-375 1130l-12 -83l-13 -78q-2 -16 -8 -44t-6 -32l-172 -893h-262zM471 -455q51 45 86 90q31 39 41 80h-109l41 207h246l-25 -127q-10 -49 -22 -78q-18 -43 -33 -67q-16 -27 -41 -56 q-14 -16 -47 -49h-137z" />
<glyph unicode="&#x146;" horiz-adv-x="1249" d="M35 0l166 852l7 33.5t7 36t5 36t5 35.5q2 18 5 33.5t6 24.5q4 25 4 30h268q0 -2 -1 -5t-2 -9t-1 -12q-2 -23 -6 -51q-4 -37 -6 -58q-2 -12 -5.5 -28.5t-3.5 -20.5h2q31 43 68 80q37 35 82 63q53 33 100 45q59 16 123 17q154 0 229 -74q78 -74 78 -211q0 -27 -2 -41 l-6 -45l-6 -43q-2 -14 -6 -35l-127 -653h-281l119 596q4 18 8 41q0 6 4 22.5t4 22.5l7 45q4 29 4 33q0 61 -39 96q-35 33 -115 33q-49 0 -92 -21q-53 -25 -88 -57q-43 -41 -72 -88q-31 -52 -43 -117l-117 -606h-282zM348 -455q51 45 86 90q31 39 41 80h-109l41 207h246 l-25 -127q-10 -49 -22 -78q-18 -43 -33 -67q-16 -27 -41 -56q-14 -16 -47 -49h-137z" />
<glyph unicode="&#x147;" horiz-adv-x="1478" d="M37 0l272 1409h350l377 -1141l13 82l12 82q4 31 16 92l174 885h262l-274 -1409h-354l-375 1130l-12 -83l-13 -78q-2 -16 -8 -44t-6 -32l-172 -893h-262zM605 1806l4 29h149l182 -152h5l233 152h168l-6 -29l-303 -276h-230z" />
<glyph unicode="&#x148;" horiz-adv-x="1249" d="M35 0l166 852l7 33.5t7 36t5 36t5 35.5q2 18 5 33.5t6 24.5q4 25 4 30h268q0 -2 -1 -5t-2 -9t-1 -12q-2 -23 -6 -51q-4 -37 -6 -58q-2 -12 -5.5 -28.5t-3.5 -20.5h2q31 43 68 80q37 35 82 63q53 33 100 45q59 16 123 17q154 0 229 -74q78 -74 78 -211q0 -27 -2 -41 l-6 -45l-6 -43q-2 -14 -6 -35l-127 -653h-281l119 596q4 18 8 41q0 6 4 22.5t4 22.5l7 45q4 29 4 33q0 61 -39 96q-35 33 -115 33q-49 0 -92 -21q-53 -25 -88 -57q-43 -41 -72 -88q-31 -52 -43 -117l-117 -606h-282zM419 1499l7 31h149l174 -195h4l240 195h170l-6 -31 l-312 -315h-229z" />
<glyph unicode="&#x149;" horiz-adv-x="1449" d="M236 0l166 852l7 33.5t7 36t5 36t5 35.5q2 18 5 33.5t6 24.5q4 25 4 30h268q0 -2 -1 -5t-2 -9t-1 -12q-2 -23 -6 -51q-4 -37 -6 -58q-2 -12 -5.5 -28.5t-3.5 -20.5h2q31 43 68 80q37 35 82 63q53 33 100 45q59 16 123 17q154 0 229 -74q78 -74 78 -211q0 -27 -2 -41 l-6 -45l-6 -43q-2 -14 -6 -35l-127 -653h-281l119 596q4 18 8 41q0 6 4 22.5t4 22.5l7 45q4 29 4 33q0 61 -39 96q-35 33 -115 33q-49 0 -92 -21q-53 -25 -88 -57q-43 -41 -72 -88q-31 -52 -43 -117l-117 -606h-282zM8 831q76 76 125 154q55 88 70 164h-127l49 260h289 l-39 -195q-12 -68 -31 -122q-14 -43 -41 -101q-16 -37 -51 -86q-18 -27 -61 -74h-183z" />
<glyph unicode="&#x14a;" horiz-adv-x="1480" d="M37 0l211 1092l14 84l17 90l8 41.5l8 42.5l5 36l3 23h291q-6 -43 -8 -53t-5 -33t-6 -33l-12 -69q-6 -35 -10 -64h2q41 59 98 113q59 55 115 86q61 35 135 53q78 20 154 21q197 0 299 -91q100 -88 100 -274q0 -47 -6 -96q-2 -23 -14 -80l-68 -346q-27 -131 -37 -166 q-27 -92 -47 -139q-29 -66 -63 -111q-31 -41 -91 -80q-45 -29 -122 -49q-70 -18 -164 -18q-72 0 -133 18q-63 18 -109 49q-51 33 -82 74q-41 51 -59 92l248 119q20 -33 30 -47q14 -18 35 -37t45 -27q23 -8 55 -8q47 0 78 18q35 20 58 58q20 33 41 106q18 61 36 158l56 289 q4 18 8 41q0 6 3 21.5t5 23.5q4 33 6 47t2 43q0 84 -57 133q-58 49 -178 49q-80 0 -150 -24q-71 -25 -129 -68t-98 -98q-39 -53 -51 -119l-174 -891h-293z" />
<glyph unicode="&#x14b;" horiz-adv-x="1249" d="M35 0l166 852l7 33.5t7 36t5 36t5 35.5q2 18 5 33.5t6 24.5q4 25 4 30h268q0 -2 -1 -5t-2 -9t-1 -12q-2 -23 -6 -51q-4 -37 -6 -58q-2 -12 -5.5 -28.5t-3.5 -20.5h2q31 43 68 80q37 35 82 63q53 33 100 45q59 16 123 17q154 0 229 -74q78 -74 78 -211q0 -27 -2 -41 l-6 -45l-6 -43q-2 -14 -6 -35l-152 -780q-12 -70 -39 -121q-27 -55 -69 -94q-43 -41 -101 -61q-61 -23 -135 -23q-51 0 -94 6q-45 6 -72 14l35 189q16 -4 31 -4h29q35 0 57 8t41 27q14 14 29 49q10 25 20 78l131 655q4 18 8 41q0 6 4 22.5t4 22.5l7 45q4 29 4 33 q0 61 -39 96q-35 33 -115 33q-49 0 -92 -21q-53 -25 -88 -57q-43 -41 -72 -88q-31 -52 -43 -117l-117 -606h-282z" />
<glyph unicode="&#x14c;" horiz-adv-x="1591" d="M100 573q0 29 4 95q2 29 15 96q29 143 100 272q70 127 172 211q113 92 238 135q137 47 299 48q147 0 266 -41q115 -39 197 -115t125 -182q43 -108 43 -240q0 -68 -4.5 -102.5t-16.5 -100.5q-33 -160 -100 -278q-72 -125 -174 -209q-111 -92 -240 -135q-137 -47 -297 -47 q-154 0 -270.5 43t-196.5 122q-78 78 -119 188.5t-41 239.5zM399 582q0 -182 90 -277q88 -92 252 -92q117 0 193 31q86 35 145 94q63 63 103 147q39 86 61 195q8 47 10 78q2 27 2 69q0 94 -24 162q-25 70 -68 115q-45 49 -108 70q-68 23 -142 22q-108 0 -190 -31 q-84 -31 -145 -92q-63 -63 -102.5 -147t-61.5 -199q-8 -49 -11 -74q-4 -48 -4 -71zM647 1536l33 168h590l-37 -168h-586z" />
<glyph unicode="&#x14d;" horiz-adv-x="1249" d="M63 420q0 158 46 280q45 125 133 215q84 88 202 138q117 49 261 49q115 0 207 -29t151 -82t90 -131q33 -82 33 -178q0 -164 -49 -293q-47 -125 -138 -221q-84 -90 -204 -139q-119 -49 -260 -49q-106 0 -193 30q-90 33 -149 86q-63 57 -96.5 137.5t-33.5 186.5zM358 430 q0 -76 14.5 -121t45.5 -80q27 -31 65 -43q43 -14 82 -14q43 0 90 10q45 10 84 43t72 92q37 68 57 162q6 29 17 96l6 87q0 70 -14 112q-16 51 -41 78t-66 43q-37 14 -88 14q-37 0 -88 -10q-43 -8 -86 -45t-74 -92q-35 -61 -55 -162q-14 -55 -17 -90q-4 -57 -4 -80zM430 1202 l33 168h590l-37 -168h-586z" />
<glyph unicode="&#x14e;" horiz-adv-x="1591" d="M100 573q0 29 4 95q2 29 15 96q29 143 100 272q70 127 172 211q113 92 238 135q137 47 299 48q147 0 266 -41q115 -39 197 -115t125 -182q43 -108 43 -240q0 -68 -4.5 -102.5t-16.5 -100.5q-33 -160 -100 -278q-72 -125 -174 -209q-111 -92 -240 -135q-137 -47 -297 -47 q-154 0 -270.5 43t-196.5 122q-78 78 -119 188.5t-41 239.5zM399 582q0 -182 90 -277q88 -92 252 -92q117 0 193 31q86 35 145 94q63 63 103 147q39 86 61 195q8 47 10 78q2 27 2 69q0 94 -24 162q-25 70 -68 115q-45 49 -108 70q-68 23 -142 22q-108 0 -190 -31 q-84 -31 -145 -92q-63 -63 -102.5 -147t-61.5 -199q-8 -49 -11 -74q-4 -48 -4 -71zM645 1823h164q0 -37 14 -72q10 -25 37 -51q20 -20 53 -31q35 -10 66 -10q76 0 131 39q53 37 79 125h164q-20 -72 -49 -125q-27 -49 -80 -94q-45 -39 -112.5 -61.5t-155.5 -22.5 q-70 0 -131 22q-58 22 -98 62q-39 39 -62 96q-20 53 -20 123z" />
<glyph unicode="&#x14f;" horiz-adv-x="1249" d="M63 420q0 158 46 280q45 125 133 215q84 88 202 138q117 49 261 49q115 0 207 -29t151 -82t90 -131q33 -82 33 -178q0 -164 -49 -293q-47 -125 -138 -221q-84 -90 -204 -139q-119 -49 -260 -49q-106 0 -193 30q-90 33 -149 86q-63 57 -96.5 137.5t-33.5 186.5zM358 430 q0 -76 14.5 -121t45.5 -80q27 -31 65 -43q43 -14 82 -14q43 0 90 10q45 10 84 43t72 92q37 68 57 162q6 29 17 96l6 87q0 70 -14 112q-16 51 -41 78t-66 43q-37 14 -88 14q-37 0 -88 -10q-43 -8 -86 -45t-74 -92q-35 -61 -55 -162q-14 -55 -17 -90q-4 -57 -4 -80zM447 1468 v19q0 2 1 8t1 10h162q0 -43 14 -71.5t37 -51.5q25 -25 51 -32q35 -10 61 -11q33 0 70 10.5t63 30.5q29 23 50 52q23 33 34 73h164q-18 -72 -49 -131q-29 -55 -80 -102q-47 -43 -112 -66q-68 -23 -156 -22q-76 0 -131 20q-58 22 -98 62q-41 41 -61.5 90t-20.5 112z" />
<glyph unicode="&#x150;" horiz-adv-x="1591" d="M100 573q0 29 4 95q2 29 15 96q29 143 100 272q70 127 172 211q113 92 238 135q137 47 299 48q147 0 266 -41q115 -39 197 -115t125 -182q43 -108 43 -240q0 -68 -4.5 -102.5t-16.5 -100.5q-33 -160 -100 -278q-72 -125 -174 -209q-111 -92 -240 -135q-137 -47 -297 -47 q-154 0 -270.5 43t-196.5 122q-78 78 -119 188.5t-41 239.5zM399 582q0 -182 90 -277q88 -92 252 -92q117 0 193 31q86 35 145 94q63 63 103 147q39 86 61 195q8 47 10 78q2 27 2 69q0 94 -24 162q-25 70 -68 115q-45 49 -108 70q-68 23 -142 22q-108 0 -190 -31 q-84 -31 -145 -92q-63 -63 -102.5 -147t-61.5 -199q-8 -49 -11 -74q-4 -48 -4 -71zM641 1530l11 31l227 247h260l-8 -43l-352 -235h-138zM1047 1530v31l237 247h261l-11 -43l-352 -235h-135z" />
<glyph unicode="&#x151;" horiz-adv-x="1249" d="M63 420q0 158 46 280q45 125 133 215q84 88 202 138q117 49 261 49q115 0 207 -29t151 -82t90 -131q33 -82 33 -178q0 -164 -49 -293q-47 -125 -138 -221q-84 -90 -204 -139q-119 -49 -260 -49q-106 0 -193 30q-90 33 -149 86q-63 57 -96.5 137.5t-33.5 186.5zM358 430 q0 -76 14.5 -121t45.5 -80q27 -31 65 -43q43 -14 82 -14q43 0 90 10q45 10 84 43t72 92q37 68 57 162q6 29 17 96l6 87q0 70 -14 112q-16 51 -41 78t-66 43q-37 14 -88 14q-37 0 -88 -10q-43 -8 -86 -45t-74 -92q-35 -61 -55 -162q-14 -55 -17 -90q-4 -57 -4 -80zM370 1184 l11 30l258 287h260l-11 -43l-370 -274h-148zM776 1184l10 30l256 287h262l-10 -43l-373 -274h-145z" />
<glyph unicode="&#x152;" horiz-adv-x="2048" d="M102 573q0 94 21 191q31 150 104 272q72 121 181 207q104 84 245 131q135 45 295 45h76q27 0 63 -4q27 -2 43 -4q6 0 10.5 -1t7.5 -1h3h948l-45 -227h-665l-70 -355h606l-43 -221h-606l-74 -375h709l-45 -231h-948q-25 -4 -46 -4q-8 0 -26.5 -2t-28.5 -2t-28.5 -1 t-28.5 -1h-53q-151 0 -265 43q-115 43 -188 117q-76 76 -113 184q-39 112 -39 239zM403 563q0 -92 23 -151q25 -63 68 -107q41 -41 106 -63q59 -20 135 -21q35 0 101 8q49 6 73 13l181 927q-8 4 -37 9q-25 4 -39.5 6t-40.5 2q-6 0 -18.5 1t-16.5 1q-217 0 -344 -119 q-131 -123 -174 -338q-9 -43 -12 -86q-5 -57 -5 -82z" />
<glyph unicode="&#x153;" horiz-adv-x="1931" d="M57 420q0 152 47 280q47 127 131 215.5t203 137.5q117 49 260 49q59 0 117 -10q70 -12 98 -25q51 -23 82 -45q49 -37 72 -61q72 70 172 106q92 35 211 35q111 0 195 -31t137 -84q57 -57 80 -129q25 -76 24 -168q0 -43 -6 -102q-8 -78 -16 -113h-701q0 -4 -2 -13t-3 -16.5 t-1 -13.5t-1 -22.5t-1 -22.5q0 -104 47 -161.5t137 -57.5q41 0 76 12q29 10 60 37q27 25 45 53q14 25 32 68l246 -76q-29 -57 -67 -115q-37 -51 -95 -90q-53 -35 -131 -57q-74 -20 -184 -20q-123 0 -217 40.5t-150 110.5q-43 -47 -84 -70q-57 -33 -102 -47q-49 -16 -117 -26 q-55 -8 -121 -8q-109 0 -194 30q-90 33 -150 86q-61 55 -94 137q-35 87 -35 187zM352 430q0 -68 17 -121q15 -49 42.5 -79.5t67.5 -43.5q47 -14 82 -14q43 0 90 10q45 10 84 43t72 92q35 61 55 162q8 33 12 68q0 4 1.5 8t1.5 6q0 3 1 7t1 7q4 29 4 43q0 8 2 22.5t2 21.5 q0 70 -15 112q-16 47 -43 78q-25 27 -65 43q-37 14 -86 14q-37 0 -88 -10q-43 -8 -86 -45t-74 -92q-37 -68 -57 -162q-10 -45 -15 -90q0 -6 -3 -36t-3 -44zM1196 664h430q4 20 4 28v27q0 106 -49 155.5t-131 49.5q-41 0 -72 -11q-41 -14 -73 -41q-35 -29 -64 -79 q-27 -45 -45 -129z" />
<glyph unicode="&#x154;" horiz-adv-x="1478" d="M37 0l272 1409h652q139 0 231 -33q96 -35 156 -88q63 -57 89.5 -129t26.5 -153q0 -96 -32 -168q-33 -74 -89 -125q-61 -57 -129 -86q-76 -31 -151 -43l272 -584h-325l-230 535h-346l-102 -535h-295zM479 764h393q66 0 121 12q49 10 92 41q37 25 60 72q20 41 20 100 q0 51 -18 88q-20 39 -51 60q-39 25 -78 32q-47 10 -94 11h-365zM737 1530l9 31l270 247h266l-10 -43l-385 -235h-150z" />
<glyph unicode="&#x155;" horiz-adv-x="796" d="M35 0l162 829l12 70l4 24.5t4 21.5t4 24q6 33 10 61q2 27 7 51h268q-4 -25 -6 -51q0 -10 -4 -30.5t-4 -30.5q-2 -10 -5.5 -30.5t-3.5 -29.5q-2 -14 -4 -26.5t-4 -22.5h4q37 66 68 109q31 41 71 75q33 27 78 43q41 14 90 15q4 0 12.5 -1t14.5 -1q18 0 29 -2q20 -4 28 -6 q4 0 10.5 -1t10.5 -4l-47 -233q-8 2 -24.5 4t-24.5 4q-25 6 -66 6q-121 0 -199 -88q-80 -90 -112 -266l-103 -514h-280zM438 1184l4 30l248 287h276l-8 -43l-375 -274h-145z" />
<glyph unicode="&#x156;" horiz-adv-x="1478" d="M37 0l272 1409h652q139 0 231 -33q96 -35 156 -88q63 -57 89.5 -129t26.5 -153q0 -96 -32 -168q-33 -74 -89 -125q-61 -57 -129 -86q-76 -31 -151 -43l272 -584h-325l-230 535h-346l-102 -535h-295zM479 764h393q66 0 121 12q49 10 92 41q37 25 60 72q20 41 20 100 q0 51 -18 88q-20 39 -51 60q-39 25 -78 32q-47 10 -94 11h-365zM486 -455q51 45 86 90q31 39 41 80h-109l41 207h246l-25 -127q-10 -49 -22 -78q-18 -43 -33 -67q-16 -27 -41 -56q-14 -16 -47 -49h-137z" />
<glyph unicode="&#x157;" horiz-adv-x="796" d="M35 0l162 829l12 70l4 24.5t4 21.5t4 24q6 33 10 61q2 27 7 51h268q-4 -25 -6 -51q0 -10 -4 -30.5t-4 -30.5q-2 -10 -5.5 -30.5t-3.5 -29.5q-2 -14 -4 -26.5t-4 -22.5h4q37 66 68 109q31 41 71 75q33 27 78 43q41 14 90 15q4 0 12.5 -1t14.5 -1q18 0 29 -2q20 -4 28 -6 q4 0 10.5 -1t10.5 -4l-47 -233q-8 2 -24.5 4t-24.5 4q-25 6 -66 6q-121 0 -199 -88q-80 -90 -112 -266l-103 -514h-280zM-18 -455q51 45 86 90q31 39 41 80h-109l41 207h246l-25 -127q-10 -49 -22 -78q-18 -43 -33 -67q-16 -27 -41 -56q-14 -16 -47 -49h-137z" />
<glyph unicode="&#x158;" horiz-adv-x="1478" d="M37 0l272 1409h652q139 0 231 -33q96 -35 156 -88q63 -57 89.5 -129t26.5 -153q0 -96 -32 -168q-33 -74 -89 -125q-61 -57 -129 -86q-76 -31 -151 -43l272 -584h-325l-230 535h-346l-102 -535h-295zM479 764h393q66 0 121 12q49 10 92 41q37 25 60 72q20 41 20 100 q0 51 -18 88q-20 39 -51 60q-39 25 -78 32q-47 10 -94 11h-365zM498 1806l4 29h149l182 -152h5l233 152h168l-6 -29l-303 -276h-230z" />
<glyph unicode="&#x159;" horiz-adv-x="796" d="M35 0l162 829l12 70l4 24.5t4 21.5t4 24q6 33 10 61q2 27 7 51h268q-4 -25 -6 -51q0 -10 -4 -30.5t-4 -30.5q-2 -10 -5.5 -30.5t-3.5 -29.5q-2 -14 -4 -26.5t-4 -22.5h4q37 66 68 109q31 41 71 75q33 27 78 43q41 14 90 15q4 0 12.5 -1t14.5 -1q18 0 29 -2q20 -4 28 -6 q4 0 10.5 -1t10.5 -4l-47 -233q-8 2 -24.5 4t-24.5 4q-25 6 -66 6q-121 0 -199 -88q-80 -90 -112 -266l-103 -514h-280zM247 1499l7 31h149l174 -195h4l240 195h170l-6 -31l-312 -315h-229z" />
<glyph unicode="&#x15a;" horiz-adv-x="1363" d="M25 365l288 49q8 -49 33 -95q18 -35 60 -65q39 -29 90 -41q53 -12 125 -12q68 0 139 10q63 8 108 33q47 25 72 61.5t25 93.5q0 46 -19 80q-16 31 -57 58q-37 25 -92 43q-80 27 -129 38q-88 23 -176 56q-82 31 -146 78q-55 41 -96 116q-37 68 -37 168q0 98 45 170 q46 74 123 123q82 51 182 76q104 25 223 25q127 0 226 -25q102 -25 168 -68q66 -41 108 -108q43 -66 58 -137l-289 -68q-23 90 -96 143q-76 53 -191 54q-66 0 -115 -13q-43 -10 -84 -37q-29 -18 -51 -55q-16 -27 -16 -69.5t22 -75.5q20 -29 62 -51q37 -20 94 -39 q16 -6 36.5 -11.5l46.5 -12.5l40 -11l104 -31q41 -12 103 -39q51 -23 94 -53q45 -33 78 -74t51 -98q18 -55 18 -127q0 -109 -39 -188q-37 -78 -120 -140q-72 -53 -205 -86q-123 -31 -289 -30q-137 0 -238 24q-106 27 -172 72q-70 49 -110 121q-39 70 -55 168zM712 1530l9 31 l270 247h266l-10 -43l-385 -235h-150z" />
<glyph unicode="&#x15b;" d="M23 270l251 37q10 -37 27 -63q14 -20 47 -43q25 -16 72 -27q39 -8 96 -8q37 0 90 8q35 6 70 23q29 14 47 43q16 27 16 61q0 29 -14 53q-10 18 -41 35q-25 14 -70 27q-18 6 -100 22q-74 16 -145 43q-61 23 -113 64q-49 39 -76 94q-27 53 -26 129q0 92 36.5 153.5 t102.5 102.5q61 39 153 57q89 18 191 19q98 0 168 -15q74 -15 129 -49q53 -33 88 -90t47 -135l-252 -29q-20 72 -65 101q-49 31 -134 30q-45 0 -81 -6q-43 -8 -64 -18q-31 -16 -45 -37t-14 -59q0 -31 18 -54q18 -20 53 -37q29 -12 80 -26q47 -12 103 -25q53 -12 131 -39 q53 -18 104 -59q47 -37 72 -90q25 -52 24 -129q0 -90 -32 -156q-34 -68 -99 -110q-66 -45 -157 -66q-96 -23 -213 -22q-199 0 -317.5 71.5t-157.5 218.5zM545 1184l4 30l248 287h276l-8 -43l-375 -274h-145z" />
<glyph unicode="&#x15c;" horiz-adv-x="1363" d="M25 365l288 49q8 -49 33 -95q18 -35 60 -65q39 -29 90 -41q53 -12 125 -12q68 0 139 10q63 8 108 33q47 25 72 61.5t25 93.5q0 46 -19 80q-16 31 -57 58q-37 25 -92 43q-80 27 -129 38q-88 23 -176 56q-82 31 -146 78q-55 41 -96 116q-37 68 -37 168q0 98 45 170 q46 74 123 123q82 51 182 76q104 25 223 25q127 0 226 -25q102 -25 168 -68q66 -41 108 -108q43 -66 58 -137l-289 -68q-23 90 -96 143q-76 53 -191 54q-66 0 -115 -13q-43 -10 -84 -37q-29 -18 -51 -55q-16 -27 -16 -69.5t22 -75.5q20 -29 62 -51q37 -20 94 -39 q16 -6 36.5 -11.5l46.5 -12.5l40 -11l104 -31q41 -12 103 -39q51 -23 94 -53q45 -33 78 -74t51 -98q18 -55 18 -127q0 -109 -39 -188q-37 -78 -120 -140q-72 -53 -205 -86q-123 -31 -289 -30q-137 0 -238 24q-106 27 -172 72q-70 49 -110 121q-39 70 -55 168zM465 1530l4 29 l311 276h230l196 -276l-6 -29h-147l-174 151h-5l-239 -151h-170z" />
<glyph unicode="&#x15d;" d="M23 270l251 37q10 -37 27 -63q14 -20 47 -43q25 -16 72 -27q39 -8 96 -8q37 0 90 8q35 6 70 23q29 14 47 43q16 27 16 61q0 29 -14 53q-10 18 -41 35q-25 14 -70 27q-18 6 -100 22q-74 16 -145 43q-61 23 -113 64q-49 39 -76 94q-27 53 -26 129q0 92 36.5 153.5 t102.5 102.5q61 39 153 57q89 18 191 19q98 0 168 -15q74 -15 129 -49q53 -33 88 -90t47 -135l-252 -29q-20 72 -65 101q-49 31 -134 30q-45 0 -81 -6q-43 -8 -64 -18q-31 -16 -45 -37t-14 -59q0 -31 18 -54q18 -20 53 -37q29 -12 80 -26q47 -12 103 -25q53 -12 131 -39 q53 -18 104 -59q47 -37 72 -90q25 -52 24 -129q0 -90 -32 -156q-34 -68 -99 -110q-66 -45 -157 -66q-96 -23 -213 -22q-199 0 -317.5 71.5t-157.5 218.5zM275 1184l6 26l319 320h230l186 -320l-4 -26h-149l-166 190h-4l-248 -190h-170z" />
<glyph unicode="&#x15e;" horiz-adv-x="1363" d="M25 365l288 49q8 -49 33 -95q18 -35 60 -65q39 -29 90 -41q53 -12 125 -12q68 0 139 10q63 8 108 33q47 25 72 61.5t25 93.5q0 46 -19 80q-16 31 -57 58q-37 25 -92 43q-80 27 -129 38q-88 23 -176 56q-82 31 -146 78q-55 41 -96 116q-37 68 -37 168q0 98 45 170 q46 74 123 123q82 51 182 76q104 25 223 25q127 0 226 -25q102 -25 168 -68q66 -41 108 -108q43 -66 58 -137l-289 -68q-23 90 -96 143q-76 53 -191 54q-66 0 -115 -13q-43 -10 -84 -37q-29 -18 -51 -55q-16 -27 -16 -69.5t22 -75.5q20 -29 62 -51q37 -20 94 -39 q16 -6 36.5 -11.5l46.5 -12.5l40 -11l104 -31q41 -12 103 -39q51 -23 94 -53q45 -33 78 -74t51 -98q18 -55 18 -127q0 -109 -39 -188q-37 -78 -120 -140q-72 -53 -205 -86q-123 -31 -289 -30q-137 0 -238 24q-106 27 -172 72q-70 49 -110 121q-39 70 -55 168zM358 -420 l29 119q4 0 20.5 -3t24.5 -3t19.5 -1t17.5 -1q82 0 118.5 18.5t36.5 59.5q0 31 -26 47q-23 14 -84 14h-25h-29l99 170h141l-47 -84q72 0 113 -33q43 -34 43 -98q0 -98 -84 -154q-86 -57 -260 -57q-6 0 -23.5 1t-28.5 1q-18 0 -55 4z" />
<glyph unicode="&#x15f;" d="M23 270l251 37q10 -37 27 -63q14 -20 47 -43q25 -16 72 -27q39 -8 96 -8q37 0 90 8q35 6 70 23q29 14 47 43q16 27 16 61q0 29 -14 53q-10 18 -41 35q-25 14 -70 27q-18 6 -100 22q-74 16 -145 43q-61 23 -113 64q-49 39 -76 94q-27 53 -26 129q0 92 36.5 153.5 t102.5 102.5q61 39 153 57q89 18 191 19q98 0 168 -15q74 -15 129 -49q53 -33 88 -90t47 -135l-252 -29q-20 72 -65 101q-49 31 -134 30q-45 0 -81 -6q-43 -8 -64 -18q-31 -16 -45 -37t-14 -59q0 -31 18 -54q18 -20 53 -37q29 -12 80 -26q47 -12 103 -25q53 -12 131 -39 q53 -18 104 -59q47 -37 72 -90q25 -52 24 -129q0 -90 -32 -156q-34 -68 -99 -110q-66 -45 -157 -66q-96 -23 -213 -22q-199 0 -317.5 71.5t-157.5 218.5zM233 -420l29 119q4 0 20.5 -3t24.5 -3t19.5 -1t17.5 -1q82 0 118.5 18.5t36.5 59.5q0 31 -26 47q-23 14 -84 14h-25 h-29l99 170h141l-47 -84q72 0 113 -33q43 -34 43 -98q0 -98 -84 -154q-86 -57 -260 -57q-6 0 -23.5 1t-28.5 1q-18 0 -55 4z" />
<glyph unicode="&#x160;" horiz-adv-x="1363" d="M25 365l288 49q8 -49 33 -95q18 -35 60 -65q39 -29 90 -41q53 -12 125 -12q68 0 139 10q63 8 108 33q47 25 72 61.5t25 93.5q0 46 -19 80q-16 31 -57 58q-37 25 -92 43q-80 27 -129 38q-88 23 -176 56q-82 31 -146 78q-55 41 -96 116q-37 68 -37 168q0 98 45 170 q46 74 123 123q82 51 182 76q104 25 223 25q127 0 226 -25q102 -25 168 -68q66 -41 108 -108q43 -66 58 -137l-289 -68q-23 90 -96 143q-76 53 -191 54q-66 0 -115 -13q-43 -10 -84 -37q-29 -18 -51 -55q-16 -27 -16 -69.5t22 -75.5q20 -29 62 -51q37 -20 94 -39 q16 -6 36.5 -11.5l46.5 -12.5l40 -11l104 -31q41 -12 103 -39q51 -23 94 -53q45 -33 78 -74t51 -98q18 -55 18 -127q0 -109 -39 -188q-37 -78 -120 -140q-72 -53 -205 -86q-123 -31 -289 -30q-137 0 -238 24q-106 27 -172 72q-70 49 -110 121q-39 70 -55 168zM502 1806l4 29 h149l182 -152h5l233 152h168l-6 -29l-303 -276h-230z" />
<glyph unicode="&#x161;" d="M23 270l251 37q10 -37 27 -63q14 -20 47 -43q25 -16 72 -27q39 -8 96 -8q37 0 90 8q35 6 70 23q29 14 47 43q16 27 16 61q0 29 -14 53q-10 18 -41 35q-25 14 -70 27q-18 6 -100 22q-74 16 -145 43q-61 23 -113 64q-49 39 -76 94q-27 53 -26 129q0 92 36.5 153.5 t102.5 102.5q61 39 153 57q89 18 191 19q98 0 168 -15q74 -15 129 -49q53 -33 88 -90t47 -135l-252 -29q-20 72 -65 101q-49 31 -134 30q-45 0 -81 -6q-43 -8 -64 -18q-31 -16 -45 -37t-14 -59q0 -31 18 -54q18 -20 53 -37q29 -12 80 -26q47 -12 103 -25q53 -12 131 -39 q53 -18 104 -59q47 -37 72 -90q25 -52 24 -129q0 -90 -32 -156q-34 -68 -99 -110q-66 -45 -157 -66q-96 -23 -213 -22q-199 0 -317.5 71.5t-157.5 218.5zM350 1499l7 31h149l174 -195h4l240 195h170l-6 -31l-312 -315h-229z" />
<glyph unicode="&#x162;" horiz-adv-x="1249" d="M145 1182l43 227h1207l-43 -227h-457l-229 -1182h-295l229 1182h-455zM328 -455q51 45 86 90q31 39 41 80h-109l41 207h246l-25 -127q-10 -49 -22 -78q-18 -43 -33 -67q-16 -27 -41 -56q-14 -16 -47 -49h-137z" />
<glyph unicode="&#x163;" horiz-adv-x="681" d="M86 893l37 188h162l137 254h176l-47 -254h201l-35 -188h-205l-104 -537q0 -6 -3.5 -21.5t-5.5 -25.5q-2 -18 -2 -49q4 -45 25 -63q23 -20 61 -21q16 0 49 4q10 2 60 10l-33 -182q-37 -12 -84 -18q-46 -6 -98 -6q-63 0 -109 14q-47 14 -82 43q-33 27 -51 70t-18 98 q0 59 4 88q10 66 10 70l102 526h-147zM125 -455q51 45 86 90q31 39 41 80h-109l41 207h246l-25 -127q-10 -49 -22 -78q-18 -43 -33 -67q-16 -27 -41 -56q-14 -16 -47 -49h-137z" />
<glyph unicode="&#x164;" horiz-adv-x="1249" d="M145 1182l43 227h1207l-43 -227h-457l-229 -1182h-295l229 1182h-455zM484 1806l4 29h149l182 -152h5l233 152h168l-6 -29l-303 -276h-230z" />
<glyph unicode="&#x165;" horiz-adv-x="980" d="M86 893l37 188h162l137 254h176l-47 -254h201l-35 -188h-205l-104 -537q0 -6 -3.5 -21.5t-5.5 -25.5q-2 -18 -2 -49q4 -45 25 -63q23 -20 61 -21q16 0 49 4q10 2 60 10l-33 -182q-37 -12 -84 -18q-46 -6 -98 -6q-63 0 -109 14q-47 14 -82 43q-33 27 -51 70t-18 98 q0 59 4 88q10 66 10 70l102 526h-147zM829 1088q55 49 88 96q35 49 43 94h-108l41 207h243l-26 -145q-9 -43 -25 -80q-20 -47 -31 -66q-20 -33 -41 -57q-14 -16 -47 -49h-137z" />
<glyph unicode="&#x166;" horiz-adv-x="1249" d="M145 1182l43 227h1207l-43 -227h-457l-72 -367h230l-37 -188h-230l-120 -627h-295l121 627h-228l37 188h227l72 367h-455z" />
<glyph unicode="&#x167;" horiz-adv-x="681" d="M27 473l34 191h127l45 229h-147l37 188h162l137 254h176l-47 -254h201l-35 -188h-205l-45 -229h184l-37 -191h-184l-22 -117q0 -6 -3.5 -21.5t-5.5 -25.5q-2 -18 -2 -49q4 -45 25 -63q23 -20 61 -21q16 0 49 4q10 2 60 10l-33 -182q-37 -12 -84 -18q-46 -6 -98 -6 q-63 0 -109 14q-47 14 -82 43q-33 27 -51 70t-18 98q0 59 4 88q10 66 10 70l21 106h-125z" />
<glyph unicode="&#x168;" horiz-adv-x="1478" d="M119 430q0 31 2 49l6 56l6 55q2 10 5 26.5t3 18.5l150 774h295l-154 -811q-6 -34 -12 -80q-6 -47 -6 -92q0 -55 20 -94q23 -41 57.5 -67.5t86.5 -39.5q57 -14 110 -14q84 0 139 16q61 18 107 58q47 41 76 100q31 66 49 156l168 868h295l-172 -879q-29 -143 -82 -245 q-55 -102 -140 -172q-82 -66 -196 -101q-111 -33 -260 -32q-127 0 -232 30q-109 33 -174 86q-74 61 -108 142q-39 90 -39 192zM519 1530q14 53 28 94q16 49 51 96q33 45 80 72q55 31 121 31q41 0 88 -21q45 -20 78 -41q41 -29 70 -43q34 -18 61 -18q29 0 45.5 8t32.5 25 q6 6 25 39q8 14 20 51h135q-16 -61 -28 -97q-18 -53 -50 -96q-33 -45 -80 -71q-51 -29 -120 -29q-45 0 -86 18q-43 20 -78 43q-16 10 -72 41q-37 20 -63 21q-25 0 -45 -11q-16 -8 -30.5 -22t-25.5 -39q-14 -37 -20 -51h-137z" />
<glyph unicode="&#x169;" horiz-adv-x="1249" d="M86 264q0 27 2 41q2 6 2 22.5t2 24.5t4 22.5t4 20.5q2 18 6 33l127 653h279l-119 -594q-2 -8 -8 -43q0 -6 -4 -22t-4 -23l-6 -43q-2 -14 -2 -34q0 -63 37 -97q35 -33 114 -32q51 0 94 20q53 25 88 57q37 33 70 90q31 53 43 115l119 606h280l-165 -850l-12.5 -71.5 l-12.5 -71.5q-4 -33 -8 -57.5t-4 -30.5h-269q0 12 2 27q2 23 7 51q0 8 3 27.5t5 29.5q2 12 5 28.5t3 20.5h-4q-31 -43 -66 -78q-41 -41 -82 -65q-47 -29 -100 -43q-59 -16 -125 -16q-156 0 -229 71q-76 74 -76 211zM351 1184q16 61 28 96q16 45 51 94t80 74q51 29 121 29 q41 0 88 -21q45 -20 78 -41q41 -27 70 -43q34 -18 61 -18q29 0 45.5 8t32.5 24q6 6 25 39q8 14 20 52h135q-16 -61 -29 -97q-18 -53 -49 -96q-33 -45 -80 -72q-51 -29 -120 -28q-47 0 -86 18q-43 20 -78 43q-14 10 -72 41q-37 20 -63 21q-29 0 -45 -9q-12 -6 -31 -24 q-14 -14 -25 -39q-16 -35 -20 -51h-137z" />
<glyph unicode="&#x16a;" horiz-adv-x="1478" d="M119 430q0 31 2 49l6 56l6 55q2 10 5 26.5t3 18.5l150 774h295l-154 -811q-6 -34 -12 -80q-6 -47 -6 -92q0 -55 20 -94q23 -41 57.5 -67.5t86.5 -39.5q57 -14 110 -14q84 0 139 16q61 18 107 58q47 41 76 100q31 66 49 156l168 868h295l-172 -879q-29 -143 -82 -245 q-55 -102 -140 -172q-82 -66 -196 -101q-111 -33 -260 -32q-127 0 -232 30q-109 33 -174 86q-74 61 -108 142q-39 90 -39 192zM629 1532l33 168h590l-37 -168h-586z" />
<glyph unicode="&#x16b;" horiz-adv-x="1249" d="M86 264q0 27 2 41q2 6 2 22.5t2 24.5t4 22.5t4 20.5q2 18 6 33l127 653h279l-119 -594q-2 -8 -8 -43q0 -6 -4 -22t-4 -23l-6 -43q-2 -14 -2 -34q0 -63 37 -97q35 -33 114 -32q51 0 94 20q53 25 88 57q37 33 70 90q31 53 43 115l119 606h280l-165 -850l-12.5 -71.5 l-12.5 -71.5q-4 -33 -8 -57.5t-4 -30.5h-269q0 12 2 27q2 23 7 51q0 8 3 27.5t5 29.5q2 12 5 28.5t3 20.5h-4q-31 -43 -66 -78q-41 -41 -82 -65q-47 -29 -100 -43q-59 -16 -125 -16q-156 0 -229 71q-76 74 -76 211zM444 1202l33 168h590l-37 -168h-586z" />
<glyph unicode="&#x16c;" horiz-adv-x="1478" d="M119 430q0 31 2 49l6 56l6 55q2 10 5 26.5t3 18.5l150 774h295l-154 -811q-6 -34 -12 -80q-6 -47 -6 -92q0 -55 20 -94q23 -41 57.5 -67.5t86.5 -39.5q57 -14 110 -14q84 0 139 16q61 18 107 58q47 41 76 100q31 66 49 156l168 868h295l-172 -879q-29 -143 -82 -245 q-55 -102 -140 -172q-82 -66 -196 -101q-111 -33 -260 -32q-127 0 -232 30q-109 33 -174 86q-74 61 -108 142q-39 90 -39 192zM598 1823h164q0 -37 14 -72q10 -25 37 -51q20 -20 53 -31q35 -10 66 -10q76 0 131 39q53 37 79 125h164q-20 -72 -49 -125q-27 -49 -80 -94 q-45 -39 -112.5 -61.5t-155.5 -22.5q-70 0 -131 22q-58 22 -98 62q-39 39 -62 96q-20 53 -20 123z" />
<glyph unicode="&#x16d;" horiz-adv-x="1249" d="M86 264q0 27 2 41q2 6 2 22.5t2 24.5t4 22.5t4 20.5q2 18 6 33l127 653h279l-119 -594q-2 -8 -8 -43q0 -6 -4 -22t-4 -23l-6 -43q-2 -14 -2 -34q0 -63 37 -97q35 -33 114 -32q51 0 94 20q53 25 88 57q37 33 70 90q31 53 43 115l119 606h280l-165 -850l-12.5 -71.5 l-12.5 -71.5q-4 -33 -8 -57.5t-4 -30.5h-269q0 12 2 27q2 23 7 51q0 8 3 27.5t5 29.5q2 12 5 28.5t3 20.5h-4q-31 -43 -66 -78q-41 -41 -82 -65q-47 -29 -100 -43q-59 -16 -125 -16q-156 0 -229 71q-76 74 -76 211zM424 1468v19q0 2 1 8t1 10h162q0 -43 14 -71.5t37 -51.5 q25 -25 51 -32q35 -10 61 -11q33 0 70 10.5t63 30.5q29 23 50 52q23 33 34 73h164q-18 -72 -49 -131q-29 -55 -80 -102q-47 -43 -112 -66q-68 -23 -156 -22q-76 0 -131 20q-58 22 -98 62q-41 41 -61.5 90t-20.5 112z" />
<glyph unicode="&#x16e;" horiz-adv-x="1478" d="M119 430q0 31 2 49l6 56l6 55q2 10 5 26.5t3 18.5l150 774h295l-154 -811q-6 -34 -12 -80q-6 -47 -6 -92q0 -55 20 -94q23 -41 57.5 -67.5t86.5 -39.5q57 -14 110 -14q84 0 139 16q61 18 107 58q47 41 76 100q31 66 49 156l168 868h295l-172 -879q-29 -143 -82 -245 q-55 -102 -140 -172q-82 -66 -196 -101q-111 -33 -260 -32q-127 0 -232 30q-109 33 -174 86q-74 61 -108 142q-39 90 -39 192zM673 1725q0 55 21 98q23 49 53 80q33 33 82 55q43 20 98.5 20.5t98.5 -20.5q49 -23 82 -55q31 -31 53 -80q20 -43 20 -98q0 -57 -20 -101 q-23 -49 -53 -80q-37 -37 -82 -55q-46 -18 -99 -18q-52 0 -98 18q-45 18 -82 55q-31 31 -53 80q-21 44 -21 101zM802 1724.5q0 -28.5 8.5 -51t26.5 -41.5q16 -16 41 -26t49 -10q23 0 49 10q23 8 41.5 26.5t26.5 40.5q10 27 10 52q0 23 -10 47t-27 41q-18 18 -41 26 q-27 10 -49 11q-25 0 -49 -10.5t-40.5 -27t-26.5 -40.5q-9 -19 -9 -47.5z" />
<glyph unicode="&#x16f;" horiz-adv-x="1249" d="M86 264q0 27 2 41q2 6 2 22.5t2 24.5t4 22.5t4 20.5q2 18 6 33l127 653h279l-119 -594q-2 -8 -8 -43q0 -6 -4 -22t-4 -23l-6 -43q-2 -14 -2 -34q0 -63 37 -97q35 -33 114 -32q51 0 94 20q53 25 88 57q37 33 70 90q31 53 43 115l119 606h280l-165 -850l-12.5 -71.5 l-12.5 -71.5q-4 -33 -8 -57.5t-4 -30.5h-269q0 12 2 27q2 23 7 51q0 8 3 27.5t5 29.5q2 12 5 28.5t3 20.5h-4q-31 -43 -66 -78q-41 -41 -82 -65q-47 -29 -100 -43q-59 -16 -125 -16q-156 0 -229 71q-76 74 -76 211zM477 1391q0 55 21 98q23 49 53 80q33 33 82 55 q43 20 98.5 20.5t98.5 -20.5q49 -23 82 -55q31 -31 53 -80q20 -43 20 -98q0 -57 -20 -101q-23 -49 -53 -80q-37 -37 -82 -55q-46 -18 -99 -18q-52 0 -98 18q-45 18 -82 55q-31 31 -53 80q-21 44 -21 101zM606 1390.5q0 -28.5 8.5 -51t26.5 -41.5q16 -16 41 -26t49 -10 q23 0 49 10q23 8 41.5 26.5t26.5 40.5q10 27 10 52q0 23 -10 47t-27 41q-18 18 -41 26q-27 10 -49 11q-25 0 -49 -10.5t-40.5 -27t-26.5 -40.5q-9 -19 -9 -47.5z" />
<glyph unicode="&#x170;" horiz-adv-x="1478" d="M119 430q0 31 2 49l6 56l6 55q2 10 5 26.5t3 18.5l150 774h295l-154 -811q-6 -34 -12 -80q-6 -47 -6 -92q0 -55 20 -94q23 -41 57.5 -67.5t86.5 -39.5q57 -14 110 -14q84 0 139 16q61 18 107 58q47 41 76 100q31 66 49 156l168 868h295l-172 -879q-29 -143 -82 -245 q-55 -102 -140 -172q-82 -66 -196 -101q-111 -33 -260 -32q-127 0 -232 30q-109 33 -174 86q-74 61 -108 142q-39 90 -39 192zM571 1530l11 31l227 247h260l-8 -43l-352 -235h-138zM977 1530v31l237 247h261l-11 -43l-352 -235h-135z" />
<glyph unicode="&#x171;" horiz-adv-x="1249" d="M86 264q0 27 2 41q2 6 2 22.5t2 24.5t4 22.5t4 20.5q2 18 6 33l127 653h279l-119 -594q-2 -8 -8 -43q0 -6 -4 -22t-4 -23l-6 -43q-2 -14 -2 -34q0 -63 37 -97q35 -33 114 -32q51 0 94 20q53 25 88 57q37 33 70 90q31 53 43 115l119 606h280l-165 -850l-12.5 -71.5 l-12.5 -71.5q-4 -33 -8 -57.5t-4 -30.5h-269q0 12 2 27q2 23 7 51q0 8 3 27.5t5 29.5q2 12 5 28.5t3 20.5h-4q-31 -43 -66 -78q-41 -41 -82 -65q-47 -29 -100 -43q-59 -16 -125 -16q-156 0 -229 71q-76 74 -76 211zM405 1184l11 30l258 287h260l-11 -43l-370 -274h-148z M811 1184l10 30l256 287h262l-10 -43l-373 -274h-145z" />
<glyph unicode="&#x172;" horiz-adv-x="1478" d="M119 430q0 31 2 49l6 56l6 55q2 10 5 26.5t3 18.5l150 774h295l-154 -811q-6 -34 -12 -80q-6 -47 -6 -92q0 -55 20 -94q23 -41 57.5 -67.5t86.5 -39.5q57 -14 110 -14q84 0 139 16q61 18 107 58q47 41 76 100q31 66 49 156l168 868h295l-172 -879q-29 -143 -82 -245 q-55 -102 -140 -172q-82 -66 -196 -101q-111 -33 -260 -32q-127 0 -232 30q-109 33 -174 86q-74 61 -108 142q-39 90 -39 192zM514 -246q0 47 15 82q18 43 39 70q31 37 57 57q45 33 70 47h164q-41 -29 -60 -47q-31 -33 -47 -57q-20 -35 -29 -62q-12 -41 -12 -55 q0 -39 22.5 -57.5t57.5 -18.5q29 0 53 6q27 6 49 17l-18 -127q-35 -14 -78 -25q-45 -10 -84 -10t-75.5 12.5t-63.5 32.5q-28 22 -43 55q-17 37 -17 80z" />
<glyph unicode="&#x173;" horiz-adv-x="1249" d="M86 264q0 27 2 41q2 6 2 22.5t2 24.5t4 22.5t4 20.5q2 18 6 33l127 653h279l-119 -594q-2 -8 -8 -43q0 -6 -4 -22t-4 -23l-6 -43q-2 -14 -2 -34q0 -63 37 -97q35 -33 114 -32q51 0 94 20q53 25 88 57q37 33 70 90q31 53 43 115l119 606h280l-165 -850l-12.5 -71.5 l-12.5 -71.5q-4 -33 -8 -57.5t-4 -30.5h-269q0 12 2 27q2 23 7 51q0 8 3 27.5t5 29.5q2 12 5 28.5t3 20.5h-4q-31 -43 -66 -78q-41 -41 -82 -65q-47 -29 -100 -43q-59 -16 -125 -16q-156 0 -229 71q-76 74 -76 211zM579 -246q0 47 15 82q18 43 39 70q31 37 57 57 q45 33 70 47h164q-41 -29 -60 -47q-31 -33 -47 -57q-20 -35 -29 -62q-12 -41 -12 -55q0 -39 22.5 -57.5t57.5 -18.5q29 0 53 6q27 6 49 17l-18 -127q-35 -14 -78 -25q-45 -10 -84 -10t-75.5 12.5t-63.5 32.5q-28 22 -43 55q-17 37 -17 80z" />
<glyph unicode="&#x174;" horiz-adv-x="1931" d="M150 1409h280l37 -815q2 -33 2 -107q0 -20 1 -58t1 -56q0 -20 1 -61.5t1 -63.5l57 143l25 64q6 18 13 32.5l14 28.5l24 59q6 14 11.5 28.5l9.5 25.5l334 780h317l31 -895q4 -57 4 -88q0 -33 4 -86q2 -31 2 -92q12 33 24.5 63.5t20.5 53.5l43 112l47 119l334 813h291 l-637 -1409h-350l-27 811q0 2 -1 17.5t-1 29.5q0 12 -1 38t-1 42q0 14 -1 46t-1 48v84l-43 -115q-8 -25 -19 -49l-20 -51l-19 -47l-16 -39l-348 -815h-354zM741 1530l4 29l311 276h230l196 -276l-6 -29h-147l-174 151h-5l-239 -151h-170z" />
<glyph unicode="&#x175;" horiz-adv-x="1591" d="M98 1081h258l15 -635v-61v-61v-68l26 68l27 61q2 8 27 61l292 635h301l43 -635q2 -16 3 -59q0 -12 1 -32.5t1 -28.5v-70l28 70l25 61q6 18 13 32.5t11 26.5l267 635h266l-496 -1081h-297l-43 659q-2 20 -2 72q0 14 -1 40t-1 36v84q-20 -57 -33 -84l-30 -76 q-20 -53 -31 -74l-303 -657h-297zM529 1184l6 26l319 320h230l186 -320l-4 -26h-149l-166 190h-4l-248 -190h-170z" />
<glyph unicode="&#x176;" horiz-adv-x="1363" d="M172 1409h293l258 -604l473 604h324l-684 -831l-111 -578h-295l113 578zM473 1530l4 29l311 276h230l196 -276l-6 -29h-147l-174 151h-5l-239 -151h-170z" />
<glyph unicode="&#x177;" d="M-86 -408l39 197q18 -3 43 -6q16 -2 45 -2q39 0 70 8q23 6 63 35q29 20 62 59q31 37 61 92l27 50l-211 1056h290l70 -495q3 -12 6 -37q0 -4 3 -25.5t5 -34.5q2 -16 3.5 -34.5t3.5 -36.5q2 -12 5 -36t3 -34q2 -33 4 -59q4 -33 4 -37q4 10 16 35q6 12 12.5 26.5l14.5 32.5 q25 49 33 68q16 37 32 69q10 18 16.5 33.5t10.5 26.5l13.5 26.5t7.5 12.5l258 499h301l-656 -1138q-51 -80 -106 -156q-51 -70 -105 -115q-57 -47 -120 -71q-70 -27 -150 -27q-8 0 -94 6q-43 3 -80 12zM289 1184l6 26l319 320h230l186 -320l-4 -26h-149l-166 190h-4 l-248 -190h-170z" />
<glyph unicode="&#x178;" horiz-adv-x="1363" d="M143 1409h293l258 -604l473 604h324l-684 -831l-111 -578h-295l113 578zM493 1530l41 219h215l-43 -219h-213zM925 1530l43 219h217l-43 -219h-217z" />
<glyph unicode="&#x179;" horiz-adv-x="1249" d="M-47 0l39 209l928 969h-664l45 231h1014l-39 -205l-932 -973h782l-45 -231h-1128zM661 1530l9 31l270 247h266l-10 -43l-385 -235h-150z" />
<glyph unicode="&#x17a;" horiz-adv-x="1024" d="M-35 0l37 199l653 680h-479l39 202h809l-39 -200l-649 -676h567l-41 -205h-897zM506 1184l4 30l248 287h276l-8 -43l-375 -274h-145z" />
<glyph unicode="&#x17b;" horiz-adv-x="1249" d="M-47 0l39 209l928 969h-664l45 231h1014l-39 -205l-932 -973h782l-45 -231h-1128zM658 1530l41 207h280l-41 -207h-280z" />
<glyph unicode="&#x17c;" horiz-adv-x="1024" d="M-35 0l37 199l653 680h-479l39 202h809l-39 -200l-649 -676h567l-41 -205h-897zM518 1268l41 207h280l-41 -207h-280z" />
<glyph unicode="&#x17d;" horiz-adv-x="1249" d="M-47 0l39 209l928 969h-664l45 231h1014l-39 -205l-932 -973h782l-45 -231h-1128zM469 1806l4 29h149l182 -152h5l233 152h168l-6 -29l-303 -276h-230z" />
<glyph unicode="&#x17e;" horiz-adv-x="1024" d="M-35 0l37 199l653 680h-479l39 202h809l-39 -200l-649 -676h567l-41 -205h-897zM317 1499l7 31h149l174 -195h4l240 195h170l-6 -31l-312 -315h-229z" />
<glyph unicode="&#x17f;" horiz-adv-x="567" d="M35 0l233 1194q12 72 39 123q28 55 74 92q45 37 115 55q76 20 163 21q46 0 86 -6t68 -13l-35 -180q-12 4 -22 4h-12.5t-12.5 2q-4 0 -13 1t-13.5 1t-12.5 1t-10 1q-63 0 -96 -32q-31 -31 -43 -97l-228 -1167h-280z" />
<glyph unicode="&#x192;" d="M217 -426l258 1319h-158l37 188h158l23 113q12 63 40 123q29 57 72 92q45 37 115 55q76 20 164 21q46 0 86 -6q47 -8 69 -13l-37 -180q-12 4 -20 4h-13t-14 2q-4 0 -13 1t-13 1t-12.5 1t-10.5 1q-63 0 -96 -32q-31 -31 -43 -97l-16 -86h213l-37 -188h-213l-258 -1319 h-281z" />
<glyph unicode="&#x1fa;" horiz-adv-x="1478" d="M-43 0l788 1409h349l237 -1409h-293l-55 360h-537l-194 -360h-295zM565 582h396l-66 452q0 4 -2 14.5t-4 22.5q0 10 -2 22.5l-4 24.5q0 8 -1 21.5t-3 21.5q-2 14 -2 31q0 -4 -3.5 -9t-6.5 -13.5l-5 -14.5t-24 -53q-12 -31 -29 -64q-2 -4 -31 -57zM673 1538q0 55 21 98 q23 49 53 80q33 33 82 55q43 20 98.5 20.5t98.5 -20.5q49 -23 82 -55q31 -31 53 -80q20 -43 20 -98q0 -57 -20 -101q-23 -49 -53 -80q-37 -37 -82 -55q-46 -18 -99 -18q-52 0 -98 18q-45 18 -82 55q-31 31 -53 80q-21 44 -21 101zM802 1537.5q0 -28.5 8.5 -51t26.5 -41.5 q16 -16 41 -26t49 -10q23 0 49 10q23 8 41.5 26.5t26.5 40.5q10 27 10 52q0 23 -10 47t-27 41q-18 18 -41 26q-27 10 -49 11q-25 0 -49 -10.5t-40.5 -27t-26.5 -40.5q-9 -19 -9 -47.5zM856 1831l9 31l270 247h266l-10 -43l-385 -235h-150z" />
<glyph unicode="&#x1fb;" d="M10 279q0 78 23 139q20 57 61 100q39 41 92 70q45 25 113 41q55 14 125 20q86 8 127 8l190 2l9 37l10 52q4 29 4 43q0 68 -35 98q-34 31 -92 31q-20 0 -62 -5q-29 -2 -57 -18q-31 -16 -51 -43q-23 -29 -35 -78l-262 33q14 68 51 121q35 51 94 92q53 37 140 59 q76 20 186 21q207 0 303 -74t96 -221q0 -35 -8 -74q-4 -20 -7 -41.5t-7 -42.5l-72 -352l-6 -37q-2 -12 -2 -34.5t10 -37.5q8 -12 23 -18q16 -8 26 -8q4 0 11.5 -1t9.5 -1q6 0 14 1t12 1q12 0 35 6l-14 -156q-43 -16 -84 -18q-57 -4 -88 -4q-100 0 -156 43q-53 41 -53 110v31 q0 12 4 33h-6q-31 -47 -68 -94q-29 -37 -77 -72q-39 -29 -97 -45q-55 -16 -123 -16q-77 0 -135 24q-59 25 -96 68q-41 49 -57 96q-19 56 -19 111zM297 326q0 -40 12 -68q14 -31 33 -47q23 -18 45 -27q25 -8 55 -8q29 0 66 12q41 14 70 37q31 27 63 74q29 41 47 113l23 92 h-162q-117 -3 -184.5 -49t-67.5 -129zM448 1391q0 55 21 98q23 49 53 80q33 33 82 55q43 20 98.5 20.5t98.5 -20.5q49 -23 82 -55q31 -31 53 -80q20 -43 20 -98q0 -57 -20 -101q-23 -49 -53 -80q-37 -37 -82 -55q-46 -18 -99 -18q-52 0 -98 18q-45 18 -82 55q-31 31 -53 80 q-21 44 -21 101zM577 1390.5q0 -28.5 8.5 -51t26.5 -41.5q16 -16 41 -26t49 -10q23 0 49 10q23 8 41.5 26.5t26.5 40.5q10 27 10 52q0 23 -10 47t-27 41q-18 18 -41 26q-27 10 -49 11q-25 0 -49 -10.5t-40.5 -27t-26.5 -40.5q-9 -19 -9 -47.5zM655 1692l9 31l270 247h266 l-10 -43l-385 -235h-150z" />
<glyph unicode="&#x1fc;" horiz-adv-x="2048" d="M-96 0l964 1409h1231l-45 -227h-700l-70 -355h639l-43 -221h-639l-74 -379h744l-45 -227h-1028l69 360h-450l-242 -360h-311zM602 582h348l117 610h-59l-25 -37l-39 -61l-43 -66q-27 -37 -31 -45zM1271 1530l9 31l270 247h266l-10 -43l-385 -235h-150z" />
<glyph unicode="&#x1fd;" horiz-adv-x="1820" d="M43 279q0 84 20 139q20 57 64 102q41 43 90 70q53 29 113 43q55 14 125 20q65 6 129 6h190l8 37l11 52q2 14 2 43q0 68 -33 98.5t-94 30.5q-18 0 -60 -5q-33 -4 -59 -18q-28 -15 -49 -43q-23 -29 -35 -78l-262 33q14 68 51 121q35 51 94 92q53 37 139 59q76 20 187 21 q113 0 186 -31q70 -29 113 -82q139 113 342 113q111 0 194 -31q82 -31 136 -84q57 -57 79 -129q27 -84 27 -168q0 -43 -6 -102q-6 -61 -19 -113h-700q-4 -29 -4 -43q0 -6 -1 -22.5t-1 -22.5q0 -104 47 -161.5t137 -57.5q41 0 76 12q27 10 57 37q33 29 47.5 53.5t32.5 67.5 l246 -76q-23 -49 -70 -115q-39 -53 -92 -90q-51 -35 -133 -57q-74 -20 -182 -20q-156 0 -252 57q-98 57 -143 162q-47 -74 -99 -115q-47 -39 -106 -66q-55 -25 -117 -30q-78 -8 -121 -8q-77 0 -135 24q-57 25 -94 68q-41 49 -58 96q-18 56 -18 111zM342 326q0 -43 8 -68 q10 -29 29 -47q16 -16 43 -27q23 -8 53 -8q27 0 64 12q45 14 71 37q31 27 64 74q29 41 47 113l22 88h-161q-113 0 -176.5 -45t-63.5 -129zM1061 664h430q2 10 2 28v27q0 106 -49 155.5t-129 49.5q-41 0 -72 -11q-41 -14 -74 -41q-35 -29 -63 -79q-27 -45 -45 -129zM899 1184 l4 30l248 287h276l-8 -43l-375 -274h-145z" />
<glyph unicode="&#x1fe;" horiz-adv-x="1591" d="M35 -53l205 221q-66 76 -105 180q-35 96 -35 225q0 29 4 95q2 29 15 96q29 143 100 272q70 127 172 211q113 92 238 135q137 47 299 48q125 0 219 -27q104 -29 176 -78l131 141h205l-223 -239q61 -74 92 -168q31 -96 31 -207q0 -68 -4.5 -102.5t-16.5 -100.5 q-33 -160 -100 -278q-72 -125 -174 -209q-111 -92 -240 -135q-137 -47 -297 -47q-109 0 -205 22q-86 20 -166 70l-114 -125h-207zM399 582q0 -125 39 -203l701 747q-84 70 -226 70q-108 0 -190 -31q-84 -31 -145 -92q-63 -63 -102.5 -147t-61.5 -199q-8 -49 -11 -74 q-4 -48 -4 -71zM539 264q78 -51 202 -51q117 0 193 31q86 35 145 94q63 63 103 147q39 86 61 195q8 47 10 78q2 27 2 69q0 98 -28 174zM815 1530l9 31l270 247h266l-10 -43l-385 -235h-150z" />
<glyph unicode="&#x1ff;" horiz-adv-x="1249" d="M43 -39l129 154q-53 53 -82 131q-27 74 -27 174q0 158 46 280q45 125 133 215q84 88 202 138q117 49 261 49q86 0 149.5 -14.5t122.5 -40.5l59 69h191l-135 -155q94 -106 94 -279q0 -164 -49 -293q-47 -125 -138 -221q-84 -90 -204 -139q-119 -49 -260 -49 q-137 0 -244 49l-58 -68h-190zM358 430q0 -53 9 -92l454 526q-31 27 -61 35q-37 10 -78 10q-37 0 -88 -10q-43 -8 -86 -45t-74 -92q-35 -61 -55 -162q-14 -55 -17 -90q-4 -57 -4 -80zM442 207q20 -16 58 -27q27 -8 65 -8q43 0 90 10q45 10 84 43t72 92q37 68 57 162 q6 29 17 96l6 87v32q0 8 -4 29zM621 1184l4 30l248 287h276l-8 -43l-375 -274h-145z" />
<glyph unicode="&#x2c6;" horiz-adv-x="681" d="M76 1184l6 26l319 320h230l186 -320l-4 -26h-149l-166 190h-4l-248 -190h-170z" />
<glyph unicode="&#x2c7;" horiz-adv-x="681" d="M147 1499l7 31h149l174 -195h4l240 195h170l-6 -31l-312 -315h-229z" />
<glyph unicode="&#x2c9;" horiz-adv-x="681" d="M168 1202l33 168h590l-37 -168h-586z" />
<glyph unicode="&#x2d8;" horiz-adv-x="681" d="M158 1468v19q0 2 1 8t1 10h162q0 -43 14 -71.5t37 -51.5q25 -25 51 -32q35 -10 61 -11q33 0 70 10.5t63 30.5q29 23 50 52q23 33 34 73h164q-18 -72 -49 -131q-29 -55 -80 -102q-47 -43 -112 -66q-68 -23 -156 -22q-76 0 -131 20q-58 22 -98 62q-41 41 -61.5 90 t-20.5 112z" />
<glyph unicode="&#x2d9;" horiz-adv-x="681" d="M330 1268l41 207h280l-41 -207h-280z" />
<glyph unicode="&#x2da;" horiz-adv-x="681" d="M227 1391q0 55 21 98q23 49 53 80q33 33 82 55q43 20 98.5 20.5t98.5 -20.5q49 -23 82 -55q31 -31 53 -80q20 -43 20 -98q0 -57 -20 -101q-23 -49 -53 -80q-37 -37 -82 -55q-46 -18 -99 -18q-52 0 -98 18q-45 18 -82 55q-31 31 -53 80q-21 44 -21 101zM356 1390.5 q0 -28.5 8.5 -51t26.5 -41.5q16 -16 41 -26t49 -10q23 0 49 10q23 8 41.5 26.5t26.5 40.5q10 27 10 52q0 23 -10 47t-27 41q-18 18 -41 26q-27 10 -49 11q-25 0 -49 -10.5t-40.5 -27t-26.5 -40.5q-9 -19 -9 -47.5z" />
<glyph unicode="&#x2db;" horiz-adv-x="681" d="M106 -246q0 47 15 82q18 43 39 70q31 37 57 57q45 33 70 47h164q-41 -29 -60 -47q-31 -33 -47 -57q-20 -35 -29 -62q-12 -41 -12 -55q0 -39 22.5 -57.5t57.5 -18.5q29 0 53 6q27 6 49 17l-18 -127q-35 -14 -78 -25q-45 -10 -84 -10t-75.5 12.5t-63.5 32.5q-28 22 -43 55 q-17 37 -17 80z" />
<glyph unicode="&#x2dc;" horiz-adv-x="681" d="M68 1184q16 61 28 96q16 45 51 94t80 74q51 29 121 29q41 0 88 -21q45 -20 78 -41q41 -27 70 -43q34 -18 61 -18q29 0 45.5 8t32.5 24q6 6 25 39q8 14 20 52h135q-16 -61 -29 -97q-18 -53 -49 -96q-33 -45 -80 -72q-51 -29 -120 -28q-47 0 -86 18q-43 20 -78 43 q-14 10 -72 41q-37 20 -63 21q-29 0 -45 -9q-12 -6 -31 -24q-14 -14 -25 -39q-16 -35 -20 -51h-137z" />
<glyph unicode="&#x2dd;" horiz-adv-x="681" d="M57 1184l11 30l258 287h260l-11 -43l-370 -274h-148zM463 1184l10 30l256 287h262l-10 -43l-373 -274h-145z" />
<glyph unicode="&#x384;" horiz-adv-x="681" d="M154 1184l6 33l125 290h258l-8 -37l-277 -286h-104z" />
<glyph unicode="&#x385;" horiz-adv-x="681" d="M-57 1231l43 221h198l-43 -221h-198zM184 1190l6 33l138 399h235l-6 -39l-258 -393h-115zM473 1231l43 221h201l-43 -221h-201z" />
<glyph unicode="&#x386;" horiz-adv-x="1478" d="M-43 0l788 1409h349l237 -1409h-293l-55 360h-537l-194 -360h-295zM565 582h396l-66 452q0 4 -2 14.5t-4 22.5q0 10 -2 22.5l-4 24.5q0 8 -1 21.5t-3 21.5q-2 14 -2 31q0 -4 -3.5 -9t-6.5 -13.5l-5 -14.5t-24 -53q-12 -31 -29 -64q-2 -4 -31 -57zM150 1086l6 33l125 290 h258l-8 -37l-277 -286h-104z" />
<glyph unicode="&#x387;" horiz-adv-x="681" d="M182 530l60 306h289l-60 -306h-289z" />
<glyph unicode="&#x388;" horiz-adv-x="1748" d="M416 0l272 1409h1108l-45 -227h-813l-67 -355h751l-45 -229h-752l-71 -371h854l-45 -227h-1147zM154 1086l6 33l125 290h258l-8 -37l-277 -286h-104z" />
<glyph unicode="&#x389;" horiz-adv-x="1853" d="M414 0l272 1409h295l-108 -561h624l111 561h282l-274 -1409h-283l117 604h-624l-119 -604h-293zM154 1086l6 33l125 290h258l-8 -37l-277 -286h-104z" />
<glyph unicode="&#x38a;" horiz-adv-x="968" d="M438 0l272 1409h295l-274 -1409h-293zM154 1086l6 33l125 290h258l-8 -37l-277 -286h-104z" />
<glyph unicode="&#x38c;" horiz-adv-x="1728" d="M235 573q0 29 4 95q2 29 15 96q29 143 100 272q70 127 172 211q113 92 238 135q137 47 299 48q147 0 266 -41q115 -39 197 -115t125 -182q43 -108 43 -240q0 -68 -4.5 -102.5t-16.5 -100.5q-33 -160 -100 -278q-72 -125 -174 -209q-111 -92 -240 -135q-137 -47 -297 -47 q-154 0 -270.5 43t-196.5 122q-78 78 -119 188.5t-41 239.5zM534 582q0 -182 90 -277q88 -92 252 -92q117 0 193 31q86 35 145 94q63 63 103 147q39 86 61 195q8 47 10 78q2 27 2 69q0 94 -24 162q-25 70 -68 115q-45 49 -108 70q-68 23 -142 22q-108 0 -190 -31 q-84 -31 -145 -92q-63 -63 -102.5 -147t-61.5 -199q-8 -49 -11 -74q-4 -48 -4 -71zM58 1086l6 33l125 290h258l-8 -37l-277 -286h-104z" />
<glyph unicode="&#x38e;" horiz-adv-x="1904" d="M711 1409h293l258 -604l473 604h324l-684 -831l-111 -578h-295l113 578zM199 1086l6 33l125 290h258l-8 -37l-277 -286h-104z" />
<glyph unicode="&#x38f;" horiz-adv-x="1734" d="M18 0l45 227h244h59q25 0 70 -4l84 -6q-55 29 -125 88q-57 49 -106 121q-41 59 -72 149q-29 82 -29 173q0 160 60 290q59 133 159 215q102 84 246 131q137 45 307 46q150 0 273 -41q121 -41 202 -113q86 -78 127 -172q45 -106 45 -221q0 -109 -28 -213q-27 -98 -90 -187 q-61 -84 -164 -153q-98 -66 -250 -113q46 3 86 6q45 4 72 4h59h225l-43 -227h-630l61 322q96 31 170 79q72 47 125 117q47 61 78 152q27 80 26 180q0 83 -24 147q-25 63 -72 111q-39 39 -113 68q-59 23 -147 22q-90 0 -170 -26.5t-147 -88.5q-59 -55 -103 -151 q-39 -90 -39 -217q0 -76 19 -137q16 -57 49 -109q29 -47 69 -84q47 -43 82 -63l-63 -322h-627zM-79 1086l6 33l125 290h258l-8 -37l-277 -286h-104z" />
<glyph unicode="&#x390;" horiz-adv-x="567" d="M68 125q0 37 2 57q4 37 8 54l166 845h280l-166 -854q-4 -25 -4 -41q0 -8 -1 -21t-1 -20q0 -90 41 -145h-299q-8 14 -18 51q-8 31 -8 74zM37 1231l43 221h198l-43 -221h-198zM278 1190l6 33l138 399h235l-6 -39l-258 -393h-115zM567 1231l43 221h201l-43 -221h-201z" />
<glyph unicode="&#x391;" horiz-adv-x="1478" d="M-43 0l788 1409h349l237 -1409h-293l-55 360h-537l-194 -360h-295zM565 582h396l-66 452q0 4 -2 14.5t-4 22.5q0 10 -2 22.5l-4 24.5q0 8 -1 21.5t-3 21.5q-2 14 -2 31q0 -4 -3.5 -9t-6.5 -13.5l-5 -14.5t-24 -53q-12 -31 -29 -64q-2 -4 -31 -57z" />
<glyph unicode="&#x392;" horiz-adv-x="1478" d="M37 0l272 1409h586q125 0 225 -23q98 -23 159.5 -63.5t92.5 -102t31 -137.5q0 -70 -23 -131q-20 -55 -65 -100q-43 -43 -103 -70q-72 -33 -133 -45q72 -12 125 -39q47 -25 90 -69q37 -39 56 -90q18 -49 18 -109q0 -121 -51 -207q-49 -84 -135 -133q-82 -47 -201 -70 q-109 -20 -240 -20h-704zM373 219h327q88 0 166 10q66 8 115 35q46 25 68 68q23 45 22 104q0 90 -67 139q-66 47 -222 48h-329zM494 842h294q96 0 148 10q66 12 100.5 34.5t55.5 61.5q18 37 18 90q0 41 -16 74q-12 25 -50 47q-31 18 -77 25q-46 6 -105 6h-301z" />
<glyph unicode="&#x393;" horiz-adv-x="1247" d="M37 0l272 1409h1020l-43 -227h-727l-227 -1182h-295z" />
<glyph unicode="&#x394;" horiz-adv-x="1374" d="M-63 0l45 225l710 1184h346l246 -1184l-45 -225h-1302zM299 244h696l-131 698l-12 82q-6 40 -12 74q-2 14 -9 59q-2 16 -2 33l-5 -11q-5 -11 -9 -22l-31 -59l-41 -76l-45 -82z" />
<glyph unicode="&#x395;" horiz-adv-x="1363" d="M37 0l272 1409h1108l-45 -227h-813l-67 -355h751l-45 -229h-752l-71 -371h854l-45 -227h-1147z" />
<glyph unicode="&#x396;" horiz-adv-x="1249" d="M-47 0l39 209l928 969h-664l45 231h1014l-39 -205l-932 -973h782l-45 -231h-1128z" />
<glyph unicode="&#x397;" horiz-adv-x="1478" d="M37 0l272 1409h295l-108 -561h624l111 561h282l-274 -1409h-283l117 604h-624l-119 -604h-293z" />
<glyph unicode="&#x398;" horiz-adv-x="1591" d="M100 573q0 29 4 95q2 29 15 96q29 143 100 272q70 127 172 211q113 92 238 135q137 47 299 48q147 0 266 -41q115 -39 197 -115t125 -182q43 -108 43 -240q0 -68 -4.5 -102.5t-16.5 -100.5q-33 -160 -100 -278q-72 -125 -174 -209q-111 -92 -240 -135q-137 -47 -297 -47 q-154 0 -270.5 43t-196.5 122q-78 78 -119 188.5t-41 239.5zM399 582q0 -182 90 -277q88 -92 252 -92q117 0 193 31q86 35 145 94q63 63 103 147q39 86 61 195q8 47 10 78q2 27 2 69q0 94 -24 162q-25 70 -68 115q-45 49 -108 70q-68 23 -142 22q-108 0 -190 -31 q-84 -31 -145 -92q-63 -63 -102.5 -147t-61.5 -199q-8 -49 -11 -74q-4 -48 -4 -71zM512 598l43 229h588l-43 -229h-588z" />
<glyph unicode="&#x399;" horiz-adv-x="567" d="M37 0l272 1409h295l-274 -1409h-293z" />
<glyph unicode="&#x39a;" horiz-adv-x="1478" d="M37 0l272 1409h295l-131 -639l762 639h369l-748 -616l465 -793h-326l-356 639l-211 -123l-100 -516h-291z" />
<glyph unicode="&#x39b;" horiz-adv-x="1363" d="M-92 0l792 1409h299l244 -1409h-295l-117 887q-4 29 -8 90q-2 16 -5 45t-3 41q-4 61 -4 88q-4 -8 -39 -86l-41 -86l-45 -92l-463 -887h-315z" />
<glyph unicode="&#x39c;" horiz-adv-x="1705" d="M37 0l272 1409h396l88 -788q0 -2 3 -31l5 -47l8 -90q4 -74 8 -109l49 107l43 90l37 75l404 793h393l-275 -1409h-262l172 885l25 110l22 105q6 31 14.5 58.5t12.5 47.5l-70 -151q-6 -12 -13 -28.5l-15 -35.5l-31 -65l-29 -60q-16 -37 -24 -51l-414 -815h-209l-94 819 q-2 18 -4 45q-2 14 -4 29.5t-4 28.5q-2 16 -3 31.5t-3 31.5q-4 31 -7 66l-8 82t-8 73l-12 -121q0 -10 -1 -17t-3 -15.5t-4 -18.5q-2 -14 -3.5 -26.5t-3.5 -26.5q-2 -8 -4 -24.5t-4 -24.5t-5 -23.5t-3 -21.5l-170 -887h-262z" />
<glyph unicode="&#x39d;" horiz-adv-x="1478" d="M37 0l272 1409h350l377 -1141l13 82l12 82q4 31 16 92l174 885h262l-274 -1409h-354l-375 1130l-12 -83l-13 -78q-2 -16 -8 -44t-6 -32l-172 -893h-262z" />
<glyph unicode="&#x39e;" horiz-adv-x="1345" d="M-8 0l45 227h1151l-45 -227h-1151zM256 1182l43 227h1081l-43 -227h-1081zM262 598l45 229h842l-45 -229h-842z" />
<glyph unicode="&#x39f;" horiz-adv-x="1591" d="M100 573q0 29 4 95q2 29 15 96q29 143 100 272q70 127 172 211q113 92 238 135q137 47 299 48q147 0 266 -41q115 -39 197 -115t125 -182q43 -108 43 -240q0 -68 -4.5 -102.5t-16.5 -100.5q-33 -160 -100 -278q-72 -125 -174 -209q-111 -92 -240 -135q-137 -47 -297 -47 q-154 0 -270.5 43t-196.5 122q-78 78 -119 188.5t-41 239.5zM399 582q0 -182 90 -277q88 -92 252 -92q117 0 193 31q86 35 145 94q63 63 103 147q39 86 61 195q8 47 10 78q2 27 2 69q0 94 -24 162q-25 70 -68 115q-45 49 -108 70q-68 23 -142 22q-108 0 -190 -31 q-84 -31 -145 -92q-63 -63 -102.5 -147t-61.5 -199q-8 -49 -11 -74q-4 -48 -4 -71z" />
<glyph unicode="&#x3a0;" horiz-adv-x="1468" d="M37 0l272 1409h1194l-272 -1409h-287l227 1165h-616l-225 -1165h-293z" />
<glyph unicode="&#x3a1;" horiz-adv-x="1363" d="M37 0l272 1409h541q123 0 221 -29q92 -27 162 -84q68 -55 102 -133q33 -74 33 -176q0 -115 -39 -205q-39 -88 -115 -155q-70 -61 -178 -96t-231 -35h-377l-98 -496h-293zM471 723h289q158 0 233.5 57.5t75.5 190.5q0 59 -16 94q-20 43 -52 65q-34 25 -79 37t-101 13h-262 z" />
<glyph unicode="&#x3a3;" horiz-adv-x="1208" d="M-47 0l49 252l547 506l-346 436l41 215h997l-43 -227h-696l299 -373l-29 -135l-479 -447h780l-45 -227h-1075z" />
<glyph unicode="&#x3a4;" horiz-adv-x="1249" d="M145 1182l43 227h1207l-43 -227h-457l-229 -1182h-295l229 1182h-455z" />
<glyph unicode="&#x3a5;" horiz-adv-x="1363" d="M172 1409h293l258 -604l473 604h324l-684 -831l-111 -578h-295l113 578z" />
<glyph unicode="&#x3a6;" horiz-adv-x="1683" d="M96 651q0 158 47 267q51 119 138 192q88 76 213 113q133 39 278 39h70l30 157h271l-31 -157h68q115 0 204 -37q92 -39 150 -99q59 -61 90 -149q31 -86 31 -184q0 -145 -45 -254q-49 -117 -131 -191q-84 -76 -211 -119q-121 -41 -285 -41h-80l-39 -198h-268l37 198h-76 q-104 0 -188 33t-145.5 94.5t-94.5 145.5t-33 190zM387 662q0 -45 14 -103q12 -47 41 -86q27 -35 68 -55.5t98 -20.5h66l127 656h-45q-70 0 -148 -25q-63 -20 -116 -70q-49 -47 -78 -120q-27 -72 -27 -176zM944 397h53q76 0 150 27q61 23 115 76q47 47 75 123q27 72 27 165 q0 53 -16 107q-16 51 -43 84q-29 35 -72 53q-47 20 -100 21h-62z" />
<glyph unicode="&#x3a7;" horiz-adv-x="1363" d="M-94 0l651 735l-338 674h309l226 -471l401 471h313l-600 -678l367 -731h-307l-252 532l-457 -532h-313z" />
<glyph unicode="&#x3a8;" horiz-adv-x="1695" d="M170 840q0 76 14 147l82 422h281l-84 -436q-2 -8 -6 -28.5t-4 -31.5q0 -4 -1 -14t-1 -16v-27q0 -104 63 -156q66 -53 191 -53h26l150 762h278l-147 -762h37q74 0 135 17q55 14 102 51q45 35 74 92q28 55 43 135l90 467h279l-91 -463q-25 -125 -67 -223q-43 -96 -119 -164 q-74 -65 -184 -98q-115 -35 -269 -35h-73l-84 -426h-279l82 426h-29q-115 0 -217 31q-88 27 -153 82q-57 49 -90 129q-29 72 -29 172z" />
<glyph unicode="&#x3a9;" horiz-adv-x="1597" d="M-33 0l45 227h244h59q25 0 70 -4l84 -6q-55 29 -125 88q-57 49 -106 121q-41 59 -72 149q-29 82 -29 173q0 160 60 290q59 133 159 215q102 84 246 131q137 45 307 46q150 0 273 -41q121 -41 202 -113q86 -78 127 -172q45 -106 45 -221q0 -109 -28 -213q-27 -98 -90 -187 q-61 -84 -164 -153q-98 -66 -250 -113q46 3 86 6q45 4 72 4h59h225l-43 -227h-630l61 322q96 31 170 79q72 47 125 117q47 61 78 152q27 80 26 180q0 83 -24 147q-25 63 -72 111q-39 39 -113 68q-59 23 -147 22q-90 0 -170 -26.5t-147 -88.5q-59 -55 -103 -151 q-39 -90 -39 -217q0 -76 19 -137q16 -57 49 -109q29 -47 69 -84q47 -43 82 -63l-63 -322h-627z" />
<glyph unicode="&#x3aa;" horiz-adv-x="567" d="M37 0l272 1409h295l-274 -1409h-293zM151 1530l41 219h215l-43 -219h-213zM583 1530l43 219h217l-43 -219h-217z" />
<glyph unicode="&#x3ab;" horiz-adv-x="1363" d="M143 1409h293l258 -604l473 604h324l-684 -831l-111 -578h-295l113 578zM493 1530l41 219h215l-43 -219h-213zM925 1530l43 219h217l-43 -219h-217z" />
<glyph unicode="&#x3ac;" horiz-adv-x="1269" d="M57 375q0 43 6 102q8 74 17 113q27 137 78 239q45 92 118 158q66 59 154 88q82 27 182 27q72 0 131 -19q55 -16 101 -53q41 -33 69 -80q23 -37 37 -102h2q0 2 8.5 20.5l14.5 32.5q8 18 17 35.5t16 32.5q6 10 16 32.5t16 32.5q25 41 29 47h272q-37 -55 -71 -116 q-33 -59 -76 -148q-59 -123 -74 -158q-33 -76 -55 -145q0 -78 4 -176q2 -59 10 -133t15 -109l16 -96h-276q-2 8 -5.5 27.5t-5.5 27.5q-4 20 -8 61.5t-6 60t-2 48.5v15h-4q-45 -70 -72 -101q-37 -43 -86 -82q-41 -33 -106 -57q-55 -20 -133 -20q-88 0 -150 26q-70 29 -109 78 q-49 59 -67 125q-23 78 -23 166zM348 387q0 -213 148 -213q41 0 82 25q39 23 79 71q35 41 72 117q31 66 62 166v33q0 4 1 14t1 16q0 59 -11 117q-9 52 -30 92q-20 37 -55 59.5t-81 22.5q-43 0 -84 -18q-39 -18 -69 -58q-35 -45 -57 -106q-20 -53 -41 -168q-9 -49 -13 -92 q-4 -58 -4 -78zM609 1184l6 33l125 290h258l-8 -37l-277 -286h-104z" />
<glyph unicode="&#x3ad;" horiz-adv-x="978" d="M27 293q0 72 22 117q25 49 68 86q37 31 102 55q61 23 129 29l2 2q-40 12 -74 30q-35 18 -59 47q-27 29 -41 66q-14 35 -14 82q0 72 30.5 127t88.5 92q63 41 139 57q84 18 182 19q70 0 127 -12q59 -12 108.5 -37t90.5 -66q43 -43 71 -98l-192 -84q-33 61 -86 90t-119 29 q-20 0 -65 -9q-35 -6 -57.5 -20t-39.5 -41q-14 -23 -14 -59q0 -39 23 -68q16 -20 63 -43q41 -18 94 -25q74 -8 117 -8l-25 -174q-47 0 -137 -4q-59 -2 -123 -20q-51 -14 -88 -52q-33 -33 -33 -98q0 -59 39 -96q41 -37 107 -37q90 0 162 39q82 45 143 100l129 -149 q-45 -41 -94 -76q-57 -39 -107 -57q-66 -25 -125 -35q-68 -12 -151 -12q-90 0 -164 24q-76 25 -125 66t-78 100q-26 55 -26 123zM547 1184l6 33l125 290h258l-8 -37l-277 -286h-104z" />
<glyph unicode="&#x3ae;" horiz-adv-x="1249" d="M37 0l166 852q12 53 12 127t-4 102h268q4 -16 8 -45q2 -16 2 -47q0 -8 -1 -24.5t-1 -24.5l-6 -43h4q31 43 68 80q37 35 82 63q53 33 100 45q59 16 123 17q154 0 229 -74q78 -74 78 -211q0 -27 -2 -41l-6 -45l-6 -43q-2 -14 -6 -35l-209 -1079h-281l201 1022q4 18 8 41 q0 6 4 22.5t4 22.5l7 45q4 29 4 33q0 61 -39 96q-35 33 -115 33q-49 0 -92 -21q-53 -25 -88 -57q-43 -41 -72 -88q-31 -52 -43 -117l-115 -606h-282zM680 1184l6 33l125 290h258l-8 -37l-277 -286h-104z" />
<glyph unicode="&#x3af;" horiz-adv-x="567" d="M68 125q0 37 2 57q4 37 8 54l166 845h280l-166 -854q-4 -25 -4 -41q0 -8 -1 -21t-1 -20q0 -90 41 -145h-299q-8 14 -18 51q-8 31 -8 74zM295 1184l6 33l125 290h258l-8 -37l-277 -286h-104z" />
<glyph unicode="&#x3b0;" horiz-adv-x="1210" d="M102 338v37q0 12 4 41q0 6 1.5 19.5t3.5 19.5q0 6 1 16t3 14l118 596h279l-115 -575q-10 -61 -12 -76q-2 -27 -2 -72q0 -78 41 -125t127 -47q57 0 106 27q46 25 80 68q29 37 54 102q18 53 32 123q14 72 17 135q4 94 4 137q0 115 -15 185q-18 88 -28 118h284 q14 -45 27 -120q12 -74 12 -162q0 -109 -14 -203q-16 -104 -45 -193q-31 -90 -80 -167q-57 -90 -113 -136q-72 -59 -153 -88q-92 -33 -195 -32q-98 0 -178 22q-74 20 -131 65.5t-84 110.5q-29 70 -29 160zM332 1231l43 221h198l-43 -221h-198zM573 1190l6 33l138 399h235 l-6 -39l-258 -393h-115zM862 1231l43 221h201l-43 -221h-201z" />
<glyph unicode="&#x3b1;" horiz-adv-x="1269" d="M57 375q0 43 6 102q8 74 17 113q27 137 78 239q45 92 118 158q66 59 154 88q82 27 182 27q72 0 131 -19q55 -16 101 -53q41 -33 69 -80q23 -37 37 -102h2q0 2 8.5 20.5l14.5 32.5q8 18 17 35.5t16 32.5q6 10 16 32.5t16 32.5q25 41 29 47h272q-37 -55 -71 -116 q-33 -59 -76 -148q-59 -123 -74 -158q-33 -76 -55 -145q0 -78 4 -176q2 -59 10 -133t15 -109l16 -96h-276q-2 8 -5.5 27.5t-5.5 27.5q-4 20 -8 61.5t-6 60t-2 48.5v15h-4q-45 -70 -72 -101q-37 -43 -86 -82q-41 -33 -106 -57q-55 -20 -133 -20q-88 0 -150 26q-70 29 -109 78 q-49 59 -67 125q-23 78 -23 166zM348 387q0 -213 148 -213q41 0 82 25q39 23 79 71q35 41 72 117q31 66 62 166v33q0 4 1 14t1 16q0 59 -11 117q-9 52 -30 92q-20 37 -55 59.5t-81 22.5q-43 0 -84 -18q-39 -18 -69 -58q-35 -45 -57 -106q-20 -53 -41 -168q-9 -49 -13 -92 q-4 -58 -4 -78z" />
<glyph unicode="&#x3b2;" horiz-adv-x="1269" d="M-43 -426l279 1438q47 233 180 352q137 121 377 121q78 0 165 -25q70 -20 129 -65q55 -43 87 -103q29 -55 28 -133q0 -83 -24 -147q-27 -70 -64 -113q-41 -47 -94 -76q-55 -29 -111 -41q51 -12 101 -41q43 -25 79.5 -69.5t55.5 -93.5q18 -52 18 -117q0 -109 -33 -195 q-31 -82 -102 -153q-65 -65 -160 -99q-98 -35 -217 -34q-98 0 -180 28q-76 27 -135 66h-6q-4 -29 -15 -103q-6 -46 -18 -98l-59 -299h-281zM371 256q20 -16 45 -31q25 -12 57 -26q31 -12 64 -19q45 -8 67 -8q59 0 113 18q59 20 90 52q35 35 57.5 90t22.5 125q0 47 -19 88 q-20 43 -55 69q-43 31 -88 45q-55 16 -121 17l39 198q78 10 123 27q57 20 90 47q41 33 57 74q18 43 19 100q0 70 -41 115q-40 43 -123 43q-96 0 -160 -66q-66 -68 -92 -204z" />
<glyph unicode="&#x3b3;" d="M109 1081h286l78 -573l8 -66l6 -88q0 -14 1 -46t4 -46q2 -29 2 -74q9 31 24 68l29 72q23 53 28 67l25 51l326 635h305l-594 -1028l-62 -110l-26.5 -51t-30.5 -62q-23 -47 -51 -123q-33 -86 -47 -133h-291q37 106 94 242q41 96 92 194z" />
<glyph unicode="&#x3b4;" horiz-adv-x="1249" d="M55 416q0 135 45 231q47 102 125 170q86 76 183 119q113 49 217 78l-246 311l35 160h839l-28 -191h-371h-33q-6 0 -20.5 2t-22.5 2t-22.5 1t-20.5 1q-8 0 -18 1.5t-15 1.5l259 -312q59 -82 73 -104q39 -59 60 -107q20 -49 39 -114q14 -55 14 -129q0 -133 -45 -236 q-47 -106 -127 -174q-86 -74 -195 -109q-113 -37 -248 -36q-115 0 -200 32q-90 35 -152 92q-66 61 -94 138q-31 80 -31 172zM344 430q0 -59 16 -108q14 -41 46 -80q29 -35 65 -49q43 -16 86 -17q74 0 129 31q61 35 94 80q37 53 56 121q18 72 18 149q0 51 -10 107 q-8 47 -28.5 90t-43.5 77q-8 14 -53 68l-37 -14.5l-43 -16.5q-27 -12 -82 -43q-41 -23 -80 -59q-31 -27 -67 -84q-27 -39 -48 -109q-18 -61 -18 -143z" />
<glyph unicode="&#x3b5;" horiz-adv-x="978" d="M27 293q0 72 22 117q25 49 68 86q37 31 102 55q61 23 129 29l2 2q-40 12 -74 30q-35 18 -59 47q-27 29 -41 66q-14 35 -14 82q0 72 30.5 127t88.5 92q63 41 139 57q84 18 182 19q70 0 127 -12q59 -12 108.5 -37t90.5 -66q43 -43 71 -98l-192 -84q-33 61 -86 90t-119 29 q-20 0 -65 -9q-35 -6 -57.5 -20t-39.5 -41q-14 -23 -14 -59q0 -39 23 -68q16 -20 63 -43q41 -18 94 -25q74 -8 117 -8l-25 -174q-47 0 -137 -4q-59 -2 -123 -20q-51 -14 -88 -52q-33 -33 -33 -98q0 -59 39 -96q41 -37 107 -37q90 0 162 39q82 45 143 100l129 -149 q-45 -41 -94 -76q-57 -39 -107 -57q-66 -25 -125 -35q-68 -12 -151 -12q-90 0 -164 24q-76 25 -125 66t-78 100q-26 55 -26 123z" />
<glyph unicode="&#x3b6;" horiz-adv-x="1005" d="M49 303q0 90 31 180q29 84 84 179q35 61 127 172q71 86 153 165q92 88 168 154l172 141v6q-4 0 -13 -1t-15 -1q-8 0 -15.5 -1t-17.5 -1h-35q-6 0 -14 -1t-12 -1h-312l37 191h700l-32 -191l-158 -137l-162 -149q-94 -90 -155 -160q-78 -86 -129 -162q-53 -76 -89 -160 q-35 -82 -34 -153q0 -41 14 -64q18 -29 45 -45q35 -20 74 -35q16 -6 51 -16l49 -14q51 -14 107 -37q52 -22 92 -49q37 -25 63 -70q25 -40 25 -98q0 -41 -14 -99q-10 -45 -35 -92q-25 -49 -51 -84q-31 -41 -66 -71l-152 96l27 33q14 16 27 39l18 43q8 18 8 45q0 28 -18 49 q-16 18 -55 37q-29 12 -82 30q-14 4 -30.5 9.5t-39.5 10.5t-35 9q-61 15 -117 37q-53 20 -96 57q-35 31 -63 86q-25 49 -25 123z" />
<glyph unicode="&#x3b7;" horiz-adv-x="1249" d="M37 0l166 852q12 53 12 127t-4 102h268q4 -16 8 -45q2 -16 2 -47q0 -8 -1 -24.5t-1 -24.5l-6 -43h4q31 43 68 80q37 35 82 63q53 33 100 45q59 16 123 17q154 0 229 -74q78 -74 78 -211q0 -27 -2 -41l-6 -45l-6 -43q-2 -14 -6 -35l-209 -1079h-281l201 1022q4 18 8 41 q0 6 4 22.5t4 22.5l7 45q4 29 4 33q0 61 -39 96q-35 33 -115 33q-49 0 -92 -21q-53 -25 -88 -57q-43 -41 -72 -88q-31 -52 -43 -117l-115 -606h-282z" />
<glyph unicode="&#x3b8;" horiz-adv-x="1140" d="M109 459q0 57 6 131q6 63 22 153q74 375 219 557q147 184 379 185q186 0 275 -117q90 -119 90 -340q0 -72 -8 -145q-10 -92 -27 -174q-37 -188 -92 -328q-55 -138 -129 -227q-74 -88 -168 -131q-95 -43 -209 -43q-83 0 -148 30q-72 35 -112 88q-51 68 -74 150 q-24 88 -24 211zM367 399q0 -61 10 -112q8 -45 26 -72q18 -29 43 -41q20 -10 56 -10q39 0 80 22.5t73 75.5q31 51 64 148q27 80 53 233h-379q-16 -86 -20 -131q-6 -68 -6 -113zM430 834h379q14 74 22 120q8 55 9 109q0 127 -39 180q-39 55 -103 55q-45 0 -80 -20 q-37 -20 -71 -76q-37 -57 -64 -143q-28 -96 -53 -225z" />
<glyph unicode="&#x3b9;" horiz-adv-x="567" d="M68 125q0 37 2 57q4 37 8 54l166 845h280l-166 -854q-4 -25 -4 -41q0 -8 -1 -21t-1 -20q0 -90 41 -145h-299q-8 14 -18 51q-8 31 -8 74z" />
<glyph unicode="&#x3ba;" horiz-adv-x="1157" d="M37 0l211 1081h280l-102 -520l506 520h303l-471 -460l276 -621h-286l-191 438l-176 -112l-70 -326h-280z" />
<glyph unicode="&#x3bb;" d="M-92 0l678 1020l-13 74q-23 100 -26 114q-12 46 -31 74q-16 25 -41 39q-18 10 -55 10q-12 0 -45 -4q-23 -2 -45 -12l-27 192q31 10 84 21q47 8 109 8q84 0 137 -20q55 -22 92 -68q41 -53 61 -117q20 -70 37 -170l183 -1161h-283l-47 463l-6 59q0 12 -3 38t-5 40 q-4 41 -7 80q-4 49 -4 61q-16 -39 -33 -67q-20 -41 -45 -84l-51 -88l-43 -74l-266 -428h-305z" />
<glyph unicode="&#x3bc;" horiz-adv-x="1234" d="M-47 -424l291 1505h280l-116 -604q-8 -47 -11 -63q-4 -41 -4 -56q0 -80 33 -120q35 -45 111 -45q49 0 94 22q39 20 80 64q35 37 63 98q25 51 41 127l113 577h280l-161 -839q-2 -10 -7.5 -34t-7.5 -36t-5 -34.5t-5 -35.5q-2 -18 -5 -34.5t-5 -26.5q-4 -37 -4 -41h-269 q0 20 2 35q4 29 7 47l6 53q2 10 5 27.5t3 21.5h-2q-59 -98 -127 -151q-70 -53 -154 -53q-57 0 -96 24q-41 25 -55 66h-6q-3 -28 -7 -43q-2 -10 -2 -27q0 -4 -1 -10t-1 -10.5t-3 -12.5t-3 -12l-72 -379h-280z" />
<glyph unicode="&#x3bd;" d="M104 1081h287l98 -841q92 115 140 180q68 96 106 172q43 84 68 176q23 82 22 195q0 27 -4 63q-2 18 -10 55h291q8 -25 12 -53q4 -37 4 -61q0 -82 -22 -168q-22 -83 -62 -166q-39 -82 -94 -164q-66 -98 -117 -162q-43 -53 -133 -155l-139 -152h-266z" />
<glyph unicode="&#x3be;" horiz-adv-x="919" d="M49 303q0 86 35 172q35 88 102 152q74 72 176.5 119t247.5 69v2q-47 2 -108 21q-45 14 -88 45q-39 29 -59.5 67.5t-20.5 89.5q0 61 26 103q29 45 72 73.5t103 47.5q66 20 118 28l2 8q-2 0 -18 -1t-29 -1q-10 0 -35.5 -1t-40.5 -1h-77q-14 0 -33 -1t-23 -1h-75l36 191h656 l-37 -187q-102 -12 -154 -22q-70 -14 -127 -43t-88 -66q-33 -39 -32 -98q0 -49 24 -76q29 -33 62 -47q35 -16 90 -26q8 -2 104 -13l-37 -190q-111 -12 -192 -33q-94 -23 -158 -57q-68 -37 -106.5 -94.5t-38.5 -143.5q0 -40 12 -67q12 -29 37 -48q20 -16 69 -36 q27 -12 105 -35q33 -10 98 -35q43 -16 88 -47q37 -27 64 -72q23 -39 22 -104q0 -51 -12 -97q-10 -35 -37 -90q-18 -37 -51 -84q-25 -35 -59 -73l-152 96q37 47 53 74q23 35 23 75q0 33 -17 56q-12 18 -47 39q-33 18 -69 30q-27 8 -93 25q-72 18 -112 35q-49 20 -98 57 q-47 37 -74 88t-27 127z" />
<glyph unicode="&#x3bf;" horiz-adv-x="1249" d="M63 420q0 158 46 280q45 125 133 215q84 88 202 138q117 49 261 49q115 0 207 -29t151 -82t90 -131q33 -82 33 -178q0 -164 -49 -293q-47 -125 -138 -221q-84 -90 -204 -139q-119 -49 -260 -49q-106 0 -193 30q-90 33 -149 86q-63 57 -96.5 137.5t-33.5 186.5zM358 430 q0 -76 14.5 -121t45.5 -80q27 -31 65 -43q43 -14 82 -14q43 0 90 10q45 10 84 43t72 92q37 68 57 162q6 29 17 96l6 87q0 70 -14 112q-16 51 -41 78t-66 43q-37 14 -88 14q-37 0 -88 -10q-43 -8 -86 -45t-74 -92q-35 -61 -55 -162q-14 -55 -17 -90q-4 -57 -4 -80z" />
<glyph unicode="&#x3c0;" horiz-adv-x="1456" d="M68 0l69 158q33 74 70 174q33 90 63 196q33 113 56 232l26 133q-27 0 -76 -4t-69 -8q-41 -8 -57 -13q-2 0 -37 -14l39 199q20 8 34 12q16 4 50 8l53 6q18 2 51 2h1139l-37 -188h-234l-110 -563q-6 -35 -6 -60q0 -49 22.5 -71.5t67.5 -22.5q2 0 9 1t13 1q10 0 31 4 q6 2 14 2t15 2q20 4 22 4l-33 -184q-6 -2 -20 -4t-23 -4q-29 -8 -55 -10l-55 -6q-18 -2 -51 -2q-61 0 -106.5 18t-76.5 49q-25 25 -43 76q-14 41 -14 96q0 35 2 57q2 29 10 64l107 553h-301l-25 -125q-27 -137 -55 -240q-45 -158 -60 -200q-31 -90 -65 -174 q-33 -80 -68 -154h-286z" />
<glyph unicode="&#x3c1;" horiz-adv-x="1239" d="M-47 -426l194 1008q20 115 66 213q45 100 110.5 165.5t166 104.5t227.5 39q96 0 188 -33q82 -29 146 -90q59 -57 94 -147q33 -86 33 -201q0 -129 -39 -256q-37 -119 -107 -207q-72 -90 -170 -139q-102 -51 -221 -51q-106 0 -174 36q-70 39 -115 101h-4q-4 -31 -8 -58 q-2 -18 -10 -59l-82 -426h-295zM387 291q37 -55 96 -86q58 -31 123 -31q63 0 119 39q51 37 88 100.5t55 149.5q18 82 19 174q0 74 -15 123q-14 51 -38.5 84t-59.5 49q-37 16 -74 16q-53 0 -98 -22q-39 -20 -74 -68q-35 -49 -55 -106q-22 -61 -37 -142z" />
<glyph unicode="&#x3c2;" horiz-adv-x="1089" d="M76 334q0 72 18 153q16 72 58 168q33 78 94 166q55 80 131 144q78 66 166 100q96 39 200 39q125 0 207 -43q86 -45 135 -115l-161 -141q-20 25 -33 37q-20 20 -43 35q-31 18 -53 26q-31 10 -64 10q-51 0 -108 -26q-51 -25 -95 -68q-33 -33 -73 -96q-35 -53 -56 -107 q-23 -59 -34 -106q-12 -49 -13 -86q0 -47 10 -74q12 -29 41 -55q20 -18 74 -43q29 -14 119 -41q41 -12 113 -37q57 -18 106 -51t78 -76q31 -47 31 -113q0 -52 -13 -98q-10 -35 -37 -90q-20 -41 -53 -80q-41 -49 -61 -67l-154 96q4 4 10.5 13t14.5 18q18 20 26 36 q10 18 21 45q8 23 8 49.5t-16 49.5q-12 18 -49 35q-47 20 -86 32q-68 20 -125 35q-92 25 -142 47q-70 31 -106 66q-43 39 -64 90q-22 55 -22 123z" />
<glyph unicode="&#x3c3;" horiz-adv-x="1357" d="M63 412q0 20 5 77q2 29 14 82q31 143 104 242q78 102 172 158q111 63 224 86q123 25 256 24h585l-37 -188h-133h-34q-6 0 -22.5 1t-27.5 1q-14 0 -26.5 1t-26.5 1h-49l-2 -2q0 -2 35 -64q18 -33 30 -71q10 -29 21 -80q8 -39 8 -88q0 -127 -37 -238q-35 -106 -116 -194 q-74 -80 -195 -131q-117 -49 -279 -49q-117 0 -202 30q-88 31 -148 88q-57 53 -88 135q-31 81 -31 179zM356 426q0 -117 54 -186q52 -68 153 -68q88 0 149.5 37t98.5 100q39 68 53 154q16 94 17 196q0 63 -11 129q-10 70 -22 105h-72q-71 0 -135 -19q-68 -20 -121 -57 q-49 -37 -92 -104q-39 -63 -57 -158q-8 -43 -11 -68q-4 -41 -4 -61z" />
<glyph unicode="&#x3c4;" horiz-adv-x="835" d="M57 854l39 199q20 8 34.5 12t47.5 8t51.5 6t49.5 2h645l-37 -188h-275l-108 -563q-6 -35 -6 -60q0 -49 22.5 -71.5t67.5 -22.5q2 0 9 1t13 1q10 0 31 4q6 2 14.5 2t14.5 2q20 4 22 4l-33 -184q-6 -2 -20 -4t-23 -4q-29 -8 -55 -10l-55 -6q-18 -2 -51 -2q-61 0 -106.5 18 t-76.5 49q-25 25 -43 76q-14 41 -14 96q0 35 2 57q2 29 10 64l107 553h-23q-25 0 -78 -4t-75.5 -8t-59.5 -13q-12 -2 -41 -14z" />
<glyph unicode="&#x3c5;" horiz-adv-x="1210" d="M102 338v37q0 12 4 41q0 6 1.5 19.5t3.5 19.5q0 6 1 16t3 14l118 596h279l-115 -575q-10 -61 -12 -76q-2 -27 -2 -72q0 -78 41 -125t127 -47q57 0 106 27q46 25 80 68q29 37 54 102q18 53 32 123q14 72 17 135q4 94 4 137q0 115 -15 185q-18 88 -28 118h284 q14 -45 27 -120q12 -74 12 -162q0 -109 -14 -203q-16 -104 -45 -193q-31 -90 -80 -167q-57 -90 -113 -136q-72 -59 -153 -88q-92 -33 -195 -32q-98 0 -178 22q-74 20 -131 65.5t-84 110.5q-29 70 -29 160z" />
<glyph unicode="&#x3c6;" horiz-adv-x="1439" d="M63 434q0 150 39 260q43 123 111 199q78 86 178 137q111 55 240 76l-15 -178q-63 -14 -116 -60q-51 -41 -90 -110q-33 -57 -58 -152q-20 -80 -20 -178q0 -117 47 -186q47 -68 137 -74l105 534q37 197 139 299.5t266 102.5q86 0 148 -27q65 -28 110 -80q45 -51 70 -123 q25 -71 24 -159q0 -172 -43 -307q-43 -139 -129 -230q-90 -96 -207 -143q-125 -51 -280 -53l-80 -408h-238l78 406q-89 3 -166 36q-76 33 -131 93q-59 61 -88 141q-31 82 -31 184zM754 166q102 10 170 55q68 47 110 119q43 76 62 166q16 84 16 203q0 61 -4 88q-6 47 -16 69 q-10 27 -31 47q-16 16 -47 17q-29 0 -53 -12q-20 -10 -41 -41t-35 -72q-14 -39 -27 -107z" />
<glyph unicode="&#x3c7;" horiz-adv-x="1181" d="M-180 -426l612 832l-72 241q-16 61 -41 125q-23 59 -34 78q-20 31 -37 39q-20 10 -47 10q-39 0 -84 -16l12 194q14 6 80 19q41 8 96 8q47 0 94 -14q45 -14 76 -54q33 -41 64 -118q27 -68 63 -207l25 -95l16 33l12.5 21.5l12.5 21.5q20 37 22 41q12 20 23 35l211 313h307 l-510 -690l254 -817h-281l-164 625l-36 -68l-33 -57q-20 -33 -33 -51l-299 -449h-309z" />
<glyph unicode="&#x3c8;" horiz-adv-x="1581" d="M98 375q0 43 6 92q4 39 17 96l100 518h277l-113 -581q-4 -16 -8 -58q-4 -37 -4 -53q0 -39 10 -84q8 -35 34.5 -65.5t65.5 -44.5q47 -18 99 -19l225 1163h258l-227 -1163q76 0 131 17q51 16 88 51q39 39 59 92q25 63 39 137l119 608h274l-121 -622q-25 -126 -67 -215 q-45 -92 -117 -150q-74 -59 -180 -86q-111 -29 -260 -28l-80 -406h-258l78 406q-445 18 -445 395z" />
<glyph unicode="&#x3c9;" horiz-adv-x="1708" d="M55 406q0 143 41 258q43 121 123 213t199 151q123 61 270 76l10 -184q-139 -25 -223 -121q-86 -98 -119 -250q-8 -35 -14 -80q-4 -27 -4 -74q0 -53 8 -88q12 -49 25 -69q18 -29 45 -43q29 -16 65 -17q84 0 137 78q55 80 87 219l49 225h258l-45 -206q-8 -31 -11 -64 q-4 -49 -4 -72q0 -39 9 -69q10 -37 26 -60q18 -25 41 -39t59 -14q51 0 93 23q43 23 69 65q27 41 49 107q16 47 35 139q8 51 10 70q4 45 5 65q0 98 -45.5 170t-139.5 98l56 191q98 -14 182 -60q82 -43 133 -104t80 -139q27 -74 26 -160q0 -25 -4 -78q-4 -41 -12 -78 q-29 -131 -76 -223t-116 -158q-66 -63 -150 -94q-82 -31 -176 -30q-70 0 -121 18q-49 16 -88 53q-37 35 -59 84q-27 61 -37 111h-4q-29 -66 -64 -111q-37 -49 -84 -84q-49 -35 -104 -53q-57 -18 -125 -18q-86 0 -156 28q-68 29 -114 84q-45 55 -70 133q-25 81 -25 181z" />
<glyph unicode="&#x3ca;" horiz-adv-x="567" d="M68 125q0 37 2 57q4 37 8 54l166 845h280l-166 -854q-4 -25 -4 -41q0 -8 -1 -21t-1 -20q0 -90 41 -145h-299q-8 14 -18 51q-8 31 -8 74zM80 1198l41 219h215l-43 -219h-213zM512 1198l43 219h217l-43 -219h-217z" />
<glyph unicode="&#x3cb;" horiz-adv-x="1210" d="M102 338v37q0 12 4 41q0 6 1.5 19.5t3.5 19.5q0 6 1 16t3 14l118 596h279l-115 -575q-10 -61 -12 -76q-2 -27 -2 -72q0 -78 41 -125t127 -47q57 0 106 27q46 25 80 68q29 37 54 102q18 53 32 123q14 72 17 135q4 94 4 137q0 115 -15 185q-18 88 -28 118h284 q14 -45 27 -120q12 -74 12 -162q0 -109 -14 -203q-16 -104 -45 -193q-31 -90 -80 -167q-57 -90 -113 -136q-72 -59 -153 -88q-92 -33 -195 -32q-98 0 -178 22q-74 20 -131 65.5t-84 110.5q-29 70 -29 160zM377 1198l41 219h215l-43 -219h-213zM809 1198l43 219h217l-43 -219 h-217z" />
<glyph unicode="&#x3cc;" horiz-adv-x="1249" d="M63 420q0 158 46 280q45 125 133 215q84 88 202 138q117 49 261 49q115 0 207 -29t151 -82t90 -131q33 -82 33 -178q0 -164 -49 -293q-47 -125 -138 -221q-84 -90 -204 -139q-119 -49 -260 -49q-106 0 -193 30q-90 33 -149 86q-63 57 -96.5 137.5t-33.5 186.5zM358 430 q0 -76 14.5 -121t45.5 -80q27 -31 65 -43q43 -14 82 -14q43 0 90 10q45 10 84 43t72 92q37 68 57 162q6 29 17 96l6 87q0 70 -14 112q-16 51 -41 78t-66 43q-37 14 -88 14q-37 0 -88 -10q-43 -8 -86 -45t-74 -92q-35 -61 -55 -162q-14 -55 -17 -90q-4 -57 -4 -80zM652 1184 l6 33l125 290h258l-8 -37l-277 -286h-104z" />
<glyph unicode="&#x3cd;" horiz-adv-x="1210" d="M102 338v37q0 12 4 41q0 6 1.5 19.5t3.5 19.5q0 6 1 16t3 14l118 596h279l-115 -575q-10 -61 -12 -76q-2 -27 -2 -72q0 -78 41 -125t127 -47q57 0 106 27q46 25 80 68q29 37 54 102q18 53 32 123q14 72 17 135q4 94 4 137q0 115 -15 185q-18 88 -28 118h284 q14 -45 27 -120q12 -74 12 -162q0 -109 -14 -203q-16 -104 -45 -193q-31 -90 -80 -167q-57 -90 -113 -136q-72 -59 -153 -88q-92 -33 -195 -32q-98 0 -178 22q-74 20 -131 65.5t-84 110.5q-29 70 -29 160zM605 1184l6 33l125 290h258l-8 -37l-277 -286h-104z" />
<glyph unicode="&#x3ce;" horiz-adv-x="1708" d="M55 406q0 143 41 258q43 121 123 213t199 151q123 61 270 76l10 -184q-139 -25 -223 -121q-86 -98 -119 -250q-8 -35 -14 -80q-4 -27 -4 -74q0 -53 8 -88q12 -49 25 -69q18 -29 45 -43q29 -16 65 -17q84 0 137 78q55 80 87 219l49 225h258l-45 -206q-8 -31 -11 -64 q-4 -49 -4 -72q0 -39 9 -69q10 -37 26 -60q18 -25 41 -39t59 -14q51 0 93 23q43 23 69 65q27 41 49 107q16 47 35 139q8 51 10 70q4 45 5 65q0 98 -45.5 170t-139.5 98l56 191q98 -14 182 -60q82 -43 133 -104t80 -139q27 -74 26 -160q0 -25 -4 -78q-4 -41 -12 -78 q-29 -131 -76 -223t-116 -158q-66 -63 -150 -94q-82 -31 -176 -30q-70 0 -121 18q-49 16 -88 53q-37 35 -59 84q-27 61 -37 111h-4q-29 -66 -64 -111q-37 -49 -84 -84q-49 -35 -104 -53q-57 -18 -125 -18q-86 0 -156 28q-68 29 -114 84q-45 55 -70 133q-25 81 -25 181z M889 1184l6 33l125 290h258l-8 -37l-277 -286h-104z" />
<glyph unicode="&#x401;" horiz-adv-x="1363" d="M37 0l272 1409h1108l-45 -227h-813l-67 -355h751l-45 -229h-752l-71 -371h854l-45 -227h-1147z" />
<glyph unicode="&#x402;" horiz-adv-x="1812" d="M145 1182l43 227h1207l-43 -227h-457l-66 -336q31 12 91 33q39 14 114 32q80 20 131 27q78 10 146 10q195 0 299 -74q102 -72 102 -231q0 -25 -2 -41l-6 -55q0 -10 -4 -28.5t-4 -26.5l-5 -25.5t-3 -22.5q-27 -121 -66 -215q-35 -86 -96.5 -143t-145.5 -82 q-86 -25 -206 -24q-72 0 -132 12q-55 12 -104 34.5t-82 55.5q-35 35 -61 76l225 164q25 -35 31 -41q25 -25 39 -35q18 -12 53 -25q25 -8 65 -8q45 0 78 16q37 18 55 47q27 41 39 82q20 61 29 111q4 27 10 59q4 20 4 56q0 70 -57 106q-59 37 -180 37q-53 0 -109 -6 q-37 -4 -106 -16q-57 -10 -97 -21q-68 -18 -79 -22l-129 -662h-295l229 1182h-455z" />
<glyph unicode="&#x403;" horiz-adv-x="1255" d="M645 1530l9 31l270 247h266l-10 -43l-385 -235h-150zM37 0l272 1409h1024l-45 -227h-729l-227 -1182h-295z" />
<glyph unicode="&#x404;" horiz-adv-x="1470" d="M100 569q0 115 27 236q25 113 74 207q47 92 123 174q68 74 163 131q86 51 203 84q102 29 238 29q137 0 235 -31q102 -33 168 -86q74 -61 111 -125q39 -70 61 -150l-274 -71q-12 43 -37 86q-20 37 -62 73q-33 31 -92 52q-57 20 -120 20q-88 0 -173 -27q-76 -25 -137 -73.5 t-104 -116.5q-47 -76 -70 -152h543l-45 -229h-531v-27q0 -88 21 -151q23 -72 63 -115q45 -49 103 -71q61 -25 143 -25q80 0 141 20q68 23 117 58t90 82q37 43 70 98l227 -117q-45 -80 -102 -143q-66 -72 -141 -119q-78 -47 -187 -80q-104 -31 -235 -30q-154 0 -273 47 t-190 125q-74 80 -111 186q-37 108 -37 231z" />
<glyph unicode="&#x405;" horiz-adv-x="1363" d="M25 365l288 49q8 -49 33 -95q18 -35 60 -65q39 -29 90 -41q53 -12 125 -12q68 0 139 10q63 8 108 33q47 25 72 61.5t25 93.5q0 46 -19 80q-16 31 -57 58q-37 25 -92 43q-80 27 -129 38q-88 23 -176 56q-82 31 -146 78q-55 41 -96 116q-37 68 -37 168q0 98 45 170 q46 74 123 123q82 51 182 76q104 25 223 25q127 0 226 -25q102 -25 168 -68q66 -41 108 -108q43 -66 58 -137l-289 -68q-23 90 -96 143q-76 53 -191 54q-66 0 -115 -13q-43 -10 -84 -37q-29 -18 -51 -55q-16 -27 -16 -69.5t22 -75.5q20 -29 62 -51q37 -20 94 -39 q16 -6 36.5 -11.5l46.5 -12.5l40 -11l104 -31q41 -12 103 -39q51 -23 94 -53q45 -33 78 -74t51 -98q18 -55 18 -127q0 -109 -39 -188q-37 -78 -120 -140q-72 -53 -205 -86q-123 -31 -289 -30q-137 0 -238 24q-106 27 -172 72q-70 49 -110 121q-39 70 -55 168z" />
<glyph unicode="&#x406;" horiz-adv-x="567" d="M37 0l272 1409h295l-274 -1409h-293z" />
<glyph unicode="&#x407;" horiz-adv-x="567" d="M37 0l272 1409h295l-274 -1409h-293zM151 1530l41 219h215l-43 -219h-213zM583 1530l43 219h217l-43 -219h-217z" />
<glyph unicode="&#x408;" d="M25 379l268 57q6 -33 26 -90q12 -37 41 -72q23 -29 58 -47q31 -16 82 -16q49 0 82 18q31 16 55 52q23 33 35 73q10 39 20 86l144 738h-281l43 231h576l-193 -985q-20 -106 -59 -193q-37 -84 -99 -139q-66 -59 -143 -84q-90 -29 -201 -28q-102 0 -182 28q-78 29 -133 80 t-88 125q-33 70 -51 166z" />
<glyph unicode="&#x409;" horiz-adv-x="2240" d="M-123 0l47 248q2 0 6 -1t10.5 -2t10.5 -1q12 -2 29 -2q20 0 45 10q18 8 43 39q27 33 47 76q33 66 57 127q6 14 70 186q68 190 90 256l157 473h908l-111 -561h375q111 0 203 -25q88 -25 157 -73q68 -49 105 -121q37 -71 37 -166q0 -113 -43 -199q-45 -90 -121 -145 q-78 -55 -195 -88q-113 -31 -256 -31h-721l226 1165h-351l-114 -348l-101 -285q-59 -156 -86 -215q-45 -96 -86 -157q-43 -63 -90 -102.5t-104 -57.5q-49 -16 -129 -16q-37 0 -68 6q-41 8 -47 10zM1167 229h392q59 0 124 15q55 12 94.5 38.5t60 65.5t20.5 92q0 89 -62 135 q-59 45 -199 46h-354z" />
<glyph unicode="&#x40a;" horiz-adv-x="2131" d="M37 0l272 1409h295l-108 -561h467l108 561h295l-109 -561h295q111 0 203 -25q88 -25 158 -73q68 -49 104 -121q37 -71 37 -166q0 -113 -43 -199q-45 -90 -121 -145q-78 -57 -192 -88t-258 -31h-641l116 604h-466l-117 -604h-295zM1139 229h311q61 0 125 15q55 12 94 38.5 t59.5 65.5t20.5 92q0 89 -61 135q-59 45 -199 46h-275z" />
<glyph unicode="&#x40b;" horiz-adv-x="1746" d="M145 1182l43 227h1207l-43 -227h-457l-61 -320q61 23 84 29q29 10 94 26.5t102 20.5q55 6 113 6q195 0 297 -92t102 -281q0 -18 -4 -75q0 -8 -12 -78l-80 -418h-285l80 414q8 35 10 63q4 45 4 68q0 88 -53 135q-51 45 -166 45q-90 0 -170 -14q-86 -15 -153 -37l-131 -674 h-295l229 1182h-455z" />
<glyph unicode="&#x40c;" horiz-adv-x="1273" d="M37 0l272 1409h295l-117 -598q28 0 56 12q25 10 65 45q37 31 82 82l111 129l266 330h309l-336 -426q-35 -45 -65 -78q-23 -25 -62 -63q-8 -8 -51 -45q-25 -23 -37 -29l318 -768h-314l-239 639q-12 -6 -31 -12q-6 -2 -19.5 -5.5t-19.5 -5.5q-14 -4 -38.5 -8t-35.5 -4 l-116 -604h-293zM704 1530l9 31l270 247h266l-10 -43l-385 -235h-150z" />
<glyph unicode="&#x40e;" horiz-adv-x="1386" d="M55 55l117 232q29 -16 70 -31q34 -12 73 -12q31 0 66 10q29 8 63 33q29 20 64 61q31 37 67 92l25 37l-375 932h297l256 -680l430 680h310l-738 -1092q-45 -68 -110 -147q-49 -59 -109 -107q-53 -41 -121 -63q-61 -20 -147 -20q-72 0 -133 22q-56 20 -105 53zM508 1774 l192 74q23 -51 39 -78q27 -41 47 -60q28 -25 62 -37q39 -14 73 -14q59 0 98.5 16.5t75.5 47.5q35 29 60 65q12 18 41 76l112 -49q-31 -74 -65 -123q-41 -57 -90 -94q-51 -39 -119 -61.5t-145 -22.5q-145 0 -235.5 63.5t-145.5 196.5z" />
<glyph unicode="&#x40f;" horiz-adv-x="1472" d="M35 0l274 1409h295l-225 -1165h616l226 1165h284l-272 -1409h-473l-80 -408h-250l80 408h-475z" />
<glyph unicode="&#x410;" horiz-adv-x="1478" d="M-43 0l788 1409h349l237 -1409h-293l-55 360h-537l-194 -360h-295zM565 582h396l-66 452q0 4 -2 14.5t-4 22.5q0 10 -2 22.5l-4 24.5q0 8 -1 21.5t-3 21.5q-2 14 -2 31q0 -4 -3.5 -9t-6.5 -13.5l-5 -14.5t-24 -53q-12 -31 -29 -64q-2 -4 -31 -57z" />
<glyph unicode="&#x411;" horiz-adv-x="1449" d="M37 0l272 1409h1059l-45 -227h-764l-63 -334h372q111 0 203 -25q88 -25 158 -73q68 -49 104 -121q37 -71 37 -166q0 -113 -43 -199q-45 -90 -121 -145q-78 -57 -192 -88t-258 -31h-719zM375 229h391q61 0 125 15q55 12 94 38.5t59 65.5q23 41 23 92q0 88 -63 135 q-59 45 -199 46h-354z" />
<glyph unicode="&#x412;" horiz-adv-x="1478" d="M37 0l272 1409h586q125 0 225 -23q98 -23 159.5 -63.5t92.5 -102t31 -137.5q0 -70 -23 -131q-20 -55 -65 -100q-43 -43 -103 -70q-72 -33 -133 -45q72 -12 125 -39q47 -25 90 -69q37 -39 56 -90q18 -49 18 -109q0 -121 -51 -207q-49 -84 -135 -133q-82 -47 -201 -70 q-109 -20 -240 -20h-704zM373 219h327q88 0 166 10q66 8 115 35q46 25 68 68q23 45 22 104q0 90 -67 139q-66 47 -222 48h-329zM494 842h294q96 0 148 10q66 12 100.5 34.5t55.5 61.5q18 37 18 90q0 41 -16 74q-12 25 -50 47q-31 18 -77 25q-46 6 -105 6h-301z" />
<glyph unicode="&#x413;" horiz-adv-x="1255" d="M37 0l272 1409h1024l-45 -227h-729l-227 -1182h-295z" />
<glyph unicode="&#x414;" horiz-adv-x="1478" d="M-145 -408l127 652h155q46 61 92 141l95 174q37 74 88 195q29 68 77 211l148 444h788l-225 -1165h184l-127 -652h-249l79 408h-905l-78 -408h-249zM446 244h469l179 921h-263l-75 -233q-31 -95 -68 -191q-49 -127 -76 -186q-57 -129 -80 -170q-43 -80 -86 -141z" />
<glyph unicode="&#x415;" horiz-adv-x="1363" d="M37 0l272 1409h1108l-45 -227h-813l-67 -355h751l-45 -229h-752l-71 -371h854l-45 -227h-1147z" />
<glyph unicode="&#x416;" horiz-adv-x="1898" d="M-86 0l600 772q-10 10 -22 35l-27 55l-31 68q-23 51 -31 71l-172 408h289l125 -324q31 -80 60 -139q27 -55 49 -83.5t47 -41.5q20 -10 51 -10l117 598h272l-115 -598q25 0 54 12q18 8 59 45q43 39 80 84q45 53 106 133l254 324h312l-326 -408l-57 -71l-60 -66 q-29 -31 -53 -53q-27 -23 -39 -31l303 -780h-305l-223 639q-8 -4 -33 -12q-6 -2 -19.5 -5.5t-19.5 -5.5q-14 -4 -38.5 -8t-35.5 -4l-116 -604h-275l119 604q-20 0 -61 8q-31 6 -54 23l-469 -635h-315z" />
<glyph unicode="&#x417;" horiz-adv-x="1314" d="M27 369l270 90q23 -70 43 -105q27 -45 65.5 -77.5t90.5 -51.5q47 -16 118 -16q68 0 111 10q51 12 88 37q39 27 59 68q23 45 23 100q0 82 -74 131q-72 47 -223 47h-59l45 227h59q84 0 135 11q53 10 107 39q45 25 69 67q27 47 27 105q0 74 -53 116q-55 45 -148 45 q-117 0 -198 -59q-78 -57 -129 -172l-256 76q41 98 94 168q51 63 131 114q74 45 170 68q100 23 213 23q109 0 201 -27q90 -27 145 -70q61 -47 90 -106q31 -61 31 -135q0 -82 -25 -144q-27 -66 -69 -108q-45 -45 -109 -76q-59 -29 -145 -45q59 -10 102 -33q51 -27 82 -63 q35 -41 55.5 -90.5t20.5 -112.5q0 -100 -37 -180t-109 -138q-74 -59 -186 -90q-119 -33 -262 -32q-123 0 -221 28q-94 27 -160 78q-68 52 -111 123q-42 72 -71 160z" />
<glyph unicode="&#x418;" horiz-adv-x="1472" d="M37 0l272 1409h262l-159 -819l-21 -98l-18 -89q-6 -25 -12.5 -46t-10.5 -42l826 1094h331l-272 -1409h-262l162 831q4 16 6 29.5t4 25t6 29.5q10 43 18 82q14 51 23 88l-821 -1085h-334z" />
<glyph unicode="&#x419;" horiz-adv-x="1472" d="M37 0l272 1409h262l-159 -819l-21 -98l-18 -89q-6 -25 -12.5 -46t-10.5 -42l826 1094h331l-272 -1409h-262l162 831q4 16 6 29.5t4 25t6 29.5q10 43 18 82q14 51 23 88l-821 -1085h-334zM551 1774l192 74q23 -51 39 -78q27 -41 47 -60q28 -25 62 -37q39 -14 73 -14 q59 0 98.5 16.5t75.5 47.5q35 29 60 65q12 18 41 76l112 -49q-31 -74 -65 -123q-41 -57 -90 -94q-51 -39 -119 -61.5t-145 -22.5q-145 0 -235.5 63.5t-145.5 196.5z" />
<glyph unicode="&#x41a;" horiz-adv-x="1257" d="M37 0l272 1409h295l-117 -598q28 0 56 12q25 10 65 45q37 31 82 82l111 129l266 330h309l-336 -426q-35 -45 -65 -78q-23 -25 -62 -63q-8 -8 -51 -45q-25 -23 -37 -29l318 -768h-314l-239 639q-12 -6 -31 -12q-6 -2 -19.5 -5.5t-19.5 -5.5q-14 -4 -38.5 -8t-35.5 -4 l-116 -604h-293z" />
<glyph unicode="&#x41b;" horiz-adv-x="1406" d="M-123 0l47 248q2 0 6 -1t10.5 -2t10.5 -1q12 -2 29 -2q20 0 45 10q18 8 43 39q27 33 47 76q33 66 57 127q6 14 70 186q68 190 90 256l157 473h953l-275 -1409h-282l225 1165h-408l-114 -348l-101 -285q-59 -156 -86 -215q-45 -96 -86 -157q-43 -63 -90 -102.5t-104 -57.5 q-49 -16 -129 -16q-37 0 -68 6q-41 8 -47 10z" />
<glyph unicode="&#x41c;" horiz-adv-x="1705" d="M37 0l272 1409h396l88 -788q0 -2 3 -31l5 -47l8 -90q4 -74 8 -109l49 107l43 90l37 75l404 793h393l-275 -1409h-262l172 885l25 110l22 105q6 31 14.5 58.5t12.5 47.5l-70 -151q-6 -12 -13 -28.5l-15 -35.5l-31 -65l-29 -60q-16 -37 -24 -51l-414 -815h-209l-94 819 q-2 18 -4 45q-2 14 -4 29.5t-4 28.5q-2 16 -3 31.5t-3 31.5q-4 31 -7 66l-8 82t-8 73l-12 -121q0 -10 -1 -17t-3 -15.5t-4 -18.5q-2 -14 -3.5 -26.5t-3.5 -26.5q-2 -8 -4 -24.5t-4 -24.5t-5 -23.5t-3 -21.5l-170 -887h-262z" />
<glyph unicode="&#x41d;" horiz-adv-x="1478" d="M37 0l272 1409h295l-108 -561h624l111 561h282l-274 -1409h-283l117 604h-624l-119 -604h-293z" />
<glyph unicode="&#x41e;" horiz-adv-x="1591" d="M100 573q0 29 4 95q2 29 15 96q29 143 100 272q70 127 172 211q113 92 238 135q137 47 299 48q147 0 266 -41q115 -39 197 -115t125 -182q43 -108 43 -240q0 -68 -4.5 -102.5t-16.5 -100.5q-33 -160 -100 -278q-72 -125 -174 -209q-111 -92 -240 -135q-137 -47 -297 -47 q-154 0 -270.5 43t-196.5 122q-78 78 -119 188.5t-41 239.5zM399 582q0 -182 90 -277q88 -92 252 -92q117 0 193 31q86 35 145 94q63 63 103 147q39 86 61 195q8 47 10 78q2 27 2 69q0 94 -24 162q-25 70 -68 115q-45 49 -108 70q-68 23 -142 22q-108 0 -190 -31 q-84 -31 -145 -92q-63 -63 -102.5 -147t-61.5 -199q-8 -49 -11 -74q-4 -48 -4 -71z" />
<glyph unicode="&#x41f;" horiz-adv-x="1472" d="M37 0l272 1409h1198l-272 -1409h-287l228 1165h-621l-225 -1165h-293z" />
<glyph unicode="&#x420;" horiz-adv-x="1363" d="M37 0l272 1409h541q123 0 221 -29q92 -27 162 -84q68 -55 102 -133q33 -74 33 -176q0 -115 -39 -205q-39 -88 -115 -155q-70 -61 -178 -96t-231 -35h-377l-98 -496h-293zM471 723h289q158 0 233.5 57.5t75.5 190.5q0 59 -16 94q-20 43 -52 65q-34 25 -79 37t-101 13h-262 z" />
<glyph unicode="&#x421;" horiz-adv-x="1478" d="M100 569q0 115 27 236q25 113 74 207q47 92 123 174q68 74 163 131q86 51 203 84q102 29 238 29q137 0 235 -31q102 -33 168 -86q74 -61 111 -125q39 -70 61 -150l-274 -71q-12 43 -37 86q-20 37 -62 73q-33 31 -92 52q-57 20 -120 20q-129 0 -222 -45 q-102 -49 -164 -129q-65 -83 -98 -197q-33 -111 -33 -254q0 -88 21 -151q23 -72 63 -115q45 -49 103 -71q61 -25 143 -25q80 0 141 20q68 23 117 58t90 82q37 43 70 98l227 -117q-45 -80 -102 -143q-66 -72 -141 -119q-78 -47 -187 -80q-104 -31 -235 -30q-154 0 -273 47 t-190 125q-74 80 -111 186q-37 108 -37 231z" />
<glyph unicode="&#x422;" horiz-adv-x="1249" d="M145 1182l43 227h1207l-43 -227h-457l-229 -1182h-295l229 1182h-455z" />
<glyph unicode="&#x423;" horiz-adv-x="1386" d="M55 55l117 232q29 -16 70 -31q34 -12 73 -12q31 0 66 10q29 8 63 33q29 20 64 61q31 37 67 92l25 37l-375 932h297l256 -680l430 680h310l-738 -1092q-45 -68 -110 -147q-49 -59 -109 -107q-53 -41 -121 -63q-61 -20 -147 -20q-72 0 -133 22q-56 20 -105 53z" />
<glyph unicode="&#x424;" horiz-adv-x="1597" d="M78 651q0 152 49 267q53 121 135 192q88 76 213 113q133 39 281 39h47l28 157h271l-31 -157h45q117 0 207 -37q88 -37 147.5 -98.5t90.5 -149.5q31 -86 30 -184q0 -145 -45 -254q-49 -117 -131 -191q-86 -78 -209 -119q-121 -41 -284 -41h-60l-37 -198h-270l39 198h-55 q-102 0 -186.5 33t-145.5 94q-63 63 -96 146q-33 84 -33 190zM369 662q0 -45 14 -103q12 -47 41 -86q27 -35 67.5 -55.5t98.5 -20.5h45l127 656h-25q-70 0 -147 -25q-63 -20 -117 -70q-47 -45 -75.5 -120.5t-28.5 -175.5zM903 397h33q76 0 149 27q61 23 115 76q45 45 74 123 q27 72 26 165q0 61 -14 107q-14 47 -45 84q-29 35 -72 53q-47 20 -98 21h-41z" />
<glyph unicode="&#x425;" horiz-adv-x="1363" d="M-94 0l651 735l-338 674h309l226 -471l401 471h313l-600 -678l367 -731h-307l-252 532l-457 -532h-313z" />
<glyph unicode="&#x426;" horiz-adv-x="1492" d="M37 0l272 1409h295l-225 -1165h569l226 1165h284l-225 -1165h194l-127 -652h-249l79 408h-1093z" />
<glyph unicode="&#x427;" horiz-adv-x="1449" d="M176 846q0 12 3 37.5t3 34.5q2 23 11 73l81 418h283l-80 -414q-4 -20 -8 -61q-4 -45 -4 -55q0 -98 59 -148q58 -49 185 -49q86 0 184 16q96 16 168 37l129 674h295l-275 -1409h-295l109 547l-90 -29q-33 -10 -103 -26q-68 -16 -110 -21q-58 -6 -123 -6q-209 0 -313 96 q-109 99 -109 285z" />
<glyph unicode="&#x428;" horiz-adv-x="2004" d="M37 0l272 1409h285l-225 -1165h446l227 1165h275l-225 -1165h446l227 1165h275l-275 -1409h-1728z" />
<glyph unicode="&#x429;" horiz-adv-x="2023" d="M37 0l272 1409h285l-225 -1165h424l225 1165h274l-225 -1165h424l225 1165h277l-228 -1165h197l-127 -652h-252l80 408h-1626z" />
<glyph unicode="&#x42a;" horiz-adv-x="1748" d="M150 1182l43 227h749l-108 -561h333q111 0 203 -25q88 -25 158 -73q68 -49 104 -121q37 -71 37 -166q0 -113 -43 -199q-45 -90 -121 -145q-78 -57 -192 -88t-258 -31h-680l229 1182h-454zM715 229h350q61 0 125 15q55 12 94 38.5t59 65.5q23 41 23 92q0 88 -63 135 q-59 45 -199 46h-313z" />
<glyph unicode="&#x42b;" horiz-adv-x="2048" d="M37 0l272 1409h295l-108 -561h372q111 0 203 -25q88 -25 158 -73q68 -49 104 -121q37 -71 37 -166q0 -113 -43 -199q-45 -90 -121 -145q-78 -57 -192 -88t-258 -31h-719zM375 229h391q61 0 125 15q55 12 94 38.5t59 65.5q23 41 23 92q0 88 -63 135q-59 45 -199 46h-354z M1513 0l275 1409h295l-275 -1409h-295z" />
<glyph unicode="&#x42c;" horiz-adv-x="1449" d="M37 0l272 1409h295l-108 -561h372q111 0 203 -25q88 -25 158 -73q68 -49 104 -121q37 -71 37 -166q0 -113 -43 -199q-45 -90 -121 -145q-78 -57 -192 -88t-258 -31h-719zM375 229h391q61 0 125 15q55 12 94 38.5t59 65.5q23 41 23 92q0 88 -63 135q-59 45 -199 46h-354z " />
<glyph unicode="&#x42d;" horiz-adv-x="1470" d="M43 385l258 94q16 -47 51 -108q27 -47 70 -84q47 -39 94 -56q55 -18 125 -18q102 0 176 27q76 27 133 75q55 45 97 123q41 74 61 162h-559l45 229h545q4 16 4 29q0 4 1 15.5t1 17.5q0 145 -88 227q-86 80 -248 80q-84 0 -145 -20q-63 -20 -110.5 -53t-80.5 -74 q-33 -43 -51 -84l-242 71q37 82 99 160q55 70 139 125q80 53 186 80q104 27 242 27q147 0 260 -41q109 -39 184 -115q78 -78 113 -178q37 -104 37 -230q0 -190 -56 -352q-53 -156 -161 -281q-102 -117 -256 -186q-152 -68 -344 -67q-131 0 -226 30q-100 33 -166 84 q-71 55 -116 129q-41 66 -72 162z" />
<glyph unicode="&#x42e;" horiz-adv-x="2131" d="M35 0l272 1409h295l-108 -561h215q39 137 102 239q72 113 160 185q90 72 213 117q115 41 260 41q135 0 247.5 -41t186.5 -115q76 -74 115 -182q41 -111 41 -240q0 -49 -6 -102q-8 -63 -15 -101q-27 -152 -94 -278q-66 -125 -162 -209q-104 -90 -225 -135 q-129 -47 -277 -47q-144 0 -251 43q-109 43 -183 122q-76 82 -112 189q-37 108 -37 239v31h-226l-116 -604h-295zM971 582q0 -184 79.5 -276.5t223.5 -92.5q102 0 170 31q76 35 129 94q51 57 90 147q37 86 55 195q4 25 8 78q2 27 3 69q0 98 -21 162q-23 70 -61 115 q-43 49 -95 70q-57 23 -127 22q-94 0 -167.5 -30.5t-129 -92t-92.5 -147.5q-37 -84 -55 -199q-4 -25 -8 -74q-2 -24 -2 -71z" />
<glyph unicode="&#x42f;" horiz-adv-x="1492" d="M-43 0l475 592q-41 16 -82 45q-45 33 -79.5 76t-57.5 108q-25 70 -25 137q0 113 41 201q37 80 119 139q78 55 193 84q109 27 256 27h733l-275 -1409h-294l104 535h-356l-412 -535h-340zM487 954q0 -45 15 -75q18 -39 41 -60q29 -25 69 -41q37 -14 93 -14h405l80 416h-393 q-57 0 -123 -11q-55 -8 -99 -34q-39 -25 -65 -70q-23 -39 -23 -111z" />
<glyph unicode="&#x430;" d="M10 279q0 78 23 139q20 57 61 100q39 41 92 70q45 25 113 41q55 14 125 20q86 8 127 8l190 2l9 37l10 52q4 29 4 43q0 68 -35 98q-34 31 -92 31q-20 0 -62 -5q-29 -2 -57 -18q-31 -16 -51 -43q-23 -29 -35 -78l-262 33q14 68 51 121q35 51 94 92q53 37 140 59 q76 20 186 21q207 0 303 -74t96 -221q0 -35 -8 -74q-4 -20 -7 -41.5t-7 -42.5l-72 -352l-6 -37q-2 -12 -2 -34.5t10 -37.5q8 -12 23 -18q16 -8 26 -8q4 0 11.5 -1t9.5 -1q6 0 14 1t12 1q12 0 35 6l-14 -156q-43 -16 -84 -18q-57 -4 -88 -4q-100 0 -156 43q-53 41 -53 110v31 q0 12 4 33h-6q-31 -47 -68 -94q-29 -37 -77 -72q-39 -29 -97 -45q-55 -16 -123 -16q-77 0 -135 24q-59 25 -96 68q-41 49 -57 96q-19 56 -19 111zM297 326q0 -40 12 -68q14 -31 33 -47q23 -18 45 -27q25 -8 55 -8q29 0 66 12q41 14 70 37q31 27 63 74q29 41 47 113l23 92 h-162q-117 -3 -184.5 -49t-67.5 -129z" />
</font>
</defs>
</svg>
