<?xml version="1.0" standalone="no"?>
<!DOCTYPE svg PUBLIC "-//W3C//DTD SVG 1.1//EN" "http://www.w3.org/Graphics/SVG/1.1/DTD/svg11.dtd" >
<svg xmlns="http://www.w3.org/2000/svg">
<metadata>
This is a custom SVG webfont generated by Font Squirrel.
Copyright   : Digitized data  2007 Ascender Corporation All rights reserved
Designer    : Steve Matteson
Foundry     : Ascender Corporation
Foundry URL : httpwwwascendercorpcom
</metadata>
<defs>
<font id="webfontACOW9KVL" horiz-adv-x="1138" >
<font-face units-per-em="2048" ascent="1638" descent="-410" />
<missing-glyph horiz-adv-x="567" />
<glyph unicode=" "  horiz-adv-x="567" />
<glyph unicode="&#x09;" horiz-adv-x="567" />
<glyph unicode="&#xa0;" horiz-adv-x="567" />
<glyph unicode="!" horiz-adv-x="681" d="M193 0v270h288v-270h-288zM193 1409h294l-32 -983h-230z" />
<glyph unicode="&#x22;" horiz-adv-x="970" d="M135 1409h273l-27 -512h-219zM561 1409h275l-29 -512h-219z" />
<glyph unicode="#" d="M35 381v149h188l70 332h-207v148h238l84 385h153l-82 -385h307l84 385h156l-84 -385h164v-148h-197l-69 -332h215v-149h-246l-82 -381h-156l80 381h-307l-80 -381h-153l79 381h-155zM377 530h309l70 332h-307z" />
<glyph unicode="$" d="M27 408l256 47q8 -47 24 -88q16 -43 41 -68q31 -31 70 -47q43 -18 102 -25v391l-14 5q-8 2 -17 2q-92 23 -153 45q-80 31 -133 71q-59 47 -94 115q-37 70 -37 174q0 92 32 156q35 66 93 108q59 43 143 66q92 25 180 26v134h109v-134q104 -2 182 -28q76 -25 127 -68 q55 -45 84 -106q33 -70 53 -148l-264 -39q-14 86 -59 133.5t-123 59.5v-352q4 -2 10 -2q8 0 12 -2q106 -27 168 -48q88 -29 148 -71q66 -47 104.5 -119t38.5 -184q0 -80 -29 -154q-29 -72 -86 -121q-59 -49 -149 -80q-86 -29 -217 -34v-175h-109v172q-113 2 -198.5 31 t-143.5 76q-61 51 -96 119q-37 72 -55 162zM334 1034q0 -45 14 -71.5t39 -45t59 -30.5l74 -25v332q-51 -2 -88 -18q-39 -16 -57 -35q-25 -25 -33 -49.5t-8 -57.5zM629 227q104 6 164 49q57 43 57 132q0 53 -16 79q-20 33 -48 50q-37 23 -71 32l-86 25v-367z" />
<glyph unicode="%" horiz-adv-x="1820" d="M51 977q0 137 27 219q29 86 76 137q47 49 112 72q61 20 142 20q76 0 137 -20q63 -20 110 -71.5t76 -137.5q29 -90 29 -219q0 -121 -29 -211t-76 -139q-53 -55 -112 -76q-68 -23 -140 -23q-70 0 -137 23q-66 23 -112 76q-49 55 -76 139q-27 82 -27 211zM266 977 q0 -90 8 -139q10 -59 27 -90q18 -34 43 -50q23 -14 62 -14q37 0 59 14q27 16 43 47t27 91q8 49 8 141q0 94 -8 143q-10 66 -25 90q-18 35 -43 47.5t-59 12.5q-37 0 -64 -15q-29 -16 -45 -47q-14 -25 -25 -90q-8 -49 -8 -141zM346 0l920 1409h209l-922 -1409h-207zM1059 432 q0 129 28.5 219t73.5 137q45 49 115 72q61 20 141 21q74 0 135 -21q70 -23 113 -72q47 -53 74 -137q29 -90 28 -219q0 -121 -28.5 -211t-75.5 -139q-53 -55 -113 -76q-68 -23 -137 -22q-72 0 -139 22q-66 23 -113 76q-45 51 -74 139q-28 90 -28 211zM1276 432q0 -90 8 -139 q10 -66 25 -90q16 -29 45 -47q23 -14 61 -15q35 0 58 15q27 16 43 46.5t26 90.5q10 61 10 139q0 92 -8 143q-8 57 -26 91q-20 37 -41 47q-29 14 -60 14t-63 -14q-23 -10 -43 -47q-18 -33 -27 -91q-8 -51 -8 -143z" />
<glyph unicode="&#x26;" horiz-adv-x="1478" d="M90 385q0 78 25 143q23 59 71 115q45 51 107 94q57 41 135 76q-33 68 -53 139q-20 70 -20.5 139.5t20.5 125.5q25 70 63 104q49 47 117 70q76 27 176 26q72 0 148 -20q59 -16 114 -58q45 -33 74 -92q27 -53 27 -127q0 -76 -33 -129q-37 -59 -88 -102q-59 -51 -125 -84 l-146 -72q70 -119 111 -174q51 -70 133 -162q61 96 94 174q41 100 64 189l209 -70q-34 -117 -80 -221q-37 -82 -113 -199q47 -39 90 -55q47 -18 88 -18q20 0 62 4q31 3 55 12v-203q-57 -23 -131 -22q-47 0 -98 10q-31 6 -88 27q-29 10 -78 38q-43 25 -66 46l-73 -48 q-37 -23 -88 -43q-49 -20 -103 -28q-61 -10 -115 -10q-127 0 -219 30q-90 31 -149 86q-63 59 -88 127q-29 76 -29 162zM344 389q0 -43 16 -86q16 -41 45 -69.5t76 -47.5q41 -16 105 -16q66 0 119 25q57 27 83 51q-96 106 -147 180q-72 100 -125 197q-86 -41 -127 -97 q-45 -61 -45 -137zM571 1090q0 -53 15 -99q10 -33 39 -94q16 6 32.5 14.5l35 17.5t28.5 13q41 18 78 49t53 58q18 31 18 69q0 53 -39 92q-37 37 -102 37q-77 0 -117 -43q-41 -44 -41 -114z" />
<glyph unicode="'" horiz-adv-x="485" d="M109 1409h272l-27 -512h-219z" />
<glyph unicode="(" horiz-adv-x="681" d="M102 530q0 156 17 269q18 121 55 239q35 111 92 226q53 104 133 221h281q-78 -115 -137 -230q-57 -111 -94 -229q-33 -106 -54 -238q-16 -109 -16 -258t16 -258q20 -135 54 -239q37 -115 94 -228q63 -123 137 -231h-281q-80 117 -133 221q-55 111 -92 227.5t-55 241.5 q-17 112 -17 266z" />
<glyph unicode=")" horiz-adv-x="681" d="M2 -426q74 109 137 231q57 113 94 228q33 104 54 239q16 109 16 258.5t-16 257.5q-20 131 -54 238q-37 119 -94 229q-59 115 -137 230h281q80 -117 133 -221q57 -115 92 -226q37 -119 55 -239q16 -113 17 -269q0 -154 -17 -266q-18 -125 -55 -241.5t-92 -227.5 q-53 -104 -133 -221h-281z" />
<glyph unicode="*" horiz-adv-x="796" d="M6 1042l68 197l239 -104l-18 274h215l-18 -274l235 104l68 -197l-250 -61l186 -213l-184 -121l-146 252l-149 -252l-186 123l190 211z" />
<glyph unicode="+" horiz-adv-x="1193" d="M86 569v224h399v407h226v-407h401v-224h-401v-407h-226v407h-399z" />
<glyph unicode="," horiz-adv-x="567" d="M139 -317q33 39 54 73q16 27 40 80q20 43 29 82q10 45 10 82h-129v305h289v-239q0 -47 -8 -121q-6 -61 -21 -103q-18 -55 -34 -86q-25 -45 -45 -73h-185z" />
<glyph unicode="-" horiz-adv-x="681" d="M80 410v243h520v-243h-520z" />
<glyph unicode="." horiz-adv-x="567" d="M139 0v305h289v-305h-289z" />
<glyph unicode="/" horiz-adv-x="567" d="M20 -41l291 1526h238l-287 -1526h-242z" />
<glyph unicode="0" d="M82 705q0 221 35 352q39 143 100 223q63 82 156 117q86 33 200 33q104 0 191 -33q89 -34 154 -117q61 -80 100 -223q37 -139 37 -352q0 -201 -37 -340q-37 -135 -103 -224q-63 -84 -155 -123q-94 -39 -195 -38q-106 0 -194 36q-89 37 -154 123q-63 84 -100 223 q-35 132 -35 343zM362 705q0 -160 11 -242q12 -104 35 -156q25 -57 63 -82q41 -25 96.5 -24.5t94 25t63.5 81.5q25 59 37 156q10 82 10 242q0 166 -10 247q-12 100 -35 154q-27 61 -63 82q-41 23 -93 22q-59 0 -100 -24.5t-63 -79.5q-27 -61 -35 -156q-11 -108 -11 -245z " />
<glyph unicode="1" d="M129 0v209h348v960l-338 -211v222l355 229h266v-1200h321v-209h-952z" />
<glyph unicode="2" d="M72 0v195q49 104 116 190q61 78 144 154q55 51 151 131q63 53 133 118q63 59 97 113q37 57 37 121q0 92 -48 139q-45 45 -137 45q-90 0 -137 -49t-61 -145l-283 16q8 78 41 156q31 76 88 129q59 55 143 86q86 31 207 31q117 0 203 -27q88 -27 147.5 -78t90.5 -123 q31 -74 30 -168q0 -102 -39 -180q-43 -88 -98 -147q-53 -57 -137 -125l-144 -115q-57 -45 -127 -115q-59 -59 -86 -121h654v-231h-985z" />
<glyph unicode="3" d="M47 383l287 25q6 -41 22 -82q16 -39 43 -66q23 -23 70 -41q37 -14 94 -14q100 0 158 51q55 49 55 152q0 68 -26 102q-29 37 -66 57q-41 23 -88 29t-88 6h-98v227h92q45 0 84 9q53 10 80 28q39 25 57 58q20 35 20 96q0 90 -47 137q-49 49 -141 49q-88 0 -141.5 -49 t-61.5 -135l-280 20q12 102 53 172t108 121q59 45 148 72q76 23 178 23q129 0 213 -29q88 -31 146 -82q55 -49 83 -119q27 -66 27 -145q0 -68 -16 -115q-18 -53 -55 -96t-95 -74q-55 -29 -135 -45v-4q90 -10 152 -39q65 -31 104 -74q39 -41 61 -100q20 -53 21 -117 q0 -95 -31 -172q-29 -74 -96 -131q-63 -53 -156 -82q-96 -29 -217 -29q-135 0 -233 35q-90 33 -154 92q-61 59 -92 132q-29 69 -39 147z" />
<glyph unicode="4" d="M31 287v211l596 911h313v-913h188v-209h-188v-287h-268v287h-641zM260 496h412v460v45q0 10 1 29t1 29l4 55q0 20 4 41l-16 -31q-14 -31 -25 -45l-29 -47l-24 -39z" />
<glyph unicode="5" d="M63 352l281 23q10 -41 23 -64q14 -29 41 -55q20 -20 63 -39q35 -14 92 -14q106 0 168 67.5t62 192.5q0 57 -15 100q-14 45 -45 78q-29 31 -69 49q-39 16 -95 17q-70 0 -114.5 -27t-75.5 -64h-275l50 793h845v-209h-591l-23 -356q41 35 107 63q61 27 147 27q100 0 186 -35 q82 -33 139.5 -94.5t88.5 -145.5q29 -80 28 -190q0 -109 -32 -195q-33 -90 -101 -155q-68 -68 -162 -103q-98 -37 -227 -36q-113 0 -205 28q-82 25 -149 80q-57 47 -94 119q-36 69 -48 145z" />
<glyph unicode="6" d="M76 672q0 377 135 567.5t387 190.5q94 0 154 -17q70 -18 122 -57q57 -41 93 -101q39 -66 59 -149l-264 -37q-23 74 -66 107q-45 33 -104 32q-115 0 -178.5 -112.5t-63.5 -343.5q47 76 125 114q82 41 180 41q94 0 170 -30q78 -31 129 -89q55 -61 82 -141q29 -86 29 -186 q0 -104 -31 -195q-31 -88 -88 -151q-53 -57 -149 -99q-88 -37 -205 -36q-252 0 -383 174q-133 176 -133 518zM371 483.5q0 -63.5 14 -112.5t43 -90q27 -39 66 -60q41 -23 88 -22q95 0 147 67q53 70 53 187q0 55 -12 102q-12 49 -39 78q-29 33 -65 49q-39 18 -91 18 q-37 0 -73 -12q-43 -14 -68 -39q-29 -29 -47 -67q-16 -35 -16 -98.5z" />
<glyph unicode="7" d="M88 1178v231h961v-223l-179 -291q-74 -121 -147 -283q-61 -135 -100 -293q-37 -151 -37 -319h-293q0 170 39 317q37 141 108 293q66 139 158 283l190 285h-700z" />
<glyph unicode="8" d="M66 395q0 84 22 137q25 57 66 103q40 43 92 67q55 27 106 35v4q-61 12 -106 43q-49 33 -80 72q-33 41 -51 94q-16 47 -17 107q0 86 31 153q31 70 88 117q55 45 148 76q82 27 202 27q127 0 213 -27q88 -27 148 -78q57 -47 86 -119q27 -66 26 -151q0 -59 -16 -107 q-18 -53 -51 -94t-80 -70q-49 -29 -109 -41v-4q66 -10 117 -37q53 -29 92 -69q41 -43 62 -101q20 -55 20 -135q0 -96 -28 -168q-31 -76 -93 -131q-63 -57 -157 -88q-96 -31 -225.5 -30.5t-225.5 30.5q-94 31 -158 88q-66 59 -94 131t-28 166zM354 416q0 -49 11 -97 q8 -41 36 -75q25 -31 68 -49q39 -16 104 -17q70 0 105 16.5t63 51.5q25 31 35 76q8 39 8 98q0 49 -8 84q-8 37 -35 69q-25 31 -67.5 49.5t-108.5 18.5q-61 0 -100 -18q-41 -18 -66 -50q-27 -33 -34 -71q-11 -45 -11 -86zM385 1040q0 -25 8 -73q6 -37 27 -64q25 -33 55 -47 q37 -18 94 -18q59 0 97 18q35 18 55 47q18 27 24 66q6 37 7 71q0 45 -9 78q-8 35 -30 60q-25 29 -56 41q-35 14 -90 14q-57 0 -88 -14q-33 -14 -55 -41q-23 -25 -31 -60q-8 -33 -8 -78z" />
<glyph unicode="9" d="M72 958q0 113 32 199q35 90 97 150q66 61 155 92q92 31 207 31q127 0 215 -41q94 -43 158 -129q59 -78 94 -218q33 -129 33 -315q0 -375 -137.5 -561t-388.5 -186q-82 0 -164 20q-70 16 -125 57q-55 40 -92 105q-39 68 -60 149l264 37q23 -76 66 -110q45 -37 115 -37 q55 0 100 26q49 29 78 82q31 57 49 140q18 86 18 200q-23 -41 -53 -69q-31 -27 -74 -49.5t-88 -30.5q-51 -10 -96 -11q-94 0 -166 33q-84 39 -129 92q-52 61 -80 148q-28 90 -28 196zM356 956q0 -55 13 -102q12 -45 39 -82q29 -39 61 -55q37 -18 88 -19q41 0 76 15 q41 16 67.5 40.5t47.5 71.5q18 43 18 99q0 51 -14 112q-12 55 -39 92q-25 37 -68 60q-41 23 -90 22q-47 0 -84 -18q-41 -20 -61 -49q-31 -43 -41 -80q-13 -48 -13 -107z" />
<glyph unicode=":" horiz-adv-x="681" d="M197 0v281h288v-281h-288zM197 752v282h288v-282h-288z" />
<glyph unicode=";" horiz-adv-x="681" d="M195 -317q33 39 53 73q25 40 43 80q16 33 26 82q10 45 11 82h-129v281h288v-215q0 -47 -8 -121q-6 -61 -20 -103q-18 -55 -35 -86q-25 -45 -45 -73h-184zM199 752v282h288v-282h-288z" />
<glyph unicode="&#x37e;" horiz-adv-x="681" d="M195 -317q33 39 53 73q25 40 43 80q16 33 26 82q10 45 11 82h-129v281h288v-215q0 -47 -8 -121q-6 -61 -20 -103q-18 -55 -35 -86q-25 -45 -45 -73h-184zM199 752v282h288v-282h-288z" />
<glyph unicode="&#x3c;" horiz-adv-x="1193" d="M86 516v322l1026 391v-228l-831 -325l831 -324v-227z" />
<glyph unicode="=" horiz-adv-x="1193" d="M86 291v221h1026v-221h-1026zM86 842v223h1026v-223h-1026z" />
<glyph unicode="&#x3e;" horiz-adv-x="1193" d="M86 125v227l832 324l-832 325v228l1026 -391v-322z" />
<glyph unicode="?" horiz-adv-x="1249" d="M94 1001q12 89 49 166q37 78 103 138q65 58 160 92q92 33 219 33q123 0 215 -27t159 -82q63 -51 98.5 -127t35.5 -168q0 -74 -16.5 -117t-47.5 -88q-29 -41 -65 -71q-49 -41 -76 -60l-78 -55q-41 -31 -68 -57q-31 -31 -49 -68q-16 -35 -20 -84h-267q6 84 37 145.5 t76 106.5q41 41 96 80l95 71q43 37 71.5 82t28.5 103q0 88 -57.5 139t-163.5 51q-49 0 -94 -16q-41 -14 -76 -43q-31 -25 -53 -68q-20 -37 -27 -88zM438 0v270h289v-270h-289z" />
<glyph unicode="@" horiz-adv-x="1996" d="M117 461q0 129 33 266q31 125 90 240q55 106 145 198q92 96 193 156q104 63 239 98q133 35 275 35q203 0 352 -59q152 -59 244 -158q98 -104 143 -233q47 -135 47 -279q0 -137 -39 -264q-35 -117 -102 -205q-59 -80 -154 -133q-86 -49 -186 -49q-37 0 -78 10 q-31 8 -59 33q-25 20 -39 53q-14 31 -15 76q0 4 1 15t1 18q0 14 4 34h-6q-25 -49 -55 -88q-29 -37 -82 -75q-47 -35 -100.5 -55.5t-112.5 -20.5q-92 0 -158 35q-68 35 -102 88q-37 57 -53 125q-16 72 -17 137q0 119 33 225q34 111 98 197q61 84 158 137q94 53 211 53 q102 0 168 -47t96 -127h6l39 152h156l-117 -506q-16 -68 -26 -142q-10 -68 -11 -98q0 -51 22.5 -71.5t55.5 -20.5q55 0 115 39q55 37 98 104q45 72 72 162q27 92 26 207q0 123 -40 233q-39 109 -121 189q-74 74 -199 123q-115 45 -272 45q-133 0 -244 -31q-119 -33 -203 -88 q-98 -63 -160 -137q-72 -84 -114 -174q-45 -92 -70 -201q-25 -108 -24 -221q0 -84 18 -168q18 -86 51 -154q34 -71 86 -129q51 -55 123 -100q63 -39 162 -66q88 -25 201 -24q86 0 165 12q88 14 154 33q74 22 141 49q33 14 129 61l62 -122q-72 -39 -129 -66 q-78 -35 -149.5 -57.5t-176.5 -38.5q-88 -14 -203 -15q-125 0 -239 29q-109 27 -199 80q-86 51 -156 123q-61 63 -112 160q-47 86 -68 186q-22 107 -22 207zM692 461q0 -117 49 -180q49 -66 148 -66q47 0 96 23q39 18 88 67q41 41 78 111q33 63 55 149q8 25 11 39l6 43 q2 14 6 39q2 12 2 35q0 49 -14.5 86t-45.5 67q-33 33 -65 46q-43 16 -88 16q-57 0 -100.5 -20.5t-81.5 -55.5q-33 -29 -64 -82q-25 -41 -45 -98q-16 -43 -27 -111q-8 -49 -8 -108z" />
<glyph unicode="A" horiz-adv-x="1478" d="M51 0l514 1409h348l512 -1409h-292l-125 360h-537l-125 -360h-295zM537 582h405l-139 405q-6 16 -11.5 34.5t-11.5 35.5l-20 65q-12 43 -15 49q-6 18 -6 21q0 -4 -6 -23q-2 -6 -6 -21t-8 -26l-8 -30.5t-11 -34.5l-24 -70z" />
<glyph unicode="B" horiz-adv-x="1478" d="M137 0v1409h645q119 0 222 -23q100 -23 165 -63q66 -43 101 -111q35 -70 35 -157q0 -123 -66 -203q-68 -83 -203 -111q170 -20 260 -108q90 -86 90 -232q0 -106 -43 -182q-41 -74 -118 -125q-76 -51 -172 -71q-102 -23 -211 -23h-705zM432 219h385q53 0 109 10 q51 10 86 33q37 25 57.5 64t20.5 100q0 53 -23 92q-25 43 -59 62q-47 25 -90 32q-57 10 -111 11h-375v-404zM432 842h338q127 0 182.5 43t55.5 131q0 96 -59.5 135t-180.5 39h-336v-348z" />
<glyph unicode="C" horiz-adv-x="1478" d="M84 711q0 166 43 299t129 225q92 98 217 145q133 49 309 50q133 0 242 -29q94 -25 178 -82q76 -51 125 -123q51 -72 78 -158l-260 -71q-12 39 -43 86q-25 39 -74 73q-47 35 -104 52q-68 20 -136 20q-104 0 -184 -35q-78 -35 -127 -98q-45 -59 -71 -154q-25 -88 -25 -200 q0 -109 25 -201q27 -98 71 -158q51 -66 129 -102q80 -37 189 -37q86 0 143 23q66 27 106 61q43 37 74 86q27 43 47 96l258 -96q-27 -68 -82 -150q-47 -70 -124 -129q-76 -57 -179 -90q-109 -35 -243 -34q-182 0 -318 55q-137 57 -221 151q-88 100 -129 232q-43 135 -43 293z " />
<glyph unicode="D" horiz-adv-x="1478" d="M137 0v1409h510q160 0 301 -41q135 -39 235.5 -127t153.5 -215q55 -133 56 -311q0 -174 -54 -309q-53 -133 -145 -224q-96 -92 -217 -137q-123 -45 -270 -45h-570zM432 227h250q88 0 164 31q72 29 131 94.5t88 151.5q31 92 31 211q0 125 -33 211q-35 92 -94.5 145 t-143.5 82q-86 29 -184 29h-209v-955z" />
<glyph unicode="E" horiz-adv-x="1363" d="M137 0v1409h1108v-227h-813v-355h752v-229h-752v-371h854v-227h-1149z" />
<glyph unicode="F" horiz-adv-x="1249" d="M137 0v1409h1039v-227h-744v-437h721v-229h-721v-516h-295z" />
<glyph unicode="G" horiz-adv-x="1591" d="M84 711q0 166 43 299q41 129 135 225q94 98 225 145q135 49 318 50q133 0 237 -25q98 -23 181 -76q80 -51 129 -115q53 -70 84 -151l-273 -82q-23 51 -47 84t-74 68q-35 25 -104 47q-57 18 -133 18q-109 0 -191 -35q-78 -33 -131 -98.5t-77.5 -153.5t-24.5 -200 q0 -109 25 -201q25 -90 79 -160q53 -68 131 -102q80 -37 191 -37q57 0 123 10q47 8 108 27q57 18 92 37q37 20 66 45v194h-344v219h614v-518q-55 -55 -116 -94q-72 -45 -154 -78q-78 -31 -184 -53q-96 -20 -213 -20q-188 0 -324 55q-137 57 -221 151q-86 100 -129 232 q-41 129 -41 293z" />
<glyph unicode="H" horiz-adv-x="1478" d="M137 0v1409h295v-561h625v561h284v-1409h-284v604h-625v-604h-295z" />
<glyph unicode="I" horiz-adv-x="567" d="M137 0v1409h295v-1409h-295z" />
<glyph unicode="J" d="M31 383l293 43q8 -57 28 -100q18 -41 43 -65.5t60 -37.5q33 -12 71 -12q86 0 133 59q45 57 46 168v740h-281v231h575v-963q0 -109 -30 -194q-29 -82 -92 -146q-61 -61 -150 -94q-86 -33 -203 -32q-102 0 -188 22.5t-146 69.5q-61 49 -100 125q-36 69 -59 186z" />
<glyph unicode="K" horiz-adv-x="1478" d="M137 0v1409h295v-639l635 639h344l-602 -596l651 -813h-348l-506 647l-174 -133v-514h-295z" />
<glyph unicode="L" horiz-adv-x="1249" d="M137 0v1409h295v-1182h756v-227h-1051z" />
<glyph unicode="M" horiz-adv-x="1705" d="M137 0v1409h395l252 -788q2 -8 21 -76q16 -59 22 -86l27 -103l27 101l12 43l12 43q6 20 13 39q2 6 10 34l248 793h393v-1409h-262v854q0 16 1 51t1 53q0 39 4 101q0 16 1 51t3 51l-39 -149q-4 -14 -9 -29.5t-9 -34.5l-17 -61l-16 -56l-15 -45l-254 -786h-210l-254 786 q-2 8 -5.5 19.5l-7.5 25.5l-16 55.5t-9 30l-10 31.5q-4 18 -9 33.5t-9 30.5l-41 149l4 -58.5t2 -55.5q2 -47 4 -101q2 -35 2 -92v-854h-262z" />
<glyph unicode="N" horiz-adv-x="1478" d="M137 0v1409h336l625 -1094q-8 57 -11 88q-4 45 -6 89q-2 33 -2 98v819h262v-1409h-346l-614 1085q4 -27 8 -88q0 -10 3 -37.5l5 -44.5q2 -29 2 -84v-831h-262z" />
<glyph unicode="O" horiz-adv-x="1591" d="M84 711q0 164 47 299q45 131 137 225q94 98 224 145q131 49 303 50q176 0 305 -52q141 -55 223 -143q92 -98 137 -227q47 -135 47 -297q0 -164 -49 -299q-49 -137 -141 -231.5t-225 -147.5q-135 -53 -299 -53q-178 0 -310 55q-135 57 -221 151q-92 100 -133 232 q-45 141 -45 293zM381 711q0 -113 27 -201q29 -98 77 -158q53 -66 129 -102q77 -37 179 -37q109 0 186 37q82 39 129 104q49 70 74 158q25 92 24 199q0 115 -26 200q-29 94 -78 154q-52 65 -129 98q-80 35 -178 35q-100 0 -181 -35q-77 -34 -129 -98q-53 -66 -77 -154 q-27 -96 -27 -200z" />
<glyph unicode="P" horiz-adv-x="1363" d="M137 0v1409h633q137 0 234 -33q100 -35 163 -92q68 -61 97 -139q33 -88 32 -182q0 -88 -30.5 -174.5t-94.5 -149.5q-68 -68 -159 -104q-96 -39 -230 -39h-350v-496h-295zM432 723h313q72 0 113 16q51 20 80 49t45 74t16 96q0 111 -65 166t-197 56h-305v-457z" />
<glyph unicode="Q" horiz-adv-x="1591" d="M84 711q0 164 47 299q45 131 137 225q94 98 224 145q131 49 303 50q176 0 305 -52q141 -55 223 -143q92 -98 137 -227q47 -135 47 -297q0 -147 -34 -260q-35 -115 -105 -209q-66 -90 -164 -151.5t-221 -86.5q23 -61 47 -94q27 -35 62 -57q37 -23 73 -29q40 -6 86 -6 q39 0 60 2q37 4 59 8l-2 -203q-41 -10 -113 -20q-51 -8 -129 -8q-92 0 -165.5 28.5t-125 79.5t-88 125t-63.5 160q-147 14 -262 73.5t-189 153.5q-78 100 -112 221q-37 128 -37 273zM381 711q0 -113 27 -201q31 -100 77 -160q53 -66 129 -102q77 -37 179 -37q109 0 186 37 q82 39 129 104q49 68 73.5 160t24.5 199q0 115 -26 200q-29 94 -78 154q-52 65 -129 98q-80 35 -178 35q-100 0 -181 -35q-77 -34 -129 -98q-53 -66 -77 -154q-27 -96 -27 -200z" />
<glyph unicode="R" horiz-adv-x="1478" d="M137 0v1409h705q137 0 229 -29q106 -33 166 -84q63 -55 98 -133q31 -70 31 -174q0 -86 -23 -145q-27 -70 -65 -117q-43 -51 -98 -84q-66 -39 -123 -51l381 -592h-332l-328 535h-346v-535h-295zM432 764h385q66 0 115 16q47 16 78 43q29 27 45 68q14 37 14 86 q0 106 -65 153q-68 49 -193 50h-379v-416z" />
<glyph unicode="S" horiz-adv-x="1363" d="M59 367l285 47q12 -43 35 -86q20 -37 63 -68q41 -29 101 -43q66 -16 147 -16q152 0 230 45q80 45 79 143q0 55 -32 94q-31 37 -84.5 61.5t-122.5 41.5q-45 10 -144 30l-120 29q-55 14 -115 37q-53 20 -100 49q-49 29 -82 72q-37 47 -54 98q-20 66 -20 135q0 106 43 181 q47 80 115 122q78 49 178 70t225 21q141 0 236 -21q96 -20 165 -66q63 -39 105 -110q39 -66 57 -156l-286 -39q-20 92 -89 138q-66 45 -194 45q-77 0 -129 -13q-45 -10 -82 -37q-31 -20 -43 -53q-14 -37 -14 -65q0 -52 24 -86q25 -33 72 -55.5t106 -37.5q100 -25 138 -32 q23 -6 65.5 -14.5t65.5 -14.5q70 -16 125 -37q57 -20 108 -51q55 -33 90 -74q37 -43 58 -102q23 -63 22 -143q0 -92 -35 -175q-33 -78 -108 -135q-74 -55 -188.5 -85.5t-272.5 -30.5q-141 0 -248 24q-100 23 -182 76t-125 121q-48 76 -68 166z" />
<glyph unicode="T" horiz-adv-x="1249" d="M23 1182v227h1206v-227h-457v-1182h-295v1182h-454z" />
<glyph unicode="U" horiz-adv-x="1478" d="M123 528v881h295v-858q0 -86 22 -154q20 -59 64 -106q37 -41 98 -60q66 -20 129 -20q74 0 133.5 20.5t102.5 63.5t67 108q25 63 25 158v848h295v-866q0 -139 -47 -250q-43 -102 -131 -176q-80 -68 -199 -103q-121 -35 -254 -34q-123 0 -242 32q-115 31 -190 97 q-80 68 -123 172q-45 108 -45 247z" />
<glyph unicode="V" horiz-adv-x="1363" d="M14 1409h308l290 -905q10 -31 27 -92q6 -25 13 -46.5t12 -39.5q12 -45 22 -88l21 86q10 39 24 86q6 25 12.5 47l14.5 47l289 905h305l-518 -1409h-299z" />
<glyph unicode="W" horiz-adv-x="1931" d="M2 1409h299l176 -784q23 -96 29 -125l22 -113l23 -108l29 145q2 14 6 29.5l8 31.5l12 64l12 59q2 14 6.5 26.5t6.5 24.5l174 750h330l178 -750q8 -33 12 -53l12 -61l13 -64q2 -10 5 -30.5t5 -30.5l24 -141l25 116q10 51 25 113q8 31 28 117l170 784h299l-364 -1409h-350 l-191 815q-16 68 -20 88l-19 98q-8 37 -20 115q-6 -33 -12.5 -61.5t-10.5 -53.5l-8 -49l-12 -51q-4 -14 -9 -47q-2 -14 -10 -39l-190 -815h-350z" />
<glyph unicode="X" horiz-adv-x="1363" d="M18 0l488 741l-447 668h312l313 -498l313 498h310l-428 -668l469 -741h-310l-354 561l-354 -561h-312z" />
<glyph unicode="Y" horiz-adv-x="1363" d="M35 1409h309l338 -596l342 596h309l-502 -831v-578h-294v578z" />
<glyph unicode="Z" horiz-adv-x="1249" d="M61 0v209l762 969h-686v231h1014v-205l-762 -973h803v-231h-1131z" />
<glyph unicode="[" horiz-adv-x="681" d="M115 -426v1911h542v-191h-276v-1527h276v-193h-542z" />
<glyph unicode="\" horiz-adv-x="567" d="M20 1485h238l293 -1526h-244z" />
<glyph unicode="]" horiz-adv-x="681" d="M25 -233h278v1527h-278v191h542v-1911h-542v193z" />
<glyph unicode="^" horiz-adv-x="1193" d="M45 514l391 895h322l393 -895h-229l-326 752l-324 -752h-227z" />
<glyph unicode="_" d="M-20 -172h1177v-78h-1177v78z" />
<glyph unicode="`" horiz-adv-x="681" d="M66 1458v43h258l251 -287v-30h-169z" />
<glyph unicode="a" d="M59 305q0 96 35 162q37 70 90 106q59 41 138 60q77 18 165 18l234 4v56q0 45 -12 98q-10 45 -29 65q-23 27 -51 35q-35 10 -68 11q-34 0 -61 -7q-25 -6 -47 -24q-20 -18 -33 -47q-12 -33 -19 -74l-292 12q12 68 45 131q29 53 88 101q55 43 139 67q76 23 192 23 q100 0 180.5 -24.5t135.5 -74t83.5 -123t28.5 -165.5v-396q0 -47 3 -67q2 -23 14 -51q10 -23 26 -31q20 -10 46 -10q31 0 61 6v-152q-12 -2 -22.5 -6t-20.5 -6q-2 0 -41 -6l-43 -6q-14 -2 -51 -2q-109 0 -158 53q-51 53 -59 152h-6q-53 -98 -143.5 -155.5t-213.5 -57.5 q-76 0 -139 22q-66 23 -104 61q-45 45 -66 105q-25 69 -25 137zM352 328q0 -78 37 -115t94 -37q53 0 99 23q39 18 73 61q27 33 47 86q18 49 19 100v56l-146 -2q-53 -4 -83 -8q-45 -6 -72 -23q-31 -18 -49.5 -51t-18.5 -90z" />
<glyph unicode="b" horiz-adv-x="1249" d="M135 0q2 31 6 100q2 43 2 148v1237h281v-416v-61q0 -10 -1 -30t-1 -28q0 -10 -1 -28.5t-1 -26.5h4q53 113 139 160t207 47q109 0 178 -41q78 -45 125 -117q51 -76 72 -176q23 -106 22 -223q0 -121 -24.5 -225.5t-75.5 -180.5q-51 -74 -129 -116q-80 -43 -186 -43 q-41 0 -97 10q-39 8 -90 33q-37 18 -80 61q-39 39 -61 90h-2q0 -6 -1 -21.5t-1 -25.5q0 -37 -2 -53.5t-6 -44.5q0 -6 -1 -12.5t-2 -10.5t-1 -6h-273zM420 537q0 -109 20 -177q23 -72 51.5 -112.5t73.5 -59.5q39 -16 86 -16q106 0 164 88q59 90 59 285q0 184 -55 272 q-55 90 -166 90q-47 0 -86 -16q-41 -18 -73 -60q-31 -39 -54 -114q-20 -67 -20 -180z" />
<glyph unicode="c" d="M80 535q0 133 35 241q33 100 100 178q61 72 164 111q96 37 219 37q100 0 186 -29q84 -29 142 -76q55 -47 94 -114q35 -61 51 -142l-283 -14q-12 84 -61 133t-135 49q-113 0 -166 -94q-51 -90 -51 -268q0 -375 221 -375q76 0 133 51q55 49 68 150l282 -13 q-10 -78 -45 -143q-39 -74 -96 -121q-63 -53 -147 -84q-92 -33 -197 -32q-127 0 -225 40q-96 41 -160 113q-66 76 -96 176q-33 109 -33 226z" />
<glyph unicode="d" horiz-adv-x="1249" d="M84 541q0 121 25 225q25 106 75 178q53 76 129 117t187 41q61 0 102 -10.5t90 -34.5q39 -20 76 -60q39 -43 59 -86h2v29q0 6 -1 21.5t-1 23.5v51v54v395h281v-1249q0 -98 2 -140l6 -96h-272l-4 29q-2 14 -6 47q-2 16 -3 51q0 10 -1 26.5t-1 22.5h-4q-49 -104 -137 -151 q-84 -45 -209 -45q-102 0 -176 43t-123 116q-47 72 -74 178q-22 93 -22 224zM377 541q0 -369 221 -369q41 0 84 18q41 18 76 62q31 41 53 115q20 70 20 180t-20 178q-20 70 -53 111q-37 45 -74 59q-45 16 -84 16q-55 0 -96 -20.5t-69.5 -67.5t-43.5 -114q-14 -66 -14 -168z " />
<glyph unicode="e" d="M80 547q0 158 41 260q43 109 112 172q74 68 162 94q96 29 195 29q125 0 219 -45q89 -43 147 -123q57 -78 86 -193q27 -106 27 -245v-9h-694q0 -70 12 -127q12 -59 39 -100q29 -43 70 -67q43 -25 104 -25q76 0 121 30.5t67 98.5l265 -23q-23 -59 -49 -98q-37 -55 -89 -96 q-59 -47 -133 -72q-82 -29 -196 -28q-117 0 -211 34q-96 35 -160 105q-68 74 -100 178q-35 111 -35 250zM377 664h420q-10 133 -64 196q-55 66 -147 66q-45 0 -80 -15q-37 -16 -66 -47q-25 -27 -45 -82q-14 -40 -18 -118z" />
<glyph unicode="f" horiz-adv-x="681" d="M35 893v188h158v113q0 59 16 115q16 57 49 92q37 40 98 61q63 23 152 23q49 0 94 -6q12 -2 41 -5.5t43 -5.5v-182q-6 0 -19.5 3t-21.5 5q-14 2 -41 2q-43 0 -65.5 -8t-38.5 -24q-14 -14 -21 -41q-6 -25 -6 -56v-86h213v-188h-213v-893h-280v893h-158z" />
<glyph unicode="g" horiz-adv-x="1249" d="M84 551q0 125 25 225q25 98 77 174q53 74 129 113q82 41 187 41q106 0 194 -47q84 -45 133 -150h5q0 6 1 22.5t1 26.5q0 20 4 54q0 8 1 22.5t3 22.5l4 26h266q-2 -14 -3 -49t-1 -51q-2 -43 -2 -150v-798q0 -117 -35 -205t-98 -145q-68 -61 -162 -89q-98 -29 -217 -28 q-102 0 -188 22q-84 23 -140 60q-58 40 -92 92q-35 55 -47 117l281 32q16 -66 65 -102.5t129 -36.5q51 0 92 14q39 14 70 48q33 35 47 90q16 59 16 135v57v53q0 10 1 28t1 26h-2q-49 -106 -137 -152q-90 -47 -211 -47q-102 0 -178 41t-123 113q-51 76 -74 172 q-22 92 -22 223zM377 551q0 -175 55 -264q55 -90 168 -90q39 0 84 16q37 14 74 59q31 39 53 111q20 63 20 172q0 106 -20 170q-25 76 -51 111q-29 39 -74 57q-39 16 -84 16q-55 0 -96 -20.5t-70 -65.5q-31 -47 -45 -110.5t-14 -161.5z" />
<glyph unicode="h" horiz-adv-x="1249" d="M143 0v1485h281v-406v-65q0 -12 -2 -31.5t-2 -28.5q0 -10 -1 -28.5t-1 -24.5q0 -8 -1 -19.5t-1 -15.5h4q59 127 143 181q86 55 205 55q94 0 166 -33q66 -29 110 -88q43 -55 61.5 -131t18.5 -164v-686h-280v606q0 57 -10 115q-8 49 -33 90q-23 37 -60 59q-35 20 -90 21 q-47 0 -92 -23q-41 -20 -72 -63q-33 -45 -47 -100q-16 -61 -16 -125v-580h-281z" />
<glyph unicode="i" horiz-adv-x="567" d="M143 0v1081h281v-1081h-281zM143 1278v207h281v-207h-281z" />
<glyph unicode="j" horiz-adv-x="567" d="M-33 -217q16 -4 27 -4h24q41 0 64 8q25 8 39 27q12 14 18 49q4 20 4 78v1140h283v-1208q0 -61 -16 -121q-14 -49 -52 -94q-35 -41 -88 -61q-57 -23 -133 -23q-39 0 -96 4q-43 3 -74 6v199zM143 1278v207h283v-207h-283z" />
<glyph unicode="k" d="M143 0v1485h281v-850l387 446h301l-381 -422l410 -659h-307l-289 489l-121 -83v-406h-281z" />
<glyph unicode="l" horiz-adv-x="567" d="M143 0v1485h281v-1485h-281z" />
<glyph unicode="m" horiz-adv-x="1820" d="M135 1081h268l5 -37q2 -10 3 -29.5t1 -29.5q2 -20 2 -63q0 -10 1 -30t1 -26h4q53 125 129 181q80 57 186 57q121 0 199 -61.5t102 -176.5h6q27 66 62 113q31 41 74 72q41 29 88 41q45 12 104 12q84 0 150 -33q57 -29 100 -88q39 -53 57 -131q16 -68 17 -166v-686h-279 v606q0 70 -8 117q-8 51 -29 90q-16 33 -51 57q-33 23 -76 23t-77.5 -22.5t-59.5 -61.5q-23 -37 -39 -94q-12 -47 -16 -121v-594h-279v606q0 70 -8 117q-8 51 -29 90q-16 33 -51 57q-33 23 -76 23t-77 -23q-37 -25 -62 -65q-25 -43 -39 -98.5t-14 -126.5v-580h-281v840v71 q0 12 -1 37t-1 35q0 12 -2 31.5t-2 27.5q0 31 -2 39z" />
<glyph unicode="n" horiz-adv-x="1249" d="M135 1081h268l5 -37q2 -10 3 -29.5t1 -29.5q2 -20 2 -63q0 -10 1 -30t1 -26h4q59 127 143 181q90 57 205 57q94 0 166 -33q66 -29 110 -88q43 -55 62 -131q18 -77 18 -166v-686h-280v606q0 59 -10 117q-8 49 -33 90q-20 35 -59.5 57.5t-90.5 22.5q-47 0 -92 -23 q-39 -18 -71.5 -65t-47.5 -98q-16 -61 -16 -127v-580h-281v840v71q0 12 -1 37t-1 35q0 12 -2 31.5t-2 27.5q0 31 -2 39z" />
<glyph unicode="o" horiz-adv-x="1249" d="M80 543q0 125 33 223q33 100 102 176q72 78 170 119q100 41 242 41q150 0 250 -41q102 -43 167.5 -117t96.5 -178q31 -102 30 -223q0 -119 -34 -228q-33 -98 -105 -178q-68 -74 -172 -117q-100 -41 -239 -40q-129 0 -234 40q-98 39 -168 115q-72 80 -104 178 q-35 109 -35 230zM375 543q0 -96 18 -168q18 -68 49 -115t76 -67q43 -20 100 -21q63 0 110.5 20.5t82.5 67.5q31 41 49 115q16 63 17 168q0 195 -64 278q-66 88 -182 88q-127 0 -191 -88q-65 -90 -65 -278z" />
<glyph unicode="p" horiz-adv-x="1249" d="M135 1081h273l4 -26q4 -29 4 -45q0 -8 2 -26.5t2 -29.5v-49h4q53 109 139 154q90 47 207 47q104 0 178 -43t123 -117q45 -68 72 -176q25 -102 24 -223q0 -123 -24 -228q-27 -111 -76 -180q-53 -76 -129 -116q-80 -43 -186 -43q-43 0 -95 10q-45 8 -92 33q-37 18 -78 59 q-43 43 -63 90h-6l1 -8q1 -8 1 -17q0 -6 1 -21t1 -26q0 -8 1 -26.5t1 -28.5v-55v-416h-281v1260q0 104 -2 147q-2 61 -6 100zM420 539q0 -109 20 -177q25 -78 52 -112q31 -39 73 -60q41 -18 84 -18q55 0 96 20.5t70 67.5q28 46 43 117q16 76 16 170q0 182 -57 274 q-55 88 -166 88q-45 0 -84 -16t-73 -62q-31 -39 -54 -112q-20 -67 -20 -180z" />
<glyph unicode="q" horiz-adv-x="1249" d="M84 541q0 121 25 225q25 102 78 178t128 117q80 43 186.5 43t194.5 -47q84 -45 133 -150q0 6 1 22.5t1 26.5q0 37 2.5 53.5t6.5 45.5l4 26h270q-2 -14 -3 -49t-1 -51q-2 -43 -2 -147v-1260h-279v451v55q0 10 1 26.5t1 22.5q0 14 1.5 26.5t1.5 24.5h-3q-51 -111 -139 -153 q-94 -47 -213 -47q-102 0 -176 43t-123 116q-47 72 -74 178q-22 93 -22 224zM377 541q0 -369 223 -369q41 0 84 18q39 16 74 62q31 39 53 115q20 68 20 180q0 111 -20 178.5t-51 110.5q-31 41 -74 57q-45 16 -84 16q-55 0 -96 -20q-43 -23 -70 -66q-31 -53 -45 -114 q-14 -66 -14 -168z" />
<glyph unicode="r" horiz-adv-x="796" d="M135 1081h268l5 -41q2 -10 3 -31.5t1 -31.5q2 -23 2 -70q0 -12 1 -30.5t1 -24.5h4q22 58 43 104t49 80q25 29 68 49q39 18 100 19l49 -6q23 -2 37 -11v-233q-37 8 -55 10q-37 4 -66 4q-104 0 -162 -86q-59 -88 -59 -252v-530h-281v827v74q0 14 -1 39t-1 37t-2 33.5 t-2 29.5q0 33 -2 41z" />
<glyph unicode="s" d="M72 270l247 37q12 -47 33 -74q23 -29 51.5 -43t73.5 -20q29 -4 94 -4q47 0 91 6q39 6 71 18q25 10 47 39q16 23 17 62q0 41 -25 65q-27 27 -67.5 41.5t-98.5 26.5q-96 20 -123 27q-96 23 -135 34q-68 23 -117 58q-53 39 -84 92q-33 59 -32 139q0 78 30 139q31 59 88 103 q61 45 144 65q90 23 196 23q82 0 164 -17q70 -14 135 -53q61 -37 101 -90q43 -59 57 -133l-250 -27q-6 41 -24 66q-20 27 -45 41t-62 20q-23 4 -76 4q-100 0 -149 -24q-51 -27 -51 -86q0 -39 20 -60q23 -23 58 -36q37 -14 90 -25q49 -8 112 -25q49 -10 148 -38 q76 -23 129 -58q55 -37 90 -96t35 -152q0 -80 -33 -139q-37 -66 -94 -106q-55 -39 -152 -66q-88 -25 -205 -24q-98 0 -186 16q-84 16 -145 49q-63 35 -105 88q-40 51 -63 137z" />
<glyph unicode="t" horiz-adv-x="681" d="M25 893v188h151l88 254h176v-254h205v-188h-205v-563q0 -82 29 -117q31 -37 94 -37q18 0 47 4q14 2 47 10v-174q-47 -16 -110 -26q-51 -8 -127 -8q-123 0 -190.5 67.5t-67.5 204.5v639h-137z" />
<glyph unicode="u" horiz-adv-x="1249" d="M127 395v686h281v-606q0 -57 10 -115q8 -49 33 -90q23 -37 59 -59q35 -20 90 -21q47 0 92 23q41 20 72 63q33 47 47 99q16 61 16 127v579h281v-839v-72q0 -12 1 -35.5t1 -34.5q0 -12 2 -32.5t2 -28.5q0 -10 1 -23.5t1 -15.5h-268q0 2 -4 39t-4 57v32.5t-2 33.5 q0 10 -1 28.5t-1 24.5h-5q-55 -121 -143 -178q-90 -57 -205 -57q-94 0 -166 32q-66 29 -110 88q-43 55 -61.5 131t-18.5 164z" />
<glyph unicode="v" d="M8 1081h297l189 -604q8 -31 18 -63q18 -57 20 -68l17 -63q4 -16 8 -29.5l8 -26.5q8 33 15 54q8 31 18 63q4 12 10 34.5t10 33.5l21 61l197 608h294l-399 -1081h-336z" />
<glyph unicode="w" horiz-adv-x="1591" d="M-6 1081h264l137 -635l13 -61q4 -18 8 -33.5t6 -27.5q8 -45 14 -68q4 20 8.5 37.5t6.5 36.5l12 61l7 31.5t5 23.5l170 635h301l166 -635q12 -51 14 -59q6 -33 13 -61q2 -16 6 -34l8 -36q10 45 14 70q2 12 6.5 27.5t8.5 33.5q6 33 12 59l143 635h260l-284 -1081h-297 l-172 659q-2 4 -17 70q-8 39 -14 74l-16 80q-4 -20 -9.5 -40t-9.5 -40q-8 -35 -16 -74t-17 -72l-174 -657h-297z" />
<glyph unicode="x" d="M14 0l396 559l-377 522h303l231 -354l230 354h305l-377 -520l399 -561h-305l-252 391l-254 -391h-299z" />
<glyph unicode="y" d="M16 1081h297l170 -506q3 -12 13 -36l18 -60l8 -23.5t7 -21.5l8 -26q10 -37 20 -70q2 -6 8 -27.5t8 -31.5q4 -14 7.5 -23.5t3.5 -13.5q0 4 3 12t7 22l14 60q2 12 19 67q10 37 18 70t17 59q2 10 7 23.5t5 15.5l160 510h294l-428 -1138q-41 -98 -79 -164q-43 -72 -89 -115 q-51 -47 -108 -67q-63 -23 -141 -23q-29 0 -90 4q-35 2 -87 10v199q8 -2 23.5 -3t24.5 -1q18 -2 49 -2q47 0 73 8q35 10 58 31q31 27 49 55q18 31 43 88l18 47z" />
<glyph unicode="z" horiz-adv-x="1024" d="M68 0v199l540 680h-499v202h809v-200l-537 -676h586v-205h-899z" />
<glyph unicode="{" horiz-adv-x="796" d="M33 430v197q57 4 96 14q41 12 71.5 39t45.5 70q16 45 16 106v330q0 145 78 221q82 78 217 78h197v-191h-58q-90 0 -131 -53t-41 -156v-301q0 -49 -16 -94q-14 -39 -45 -74q-29 -31 -66 -53t-80 -31v-4q37 -8 80 -32q45 -27 68 -54q29 -37 43 -73q16 -45 16 -93v-301 q0 -104 41 -157q39 -51 131 -51h58v-193h-197q-66 0 -123 22.5t-94 59.5q-35 35 -57 94q-20 53 -21 123v330q0 61 -16 106q-14 43 -45 70q-29 27 -74 39q-43 12 -94 12z" />
<glyph unicode="|" horiz-adv-x="571" d="M156 -455v1940h262v-1940h-262z" />
<glyph unicode="}" horiz-adv-x="796" d="M43 -233h57q94 0 133 51t39 157v301q0 47 17 93q12 33 45 73q23 29 65.5 53.5t79.5 32.5v4q-43 9 -80 31q-37 23 -65 53q-31 35 -45 74q-16 45 -17 94v301q0 104 -39 156q-41 53 -133 53h-57v191h197q135 0 217 -78q78 -76 78 -221v-330q0 -61 16 -106q14 -41 47 -70 q31 -27 72 -39q39 -10 96 -14v-197q-53 0 -96 -12q-41 -12 -72 -39q-33 -29 -47 -70q-16 -45 -16 -106v-330q0 -70 -21 -123q-23 -59 -57 -94q-37 -37 -94.5 -59.5t-122.5 -22.5h-197v193z" />
<glyph unicode="~" horiz-adv-x="1193" d="M82 543v213q61 43 119 61q72 23 151 23q41 0 82 -6q27 -4 80 -17l80 -24l78 -27q57 -18 98 -29q61 -14 100 -14q68 0 134 25q61 23 114 67v-219q-31 -22 -61 -37q-41 -20 -62 -27q-29 -8 -67 -12q-45 -4 -76 -4q-78 0 -147 21q-49 14 -148 47q-72 25 -121 34 q-55 12 -100 13q-37 0 -72 -6q-45 -8 -65 -17q-29 -10 -60 -28q-22 -12 -57 -37z" />
<glyph unicode="&#xa1;" horiz-adv-x="681" d="M195 -328l30 981h232l30 -981h-292zM201 811v270h286v-270h-286z" />
<glyph unicode="&#xa2;" d="M51 686q0 117 31 211q33 98 88 164q59 68 143 110q82 41 193 54v184h162v-184q88 -8 161 -41q68 -31 123 -78q51 -45 86 -109q33 -59 45 -129l-282 -14q-6 39 -22.5 76t-45.5 61q-27 23 -63 39q-35 14 -84 14q-123 0 -189 -92q-63 -90 -63 -256q0 -174 67 -266 q66 -90 187 -90q89 0 147 55q59 55 74 154l283 -12q-8 -63 -41 -131q-29 -59 -84 -115q-49 -49 -129 -86q-70 -33 -170 -45v-191h-162v189q-113 12 -199 55q-84 43 -143 111q-55 63 -84 159.5t-29 202.5z" />
<glyph unicode="&#xa3;" d="M20 604v170h179v248q0 92 24 168q25 78 76 129q55 55 131 82q82 29 195 29q100 0 163 -21q76 -25 117 -57q45 -35 78 -92q31 -51 49 -121l-233 -47q-23 80 -62 112q-41 35 -106 35q-92 0 -131 -57q-41 -59 -41 -183v-225h286v-170h-286v-90q0 -59 -13 -106 q-10 -41 -34 -82q-20 -35 -58 -66q-27 -23 -78 -51h381q104 0 158 49q51 49 70 143l233 -39q-12 -76 -43 -139q-31 -66 -80 -114q-51 -51 -114.5 -80t-155.5 -29h-692v205q16 8 71 49q34 25 56 61q29 49 37 82q12 49 12 115v92h-189z" />
<glyph unicode="&#xa4;" d="M57 328l136 137q-28 49 -43 104q-16 59 -17 115q0 57 17 117q14 47 45 104l-134 133l156 156l131 -133q49 28 105 43q59 16 116 16q63 0 115 -14q47 -14 104 -45l136 135l157 -158l-137 -135q31 -57 45 -104q16 -59 16.5 -114.5t-16.5 -115.5q-14 -51 -43 -102l135 -133 l-157 -160l-133 135q-102 -59 -222 -59q-66 0 -116 14q-55 15 -105 43l-135 -137zM360 686q0 -43 17 -82q14 -35 45 -65.5t65 -44.5q39 -16 82 -17q41 0 80 17q35 14 65.5 44.5t45.5 65.5q16 39 16 82t-16 82q-14 35 -45 65.5t-66 45.5q-39 16 -80 16q-43 0 -82 -16 q-35 -14 -65.5 -45t-44.5 -66q-17 -39 -17 -82z" />
<glyph unicode="&#xa5;" d="M8 1409h289l270 -596l275 596h288l-364 -719h276v-145h-337v-162h337v-147h-337v-236h-273v236h-336v147h336l2 162h-338v145h277z" />
<glyph unicode="&#xa6;" horiz-adv-x="571" d="M156 324h262v-779h-262v779zM156 676v778h262v-778h-262z" />
<glyph unicode="&#xa7;" d="M53 59l238 37q12 -47 33 -76q18 -25 57 -47q33 -18 78 -24q57 -8 96 -8q123 0 186.5 32.5t63.5 112.5q0 45 -23 74q-23 31 -61 49q-43 23 -107 37l-145 37q-61 14 -131 36q-61 18 -121 60q-49 33 -90 90q-37 51 -37 131q0 45 16 88q16 41 44 72t67 55q47 29 86 41 q-37 14 -72 41q-37 27 -59 57q-29 39 -41 72q-14 37 -14 88q0 147 116 232q115 82 342 81q82 0 164 -16q78 -16 135 -47q59 -33 100.5 -86t55.5 -125l-237 -25q-6 29 -27 58q-18 23 -49 41q-31 16 -64 22q-49 8 -78 8q-113 0 -165 -30q-51 -31 -52 -94q0 -37 23 -66 q20 -27 61 -45q51 -25 90 -33q12 -2 49 -12t60 -14q82 -18 162 -43q76 -25 131 -62q59 -39 90 -90q33 -53 33 -133q0 -39 -15 -86q-10 -35 -38 -74q-25 -34 -62 -61t-84 -43q53 -25 76 -41q31 -23 57 -56q23 -27 35 -69q14 -47 14 -90q0 -74 -28 -142q-27 -59 -90 -108 q-61 -45 -152 -70q-92 -25 -215 -24q-98 0 -186 16q-86 16 -146 47q-61 33 -106 90q-41 53 -64 135zM334 627q0 -41 22.5 -65.5t65.5 -45.5q40 -18 92 -31q14 -4 51 -13t58 -13q53 4 77 10q43 10 62 25q27 20 41 42.5t14 63.5q0 39 -14 66q-12 25 -53 47q-39 23 -91 37 q-53 14 -133 30q-98 -12 -143 -47q-49 -36 -49 -106z" />
<glyph unicode="&#xa8;" horiz-adv-x="681" d="M16 1198v219h213v-219h-213zM451 1198v219h217v-219h-217z" />
<glyph unicode="&#xa9;" horiz-adv-x="1507" d="M33 707q0 100 24 192q23 82 74 172q47 82 112.5 147.5t147.5 112.5q90 51 172 74q92 25 193 25q152 0 280 -58q135 -59 230 -153q102 -102 155 -230q57 -137 58 -282q0 -92 -27 -193q-23 -82 -74 -172q-47 -82 -112 -147q-63 -63 -146 -111q-90 -51 -172 -74 q-100 -27 -192 -26.5t-193 26.5q-82 23 -172 74q-80 46 -147 111q-61 59 -113 147q-51 90 -74 172q-24 93 -24 193zM147 707q0 -131 48 -238q51 -115 131 -195q82 -82 192 -131q106 -47 237.5 -47t237.5 47q115 51 195 131t131 195q47 106 47 237.5t-47 237.5 q-49 111 -131 193q-80 80 -195 131q-106 47 -237 47q-82 0 -162 -23q-78 -23 -145 -61q-70 -41 -123 -94q-57 -57 -97 -123q-39 -68 -61 -146q-21 -73 -21 -161zM365 709q0 104 22 174q25 77 74 129q55 59 123 84q76 29 176 28q77 0 135 -18q51 -16 100 -51q43 -31 70 -72 q31 -49 47 -88l-156 -41q-8 20 -26 47q-18 25 -39 41q-25 18 -55 31q-25 10 -72 10q-53 0 -100 -20q-39 -16 -68 -56q-27 -35 -39 -86q-12 -49 -12 -112q0 -61 12 -112.5t41 -90.5q29 -37 72 -60q41 -20 98 -20q43 0 74 12q29 12 55 35q25 23 41 47q20 33 27 49l159 -47 q-22 -43 -49 -86t-69 -76q-43 -35 -101 -55q-55 -20 -137 -20q-98 0 -180 32q-72 29 -125 89q-51 57 -76 133q-22 70 -22 170z" />
<glyph unicode="&#xaa;" horiz-adv-x="757" d="M45 928q0 57 22.5 98t61.5 66q43 27 92 34q70 12 109 13l145 2v41q0 43 -6 57q-12 29 -23 37q-20 16 -32.5 20t-40.5 4q-16 0 -41 -4q-12 -2 -33 -14q-14 -8 -25 -29q-12 -23 -14 -47l-190 11q9 43 30 79q20 37 58 64q35 27 92 43q55 16 121 16q70 0 118 -14 q59 -18 91 -43q35 -29 57 -74q20 -41 20 -104v-238q0 -45 11 -72q8 -25 41 -24h12q2 0 6 1t6 1t7 1t8 1h10v-109q-4 0 -60 -12q-31 -6 -59 -6q-71 0 -111 37q-41 39 -47 98h-2q-33 -61 -90 -100q-55 -37 -133 -37q-94 0 -154 53q-57 52 -57 150zM233 940q0 -39 23 -61.5 t72 -22.5q37 0 63 14q23 12 45.5 39t30.5 51.5t8 57.5v26l-90 -2q-23 0 -59 -4q-18 -2 -47 -14q-16 -8 -33 -31q-13 -18 -13 -53z" />
<glyph unicode="&#xab;" d="M92 502v71l258 367h236v-37l-254 -366l256 -361v-35h-238zM551 502v71l256 367h237v-37l-253 -366l256 -361v-35h-240z" />
<glyph unicode="&#xac;" horiz-adv-x="1193" d="M84 569v224h1026v-652h-223v428h-803z" />
<glyph unicode="&#xad;" horiz-adv-x="681" d="M80 410v243h520v-243h-520z" />
<glyph unicode="&#xae;" horiz-adv-x="1507" d="M33 707q0 100 24 192q23 82 74 172q47 82 112.5 147.5t147.5 112.5q90 51 172 74q92 25 193 25q152 0 280 -58q135 -59 230 -153q102 -102 155 -230q57 -137 58 -282q0 -92 -27 -193q-23 -82 -74 -172q-47 -82 -112 -147q-63 -63 -146 -111q-90 -51 -172 -74 q-100 -27 -192 -26.5t-193 26.5q-82 23 -172 74q-80 46 -147 111q-61 59 -113 147q-51 90 -74 172q-24 93 -24 193zM147 707q0 -131 48 -238q51 -115 131 -195q82 -82 192 -131q106 -47 237.5 -47t237.5 47q115 51 195 131t131 195q47 106 47 237.5t-47 237.5 q-49 111 -131 193q-80 80 -195 131q-106 47 -237 47q-82 0 -162 -23q-78 -23 -145 -61q-70 -41 -123 -94q-57 -57 -97 -123q-39 -68 -61 -146q-21 -73 -21 -161zM451 297v815h329q152 0 230 -65q76 -63 75 -177q0 -95 -49 -153q-51 -59 -125 -84l213 -336h-200l-179 313 h-116v-313h-178zM629 739h143q68 0 100.5 35t32.5 94q0 55 -37 86t-106 31h-133v-246z" />
<glyph unicode="&#xaf;" horiz-adv-x="1130" d="M-16 1452v94h1165v-94h-1165z" />
<glyph unicode="&#xb0;" horiz-adv-x="817" d="M90 1110q0 66 25 125q23 53 69 100q41 41 100.5 65.5t125 24.5t125.5 -24q63 -27 102 -66q43 -43 68 -100q27 -63 26 -125q0 -59 -26 -123q-25 -57 -68 -100t-102.5 -67.5t-125 -24.5t-124.5 24q-57 25 -101 68q-47 47 -69 100q-25 58 -25 123zM244 1110q0 -35 12 -66 q10 -27 37 -53q25 -25 51 -35q37 -14 65.5 -14t65.5 14q27 10 51 35q23 23 35 53.5t12 65.5t-12 65.5t-35 53.5q-25 25 -51 35q-31 12 -65.5 12t-65.5 -12q-27 -10 -51 -35q-27 -27 -37 -53q-12 -31 -12 -66z" />
<glyph unicode="&#xb1;" horiz-adv-x="1122" d="M49 0v223h1026v-223h-1026zM49 707v223h402v340h223v-340h401v-223h-401v-340h-223v340h-402z" />
<glyph unicode="&#xb2;" horiz-adv-x="681" d="M51 815q27 57 62 94q39 43 80 72q76 53 83 59l76 51.5t56 55.5q20 27 20 61q0 39 -20 66q-18 25 -62 24q-84 0 -94 -98l-195 6q6 43 29 86q20 39 57 70q35 29 86 47q47 16 117 16t125 -16q52 -15 86 -43q33 -27 51.5 -65.5t18.5 -83.5q0 -53 -22.5 -94.5t-55.5 -71.5 q-33 -29 -76 -58l-38.5 -26.5t-41.5 -26.5q-33 -20 -71 -51q-27 -23 -46 -58h363v-137h-586z" />
<glyph unicode="&#xb3;" horiz-adv-x="681" d="M43 893l190 10q6 -43 33 -67q29 -25 80 -25t76 23q27 25 27 73q0 31 -12.5 49.5t-35 28.5t-45.5 12q-16 2 -47 2h-55v127h51q16 0 45 4q16 2 41 15q16 8 28.5 26.5t12.5 45.5q0 39 -22 61q-20 20 -68 20q-43 0 -66 -20q-25 -22 -30 -68l-187 13q6 47 31 88q27 43 64 65 q41 25 88 37q49 12 106 12q70 0 119 -14q51 -14 84 -39q29 -20 51 -61q16 -31 16 -74q0 -61 -36.5 -108.5t-114.5 -61.5v-2q47 -6 78 -21q27 -12 53 -38q20 -20 30.5 -51t10.5 -60q0 -98 -76 -156q-74 -55 -213 -55q-86 0 -141 18q-59 20 -92 48q-37 31 -51 65 q-17 41 -23 78z" />
<glyph unicode="&#xb4;" horiz-adv-x="681" d="M86 1184v30l254 287h258v-43l-342 -274h-170z" />
<glyph unicode="&#xb5;" horiz-adv-x="1179" d="M133 -426v1507h283v-604q0 -70 8 -117q10 -61 27 -88q25 -41 53 -59q33 -20 86 -20q49 0 84 22q33 20 55 64q22 40 31 98q8 51 8 127v577h281v-839v-70q0 -12 1 -35.5t1 -34.5q0 -12 2 -32.5t2 -28.5q0 -10 1 -23.5t1 -17.5h-269q0 10 -3 25.5t-5 35.5q-4 27 -4 82h-4 q-20 -53 -39 -80q-23 -33 -47 -51t-53 -24q-37 -8 -62 -8q-52 0 -92 24q-45 27 -63 66h-4q2 -20 2 -60q0 -10 1 -28.5t1 -26.5v-381h-283z" />
<glyph unicode="&#xb6;" d="M72 1049q0 84 24 151q23 63 72 113q45 45 117 71q68 25 157 25h629v-143h-131v-1530h-156v1530h-194v-1530h-156v958q-76 0 -147 23q-63 20 -115 65q-43 37 -74 113q-26 66 -26 154z" />
<glyph unicode="&#xb7;" horiz-adv-x="567" d="M141 530v306h287v-306h-287z" />
<glyph unicode="&#x2219;" horiz-adv-x="567" d="M141 530v306h287v-306h-287z" />
<glyph unicode="&#xb8;" horiz-adv-x="681" d="M96 -301q25 -6 45 -6h39q76 0 106.5 18.5t30.5 48.5q0 35 -28 54q-25 16 -94 16h-25q-16 0 -27 -2l62 172h143l-33 -82q94 -6 139.5 -45t45.5 -109q0 -43 -15 -73q-16 -37 -51 -60q-41 -27 -94 -41q-61 -16 -143 -16q-45 0 -101 6v119z" />
<glyph unicode="&#xb9;" horiz-adv-x="681" d="M82 694v121h184v467l-174 -106v120l180 117h177v-598h169v-121h-536z" />
<glyph unicode="&#xba;" horiz-adv-x="747" d="M45 1073q0 78 21 139q23 66 61 109q47 49 104 72q70 27 148 26q82 0 151 -26q63 -25 105 -72q43 -49 59 -109q18 -66 19 -139q0 -80 -21 -141q-20 -63 -65 -111q-47 -49 -105 -71q-65 -25 -147 -25q-80 0 -142 25q-59 25 -104 71q-41 45 -63 111q-21 61 -21 141z M244 1073q0 -66 8 -100q10 -41 27 -64q20 -27 43 -35q27 -10 53 -10q31 0 57.5 10.5t44.5 34.5q16 23 27 64q8 35 8 100q0 63 -8 98t-25 62q-14 23 -40.5 33t-57.5 10q-33 0 -59.5 -10.5t-43 -33t-26.5 -63.5q-8 -35 -8 -96z" />
<glyph unicode="&#xbb;" d="M92 141v35l256 361l-254 366v37h240l256 -367v-71l-256 -361h-242zM553 141v35l256 361l-254 366v37h236l258 -367v-71l-258 -361h-238z" />
<glyph unicode="&#xbc;" horiz-adv-x="1705" d="M94 694v121h184v467l-174 -106v120l180 117h177v-598h169v-121h-536zM344 0l895 1409h201l-895 -1409h-201zM981 142v147l315 432h211v-438h105v-141h-105v-140h-182v140h-344zM1122 283h203v192v23q0 6 1 16.5t1 14.5t1 14t1 16v25q-3 -3 -12 -19q-8 -16 -19 -34 q-4 -6 -11 -18.5t-9 -14.5l-15 -23z" />
<glyph unicode="&#xbd;" horiz-adv-x="1705" d="M94 694v121h184v467l-174 -106v120l180 117h177v-598h169v-121h-536zM323 0l895 1409h201l-895 -1409h-201zM1024 121q27 57 62 94q39 43 80 72q76 53 83 59l76 51.5t56 55.5q20 27 20 61q0 39 -20 66q-18 25 -62 24q-84 0 -94 -98l-195 6q6 43 29 86q20 39 57 70 q35 29 86 47q47 16 117 16t125 -16q52 -15 86 -43q33 -27 51.5 -65.5t18.5 -83.5q0 -53 -22.5 -94.5t-55.5 -71.5q-33 -29 -76 -58l-38.5 -26.5t-41.5 -26.5q-33 -20 -71 -51q-27 -23 -46 -58h363v-137h-586z" />
<glyph unicode="&#xbe;" horiz-adv-x="1705" d="M344 0l895 1409h201l-895 -1409h-201zM981 142v147l315 432h211v-438h105v-141h-105v-140h-182v140h-344zM1122 283h203v192v23q0 6 1 16.5t1 14.5t1 14t1 16v25q-3 -3 -12 -19q-8 -16 -19 -34q-4 -6 -11 -18.5t-9 -14.5l-15 -23zM102 893l190 10q6 -43 33 -67 q29 -25 80 -25t76 23q27 25 27 73q0 31 -12.5 49.5t-35 28.5t-45.5 12q-16 2 -47 2h-55v127h51q16 0 45 4q16 2 41 15q16 8 28.5 26.5t12.5 45.5q0 39 -22 61q-20 20 -68 20q-43 0 -66 -20q-25 -22 -30 -68l-187 13q6 47 31 88q27 43 64 65q41 25 88 37q49 12 106 12 q70 0 119 -14q51 -14 84 -39q29 -20 51 -61q16 -31 16 -74q0 -61 -36.5 -108.5t-114.5 -61.5v-2q47 -6 78 -21q27 -12 53 -38q20 -20 30.5 -51t10.5 -60q0 -98 -76 -156q-74 -55 -213 -55q-86 0 -141 18q-59 20 -92 48q-37 31 -51 65q-17 41 -23 78z" />
<glyph unicode="&#xbf;" horiz-adv-x="1249" d="M115 55q0 74 16 117q18 49 47 90q25 35 66 70q49 41 75 59l78 55q41 31 68 57.5t47 67.5q20 39 23 84h266q-6 -82 -37 -143t-76 -106q-47 -47 -96 -82q-59 -43 -94 -72q-45 -39 -72 -80q-29 -45 -29 -104q0 -88 57.5 -139.5t163.5 -51.5q49 0 95 17q41 14 75 43 q31 25 54 67q20 37 26 88l285 -10q-12 -92 -49 -168t-103 -135q-65 -58 -159 -92q-98 -35 -219 -35q-117 0 -215 29q-95 28 -160 79q-63 51 -98 127t-35 168zM520 811v270h289v-270h-289z" />
<glyph unicode="&#xc0;" horiz-adv-x="1478" d="M51 0l514 1409h348l512 -1409h-292l-125 360h-537l-125 -360h-295zM537 582h405l-139 405q-6 16 -11.5 34.5t-11.5 35.5l-20 65q-12 43 -15 49q-6 18 -6 21q0 -4 -6 -23q-2 -6 -6 -21t-8 -26l-8 -30.5t-11 -34.5l-24 -70zM428 1772v43h258l252 -254v-31h-170z" />
<glyph unicode="&#xc1;" horiz-adv-x="1478" d="M51 0l514 1409h348l512 -1409h-292l-125 360h-537l-125 -360h-295zM537 582h405l-139 405q-6 16 -11.5 34.5t-11.5 35.5l-20 65q-12 43 -15 49q-6 18 -6 21q0 -4 -6 -23q-2 -6 -6 -21t-8 -26l-8 -30.5t-11 -34.5l-24 -70zM571 1530v31l254 254h258v-43l-342 -242h-170z " />
<glyph unicode="&#xc2;" horiz-adv-x="1478" d="M51 0l514 1409h348l512 -1409h-292l-125 360h-537l-125 -360h-295zM537 582h405l-139 405q-6 16 -11.5 34.5t-11.5 35.5l-20 65q-12 43 -15 49q-6 18 -6 21q0 -4 -6 -23q-2 -6 -6 -21t-8 -26l-8 -30.5t-11 -34.5l-24 -70zM370 1530v29l258 276h230l250 -276v-29h-160 l-203 151h-4l-211 -151h-160z" />
<glyph unicode="&#xc3;" horiz-adv-x="1478" d="M51 0l514 1409h348l512 -1409h-292l-125 360h-537l-125 -360h-295zM537 582h405l-139 405q-6 16 -11.5 34.5t-11.5 35.5l-20 65q-12 43 -15 49q-6 18 -6 21q0 -4 -6 -23q-2 -6 -6 -21t-8 -26l-8 -30.5t-11 -34.5l-24 -70zM348 1530q4 61 10 96q10 53 33 94q29 49 65 74 q45 29 117 29q45 0 90 -19q37 -14 86 -43l40 -21l40 -22q37 -18 66 -18q27 0 41 8q16 10 28 25q8 10 17 39q4 14 12 51h135q-4 -61 -10 -97q-8 -51 -31 -94q-23 -47 -65 -73q-45 -29 -117 -29q-45 0 -88 18.5t-86 43t-80 43t-68 18.5q-27 0 -43 -8q-20 -10 -28 -25 q-10 -16 -17 -39q-2 -8 -5 -25.5t-5 -25.5h-137z" />
<glyph unicode="&#xc4;" horiz-adv-x="1478" d="M51 0l514 1409h348l512 -1409h-292l-125 360h-537l-125 -360h-295zM537 582h405l-139 405q-6 16 -11.5 34.5t-11.5 35.5l-20 65q-12 43 -15 49q-6 18 -6 21q0 -4 -6 -23q-2 -6 -6 -21t-8 -26l-8 -30.5t-11 -34.5l-24 -70zM413 1530v219h195v-219h-195zM868 1530v219h197 v-219h-197z" />
<glyph unicode="&#xc5;" horiz-adv-x="1478" d="M51 0l514 1409h348l512 -1409h-292l-125 360h-537l-125 -360h-295zM537 582h405l-139 405q-6 16 -11.5 34.5t-11.5 35.5l-20 65q-12 43 -15 49q-6 18 -6 21q0 -4 -6 -23q-2 -6 -6 -21t-8 -26l-8 -30.5t-11 -34.5l-24 -70zM485 1553q0 55 20 98q23 49 54 80q33 33 82 55 q43 20 98 20.5t98 -20.5q49 -23 82 -55q31 -31 53 -80q20 -43 21 -98q0 -57 -21 -101q-23 -49 -53 -80q-37 -37 -82 -55q-46 -18 -98 -18t-98 18q-45 18 -82 55q-31 31 -54 80q-20 44 -20 101zM614 1553q0 -25 10 -52q8 -23 27 -41q16 -16 39 -26q25 -10 49 -10q23 0 49 10 q23 8 41 26.5t27 40.5q10 27 10 52q0 23 -10.5 47t-26.5 41q-18 18 -41 26q-27 10 -49 11q-25 0 -49 -11q-23 -10 -39.5 -26.5t-26.5 -40.5t-10 -47z" />
<glyph unicode="&#xc6;" horiz-adv-x="2048" d="M4 0l701 1409h1222v-227h-700v-355h639v-221h-639v-379h741v-227h-1036v360h-451l-172 -360h-305zM584 582h348v610h-62q-4 -8 -16 -37q-6 -14 -14.5 -29.5t-14.5 -31.5l-10 -23.5t-9 -20l-11 -22.5q-14 -31 -21 -45z" />
<glyph unicode="&#xc7;" horiz-adv-x="1478" d="M84 711q0 166 43 299t129 225q92 98 217 145q133 49 309 50q133 0 242 -29q94 -25 178 -82q76 -51 125 -123q51 -72 78 -158l-260 -71q-12 39 -43 86q-25 39 -74 73q-47 35 -104 52q-68 20 -136 20q-104 0 -184 -35q-78 -35 -127 -98q-45 -59 -71 -154q-25 -88 -25 -200 q0 -109 25 -201q27 -98 71 -158q51 -66 129 -102q80 -37 189 -37q86 0 143 23q66 27 106 61q43 37 74 86q27 43 47 96l258 -96q-27 -68 -82 -150q-47 -70 -124 -129q-76 -57 -179 -90q-109 -35 -243 -34q-182 0 -318 55q-137 57 -221 151q-88 100 -129 232q-43 135 -43 293z M585 -301q25 -6 45 -6h39q76 0 106.5 18.5t30.5 48.5q0 35 -28 54q-25 16 -94 16h-25q-16 0 -27 -2l62 172h143l-33 -82q94 -6 139.5 -45t45.5 -109q0 -43 -15 -73q-16 -37 -51 -60q-41 -27 -94 -41q-61 -16 -143 -16q-45 0 -101 6v119z" />
<glyph unicode="&#xc8;" horiz-adv-x="1363" d="M137 0v1409h1108v-227h-813v-355h752v-229h-752v-371h854v-227h-1149zM395 1772v43h258l252 -254v-31h-170z" />
<glyph unicode="&#xc9;" horiz-adv-x="1363" d="M137 0v1409h1108v-227h-813v-355h752v-229h-752v-371h854v-227h-1149zM516 1530v31l254 254h258v-43l-342 -242h-170z" />
<glyph unicode="&#xca;" horiz-adv-x="1363" d="M137 0v1409h1108v-227h-813v-355h752v-229h-752v-371h854v-227h-1149zM344 1530v29l258 276h230l250 -276v-29h-160l-203 151h-4l-211 -151h-160z" />
<glyph unicode="&#xcb;" horiz-adv-x="1363" d="M137 0v1409h1108v-227h-813v-355h752v-229h-752v-371h854v-227h-1149zM385 1530v219h195v-219h-195zM840 1530v219h197v-219h-197z" />
<glyph unicode="&#xcc;" horiz-adv-x="567" d="M137 0v1409h295v-1409h-295zM-41 1772v43h258l252 -254v-31h-170z" />
<glyph unicode="&#xcd;" horiz-adv-x="567" d="M137 0v1409h295v-1409h-295zM102 1530v31l254 254h258v-43l-342 -242h-170z" />
<glyph unicode="&#xce;" horiz-adv-x="567" d="M137 0v1409h295v-1409h-295zM-84 1530v29l258 276h230l250 -276v-29h-160l-203 151h-4l-211 -151h-160z" />
<glyph unicode="&#xcf;" horiz-adv-x="567" d="M137 0v1409h295v-1409h-295zM-41 1530v219h195v-219h-195zM414 1530v219h197v-219h-197z" />
<glyph unicode="&#xd0;" horiz-adv-x="1478" d="M8 594v219h129v596h510q160 0 301 -41q135 -39 235.5 -127t153.5 -215q55 -133 56 -311q0 -174 -54 -309q-53 -133 -145 -224q-96 -92 -217 -137q-123 -45 -270 -45h-570v594h-129zM432 231h250q88 0 164 31q78 31 131 90q57 63 88 152q31 90 31 211q0 127 -33 211 q-35 90 -94.5 143t-143.5 82q-80 27 -184 27h-209v-365h356v-219h-356v-363z" />
<glyph unicode="&#xd1;" horiz-adv-x="1478" d="M137 0v1409h336l625 -1094q-8 57 -11 88q-4 45 -6 89q-2 33 -2 98v819h262v-1409h-346l-614 1085q4 -27 8 -88q0 -10 3 -37.5l5 -44.5q2 -29 2 -84v-831h-262zM348 1530q4 61 10 96q10 53 33 94q29 49 65 74q45 29 117 29q45 0 90 -19q37 -14 86 -43l40 -21l40 -22 q37 -18 66 -18q27 0 41 8q16 10 28 25q8 10 17 39q4 14 12 51h135q-4 -61 -10 -97q-8 -51 -31 -94q-23 -47 -65 -73q-45 -29 -117 -29q-45 0 -88 18.5t-86 43t-80 43t-68 18.5q-27 0 -43 -8q-20 -10 -28 -25q-10 -16 -17 -39q-2 -8 -5 -25.5t-5 -25.5h-137z" />
<glyph unicode="&#xd2;" horiz-adv-x="1591" d="M84 711q0 164 47 299q45 131 137 225q94 98 224 145q131 49 303 50q176 0 305 -52q141 -55 223 -143q92 -98 137 -227q47 -135 47 -297q0 -164 -49 -299q-49 -137 -141 -231.5t-225 -147.5q-135 -53 -299 -53q-178 0 -310 55q-135 57 -221 151q-92 100 -133 232 q-45 141 -45 293zM381 711q0 -113 27 -201q29 -98 77 -158q53 -66 129 -102q77 -37 179 -37q109 0 186 37q82 39 129 104q49 70 74 158q25 92 24 199q0 115 -26 200q-29 94 -78 154q-52 65 -129 98q-80 35 -178 35q-100 0 -181 -35q-77 -34 -129 -98q-53 -66 -77 -154 q-27 -96 -27 -200zM547 1772v43h258l252 -254v-31h-170z" />
<glyph unicode="&#xd3;" horiz-adv-x="1591" d="M84 711q0 164 47 299q45 131 137 225q94 98 224 145q131 49 303 50q176 0 305 -52q141 -55 223 -143q92 -98 137 -227q47 -135 47 -297q0 -164 -49 -299q-49 -137 -141 -231.5t-225 -147.5q-135 -53 -299 -53q-178 0 -310 55q-135 57 -221 151q-92 100 -133 232 q-45 141 -45 293zM381 711q0 -113 27 -201q29 -98 77 -158q53 -66 129 -102q77 -37 179 -37q109 0 186 37q82 39 129 104q49 70 74 158q25 92 24 199q0 115 -26 200q-29 94 -78 154q-52 65 -129 98q-80 35 -178 35q-100 0 -181 -35q-77 -34 -129 -98q-53 -66 -77 -154 q-27 -96 -27 -200zM625 1530v31l254 254h258v-43l-342 -242h-170z" />
<glyph unicode="&#xd4;" horiz-adv-x="1591" d="M84 711q0 164 47 299q45 131 137 225q94 98 224 145q131 49 303 50q176 0 305 -52q141 -55 223 -143q92 -98 137 -227q47 -135 47 -297q0 -164 -49 -299q-49 -137 -141 -231.5t-225 -147.5q-135 -53 -299 -53q-178 0 -310 55q-135 57 -221 151q-92 100 -133 232 q-45 141 -45 293zM381 711q0 -113 27 -201q29 -98 77 -158q53 -66 129 -102q77 -37 179 -37q109 0 186 37q82 39 129 104q49 70 74 158q25 92 24 199q0 115 -26 200q-29 94 -78 154q-52 65 -129 98q-80 35 -178 35q-100 0 -181 -35q-77 -34 -129 -98q-53 -66 -77 -154 q-27 -96 -27 -200zM426 1530v29l258 276h230l250 -276v-29h-160l-203 151h-4l-211 -151h-160z" />
<glyph unicode="&#xd5;" horiz-adv-x="1591" d="M84 711q0 164 47 299q45 131 137 225q94 98 224 145q131 49 303 50q176 0 305 -52q141 -55 223 -143q92 -98 137 -227q47 -135 47 -297q0 -164 -49 -299q-49 -137 -141 -231.5t-225 -147.5q-135 -53 -299 -53q-178 0 -310 55q-135 57 -221 151q-92 100 -133 232 q-45 141 -45 293zM381 711q0 -113 27 -201q29 -98 77 -158q53 -66 129 -102q77 -37 179 -37q109 0 186 37q82 39 129 104q49 70 74 158q25 92 24 199q0 115 -26 200q-29 94 -78 154q-52 65 -129 98q-80 35 -178 35q-100 0 -181 -35q-77 -34 -129 -98q-53 -66 -77 -154 q-27 -96 -27 -200zM397 1530q4 61 10 96q10 53 33 94q29 49 65 74q45 29 117 29q45 0 90 -19q37 -14 86 -43l40 -21l40 -22q37 -18 66 -18q27 0 41 8q16 10 28 25q8 10 17 39q4 14 12 51h135q-4 -61 -10 -97q-8 -51 -31 -94q-23 -47 -65 -73q-45 -29 -117 -29 q-45 0 -88 18.5t-86 43t-80 43t-68 18.5q-27 0 -43 -8q-20 -10 -28 -25q-10 -16 -17 -39q-2 -8 -5 -25.5t-5 -25.5h-137z" />
<glyph unicode="&#xd6;" horiz-adv-x="1591" d="M84 711q0 164 47 299q45 131 137 225q94 98 224 145q131 49 303 50q176 0 305 -52q141 -55 223 -143q92 -98 137 -227q47 -135 47 -297q0 -164 -49 -299q-49 -137 -141 -231.5t-225 -147.5q-135 -53 -299 -53q-178 0 -310 55q-135 57 -221 151q-92 100 -133 232 q-45 141 -45 293zM381 711q0 -113 27 -201q29 -98 77 -158q53 -66 129 -102q77 -37 179 -37q109 0 186 37q82 39 129 104q49 70 74 158q25 92 24 199q0 115 -26 200q-29 94 -78 154q-52 65 -129 98q-80 35 -178 35q-100 0 -181 -35q-77 -34 -129 -98q-53 -66 -77 -154 q-27 -96 -27 -200zM469 1530v219h195v-219h-195zM924 1530v219h197v-219h-197z" />
<glyph unicode="&#xd7;" horiz-adv-x="1193" d="M86 326l356 358l-352 352l158 156l352 -350l352 352l158 -158l-352 -354l352 -350l-158 -160l-352 354l-356 -358z" />
<glyph unicode="&#xd8;" horiz-adv-x="1591" d="M84 711q0 164 47 299q45 131 137 225q94 98 224 145q131 49 303 50q102 0 192 -19q76 -16 162 -55l82 117h192l-141 -203q111 -94 168 -236q57 -139 57 -323q0 -164 -49 -299q-51 -139 -139 -232q-92 -94 -225 -147q-135 -53 -301 -53q-211 0 -361 77l-90 -129l-195 -2 l154 219q-109 98 -164 244q-53 140 -53 322zM381 711q0 -102 20 -183q23 -88 64 -149l539 768q-55 29 -97 39q-51 12 -112 12q-100 0 -181 -35q-77 -34 -129 -98q-53 -66 -77 -154q-27 -96 -27 -200zM580 266q45 -27 96 -41q49 -14 117 -14q106 0 186 37t129 104 q53 72 76 160q23 84 22 199q0 102 -20 182q-20 82 -66 145z" />
<glyph unicode="&#xd9;" horiz-adv-x="1478" d="M123 528v881h295v-858q0 -86 22 -154q20 -59 64 -106q37 -41 98 -60q66 -20 129 -20q74 0 133.5 20.5t102.5 63.5t67 108q25 63 25 158v848h295v-866q0 -139 -47 -250q-43 -102 -131 -176q-80 -68 -199 -103q-121 -35 -254 -34q-123 0 -242 32q-115 31 -190 97 q-80 68 -123 172q-45 108 -45 247zM416 1772v43h258l252 -254v-31h-170z" />
<glyph unicode="&#xda;" horiz-adv-x="1478" d="M123 528v881h295v-858q0 -86 22 -154q20 -59 64 -106q37 -41 98 -60q66 -20 129 -20q74 0 133.5 20.5t102.5 63.5t67 108q25 63 25 158v848h295v-866q0 -139 -47 -250q-43 -102 -131 -176q-80 -68 -199 -103q-121 -35 -254 -34q-123 0 -242 32q-115 31 -190 97 q-80 68 -123 172q-45 108 -45 247zM592 1530v31l254 254h258v-43l-342 -242h-170z" />
<glyph unicode="&#xdb;" horiz-adv-x="1478" d="M123 528v881h295v-858q0 -86 22 -154q20 -59 64 -106q37 -41 98 -60q66 -20 129 -20q74 0 133.5 20.5t102.5 63.5t67 108q25 63 25 158v848h295v-866q0 -139 -47 -250q-43 -102 -131 -176q-80 -68 -199 -103q-121 -35 -254 -34q-123 0 -242 32q-115 31 -190 97 q-80 68 -123 172q-45 108 -45 247zM368 1530v29l258 276h230l250 -276v-29h-160l-203 151h-4l-211 -151h-160z" />
<glyph unicode="&#xdc;" horiz-adv-x="1478" d="M123 528v881h295v-858q0 -86 22 -154q20 -59 64 -106q37 -41 98 -60q66 -20 129 -20q74 0 133.5 20.5t102.5 63.5t67 108q25 63 25 158v848h295v-866q0 -139 -47 -250q-43 -102 -131 -176q-80 -68 -199 -103q-121 -35 -254 -34q-123 0 -242 32q-115 31 -190 97 q-80 68 -123 172q-45 108 -45 247zM411 1530v219h195v-219h-195zM866 1530v219h197v-219h-197z" />
<glyph unicode="&#xdd;" horiz-adv-x="1363" d="M35 1409h309l338 -596l342 596h309l-502 -831v-578h-294v578zM522 1530v31l254 254h258v-43l-342 -242h-170z" />
<glyph unicode="&#xde;" horiz-adv-x="1363" d="M137 0v1409h295v-233h338q135 0 233.5 -31t163.5 -90q68 -59 97 -137q33 -86 32 -181q0 -90 -30 -174q-31 -82 -95 -143q-70 -68 -159 -101q-98 -37 -230 -36h-350v-283h-295zM432 492h313q66 0 113 18q53 20 80 51q29 33 45 76q16 45 16 96q0 111 -65 172t-197 62h-305 v-475z" />
<glyph unicode="&#xdf;" horiz-adv-x="1249" d="M143 0v1008q0 115 29 198q31 88 92 150q59 59 156 94q94 35 219 35q111 0 197 -29q88 -29 139 -72t80 -106q27 -59 26 -129q0 -51 -16 -96q-14 -39 -41 -76q-25 -34 -55 -62l-54 -49q-27 -25 -41 -43q-18 -27 -18 -41q0 -27 27 -53q20 -20 61 -51l80 -60q51 -41 82 -75 q37 -43 61 -99q27 -59 27 -133q0 -70 -23 -133q-20 -59 -69 -104t-121 -70q-74 -25 -174 -24q-66 0 -137 10q-53 8 -125 33v206q33 -16 53 -22l61 -19q20 -6 62 -14q20 -4 55 -4q80 0 119 35q37 34 37 92q0 43 -27 80q-23 31 -61 63q-25 20 -82 58q-45 29 -82 65 q-35 35 -62 84q-25 45 -24 113q0 43 16 80q16 35 41 63q33 39 54 55q37 33 53 52q29 31 41 57q16 33 16 72q0 63 -45 102t-135 39q-102 0 -158 -63q-53 -61 -53 -203v-1014h-281z" />
<glyph unicode="&#xe0;" d="M51 305q0 96 35 162q37 70 90 106q59 41 138 60q77 18 165 18l234 4v56q0 45 -12 98q-10 45 -29 65q-23 27 -51 35q-35 10 -68 11q-34 0 -61 -7q-25 -6 -47 -24q-20 -18 -33 -47q-12 -33 -19 -74l-292 12q12 68 45 131q29 53 88 101q55 43 139 67q76 23 192 23 q100 0 180.5 -24.5t135.5 -74t83.5 -123t28.5 -165.5v-396q0 -47 3 -67q2 -23 14 -51q10 -23 26 -31q20 -10 46 -10q31 0 61 6v-152q-12 -2 -22.5 -6t-20.5 -6q-2 0 -41 -6l-43 -6q-14 -2 -51 -2q-109 0 -158 53q-51 53 -59 152h-6q-53 -98 -143.5 -155.5t-213.5 -57.5 q-76 0 -139 22q-66 23 -104 61q-45 45 -66 105q-25 69 -25 137zM344 328q0 -78 37 -115t94 -37q53 0 99 23q39 18 73 61q27 33 47 86q18 49 19 100v56l-146 -2q-53 -4 -83 -8q-45 -6 -72 -23q-31 -18 -49.5 -51t-18.5 -90zM240 1458v43h258l251 -287v-30h-169z" />
<glyph unicode="&#xe1;" d="M51 305q0 96 35 162q37 70 90 106q59 41 138 60q77 18 165 18l234 4v56q0 45 -12 98q-10 45 -29 65q-23 27 -51 35q-35 10 -68 11q-34 0 -61 -7q-25 -6 -47 -24q-20 -18 -33 -47q-12 -33 -19 -74l-292 12q12 68 45 131q29 53 88 101q55 43 139 67q76 23 192 23 q100 0 180.5 -24.5t135.5 -74t83.5 -123t28.5 -165.5v-396q0 -47 3 -67q2 -23 14 -51q10 -23 26 -31q20 -10 46 -10q31 0 61 6v-152q-12 -2 -22.5 -6t-20.5 -6q-2 0 -41 -6l-43 -6q-14 -2 -51 -2q-109 0 -158 53q-51 53 -59 152h-6q-53 -98 -143.5 -155.5t-213.5 -57.5 q-76 0 -139 22q-66 23 -104 61q-45 45 -66 105q-25 69 -25 137zM344 328q0 -78 37 -115t94 -37q53 0 99 23q39 18 73 61q27 33 47 86q18 49 19 100v56l-146 -2q-53 -4 -83 -8q-45 -6 -72 -23q-31 -18 -49.5 -51t-18.5 -90zM375 1184v30l254 287h258v-43l-342 -274h-170z" />
<glyph unicode="&#xe2;" d="M51 305q0 96 35 162q37 70 90 106q59 41 138 60q77 18 165 18l234 4v56q0 45 -12 98q-10 45 -29 65q-23 27 -51 35q-35 10 -68 11q-34 0 -61 -7q-25 -6 -47 -24q-20 -18 -33 -47q-12 -33 -19 -74l-292 12q12 68 45 131q29 53 88 101q55 43 139 67q76 23 192 23 q100 0 180.5 -24.5t135.5 -74t83.5 -123t28.5 -165.5v-396q0 -47 3 -67q2 -23 14 -51q10 -23 26 -31q20 -10 46 -10q31 0 61 6v-152q-12 -2 -22.5 -6t-20.5 -6q-2 0 -41 -6l-43 -6q-14 -2 -51 -2q-109 0 -158 53q-51 53 -59 152h-6q-53 -98 -143.5 -155.5t-213.5 -57.5 q-76 0 -139 22q-66 23 -104 61q-45 45 -66 105q-25 69 -25 137zM344 328q0 -78 37 -115t94 -37q53 0 99 23q39 18 73 61q27 33 47 86q18 49 19 100v56l-146 -2q-53 -4 -83 -8q-45 -6 -72 -23q-31 -18 -49.5 -51t-18.5 -90zM199 1184v26l258 320h229l250 -320v-26h-159 l-203 190h-4l-211 -190h-160z" />
<glyph unicode="&#xe3;" d="M51 305q0 96 35 162q37 70 90 106q59 41 138 60q77 18 165 18l234 4v56q0 45 -12 98q-10 45 -29 65q-23 27 -51 35q-35 10 -68 11q-34 0 -61 -7q-25 -6 -47 -24q-20 -18 -33 -47q-12 -33 -19 -74l-292 12q12 68 45 131q29 53 88 101q55 43 139 67q76 23 192 23 q100 0 180.5 -24.5t135.5 -74t83.5 -123t28.5 -165.5v-396q0 -47 3 -67q2 -23 14 -51q10 -23 26 -31q20 -10 46 -10q31 0 61 6v-152q-12 -2 -22.5 -6t-20.5 -6q-2 0 -41 -6l-43 -6q-14 -2 -51 -2q-109 0 -158 53q-51 53 -59 152h-6q-53 -98 -143.5 -155.5t-213.5 -57.5 q-76 0 -139 22q-66 23 -104 61q-45 45 -66 105q-25 69 -25 137zM344 328q0 -78 37 -115t94 -37q53 0 99 23q39 18 73 61q27 33 47 86q18 49 19 100v56l-146 -2q-53 -4 -83 -8q-45 -6 -72 -23q-31 -18 -49.5 -51t-18.5 -90zM162 1184q2 43 12 96q10 59 31 94q29 49 65 74 q45 29 117 29q39 0 90 -21q47 -18 86 -41q20 -10 39.5 -21.5t40.5 -21.5q37 -18 65 -18q27 0 41 8q16 10 29 24q8 10 16 39q4 14 13 52h135q-4 -61 -10 -97q-10 -53 -31 -96q-23 -43 -66 -72q-45 -29 -116 -28q-45 0 -88 18.5t-86 42.5q-14 8 -80 41q-41 20 -67.5 20.5 t-43.5 -8.5q-20 -10 -28 -24q-10 -16 -17 -39q-2 -8 -5 -25.5t-5 -25.5h-137z" />
<glyph unicode="&#xe4;" d="M51 305q0 96 35 162q37 70 90 106q59 41 138 60q77 18 165 18l234 4v56q0 45 -12 98q-10 45 -29 65q-23 27 -51 35q-35 10 -68 11q-34 0 -61 -7q-25 -6 -47 -24q-20 -18 -33 -47q-12 -33 -19 -74l-292 12q12 68 45 131q29 53 88 101q55 43 139 67q76 23 192 23 q100 0 180.5 -24.5t135.5 -74t83.5 -123t28.5 -165.5v-396q0 -47 3 -67q2 -23 14 -51q10 -23 26 -31q20 -10 46 -10q31 0 61 6v-152q-12 -2 -22.5 -6t-20.5 -6q-2 0 -41 -6l-43 -6q-14 -2 -51 -2q-109 0 -158 53q-51 53 -59 152h-6q-53 -98 -143.5 -155.5t-213.5 -57.5 q-76 0 -139 22q-66 23 -104 61q-45 45 -66 105q-25 69 -25 137zM344 328q0 -78 37 -115t94 -37q53 0 99 23q39 18 73 61q27 33 47 86q18 49 19 100v56l-146 -2q-53 -4 -83 -8q-45 -6 -72 -23q-31 -18 -49.5 -51t-18.5 -90zM231 1198v219h213v-219h-213zM666 1198v219h217 v-219h-217z" />
<glyph unicode="&#xe5;" d="M51 305q0 96 35 162q37 70 90 106q59 41 138 60q77 18 165 18l234 4v56q0 45 -12 98q-10 45 -29 65q-23 27 -51 35q-35 10 -68 11q-34 0 -61 -7q-25 -6 -47 -24q-20 -18 -33 -47q-12 -33 -19 -74l-292 12q12 68 45 131q29 53 88 101q55 43 139 67q76 23 192 23 q100 0 180.5 -24.5t135.5 -74t83.5 -123t28.5 -165.5v-396q0 -47 3 -67q2 -23 14 -51q10 -23 26 -31q20 -10 46 -10q31 0 61 6v-152q-12 -2 -22.5 -6t-20.5 -6q-2 0 -41 -6l-43 -6q-14 -2 -51 -2q-109 0 -158 53q-51 53 -59 152h-6q-53 -98 -143.5 -155.5t-213.5 -57.5 q-76 0 -139 22q-66 23 -104 61q-45 45 -66 105q-25 69 -25 137zM344 328q0 -78 37 -115t94 -37q53 0 99 23q39 18 73 61q27 33 47 86q18 49 19 100v56l-146 -2q-53 -4 -83 -8q-45 -6 -72 -23q-31 -18 -49.5 -51t-18.5 -90zM305 1432q0 55 20 98q23 49 54 80q33 33 82 55 q43 20 98 20.5t98 -20.5q49 -23 82 -55q31 -31 53 -80q20 -43 21 -98q0 -57 -21 -101q-23 -49 -53 -80q-37 -37 -82 -55q-46 -18 -98 -18t-98 18q-45 18 -82 55q-31 31 -54 80q-20 44 -20 101zM434 1432q0 -25 10 -52q8 -23 27 -41q16 -16 39 -26q25 -10 49 -10q23 0 49 10 q23 8 41 26.5t27 40.5q10 27 10 52q0 23 -10.5 47t-26.5 41q-18 18 -41 26q-27 10 -49 11q-25 0 -49 -11q-23 -10 -39.5 -26.5t-26.5 -40.5t-10 -47z" />
<glyph unicode="&#xe6;" horiz-adv-x="1820" d="M66 305q0 96 34 162q37 70 95 106q59 39 141 58q76 16 170 20l239 4v56q0 66 -10 98q-14 43 -33 65q-23 25 -53 35q-35 10 -71 11q-35 0 -66 -7q-29 -6 -51 -24q-25 -20 -35 -47q-12 -33 -18 -74l-293 12q12 76 45 131q35 59 90 101q59 43 139 67q76 23 197 23 q219 0 334 -107q66 55 155 82q86 25 182 25q123 0 218 -45q92 -45 149 -123q55 -74 84 -193q29 -115 29 -245v-21h-695q0 -66 13 -121q12 -53 41 -98q25 -37 69 -63q43 -25 103 -25q76 0 121 31q43 29 65 98l266 -23q-20 -51 -51 -98q-39 -59 -86 -96q-57 -45 -135 -72 q-82 -29 -195 -28q-147 0 -262 57q-106 53 -172 172q-28 -49 -67 -92q-35 -37 -90 -72q-43 -27 -113 -47q-66 -18 -143 -18q-74 0 -141.5 22.5t-106.5 60.5q-43 43 -67.5 104.5t-24.5 137.5zM358 328q0 -76 39 -115q37 -37 99 -37q57 0 102 25q47 25 80 63q31 37 51 90 q16 43 16 103v45l-151 -2q-57 -4 -90 -8q-49 -8 -76 -23q-31 -18 -49 -51q-21 -37 -21 -90zM1044 664h420q-10 133 -63 196q-55 66 -148 66q-45 0 -79 -15q-37 -16 -66 -47q-25 -27 -45 -82q-15 -40 -19 -118z" />
<glyph unicode="&#xe7;" d="M80 535q0 133 35 241q33 100 100 178q61 72 164 111q96 37 219 37q100 0 186 -29q84 -29 142 -76q55 -47 94 -114q35 -61 51 -142l-283 -14q-12 84 -61 133t-135 49q-113 0 -166 -94q-51 -90 -51 -268q0 -375 221 -375q76 0 133 51q55 49 68 150l282 -13 q-10 -78 -45 -143q-39 -74 -96 -121q-63 -53 -147 -84q-92 -33 -197 -32q-127 0 -225 40q-96 41 -160 113q-66 76 -96 176q-33 109 -33 226zM387 -301q25 -6 45 -6h39q76 0 106.5 18.5t30.5 48.5q0 35 -28 54q-25 16 -94 16h-25q-16 0 -27 -2l62 172h143l-33 -82 q94 -6 139.5 -45t45.5 -109q0 -43 -15 -73q-16 -37 -51 -60q-41 -27 -94 -41q-61 -16 -143 -16q-45 0 -101 6v119z" />
<glyph unicode="&#xe8;" d="M80 547q0 158 41 260q43 109 112 172q74 68 162 94q96 29 195 29q125 0 219 -45q89 -43 147 -123q57 -78 86 -193q27 -106 27 -245v-9h-694q0 -70 12 -127q12 -59 39 -100q29 -43 70 -67q43 -25 104 -25q76 0 121 30.5t67 98.5l265 -23q-23 -59 -49 -98q-37 -55 -89 -96 q-59 -47 -133 -72q-82 -29 -196 -28q-117 0 -211 34q-96 35 -160 105q-68 74 -100 178q-35 111 -35 250zM377 664h420q-10 133 -64 196q-55 66 -147 66q-45 0 -80 -15q-37 -16 -66 -47q-25 -27 -45 -82q-14 -40 -18 -118zM287 1458v43h258l251 -287v-30h-169z" />
<glyph unicode="&#xe9;" d="M80 547q0 158 41 260q43 109 112 172q74 68 162 94q96 29 195 29q125 0 219 -45q89 -43 147 -123q57 -78 86 -193q27 -106 27 -245v-9h-694q0 -70 12 -127q12 -59 39 -100q29 -43 70 -67q43 -25 104 -25q76 0 121 30.5t67 98.5l265 -23q-23 -59 -49 -98q-37 -55 -89 -96 q-59 -47 -133 -72q-82 -29 -196 -28q-117 0 -211 34q-96 35 -160 105q-68 74 -100 178q-35 111 -35 250zM377 664h420q-10 133 -64 196q-55 66 -147 66q-45 0 -80 -15q-37 -16 -66 -47q-25 -27 -45 -82q-14 -40 -18 -118zM418 1184v30l254 287h258v-43l-342 -274h-170z" />
<glyph unicode="&#xea;" d="M80 547q0 158 41 260q43 109 112 172q74 68 162 94q96 29 195 29q125 0 219 -45q89 -43 147 -123q57 -78 86 -193q27 -106 27 -245v-9h-694q0 -70 12 -127q12 -59 39 -100q29 -43 70 -67q43 -25 104 -25q76 0 121 30.5t67 98.5l265 -23q-23 -59 -49 -98q-37 -55 -89 -96 q-59 -47 -133 -72q-82 -29 -196 -28q-117 0 -211 34q-96 35 -160 105q-68 74 -100 178q-35 111 -35 250zM377 664h420q-10 133 -64 196q-55 66 -147 66q-45 0 -80 -15q-37 -16 -66 -47q-25 -27 -45 -82q-14 -40 -18 -118zM223 1184v26l258 320h229l250 -320v-26h-159 l-203 190h-4l-211 -190h-160z" />
<glyph unicode="&#xeb;" d="M80 547q0 158 41 260q43 109 112 172q74 68 162 94q96 29 195 29q125 0 219 -45q89 -43 147 -123q57 -78 86 -193q27 -106 27 -245v-9h-694q0 -70 12 -127q12 -59 39 -100q29 -43 70 -67q43 -25 104 -25q76 0 121 30.5t67 98.5l265 -23q-23 -59 -49 -98q-37 -55 -89 -96 q-59 -47 -133 -72q-82 -29 -196 -28q-117 0 -211 34q-96 35 -160 105q-68 74 -100 178q-35 111 -35 250zM377 664h420q-10 133 -64 196q-55 66 -147 66q-45 0 -80 -15q-37 -16 -66 -47q-25 -27 -45 -82q-14 -40 -18 -118zM260 1198v219h213v-219h-213zM695 1198v219h217 v-219h-217z" />
<glyph unicode="&#xec;" horiz-adv-x="567" d="M145 0v1081h281v-1081h-281zM-63 1458v43h258l251 -287v-30h-169z" />
<glyph unicode="&#xed;" horiz-adv-x="567" d="M145 0v1081h281v-1081h-281zM113 1184v30l254 287h258v-43l-342 -274h-170z" />
<glyph unicode="&#xee;" horiz-adv-x="567" d="M145 0v1081h281v-1081h-281zM-84 1184v26l258 320h229l250 -320v-26h-159l-203 190h-4l-211 -190h-160z" />
<glyph unicode="&#xef;" horiz-adv-x="567" d="M145 0v1081h281v-1081h-281zM-39 1198v219h213v-219h-213zM396 1198v219h217v-219h-217z" />
<glyph unicode="&#xf0;" horiz-adv-x="1249" d="M80 479q0 111 33 197q35 94 102 158q70 68 170 102q104 37 242 37q51 0 92 -8q43 -8 72 -25q-29 59 -70 127q-31 51 -82 109l-291 -121v182l166 72q-78 61 -123 90l-135 86h293l80 -43q27 -14 80 -51l268 112v-188l-121 -49q76 -78 127 -150q51 -70 100 -172 q45 -92 66 -190q23 -106 22 -213v-4q0 -119 -34 -224q-33 -100 -102.5 -176t-172.5 -114q-106 -41 -239 -41q-132 0 -234 36q-100 37 -170 103q-68 66 -104 155q-35 88 -35 203zM375 477q0 -80 18 -137q18 -59 49 -96q29 -35 76 -53.5t100 -18.5q125 0 193 72q66 68 66 233 q0 162 -64 232q-66 72 -182 71q-127 0 -191 -73q-65 -76 -65 -230z" />
<glyph unicode="&#xf1;" horiz-adv-x="1249" d="M135 1081h268l5 -37q2 -10 3 -29.5t1 -29.5q2 -20 2 -63q0 -10 1 -30t1 -26h4q59 127 143 181q90 57 205 57q94 0 166 -33q66 -29 110 -88q43 -55 62 -131q18 -77 18 -166v-686h-280v606q0 59 -10 117q-8 49 -33 90q-20 35 -59.5 57.5t-90.5 22.5q-47 0 -92 -23 q-39 -18 -71.5 -65t-47.5 -98q-16 -61 -16 -127v-580h-281v840v71q0 12 -1 37t-1 35q0 12 -2 31.5t-2 27.5q0 31 -2 39zM252 1184q2 43 12 96q10 59 31 94q29 49 65 74q45 29 117 29q39 0 90 -21q47 -18 86 -41q20 -10 39.5 -21.5t40.5 -21.5q37 -18 65 -18q27 0 41 8 q16 10 29 24q8 10 16 39q4 14 13 52h135q-4 -61 -10 -97q-10 -53 -31 -96q-23 -43 -66 -72q-45 -29 -116 -28q-45 0 -88 18.5t-86 42.5q-14 8 -80 41q-41 20 -67.5 20.5t-43.5 -8.5q-20 -10 -28 -24q-10 -16 -17 -39q-2 -8 -5 -25.5t-5 -25.5h-137z" />
<glyph unicode="&#xf2;" horiz-adv-x="1249" d="M80 543q0 125 33 223q33 100 102 176q72 78 170 119q100 41 242 41q150 0 250 -41q102 -43 167.5 -117t96.5 -178q31 -102 30 -223q0 -119 -34 -228q-33 -98 -105 -178q-68 -74 -172 -117q-100 -41 -239 -40q-129 0 -234 40q-98 39 -168 115q-72 80 -104 178 q-35 109 -35 230zM375 543q0 -96 18 -168q18 -68 49 -115t76 -67q43 -20 100 -21q63 0 110.5 20.5t82.5 67.5q31 41 49 115q16 63 17 168q0 195 -64 278q-66 88 -182 88q-127 0 -191 -88q-65 -90 -65 -278zM328 1458v43h258l251 -287v-30h-169z" />
<glyph unicode="&#xf3;" horiz-adv-x="1249" d="M80 543q0 125 33 223q33 100 102 176q72 78 170 119q100 41 242 41q150 0 250 -41q102 -43 167.5 -117t96.5 -178q31 -102 30 -223q0 -119 -34 -228q-33 -98 -105 -178q-68 -74 -172 -117q-100 -41 -239 -40q-129 0 -234 40q-98 39 -168 115q-72 80 -104 178 q-35 109 -35 230zM375 543q0 -96 18 -168q18 -68 49 -115t76 -67q43 -20 100 -21q63 0 110.5 20.5t82.5 67.5q31 41 49 115q16 63 17 168q0 195 -64 278q-66 88 -182 88q-127 0 -191 -88q-65 -90 -65 -278zM465 1184v30l254 287h258v-43l-342 -274h-170z" />
<glyph unicode="&#xf4;" horiz-adv-x="1249" d="M80 543q0 125 33 223q33 100 102 176q72 78 170 119q100 41 242 41q150 0 250 -41q102 -43 167.5 -117t96.5 -178q31 -102 30 -223q0 -119 -34 -228q-33 -98 -105 -178q-68 -74 -172 -117q-100 -41 -239 -40q-129 0 -234 40q-98 39 -168 115q-72 80 -104 178 q-35 109 -35 230zM375 543q0 -96 18 -168q18 -68 49 -115t76 -67q43 -20 100 -21q63 0 110.5 20.5t82.5 67.5q31 41 49 115q16 63 17 168q0 195 -64 278q-66 88 -182 88q-127 0 -191 -88q-65 -90 -65 -278zM256 1184v26l258 320h229l250 -320v-26h-159l-203 190h-4 l-211 -190h-160z" />
<glyph unicode="&#xf5;" horiz-adv-x="1249" d="M80 543q0 125 33 223q33 100 102 176q72 78 170 119q100 41 242 41q150 0 250 -41q102 -43 167.5 -117t96.5 -178q31 -102 30 -223q0 -119 -34 -228q-33 -98 -105 -178q-68 -74 -172 -117q-100 -41 -239 -40q-129 0 -234 40q-98 39 -168 115q-72 80 -104 178 q-35 109 -35 230zM375 543q0 -96 18 -168q18 -68 49 -115t76 -67q43 -20 100 -21q63 0 110.5 20.5t82.5 67.5q31 41 49 115q16 63 17 168q0 195 -64 278q-66 88 -182 88q-127 0 -191 -88q-65 -90 -65 -278zM234 1184q2 43 12 96q10 59 31 94q29 49 65 74q45 29 117 29 q39 0 90 -21q47 -18 86 -41q20 -10 39.5 -21.5t40.5 -21.5q37 -18 65 -18q27 0 41 8q16 10 29 24q8 10 16 39q4 14 13 52h135q-4 -61 -10 -97q-10 -53 -31 -96q-23 -43 -66 -72q-45 -29 -116 -28q-45 0 -88 18.5t-86 42.5q-14 8 -80 41q-41 20 -67.5 20.5t-43.5 -8.5 q-20 -10 -28 -24q-10 -16 -17 -39q-2 -8 -5 -25.5t-5 -25.5h-137z" />
<glyph unicode="&#xf6;" horiz-adv-x="1249" d="M80 543q0 125 33 223q33 100 102 176q72 78 170 119q100 41 242 41q150 0 250 -41q102 -43 167.5 -117t96.5 -178q31 -102 30 -223q0 -119 -34 -228q-33 -98 -105 -178q-68 -74 -172 -117q-100 -41 -239 -40q-129 0 -234 40q-98 39 -168 115q-72 80 -104 178 q-35 109 -35 230zM375 543q0 -96 18 -168q18 -68 49 -115t76 -67q43 -20 100 -21q63 0 110.5 20.5t82.5 67.5q31 41 49 115q16 63 17 168q0 195 -64 278q-66 88 -182 88q-127 0 -191 -88q-65 -90 -65 -278zM301 1198v219h213v-219h-213zM736 1198v219h217v-219h-217z" />
<glyph unicode="&#xf7;" horiz-adv-x="1122" d="M49 569v224h1026v-224h-1026zM442 170v233h238v-233h-238zM442 961v233h238v-233h-238z" />
<glyph unicode="&#xf8;" horiz-adv-x="1249" d="M0 -55l199 215q-59 76 -90 170q-29 88 -29 213t33 223q33 100 102 176q72 78 170 119q100 41 242 41q106 0 186 -21q76 -20 143 -61l103 113h182l-182 -205q58 -74 86 -172q27 -94 26.5 -213t-34.5 -228q-33 -98 -105 -178q-68 -74 -172 -117q-100 -41 -239 -40 q-94 0 -179 22q-74 20 -145 68l-113 -125h-184zM375 543q0 -100 16 -164l408 461q-63 70 -168 69q-127 0 -191 -88q-65 -90 -65 -278zM455 244q27 -33 71 -54q39 -18 92 -18q63 0 110.5 20.5t82.5 67.5q31 41 49 115q16 63 17 168q0 33 -5 86q-4 43 -12 76z" />
<glyph unicode="&#xf9;" horiz-adv-x="1249" d="M127 395v686h281v-606q0 -57 10 -115q8 -49 33 -90q23 -37 59 -59q35 -20 90 -21q47 0 92 23q41 20 72 63q33 47 47 99q16 61 16 127v579h281v-839v-72q0 -12 1 -35.5t1 -34.5q0 -12 2 -32.5t2 -28.5q0 -10 1 -23.5t1 -15.5h-268q0 2 -4 39t-4 57v32.5t-2 33.5 q0 10 -1 28.5t-1 24.5h-5q-55 -121 -143 -178q-90 -57 -205 -57q-94 0 -166 32q-66 29 -110 88q-43 55 -61.5 131t-18.5 164zM283 1458v43h258l251 -287v-30h-169z" />
<glyph unicode="&#xfa;" horiz-adv-x="1249" d="M127 395v686h281v-606q0 -57 10 -115q8 -49 33 -90q23 -37 59 -59q35 -20 90 -21q47 0 92 23q41 20 72 63q33 47 47 99q16 61 16 127v579h281v-839v-72q0 -12 1 -35.5t1 -34.5q0 -12 2 -32.5t2 -28.5q0 -10 1 -23.5t1 -15.5h-268q0 2 -4 39t-4 57v32.5t-2 33.5 q0 10 -1 28.5t-1 24.5h-5q-55 -121 -143 -178q-90 -57 -205 -57q-94 0 -166 32q-66 29 -110 88q-43 55 -61.5 131t-18.5 164zM463 1184v30l254 287h258v-43l-342 -274h-170z" />
<glyph unicode="&#xfb;" horiz-adv-x="1249" d="M127 395v686h281v-606q0 -57 10 -115q8 -49 33 -90q23 -37 59 -59q35 -20 90 -21q47 0 92 23q41 20 72 63q33 47 47 99q16 61 16 127v579h281v-839v-72q0 -12 1 -35.5t1 -34.5q0 -12 2 -32.5t2 -28.5q0 -10 1 -23.5t1 -15.5h-268q0 2 -4 39t-4 57v32.5t-2 33.5 q0 10 -1 28.5t-1 24.5h-5q-55 -121 -143 -178q-90 -57 -205 -57q-94 0 -166 32q-66 29 -110 88q-43 55 -61.5 131t-18.5 164zM252 1184v26l258 320h229l250 -320v-26h-159l-203 190h-4l-211 -190h-160z" />
<glyph unicode="&#xfc;" horiz-adv-x="1249" d="M127 395v686h281v-606q0 -57 10 -115q8 -49 33 -90q23 -37 59 -59q35 -20 90 -21q47 0 92 23q41 20 72 63q33 47 47 99q16 61 16 127v579h281v-839v-72q0 -12 1 -35.5t1 -34.5q0 -12 2 -32.5t2 -28.5q0 -10 1 -23.5t1 -15.5h-268q0 2 -4 39t-4 57v32.5t-2 33.5 q0 10 -1 28.5t-1 24.5h-5q-55 -121 -143 -178q-90 -57 -205 -57q-94 0 -166 32q-66 29 -110 88q-43 55 -61.5 131t-18.5 164zM299 1198v219h213v-219h-213zM734 1198v219h217v-219h-217z" />
<glyph unicode="&#xfd;" d="M16 1081h297l170 -506q3 -12 13 -36l18 -60l8 -23.5t7 -21.5l8 -26q10 -37 20 -70q2 -6 8 -27.5t8 -31.5q4 -14 7.5 -23.5t3.5 -13.5q0 4 3 12t7 22l14 60q2 12 19 67q10 37 18 70t17 59q2 10 7 23.5t5 15.5l160 510h294l-428 -1138q-41 -98 -79 -164q-43 -72 -89 -115 q-51 -47 -108 -67q-63 -23 -141 -23q-29 0 -90 4q-35 2 -87 10v199q8 -2 23.5 -3t24.5 -1q18 -2 49 -2q47 0 73 8q35 10 58 31q31 27 49 55q18 31 43 88l18 47zM412 1184v30l254 287h258v-43l-342 -274h-170z" />
<glyph unicode="&#xfe;" horiz-adv-x="1249" d="M143 -426v1911h281v-463v-59q0 -10 -1 -29t-1 -27q0 -14 -1 -27.5t-1 -25.5h4q53 109 139 154q88 45 207 45q106 0 178 -39t123 -113q47 -68 72 -168q25 -98 24 -213q0 -119 -24 -217q-25 -102 -76 -170q-57 -76 -129 -113q-82 -41 -186 -40q-43 0 -95 10q-45 8 -92 33 q-37 18 -78 59q-43 43 -63 90h-6l1 -8q1 -8 1 -17q0 -6 1 -21t1 -26q0 -8 1 -26.5t1 -28.5v-55v-416h-281zM420 512q0 -102 20 -164q25 -72 52 -104q34 -40 73 -56q43 -16 84 -16q109 0 166 82q59 84 59 266q0 172 -55 254q-55 84 -168 84q-39 0 -84 -16q-39 -14 -73 -56 q-31 -37 -54 -106q-20 -64 -20 -168z" />
<glyph unicode="&#xff;" d="M16 1081h297l170 -506q3 -12 13 -36l18 -60l8 -23.5t7 -21.5l8 -26q10 -37 20 -70q2 -6 8 -27.5t8 -31.5q4 -14 7.5 -23.5t3.5 -13.5q0 4 3 12t7 22l14 60q2 12 19 67q10 37 18 70t17 59q2 10 7 23.5t5 15.5l160 510h294l-428 -1138q-41 -98 -79 -164q-43 -72 -89 -115 q-51 -47 -108 -67q-63 -23 -141 -23q-29 0 -90 4q-35 2 -87 10v199q8 -2 23.5 -3t24.5 -1q18 -2 49 -2q47 0 73 8q35 10 58 31q31 27 49 55q18 31 43 88l18 47zM258 1198v219h213v-219h-213zM693 1198v219h217v-219h-217z" />
<glyph unicode="&#x100;" horiz-adv-x="1478" d="M51 0l514 1409h348l512 -1409h-292l-125 360h-537l-125 -360h-295zM537 582h405l-139 405q-6 16 -11.5 34.5t-11.5 35.5l-20 65q-12 43 -15 49q-6 18 -6 21q0 -4 -6 -23q-2 -6 -6 -21t-8 -26l-8 -30.5t-11 -34.5l-24 -70zM432 1536v168h610v-168h-610z" />
<glyph unicode="&#x101;" d="M59 305q0 96 35 162q37 70 90 106q59 41 138 60q77 18 165 18l234 4v56q0 45 -12 98q-10 45 -29 65q-23 27 -51 35q-35 10 -68 11q-34 0 -61 -7q-25 -6 -47 -24q-20 -18 -33 -47q-12 -33 -19 -74l-292 12q12 68 45 131q29 53 88 101q55 43 139 67q76 23 192 23 q100 0 180.5 -24.5t135.5 -74t83.5 -123t28.5 -165.5v-396q0 -47 3 -67q2 -23 14 -51q10 -23 26 -31q20 -10 46 -10q31 0 61 6v-152q-12 -2 -22.5 -6t-20.5 -6q-2 0 -41 -6l-43 -6q-14 -2 -51 -2q-109 0 -158 53q-51 53 -59 152h-6q-53 -98 -143.5 -155.5t-213.5 -57.5 q-76 0 -139 22q-66 23 -104 61q-45 45 -66 105q-25 69 -25 137zM352 328q0 -78 37 -115t94 -37q53 0 99 23q39 18 73 61q27 33 47 86q18 49 19 100v56l-146 -2q-53 -4 -83 -8q-45 -6 -72 -23q-31 -18 -49.5 -51t-18.5 -90zM281 1202v168h610v-168h-610z" />
<glyph unicode="&#x102;" horiz-adv-x="1478" d="M51 0l514 1409h348l512 -1409h-292l-125 360h-537l-125 -360h-295zM537 582h405l-139 405q-6 16 -11.5 34.5t-11.5 35.5l-20 65q-12 43 -15 49q-6 18 -6 21q0 -4 -6 -23q-2 -6 -6 -21t-8 -26l-8 -30.5t-11 -34.5l-24 -70zM385 1808h162q10 -37 26 -57q18 -25 43 -43 q23 -16 56 -27q35 -10 65 -10q33 0 68 10q37 10 57 27q20 14 41 43q18 25 25 57h163q-10 -59 -32.5 -108t-69.5 -92q-41 -39 -106 -64t-148 -24q-76 0 -141 24q-68 27 -109 64q-47 43 -69 92q-25 53 -31 108z" />
<glyph unicode="&#x103;" d="M59 305q0 96 35 162q37 70 90 106q59 41 138 60q77 18 165 18l234 4v56q0 45 -12 98q-10 45 -29 65q-23 27 -51 35q-35 10 -68 11q-34 0 -61 -7q-25 -6 -47 -24q-20 -18 -33 -47q-12 -33 -19 -74l-292 12q12 68 45 131q29 53 88 101q55 43 139 67q76 23 192 23 q100 0 180.5 -24.5t135.5 -74t83.5 -123t28.5 -165.5v-396q0 -47 3 -67q2 -23 14 -51q10 -23 26 -31q20 -10 46 -10q31 0 61 6v-152q-12 -2 -22.5 -6t-20.5 -6q-2 0 -41 -6l-43 -6q-14 -2 -51 -2q-109 0 -158 53q-51 53 -59 152h-6q-53 -98 -143.5 -155.5t-213.5 -57.5 q-76 0 -139 22q-66 23 -104 61q-45 45 -66 105q-25 69 -25 137zM352 328q0 -78 37 -115t94 -37q53 0 99 23q39 18 73 61q27 33 47 86q18 49 19 100v56l-146 -2q-53 -4 -83 -8q-45 -6 -72 -23q-31 -18 -49.5 -51t-18.5 -90zM226 1505h163q10 -47 25 -69q16 -29 43 -52 q20 -18 57 -32q31 -12 66 -13q37 0 68 13q37 14 57 32q23 18 41 52q18 31 24 69h164q-10 -68 -33 -123q-25 -59 -69 -104q-47 -47 -107 -70q-65 -25 -147 -24q-78 0 -143 24q-59 23 -106.5 70t-72.5 104q-24 58 -30 123z" />
<glyph unicode="&#x104;" horiz-adv-x="1478" d="M51 0l514 1409h348l512 -1409h-292l-125 360h-537l-125 -360h-295zM537 582h405l-139 405q-6 16 -11.5 34.5t-11.5 35.5l-20 65q-12 43 -15 49q-6 18 -6 21q0 -4 -6 -23q-2 -6 -6 -21t-8 -26l-8 -30.5t-11 -34.5l-24 -70zM1024 -215q0 45 16 88q16 45 39 71q25 31 53 54 q23 18 49 32h154q-63 -43 -96 -98q-33 -57 -33 -110q0 -43 25 -68q27 -27 69 -27q20 0 58 9q28 6 55 18v-135q-66 -35 -152 -35q-43 0 -94 14q-47 12 -76 37q-29 23 -49 64q-18 37 -18 86z" />
<glyph unicode="&#x105;" d="M59 305q0 96 35 162q37 70 90 106q59 41 138 60q77 18 165 18l234 4v56q0 45 -12 98q-10 45 -29 65q-23 27 -51 35q-35 10 -68 11q-34 0 -61 -7q-25 -6 -47 -24q-20 -18 -33 -47q-12 -33 -19 -74l-292 12q12 68 45 131q29 53 88 101q55 43 139 67q76 23 192 23 q100 0 180.5 -24.5t135.5 -74t83.5 -123t28.5 -165.5v-396q0 -47 3 -67q2 -23 14 -51q10 -23 26 -31q20 -10 46 -10q31 0 61 6v-152q-12 -2 -22.5 -6t-20.5 -6q-2 0 -41 -6l-43 -6q-14 -2 -51 -2q-109 0 -158 53q-51 53 -59 152h-6q-53 -98 -143.5 -155.5t-213.5 -57.5 q-76 0 -139 22q-66 23 -104 61q-45 45 -66 105q-25 69 -25 137zM352 328q0 -78 37 -115t94 -37q53 0 99 23q39 18 73 61q27 33 47 86q18 49 19 100v56l-146 -2q-53 -4 -83 -8q-45 -6 -72 -23q-31 -18 -49.5 -51t-18.5 -90zM684 -225q0 45 16 88q16 45 39 71q25 31 53 54 q23 18 49 32h154q-63 -43 -96 -98q-33 -57 -33 -110q0 -43 25 -68q27 -27 69 -27q20 0 58 9q28 6 55 18v-135q-66 -35 -152 -35q-43 0 -94 14q-47 12 -76 37q-29 23 -49 64q-18 37 -18 86z" />
<glyph unicode="&#x106;" horiz-adv-x="1478" d="M84 711q0 166 43 299t129 225q92 98 217 145q133 49 309 50q133 0 242 -29q94 -25 178 -82q76 -51 125 -123q51 -72 78 -158l-260 -71q-12 39 -43 86q-25 39 -74 73q-47 35 -104 52q-68 20 -136 20q-104 0 -184 -35q-78 -35 -127 -98q-45 -59 -71 -154q-25 -88 -25 -200 q0 -109 25 -201q27 -98 71 -158q51 -66 129 -102q80 -37 189 -37q86 0 143 23q66 27 106 61q43 37 74 86q27 43 47 96l258 -96q-27 -68 -82 -150q-47 -70 -124 -129q-76 -57 -179 -90q-109 -35 -243 -34q-182 0 -318 55q-137 57 -221 151q-88 100 -129 232q-43 135 -43 293z M651 1530v31l254 254h258v-43l-342 -242h-170z" />
<glyph unicode="&#x107;" d="M80 535q0 133 35 241q33 100 100 178q61 72 164 111q96 37 219 37q100 0 186 -29q84 -29 142 -76q55 -47 94 -114q35 -61 51 -142l-283 -14q-12 84 -61 133t-135 49q-113 0 -166 -94q-51 -90 -51 -268q0 -375 221 -375q76 0 133 51q55 49 68 150l282 -13 q-10 -78 -45 -143q-39 -74 -96 -121q-63 -53 -147 -84q-92 -33 -197 -32q-127 0 -225 40q-96 41 -160 113q-66 76 -96 176q-33 109 -33 226zM444 1184v30l254 287h258v-43l-342 -274h-170z" />
<glyph unicode="&#x108;" horiz-adv-x="1478" d="M84 711q0 166 43 299t129 225q92 98 217 145q133 49 309 50q133 0 242 -29q94 -25 178 -82q76 -51 125 -123q51 -72 78 -158l-260 -71q-12 39 -43 86q-25 39 -74 73q-47 35 -104 52q-68 20 -136 20q-104 0 -184 -35q-78 -35 -127 -98q-45 -59 -71 -154q-25 -88 -25 -200 q0 -109 25 -201q27 -98 71 -158q51 -66 129 -102q80 -37 189 -37q86 0 143 23q66 27 106 61q43 37 74 86q27 43 47 96l258 -96q-27 -68 -82 -150q-47 -70 -124 -129q-76 -57 -179 -90q-109 -35 -243 -34q-182 0 -318 55q-137 57 -221 151q-88 100 -129 232q-43 135 -43 293z M434 1530v29l258 276h230l250 -276v-29h-160l-203 151h-4l-211 -151h-160z" />
<glyph unicode="&#x109;" d="M80 535q0 133 35 241q33 100 100 178q61 72 164 111q96 37 219 37q100 0 186 -29q84 -29 142 -76q55 -47 94 -114q35 -61 51 -142l-283 -14q-12 84 -61 133t-135 49q-113 0 -166 -94q-51 -90 -51 -268q0 -375 221 -375q76 0 133 51q55 49 68 150l282 -13 q-10 -78 -45 -143q-39 -74 -96 -121q-63 -53 -147 -84q-92 -33 -197 -32q-127 0 -225 40q-96 41 -160 113q-66 76 -96 176q-33 109 -33 226zM229 1184v26l258 320h229l250 -320v-26h-159l-203 190h-4l-211 -190h-160z" />
<glyph unicode="&#x10a;" horiz-adv-x="1478" d="M84 711q0 166 43 299t129 225q92 98 217 145q133 49 309 50q133 0 242 -29q94 -25 178 -82q76 -51 125 -123q51 -72 78 -158l-260 -71q-12 39 -43 86q-25 39 -74 73q-47 35 -104 52q-68 20 -136 20q-104 0 -184 -35q-78 -35 -127 -98q-45 -59 -71 -154q-25 -88 -25 -200 q0 -109 25 -201q27 -98 71 -158q51 -66 129 -102q80 -37 189 -37q86 0 143 23q66 27 106 61q43 37 74 86q27 43 47 96l258 -96q-27 -68 -82 -150q-47 -70 -124 -129q-76 -57 -179 -90q-109 -35 -243 -34q-182 0 -318 55q-137 57 -221 151q-88 100 -129 232q-43 135 -43 293z M647 1538v207h280v-207h-280z" />
<glyph unicode="&#x10b;" d="M80 535q0 133 35 241q33 100 100 178q61 72 164 111q96 37 219 37q100 0 186 -29q84 -29 142 -76q55 -47 94 -114q35 -61 51 -142l-283 -14q-12 84 -61 133t-135 49q-113 0 -166 -94q-51 -90 -51 -268q0 -375 221 -375q76 0 133 51q55 49 68 150l282 -13 q-10 -78 -45 -143q-39 -74 -96 -121q-63 -53 -147 -84q-92 -33 -197 -32q-127 0 -225 40q-96 41 -160 113q-66 76 -96 176q-33 109 -33 226zM461 1268v207h280v-207h-280z" />
<glyph unicode="&#x10c;" horiz-adv-x="1478" d="M84 711q0 166 43 299t129 225q92 98 217 145q133 49 309 50q133 0 242 -29q94 -25 178 -82q76 -51 125 -123q51 -72 78 -158l-260 -71q-12 39 -43 86q-25 39 -74 73q-47 35 -104 52q-68 20 -136 20q-104 0 -184 -35q-78 -35 -127 -98q-45 -59 -71 -154q-25 -88 -25 -200 q0 -109 25 -201q27 -98 71 -158q51 -66 129 -102q80 -37 189 -37q86 0 143 23q66 27 106 61q43 37 74 86q27 43 47 96l258 -96q-27 -68 -82 -150q-47 -70 -124 -129q-76 -57 -179 -90q-109 -35 -243 -34q-182 0 -318 55q-137 57 -221 151q-88 100 -129 232q-43 135 -43 293z M413 1806v29h160l211 -152h4l203 152h160v-29l-250 -276h-230z" />
<glyph unicode="&#x10d;" d="M80 535q0 133 35 241q33 100 100 178q61 72 164 111q96 37 219 37q100 0 186 -29q84 -29 142 -76q55 -47 94 -114q35 -61 51 -142l-283 -14q-12 84 -61 133t-135 49q-113 0 -166 -94q-51 -90 -51 -268q0 -375 221 -375q76 0 133 51q55 49 68 150l282 -13 q-10 -78 -45 -143q-39 -74 -96 -121q-63 -53 -147 -84q-92 -33 -197 -32q-127 0 -225 40q-96 41 -160 113q-66 76 -96 176q-33 109 -33 226zM213 1499v31h160l211 -195h4l203 195h159v-31l-250 -315h-229z" />
<glyph unicode="&#x10e;" horiz-adv-x="1478" d="M137 0v1409h510q160 0 301 -41q135 -39 235.5 -127t153.5 -215q55 -133 56 -311q0 -174 -54 -309q-53 -133 -145 -224q-96 -92 -217 -137q-123 -45 -270 -45h-570zM432 227h250q88 0 164 31q72 29 131 94.5t88 151.5q31 92 31 211q0 125 -33 211q-35 92 -94.5 145 t-143.5 82q-86 29 -184 29h-209v-955zM331 1806v29h160l211 -152h4l203 152h160v-29l-250 -276h-230z" />
<glyph unicode="&#x10f;" horiz-adv-x="1470" d="M84 541q0 121 25 225q25 106 75 178q53 76 129 117t187 41q61 0 102 -10.5t90 -34.5q39 -20 76 -60q39 -43 59 -86h2v29q0 6 -1 21.5t-1 23.5v51v54v395h281v-1249q0 -98 2 -140l6 -96h-272l-4 29q-2 14 -6 47q-2 16 -3 51q0 10 -1 26.5t-1 22.5h-4q-49 -104 -137 -151 q-84 -45 -209 -45q-102 0 -176 43t-123 116q-47 72 -74 178q-22 93 -22 224zM377 541q0 -369 221 -369q41 0 84 18q41 18 76 62q31 41 53 115q20 70 20 180t-20 178q-20 70 -53 111q-37 45 -74 59q-45 16 -84 16q-55 0 -96 -20.5t-69.5 -67.5t-43.5 -114q-14 -66 -14 -168z M1227 1278v207h245v-145q0 -31 -8 -80q-6 -33 -18 -66q-14 -35 -31 -57q-4 -6 -11 -15.5t-13.5 -17.5l-12.5 -16h-137q45 49 70 96q25 49 24 94h-108z" />
<glyph unicode="&#x110;" horiz-adv-x="1478" d="M8 594v219h129v596h510q160 0 301 -41q135 -39 235.5 -127t153.5 -215q55 -133 56 -311q0 -174 -54 -309q-53 -133 -145 -224q-96 -92 -217 -137q-123 -45 -270 -45h-570v594h-129zM432 231h250q88 0 164 31q78 31 131 90q57 63 88 152q31 90 31 211q0 127 -33 211 q-35 90 -94.5 143t-143.5 82q-80 27 -184 27h-209v-365h356v-219h-356v-363z" />
<glyph unicode="&#x111;" horiz-adv-x="1249" d="M84 520q0 121 25 219q27 104 75 172q53 74 129 111q82 41 187 41q53 0 102 -12.5t90 -32.5q39 -20 76 -60q37 -41 59 -88h2v31q0 6 -1 20.5t-1 22.5v53v52v127h-286v170h286v139h283v-139h131v-170h-131v-940q0 -98 2 -140q0 -16 1 -50t3 -46h-270q-4 10 -6 29 q-2 8 -3 23.5t-1 23.5q-4 33 -5 51q0 10 -1 26.5t-1 22.5h-4q-49 -106 -137 -151t-209 -45q-100 0 -176 40q-72 39 -123 113q-49 70 -74 170q-22 90 -22 217zM377 522q0 -350 221 -350q39 0 84 16q39 14 76 58q29 35 53 110q20 63 20 172t-20 172q-20 66 -53 105t-74 53 q-45 16 -84 16q-49 0 -96 -20q-41 -18 -70 -61q-29 -45 -43 -109t-14 -162z" />
<glyph unicode="&#x112;" horiz-adv-x="1363" d="M137 0v1409h1108v-227h-813v-355h752v-229h-752v-371h854v-227h-1149zM387 1536v168h610v-168h-610z" />
<glyph unicode="&#x113;" d="M80 547q0 158 41 260q43 109 112 172q74 68 162 94q96 29 195 29q125 0 219 -45q89 -43 147 -123q57 -78 86 -193q27 -106 27 -245v-9h-694q0 -70 12 -127q12 -59 39 -100q29 -43 70 -67q43 -25 104 -25q76 0 121 30.5t67 98.5l265 -23q-23 -59 -49 -98q-37 -55 -89 -96 q-59 -47 -133 -72q-82 -29 -196 -28q-117 0 -211 34q-96 35 -160 105q-68 74 -100 178q-35 111 -35 250zM377 664h420q-10 133 -64 196q-55 66 -147 66q-45 0 -80 -15q-37 -16 -66 -47q-25 -27 -45 -82q-14 -40 -18 -118zM283 1202v168h610v-168h-610z" />
<glyph unicode="&#x114;" horiz-adv-x="1363" d="M137 0v1409h1108v-227h-813v-355h752v-229h-752v-371h854v-227h-1149zM348 1808h162q10 -37 26 -57q18 -25 43 -43q23 -16 56 -27q35 -10 65 -10q33 0 68 10q37 10 57 27q20 14 41 43q18 25 25 57h163q-10 -59 -32.5 -108t-69.5 -92q-41 -39 -106 -64t-148 -24 q-76 0 -141 24q-68 27 -109 64q-47 43 -69 92q-25 53 -31 108z" />
<glyph unicode="&#x115;" d="M80 547q0 158 41 260q43 109 112 172q74 68 162 94q96 29 195 29q125 0 219 -45q89 -43 147 -123q57 -78 86 -193q27 -106 27 -245v-9h-694q0 -70 12 -127q12 -59 39 -100q29 -43 70 -67q43 -25 104 -25q76 0 121 30.5t67 98.5l265 -23q-23 -59 -49 -98q-37 -55 -89 -96 q-59 -47 -133 -72q-82 -29 -196 -28q-117 0 -211 34q-96 35 -160 105q-68 74 -100 178q-35 111 -35 250zM377 664h420q-10 133 -64 196q-55 66 -147 66q-45 0 -80 -15q-37 -16 -66 -47q-25 -27 -45 -82q-14 -40 -18 -118zM215 1505h163q10 -47 25 -69q16 -29 43 -52 q20 -18 57 -32q31 -12 66 -13q37 0 68 13q37 14 57 32q23 18 41 52q18 31 24 69h164q-10 -68 -33 -123q-25 -59 -69 -104q-47 -47 -107 -70q-65 -25 -147 -24q-78 0 -143 24q-59 23 -106.5 70t-72.5 104q-24 58 -30 123z" />
<glyph unicode="&#x116;" horiz-adv-x="1363" d="M137 0v1409h1108v-227h-813v-355h752v-229h-752v-371h854v-227h-1149zM566 1538v207h280v-207h-280z" />
<glyph unicode="&#x117;" d="M80 547q0 158 41 260q43 109 112 172q74 68 162 94q96 29 195 29q125 0 219 -45q89 -43 147 -123q57 -78 86 -193q27 -106 27 -245v-9h-694q0 -70 12 -127q12 -59 39 -100q29 -43 70 -67q43 -25 104 -25q76 0 121 30.5t67 98.5l265 -23q-23 -59 -49 -98q-37 -55 -89 -96 q-59 -47 -133 -72q-82 -29 -196 -28q-117 0 -211 34q-96 35 -160 105q-68 74 -100 178q-35 111 -35 250zM377 664h420q-10 133 -64 196q-55 66 -147 66q-45 0 -80 -15q-37 -16 -66 -47q-25 -27 -45 -82q-14 -40 -18 -118zM443 1268v207h280v-207h-280z" />
<glyph unicode="&#x118;" horiz-adv-x="1363" d="M137 0v1409h1108v-227h-813v-355h752v-229h-752v-371h854v-227h-1149zM826 -225q0 45 16 88q16 45 39 71q25 31 53 54q23 18 49 32h154q-63 -43 -96 -98q-33 -57 -33 -110q0 -43 25 -68q27 -27 69 -27q20 0 58 9q28 6 55 18v-135q-66 -35 -152 -35q-43 0 -94 14 q-47 12 -76 37q-29 23 -49 64q-18 37 -18 86z" />
<glyph unicode="&#x119;" d="M80 547q0 158 41 260q43 109 112 172q74 68 162 94q96 29 195 29q125 0 219 -45q89 -43 147 -123q57 -78 86 -193q27 -106 27 -245v-9h-694q0 -70 12 -127q12 -59 39 -100q29 -43 70 -67q43 -25 104 -25q76 0 121 30.5t67 98.5l265 -23q-23 -59 -49 -98q-37 -55 -89 -96 q-59 -47 -133 -72q-82 -29 -196 -28q-117 0 -211 34q-96 35 -160 105q-68 74 -100 178q-35 111 -35 250zM377 664h420q-10 133 -64 196q-55 66 -147 66q-45 0 -80 -15q-37 -16 -66 -47q-25 -27 -45 -82q-14 -40 -18 -118zM539 -209q0 45 16 88q16 45 39 71q25 31 53 54 q23 18 49 32h154q-63 -43 -96 -98q-33 -57 -33 -110q0 -43 25 -68q27 -27 69 -27q20 0 58 9q28 6 55 18v-135q-66 -35 -152 -35q-43 0 -94 14q-47 12 -76 37q-29 23 -49 64q-18 37 -18 86z" />
<glyph unicode="&#x11a;" horiz-adv-x="1363" d="M137 0v1409h1108v-227h-813v-355h752v-229h-752v-371h854v-227h-1149zM340 1806v29h160l211 -152h4l203 152h160v-29l-250 -276h-230z" />
<glyph unicode="&#x11b;" d="M80 547q0 158 41 260q43 109 112 172q74 68 162 94q96 29 195 29q125 0 219 -45q89 -43 147 -123q57 -78 86 -193q27 -106 27 -245v-9h-694q0 -70 12 -127q12 -59 39 -100q29 -43 70 -67q43 -25 104 -25q76 0 121 30.5t67 98.5l265 -23q-23 -59 -49 -98q-37 -55 -89 -96 q-59 -47 -133 -72q-82 -29 -196 -28q-117 0 -211 34q-96 35 -160 105q-68 74 -100 178q-35 111 -35 250zM377 664h420q-10 133 -64 196q-55 66 -147 66q-45 0 -80 -15q-37 -16 -66 -47q-25 -27 -45 -82q-14 -40 -18 -118zM215 1499v31h160l211 -195h4l203 195h159v-31 l-250 -315h-229z" />
<glyph unicode="&#x11c;" horiz-adv-x="1591" d="M84 711q0 166 43 299q41 129 135 225q94 98 225 145q135 49 318 50q133 0 237 -25q98 -23 181 -76q80 -51 129 -115q53 -70 84 -151l-273 -82q-23 51 -47 84t-74 68q-35 25 -104 47q-57 18 -133 18q-109 0 -191 -35q-78 -33 -131 -98.5t-77.5 -153.5t-24.5 -200 q0 -109 25 -201q25 -90 79 -160q53 -68 131 -102q80 -37 191 -37q57 0 123 10q47 8 108 27q57 18 92 37q37 20 66 45v194h-344v219h614v-518q-55 -55 -116 -94q-72 -45 -154 -78q-78 -31 -184 -53q-96 -20 -213 -20q-188 0 -324 55q-137 57 -221 151q-86 100 -129 232 q-41 129 -41 293zM428 1530v29l258 276h230l250 -276v-29h-160l-203 151h-4l-211 -151h-160z" />
<glyph unicode="&#x11d;" horiz-adv-x="1249" d="M84 551q0 125 25 225q25 98 77 174q53 74 129 113q82 41 187 41q106 0 194 -47q84 -45 133 -150h5q0 6 1 22.5t1 26.5q0 20 4 54q0 8 1 22.5t3 22.5l4 26h266q-2 -14 -3 -49t-1 -51q-2 -43 -2 -150v-798q0 -117 -35 -205t-98 -145q-68 -61 -162 -89q-98 -29 -217 -28 q-102 0 -188 22q-84 23 -140 60q-58 40 -92 92q-35 55 -47 117l281 32q16 -66 65 -102.5t129 -36.5q51 0 92 14q39 14 70 48q33 35 47 90q16 59 16 135v57v53q0 10 1 28t1 26h-2q-49 -106 -137 -152q-90 -47 -211 -47q-102 0 -178 41t-123 113q-51 76 -74 172 q-22 92 -22 223zM377 551q0 -175 55 -264q55 -90 168 -90q39 0 84 16q37 14 74 59q31 39 53 111q20 63 20 172q0 106 -20 170q-25 76 -51 111q-29 39 -74 57q-39 16 -84 16q-55 0 -96 -20.5t-70 -65.5q-31 -47 -45 -110.5t-14 -161.5zM233 1184v26l258 320h229l250 -320v-26 h-159l-203 190h-4l-211 -190h-160z" />
<glyph unicode="&#x11e;" horiz-adv-x="1591" d="M84 711q0 166 43 299q41 129 135 225q94 98 225 145q135 49 318 50q133 0 237 -25q98 -23 181 -76q80 -51 129 -115q53 -70 84 -151l-273 -82q-23 51 -47 84t-74 68q-35 25 -104 47q-57 18 -133 18q-109 0 -191 -35q-78 -33 -131 -98.5t-77.5 -153.5t-24.5 -200 q0 -109 25 -201q25 -90 79 -160q53 -68 131 -102q80 -37 191 -37q57 0 123 10q47 8 108 27q57 18 92 37q37 20 66 45v194h-344v219h614v-518q-55 -55 -116 -94q-72 -45 -154 -78q-78 -31 -184 -53q-96 -20 -213 -20q-188 0 -324 55q-137 57 -221 151q-86 100 -129 232 q-41 129 -41 293zM457 1808h162q10 -37 26 -57q18 -25 43 -43q23 -16 56 -27q35 -10 65 -10q33 0 68 10q37 10 57 27q20 14 41 43q18 25 25 57h163q-10 -59 -32.5 -108t-69.5 -92q-41 -39 -106 -64t-148 -24q-76 0 -141 24q-68 27 -109 64q-47 43 -69 92q-25 53 -31 108z " />
<glyph unicode="&#x11f;" horiz-adv-x="1249" d="M84 551q0 125 25 225q25 98 77 174q53 74 129 113q82 41 187 41q106 0 194 -47q84 -45 133 -150h5q0 6 1 22.5t1 26.5q0 20 4 54q0 8 1 22.5t3 22.5l4 26h266q-2 -14 -3 -49t-1 -51q-2 -43 -2 -150v-798q0 -117 -35 -205t-98 -145q-68 -61 -162 -89q-98 -29 -217 -28 q-102 0 -188 22q-84 23 -140 60q-58 40 -92 92q-35 55 -47 117l281 32q16 -66 65 -102.5t129 -36.5q51 0 92 14q39 14 70 48q33 35 47 90q16 59 16 135v57v53q0 10 1 28t1 26h-2q-49 -106 -137 -152q-90 -47 -211 -47q-102 0 -178 41t-123 113q-51 76 -74 172 q-22 92 -22 223zM377 551q0 -175 55 -264q55 -90 168 -90q39 0 84 16q37 14 74 59q31 39 53 111q20 63 20 172q0 106 -20 170q-25 76 -51 111q-29 39 -74 57q-39 16 -84 16q-55 0 -96 -20.5t-70 -65.5q-31 -47 -45 -110.5t-14 -161.5zM252 1505h163q10 -47 25 -69 q16 -29 43 -52q20 -18 57 -32q31 -12 66 -13q37 0 68 13q37 14 57 32q23 18 41 52q18 31 24 69h164q-10 -68 -33 -123q-25 -59 -69 -104q-47 -47 -107 -70q-65 -25 -147 -24q-78 0 -143 24q-59 23 -106.5 70t-72.5 104q-24 58 -30 123z" />
<glyph unicode="&#x120;" horiz-adv-x="1591" d="M84 711q0 166 43 299q41 129 135 225q94 98 225 145q135 49 318 50q133 0 237 -25q98 -23 181 -76q80 -51 129 -115q53 -70 84 -151l-273 -82q-23 51 -47 84t-74 68q-35 25 -104 47q-57 18 -133 18q-109 0 -191 -35q-78 -33 -131 -98.5t-77.5 -153.5t-24.5 -200 q0 -109 25 -201q25 -90 79 -160q53 -68 131 -102q80 -37 191 -37q57 0 123 10q47 8 108 27q57 18 92 37q37 20 66 45v194h-344v219h614v-518q-55 -55 -116 -94q-72 -45 -154 -78q-78 -31 -184 -53q-96 -20 -213 -20q-188 0 -324 55q-137 57 -221 151q-86 100 -129 232 q-41 129 -41 293zM668 1538v207h280v-207h-280z" />
<glyph unicode="&#x121;" horiz-adv-x="1249" d="M84 551q0 125 25 225q25 98 77 174q53 74 129 113q82 41 187 41q106 0 194 -47q84 -45 133 -150h5q0 6 1 22.5t1 26.5q0 20 4 54q0 8 1 22.5t3 22.5l4 26h266q-2 -14 -3 -49t-1 -51q-2 -43 -2 -150v-798q0 -117 -35 -205t-98 -145q-68 -61 -162 -89q-98 -29 -217 -28 q-102 0 -188 22q-84 23 -140 60q-58 40 -92 92q-35 55 -47 117l281 32q16 -66 65 -102.5t129 -36.5q51 0 92 14q39 14 70 48q33 35 47 90q16 59 16 135v57v53q0 10 1 28t1 26h-2q-49 -106 -137 -152q-90 -47 -211 -47q-102 0 -178 41t-123 113q-51 76 -74 172 q-22 92 -22 223zM377 551q0 -175 55 -264q55 -90 168 -90q39 0 84 16q37 14 74 59q31 39 53 111q20 63 20 172q0 106 -20 170q-25 76 -51 111q-29 39 -74 57q-39 16 -84 16q-55 0 -96 -20.5t-70 -65.5q-31 -47 -45 -110.5t-14 -161.5zM486 1268v207h280v-207h-280z" />
<glyph unicode="&#x122;" horiz-adv-x="1591" d="M84 711q0 166 43 299q41 129 135 225q94 98 225 145q135 49 318 50q133 0 237 -25q98 -23 181 -76q80 -51 129 -115q53 -70 84 -151l-273 -82q-23 51 -47 84t-74 68q-35 25 -104 47q-57 18 -133 18q-109 0 -191 -35q-78 -33 -131 -98.5t-77.5 -153.5t-24.5 -200 q0 -109 25 -201q25 -90 79 -160q53 -68 131 -102q80 -37 191 -37q57 0 123 10q47 8 108 27q57 18 92 37q37 20 66 45v194h-344v219h614v-518q-55 -55 -116 -94q-72 -45 -154 -78q-78 -31 -184 -53q-96 -20 -213 -20q-188 0 -324 55q-137 57 -221 151q-86 100 -129 232 q-41 129 -41 293zM692 -78h246v-127q0 -41 -6 -78q-4 -29 -20 -67q-12 -31 -31 -56q-4 -6 -11.5 -15t-13.5 -17t-12 -17h-137q47 49 69 90q25 43 25 80h-109v207z" />
<glyph unicode="&#x123;" horiz-adv-x="1249" d="M84 551q0 125 25 225q25 98 77 174q53 74 129 113q82 41 187 41q106 0 194 -47q84 -45 133 -150h5q0 6 1 22.5t1 26.5q0 20 4 54q0 8 1 22.5t3 22.5l4 26h266q-2 -14 -3 -49t-1 -51q-2 -43 -2 -150v-798q0 -117 -35 -205t-98 -145q-68 -61 -162 -89q-98 -29 -217 -28 q-102 0 -188 22q-84 23 -140 60q-58 40 -92 92q-35 55 -47 117l281 32q16 -66 65 -102.5t129 -36.5q51 0 92 14q39 14 70 48q33 35 47 90q16 59 16 135v57v53q0 10 1 28t1 26h-2q-49 -106 -137 -152q-90 -47 -211 -47q-102 0 -178 41t-123 113q-51 76 -74 172 q-22 92 -22 223zM377 551q0 -175 55 -264q55 -90 168 -90q39 0 84 16q37 14 74 59q31 39 53 111q20 63 20 172q0 106 -20 170q-25 76 -51 111q-29 39 -74 57q-39 16 -84 16q-55 0 -96 -20.5t-70 -65.5q-31 -47 -45 -110.5t-14 -161.5zM495 1212v146q0 84 22.5 145.5 t61.5 106.5h148q-47 -49 -70 -97q-25 -49 -24 -94h108v-207h-246z" />
<glyph unicode="&#x124;" horiz-adv-x="1478" d="M137 0v1409h295v-561h625v561h284v-1409h-284v604h-625v-604h-295zM376 1530v29l258 276h230l250 -276v-29h-160l-203 151h-4l-211 -151h-160z" />
<glyph unicode="&#x125;" horiz-adv-x="1249" d="M143 0v1485h281v-406v-65q0 -12 -2 -31.5t-2 -28.5q0 -10 -1 -28.5t-1 -24.5q0 -8 -1 -19.5t-1 -15.5h4q59 127 143 181q86 55 205 55q94 0 166 -33q66 -29 110 -88q43 -55 61.5 -131t18.5 -164v-686h-280v606q0 57 -10 115q-8 49 -33 90q-23 37 -60 59q-35 20 -90 21 q-47 0 -92 -23q-41 -20 -72 -63q-33 -45 -47 -100q-16 -61 -16 -125v-580h-281zM274 1610v29l258 276h230l250 -276v-29h-160l-203 151h-4l-211 -151h-160z" />
<glyph unicode="&#x126;" horiz-adv-x="1478" d="M14 1044v170h123v195h295v-195h625v195h284v-195h123v-170h-123v-1044h-284v604h-625v-604h-295v1044h-123zM432 848h625v196h-625v-196z" />
<glyph unicode="&#x127;" horiz-adv-x="1249" d="M10 1176v170h133v139h281v-139h305v-170h-305v-138v-63q0 -12 -2 -32.5t-2 -29.5q0 -10 -1 -27.5t-1 -23.5q0 -8 -1 -20.5t-1 -16.5h4q59 127 143 181q90 57 205 57q94 0 166 -33q66 -29 110 -88q43 -55 62 -131q18 -77 18 -166v-645h-280v565q0 59 -10 117q-8 49 -33 90 q-20 35 -59.5 57.5t-90.5 22.5q-47 0 -92 -23q-39 -18 -71.5 -65t-47.5 -98q-16 -61 -16 -127v-539h-281v1176h-133z" />
<glyph unicode="&#x128;" horiz-adv-x="567" d="M137 0v1409h295v-1409h-295zM-102 1530q4 61 10 96q10 53 33 94q29 49 65 74q45 29 117 29q45 0 90 -19q37 -14 86 -43l40 -21l40 -22q37 -18 66 -18q27 0 41 8q16 10 28 25q8 10 17 39q4 14 12 51h135q-4 -61 -10 -97q-8 -51 -31 -94q-23 -47 -65 -73q-45 -29 -117 -29 q-45 0 -88 18.5t-86 43t-80 43t-68 18.5q-27 0 -43 -8q-20 -10 -28 -25q-10 -16 -17 -39q-2 -8 -5 -25.5t-5 -25.5h-137z" />
<glyph unicode="&#x129;" horiz-adv-x="567" d="M145 0v1081h281v-1081h-281zM-102 1184q2 43 12 96q10 59 31 94q29 49 65 74q45 29 117 29q39 0 90 -21q47 -18 86 -41q20 -10 39.5 -21.5t40.5 -21.5q37 -18 65 -18q27 0 41 8q16 10 29 24q8 10 16 39q4 14 13 52h135q-4 -61 -10 -97q-10 -53 -31 -96q-23 -43 -66 -72 q-45 -29 -116 -28q-45 0 -88 18.5t-86 42.5q-14 8 -80 41q-41 20 -67.5 20.5t-43.5 -8.5q-20 -10 -28 -24q-10 -16 -17 -39q-2 -8 -5 -25.5t-5 -25.5h-137z" />
<glyph unicode="&#x12a;" horiz-adv-x="567" d="M137 0v1409h295v-1409h-295zM-18 1536v168h610v-168h-610z" />
<glyph unicode="&#x12b;" horiz-adv-x="567" d="M145 0v1081h281v-1081h-281zM-18 1202v168h610v-168h-610z" />
<glyph unicode="&#x12c;" horiz-adv-x="567" d="M137 0v1409h295v-1409h-295zM-67 1808h162q10 -37 26 -57q18 -25 43 -43q23 -16 56 -27q35 -10 65 -10q33 0 68 10q37 10 57 27q20 14 41 43q18 25 25 57h163q-10 -59 -32.5 -108t-69.5 -92q-41 -39 -106 -64t-148 -24q-76 0 -141 24q-68 27 -109 64q-47 43 -69 92 q-25 53 -31 108z" />
<glyph unicode="&#x12d;" horiz-adv-x="567" d="M145 0v1081h281v-1081h-281zM-67 1505h163q10 -47 25 -69q16 -29 43 -52q20 -18 57 -32q31 -12 66 -13q37 0 68 13q37 14 57 32q23 18 41 52q18 31 24 69h164q-10 -68 -33 -123q-25 -59 -69 -104q-47 -47 -107 -70q-65 -25 -147 -24q-78 0 -143 24q-59 23 -106.5 70 t-72.5 104q-24 58 -30 123z" />
<glyph unicode="&#x12e;" horiz-adv-x="567" d="M137 0v1409h295v-1409h-295zM88 -225q0 45 16 88q16 45 39 71q25 31 53 54q23 18 49 32h154q-63 -43 -96 -98q-33 -57 -33 -110q0 -43 25 -68q27 -27 69 -27q20 0 58 9q28 6 55 18v-135q-66 -35 -152 -35q-43 0 -94 14q-47 12 -76 37q-29 23 -49 64q-18 37 -18 86z" />
<glyph unicode="&#x12f;" horiz-adv-x="567" d="M143 0v1081h281v-1081h-281zM143 1278v207h281v-207h-281zM70 -225q0 45 16 88q16 45 39 71q25 31 53 54q23 18 49 32h154q-63 -43 -96 -98q-33 -57 -33 -110q0 -43 25 -68q27 -27 69 -27q20 0 58 9q28 6 55 18v-135q-66 -35 -152 -35q-43 0 -94 14q-47 12 -76 37 q-29 23 -49 64q-18 37 -18 86z" />
<glyph unicode="&#x130;" horiz-adv-x="567" d="M137 0v1409h295v-1409h-295zM148 1538v207h280v-207h-280z" />
<glyph unicode="&#x131;" horiz-adv-x="567" d="M145 0v1081h281v-1081h-281z" />
<glyph unicode="&#x132;" horiz-adv-x="1605" d="M137 0v1409h295v-1409h-295zM500 383l293 43q8 -57 28 -100q18 -41 43 -65.5t60 -37.5q33 -12 71 -12q86 0 133 59q45 57 46 168v740h-281v231h575v-963q0 -109 -30 -194q-29 -82 -92 -146q-61 -61 -150 -94q-86 -33 -203 -32q-102 0 -188 22.5t-146 69.5 q-61 49 -100 125q-36 69 -59 186z" />
<glyph unicode="&#x133;" d="M143 0v1081h281v-1081h-281zM143 1278v207h281v-207h-281zM536 -217q16 -4 27 -4h24q41 0 64 8q25 8 39 27q12 14 18 49q4 20 4 78v1140h283v-1208q0 -61 -16 -121q-14 -49 -52 -94q-35 -41 -88 -61q-57 -23 -133 -23q-39 0 -96 4q-43 3 -74 6v199zM712 1278v207h283 v-207h-283z" />
<glyph unicode="&#x134;" d="M31 383l293 43q8 -57 28 -100q18 -41 43 -65.5t60 -37.5q33 -12 71 -12q86 0 133 59q45 57 46 168v740h-281v231h575v-963q0 -109 -30 -194q-29 -82 -92 -146q-61 -61 -150 -94q-86 -33 -203 -32q-102 0 -188 22.5t-146 69.5q-61 49 -100 125q-36 69 -59 186zM321 1530 v29l258 276h230l250 -276v-29h-160l-203 151h-4l-211 -151h-160z" />
<glyph unicode="&#x135;" horiz-adv-x="567" d="M-90 1184v26l258 320h229l250 -320v-26h-160l-202 190h-4l-211 -190h-160zM-33 -217q16 -4 27 -4h24q41 0 64 8q25 8 39 27q12 14 18 49q4 20 4 78v1140h283v-1208q0 -61 -16 -121q-14 -49 -52 -94q-35 -41 -88 -61q-57 -23 -133 -23q-39 0 -96 4q-43 3 -74 6v199z" />
<glyph unicode="&#x136;" horiz-adv-x="1478" d="M137 0v1409h295v-639l635 639h344l-602 -596l651 -813h-348l-506 647l-174 -133v-514h-295zM628 -78h246v-127q0 -41 -6 -78q-4 -29 -20 -67q-12 -31 -31 -56q-4 -6 -11.5 -15t-13.5 -17t-12 -17h-137q47 49 69 90q25 43 25 80h-109v207z" />
<glyph unicode="&#x137;" d="M143 0v1485h281v-850l387 446h301l-381 -422l410 -659h-307l-289 489l-121 -83v-406h-281zM479 -78h246v-127q0 -41 -6 -78q-4 -29 -20 -67q-12 -31 -31 -56q-4 -6 -11.5 -15t-13.5 -17t-12 -17h-137q47 49 69 90q25 43 25 80h-109v207z" />
<glyph unicode="&#x138;" d="M143 0v1081h281v-446l387 446h301l-381 -422l410 -659h-307l-289 489l-121 -83v-406h-281z" />
<glyph unicode="&#x139;" horiz-adv-x="1249" d="M137 0v1409h295v-1182h756v-227h-1051zM258 1530v31l254 254h258v-43l-342 -242h-170z" />
<glyph unicode="&#x13a;" horiz-adv-x="567" d="M143 0v1485h281v-1485h-281zM104 1610v31l254 254h258v-43l-342 -242h-170z" />
<glyph unicode="&#x13b;" horiz-adv-x="1249" d="M137 0v1409h295v-1182h756v-227h-1051zM512 -78h246v-127q0 -41 -6 -78q-4 -29 -20 -67q-12 -31 -31 -56q-4 -6 -11.5 -15t-13.5 -17t-12 -17h-137q47 49 69 90q25 43 25 80h-109v207z" />
<glyph unicode="&#x13c;" horiz-adv-x="567" d="M143 0v1485h281v-1485h-281zM159 -78h246v-127q0 -41 -6 -78q-4 -29 -20 -67q-12 -31 -31 -56q-4 -6 -11.5 -15t-13.5 -17t-12 -17h-137q47 49 69 90q25 43 25 80h-109v207z" />
<glyph unicode="&#x13d;" horiz-adv-x="1249" d="M137 0v1409h295v-1182h756v-227h-1051zM740 1202v207h245v-145q0 -31 -8 -80q-6 -33 -18 -66q-14 -35 -31 -57q-4 -6 -11 -15.5t-13.5 -17.5l-12.5 -16h-137q45 49 70 96q25 49 24 94h-108z" />
<glyph unicode="&#x13e;" horiz-adv-x="788" d="M143 0v1485h281v-1485h-281zM545 1278v207h245v-145q0 -31 -8 -80q-6 -33 -18 -66q-14 -35 -31 -57q-4 -6 -11 -15.5t-13.5 -17.5l-12.5 -16h-137q45 49 70 96q25 49 24 94h-108z" />
<glyph unicode="&#x13f;" horiz-adv-x="1249" d="M137 0v1409h295v-1182h756v-227h-1051zM670 641v207h280v-207h-280z" />
<glyph unicode="&#x140;" horiz-adv-x="980" d="M143 0v1485h281v-1485h-281zM600 641v207h280v-207h-280z" />
<glyph unicode="&#x141;" horiz-adv-x="1249" d="M0 418v225l137 66v700h295v-559l307 147v-223l-307 -147v-396h756v-231h-1051v483z" />
<glyph unicode="&#x142;" horiz-adv-x="567" d="M18 492v215l125 69v709h281v-553l129 74v-213l-129 -76v-717h-281v561z" />
<glyph unicode="&#x143;" horiz-adv-x="1478" d="M137 0v1409h336l625 -1094q-8 57 -11 88q-4 45 -6 89q-2 33 -2 98v819h262v-1409h-346l-614 1085q4 -27 8 -88q0 -10 3 -37.5l5 -44.5q2 -29 2 -84v-831h-262zM573 1530v31l254 254h258v-43l-342 -242h-170z" />
<glyph unicode="&#x144;" horiz-adv-x="1249" d="M135 1081h268l5 -37q2 -10 3 -29.5t1 -29.5q2 -20 2 -63q0 -10 1 -30t1 -26h4q59 127 143 181q90 57 205 57q94 0 166 -33q66 -29 110 -88q43 -55 62 -131q18 -77 18 -166v-686h-280v606q0 59 -10 117q-8 49 -33 90q-20 35 -59.5 57.5t-90.5 22.5q-47 0 -92 -23 q-39 -18 -71.5 -65t-47.5 -98q-16 -61 -16 -127v-580h-281v840v71q0 12 -1 37t-1 35q0 12 -2 31.5t-2 27.5q0 31 -2 39zM473 1184v30l254 287h258v-43l-342 -274h-170z" />
<glyph unicode="&#x145;" horiz-adv-x="1478" d="M137 0v1409h336l625 -1094q-8 57 -11 88q-4 45 -6 89q-2 33 -2 98v819h262v-1409h-346l-614 1085q4 -27 8 -88q0 -10 3 -37.5l5 -44.5q2 -29 2 -84v-831h-262zM610 -78h246v-127q0 -41 -6 -78q-4 -29 -20 -67q-12 -31 -31 -56q-4 -6 -11.5 -15t-13.5 -17t-12 -17h-137 q47 49 69 90q25 43 25 80h-109v207z" />
<glyph unicode="&#x146;" horiz-adv-x="1249" d="M135 1081h268l5 -37q2 -10 3 -29.5t1 -29.5q2 -20 2 -63q0 -10 1 -30t1 -26h4q59 127 143 181q90 57 205 57q94 0 166 -33q66 -29 110 -88q43 -55 62 -131q18 -77 18 -166v-686h-280v606q0 59 -10 117q-8 49 -33 90q-20 35 -59.5 57.5t-90.5 22.5q-47 0 -92 -23 q-39 -18 -71.5 -65t-47.5 -98q-16 -61 -16 -127v-580h-281v840v71q0 12 -1 37t-1 35q0 12 -2 31.5t-2 27.5q0 31 -2 39zM514 -78h246v-127q0 -41 -6 -78q-4 -29 -20 -67q-12 -31 -31 -56q-4 -6 -11.5 -15t-13.5 -17t-12 -17h-137q47 49 69 90q25 43 25 80h-109v207z" />
<glyph unicode="&#x147;" horiz-adv-x="1478" d="M137 0v1409h336l625 -1094q-8 57 -11 88q-4 45 -6 89q-2 33 -2 98v819h262v-1409h-346l-614 1085q4 -27 8 -88q0 -10 3 -37.5l5 -44.5q2 -29 2 -84v-831h-262zM364 1806v29h160l211 -152h4l203 152h160v-29l-250 -276h-230z" />
<glyph unicode="&#x148;" horiz-adv-x="1249" d="M135 1081h268l5 -37q2 -10 3 -29.5t1 -29.5q2 -20 2 -63q0 -10 1 -30t1 -26h4q59 127 143 181q90 57 205 57q94 0 166 -33q66 -29 110 -88q43 -55 62 -131q18 -77 18 -166v-686h-280v606q0 59 -10 117q-8 49 -33 90q-20 35 -59.5 57.5t-90.5 22.5q-47 0 -92 -23 q-39 -18 -71.5 -65t-47.5 -98q-16 -61 -16 -127v-580h-281v840v71q0 12 -1 37t-1 35q0 12 -2 31.5t-2 27.5q0 31 -2 39zM242 1499v31h160l211 -195h4l203 195h159v-31l-250 -315h-229z" />
<glyph unicode="&#x149;" horiz-adv-x="1449" d="M336 1081h268l5 -37q2 -10 3 -29.5t1 -29.5q2 -20 2 -63q0 -10 1 -30t1 -26h4q59 127 143 181q90 57 205 57q94 0 166 -33q66 -29 110 -88q43 -55 62 -131q18 -77 18 -166v-686h-280v606q0 59 -10 117q-8 49 -33 90q-20 35 -59.5 57.5t-90.5 22.5q-47 0 -92 -23 q-39 -18 -71.5 -65t-47.5 -98q-16 -61 -16 -127v-580h-281v840v71q0 12 -1 37t-1 35q0 12 -2 31.5t-2 27.5q0 31 -2 39zM-23 831q33 43 51 74q25 40 43 80q16 37 27 82q10 47 10 82h-127v260h287v-195q0 -68 -6 -122q-6 -49 -23 -101q-18 -55 -34 -86q-16 -33 -45 -74h-183z " />
<glyph unicode="&#x14a;" horiz-adv-x="1480" d="M133 1409h289q2 -8 3 -26.5t1 -26.5q2 -20 2 -66q0 -12 1 -34.5t1 -35t1 -34t1 -29.5h4q33 66 80 113q55 55 111 86q66 37 133 53q82 20 153 21q113 0 201 -33q86 -33 137 -99q53 -70 78 -168q27 -111 27 -241v-346q0 -127 -23 -236q-23 -106 -71 -176q-51 -72 -140 -113 q-84 -39 -219 -38q-72 0 -131 12t-102 33q-39 18 -82 57q-45 41 -70 76l203 172q6 -6 17.5 -20.5l17.5 -22.5q20 -25 41 -39q25 -16 49 -27q23 -8 55 -8q53 0 88 23q33 20 51.5 63t24.5 109q6 63 6 145v295q0 90 -16 162q-14 66 -49 108q-34 43 -86 62q-57 20 -121 20 q-80 0 -144 -29q-68 -31 -116 -79q-51 -51 -78 -115q-29 -68 -29 -137v-840h-295v1092v84q0 23 -1 45t-1 45v84q0 14 -1 33.5t-1 25.5z" />
<glyph unicode="&#x14b;" horiz-adv-x="1249" d="M135 1081h268l5 -37q2 -10 3 -29.5t1 -29.5q2 -20 2 -63q0 -10 1 -30t1 -26h4q59 127 143 181q90 57 205 57q94 0 166 -33q66 -29 110 -88q43 -55 62 -131q18 -77 18 -166v-813q0 -61 -16 -121q-14 -49 -51 -94q-35 -41 -88 -61q-57 -23 -131 -23q-41 0 -99 4 q-35 2 -71 6v199q16 -4 24 -4h27q41 0 63 8q20 8 37 27q14 16 21 49q4 20 4 78v665q0 59 -10 117q-8 49 -33 90q-20 35 -59.5 57.5t-90.5 22.5q-47 0 -92 -23q-39 -18 -71.5 -65t-47.5 -98q-16 -61 -16 -127v-580h-281v840v71q0 12 -1 37t-1 35q0 12 -2 31.5t-2 27.5 q0 31 -2 39z" />
<glyph unicode="&#x14c;" horiz-adv-x="1591" d="M84 711q0 164 47 299q45 131 137 225q94 98 224 145q131 49 303 50q176 0 305 -52q141 -55 223 -143q92 -98 137 -227q47 -135 47 -297q0 -164 -49 -299q-49 -137 -141 -231.5t-225 -147.5q-135 -53 -299 -53q-178 0 -310 55q-135 57 -221 151q-92 100 -133 232 q-45 141 -45 293zM381 711q0 -113 27 -201q29 -98 77 -158q53 -66 129 -102q77 -37 179 -37q109 0 186 37q82 39 129 104q49 70 74 158q25 92 24 199q0 115 -26 200q-29 94 -78 154q-52 65 -129 98q-80 35 -178 35q-100 0 -181 -35q-77 -34 -129 -98q-53 -66 -77 -154 q-27 -96 -27 -200zM492 1536v168h610v-168h-610z" />
<glyph unicode="&#x14d;" horiz-adv-x="1249" d="M80 543q0 125 33 223q33 100 102 176q72 78 170 119q100 41 242 41q150 0 250 -41q102 -43 167.5 -117t96.5 -178q31 -102 30 -223q0 -119 -34 -228q-33 -98 -105 -178q-68 -74 -172 -117q-100 -41 -239 -40q-129 0 -234 40q-98 39 -168 115q-72 80 -104 178 q-35 109 -35 230zM375 543q0 -96 18 -168q18 -68 49 -115t76 -67q43 -20 100 -21q63 0 110.5 20.5t82.5 67.5q31 41 49 115q16 63 17 168q0 195 -64 278q-66 88 -182 88q-127 0 -191 -88q-65 -90 -65 -278zM326 1202v168h610v-168h-610z" />
<glyph unicode="&#x14e;" horiz-adv-x="1591" d="M84 711q0 164 47 299q45 131 137 225q94 98 224 145q131 49 303 50q176 0 305 -52q141 -55 223 -143q92 -98 137 -227q47 -135 47 -297q0 -164 -49 -299q-49 -137 -141 -231.5t-225 -147.5q-135 -53 -299 -53q-178 0 -310 55q-135 57 -221 151q-92 100 -133 232 q-45 141 -45 293zM381 711q0 -113 27 -201q29 -98 77 -158q53 -66 129 -102q77 -37 179 -37q109 0 186 37q82 39 129 104q49 70 74 158q25 92 24 199q0 115 -26 200q-29 94 -78 154q-52 65 -129 98q-80 35 -178 35q-100 0 -181 -35q-77 -34 -129 -98q-53 -66 -77 -154 q-27 -96 -27 -200zM432 1808h162q10 -37 26 -57q18 -25 43 -43q23 -16 56 -27q35 -10 65 -10q33 0 68 10q37 10 57 27q20 14 41 43q18 25 25 57h163q-10 -59 -32.5 -108t-69.5 -92q-41 -39 -106 -64t-148 -24q-76 0 -141 24q-68 27 -109 64q-47 43 -69 92q-25 53 -31 108z " />
<glyph unicode="&#x14f;" horiz-adv-x="1249" d="M80 543q0 125 33 223q33 100 102 176q72 78 170 119q100 41 242 41q150 0 250 -41q102 -43 167.5 -117t96.5 -178q31 -102 30 -223q0 -119 -34 -228q-33 -98 -105 -178q-68 -74 -172 -117q-100 -41 -239 -40q-129 0 -234 40q-98 39 -168 115q-72 80 -104 178 q-35 109 -35 230zM375 543q0 -96 18 -168q18 -68 49 -115t76 -67q43 -20 100 -21q63 0 110.5 20.5t82.5 67.5q31 41 49 115q16 63 17 168q0 195 -64 278q-66 88 -182 88q-127 0 -191 -88q-65 -90 -65 -278zM279 1505h163q10 -47 25 -69q16 -29 43 -52q20 -18 57 -32 q31 -12 66 -13q37 0 68 13q37 14 57 32q23 18 41 52q18 31 24 69h164q-10 -68 -33 -123q-25 -59 -69 -104q-47 -47 -107 -70q-65 -25 -147 -24q-78 0 -143 24q-59 23 -106.5 70t-72.5 104q-24 58 -30 123z" />
<glyph unicode="&#x150;" horiz-adv-x="1591" d="M84 711q0 164 47 299q45 131 137 225q94 98 224 145q131 49 303 50q176 0 305 -52q141 -55 223 -143q92 -98 137 -227q47 -135 47 -297q0 -164 -49 -299q-49 -137 -141 -231.5t-225 -147.5q-135 -53 -299 -53q-178 0 -310 55q-135 57 -221 151q-92 100 -133 232 q-45 141 -45 293zM381 711q0 -113 27 -201q29 -98 77 -158q53 -66 129 -102q77 -37 179 -37q109 0 186 37q82 39 129 104q49 70 74 158q25 92 24 199q0 115 -26 200q-29 94 -78 154q-52 65 -129 98q-80 35 -178 35q-100 0 -181 -35q-77 -34 -129 -98q-53 -66 -77 -154 q-27 -96 -27 -200zM479 1530v35l215 252h236v-43l-320 -244h-131zM885 1530v35l215 252h235v-43l-317 -244h-133z" />
<glyph unicode="&#x151;" horiz-adv-x="1249" d="M80 543q0 125 33 223q33 100 102 176q72 78 170 119q100 41 242 41q150 0 250 -41q102 -43 167.5 -117t96.5 -178q31 -102 30 -223q0 -119 -34 -228q-33 -98 -105 -178q-68 -74 -172 -117q-100 -41 -239 -40q-129 0 -234 40q-98 39 -168 115q-72 80 -104 178 q-35 109 -35 230zM375 543q0 -96 18 -168q18 -68 49 -115t76 -67q43 -20 100 -21q63 0 110.5 20.5t82.5 67.5q31 41 49 115q16 63 17 168q0 195 -64 278q-66 88 -182 88q-127 0 -191 -88q-65 -90 -65 -278zM293 1184v35l225 266h236v-43l-320 -258h-141zM698 1184v35 l226 266h235v-43l-317 -258h-144z" />
<glyph unicode="&#x152;" horiz-adv-x="2048" d="M84 711q0 162 47 297q45 127 137 223q84 88 224 139q131 49 303 49q74 0 106 -2q16 0 48 -4t48 -4h930v-227h-667v-355h606v-221h-606v-379h708v-227h-977q-35 -2 -90 -6q-70 -4 -108 -4q-174 0 -310 53q-129 51 -221 150q-90 96 -133 227q-45 139 -45 291zM381 711 q0 -113 27 -199q29 -92 79 -156q55 -68 129 -100q80 -35 177 -35q33 0 90 4q49 4 80 17v927q-12 4 -76 13q-47 6 -92 6q-106 0 -181 -33q-78 -35 -129 -94q-53 -63 -77 -152q-27 -96 -27 -198z" />
<glyph unicode="&#x153;" horiz-adv-x="1931" d="M80 543q0 125 33 223q33 100 102 176q72 78 170 119q100 41 242 41q135 0 231 -39q98 -41 164 -115q74 84 166 119q90 35 201 35q123 0 217 -45q92 -45 149 -123q55 -74 84 -193q29 -115 29 -245v-21h-694q0 -66 12 -121q12 -53 41 -98q25 -37 69 -63q43 -25 103 -25 q76 0 121 31q43 29 65 98l266 -23q-20 -51 -51 -98q-39 -59 -86 -96q-57 -45 -135 -72q-82 -29 -195 -28q-117 0 -211 40.5t-157 118.5q-66 -74 -168 -119q-94 -41 -227 -40q-129 0 -234 40q-98 39 -168 115q-72 80 -104 178q-35 109 -35 230zM375 543q0 -96 18 -168 q18 -68 49 -115t76 -67q43 -20 100 -21q63 0 110.5 20.5t82.5 67.5q31 41 49 115q16 63 17 168q0 195 -64 278q-66 88 -182 88q-127 0 -191 -88q-65 -90 -65 -278zM1176 664h419q-10 133 -63 196q-55 66 -148 66q-47 0 -81 -15q-33 -14 -64 -47q-25 -27 -45 -82 q-14 -40 -18 -118z" />
<glyph unicode="&#x154;" horiz-adv-x="1478" d="M137 0v1409h705q137 0 229 -29q106 -33 166 -84q63 -55 98 -133q31 -70 31 -174q0 -86 -23 -145q-27 -70 -65 -117q-43 -51 -98 -84q-66 -39 -123 -51l381 -592h-332l-328 535h-346v-535h-295zM432 764h385q66 0 115 16q47 16 78 43q29 27 45 68q14 37 14 86 q0 106 -65 153q-68 49 -193 50h-379v-416zM547 1530v31l254 254h258v-43l-342 -242h-170z" />
<glyph unicode="&#x155;" horiz-adv-x="796" d="M135 1081h268l5 -41q2 -10 3 -31.5t1 -31.5q2 -23 2 -70q0 -12 1 -30.5t1 -24.5h4q22 58 43 104t49 80q25 29 68 49q39 18 100 19l49 -6q23 -2 37 -11v-233q-37 8 -55 10q-37 4 -66 4q-104 0 -162 -86q-59 -88 -59 -252v-530h-281v827v74q0 14 -1 39t-1 37t-2 33.5 t-2 29.5q0 33 -2 41zM268 1184v30l254 287h258v-43l-342 -274h-170z" />
<glyph unicode="&#x156;" horiz-adv-x="1478" d="M137 0v1409h705q137 0 229 -29q106 -33 166 -84q63 -55 98 -133q31 -70 31 -174q0 -86 -23 -145q-27 -70 -65 -117q-43 -51 -98 -84q-66 -39 -123 -51l381 -592h-332l-328 535h-346v-535h-295zM432 764h385q66 0 115 16q47 16 78 43q29 27 45 68q14 37 14 86 q0 106 -65 153q-68 49 -193 50h-379v-416zM618 -78h246v-127q0 -41 -6 -78q-4 -29 -20 -67q-12 -31 -31 -56q-4 -6 -11.5 -15t-13.5 -17t-12 -17h-137q47 49 69 90q25 43 25 80h-109v207z" />
<glyph unicode="&#x157;" horiz-adv-x="796" d="M135 1081h268l5 -41q2 -10 3 -31.5t1 -31.5q2 -23 2 -70q0 -12 1 -30.5t1 -24.5h4q22 58 43 104t49 80q25 29 68 49q39 18 100 19l49 -6q23 -2 37 -11v-233q-37 8 -55 10q-37 4 -66 4q-104 0 -162 -86q-59 -88 -59 -252v-530h-281v827v74q0 14 -1 39t-1 37t-2 33.5 t-2 29.5q0 33 -2 41zM159 -78h246v-127q0 -41 -6 -78q-4 -29 -20 -67q-12 -31 -31 -56q-4 -6 -11.5 -15t-13.5 -17t-12 -17h-137q47 49 69 90q25 43 25 80h-109v207z" />
<glyph unicode="&#x158;" horiz-adv-x="1478" d="M137 0v1409h705q137 0 229 -29q106 -33 166 -84q63 -55 98 -133q31 -70 31 -174q0 -86 -23 -145q-27 -70 -65 -117q-43 -51 -98 -84q-66 -39 -123 -51l381 -592h-332l-328 535h-346v-535h-295zM432 764h385q66 0 115 16q47 16 78 43q29 27 45 68q14 37 14 86 q0 106 -65 153q-68 49 -193 50h-379v-416zM331 1806v29h160l211 -152h4l203 152h160v-29l-250 -276h-230z" />
<glyph unicode="&#x159;" horiz-adv-x="796" d="M135 1081h268l5 -41q2 -10 3 -31.5t1 -31.5q2 -23 2 -70q0 -12 1 -30.5t1 -24.5h4q22 58 43 104t49 80q25 29 68 49q39 18 100 19l49 -6q23 -2 37 -11v-233q-37 8 -55 10q-37 4 -66 4q-104 0 -162 -86q-59 -88 -59 -252v-530h-281v827v74q0 14 -1 39t-1 37t-2 33.5 t-2 29.5q0 33 -2 41zM55 1499v31h160l211 -195h4l203 195h159v-31l-250 -315h-229z" />
<glyph unicode="&#x15a;" horiz-adv-x="1363" d="M59 367l285 47q12 -43 35 -86q20 -37 63 -68q41 -29 101 -43q66 -16 147 -16q152 0 230 45q80 45 79 143q0 55 -32 94q-31 37 -84.5 61.5t-122.5 41.5q-45 10 -144 30l-120 29q-55 14 -115 37q-53 20 -100 49q-49 29 -82 72q-37 47 -54 98q-20 66 -20 135q0 106 43 181 q47 80 115 122q78 49 178 70t225 21q141 0 236 -21q96 -20 165 -66q63 -39 105 -110q39 -66 57 -156l-286 -39q-20 92 -89 138q-66 45 -194 45q-77 0 -129 -13q-45 -10 -82 -37q-31 -20 -43 -53q-14 -37 -14 -65q0 -52 24 -86q25 -33 72 -55.5t106 -37.5q100 -25 138 -32 q23 -6 65.5 -14.5t65.5 -14.5q70 -16 125 -37q57 -20 108 -51q55 -33 90 -74q37 -43 58 -102q23 -63 22 -143q0 -92 -35 -175q-33 -78 -108 -135q-74 -55 -188.5 -85.5t-272.5 -30.5q-141 0 -248 24q-100 23 -182 76t-125 121q-48 76 -68 166zM555 1530v31l254 254h258v-43 l-342 -242h-170z" />
<glyph unicode="&#x15b;" d="M72 270l247 37q12 -47 33 -74q23 -29 51.5 -43t73.5 -20q29 -4 94 -4q47 0 91 6q39 6 71 18q25 10 47 39q16 23 17 62q0 41 -25 65q-27 27 -67.5 41.5t-98.5 26.5q-96 20 -123 27q-96 23 -135 34q-68 23 -117 58q-53 39 -84 92q-33 59 -32 139q0 78 30 139q31 59 88 103 q61 45 144 65q90 23 196 23q82 0 164 -17q70 -14 135 -53q61 -37 101 -90q43 -59 57 -133l-250 -27q-6 41 -24 66q-20 27 -45 41t-62 20q-23 4 -76 4q-100 0 -149 -24q-51 -27 -51 -86q0 -39 20 -60q23 -23 58 -36q37 -14 90 -25q49 -8 112 -25q49 -10 148 -38 q76 -23 129 -58q55 -37 90 -96t35 -152q0 -80 -33 -139q-37 -66 -94 -106q-55 -39 -152 -66q-88 -25 -205 -24q-98 0 -186 16q-84 16 -145 49q-63 35 -105 88q-40 51 -63 137zM399 1184v30l254 287h258v-43l-342 -274h-170z" />
<glyph unicode="&#x15c;" horiz-adv-x="1363" d="M59 367l285 47q12 -43 35 -86q20 -37 63 -68q41 -29 101 -43q66 -16 147 -16q152 0 230 45q80 45 79 143q0 55 -32 94q-31 37 -84.5 61.5t-122.5 41.5q-45 10 -144 30l-120 29q-55 14 -115 37q-53 20 -100 49q-49 29 -82 72q-37 47 -54 98q-20 66 -20 135q0 106 43 181 q47 80 115 122q78 49 178 70t225 21q141 0 236 -21q96 -20 165 -66q63 -39 105 -110q39 -66 57 -156l-286 -39q-20 92 -89 138q-66 45 -194 45q-77 0 -129 -13q-45 -10 -82 -37q-31 -20 -43 -53q-14 -37 -14 -65q0 -52 24 -86q25 -33 72 -55.5t106 -37.5q100 -25 138 -32 q23 -6 65.5 -14.5t65.5 -14.5q70 -16 125 -37q57 -20 108 -51q55 -33 90 -74q37 -43 58 -102q23 -63 22 -143q0 -92 -35 -175q-33 -78 -108 -135q-74 -55 -188.5 -85.5t-272.5 -30.5q-141 0 -248 24q-100 23 -182 76t-125 121q-48 76 -68 166zM342 1530v29l258 276h230 l250 -276v-29h-160l-203 151h-4l-211 -151h-160z" />
<glyph unicode="&#x15d;" d="M72 270l247 37q12 -47 33 -74q23 -29 51.5 -43t73.5 -20q29 -4 94 -4q47 0 91 6q39 6 71 18q25 10 47 39q16 23 17 62q0 41 -25 65q-27 27 -67.5 41.5t-98.5 26.5q-96 20 -123 27q-96 23 -135 34q-68 23 -117 58q-53 39 -84 92q-33 59 -32 139q0 78 30 139q31 59 88 103 q61 45 144 65q90 23 196 23q82 0 164 -17q70 -14 135 -53q61 -37 101 -90q43 -59 57 -133l-250 -27q-6 41 -24 66q-20 27 -45 41t-62 20q-23 4 -76 4q-100 0 -149 -24q-51 -27 -51 -86q0 -39 20 -60q23 -23 58 -36q37 -14 90 -25q49 -8 112 -25q49 -10 148 -38 q76 -23 129 -58q55 -37 90 -96t35 -152q0 -80 -33 -139q-37 -66 -94 -106q-55 -39 -152 -66q-88 -25 -205 -24q-98 0 -186 16q-84 16 -145 49q-63 35 -105 88q-40 51 -63 137zM199 1184v26l258 320h229l250 -320v-26h-159l-203 190h-4l-211 -190h-160z" />
<glyph unicode="&#x15e;" horiz-adv-x="1363" d="M59 367l285 47q12 -43 35 -86q20 -37 63 -68q41 -29 101 -43q66 -16 147 -16q152 0 230 45q80 45 79 143q0 55 -32 94q-31 37 -84.5 61.5t-122.5 41.5q-45 10 -144 30l-120 29q-55 14 -115 37q-53 20 -100 49q-49 29 -82 72q-37 47 -54 98q-20 66 -20 135q0 106 43 181 q47 80 115 122q78 49 178 70t225 21q141 0 236 -21q96 -20 165 -66q63 -39 105 -110q39 -66 57 -156l-286 -39q-20 92 -89 138q-66 45 -194 45q-77 0 -129 -13q-45 -10 -82 -37q-31 -20 -43 -53q-14 -37 -14 -65q0 -52 24 -86q25 -33 72 -55.5t106 -37.5q100 -25 138 -32 q23 -6 65.5 -14.5t65.5 -14.5q70 -16 125 -37q57 -20 108 -51q55 -33 90 -74q37 -43 58 -102q23 -63 22 -143q0 -92 -35 -175q-33 -78 -108 -135q-74 -55 -188.5 -85.5t-272.5 -30.5q-141 0 -248 24q-100 23 -182 76t-125 121q-48 76 -68 166zM518 -301q25 -6 45 -6h39 q76 0 106.5 18.5t30.5 48.5q0 35 -28 54q-25 16 -94 16h-25q-16 0 -27 -2l62 172h143l-33 -82q94 -6 139.5 -45t45.5 -109q0 -43 -15 -73q-16 -37 -51 -60q-41 -27 -94 -41q-61 -16 -143 -16q-45 0 -101 6v119z" />
<glyph unicode="&#x15f;" d="M72 270l247 37q12 -47 33 -74q23 -29 51.5 -43t73.5 -20q29 -4 94 -4q47 0 91 6q39 6 71 18q25 10 47 39q16 23 17 62q0 41 -25 65q-27 27 -67.5 41.5t-98.5 26.5q-96 20 -123 27q-96 23 -135 34q-68 23 -117 58q-53 39 -84 92q-33 59 -32 139q0 78 30 139q31 59 88 103 q61 45 144 65q90 23 196 23q82 0 164 -17q70 -14 135 -53q61 -37 101 -90q43 -59 57 -133l-250 -27q-6 41 -24 66q-20 27 -45 41t-62 20q-23 4 -76 4q-100 0 -149 -24q-51 -27 -51 -86q0 -39 20 -60q23 -23 58 -36q37 -14 90 -25q49 -8 112 -25q49 -10 148 -38 q76 -23 129 -58q55 -37 90 -96t35 -152q0 -80 -33 -139q-37 -66 -94 -106q-55 -39 -152 -66q-88 -25 -205 -24q-98 0 -186 16q-84 16 -145 49q-63 35 -105 88q-40 51 -63 137zM383 -301q25 -6 45 -6h39q76 0 106.5 18.5t30.5 48.5q0 35 -28 54q-25 16 -94 16h-25 q-16 0 -27 -2l62 172h143l-33 -82q94 -6 139.5 -45t45.5 -109q0 -43 -15 -73q-16 -37 -51 -60q-41 -27 -94 -41q-61 -16 -143 -16q-45 0 -101 6v119z" />
<glyph unicode="&#x160;" horiz-adv-x="1363" d="M59 367l285 47q12 -43 35 -86q20 -37 63 -68q41 -29 101 -43q66 -16 147 -16q152 0 230 45q80 45 79 143q0 55 -32 94q-31 37 -84.5 61.5t-122.5 41.5q-45 10 -144 30l-120 29q-55 14 -115 37q-53 20 -100 49q-49 29 -82 72q-37 47 -54 98q-20 66 -20 135q0 106 43 181 q47 80 115 122q78 49 178 70t225 21q141 0 236 -21q96 -20 165 -66q63 -39 105 -110q39 -66 57 -156l-286 -39q-20 92 -89 138q-66 45 -194 45q-77 0 -129 -13q-45 -10 -82 -37q-31 -20 -43 -53q-14 -37 -14 -65q0 -52 24 -86q25 -33 72 -55.5t106 -37.5q100 -25 138 -32 q23 -6 65.5 -14.5t65.5 -14.5q70 -16 125 -37q57 -20 108 -51q55 -33 90 -74q37 -43 58 -102q23 -63 22 -143q0 -92 -35 -175q-33 -78 -108 -135q-74 -55 -188.5 -85.5t-272.5 -30.5q-141 0 -248 24q-100 23 -182 76t-125 121q-48 76 -68 166zM319 1806v29h160l211 -152h4 l203 152h160v-29l-250 -276h-230z" />
<glyph unicode="&#x161;" d="M72 270l247 37q12 -47 33 -74q23 -29 51.5 -43t73.5 -20q29 -4 94 -4q47 0 91 6q39 6 71 18q25 10 47 39q16 23 17 62q0 41 -25 65q-27 27 -67.5 41.5t-98.5 26.5q-96 20 -123 27q-96 23 -135 34q-68 23 -117 58q-53 39 -84 92q-33 59 -32 139q0 78 30 139q31 59 88 103 q61 45 144 65q90 23 196 23q82 0 164 -17q70 -14 135 -53q61 -37 101 -90q43 -59 57 -133l-250 -27q-6 41 -24 66q-20 27 -45 41t-62 20q-23 4 -76 4q-100 0 -149 -24q-51 -27 -51 -86q0 -39 20 -60q23 -23 58 -36q37 -14 90 -25q49 -8 112 -25q49 -10 148 -38 q76 -23 129 -58q55 -37 90 -96t35 -152q0 -80 -33 -139q-37 -66 -94 -106q-55 -39 -152 -66q-88 -25 -205 -24q-98 0 -186 16q-84 16 -145 49q-63 35 -105 88q-40 51 -63 137zM205 1499v31h160l211 -195h4l203 195h159v-31l-250 -315h-229z" />
<glyph unicode="&#x162;" horiz-adv-x="1249" d="M23 1182v227h1206v-227h-457v-1182h-295v1182h-454zM508 -78h246v-127q0 -41 -6 -78q-4 -29 -20 -67q-12 -31 -31 -56q-4 -6 -11.5 -15t-13.5 -17t-12 -17h-137q47 49 69 90q25 43 25 80h-109v207z" />
<glyph unicode="&#x163;" horiz-adv-x="681" d="M25 893v188h151l88 254h176v-254h205v-188h-205v-563q0 -82 29 -117q31 -37 94 -37q18 0 47 4q14 2 47 10v-174q-47 -16 -110 -26q-51 -8 -127 -8q-123 0 -190.5 67.5t-67.5 204.5v639h-137zM239 -78h246v-127q0 -41 -6 -78q-4 -29 -20 -67q-12 -31 -31 -56 q-4 -6 -11.5 -15t-13.5 -17t-12 -17h-137q47 49 69 90q25 43 25 80h-109v207z" />
<glyph unicode="&#x164;" horiz-adv-x="1249" d="M23 1182v227h1206v-227h-457v-1182h-295v1182h-454zM262 1806v29h160l211 -152h4l203 152h160v-29l-250 -276h-230z" />
<glyph unicode="&#x165;" horiz-adv-x="980" d="M25 893v188h151l88 254h176v-254h205v-188h-205v-563q0 -82 29 -117q31 -37 94 -37q18 0 47 4q14 2 47 10v-174q-47 -16 -110 -26q-51 -8 -127 -8q-123 0 -190.5 67.5t-67.5 204.5v639h-137zM736 1278v207h245v-145q0 -31 -8 -80q-6 -33 -18 -66q-14 -35 -31 -57 q-4 -6 -11 -15.5t-13.5 -17.5l-12.5 -16h-137q45 49 70 96q25 49 24 94h-108z" />
<glyph unicode="&#x166;" horiz-adv-x="1249" d="M23 1182v227h1206v-227h-457v-367h229v-188h-229v-627h-295v627h-225v188h225v367h-454z" />
<glyph unicode="&#x167;" horiz-adv-x="681" d="M25 893v188h151l88 254h176v-254h205v-188h-205v-229h185v-191h-185v-143q0 -82 29 -117q31 -37 94 -37q18 0 47 4q14 2 47 10v-174q-47 -16 -110 -26q-51 -8 -127 -8q-123 0 -190.5 67.5t-67.5 204.5v219h-127v191h127v229h-137z" />
<glyph unicode="&#x168;" horiz-adv-x="1478" d="M123 528v881h295v-858q0 -86 22 -154q20 -59 64 -106q37 -41 98 -60q66 -20 129 -20q74 0 133.5 20.5t102.5 63.5t67 108q25 63 25 158v848h295v-866q0 -139 -47 -250q-43 -102 -131 -176q-80 -68 -199 -103q-121 -35 -254 -34q-123 0 -242 32q-115 31 -190 97 q-80 68 -123 172q-45 108 -45 247zM348 1530q4 61 10 96q10 53 33 94q29 49 65 74q45 29 117 29q45 0 90 -19q37 -14 86 -43l40 -21l40 -22q37 -18 66 -18q27 0 41 8q16 10 28 25q8 10 17 39q4 14 12 51h135q-4 -61 -10 -97q-8 -51 -31 -94q-23 -47 -65 -73 q-45 -29 -117 -29q-45 0 -88 18.5t-86 43t-80 43t-68 18.5q-27 0 -43 -8q-20 -10 -28 -25q-10 -16 -17 -39q-2 -8 -5 -25.5t-5 -25.5h-137z" />
<glyph unicode="&#x169;" horiz-adv-x="1249" d="M127 395v686h281v-606q0 -57 10 -115q8 -49 33 -90q23 -37 59 -59q35 -20 90 -21q47 0 92 23q41 20 72 63q33 47 47 99q16 61 16 127v579h281v-839v-72q0 -12 1 -35.5t1 -34.5q0 -12 2 -32.5t2 -28.5q0 -10 1 -23.5t1 -15.5h-268q0 2 -4 39t-4 57v32.5t-2 33.5 q0 10 -1 28.5t-1 24.5h-5q-55 -121 -143 -178q-90 -57 -205 -57q-94 0 -166 32q-66 29 -110 88q-43 55 -61.5 131t-18.5 164zM230 1184q2 43 12 96q10 59 31 94q29 49 65 74q45 29 117 29q39 0 90 -21q47 -18 86 -41q20 -10 39.5 -21.5t40.5 -21.5q37 -18 65 -18q27 0 41 8 q16 10 29 24q8 10 16 39q4 14 13 52h135q-4 -61 -10 -97q-10 -53 -31 -96q-23 -43 -66 -72q-45 -29 -116 -28q-45 0 -88 18.5t-86 42.5q-14 8 -80 41q-41 20 -67.5 20.5t-43.5 -8.5q-20 -10 -28 -24q-10 -16 -17 -39q-2 -8 -5 -25.5t-5 -25.5h-137z" />
<glyph unicode="&#x16a;" horiz-adv-x="1478" d="M123 528v881h295v-858q0 -86 22 -154q20 -59 64 -106q37 -41 98 -60q66 -20 129 -20q74 0 133.5 20.5t102.5 63.5t67 108q25 63 25 158v848h295v-866q0 -139 -47 -250q-43 -102 -131 -176q-80 -68 -199 -103q-121 -35 -254 -34q-123 0 -242 32q-115 31 -190 97 q-80 68 -123 172q-45 108 -45 247zM434 1532v168h610v-168h-610z" />
<glyph unicode="&#x16b;" horiz-adv-x="1249" d="M127 395v686h281v-606q0 -57 10 -115q8 -49 33 -90q23 -37 59 -59q35 -20 90 -21q47 0 92 23q41 20 72 63q33 47 47 99q16 61 16 127v579h281v-839v-72q0 -12 1 -35.5t1 -34.5q0 -12 2 -32.5t2 -28.5q0 -10 1 -23.5t1 -15.5h-268q0 2 -4 39t-4 57v32.5t-2 33.5 q0 10 -1 28.5t-1 24.5h-5q-55 -121 -143 -178q-90 -57 -205 -57q-94 0 -166 32q-66 29 -110 88q-43 55 -61.5 131t-18.5 164zM313 1202v168h610v-168h-610z" />
<glyph unicode="&#x16c;" horiz-adv-x="1478" d="M123 528v881h295v-858q0 -86 22 -154q20 -59 64 -106q37 -41 98 -60q66 -20 129 -20q74 0 133.5 20.5t102.5 63.5t67 108q25 63 25 158v848h295v-866q0 -139 -47 -250q-43 -102 -131 -176q-80 -68 -199 -103q-121 -35 -254 -34q-123 0 -242 32q-115 31 -190 97 q-80 68 -123 172q-45 108 -45 247zM385 1808h162q10 -37 26 -57q18 -25 43 -43q23 -16 56 -27q35 -10 65 -10q33 0 68 10q37 10 57 27q20 14 41 43q18 25 25 57h163q-10 -59 -32.5 -108t-69.5 -92q-41 -39 -106 -64t-148 -24q-76 0 -141 24q-68 27 -109 64q-47 43 -69 92 q-25 53 -31 108z" />
<glyph unicode="&#x16d;" horiz-adv-x="1249" d="M127 395v686h281v-606q0 -57 10 -115q8 -49 33 -90q23 -37 59 -59q35 -20 90 -21q47 0 92 23q41 20 72 63q33 47 47 99q16 61 16 127v579h281v-839v-72q0 -12 1 -35.5t1 -34.5q0 -12 2 -32.5t2 -28.5q0 -10 1 -23.5t1 -15.5h-268q0 2 -4 39t-4 57v32.5t-2 33.5 q0 10 -1 28.5t-1 24.5h-5q-55 -121 -143 -178q-90 -57 -205 -57q-94 0 -166 32q-66 29 -110 88q-43 55 -61.5 131t-18.5 164zM271 1505h163q10 -47 25 -69q16 -29 43 -52q20 -18 57 -32q31 -12 66 -13q37 0 68 13q37 14 57 32q23 18 41 52q18 31 24 69h164q-10 -68 -33 -123 q-25 -59 -69 -104q-47 -47 -107 -70q-65 -25 -147 -24q-78 0 -143 24q-59 23 -106.5 70t-72.5 104q-24 58 -30 123z" />
<glyph unicode="&#x16e;" horiz-adv-x="1478" d="M123 528v881h295v-858q0 -86 22 -154q20 -59 64 -106q37 -41 98 -60q66 -20 129 -20q74 0 133.5 20.5t102.5 63.5t67 108q25 63 25 158v848h295v-866q0 -139 -47 -250q-43 -102 -131 -176q-80 -68 -199 -103q-121 -35 -254 -34q-123 0 -242 32q-115 31 -190 97 q-80 68 -123 172q-45 108 -45 247zM485 1725q0 55 20 98q23 49 54 80q33 33 82 55q43 20 98 20.5t98 -20.5q49 -23 82 -55q31 -31 53 -80q20 -43 21 -98q0 -57 -21 -101q-23 -49 -53 -80q-37 -37 -82 -55q-46 -18 -98 -18t-98 18q-45 18 -82 55q-31 31 -54 80 q-20 44 -20 101zM614 1725q0 -25 10 -52q8 -23 27 -41q16 -16 39 -26q25 -10 49 -10q23 0 49 10q23 8 41 26.5t27 40.5q10 27 10 52q0 23 -10.5 47t-26.5 41q-18 18 -41 26q-27 10 -49 11q-25 0 -49 -11q-23 -10 -39.5 -26.5t-26.5 -40.5t-10 -47z" />
<glyph unicode="&#x16f;" horiz-adv-x="1249" d="M127 395v686h281v-606q0 -57 10 -115q8 -49 33 -90q23 -37 59 -59q35 -20 90 -21q47 0 92 23q41 20 72 63q33 47 47 99q16 61 16 127v579h281v-839v-72q0 -12 1 -35.5t1 -34.5q0 -12 2 -32.5t2 -28.5q0 -10 1 -23.5t1 -15.5h-268q0 2 -4 39t-4 57v32.5t-2 33.5 q0 10 -1 28.5t-1 24.5h-5q-55 -121 -143 -178q-90 -57 -205 -57q-94 0 -166 32q-66 29 -110 88q-43 55 -61.5 131t-18.5 164zM367 1391q0 55 20 98q23 49 54 80q33 33 82 55q43 20 98 20.5t98 -20.5q49 -23 82 -55q31 -31 53 -80q20 -43 21 -98q0 -57 -21 -101 q-23 -49 -53 -80q-37 -37 -82 -55q-46 -18 -98 -18t-98 18q-45 18 -82 55q-31 31 -54 80q-20 44 -20 101zM496 1391q0 -25 10 -52q8 -23 27 -41q16 -16 39 -26q25 -10 49 -10q23 0 49 10q23 8 41 26.5t27 40.5q10 27 10 52q0 23 -10.5 47t-26.5 41q-18 18 -41 26 q-27 10 -49 11q-25 0 -49 -11q-23 -10 -39.5 -26.5t-26.5 -40.5t-10 -47z" />
<glyph unicode="&#x170;" horiz-adv-x="1478" d="M123 528v881h295v-858q0 -86 22 -154q20 -59 64 -106q37 -41 98 -60q66 -20 129 -20q74 0 133.5 20.5t102.5 63.5t67 108q25 63 25 158v848h295v-866q0 -139 -47 -250q-43 -102 -131 -176q-80 -68 -199 -103q-121 -35 -254 -34q-123 0 -242 32q-115 31 -190 97 q-80 68 -123 172q-45 108 -45 247zM393 1530v35l215 252h236v-43l-320 -244h-131zM799 1530v35l215 252h235v-43l-317 -244h-133z" />
<glyph unicode="&#x171;" horiz-adv-x="1249" d="M127 395v686h281v-606q0 -57 10 -115q8 -49 33 -90q23 -37 59 -59q35 -20 90 -21q47 0 92 23q41 20 72 63q33 47 47 99q16 61 16 127v579h281v-839v-72q0 -12 1 -35.5t1 -34.5q0 -12 2 -32.5t2 -28.5q0 -10 1 -23.5t1 -15.5h-268q0 2 -4 39t-4 57v32.5t-2 33.5 q0 10 -1 28.5t-1 24.5h-5q-55 -121 -143 -178q-90 -57 -205 -57q-94 0 -166 32q-66 29 -110 88q-43 55 -61.5 131t-18.5 164zM256 1184v35l225 266h236v-43l-320 -258h-141zM661 1184v35l226 266h235v-43l-317 -258h-144z" />
<glyph unicode="&#x172;" horiz-adv-x="1478" d="M123 528v881h295v-858q0 -86 22 -154q20 -59 64 -106q37 -41 98 -60q66 -20 129 -20q74 0 133.5 20.5t102.5 63.5t67 108q25 63 25 158v848h295v-866q0 -139 -47 -250q-43 -102 -131 -176q-80 -68 -199 -103q-121 -35 -254 -34q-123 0 -242 32q-115 31 -190 97 q-80 68 -123 172q-45 108 -45 247zM621 -225q0 45 16 88q16 45 39 71q25 31 53 54q23 18 49 32h154q-63 -43 -96 -98q-33 -57 -33 -110q0 -43 25 -68q27 -27 69 -27q20 0 58 9q28 6 55 18v-135q-66 -35 -152 -35q-43 0 -94 14q-47 12 -76 37q-29 23 -49 64q-18 37 -18 86z " />
<glyph unicode="&#x173;" horiz-adv-x="1249" d="M127 395v686h281v-606q0 -57 10 -115q8 -49 33 -90q23 -37 59 -59q35 -20 90 -21q47 0 92 23q41 20 72 63q33 47 47 99q16 61 16 127v579h281v-839v-72q0 -12 1 -35.5t1 -34.5q0 -12 2 -32.5t2 -28.5q0 -10 1 -23.5t1 -15.5h-268q0 2 -4 39t-4 57v32.5t-2 33.5 q0 10 -1 28.5t-1 24.5h-5q-55 -121 -143 -178q-90 -57 -205 -57q-94 0 -166 32q-66 29 -110 88q-43 55 -61.5 131t-18.5 164zM721 -225q0 45 16 88q16 45 39 71q25 31 53 54q23 18 49 32h154q-63 -43 -96 -98q-33 -57 -33 -110q0 -43 25 -68q27 -27 69 -27q20 0 58 9 q28 6 55 18v-135q-66 -35 -152 -35q-43 0 -94 14q-47 12 -76 37q-29 23 -49 64q-18 37 -18 86z" />
<glyph unicode="&#x174;" horiz-adv-x="1931" d="M2 1409h299l176 -784q23 -96 29 -125l22 -113l23 -108l29 145q2 14 6 29.5l8 31.5l12 64l12 59q2 14 6.5 26.5t6.5 24.5l174 750h330l178 -750q8 -33 12 -53l12 -61l13 -64q2 -10 5 -30.5t5 -30.5l24 -141l25 116q10 51 25 113q8 31 28 117l170 784h299l-364 -1409h-350 l-191 815q-16 68 -20 88l-19 98q-8 37 -20 115q-6 -33 -12.5 -61.5t-10.5 -53.5l-8 -49l-12 -51q-4 -14 -9 -47q-2 -14 -10 -39l-190 -815h-350zM600 1530v29l258 276h230l250 -276v-29h-160l-203 151h-4l-211 -151h-160z" />
<glyph unicode="&#x175;" horiz-adv-x="1591" d="M-6 1081h264l137 -635l13 -61q4 -18 8 -33.5t6 -27.5q8 -45 14 -68q4 20 8.5 37.5t6.5 36.5l12 61l7 31.5t5 23.5l170 635h301l166 -635q12 -51 14 -59q6 -33 13 -61q2 -16 6 -34l8 -36q10 45 14 70q2 12 6.5 27.5t8.5 33.5q6 33 12 59l143 635h260l-284 -1081h-297 l-172 659q-2 4 -17 70q-8 39 -14 74l-16 80q-4 -20 -9.5 -40t-9.5 -40q-8 -35 -16 -74t-17 -72l-174 -657h-297zM428 1184v26l258 320h229l250 -320v-26h-159l-203 190h-4l-211 -190h-160z" />
<glyph unicode="&#x176;" horiz-adv-x="1363" d="M35 1409h309l338 -596l342 596h309l-502 -831v-578h-294v578zM315 1530v29l258 276h230l250 -276v-29h-160l-203 151h-4l-211 -151h-160z" />
<glyph unicode="&#x177;" d="M16 1081h297l170 -506q3 -12 13 -36l18 -60l8 -23.5t7 -21.5l8 -26q10 -37 20 -70q2 -6 8 -27.5t8 -31.5q4 -14 7.5 -23.5t3.5 -13.5q0 4 3 12t7 22l14 60q2 12 19 67q10 37 18 70t17 59q2 10 7 23.5t5 15.5l160 510h294l-428 -1138q-41 -98 -79 -164q-43 -72 -89 -115 q-51 -47 -108 -67q-63 -23 -141 -23q-29 0 -90 4q-35 2 -87 10v199q8 -2 23.5 -3t24.5 -1q18 -2 49 -2q47 0 73 8q35 10 58 31q31 27 49 55q18 31 43 88l18 47zM213 1184v26l258 320h229l250 -320v-26h-159l-203 190h-4l-211 -190h-160z" />
<glyph unicode="&#x178;" horiz-adv-x="1363" d="M35 1409h309l338 -596l342 596h309l-502 -831v-578h-294v578zM352 1530v219h195v-219h-195zM807 1530v219h197v-219h-197z" />
<glyph unicode="&#x179;" horiz-adv-x="1249" d="M61 0v209l762 969h-686v231h1014v-205l-762 -973h803v-231h-1131zM471 1530v31l254 254h258v-43l-342 -242h-170z" />
<glyph unicode="&#x17a;" horiz-adv-x="1024" d="M68 0v199l540 680h-499v202h809v-200l-537 -676h586v-205h-899zM336 1184v30l254 287h258v-43l-342 -274h-170z" />
<glyph unicode="&#x17b;" horiz-adv-x="1249" d="M61 0v209l762 969h-686v231h1014v-205l-762 -973h803v-231h-1131zM498 1538v207h280v-207h-280z" />
<glyph unicode="&#x17c;" horiz-adv-x="1024" d="M68 0v199l540 680h-499v202h809v-200l-537 -676h586v-205h-899zM389 1268v207h280v-207h-280z" />
<glyph unicode="&#x17d;" horiz-adv-x="1249" d="M61 0v209l762 969h-686v231h1014v-205l-762 -973h803v-231h-1131zM274 1806v29h160l211 -152h4l203 152h160v-29l-250 -276h-230z" />
<glyph unicode="&#x17e;" horiz-adv-x="1024" d="M68 0v199l540 680h-499v202h809v-200l-537 -676h586v-205h-899zM143 1499v31h160l211 -195h4l203 195h159v-31l-250 -315h-229z" />
<glyph unicode="&#x17f;" horiz-adv-x="567" d="M141 0v1194q0 59 17 115q16 53 51 92q37 41 96 61q63 23 152 23q47 0 94 -6q12 -2 41 -5.5t43 -5.5v-182q-4 0 -18.5 3t-22.5 5q-14 2 -41 2q-41 0 -64 -8q-27 -10 -41 -24.5t-20 -40.5q-6 -25 -6 -56v-1167h-281z" />
<glyph unicode="&#x192;" d="M168 -426l252 1266h-160l39 190h158l26 135q14 72 35 115q23 49 68 90q43 39 108 62q68 23 158 22q31 0 47 -2l51 -6q16 -2 45 -10q22 -6 37 -13l-39 -176q-6 2 -22 6l-29 7q-10 2 -27 2q-4 0 -12 1t-12 1q-68 0 -94.5 -33t-38.5 -94l-21 -107h211l-35 -190h-213 l-251 -1266h-281z" />
<glyph unicode="&#x1fa;" horiz-adv-x="1478" d="M51 0l514 1409h348l512 -1409h-292l-125 360h-537l-125 -360h-295zM537 582h405l-139 405q-6 16 -11.5 34.5t-11.5 35.5l-20 65q-12 43 -15 49q-6 18 -6 21q0 -4 -6 -23q-2 -6 -6 -21t-8 -26l-8 -30.5t-11 -34.5l-24 -70zM485 1538q0 55 20 98q23 49 54 80q33 33 82 55 q43 20 98 20.5t98 -20.5q49 -23 82 -55q31 -31 53 -80q20 -43 21 -98q0 -57 -21 -101q-23 -49 -53 -80q-37 -37 -82 -55q-46 -18 -98 -18t-98 18q-45 18 -82 55q-31 31 -54 80q-20 44 -20 101zM614 1538q0 -25 10 -52q8 -23 27 -41q16 -16 39 -26q25 -10 49 -10q23 0 49 10 q23 8 41 26.5t27 40.5q10 27 10 52q0 23 -10.5 47t-26.5 41q-18 18 -41 26q-27 10 -49 11q-25 0 -49 -11q-23 -10 -39.5 -26.5t-26.5 -40.5t-10 -47zM586 1831v31l254 254h258v-43l-342 -242h-170z" />
<glyph unicode="&#x1fb;" d="M59 305q0 96 35 162q37 70 90 106q59 41 138 60q77 18 165 18l234 4v56q0 45 -12 98q-10 45 -29 65q-23 27 -51 35q-35 10 -68 11q-34 0 -61 -7q-25 -6 -47 -24q-20 -18 -33 -47q-12 -33 -19 -74l-292 12q12 68 45 131q29 53 88 101q55 43 139 67q76 23 192 23 q100 0 180.5 -24.5t135.5 -74t83.5 -123t28.5 -165.5v-396q0 -47 3 -67q2 -23 14 -51q10 -23 26 -31q20 -10 46 -10q31 0 61 6v-152q-12 -2 -22.5 -6t-20.5 -6q-2 0 -41 -6l-43 -6q-14 -2 -51 -2q-109 0 -158 53q-51 53 -59 152h-6q-53 -98 -143.5 -155.5t-213.5 -57.5 q-76 0 -139 22q-66 23 -104 61q-45 45 -66 105q-25 69 -25 137zM352 328q0 -78 37 -115t94 -37q53 0 99 23q39 18 73 61q27 33 47 86q18 49 19 100v56l-146 -2q-53 -4 -83 -8q-45 -6 -72 -23q-31 -18 -49.5 -51t-18.5 -90zM315 1391q0 55 20 98q23 49 54 80q33 33 82 55 q43 20 98 20.5t98 -20.5q49 -23 82 -55q31 -31 53 -80q20 -43 21 -98q0 -57 -21 -101q-23 -49 -53 -80q-37 -37 -82 -55q-46 -18 -98 -18t-98 18q-45 18 -82 55q-31 31 -54 80q-20 44 -20 101zM444 1391q0 -25 10 -52q8 -23 27 -41q16 -16 39 -26q25 -10 49 -10q23 0 49 10 q23 8 41 26.5t27 40.5q10 27 10 52q0 23 -10.5 47t-26.5 41q-18 18 -41 26q-27 10 -49 11q-25 0 -49 -11q-23 -10 -39.5 -26.5t-26.5 -40.5t-10 -47zM440 1694v30l254 287h258v-43l-342 -274h-170z" />
<glyph unicode="&#x1fc;" horiz-adv-x="2048" d="M4 0l701 1409h1222v-227h-700v-355h639v-221h-639v-379h741v-227h-1036v360h-451l-172 -360h-305zM584 582h348v610h-62q-4 -8 -16 -37q-6 -14 -14.5 -29.5t-14.5 -31.5l-10 -23.5t-9 -20l-11 -22.5q-14 -31 -21 -45zM1081 1530v31l254 254h258v-43l-342 -242h-170z" />
<glyph unicode="&#x1fd;" horiz-adv-x="1820" d="M66 305q0 96 34 162q37 70 95 106q59 39 141 58q76 16 170 20l239 4v56q0 66 -10 98q-14 43 -33 65q-23 25 -53 35q-35 10 -71 11q-35 0 -66 -7q-29 -6 -51 -24q-25 -20 -35 -47q-12 -33 -18 -74l-293 12q12 76 45 131q35 59 90 101q59 43 139 67q76 23 197 23 q219 0 334 -107q66 55 155 82q86 25 182 25q123 0 218 -45q92 -45 149 -123q55 -74 84 -193q29 -115 29 -245v-21h-695q0 -66 13 -121q12 -53 41 -98q25 -37 69 -63q43 -25 103 -25q76 0 121 31q43 29 65 98l266 -23q-20 -51 -51 -98q-39 -59 -86 -96q-57 -45 -135 -72 q-82 -29 -195 -28q-147 0 -262 57q-106 53 -172 172q-28 -49 -67 -92q-35 -37 -90 -72q-43 -27 -113 -47q-66 -18 -143 -18q-74 0 -141.5 22.5t-106.5 60.5q-43 43 -67.5 104.5t-24.5 137.5zM358 328q0 -76 39 -115q37 -37 99 -37q57 0 102 25q47 25 80 63q31 37 51 90 q16 43 16 103v45l-151 -2q-57 -4 -90 -8q-49 -8 -76 -23q-31 -18 -49 -51q-21 -37 -21 -90zM1044 664h420q-10 133 -63 196q-55 66 -148 66q-45 0 -79 -15q-37 -16 -66 -47q-25 -27 -45 -82q-15 -40 -19 -118zM772 1184v30l254 287h258v-43l-342 -274h-170z" />
<glyph unicode="&#x1fe;" horiz-adv-x="1591" d="M84 711q0 164 47 299q45 131 137 225q94 98 224 145q131 49 303 50q102 0 192 -19q76 -16 162 -55l82 117h192l-141 -203q111 -94 168 -236q57 -139 57 -323q0 -164 -49 -299q-51 -139 -139 -232q-92 -94 -225 -147q-135 -53 -301 -53q-211 0 -361 77l-90 -129l-195 -2 l154 219q-109 98 -164 244q-53 140 -53 322zM381 711q0 -102 20 -183q23 -88 64 -149l539 768q-55 29 -97 39q-51 12 -112 12q-100 0 -181 -35q-77 -34 -129 -98q-53 -66 -77 -154q-27 -96 -27 -200zM580 266q45 -27 96 -41q49 -14 117 -14q106 0 186 37t129 104 q53 72 76 160q23 84 22 199q0 102 -20 182q-20 82 -66 145zM625 1530v31l254 254h258v-43l-342 -242h-170z" />
<glyph unicode="&#x1ff;" horiz-adv-x="1249" d="M0 -55l199 215q-59 76 -90 170q-29 88 -29 213t33 223q33 100 102 176q72 78 170 119q100 41 242 41q106 0 186 -21q76 -20 143 -61l103 113h182l-182 -205q58 -74 86 -172q27 -94 26.5 -213t-34.5 -228q-33 -98 -105 -178q-68 -74 -172 -117q-100 -41 -239 -40 q-94 0 -179 22q-74 20 -145 68l-113 -125h-184zM375 543q0 -100 16 -164l408 461q-63 70 -168 69q-127 0 -191 -88q-65 -90 -65 -278zM455 244q27 -33 71 -54q39 -18 92 -18q63 0 110.5 20.5t82.5 67.5q31 41 49 115q16 63 17 168q0 33 -5 86q-4 43 -12 76zM465 1184v30 l254 287h258v-43l-342 -274h-170z" />
<glyph unicode="&#x2c6;" horiz-adv-x="681" d="M0 1184v26l258 320h229l250 -320v-26h-159l-203 190h-4l-211 -190h-160z" />
<glyph unicode="&#x2c7;" horiz-adv-x="681" d="M0 1499v31h160l211 -195h4l203 195h159v-31l-250 -315h-229z" />
<glyph unicode="&#x2c9;" horiz-adv-x="681" d="M37 1202v168h610v-168h-610z" />
<glyph unicode="&#x2d8;" horiz-adv-x="681" d="M-57 1505h163q10 -47 25 -69q16 -29 43 -52q20 -18 57 -32q31 -12 66 -13q37 0 68 13q37 14 57 32q23 18 41 52q18 31 24 69h164q-10 -68 -33 -123q-25 -59 -69 -104q-47 -47 -107 -70q-65 -25 -147 -24q-78 0 -143 24q-59 23 -106.5 70t-72.5 104q-24 58 -30 123z" />
<glyph unicode="&#x2d9;" horiz-adv-x="681" d="M201 1268v207h280v-207h-280z" />
<glyph unicode="&#x2da;" horiz-adv-x="681" d="M39 1391q0 55 20 98q23 49 54 80q33 33 82 55q43 20 98 20.5t98 -20.5q49 -23 82 -55q31 -31 53 -80q20 -43 21 -98q0 -57 -21 -101q-23 -49 -53 -80q-37 -37 -82 -55q-46 -18 -98 -18t-98 18q-45 18 -82 55q-31 31 -54 80q-20 44 -20 101zM168 1391q0 -25 10 -52 q8 -23 27 -41q16 -16 39 -26q25 -10 49 -10q23 0 49 10q23 8 41 26.5t27 40.5q10 27 10 52q0 23 -10.5 47t-26.5 41q-18 18 -41 26q-27 10 -49 11q-25 0 -49 -11q-23 -10 -39.5 -26.5t-26.5 -40.5t-10 -47z" />
<glyph unicode="&#x2db;" horiz-adv-x="681" d="M76 -225q0 45 16 88q16 45 39 71q25 31 53 54q23 18 49 32h154q-63 -43 -96 -98q-33 -57 -33 -110q0 -43 25 -68q27 -27 69 -27q20 0 58 9q28 6 55 18v-135q-66 -35 -152 -35q-43 0 -94 14q-47 12 -76 37q-29 23 -49 64q-18 37 -18 86z" />
<glyph unicode="&#x2dc;" horiz-adv-x="681" d="M-14 1184q2 43 12 96q10 59 31 94q29 49 65 74q45 29 117 29q39 0 90 -21q47 -18 86 -41q20 -10 39.5 -21.5t40.5 -21.5q37 -18 65 -18q27 0 41 8q16 10 29 24q8 10 16 39q4 14 13 52h135q-4 -61 -10 -97q-10 -53 -31 -96q-23 -43 -66 -72q-45 -29 -116 -28 q-45 0 -88 18.5t-86 42.5q-14 8 -80 41q-41 20 -67.5 20.5t-43.5 -8.5q-20 -10 -28 -24q-10 -16 -17 -39q-2 -8 -5 -25.5t-5 -25.5h-137z" />
<glyph unicode="&#x2dd;" horiz-adv-x="681" d="M-92 1184v35l225 266h236v-43l-320 -258h-141zM313 1184v35l226 266h235v-43l-317 -258h-144z" />
<glyph unicode="&#x384;" horiz-adv-x="681" d="M184 1184v33l70 290h258v-37l-221 -286h-107z" />
<glyph unicode="&#x385;" horiz-adv-x="950" d="M111 1231v221h198v-221h-198zM360 1190v33l60 399h237v-39l-182 -393h-115zM641 1231v221h201v-221h-201z" />
<glyph unicode="&#x386;" horiz-adv-x="1478" d="M51 0l514 1409h348l512 -1409h-292l-125 360h-537l-125 -360h-295zM537 582h405l-139 405q-6 16 -11.5 34.5t-11.5 35.5l-20 65q-12 43 -15 49q-6 18 -6 21q0 -4 -6 -23q-2 -6 -6 -21t-8 -26l-8 -30.5t-11 -34.5l-24 -70zM34 1086v33l70 290h258v-37l-221 -286h-107z" />
<glyph unicode="&#x387;" horiz-adv-x="681" d="M196 530v306h287v-306h-287z" />
<glyph unicode="&#x388;" horiz-adv-x="1746" d="M518 0v1409h1108v-227h-813v-355h752v-229h-752v-371h854v-227h-1149zM45 1086v33l70 290h258v-37l-221 -286h-107z" />
<glyph unicode="&#x389;" horiz-adv-x="1853" d="M514 0v1409h295v-561h625v561h284v-1409h-284v604h-625v-604h-295zM34 1086v33l70 290h258v-37l-221 -286h-107z" />
<glyph unicode="&#x38a;" horiz-adv-x="968" d="M538 0v1409h295v-1409h-295zM34 1086v33l70 290h258v-37l-221 -286h-107z" />
<glyph unicode="&#x38c;" horiz-adv-x="1687" d="M180 711q0 164 47 299q45 131 137 225q94 98 224 145q131 49 303 50q176 0 305 -52q141 -55 223 -143q92 -98 137 -227q47 -135 47 -297q0 -164 -49 -299q-49 -137 -141 -231.5t-225 -147.5q-135 -53 -299 -53q-178 0 -310 55q-135 57 -221 151q-92 100 -133 232 q-45 141 -45 293zM477 711q0 -113 27 -201q29 -98 77 -158q53 -66 129 -102q77 -37 179 -37q109 0 186 37q82 39 129 104q49 70 74 158q25 92 24 199q0 115 -26 200q-29 94 -78 154q-52 65 -129 98q-80 35 -178 35q-100 0 -181 -35q-77 -34 -129 -98q-53 -66 -77 -154 q-27 -96 -27 -200zM-27 1086v33l70 290h258v-37l-221 -286h-107z" />
<glyph unicode="&#x38e;" horiz-adv-x="1898" d="M567 1409h309l338 -596l342 596h309l-502 -831v-578h-294v578zM127 1086v33l70 290h258v-37l-221 -286h-107z" />
<glyph unicode="&#x38f;" horiz-adv-x="1714" d="M158 0v227h272h58q20 0 57 -4l32.5 -4t31.5 -2q-121 57 -193 115q-78 63 -131 141q-51 74 -76 166q-25 89 -24 190q0 141 49 252q49 113 141 189q96 80 223 119q135 41 297 41t297 -41q127 -39 223 -119q92 -76 142 -189q49 -111 49 -254q0 -101 -25 -190 q-25 -88 -76 -164t-133 -141q-76 -61 -192 -115q14 0 29.5 2l31.5 4q37 4 60 4h55h277v-227h-670v309q184 88 262 201q80 117 80 264q0 102 -27 180q-27 76 -80 133q-49 53 -131 82q-80 29 -174 29q-96 0 -176 -29q-78 -29 -129 -82q-53 -57 -80 -133q-29 -82 -28 -180 q0 -150 81.5 -264.5t262.5 -200.5v-309h-666zM-49 1086v33l70 290h258v-37l-221 -286h-107z" />
<glyph unicode="&#x390;" horiz-adv-x="567" d="M137 236v845h283v-854q0 -33 6 -63q6 -27 16 -64q9 -31 25 -55q16 -25 33 -45h-301q-14 14 -27 43q-16 37 -20 57q-8 37 -11 68q-4 45 -4 68zM-86 1231v221h198v-221h-198zM163 1190v33l60 399h237v-39l-182 -393h-115zM444 1231v221h201v-221h-201z" />
<glyph unicode="&#x391;" horiz-adv-x="1478" d="M51 0l514 1409h348l512 -1409h-292l-125 360h-537l-125 -360h-295zM537 582h405l-139 405q-6 16 -11.5 34.5t-11.5 35.5l-20 65q-12 43 -15 49q-6 18 -6 21q0 -4 -6 -23q-2 -6 -6 -21t-8 -26l-8 -30.5t-11 -34.5l-24 -70z" />
<glyph unicode="&#x392;" horiz-adv-x="1478" d="M137 0v1409h645q119 0 222 -23q100 -23 165 -63q66 -43 101 -111q35 -70 35 -157q0 -123 -66 -203q-68 -83 -203 -111q170 -20 260 -108q90 -86 90 -232q0 -106 -43 -182q-41 -74 -118 -125q-76 -51 -172 -71q-102 -23 -211 -23h-705zM432 219h385q53 0 109 10 q51 10 86 33q37 25 57.5 64t20.5 100q0 53 -23 92q-25 43 -59 62q-47 25 -90 32q-57 10 -111 11h-375v-404zM432 842h338q127 0 182.5 43t55.5 131q0 96 -59.5 135t-180.5 39h-336v-348z" />
<glyph unicode="&#x393;" horiz-adv-x="1230" d="M137 0v1409h1061v-227h-766v-1182h-295z" />
<glyph unicode="&#x394;" horiz-adv-x="1470" d="M84 0v225l483 1184h344l478 -1184v-225h-1305zM391 244h694l-266 698l-28 82l-27 74q-12 31 -19 59l-8 33q0 -6 -10 -33l-18 -59q-4 -10 -11.5 -36t-13.5 -40l-16.5 -40.5t-14.5 -41.5z" />
<glyph unicode="&#x395;" horiz-adv-x="1363" d="M137 0v1409h1108v-227h-813v-355h752v-229h-752v-371h854v-227h-1149z" />
<glyph unicode="&#x396;" horiz-adv-x="1249" d="M61 0v209l762 969h-686v231h1014v-205l-762 -973h803v-231h-1131z" />
<glyph unicode="&#x397;" horiz-adv-x="1478" d="M137 0v1409h295v-561h625v561h284v-1409h-284v604h-625v-604h-295z" />
<glyph unicode="&#x398;" horiz-adv-x="1591" d="M84 711q0 164 47 299q45 131 137 225q94 98 224 145q131 49 303 50q176 0 305 -52q141 -55 223 -143q92 -98 137 -227q47 -135 47 -297q0 -164 -49 -299q-49 -137 -141 -231.5t-225 -147.5q-135 -53 -299 -53q-178 0 -310 55q-135 57 -221 151q-92 100 -133 232 q-45 141 -45 293zM381 711q0 -113 27 -201q29 -98 77 -158q53 -66 129 -102q77 -37 179 -37q109 0 186 37q82 39 129 104q49 70 74 158q25 92 24 199q0 115 -26 200q-29 94 -78 154q-52 65 -129 98q-80 35 -178 35q-100 0 -181 -35q-77 -34 -129 -98q-53 -66 -77 -154 q-27 -96 -27 -200zM502 598v229h588v-229h-588z" />
<glyph unicode="&#x399;" horiz-adv-x="567" d="M137 0v1409h295v-1409h-295z" />
<glyph unicode="&#x39a;" horiz-adv-x="1478" d="M137 0v1409h295v-639l635 639h344l-602 -596l651 -813h-348l-506 647l-174 -133v-514h-295z" />
<glyph unicode="&#x39b;" horiz-adv-x="1363" d="M14 0l521 1409h299l518 -1409h-305l-289 887q-8 23 -14.5 47l-12.5 47l-12 44t-12 42l-21 84q-6 -27 -22 -86q-4 -18 -11.5 -39.5t-13.5 -46.5q-16 -61 -27 -92l-290 -887h-308z" />
<glyph unicode="&#x39c;" horiz-adv-x="1705" d="M137 0v1409h395l252 -788q2 -8 21 -76q16 -59 22 -86l27 -103l27 101l12 43l12 43q6 20 13 39q2 6 10 34l248 793h393v-1409h-262v854q0 16 1 51t1 53q0 39 4 101q0 16 1 51t3 51l-39 -149q-4 -14 -9 -29.5t-9 -34.5l-17 -61l-16 -56l-15 -45l-254 -786h-210l-254 786 q-2 8 -5.5 19.5l-7.5 25.5l-16 55.5t-9 30l-10 31.5q-4 18 -9 33.5t-9 30.5l-41 149l4 -58.5t2 -55.5q2 -47 4 -101q2 -35 2 -92v-854h-262z" />
<glyph unicode="&#x39d;" horiz-adv-x="1478" d="M137 0v1409h336l625 -1094q-8 57 -11 88q-4 45 -6 89q-2 33 -2 98v819h262v-1409h-346l-614 1085q4 -27 8 -88q0 -10 3 -37.5l5 -44.5q2 -29 2 -84v-831h-262z" />
<glyph unicode="&#x39e;" horiz-adv-x="1316" d="M84 0v227h1151v-227h-1151zM119 1182v227h1081v-227h-1081zM240 598v229h839v-229h-839z" />
<glyph unicode="&#x39f;" horiz-adv-x="1591" d="M84 711q0 164 47 299q45 131 137 225q94 98 224 145q131 49 303 50q176 0 305 -52q141 -55 223 -143q92 -98 137 -227q47 -135 47 -297q0 -164 -49 -299q-49 -137 -141 -231.5t-225 -147.5q-135 -53 -299 -53q-178 0 -310 55q-135 57 -221 151q-92 100 -133 232 q-45 141 -45 293zM381 711q0 -113 27 -201q29 -98 77 -158q53 -66 129 -102q77 -37 179 -37q109 0 186 37q82 39 129 104q49 70 74 158q25 92 24 199q0 115 -26 200q-29 94 -78 154q-52 65 -129 98q-80 35 -178 35q-100 0 -181 -35q-77 -34 -129 -98q-53 -66 -77 -154 q-27 -96 -27 -200z" />
<glyph unicode="&#x3a0;" horiz-adv-x="1478" d="M137 0v1409h1204v-1409h-284v1165h-627v-1165h-293z" />
<glyph unicode="&#x3a1;" horiz-adv-x="1363" d="M137 0v1409h633q137 0 234 -33q100 -35 163 -92q68 -61 97 -139q33 -88 32 -182q0 -88 -30.5 -174.5t-94.5 -149.5q-68 -68 -159 -104q-96 -39 -230 -39h-350v-496h-295zM432 723h313q72 0 113 16q51 20 80 49t45 74t16 96q0 111 -65 166t-197 56h-305v-457z" />
<glyph unicode="&#x3a3;" horiz-adv-x="1228" d="M90 0v233l449 508l-433 435v233h1000v-227h-696l370 -373v-135l-395 -447h782v-227h-1077z" />
<glyph unicode="&#x3a4;" horiz-adv-x="1249" d="M23 1182v227h1206v-227h-457v-1182h-295v1182h-454z" />
<glyph unicode="&#x3a5;" horiz-adv-x="1363" d="M35 1409h309l338 -596l342 596h309l-502 -831v-578h-294v578z" />
<glyph unicode="&#x3a6;" horiz-adv-x="1679" d="M63 733q0 119 37 217.5t111 165.5q76 70 186 107q117 39 262 39h43v157h279v-157h41q145 0 262 -39q111 -37 186 -107q74 -68 111 -166q39 -104 39 -217q0 -111 -37 -209q-39 -104 -108 -174q-78 -78 -183 -119q-111 -43 -258 -43h-53v-198h-279v198h-55q-147 0 -258 43 q-104 41 -182 119q-70 70 -109 174q-35 92 -35 209zM360 729q0 -70 19 -131q20 -70 55 -106q43 -47 98 -70q57 -25 144 -25h26v656h-20q-164 0 -244 -86q-78 -84 -78 -238zM981 397h25q84 0 143 25q55 23 98 70q37 41 58 106q18 61 18 131q0 152 -80 238t-244 86h-18v-656z " />
<glyph unicode="&#x3a7;" horiz-adv-x="1363" d="M18 0l488 741l-447 668h312l313 -498l313 498h310l-428 -668l469 -741h-310l-354 561l-354 -561h-312z" />
<glyph unicode="&#x3a8;" horiz-adv-x="1656" d="M96 946v463h279v-467q0 -80 18 -135q20 -61 53 -92q41 -37 95 -51q61 -16 139 -17h8v762h281v-762h8q78 0 139 17q53 14 94 51q33 31 54 92q18 55 18 135v467h279v-463q0 -127 -33 -223q-35 -104 -98 -164q-68 -65 -173 -98q-109 -35 -249 -35h-39v-426h-281v426h-39 q-139 0 -248 35q-104 34 -172 98q-66 63 -100 164q-33 96 -33 223z" />
<glyph unicode="&#x3a9;" horiz-adv-x="1640" d="M84 0v227h272h58q20 0 57 -4l32.5 -4t31.5 -2q-121 57 -193 115q-78 63 -131 141q-51 74 -76 166q-25 89 -24 190q0 141 49 252q49 113 141 189q96 80 223 119q135 41 297 41t297 -41q127 -39 223 -119q92 -76 142 -189q49 -111 49 -254q0 -101 -25 -190 q-25 -88 -76 -164t-133 -141q-76 -61 -192 -115q14 0 29.5 2l31.5 4q37 4 60 4h55h277v-227h-670v309q184 88 262 201q80 117 80 264q0 102 -27 180q-27 76 -80 133q-49 53 -131 82q-80 29 -174 29q-96 0 -176 -29q-78 -29 -129 -82q-53 -57 -80 -133q-29 -82 -28 -180 q0 -150 81.5 -264.5t262.5 -200.5v-309h-666z" />
<glyph unicode="&#x3aa;" horiz-adv-x="567" d="M137 0v1409h295v-1409h-295zM-41 1530v219h195v-219h-195zM414 1530v219h197v-219h-197z" />
<glyph unicode="&#x3ab;" horiz-adv-x="1363" d="M35 1409h309l338 -596l342 596h309l-502 -831v-578h-294v578zM352 1530v219h195v-219h-195zM807 1530v219h197v-219h-197z" />
<glyph unicode="&#x3ac;" horiz-adv-x="1257" d="M80 537q0 285 113 424q115 141 333 141q76 0 133 -19q47 -14 103 -55q46 -34 80 -80q31 -41 53 -100h2q12 55 33 117q29 86 43 116h264q-23 -41 -51 -112q-18 -45 -51 -140q-23 -63 -43 -143q-14 -55 -23 -131q12 -94 21 -152q12 -72 30 -145q23 -84 39 -135 q25 -76 45 -123h-268q-8 20 -25 66q-8 23 -20 63.5l-17 58.5q-8 41 -10 50h-4q-27 -59 -59 -105q-39 -51 -74 -80q-45 -35 -98 -53q-61 -20 -127 -20q-213 0 -317.5 137t-104.5 420zM375 539q0 -90 10 -166q8 -66 33 -113q23 -45 55 -65q35 -23 82 -23q39 0 78 22.5t69 69.5 q33 49 55.5 114.5t33.5 164.5q-10 78 -27 139q-18 72 -45 117q-29 51 -66 79.5t-90 28.5t-84 -18q-35 -20 -57 -66q-23 -47 -35 -112q-12 -71 -12 -172zM518 1184v33l70 290h258v-37l-221 -286h-107z" />
<glyph unicode="&#x3ad;" horiz-adv-x="923" d="M78 297q0 61 20 104q20 45 60 78q35 31 92 53q43 18 115 25v2q-59 6 -108.5 28.5t-80.5 53.5q-29 29 -49 76q-16 39 -16 94q0 66 26 117q29 53 82 92q51 37 133 59q84 23 180 23q61 0 127 -10.5t105 -28.5q51 -25 86 -53q47 -41 74 -76l-162 -123q-39 53 -94 84 q-51 29 -119 29q-86 0 -127 -33q-45 -35 -45 -90q0 -45 26 -78q23 -29 68 -45q39 -14 104 -21q61 -6 130 -6v-176q-45 0 -127 -4q-63 -4 -109 -18q-51 -16 -76 -47q-27 -33 -26 -93q0 -74 41 -108q43 -37 118 -37q78 0 144 39q76 45 127 98l141 -139l-70 -68 q-45 -39 -90 -59q-63 -31 -121 -43q-72 -16 -159 -16q-106 0 -187 24q-82 25 -131 66q-55 45 -78 100q-24 59 -24 127zM422 1184v33l70 290h258v-37l-221 -286h-107z" />
<glyph unicode="&#x3ae;" horiz-adv-x="1249" d="M106 1081h271q8 -16 14 -45l12 -47q4 -16 9 -49q2 -16 2 -43h4q33 53 57 84q31 37 76 66q41 27 94 40q51 14 127 15q88 0 160 -23q66 -20 108 -67q41 -45 64 -117q20 -68 20 -174v-1145h-278v1053q0 70 -10 125q-10 51 -31 82q-23 31 -57 43q-43 14 -89 14q-55 0 -96 -21 q-43 -22 -74 -61q-33 -41 -47 -98q-16 -61 -16 -131v-582h-283v852q0 66 -12 127q-15 75 -25 102zM567 1184v33l70 290h258v-37l-221 -286h-107z" />
<glyph unicode="&#x3af;" horiz-adv-x="567" d="M137 236v845h283v-854q0 -33 6 -63q6 -27 16 -64q9 -31 25 -55q16 -25 33 -45h-301q-14 14 -27 43q-16 37 -20 57q-8 37 -11 68q-4 45 -4 68zM176 1184v33l70 290h258v-37l-221 -286h-107z" />
<glyph unicode="&#x3b0;" horiz-adv-x="1191" d="M127 432v649h281v-620q0 -135 47 -205t155 -70q55 0 101 25q43 23 67.5 72t36.5 131q12 80 12 188q0 66 -12 133q-16 90 -29 133q-16 59 -41 121q-22 55 -43 92h287q12 -25 41 -96q18 -47 39 -123q12 -49 29 -141q10 -61 10 -150q0 -143 -29 -245q-31 -109 -92 -187 q-63 -80 -160 -119q-100 -41 -233 -40q-242 0 -354.5 110.5t-112.5 341.5zM238 1231v221h198v-221h-198zM487 1190v33l60 399h237v-39l-182 -393h-115zM768 1231v221h201v-221h-201z" />
<glyph unicode="&#x3b1;" horiz-adv-x="1257" d="M80 537q0 285 113 424q115 141 333 141q76 0 133 -19q47 -14 103 -55q46 -34 80 -80q31 -41 53 -100h2q12 55 33 117q29 86 43 116h264q-23 -41 -51 -112q-18 -45 -51 -140q-23 -63 -43 -143q-14 -55 -23 -131q12 -94 21 -152q12 -72 30 -145q23 -84 39 -135 q25 -76 45 -123h-268q-8 20 -25 66q-8 23 -20 63.5l-17 58.5q-8 41 -10 50h-4q-27 -59 -59 -105q-39 -51 -74 -80q-45 -35 -98 -53q-61 -20 -127 -20q-213 0 -317.5 137t-104.5 420zM375 539q0 -90 10 -166q8 -66 33 -113q23 -45 55 -65q35 -23 82 -23q39 0 78 22.5t69 69.5 q33 49 55.5 114.5t33.5 164.5q-10 78 -27 139q-18 72 -45 117q-29 51 -66 79.5t-90 28.5t-84 -18q-35 -20 -57 -66q-23 -47 -35 -112q-12 -71 -12 -172z" />
<glyph unicode="&#x3b2;" horiz-adv-x="1249" d="M141 -426v1452q0 238 125 348q127 111 373 111q108 0 190 -25q90 -27 140 -67q57 -47 84 -111q29 -68 28.5 -147.5t-16.5 -128.5q-18 -57 -49 -97q-33 -41 -70 -67q-41 -29 -88 -47q59 -12 115 -39q58 -28 104 -74q45 -45 74 -115q31 -76 31 -161q0 -82 -27 -166 q-23 -74 -82 -136q-55 -58 -141 -92q-84 -33 -205 -32q-98 0 -174 28.5t-127 65.5h-10q6 -57 6 -103q0 -14 1 -47t1 -51v-299h-283zM424 256q14 -12 51 -33q27 -14 60 -26q34 -12 67 -19q33 -6 70 -6q59 0 102 18q47 20 74 50q31 33 45 77q14 43 14 103q0 55 -18.5 102 t-57.5 80q-45 39 -104 55q-63 18 -152 19v198q131 23 185 78q55 59 55 158q0 31 -10 66q-8 27 -33 55q-22 25 -55.5 37t-79.5 12q-57 0 -94 -14.5t-65.5 -49t-41 -90t-12.5 -135.5v-735z" />
<glyph unicode="&#x3b3;" d="M8 1081h297l213 -639l12 -41q2 -4 17 -69q12 -57 16 -78q8 -53 8 -66q3 31 13 68q2 12 8 35.5t8 36.5q9 37 18 67q4 10 9.5 26.5t7.5 24.5l201 635h294l-395 -1028l-39 -108q-23 -66 -35 -115t-26 -121q-16 -86 -23 -133h-288q27 168 45 240q25 96 55 194z" />
<glyph unicode="&#x3b4;" horiz-adv-x="1241" d="M86 481q0 111 37 197q39 90 100 151q72 72 148 113q100 53 180 82l-311 313v148h852v-191h-359h-31q-6 0 -19 1t-21.5 1t-22.5 1t-20.5 1t-16.5 1t-14 1l321 -292q58 -52 105 -111q51 -66 78 -121q33 -70 47 -137q16 -78 16 -156q0 -115 -35 -200q-37 -92 -104.5 -160 t-169.5 -105q-106 -39 -230 -38q-125 0 -225 34q-98 34 -166 99q-68 63 -104 157q-35 86 -35 211zM377 481q0 -78 12 -123q16 -57 43 -96q29 -41 74 -63.5t106 -22.5q74 0 119 22.5t78 65.5q31 40 43 98q14 68 14 125q0 66 -16 127q-15 58 -43 111q-29 53 -64 94 q-49 57 -75 84q-70 -25 -121 -61q-53 -39 -92 -92q-35 -51 -58 -119q-20 -64 -20 -150z" />
<glyph unicode="&#x3b5;" horiz-adv-x="970" d="M78 297q0 61 20 104q20 45 60 78q35 31 92 53q43 18 115 25v2q-59 6 -108.5 28.5t-80.5 53.5q-29 29 -49 76q-16 39 -16 94q0 66 26 117q29 53 82 92q51 37 133 59q84 23 180 23q61 0 127 -10.5t105 -28.5q51 -25 86 -53q47 -41 74 -76l-162 -123q-39 53 -94 84 q-51 29 -119 29q-86 0 -127 -33q-45 -35 -45 -90q0 -45 26 -78q23 -29 68 -45q39 -14 104 -21q61 -6 130 -6v-176q-45 0 -127 -4q-63 -4 -109 -18q-51 -16 -76 -47q-27 -33 -26 -93q0 -74 41 -108q43 -37 118 -37q78 0 144 39q76 45 127 98l141 -139l-70 -68 q-45 -39 -90 -59q-63 -31 -121 -43q-72 -16 -159 -16q-106 0 -187 24q-82 25 -131 66q-55 45 -78 100q-24 59 -24 127z" />
<glyph unicode="&#x3b6;" horiz-adv-x="942" d="M66 340q0 76 22 162q18 70 64 168q33 70 94 168q51 82 114 163q53 70 127 154q72 82 129 139v4h-28q-8 0 -16.5 -1t-18.5 -1h-35q-6 0 -15 -1t-14 -1h-315v191h703v-191l-129 -131l-127 -145q-41 -49 -115 -152q-51 -72 -94 -153q-39 -74 -64 -150q-25 -74 -24 -141 q0 -57 20 -90q23 -37 55 -56q39 -23 84 -36l105 -31l112 -35q61 -18 105 -51q43 -31 76 -88q31 -51 30 -137q0 -39 -10 -86q-10 -45 -24 -84q-15 -40 -31 -74q-12 -25 -29 -55l-182 73q6 10 18 35q4 8 17 37q6 14 14 43q4 14 4 41q0 41 -16 63q-18 25 -51 43q-35 20 -78 31 l-105 29q-70 16 -129 32.5t-121 57.5q-53 35 -87.5 98.5t-34.5 157.5z" />
<glyph unicode="&#x3b7;" horiz-adv-x="1249" d="M106 1081h271q8 -16 14 -45l12 -47q4 -16 9 -49q2 -16 2 -43h4q33 53 57 84q31 37 76 66q41 27 94 40q51 14 127 15q88 0 160 -23q66 -20 108 -67q41 -45 64 -117q20 -68 20 -174v-1145h-278v1053q0 70 -10 125q-10 51 -31 82q-23 31 -57 43q-43 14 -89 14q-55 0 -96 -21 q-43 -22 -74 -61q-33 -41 -47 -98q-16 -61 -16 -131v-582h-283v852q0 66 -12 127q-15 75 -25 102z" />
<glyph unicode="&#x3b8;" horiz-adv-x="1105" d="M90 733q0 373 117 561.5t348 188.5q121 0 209 -47q90 -49 143 -140q53 -92 82 -235q29 -147 29 -328q0 -379 -121 -567q-119 -186 -348 -186q-104 0 -193 47q-86 47 -145 139q-59 94 -90 233q-31 141 -31 334zM365 834h378q-2 133 -18 223q-16 92 -39 143q-27 57 -57 78 q-35 23 -72 22q-39 0 -73.5 -22.5t-59.5 -77.5q-27 -59 -41 -143q-16 -90 -18 -223zM367 643q2 -137 18 -229q14 -92 41 -150q25 -53 57 -78q34 -25 68 -24q39 0 72 24q37 27 59 78q29 66 43 150q16 92 18 229h-376z" />
<glyph unicode="&#x3b9;" horiz-adv-x="567" d="M137 236v845h283v-854q0 -33 6 -63q6 -27 16 -64q9 -31 25 -55q16 -25 33 -45h-301q-14 14 -27 43q-16 37 -20 57q-8 37 -11 68q-4 45 -4 68z" />
<glyph unicode="&#x3ba;" horiz-adv-x="1140" d="M143 0v1081h281v-493l397 493h291l-381 -460l410 -621h-299l-291 455l-127 -107v-348h-281z" />
<glyph unicode="&#x3bb;" d="M8 0l475 1006l-26 73l-49 117q-18 43 -43 78t-46 45q-25 12 -57 12q-29 0 -47 -4q-29 -6 -45 -14l-47 194q27 10 80 21q43 8 106 8q84 0 140 -20q59 -23 102 -68q43 -46 80 -117q33 -63 69 -170l408 -1161h-295l-135 463q-4 12 -10 35l-15 51l-16 59q-12 41 -16 60 q-6 29 -13 53q-2 8 -8 39l-20 -72l-13.5 -41.5l-15.5 -48.5l-33 -94q-6 -18 -18 -47l-13 -29l-182 -428h-297z" />
<glyph unicode="&#x3bc;" horiz-adv-x="1251" d="M143 -416v1497h283v-604q0 -70 8 -117q8 -51 31 -88q20 -37 57 -59q33 -20 86 -20q49 0 90 22.5t70 63.5q31 45 45 98q14 55 14 127v577h283v-839v-70q0 -12 1 -35.5t1 -34.5q0 -12 1 -32.5t1 -28.5q0 -10 1 -23.5t1 -17.5h-266q0 6 -4 35q-2 8 -3 23.5t-1 23.5 q-4 37 -4 53q0 10 -1 26.5t-1 22.5h-2q-37 -96 -101 -151q-63 -53 -145 -53q-53 0 -96 24q-45 27 -66 66h-4q2 -20 2 -60q0 -10 1 -28.5t1 -26.5v-371h-283z" />
<glyph unicode="&#x3bd;" d="M0 1081h297l260 -841q59 86 96 153q45 82 66 146q20 61 35 147q12 74 12 152q0 84 -14 139q-18 68 -35 104h280q29 -59 37 -100q12 -55 13 -135q0 -100 -31 -207q-33 -115 -86 -221q-57 -113 -125 -217q-63 -96 -148 -201h-268z" />
<glyph unicode="&#x3be;" horiz-adv-x="911" d="M66 340q0 68 26 152q23 70 82 139t143 112q98 51 211 68q-76 6 -125 23q-70 23 -104 47q-43 31 -68 73q-27 47 -26 99q0 58 24 98q27 43 66 69.5t88 45.5q45 16 94 26v8q-2 0 -17.5 -1t-27.5 -1q-10 0 -34.5 -1t-39 -1t-40 -1t-37.5 -1q-14 0 -34 -1t-24 -1h-76v193h656 v-187q-80 -8 -135 -20q-70 -16 -115 -39q-55 -29 -82 -59q-31 -37 -31 -93q0 -51 27 -83q20 -27 72 -52q43 -20 102 -30q43 -6 119 -15v-190q-104 -12 -182 -31q-82 -18 -136 -51q-59 -37 -88 -84q-31 -51 -30 -131q0 -53 20 -86q25 -39 55 -58q39 -23 84 -36l105 -31 l112 -35q61 -18 105 -51q43 -31 76 -88q31 -51 30 -137q0 -39 -10 -86q-10 -45 -24 -84q-15 -40 -31 -74q-12 -25 -29 -55l-182 73q6 10 18 35q4 8 17 37q6 14 14 43q4 14 4 41q0 41 -16 63q-18 25 -51 43q-35 20 -78 31l-105 29q-70 16 -129 32.5t-121 57.5 q-53 35 -87.5 98.5t-34.5 157.5z" />
<glyph unicode="&#x3bf;" horiz-adv-x="1249" d="M80 543q0 125 33 223q33 100 102 176q72 78 170 119q100 41 242 41q150 0 250 -41q102 -43 167.5 -117t96.5 -178q31 -102 30 -223q0 -119 -34 -228q-33 -98 -105 -178q-68 -74 -172 -117q-100 -41 -239 -40q-129 0 -234 40q-98 39 -168 115q-72 80 -104 178 q-35 109 -35 230zM375 543q0 -96 18 -168q18 -68 49 -115t76 -67q43 -20 100 -21q63 0 110.5 20.5t82.5 67.5q31 41 49 115q16 63 17 168q0 195 -64 278q-66 88 -182 88q-127 0 -191 -88q-65 -90 -65 -278z" />
<glyph unicode="&#x3c0;" horiz-adv-x="1566" d="M43 854v199q15 6 37 12q29 8 45 10q8 2 25.5 2t25.5 2q16 2 47 2h1290v-188h-274v-590q0 -72 29 -100q27 -27 75 -27q20 0 54 4q8 2 23.5 5t21.5 3l20 -184q-51 -10 -102 -16q-78 -8 -121 -8q-139 0 -208.5 75.5t-69.5 208.5v629h-363v-125q0 -133 -6 -240 q-6 -109 -19 -200q-10 -82 -28 -174q-12 -61 -35 -154h-287q25 102 37 158q14 68 33 174q12 70 22 196q8 96 9 232v133q-90 0 -172 -10q-76 -11 -109 -29z" />
<glyph unicode="&#x3c1;" horiz-adv-x="1265" d="M121 -426v1008q0 117 35 215q33 94 100 164q66 70 162 106q94 37 217 37q109 0 213 -41q102 -39 176 -115q76 -76 119 -182q45 -113 45 -250q0 -113 -33 -217q-29 -94 -92 -170q-55 -68 -143.5 -108.5t-192.5 -40.5q-49 0 -100 10q-31 6 -84 30q-37 16 -70 43 q-35 29 -57 54h-4q4 -41 4 -58v-59v-426h-295zM416 299q47 -53 119 -90q66 -35 143 -35q52 0 92 25q39 25 68 71q25 41 41 111q14 59 14 145q0 89 -19 160q-18 70 -53 121q-37 53 -80 76q-49 27 -104 26q-57 0 -102 -22q-35 -18 -68 -68q-25 -39 -39 -106q-12 -61 -12 -142 v-272z" />
<glyph unicode="&#x3c2;" horiz-adv-x="1064" d="M80 428q0 70 10 131q12 74 37 148q25 76 66 147q43 74 100 127q59 53 141 88t187 35q111 0 204 -39q88 -37 148 -102l-139 -150q-25 25 -39.5 37t-46.5 33q-16 10 -54 22q-25 8 -63 8q-55 0 -98.5 -24.5t-73.5 -61.5q-33 -39 -55.5 -90t-36.5 -100q-14 -45 -21 -102 q-6 -49 -6 -91q0 -55 22 -94q25 -43 60 -63q40 -25 92 -43l115 -39l82 -25q20 -6 80 -28q45 -16 75 -37q39 -25 62 -54q25 -31 41 -75q14 -41 14 -107q0 -47 -10 -80q-16 -53 -27 -78q-16 -39 -35 -69l-32 -53l-179 73q12 20 19 33q2 6 5 12.5l6 13.5t5 13q8 18 15 41 q6 22 6 43q0 35 -23 61q-23 25 -57 43q-37 18 -90 31q-41 12 -115 29q-51 14 -90 26q-61 20 -90 35q-45 23 -82 53q-43 37 -68 74q-31 47 -45 107q-16 65 -16 141z" />
<glyph unicode="&#x3c3;" horiz-adv-x="1400" d="M80 524q0 141 47 248t133 174q90 70 201 103q113 33 258 32h643v-188h-197h-28q-6 0 -20.5 1t-22.5 1q-10 0 -23.5 1t-26.5 1h-43v-2l62 -88q27 -39 53 -100q23 -49 39 -117q14 -57 14 -131q0 -109 -32 -195q-31 -82 -103 -149q-63 -59 -168 -99q-100 -37 -237 -36.5 t-240 36.5q-109 39 -172 107q-70 72 -102 172q-35 104 -35 229zM375 524q0 -176 63.5 -264t182.5 -88q63 0 112 23q51 25 80 63q33 45 47 100q16 61 17 134q0 70 -9 120q-10 70 -22 107q-20 66 -33 94q-20 49 -39 80h-74q-66 0 -127 -23q-59 -23 -104 -69q-43 -45 -68 -115 q-26 -74 -26 -162z" />
<glyph unicode="&#x3c4;" horiz-adv-x="913" d="M18 854v199q14 6 33 12q14 4 47 8q16 2 54 6q18 2 49 2h680v-188h-306v-582q0 -43 9 -65q10 -29 22 -41q18 -18 35 -23q22 -6 49 -6q8 0 41 4q6 0 19.5 1t19.5 3l25 -178q-6 -2 -19.5 -4t-21.5 -4q-31 -8 -54 -10l-55 -6q-18 -2 -49 -2q-158 0 -227 69q-72 72 -72 203 v641h-27q-25 0 -78 -4t-75.5 -8t-59.5 -13q-19 -4 -39 -14z" />
<glyph unicode="&#x3c5;" horiz-adv-x="1191" d="M127 432v649h281v-620q0 -135 47 -205t155 -70q55 0 101 25q43 23 67.5 72t36.5 131q12 80 12 188q0 66 -12 133q-16 90 -29 133q-16 59 -41 121q-22 55 -43 92h287q12 -25 41 -96q18 -47 39 -123q12 -49 29 -141q10 -61 10 -150q0 -143 -29 -245q-31 -109 -92 -187 q-63 -80 -160 -119q-100 -41 -233 -40q-242 0 -354.5 110.5t-112.5 341.5z" />
<glyph unicode="&#x3c6;" horiz-adv-x="1464" d="M80 545q0 131 31 229q33 104 86 166q59 70 141 109q80 39 190 57l23 -178q-47 -10 -88 -49q-37 -34 -62 -86q-23 -47 -34 -115q-12 -63 -13 -133q0 -94 19 -162q23 -80 49 -117q35 -47 80 -71q43 -23 104 -27v534q0 195 88 299q86 102 273 103q95 0 172 -37 q78 -37 133 -109q51 -66 84 -170q31 -98 30 -223q0 -147 -40 -258q-41 -109 -113 -178.5t-172 -105.5q-92 -35 -215 -41v-408h-240v406q-125 6 -217 40q-94 35 -165.5 107t-106.5 172q-37 105 -37 246zM846 166q129 6 196 106q68 101 68 295q0 190 -37 276.5t-104 86.5 q-55 0 -90 -56q-33 -53 -33 -176v-532z" />
<glyph unicode="&#x3c7;" horiz-adv-x="1177" d="M12 -424l453 830l-119 241q-27 57 -65 125q-31 53 -50 78q-23 29 -45 39q-25 10 -49 10q-37 0 -80 -16l-41 190q27 10 86 21q61 10 131 10q61 0 104.5 -20.5t84.5 -67.5q31 -35 78 -123q37 -70 86 -182l20 -47q4 -8 6 -19q2 -6 5.5 -14t3.5 -13q2 2 5 13.5t7 19.5l8 19.5 l8 19.5q8 20 17 39l14 29l154 323h296l-374 -690l413 -815h-301l-194 432q-2 4 -7 16.5t-10 22.5q-4 8 -10 23.5t-12 29.5q-12 37 -19 54q-4 10 -9 26.5t-5 18.5q-2 -4 -4 -12.5t-5 -15.5t-5 -15q-6 -12 -12.5 -26.5t-10.5 -27.5l-20 -51l-10.5 -21.5l-8.5 -17.5l-213 -436 h-301z" />
<glyph unicode="&#x3c8;" horiz-adv-x="1542" d="M129 459v622h274v-606q0 -90 15 -141q16 -61 45 -92q33 -35 74 -49q39 -12 106 -17v1163h258v-1163q61 0 111 17q51 16 75 47q29 35 41.5 92t12.5 141v608h274v-622q0 -121 -29 -213q-29 -90 -88 -148q-61 -57 -157 -88q-98 -31 -238 -30v-406h-260v406q-135 0 -233 30 q-100 31 -160 88q-61 58 -92 148q-29 84 -29 213z" />
<glyph unicode="&#x3c9;" horiz-adv-x="1728" d="M82 516q0 133 35 229q37 100 102 173q70 76 162 120q98 47 217 66l23 -189q-68 -12 -117 -49q-45 -33 -78 -90q-29 -49 -45 -117q-14 -59 -14 -139q0 -84 8 -141q8 -61 31 -109q20 -43 59 -69q37 -25 90 -25q82 0 133 80q49 76 49 217v189h258v-189q0 -141 47.5 -219 t131.5 -78q53 0 90 25q41 27 59 67q23 47 31 109q10 72 10 141.5t-16 138.5q-16 68 -45 117q-33 57 -78 90q-49 37 -115 49l23 191q119 -18 217 -66q92 -45 161 -120q66 -72 103 -173q35 -96 35 -229q0 -123 -29 -227q-27 -98 -84 -168q-53 -66 -137 -105q-80 -37 -185 -36 q-70 0 -131 16q-55 14 -100 47q-41 29 -70 74q-31 47 -47 100h-4q-18 -59 -44.5 -100t-72.5 -74q-47 -33 -98 -47q-61 -16 -131 -16q-104 0 -184 36q-84 39 -137 105q-57 70 -84 168q-29 104 -29 227z" />
<glyph unicode="&#x3ca;" horiz-adv-x="567" d="M137 236v845h283v-854q0 -33 6 -63q6 -27 16 -64q9 -31 25 -55q16 -25 33 -45h-301q-14 14 -27 43q-16 37 -20 57q-8 37 -11 68q-4 45 -4 68zM-39 1198v219h213v-219h-213zM396 1198v219h217v-219h-217z" />
<glyph unicode="&#x3cb;" horiz-adv-x="1191" d="M127 432v649h281v-620q0 -135 47 -205t155 -70q55 0 101 25q43 23 67.5 72t36.5 131q12 80 12 188q0 66 -12 133q-16 90 -29 133q-16 59 -41 121q-22 55 -43 92h287q12 -25 41 -96q18 -47 39 -123q12 -49 29 -141q10 -61 10 -150q0 -143 -29 -245q-31 -109 -92 -187 q-63 -80 -160 -119q-100 -41 -233 -40q-242 0 -354.5 110.5t-112.5 341.5zM258 1198v219h213v-219h-213zM693 1198v219h217v-219h-217z" />
<glyph unicode="&#x3cc;" horiz-adv-x="1249" d="M80 543q0 125 33 223q33 100 102 176q72 78 170 119q100 41 242 41q150 0 250 -41q102 -43 167.5 -117t96.5 -178q31 -102 30 -223q0 -119 -34 -228q-33 -98 -105 -178q-68 -74 -172 -117q-100 -41 -239 -40q-129 0 -234 40q-98 39 -168 115q-72 80 -104 178 q-35 109 -35 230zM375 543q0 -96 18 -168q18 -68 49 -115t76 -67q43 -20 100 -21q63 0 110.5 20.5t82.5 67.5q31 41 49 115q16 63 17 168q0 195 -64 278q-66 88 -182 88q-127 0 -191 -88q-65 -90 -65 -278zM526 1184v33l70 290h258v-37l-221 -286h-107z" />
<glyph unicode="&#x3cd;" horiz-adv-x="1191" d="M127 432v649h281v-620q0 -135 47 -205t155 -70q55 0 101 25q43 23 67.5 72t36.5 131q12 80 12 188q0 66 -12 133q-16 90 -29 133q-16 59 -41 121q-22 55 -43 92h287q12 -25 41 -96q18 -47 39 -123q12 -49 29 -141q10 -61 10 -150q0 -143 -29 -245q-31 -109 -92 -187 q-63 -80 -160 -119q-100 -41 -233 -40q-242 0 -354.5 110.5t-112.5 341.5zM465 1184v33l70 290h258v-37l-221 -286h-107z" />
<glyph unicode="&#x3ce;" horiz-adv-x="1728" d="M82 516q0 133 35 229q37 100 102 173q70 76 162 120q98 47 217 66l23 -189q-68 -12 -117 -49q-45 -33 -78 -90q-29 -49 -45 -117q-14 -59 -14 -139q0 -84 8 -141q8 -61 31 -109q20 -43 59 -69q37 -25 90 -25q82 0 133 80q49 76 49 217v189h258v-189q0 -141 47.5 -219 t131.5 -78q53 0 90 25q41 27 59 67q23 47 31 109q10 72 10 141.5t-16 138.5q-16 68 -45 117q-33 57 -78 90q-49 37 -115 49l23 191q119 -18 217 -66q92 -45 161 -120q66 -72 103 -173q35 -96 35 -229q0 -123 -29 -227q-27 -98 -84 -168q-53 -66 -137 -105q-80 -37 -185 -36 q-70 0 -131 16q-55 14 -100 47q-41 29 -70 74q-31 47 -47 100h-4q-18 -59 -44.5 -100t-72.5 -74q-47 -33 -98 -47q-61 -16 -131 -16q-104 0 -184 36q-84 39 -137 105q-57 70 -84 168q-29 104 -29 227zM786 1184v33l70 290h258v-37l-221 -286h-107z" />
<glyph unicode="&#x401;" horiz-adv-x="1368" d="M137 0v1409h1108v-227h-813v-355h752v-229h-752v-371h854v-227h-1149zM391 1530v219h195v-219h-195zM846 1530v219h197v-219h-197z" />
<glyph unicode="&#x402;" horiz-adv-x="1812" d="M23 1182v227h1206v-227h-457v-336l88 33q47 16 115 32q84 20 135 27q78 10 145 10q121 0 203 -26q88 -29 141 -82q55 -55 82 -140q27 -82 27 -200v-54q0 -113 -20 -194q-23 -86 -72 -146q-51 -61 -137 -94q-84 -33 -211 -32q-76 0 -133 12q-66 14 -107 33q-47 23 -86 57 q-45 41 -70 76l201 172l37 -43q20 -25 41 -39q27 -18 47 -27q23 -8 57 -8q51 0 88 16q31 14 52 47q16 27 22 78q6 47 6 107v8q0 68 -12 117q-12 51 -41 80q-33 33 -80 47q-45 14 -129 14q-53 0 -108 -6q-37 -4 -107 -16q-63 -12 -96 -21q-74 -20 -78 -22v-662h-295v1182 h-454z" />
<glyph unicode="&#x403;" horiz-adv-x="1159" d="M455 1530v31l254 254h258v-43l-342 -242h-170zM137 0v1409h983v-227h-688v-1182h-295z" />
<glyph unicode="&#x404;" horiz-adv-x="1456" d="M84 711q0 174 41 299q45 137 127 225q92 98 215 145q129 49 303 50q135 0 240 -29q98 -27 176 -82q74 -52 123 -123q47 -68 75 -158l-254 -71q-12 39 -43 86q-27 41 -71 73q-47 35 -103 52q-66 20 -133 20q-92 0 -162 -24q-68 -23 -120 -74q-49 -47 -78 -115 q-27 -63 -33 -156h547v-229h-549q6 -86 35 -159.5t78 -123.5q51 -51 122.5 -77.5t165.5 -26.5q86 0 142 23q57 23 102 61q49 41 74 86q33 59 47 96l252 -96q-31 -74 -80 -150q-49 -74 -123 -129q-76 -57 -176 -90q-104 -35 -240 -34q-181 0 -313 55q-133 55 -217 151.5 t-127 231.5t-43 293z" />
<glyph unicode="&#x405;" horiz-adv-x="1363" d="M59 367l285 47q12 -43 35 -86q20 -37 63 -68q41 -29 101 -43q66 -16 147 -16q152 0 230 45q80 45 79 143q0 55 -32 94q-31 37 -84.5 61.5t-122.5 41.5q-45 10 -144 30l-120 29q-55 14 -115 37q-53 20 -100 49q-49 29 -82 72q-37 47 -54 98q-20 66 -20 135q0 106 43 181 q47 80 115 122q78 49 178 70t225 21q141 0 236 -21q96 -20 165 -66q63 -39 105 -110q39 -66 57 -156l-286 -39q-20 92 -89 138q-66 45 -194 45q-77 0 -129 -13q-45 -10 -82 -37q-31 -20 -43 -53q-14 -37 -14 -65q0 -52 24 -86q25 -33 72 -55.5t106 -37.5q100 -25 138 -32 q23 -6 65.5 -14.5t65.5 -14.5q70 -16 125 -37q57 -20 108 -51q55 -33 90 -74q37 -43 58 -102q23 -63 22 -143q0 -92 -35 -175q-33 -78 -108 -135q-74 -55 -188.5 -85.5t-272.5 -30.5q-141 0 -248 24q-100 23 -182 76t-125 121q-48 76 -68 166z" />
<glyph unicode="&#x406;" horiz-adv-x="567" d="M137 0v1409h295v-1409h-295z" />
<glyph unicode="&#x407;" horiz-adv-x="563" d="M137 0v1409h295v-1409h-295zM-43 1530v219h195v-219h-195zM412 1530v219h197v-219h-197z" />
<glyph unicode="&#x408;" d="M31 383l293 43q8 -57 28 -100q18 -41 43 -65.5t60 -37.5q33 -12 71 -12q86 0 133 59q45 57 46 168v740h-281v231h575v-963q0 -109 -30 -194q-29 -82 -92 -146q-61 -61 -150 -94q-86 -33 -203 -32q-102 0 -188 22.5t-146 69.5q-61 49 -100 125q-36 69 -59 186z" />
<glyph unicode="&#x409;" horiz-adv-x="2238" d="M8 0v248q18 -6 21 -6h22q18 0 43 10q18 8 39 39q18 29 37 76q12 33 35 127q16 72 37 186q10 61 39 256l67 473h903v-561h428q123 0 215.5 -31t151.5 -84q61 -55 92 -131q31 -77 31 -172q0 -90 -33 -168t-98 -137q-63 -57 -164 -92q-96 -33 -227 -33h-691v1165h-348 l-49 -348q-12 -98 -45 -285q-20 -123 -49 -217q-29 -98 -59 -155q-35 -66 -74 -103q-41 -39 -99 -57q-49 -16 -127 -16q-18 0 -55 4q-28 3 -43 12zM1251 229h348q137 0 205 52q66 49 66 145t-70 145q-72 49 -207 50h-342v-392z" />
<glyph unicode="&#x40a;" horiz-adv-x="2174" d="M137 0v1409h295v-561h547v561h295v-561h340q123 0 215 -31t151.5 -84t90.5 -131q31 -77 30 -172q0 -90 -33 -168q-35 -82 -96 -137q-63 -57 -164 -92q-96 -33 -227 -33h-602v604h-547v-604h-295zM1274 229h260q137 0 205 52q66 49 65.5 145t-69.5 145q-72 49 -207 50 h-254v-392z" />
<glyph unicode="&#x40b;" horiz-adv-x="1792" d="M23 1182v227h1206v-227h-457v-320q8 4 84 29q41 14 96 27q66 16 113 20q58 6 123 6q233 0 352 -112.5t119 -352.5v-479h-285v449q0 76 -14 124q-15 52 -49 86q-33 33 -88.5 49.5t-130.5 16.5q-92 0 -170 -14q-88 -16 -150 -37v-674h-295v1182h-454z" />
<glyph unicode="&#x40c;" horiz-adv-x="1249" d="M137 0v1409h295v-598q33 0 53 12q27 16 58 47q29 29 67 84l88 131l205 324h301l-266 -405l-47 -70l-47 -68q-29 -41 -43 -55q-25 -25 -33 -31l485 -780h-321l-375 639l-25 -12l-17 -5.5l-17 -5.5q-14 -4 -35 -8q-25 -4 -33 -4v-604h-293zM514 1530v31l254 254h258v-43 l-342 -242h-170z" />
<glyph unicode="&#x40e;" horiz-adv-x="1273" d="M-8 1409h307l389 -680l297 680h299l-524 -1092q-35 -74 -80 -145q-39 -63 -88 -106q-47 -41 -110.5 -63.5t-147.5 -22.5q-18 0 -68 4q-35 2 -69 12q-55 14 -64 18q-37 14 -53 27l82 246q35 -18 78 -31q39 -12 82 -12q33 0 63 10q23 8 51 33q23 20 48 61q35 59 49 92 l16 37zM219 1854h226q6 -104 51 -151.5t131 -47.5t131 47t51 152h226q-4 -53 -11 -84q-10 -47 -26 -80q-20 -39 -47 -70q-29 -31 -74 -57q-41 -25 -107 -37q-61 -12 -143 -12t-143 12q-66 12 -107 37q-45 27 -74 57q-27 31 -47 70q-16 33 -26 80q-7 31 -11 84z" />
<glyph unicode="&#x40f;" horiz-adv-x="1470" d="M137 0v1409h295v-1165h617v1165h284v-1409h-473v-408h-250v408h-473z" />
<glyph unicode="&#x410;" horiz-adv-x="1478" d="M51 0l514 1409h348l512 -1409h-292l-125 360h-537l-125 -360h-295zM537 582h405l-139 405q-6 16 -11.5 34.5t-11.5 35.5l-20 65q-12 43 -15 49q-6 18 -6 21q0 -4 -6 -23q-2 -6 -6 -21t-8 -26l-8 -30.5t-11 -34.5l-24 -70z" />
<glyph unicode="&#x411;" horiz-adv-x="1470" d="M137 0v1409h1061v-227h-766v-334h477q123 0 215 -31q96 -33 154 -84q59 -53 90 -131q31 -77 31 -172q0 -90 -33 -168t-98.5 -137t-161.5 -92t-227 -33h-742zM432 229h397q139 0 207 52q66 49 66 145t-70 145q-71 49 -209 50h-391v-392z" />
<glyph unicode="&#x412;" horiz-adv-x="1478" d="M137 0v1409h645q119 0 222 -23q100 -23 165 -63q66 -43 101 -111q35 -70 35 -157q0 -123 -66 -203q-68 -83 -203 -111q170 -20 260 -108q90 -86 90 -232q0 -106 -43 -182q-41 -74 -118 -125q-76 -51 -172 -71q-102 -23 -211 -23h-705zM432 219h385q53 0 109 10 q51 10 86 33q37 25 57.5 64t20.5 100q0 53 -23 92q-25 43 -59 62q-47 25 -90 32q-57 10 -111 11h-375v-404zM432 842h338q127 0 182.5 43t55.5 131q0 96 -59.5 135t-180.5 39h-336v-348z" />
<glyph unicode="&#x413;" horiz-adv-x="1159" d="M137 0v1409h983v-227h-688v-1182h-295z" />
<glyph unicode="&#x414;" horiz-adv-x="1458" d="M18 244h156q37 68 66 141q33 84 59 174q35 113 51 195q20 96 37 211l62 444h788v-1165h184v-652h-250v408h-903v-408h-250v652zM483 244h469v921h-262l-31 -233q-12 -90 -30 -182q-12 -63 -41 -187q-23 -96 -49.5 -176t-55.5 -143z" />
<glyph unicode="&#x415;" horiz-adv-x="1363" d="M137 0v1409h1108v-227h-813v-355h752v-229h-752v-371h854v-227h-1149z" />
<glyph unicode="&#x416;" horiz-adv-x="1849" d="M-6 0l455 780q-12 9 -31 31q-8 10 -39 53l-20.5 29.5t-24.5 36.5l-45 71l-250 408h299l199 -324l81 -131q35 -55 64 -86q33 -35 51 -45q25 -12 51 -12v598h285v-598q27 0 51 12q23 12 54 45q29 31 63 86l82 131l199 324h299l-250 -408l-45 -71l-24.5 -35.5t-20.5 -30.5 q-20 -31 -41 -53q-23 -27 -29 -31l455 -780h-318l-348 639q-31 -16 -61 -21q-37 -6 -66 -6v-612h-283v612q-20 0 -32 2q-6 0 -17.5 2t-17.5 2q-12 2 -33 11q-4 2 -13 5t-14 5l-350 -639h-315z" />
<glyph unicode="&#x417;" horiz-adv-x="1282" d="M45 369l264 92q20 -53 49 -101q25 -43 70 -79q43 -37 90 -54q51 -18 121 -18q125 0 195 53q68 53 67 150q0 102 -80 145q-84 45 -248 45h-59v227h59q156 0 224 48q72 49 71 147q0 90 -61.5 139t-169.5 49q-68 0 -111 -20q-49 -23 -80 -53q-37 -37 -59 -80t-39 -94 l-266 61q29 88 78 166q47 74 114 127q74 57 158 82q96 29 209 29q109 0 211 -27q86 -23 162 -74q63 -43 102 -115q37 -68 37 -151q0 -72 -20 -125q-25 -61 -56 -98q-35 -41 -90 -70q-61 -33 -115 -45q70 -10 125.5 -32.5t100.5 -65.5q43 -39 67 -97q25 -55 25 -131 q0 -88 -39 -170q-37 -76 -107 -131q-76 -59 -172 -88q-101 -31 -233 -30q-121 0 -223 26q-94 25 -168 76q-72 49 -121 121q-51 74 -82 166z" />
<glyph unicode="&#x418;" horiz-adv-x="1470" d="M135 0v1409h262v-819v-98q0 -35 -4 -89l-4 -88l615 1094h331v-1409h-262v831v84q0 33 4 82l4 88l-610 -1085h-336z" />
<glyph unicode="&#x419;" horiz-adv-x="1470" d="M135 0v1409h262v-819v-98q0 -35 -4 -89l-4 -88l615 1094h331v-1409h-262v831v84q0 33 4 82l4 88l-610 -1085h-336zM333 1854h226q6 -104 51 -151.5t131 -47.5t131 47t51 152h226q-4 -53 -11 -84q-10 -47 -26 -80q-20 -39 -47 -70q-29 -31 -74 -57q-41 -25 -107 -37 q-61 -12 -143 -12t-143 12q-66 12 -107 37q-45 27 -74 57q-27 31 -47 70q-16 33 -26 80q-7 31 -11 84z" />
<glyph unicode="&#x41a;" horiz-adv-x="1249" d="M137 0v1409h295v-598q33 0 53 12q27 16 58 47q29 29 67 84l88 131l205 324h301l-266 -405l-47 -70l-47 -68q-29 -41 -43 -55q-25 -25 -33 -31l485 -780h-321l-375 639l-25 -12l-17 -5.5l-17 -5.5q-14 -4 -35 -8q-25 -4 -33 -4v-604h-293z" />
<glyph unicode="&#x41b;" horiz-adv-x="1435" d="M8 0v248q18 -6 21 -6h22q18 0 43 10q18 8 39 39q18 29 37 76q12 33 35 127q16 72 37 186q10 61 39 256l67 473h952v-1409h-284v1165h-408l-49 -348q-12 -98 -45 -285q-20 -123 -49 -217q-29 -98 -59 -155q-35 -66 -74 -103q-41 -39 -99 -57q-49 -16 -127 -16q-18 0 -55 4 q-28 3 -43 12z" />
<glyph unicode="&#x41c;" horiz-adv-x="1705" d="M137 0v1409h395l252 -788q2 -8 21 -76q16 -59 22 -86l27 -103l27 101l12 43l12 43q6 20 13 39q2 6 10 34l248 793h393v-1409h-262v854q0 16 1 51t1 53q0 39 4 101q0 16 1 51t3 51l-39 -149q-4 -14 -9 -29.5t-9 -34.5l-17 -61l-16 -56l-15 -45l-254 -786h-210l-254 786 q-2 8 -5.5 19.5l-7.5 25.5l-16 55.5t-9 30l-10 31.5q-4 18 -9 33.5t-9 30.5l-41 149l4 -58.5t2 -55.5q2 -47 4 -101q2 -35 2 -92v-854h-262z" />
<glyph unicode="&#x41d;" horiz-adv-x="1478" d="M137 0v1409h295v-561h625v561h284v-1409h-284v604h-625v-604h-295z" />
<glyph unicode="&#x41e;" horiz-adv-x="1591" d="M84 711q0 164 47 299q45 131 137 225q94 98 224 145q131 49 303 50q176 0 305 -52q141 -55 223 -143q92 -98 137 -227q47 -135 47 -297q0 -164 -49 -299q-49 -137 -141 -231.5t-225 -147.5q-135 -53 -299 -53q-178 0 -310 55q-135 57 -221 151q-92 100 -133 232 q-45 141 -45 293zM381 711q0 -113 27 -201q29 -98 77 -158q53 -66 129 -102q77 -37 179 -37q109 0 186 37q82 39 129 104q49 70 74 158q25 92 24 199q0 115 -26 200q-29 94 -78 154q-52 65 -129 98q-80 35 -178 35q-100 0 -181 -35q-77 -34 -129 -98q-53 -66 -77 -154 q-27 -96 -27 -200z" />
<glyph unicode="&#x41f;" horiz-adv-x="1470" d="M137 0v1409h1198v-1409h-284v1165h-621v-1165h-293z" />
<glyph unicode="&#x420;" horiz-adv-x="1363" d="M137 0v1409h633q137 0 234 -33q100 -35 163 -92q68 -61 97 -139q33 -88 32 -182q0 -88 -30.5 -174.5t-94.5 -149.5q-68 -68 -159 -104q-96 -39 -230 -39h-350v-496h-295zM432 723h313q72 0 113 16q51 20 80 49t45 74t16 96q0 111 -65 166t-197 56h-305v-457z" />
<glyph unicode="&#x421;" horiz-adv-x="1478" d="M84 711q0 166 43 299t129 225q92 98 217 145q133 49 309 50q133 0 242 -29q94 -25 178 -82q76 -51 125 -123q51 -72 78 -158l-260 -71q-12 39 -43 86q-25 39 -74 73q-47 35 -104 52q-68 20 -136 20q-104 0 -184 -35q-78 -35 -127 -98q-45 -59 -71 -154q-25 -88 -25 -200 q0 -109 25 -201q27 -98 71 -158q51 -66 129 -102q80 -37 189 -37q86 0 143 23q66 27 106 61q43 37 74 86q27 43 47 96l258 -96q-27 -68 -82 -150q-47 -70 -124 -129q-76 -57 -179 -90q-109 -35 -243 -34q-182 0 -318 55q-137 57 -221 151q-88 100 -129 232q-43 135 -43 293z " />
<glyph unicode="&#x422;" horiz-adv-x="1249" d="M23 1182v227h1206v-227h-457v-1182h-295v1182h-454z" />
<glyph unicode="&#x423;" horiz-adv-x="1273" d="M0 1409h307l389 -680l297 680h299l-524 -1092q-35 -74 -80 -145q-39 -63 -88 -106q-47 -41 -110.5 -63.5t-147.5 -22.5q-18 0 -68 4q-35 2 -69 12q-55 14 -64 18q-37 14 -53 27l82 246q35 -18 78 -31q39 -12 82 -12q33 0 63 10q23 8 51 33q23 20 48 61q35 59 49 92l16 37 z" />
<glyph unicode="&#x424;" horiz-adv-x="1746" d="M72 733q0 119 36.5 217.5t110.5 165.5q76 70 187 107q117 39 262 39h67v157h279v-157h65q145 0 262 -39q111 -37 187 -107q78 -70 112 -166q37 -98 37 -217q0 -117 -35 -209q-39 -104 -108 -174q-78 -78 -184 -119q-111 -43 -258 -43h-78v-198h-279v198h-80 q-147 0 -258 43q-104 41 -182 119q-70 70 -109 174q-34 92 -34 209zM369 729q0 -76 16 -131q20 -66 57 -106q43 -47 99 -70q57 -25 143 -25h51v656h-45q-164 0 -244 -86q-77 -84 -77 -238zM1014 397h51q86 0 143 25q51 23 97 70q37 41 57 106q18 61 18 131q0 152 -79.5 238 t-243.5 86h-43v-656z" />
<glyph unicode="&#x425;" horiz-adv-x="1363" d="M18 0l488 741l-447 668h312l313 -498l313 498h310l-428 -668l469 -741h-310l-354 561l-354 -561h-312z" />
<glyph unicode="&#x426;" horiz-adv-x="1495" d="M137 0v1409h295v-1165h569v1165h285v-1165h195v-652h-250v408h-1094z" />
<glyph unicode="&#x427;" horiz-adv-x="1437" d="M111 930v479h282v-448q0 -72 13 -125q12 -49 45 -86q31 -33 84 -50q63 -18 137 -18q86 0 178 16q84 14 156 37v674h294v-1409h-294v547l-86 -29q-35 -12 -103 -26q-72 -16 -117 -21q-61 -6 -129 -6q-240 0 -350 113q-110 114 -110 352z" />
<glyph unicode="&#x428;" horiz-adv-x="2056" d="M137 0v1409h285v-1165h475v1165h274v-1165h476v1165h274v-1409h-1784z" />
<glyph unicode="&#x429;" horiz-adv-x="2086" d="M137 0v1409h285v-1165h452v1165h277v-1165h451v1165h276v-1165h195v-652h-250v408h-1686z" />
<glyph unicode="&#x42a;" horiz-adv-x="1779" d="M23 1182v227h749v-561h447q123 0 215 -31q96 -33 153 -84q59 -53 90 -131q31 -77 31 -172q0 -90 -33 -168t-98.5 -137t-161.5 -92t-227 -33h-711v1182h-454zM772 229h367q137 0 204 52q66 49 66 145q0 98 -68 145q-71 49 -208 50h-361v-392z" />
<glyph unicode="&#x42b;" horiz-adv-x="2004" d="M137 0v1409h295v-561h438q123 0 215.5 -31t151.5 -84q61 -55 92 -131q31 -77 31 -172q0 -90 -33 -168t-98 -137q-63 -57 -164 -92q-96 -33 -227 -33h-701zM432 229h359q137 0 204 52q66 49 66 145t-69.5 145.5t-207.5 49.5h-352v-392zM1573 0v1409h295v-1409h-295z" />
<glyph unicode="&#x42c;" horiz-adv-x="1470" d="M137 0v1409h295v-561h477q123 0 215 -31q96 -33 154 -84q59 -53 90 -131q31 -77 31 -172q0 -90 -33 -168t-98.5 -137t-161.5 -92t-227 -33h-742zM432 229h397q139 0 207 52q66 49 66 145t-70 145q-71 49 -209 50h-391v-392z" />
<glyph unicode="&#x42d;" horiz-adv-x="1456" d="M53 383l252 96q10 -27 49 -96q27 -47 72 -86t102.5 -61.5t141.5 -22.5q100 0 168 27q72 27 120 77q49 49 78 123t35 160h-547v229h545q-6 92 -33 156q-29 72 -75 115q-53 51 -121 74q-70 25 -162 24q-70 0 -135 -20q-51 -16 -100.5 -51t-74 -74t-40.5 -86l-256 71 q27 86 78 158q49 71 122 123q78 55 177 82q104 29 237 29q176 0 305 -50q121 -45 213 -145q82 -88 127 -225q41 -125 41 -299q0 -164 -41 -293q-41 -131 -129 -232q-84 -96 -217 -151t-311 -55q-137 0 -242 34q-100 33 -176 90q-74 55 -123 129q-51 76 -80 150z" />
<glyph unicode="&#x42e;" horiz-adv-x="2111" d="M137 0v1409h295v-561h283q18 137 67 244q49 109 133 182q86 76 195 115q117 41 256 41q162 0 283 -52q131 -55 206 -143q84 -96 127 -227t43 -297t-45 -299q-49 -141 -129 -232q-86 -95 -209 -147q-125 -53 -278 -53q-147 0 -266 47q-115 45 -197 127t-129 198.5 t-59 251.5h-281v-604h-295zM1006 711q0 -113 20 -201q23 -94 68 -158q47 -68 112 -102q68 -37 160 -37q96 0 164 37q72 39 112 104q43 66 64 158q18 80 18 199q0 117 -20 200q-22 89 -68 154q-47 66 -112 98q-70 35 -158 35q-90 0 -160 -35q-72 -35 -112 -98 q-47 -72 -68 -154q-20 -83 -20 -200z" />
<glyph unicode="&#x42f;" horiz-adv-x="1470" d="M35 0l381 592q-57 12 -123 51q-59 35 -100 84q-35 43 -64 117q-25 66 -25 145q0 100 33 174q35 78 99 133q59 51 165 84q92 29 230 29h704v-1409h-295v535h-346l-327 -535h-332zM401 977q0 -43 17 -86q16 -41 45 -68q31 -27 78 -43q49 -16 112 -16h387v416h-378 q-125 0 -193 -49.5t-68 -153.5z" />
<glyph unicode="&#x430;" d="M59 305q0 96 35 162q37 70 90 106q59 41 138 60q77 18 165 18l234 4v56q0 45 -12 98q-10 45 -29 65q-23 27 -51 35q-35 10 -68 11q-34 0 -61 -7q-25 -6 -47 -24q-20 -18 -33 -47q-12 -33 -19 -74l-292 12q12 68 45 131q29 53 88 101q55 43 139 67q76 23 192 23 q100 0 180.5 -24.5t135.5 -74t83.5 -123t28.5 -165.5v-396q0 -47 3 -67q2 -23 14 -51q10 -23 26 -31q20 -10 46 -10q31 0 61 6v-152q-12 -2 -22.5 -6t-20.5 -6q-2 0 -41 -6l-43 -6q-14 -2 -51 -2q-109 0 -158 53q-51 53 -59 152h-6q-53 -98 -143.5 -155.5t-213.5 -57.5 q-76 0 -139 22q-66 23 -104 61q-45 45 -66 105q-25 69 -25 137zM352 328q0 -78 37 -115t94 -37q53 0 99 23q39 18 73 61q27 33 47 86q18 49 19 100v56l-146 -2q-53 -4 -83 -8q-45 -6 -72 -23q-31 -18 -49.5 -51t-18.5 -90z" />
<glyph unicode="&#x431;" horiz-adv-x="1263" d="M94 637q0 197 33 330q37 147 104 235q76 96 189 154q117 58 282 86q14 2 121 20q37 6 107 15q29 4 54.5 8t45.5 6q25 4 48.5 6l47.5 4v-233q-66 -6 -188 -23q-139 -18 -193 -26q-70 -10 -157 -29q-68 -14 -123 -41q-51 -25 -90 -59q-41 -37 -64 -86q-25 -52 -37 -123 q-14 -78 -16 -168q20 61 59 125q37 57 89 100q47 39 124 66q66 23 166 22q254 0 371 -129t117 -393q0 -266 -141.5 -395t-407.5 -129q-125 0 -229 34q-96 33 -170 113q-66 72 -105 205q-37 127 -37 305zM389 502q0 -95 19 -160q18 -63 53 -102q33 -37 76 -52q45 -16 98 -16 q63 0 106 14q45 14 80 54q33 35 51.5 100.5t18.5 161.5q0 90 -17 160q-12 55 -49 102q-31 39 -75 55q-41 14 -99 15q-53 0 -106 -17q-51 -16 -84 -55q-37 -43 -53 -103q-19 -65 -19 -157z" />
<glyph unicode="&#x432;" horiz-adv-x="1257" d="M143 0v1081h537q92 0 178 -12q84 -12 150 -43q63 -31 102 -82t39 -133q0 -52 -19 -92q-20 -45 -53 -72q-35 -29 -78 -47q-37 -16 -94 -27v-8q59 -6 109 -24q57 -20 88 -47q33 -29 57 -76q20 -41 21 -107q0 -156 -121 -233.5t-338 -77.5h-578zM426 174h225q72 0 113 8 q49 10 74 27q29 18 41 47q14 33 14 66q0 35 -14 71q-10 29 -43 47q-29 18 -78 27q-43 8 -117 8h-215v-301zM426 647h207q49 0 106 8q43 6 70 23q25 14 37 41q10 20 10 59q0 70 -47 99q-49 31 -164 30h-219v-260z" />
<glyph unicode="&#x433;" horiz-adv-x="851" d="M143 0v1081h656v-188h-373v-893h-283z" />
<glyph unicode="&#x434;" horiz-adv-x="1298" d="M14 190h125q29 43 58 113q28 68 55 172q29 109 55 250q28 147 55 356h754v-891h146v-598h-244v408h-760v-408h-244v598zM430 190h404v703h-236q-20 -158 -39 -250q-29 -147 -41 -197q-20 -82 -43 -149q-16 -50 -45 -107z" />
<glyph unicode="&#x435;" d="M80 547q0 158 41 260q43 109 112 172q74 68 162 94q96 29 195 29q125 0 219 -45q89 -43 147 -123q57 -78 86 -193q27 -106 27 -245v-9h-694q0 -70 12 -127q12 -59 39 -100q29 -43 70 -67q43 -25 104 -25q76 0 121 30.5t67 98.5l265 -23q-23 -59 -49 -98q-37 -55 -89 -96 q-59 -47 -133 -72q-82 -29 -196 -28q-117 0 -211 34q-96 35 -160 105q-68 74 -100 178q-35 111 -35 250zM377 664h420q-10 133 -64 196q-55 66 -147 66q-45 0 -80 -15q-37 -16 -66 -47q-25 -27 -45 -82q-14 -40 -18 -118z" />
<glyph unicode="&#x436;" horiz-adv-x="1449" d="M-16 0l317 571q-18 14 -39 45q-33 45 -53 84l-215 381h272l137 -256q57 -106 66 -118q23 -35 51 -64q25 -25 39 -29q18 -6 41 -6v473h252v-473q23 0 41 6q16 4 39 29q23 23 49 64l68 118l137 256h272l-215 -381q-27 -49 -53 -86q-18 -25 -39 -43l317 -571h-297l-223 469 q-6 -3 -18 -6q-16 -4 -25 -4q-4 0 -12 -1t-14 -1h-27v-457h-252v457q-16 0 -53 4q-31 4 -43 8l-223 -469h-297z" />
<glyph unicode="&#x437;" horiz-adv-x="1017" d="M53 289l242 43q10 -41 27 -70q14 -25 45 -51q18 -16 59 -33q25 -10 66 -10q84 0 124 39q43 40 43 104q0 51 -20 80q-22 31 -61 49q-41 18 -93 25q-55 6 -120 6v176q45 0 114 8q51 6 90 23q33 14 58 45q20 27 20 74q0 59 -39 92q-41 35 -110 35q-29 0 -60 -6 q-27 -6 -57 -25q-25 -15 -43 -43q-18 -27 -25 -72l-235 23q12 76 49 131q41 61 92 94q63 39 133 57q74 18 162 19q96 0 166 -21q78 -23 127 -57q53 -37 80 -88q29 -53 28 -115q0 -55 -18 -98q-18 -41 -53 -74q-33 -31 -78 -51q-33 -14 -98 -31v-2q45 -4 106 -26 q51 -18 90 -52q40 -34 62 -79q23 -49 22 -105q0 -72 -26 -127q-29 -59 -86 -104q-55 -43 -141.5 -67.5t-200.5 -24.5q-178 0 -289 79.5t-152 229.5z" />
<glyph unicode="&#x438;" horiz-adv-x="1257" d="M141 0v1081h262v-485q0 -37 -2 -64q-2 -14 -3 -40.5t-1 -40.5l-6 -82q-2 -35 -6 -60l446 772h285v-1081h-260v551q0 6 1 20.5t1 26.5q0 23 4 64q2 10 4 30.5t4 30.5q2 20 7 49l-435 -772h-301z" />
<glyph unicode="&#x439;" horiz-adv-x="1257" d="M141 0v1081h262v-485q0 -37 -2 -64q-2 -14 -3 -40.5t-1 -40.5l-6 -82q-2 -35 -6 -60l446 772h285v-1081h-260v551q0 6 1 20.5t1 26.5q0 23 4 64q2 10 4 30.5t4 30.5q2 20 7 49l-435 -772h-301zM231 1524h226q6 -104 51 -151.5t131 -47.5t131 47t51 152h226 q-4 -53 -11 -84q-10 -47 -26 -80q-20 -39 -47 -70q-29 -31 -74 -57q-41 -25 -107 -37q-61 -12 -143 -12t-143 12q-66 12 -107 37q-45 27 -74 57q-27 31 -47 70q-16 33 -26 80q-7 31 -11 84z" />
<glyph unicode="&#x43a;" horiz-adv-x="1024" d="M141 0v1081h283v-463q16 0 41 5q16 2 39 24q14 14 47 62q10 14 65 116l125 256h275l-205 -381q-29 -57 -59.5 -87.5t-42.5 -41.5l317 -571h-287l-233 459q-12 -4 -39 -8q-33 -4 -43 -5v-446h-283z" />
<glyph unicode="&#x43b;" horiz-adv-x="1300" d="M20 -6v190q12 -3 31 -6q25 -4 37 -4q27 0 51 14q18 10 39 47t35 99q14 59 33 162q2 8 37 245l19 133.5l30 206.5h825v-1081h-280v893h-312q-31 -238 -45 -324q-23 -145 -43 -241q-20 -92 -47 -168q-23 -59 -61 -107q-35 -41 -82 -57q-49 -16 -113 -16q-4 0 -15.5 1 t-19.5 1q-31 0 -47 2q-8 0 -22.5 1t-20.5 3q-21 4 -29 6z" />
<glyph unicode="&#x43c;" horiz-adv-x="1513" d="M143 0v1081h371l180 -561q2 -8 41 -139q18 -59 29 -145q8 63 29 145q23 90 38 139l175 561h366v-1081h-246v629q0 6 1 24.5t1 30.5q0 20 5 70l4 36.5t2 34.5q3 37 6 62l-275 -887h-213l-284 885q4 -31 6 -64q4 -49 6 -71.5t2 -67.5q0 -10 1 -28.5t1 -24.5v-629h-246z" />
<glyph unicode="&#x43d;" horiz-adv-x="1236" d="M143 0v1081h283v-428h385v428h283v-1081h-283v463h-385v-463h-283z" />
<glyph unicode="&#x43e;" horiz-adv-x="1249" d="M80 543q0 125 33 223q33 100 102 176q72 78 170 119q100 41 242 41q150 0 250 -41q102 -43 167.5 -117t96.5 -178q31 -102 30 -223q0 -119 -34 -228q-33 -98 -105 -178q-68 -74 -172 -117q-100 -41 -239 -40q-129 0 -234 40q-98 39 -168 115q-72 80 -104 178 q-35 109 -35 230zM375 543q0 -96 18 -168q18 -68 49 -115t76 -67q43 -20 100 -21q63 0 110.5 20.5t82.5 67.5q31 41 49 115q16 63 17 168q0 195 -64 278q-66 88 -182 88q-127 0 -191 -88q-65 -90 -65 -278z" />
<glyph unicode="&#x43f;" horiz-adv-x="1236" d="M143 0v1081h951v-1081h-283v893h-385v-893h-283z" />
<glyph unicode="&#x440;" horiz-adv-x="1249" d="M135 1081h273l4 -26q4 -29 4 -45q0 -8 2 -26.5t2 -29.5v-49h4q53 109 139 154q90 47 207 47q104 0 178 -43t123 -117q45 -68 72 -176q25 -102 24 -223q0 -123 -24 -228q-27 -111 -76 -180q-53 -76 -129 -116q-80 -43 -186 -43q-43 0 -95 10q-45 8 -92 33q-37 18 -78 59 q-43 43 -63 90h-6l1 -8q1 -8 1 -17q0 -6 1 -21t1 -26q0 -8 1 -26.5t1 -28.5v-55v-416h-281v1260q0 104 -2 147q-2 61 -6 100zM420 539q0 -109 20 -177q25 -78 52 -112q31 -39 73 -60q41 -18 84 -18q55 0 96 20.5t70 67.5q28 46 43 117q16 76 16 170q0 182 -57 274 q-55 88 -166 88q-45 0 -84 -16t-73 -62q-31 -39 -54 -112q-20 -67 -20 -180z" />
<glyph unicode="&#x441;" d="M80 535q0 133 35 241q33 100 100 178q61 72 164 111q96 37 219 37q100 0 186 -29q84 -29 142 -76q55 -47 94 -114q35 -61 51 -142l-283 -14q-12 84 -61 133t-135 49q-113 0 -166 -94q-51 -90 -51 -268q0 -375 221 -375q76 0 133 51q55 49 68 150l282 -13 q-10 -78 -45 -143q-39 -74 -96 -121q-63 -53 -147 -84q-92 -33 -197 -32q-127 0 -225 40q-96 41 -160 113q-66 76 -96 176q-33 109 -33 226z" />
<glyph unicode="&#x442;" horiz-adv-x="1001" d="M57 893v188h889v-188h-303v-893h-283v893h-303z" />
<glyph unicode="&#x443;" d="M16 1081h297l170 -506q3 -12 13 -36l18 -60l8 -23.5t7 -21.5l8 -26q10 -37 20 -70q2 -6 8 -27.5t8 -31.5q4 -14 7.5 -23.5t3.5 -13.5q0 4 3 12t7 22l14 60q2 12 19 67q10 37 18 70t17 59q2 10 7 23.5t5 15.5l160 510h294l-428 -1138q-41 -98 -79 -164q-43 -72 -89 -115 q-51 -47 -108 -67q-63 -23 -141 -23q-29 0 -90 4q-35 2 -87 10v199q8 -2 23.5 -3t24.5 -1q18 -2 49 -2q47 0 73 8q35 10 58 31q31 27 49 55q18 31 43 88l18 47z" />
<glyph unicode="&#x444;" horiz-adv-x="1792" d="M82 540.5q0 116.5 22 225.5q20 100 70 178q45 72 119 117q68 41 172 41q53 0 92 -10.5t84 -34.5q37 -20 70 -60q39 -47 55 -86h2q0 2 -1 12.5t-1 16.5v45v51v54v395h260v-580q46 108 129 154q84 47 188 47q96 0 164 -43q70 -45 115 -117q43 -68 66 -176q20 -96 20 -223 q0 -119 -22 -228q-23 -106 -68 -180q-43 -70 -121 -116q-72 -43 -170 -43q-39 0 -86 10q-39 8 -84 33q-39 20 -74 59q-33 37 -57 90h-6l1 -8q1 -8 1 -17q0 -6 1 -21t1 -26q0 -8 1 -26.5t1 -28.5v-55v-416h-260v602h-2q-47 -104 -127 -151q-78 -45 -193 -45q-94 0 -161 43 q-72 45 -113 116q-43 74 -66 178q-22 107 -22 223.5zM375 541q0 -369 192 -369q35 0 72 18q39 18 66 62q31 47 47 115q16 66 16 180.5t-16 177.5q-18 68 -45 111q-29 43 -66 59q-39 16 -72 16q-49 0 -83.5 -20.5t-59.5 -67.5q-29 -53 -39 -114q-12 -70 -12 -168zM1022 539 q0 -104 18.5 -176t45 -113t63.5 -59.5t72 -18.5q96 0 145 88t49 287q0 188 -47 274q-49 88 -145 88q-39 0 -72 -16q-39 -18 -66 -62q-27 -41 -45 -112t-18 -180z" />
<glyph unicode="&#x445;" d="M14 0l396 559l-377 522h303l231 -354l230 354h305l-377 -520l399 -561h-305l-252 391l-254 -391h-299z" />
<glyph unicode="&#x446;" horiz-adv-x="1257" d="M143 0v1081h283v-891h385v891h283v-891h145v-598h-244v408h-852z" />
<glyph unicode="&#x447;" horiz-adv-x="1187" d="M84 643v438h278v-385q0 -37 9 -61q10 -29 26.5 -49.5t48.5 -32.5q31 -12 74 -12t63.5 2t57.5 10q45 10 59 14q31 8 66 19v495h281v-1081h-281v416q-43 -14 -86 -31q-57 -20 -88 -29q-4 -2 -96 -18q-43 -8 -107 -8q-76 0 -131 20q-51 18 -96 64q-37 37 -60 98 q-18 49 -18 131z" />
<glyph unicode="&#x448;" horiz-adv-x="1705" d="M143 0v1081h263v-891h315v891h262v-891h315v891h263v-1081h-1418z" />
<glyph unicode="&#x449;" horiz-adv-x="1726" d="M143 0v1081h263v-891h317v891h260v-891h317v891h263v-891h145v-598h-246v408h-1319z" />
<glyph unicode="&#x44a;" horiz-adv-x="1492" d="M39 893v188h653v-434h248q233 0 352 -78q117 -77 117 -239q0 -76 -29 -140q-25 -55 -88 -102q-59 -45 -145 -65q-90 -23 -205 -23h-530v893h-373zM692 174h189q66 0 116 10q39 8 74 31q25 16 39 47q10 23 10 68q0 39 -12 65q-10 25 -41 45q-25 16 -74 27q-41 8 -110 8 h-191v-301z" />
<glyph unicode="&#x44b;" horiz-adv-x="1748" d="M143 0v1081h283v-434h270q236 0 357 -77.5t121 -239.5q0 -82 -29 -140q-31 -61 -90 -102q-63 -45 -150 -65q-94 -23 -207 -23h-555zM426 174h211q61 0 117 10q39 8 77 31q31 18 43.5 47t12.5 68q0 78 -58 110q-59 35 -190 35h-213v-301zM1325 0v1081h281v-1081h-281z" />
<glyph unicode="&#x44c;" horiz-adv-x="1257" d="M143 0v1081h283v-434h270q236 0 357 -77.5t121 -239.5q0 -82 -29 -140q-31 -61 -90 -102q-63 -45 -150 -65q-94 -23 -207 -23h-555zM426 174h211q61 0 117 10q39 8 77 31q31 18 43.5 47t12.5 68q0 78 -58 110q-59 35 -190 35h-213v-301z" />
<glyph unicode="&#x44d;" horiz-adv-x="1130" d="M51 360l283 13q12 -100 67 -150q57 -51 134 -51q58 0 98 18q43 20 65 54q29 43 39 88q10 47 15 121h-310v190h310q-4 66 -15 111q-12 51 -37 84q-25 35 -65.5 53t-95.5 18q-86 0 -135.5 -49t-61.5 -133l-283 14q16 80 52 142q37 66 96 114q57 49 139 76q86 29 186 29 q123 0 220 -37q102 -39 163 -111q68 -78 101 -178q35 -109 35 -241q0 -125 -31 -225.5t-96 -176.5q-61 -72 -162 -113q-98 -41 -225 -40q-104 0 -197 32q-84 31 -147 84q-53 45 -95 121q-37 69 -47 143z" />
<glyph unicode="&#x44e;" horiz-adv-x="1748" d="M143 0v1081h283v-428h199q16 106 53 183q41 86 102 141q66 59 156 92t209 33q147 0 241 -41q96 -43 162 -117q63 -72 92 -178q29 -104 29 -223q0 -127 -33 -228q-35 -106 -100 -178q-68 -74 -166 -117q-94 -41 -231 -40q-115 0 -209 34q-90 33 -155.5 98.5t-104.5 151.5 q-39 88 -49 199h-195v-463h-283zM913 543q0 -92 17 -168q14 -70 45 -115q33 -49 69 -67q41 -20 93 -21q113 0 176 88q61 86 61 283q0 195 -57 278q-59 88 -168 88q-115 0 -176 -88q-60 -85 -60 -278z" />
<glyph unicode="&#x44f;" horiz-adv-x="1193" d="M0 0l322 471q-55 14 -93 35q-47 27 -75 61q-27 31 -48 88q-18 49 -18 117q0 76 33 137q31 59 92 97q68 41 149 57q89 18 203 18h488v-1081h-283v434h-192l-273 -434h-305zM375 756q0 -70 47 -111q45 -39 141 -39h209v301h-192q-101 0 -154 -37q-51 -36 -51 -114z" />
<glyph unicode="&#x451;" d="M80 547q0 158 41 260q43 109 112 172q74 68 162 94q96 29 195 29q125 0 219 -45q89 -43 147 -123q57 -78 86 -193q27 -106 27 -245v-9h-694q0 -70 12 -127q12 -59 39 -100q29 -43 70 -67q43 -25 104 -25q76 0 121 30.5t67 98.5l265 -23q-23 -59 -49 -98q-37 -55 -89 -96 q-59 -47 -133 -72q-82 -29 -196 -28q-117 0 -211 34q-96 35 -160 105q-68 74 -100 178q-35 111 -35 250zM377 664h420q-10 133 -64 196q-55 66 -147 66q-45 0 -80 -15q-37 -16 -66 -47q-25 -27 -45 -82q-14 -40 -18 -118zM260 1198v219h213v-219h-213zM695 1198v219h217 v-219h-217z" />
<glyph unicode="&#x452;" horiz-adv-x="1249" d="M10 1176v170h133v139h281v-139h309v-170h-309v-138v-63q0 -12 -2 -32.5t-2 -29.5q0 -10 -1 -27.5t-1 -23.5q0 -8 -1 -20.5t-1 -16.5h4q59 127 143 181q90 57 205 57q94 0 166 -33q66 -29 110 -88q43 -55 62 -131q18 -77 18 -166v-772q0 -61 -16 -121q-14 -49 -51 -94 q-35 -41 -88 -61q-57 -23 -131 -23q-41 0 -99 4q-35 2 -71 6v199q16 -4 24 -4h27q41 0 63 8q20 8 37 27q14 16 21 49q4 20 4 78v624q0 59 -10 117q-8 49 -33 90q-20 35 -59.5 57.5t-90.5 22.5q-47 0 -92 -23q-39 -18 -71.5 -65t-47.5 -98q-16 -61 -16 -127v-539h-281v1176 h-133z" />
<glyph unicode="&#x453;" horiz-adv-x="851" d="M143 0v1081h656v-188h-373v-893h-283zM301 1184v30l254 287h258v-43l-342 -274h-170z" />
<glyph unicode="&#x454;" horiz-adv-x="1130" d="M80 535q0 133 35 241q33 100 100 178q61 72 164 111q96 37 219 37q100 0 186 -29q84 -29 142 -76q55 -47 94 -114q35 -61 51 -142l-283 -14q-12 84 -61 133t-135 49q-101 0 -154 -67q-53 -70 -59 -199h309v-190h-309q6 -143 59 -211q55 -70 158 -70q76 0 133 51 q55 49 68 150l282 -13q-10 -78 -45 -143q-39 -74 -96 -121q-63 -53 -147 -84q-92 -33 -197 -32q-127 0 -225 40q-96 41 -160 113q-66 76 -96 176q-33 109 -33 226z" />
<glyph unicode="&#x455;" d="M72 270l247 37q12 -47 33 -74q23 -29 51.5 -43t73.5 -20q29 -4 94 -4q47 0 91 6q39 6 71 18q25 10 47 39q16 23 17 62q0 41 -25 65q-27 27 -67.5 41.5t-98.5 26.5q-96 20 -123 27q-96 23 -135 34q-68 23 -117 58q-53 39 -84 92q-33 59 -32 139q0 78 30 139q31 59 88 103 q61 45 144 65q90 23 196 23q82 0 164 -17q70 -14 135 -53q61 -37 101 -90q43 -59 57 -133l-250 -27q-6 41 -24 66q-20 27 -45 41t-62 20q-23 4 -76 4q-100 0 -149 -24q-51 -27 -51 -86q0 -39 20 -60q23 -23 58 -36q37 -14 90 -25q49 -8 112 -25q49 -10 148 -38 q76 -23 129 -58q55 -37 90 -96t35 -152q0 -80 -33 -139q-37 -66 -94 -106q-55 -39 -152 -66q-88 -25 -205 -24q-98 0 -186 16q-84 16 -145 49q-63 35 -105 88q-40 51 -63 137z" />
<glyph unicode="&#x456;" horiz-adv-x="567" d="M143 0v1081h281v-1081h-281zM143 1278v207h281v-207h-281z" />
<glyph unicode="&#x457;" horiz-adv-x="575" d="M145 0v1081h281v-1081h-281zM-37 1198v219h213v-219h-213zM398 1198v219h217v-219h-217z" />
<glyph unicode="&#x458;" horiz-adv-x="567" d="M-33 -217q16 -4 27 -4h24q41 0 64 8q25 8 39 27q12 14 18 49q4 20 4 78v1140h283v-1208q0 -61 -16 -121q-14 -49 -52 -94q-35 -41 -88 -61q-57 -23 -133 -23q-39 0 -96 4q-43 3 -74 6v199zM143 1278v207h283v-207h-283z" />
<glyph unicode="&#x459;" horiz-adv-x="1982" d="M20 -6v190q12 -3 31 -6q25 -4 37 -4q27 0 51 14q18 10 39 47t35 99q14 59 33 162q2 8 37 245l19 133.5l30 206.5h819v-434h270q236 0 356.5 -77.5t120.5 -239.5q0 -82 -28 -140q-31 -61 -90 -102q-63 -45 -150 -65q-94 -23 -207 -23h-555v893h-303q-31 -238 -45 -324 q-23 -145 -43 -241q-20 -92 -47 -168q-23 -59 -61 -107q-35 -41 -82 -57q-49 -16 -113 -16q-4 0 -15.5 1t-19.5 1q-31 0 -47 2q-8 0 -22.5 1t-20.5 3q-21 4 -29 6zM1151 174h211q61 0 117 10q39 8 77 31q31 18 43.5 47t12.5 68q0 78 -58 110q-59 35 -190 35h-213v-301z" />
<glyph unicode="&#x45a;" horiz-adv-x="1855" d="M143 0v1081h283v-428h350v428h283v-434h235q236 0 357 -77.5t121 -239.5q0 -78 -31 -139.5t-90 -102.5q-63 -45 -150 -65q-94 -23 -207 -23h-518v463h-350v-463h-283zM1059 174h176q61 0 117 10q39 8 78 31q27 16 40 47q14 33 15 68q0 76 -59.5 110.5t-190.5 34.5h-176 v-301z" />
<glyph unicode="&#x45b;" horiz-adv-x="1249" d="M10 1176v170h133v139h281v-139h309v-170h-309v-138v-63q0 -12 -2 -32.5t-2 -29.5q0 -10 -1 -27.5t-1 -23.5q0 -8 -1 -20.5t-1 -16.5h4q59 127 143 181q90 57 205 57q94 0 166 -33q66 -29 110 -88q43 -55 62 -131q18 -77 18 -166v-645h-280v565q0 59 -10 117q-8 49 -33 90 q-20 35 -59.5 57.5t-90.5 22.5q-47 0 -92 -23q-39 -18 -71.5 -65t-47.5 -98q-16 -61 -16 -127v-539h-281v1176h-133z" />
<glyph unicode="&#x45c;" horiz-adv-x="1024" d="M141 0v1081h283v-463q16 0 41 5q16 2 39 24q14 14 47 62q10 14 65 116l125 256h275l-205 -381q-29 -57 -59.5 -87.5t-42.5 -41.5l317 -571h-287l-233 459q-12 -4 -39 -8q-33 -4 -43 -5v-446h-283zM405 1184v30l254 287h258v-43l-342 -274h-170z" />
<glyph unicode="&#x45e;" d="M16 1081h297l170 -506q3 -12 13 -36l18 -60l8 -23.5t7 -21.5l8 -26q10 -37 20 -70q2 -6 8 -27.5t8 -31.5q4 -14 7.5 -23.5t3.5 -13.5q0 4 3 12t7 22l14 60q2 12 19 67q10 37 18 70t17 59q2 10 7 23.5t5 15.5l160 510h294l-428 -1138q-41 -98 -79 -164q-43 -72 -89 -115 q-51 -47 -108 -67q-63 -23 -141 -23q-29 0 -90 4q-35 2 -87 10v199q8 -2 23.5 -3t24.5 -1q18 -2 49 -2q47 0 73 8q35 10 58 31q31 27 49 55q18 31 43 88l18 47zM159 1524h226q6 -104 51 -151.5t131 -47.5t131 47t51 152h226q-4 -53 -11 -84q-10 -47 -26 -80q-20 -39 -47 -70 q-29 -31 -74 -57q-41 -25 -107 -37q-61 -12 -143 -12t-143 12q-66 12 -107 37q-45 27 -74 57q-27 31 -47 70q-16 33 -26 80q-7 31 -11 84z" />
<glyph unicode="&#x45f;" horiz-adv-x="1236" d="M143 0v1081h283v-891h385v891h283v-1081h-353v-408h-245v408h-353z" />
<glyph unicode="&#x490;" horiz-adv-x="995" d="M137 0v1409h565v412h250v-639h-520v-1182h-295z" />
<glyph unicode="&#x491;" horiz-adv-x="913" d="M143 0v1081h441v410h245v-598h-403v-893h-283z" />
<glyph unicode="&#x1e80;" horiz-adv-x="1931" d="M2 1409h299l176 -784q23 -96 29 -125l22 -113l23 -108l29 145q2 14 6 29.5l8 31.5l12 64l12 59q2 14 6.5 26.5t6.5 24.5l174 750h330l178 -750q8 -33 12 -53l12 -61l13 -64q2 -10 5 -30.5t5 -30.5l24 -141l25 116q10 51 25 113q8 31 28 117l170 784h299l-364 -1409h-350 l-191 815q-16 68 -20 88l-19 98q-8 37 -20 115q-6 -33 -12.5 -61.5t-10.5 -53.5l-8 -49l-12 -51q-4 -14 -9 -47q-2 -14 -10 -39l-190 -815h-350zM664 1772v43h258l252 -254v-31h-170z" />
<glyph unicode="&#x1e81;" horiz-adv-x="1591" d="M-6 1081h264l137 -635l13 -61q4 -18 8 -33.5t6 -27.5q8 -45 14 -68q4 20 8.5 37.5t6.5 36.5l12 61l7 31.5t5 23.5l170 635h301l166 -635q12 -51 14 -59q6 -33 13 -61q2 -16 6 -34l8 -36q10 45 14 70q2 12 6.5 27.5t8.5 33.5q6 33 12 59l143 635h260l-284 -1081h-297 l-172 659q-2 4 -17 70q-8 39 -14 74l-16 80q-4 -20 -9.5 -40t-9.5 -40q-8 -35 -16 -74t-17 -72l-174 -657h-297zM445 1458v43h258l251 -287v-30h-169z" />
<glyph unicode="&#x1e82;" horiz-adv-x="1931" d="M2 1409h299l176 -784q23 -96 29 -125l22 -113l23 -108l29 145q2 14 6 29.5l8 31.5l12 64l12 59q2 14 6.5 26.5t6.5 24.5l174 750h330l178 -750q8 -33 12 -53l12 -61l13 -64q2 -10 5 -30.5t5 -30.5l24 -141l25 116q10 51 25 113q8 31 28 117l170 784h299l-364 -1409h-350 l-191 815q-16 68 -20 88l-19 98q-8 37 -20 115q-6 -33 -12.5 -61.5t-10.5 -53.5l-8 -49l-12 -51q-4 -14 -9 -47q-2 -14 -10 -39l-190 -815h-350zM821 1530v31l254 254h258v-43l-342 -242h-170z" />
<glyph unicode="&#x1e83;" horiz-adv-x="1591" d="M-6 1081h264l137 -635l13 -61q4 -18 8 -33.5t6 -27.5q8 -45 14 -68q4 20 8.5 37.5t6.5 36.5l12 61l7 31.5t5 23.5l170 635h301l166 -635q12 -51 14 -59q6 -33 13 -61q2 -16 6 -34l8 -36q10 45 14 70q2 12 6.5 27.5t8.5 33.5q6 33 12 59l143 635h260l-284 -1081h-297 l-172 659q-2 4 -17 70q-8 39 -14 74l-16 80q-4 -20 -9.5 -40t-9.5 -40q-8 -35 -16 -74t-17 -72l-174 -657h-297zM637 1184v30l254 287h258v-43l-342 -274h-170z" />
<glyph unicode="&#x1e84;" horiz-adv-x="1931" d="M2 1409h299l176 -784q23 -96 29 -125l22 -113l23 -108l29 145q2 14 6 29.5l8 31.5l12 64l12 59q2 14 6.5 26.5t6.5 24.5l174 750h330l178 -750q8 -33 12 -53l12 -61l13 -64q2 -10 5 -30.5t5 -30.5l24 -141l25 116q10 51 25 113q8 31 28 117l170 784h299l-364 -1409h-350 l-191 815q-16 68 -20 88l-19 98q-8 37 -20 115q-6 -33 -12.5 -61.5t-10.5 -53.5l-8 -49l-12 -51q-4 -14 -9 -47q-2 -14 -10 -39l-190 -815h-350zM643 1530v219h195v-219h-195zM1098 1530v219h197v-219h-197z" />
</font>
</defs>
</svg>
