<?xml version="1.0" standalone="no"?>
<!DOCTYPE svg PUBLIC "-//W3C//DTD SVG 1.1//EN" "http://www.w3.org/Graphics/SVG/1.1/DTD/svg11.dtd" >
<svg xmlns="http://www.w3.org/2000/svg">
<metadata>
This is a custom SVG webfont generated by Font Squirrel.
Copyright   : Copyright c 2001 by Bigelow  Holmes Inc Instructions copyright c 2001 by URW
Designer    : Kris Holmes and Charles Bigelow
Foundry     : Bigelow  Holmes Inc
Foundry URL : httpwwwurwppde
</metadata>
<defs>
<font id="webfontfQPj5X4N" horiz-adv-x="1138" vert-adv-y="2048" >
<font-face units-per-em="2048" ascent="1638" descent="-410" />
<missing-glyph horiz-adv-x="567" />
<glyph horiz-adv-x="0" vert-adv-y="0" />
<glyph horiz-adv-x="567" vert-adv-y="2463" />
<glyph unicode=" " horiz-adv-x="567" vert-adv-y="2463" />
<glyph unicode="!" horiz-adv-x="567" vert-adv-y="2463" d="M186 0l39 197h199l-41 -197h-197zM291 395l133 789l57 297h199l-59 -297l-183 -789h-147z" />
<glyph unicode="&#x22;" horiz-adv-x="724" vert-adv-y="2463" d="M334 1085l74 494h196l-123 -494h-147zM680 1085l74 494h196l-123 -494h-147z" />
<glyph unicode="#" vert-adv-y="2463" d="M115 444l49 123h217l156 346h-236l49 123h242l201 445h127l-201 -445h264l201 445h127l-201 -445h213l-51 -123h-217l-156 -346h236l-50 -123h-241l-201 -444h-127l201 444h-264l-199 -444h-129l201 444h-211zM508 567h264l156 346h-264z" />
<glyph unicode="$" vert-adv-y="2463" d="M119 84l35 170q207 -106 372 -107l107 533q-147 102 -207 174q-61 76 -61 201q0 193 161 323q109 88 267 103l24 123h98l-22 -123q143 0 305 -68l-31 -162q-180 86 -303 95l-104 -529l10 -6q20 -12 34.5 -24.5t24.5 -18.5q109 -72 152 -129q51 -63 51 -156 q0 -195 -164 -346q-109 -100 -272 -137l-25 -123h-100l27 123q-174 0 -379 84zM541 1092q0 -106 133 -209l92 456q-225 -73 -225 -247zM629 160q221 80 221 262q0 90 -129 199z" />
<glyph unicode="%" horiz-adv-x="1820" vert-adv-y="2463" d="M244 -37l1476 1555h154l-1477 -1555h-153zM324 1008q0 203 114 335q117 137 291 138q252 0 252 -269q0 -197 -117 -335q-117 -137 -289 -138q-251 1 -251 269zM477 1012q0 -172 121 -172q90 0 158 110q70 117 69 258q0 174 -118 174q-90 0 -160 -112q-70 -117 -70 -258z M1137 266q0 201 116 336q117 137 289 137q252 0 252 -268q0 -199 -117 -334q-117 -137 -286 -137q-254 0 -254 266zM1292 270q0 -172 119 -172q90 0 160 113q68 114 67 258q0 172 -118 172q-90 0 -158 -111q-70 -115 -70 -260z" />
<glyph unicode="&#x26;" horiz-adv-x="1363" vert-adv-y="2463" d="M141 350q0 213 162 377q111 115 291 176q-41 119 -41 201q0 176 119 295t301 119q266 0 266 -236q0 -172 -147 -301q-90 -80 -256 -150q111 -311 231 -503q129 131 190 458h197q-86 -360 -315 -565q59 -102 161 -221h-268l-55 86q-227 -123 -406 -123q-193 0 -311 107 q-119 104 -119 280zM348 401q0 -129 80 -208q82 -82 205 -82q109 0 280 92q-158 229 -274 588q-131 -57 -197 -134q-94 -106 -94 -256zM750 1141q0 -70 34 -185q123 51 181 105q86 83 86 196q0 111 -113 111q-84 0 -135 -63q-53 -66 -53 -164z" />
<glyph unicode="'" horiz-adv-x="389" vert-adv-y="2463" d="M330 1036l57 543h248l-158 -543h-147z" />
<glyph unicode="(" horiz-adv-x="681" vert-adv-y="2463" d="M238 408q0 397 245 759q170 248 432 412l-26 -135q-207 -190 -322 -440q-145 -315 -145 -685q0 -175 55 -313q33 -86 90 -166l-26 -137q-76 61 -125 125q-178 228 -178 580z" />
<glyph unicode=")" horiz-adv-x="681" vert-adv-y="2463" d="M23 -297l26 137q205 186 322 439q145 311 145 686q0 180 -53 313q-27 70 -92 166l26 135q76 -61 125 -125q178 -227 178 -577q0 -399 -245 -762q-164 -244 -432 -412z" />
<glyph unicode="*" horiz-adv-x="796" vert-adv-y="2463" d="M268 1149l74 139l236 -125q-43 -31 -43 -82zM283 838l254 231q8 -45 59 -51l-211 -266zM590 1171l31 310h147l-92 -310q-18 12 -41 13q-25 -1 -45 -13zM608 1018q53 6 80 51l162 -231l-137 -86zM686 1163l285 125l16 -139l-291 -68q6 16 6 33q0 29 -16 49z" />
<glyph unicode="+" horiz-adv-x="1193" vert-adv-y="2463" d="M209 518l29 148h419l84 419h148l-82 -419h418l-31 -148h-418l-84 -420h-147l84 420h-420z" />
<glyph unicode="," horiz-adv-x="567" vert-adv-y="2463" d="M96 -322l17 74q101 28 141 228l2 20h-94l49 248h246l-43 -215q-68 -326 -318 -355z" />
<glyph unicode="-" horiz-adv-x="681" vert-adv-y="2463" d="M193 518l28 148h506l-29 -148h-505z" />
<glyph unicode="." horiz-adv-x="567" vert-adv-y="2463" d="M162 0l49 248h246l-49 -248h-246z" />
<glyph unicode="/" horiz-adv-x="567" vert-adv-y="2463" d="M-119 -297l889 1778h156l-889 -1778h-156z" />
<glyph unicode="0" vert-adv-y="2463" d="M203 465q0 418 200.5 735.5t475.5 317.5q360 0 360 -494q0 -219 -70 -446q-68 -223 -182 -375q-180 -240 -428 -240q-154 0 -244 105q-112 127 -112 397zM406 420q0 -154 43 -227q47 -82 143 -82q109 0 203 112q106 127 174 383q68 250 67 465q0 297 -186 297 q-174 0 -309 -293q-135 -295 -135 -655z" />
<glyph unicode="1" vert-adv-y="2463" d="M229 0l31 147h295l233 1170l-309 -76l31 154l516 123l-272 -1371h297l-31 -147h-791z" />
<glyph unicode="2" vert-adv-y="2463" d="M102 0l33 172q104 164 297 330l129 110l119 101q279 236 278 465q0 193 -194 192q-137 0 -375 -121l35 174q225 94 395 95q164 0 258 -84t94 -236q0 -156 -84 -283q-92 -135 -305 -294l-82 -64q-246 -186 -325 -385h594l-35 -172h-832z" />
<glyph unicode="3" vert-adv-y="2463" d="M156 10l37 185l6 -2l10 -5l24 -10q115 -45 140 -51q55 -16 110 -16q154 0 256 102q104 104 105 258q0 248 -332 248h-78l27 133l69 2q188 2 306 98q121 98 120 246q0 170 -202 170q-123 0 -324 -82l35 172q197 59 334 60q360 0 360 -277q0 -184 -139 -305 q-82 -70 -250 -133q88 -25 141 -53q147 -86 148 -261q0 -219 -170 -372q-172 -154 -414 -154q-124 0 -319 47z" />
<glyph unicode="4" vert-adv-y="2463" d="M115 420l28 147l840 914h186l-180 -901h199l-33 -160h-199l-84 -420h-184l84 420h-657zM340 580h477l131 657z" />
<glyph unicode="5" vert-adv-y="2463" d="M162 -6l35 176q143 -59 266 -59q166 0 276 114q111 114 111 277q0 266 -397 266q-35 0 -113 -8l143 721h750l-35 -172h-575l-78 -391q166 -4 258 -33q258 -83 258 -363q0 -244 -182.5 -401.5t-464.5 -157.5q-111 0 -252 31z" />
<glyph unicode="6" vert-adv-y="2463" d="M197 430q0 223 77 455q76 231 203 387q203 246 498 246q125 0 266 -56l-35 -172q-162 80 -266 80q-211 0 -346 -219q-55 -90 -92 -199q-14 -49 -45 -174q172 172 370 172q147 0 232 -86q82 -84 82 -243q0 -272 -166 -465q-168 -193 -408 -193q-178 0 -274 121t-96 346z M393 385q0 -125 60 -201q58 -74 159 -73q143 0 238 137q90 133 90 350q0 211 -190 211q-150 0 -254 -123q-103 -121 -103 -301z" />
<glyph unicode="7" vert-adv-y="2463" d="M221 0q68 178 144 299q74 123 258 346l534 649h-762l37 187h950l-36 -187q-739 -840 -897 -1294h-228z" />
<glyph unicode="8" vert-adv-y="2463" d="M168 291q0 184 141 334q84 88 248 182q-158 133 -158 270q0 178 156 309.5t371 131.5q164 0 258 -70t94 -191q0 -147 -131 -280q-84 -84 -229 -170q111 -61 176 -133q84 -96 84 -217q0 -199 -174 -348q-170 -145 -422 -146q-193 0 -303.5 86t-110.5 242zM371 332 q0 -102 67 -162q70 -59 183 -59q143 0 243 84q100 82 101 200q0 117 -193 248l-125 82q-143 -96 -203 -174q-73 -96 -73 -219zM590 1143q0 -102 145 -215q16 -14 56 -39l30 -21q119 72 183 142q88 96 88 202q0 72 -60 113q-57 43 -155 43q-121 0 -205 -65q-82 -64 -82 -160z " />
<glyph unicode="9" vert-adv-y="2463" d="M166 18l35 172q166 -80 266 -79q211 0 346 219q55 90 92 198q23 74 47 174q-172 -172 -370 -172q-150 0 -232 84q-84 88 -84 246q0 268 168 465q166 193 408 193q176 0 272 -121t96 -346q0 -217 -77 -455q-76 -229 -203 -385q-203 -250 -496 -250q-121 0 -268 57z M467 885q0 -213 192 -213q152 0 254 121q100 119 101 303q0 129 -60 200q-57 72 -157 72q-147 0 -240 -135q-90 -133 -90 -348z" />
<glyph unicode=":" horiz-adv-x="567" vert-adv-y="2463" d="M186 0l39 197h199l-41 -197h-197zM365 889l38 196h197l-39 -196h-196z" />
<glyph unicode=";" horiz-adv-x="567" vert-adv-y="2463" d="M123 -322l14 74q74 41 115 225l4 23h-70l39 197h199l-35 -166q-61 -304 -266 -353zM365 889l38 196h197l-39 -196h-196z" />
<glyph unicode="&#x3c;" horiz-adv-x="1193" vert-adv-y="2463" d="M223 592l1086 493l-33 -165l-721 -326v-2l590 -328l-35 -166z" />
<glyph unicode="=" horiz-adv-x="1193" vert-adv-y="2463" d="M170 334l31 147h987l-31 -147h-987zM246 702l28 150h988l-29 -150h-987z" />
<glyph unicode="&#x3e;" horiz-adv-x="1193" vert-adv-y="2463" d="M125 98l33 166l719 328v2l-588 326l33 165l888 -493z" />
<glyph unicode="?" vert-adv-y="2463" d="M375 0l39 197h196l-39 -197h-196zM395 1294l33 168q227 55 418 56q410 0 409 -277q0 -227 -260 -371l-90 -49q-113 -61 -160 -129q-47 -61 -71 -186l-23 -111h-196l10 54q49 248 237 372l103 70q238 160 237 326q0 152 -239 151q-168 0 -408 -74z" />
<glyph unicode="@" horiz-adv-x="2078" vert-adv-y="2463" d="M369 463q0 301 278 627q172 201 402 313q236 115 460 115q240 0 389.5 -141.5t149.5 -364.5q0 -270 -203 -496q-199 -219 -446 -219q-145 0 -146 94q0 43 43 125l66 125h-12q-256 -344 -461 -344q-150 0 -150 166q0 203 209 455q217 260 459 260q35 0 61 -2q2 0 10.5 -1 t12.5 -1q27 -2 68 -3h137l-254 -634q-23 -55 -23 -84q0 -45 70 -45q160 0 301 186q141 187 141 393q0 184 -129 301q-131 119 -329 119q-201 0 -404 -104q-203 -102 -354 -285q-231 -279 -232 -533q0 -190 123 -300.5t332 -110.5q154 0 319 71l17 -102q-203 -80 -375 -80 q-248 0 -387 133q-143 136 -143 367zM901 506q0 -86 60 -86q131 0 450 414l78 194q-84 33 -154 33q-157 0 -282 -172q-152 -207 -152 -383z" />
<glyph unicode="A" horiz-adv-x="1363" vert-adv-y="2463" d="M18 0l859 1481h208l256 -1481h-225l-72 410h-593l-238 -410h-195zM541 565h477l-111 635z" />
<glyph unicode="B" horiz-adv-x="1363" vert-adv-y="2463" d="M166 0l295 1481h475q268 0 370.5 -57.5t102.5 -206.5q0 -195 -149 -318q-88 -74 -263 -129q147 -47 213 -102q102 -86 103 -219q0 -145 -92 -269q-78 -104 -191 -143q-109 -37 -340 -37h-524zM406 158h155q328 0 420 59q111 71 111 221q0 258 -408 258h-170zM541 829h180 q225 0 344 89q121 90 121 245q0 113 -107 140q-76 20 -245 20h-195z" />
<glyph unicode="C" horiz-adv-x="1478" vert-adv-y="2463" d="M256 535q0 401 246 690q250 293 690 293q197 0 463 -66l-39 -197q-289 104 -469 105q-285 0 -455 -201q-207 -244 -207 -594q0 -438 437 -438q219 0 495 129l-37 -180q-250 -113 -522 -113q-602 1 -602 572z" />
<glyph unicode="D" horiz-adv-x="1478" vert-adv-y="2463" d="M166 0l295 1481h475q322 0 471 -125q154 -127 154 -398q0 -360 -230 -645q-252 -313 -690 -313h-475zM406 158h251q190 0 299 53q111 51 205 182q168 236 168 525q0 229 -119 317q-115 88 -415 88h-156z" />
<glyph unicode="E" horiz-adv-x="1363" vert-adv-y="2463" d="M190 0l297 1481h1074l-31 -158h-864l-97 -475h766l-32 -156h-764l-107 -534h907l-30 -158h-1119z" />
<glyph unicode="F" horiz-adv-x="1249" vert-adv-y="2463" d="M190 0l297 1481h1006l-33 -158h-794l-101 -496h697l-31 -155h-696l-134 -672h-211z" />
<glyph unicode="G" horiz-adv-x="1591" vert-adv-y="2463" d="M231 532q0 387 232 672q255 313 731 314q244 0 512 -68l-39 -195q-301 104 -510 105q-315 0 -493 -205q-205 -236 -205 -600q0 -213 127 -323.5t352 -110.5q114 0 301 37l76 377h-246l31 153h456l-131 -647q-295 -78 -551 -78q-362 0 -518 174q-125 137 -125 395z" />
<glyph unicode="H" horiz-adv-x="1478" vert-adv-y="2463" d="M166 0l295 1481h211l-125 -625h729l125 625h209l-297 -1481h-209l139 698h-729l-139 -698h-209z" />
<glyph unicode="I" horiz-adv-x="567" vert-adv-y="2463" d="M180 0l295 1481h211l-297 -1481h-209z" />
<glyph unicode="J" horiz-adv-x="1024" vert-adv-y="2463" d="M2 -231l39 180q154 -76 303 -76q158 0 221 61q66 63 103 246l260 1301h209l-258 -1295q-98 -483 -578 -483q-162 0 -299 66z" />
<glyph unicode="K" horiz-adv-x="1363" vert-adv-y="2463" d="M190 0l297 1481h197l-145 -729l759 729h211l-737 -707l545 -774h-266l-512 750l-152 -750h-197z" />
<glyph unicode="L" vert-adv-y="2463" d="M166 0l295 1481h211l-264 -1323h725l-31 -158h-936z" />
<glyph unicode="M" horiz-adv-x="1705" vert-adv-y="2463" d="M166 0l295 1481h291l178 -1145l647 1145h260l-297 -1481h-194l239 1202l-624 -1104h-203l-170 1108l-242 -1206h-180z" />
<glyph unicode="N" horiz-adv-x="1478" vert-adv-y="2463" d="M166 0l295 1481h205l534 -1143l230 1143h180l-297 -1481h-205l-535 1143l-229 -1143h-178z" />
<glyph unicode="O" horiz-adv-x="1591" vert-adv-y="2463" d="M231 541q0 408 256 692.5t627 284.5q266 0 418 -152q150 -150 149 -428q0 -408 -256 -692q-255 -283 -632 -283q-237 0 -381 123q-181 154 -181 455zM457 541q0 -205 98 -312q98 -109 272 -108q244 0 412 188q219 244 219 629q0 209 -98 315.5t-281 106.5 q-266 0 -444 -237.5t-178 -581.5z" />
<glyph unicode="P" horiz-adv-x="1363" vert-adv-y="2463" d="M168 0l295 1481h579q293 0 400 -60q106 -61 106 -229q0 -270 -205 -436q-205 -168 -540 -168h-309l-117 -588h-209zM526 748h299q227 0 359 106q135 109 135 283q0 131 -111 161q-82 25 -262 25h-305z" />
<glyph unicode="Q" horiz-adv-x="1591" vert-adv-y="2463" d="M231 543q0 403 256 690q254 285 623 285q270 0 421.5 -152t151.5 -426q0 -342 -194 -614q-132 -184 -356 -295q224 -111 491 -160l-166 -168q-322 113 -530 270q-104 -12 -156 -12q-244 0 -391 158q-150 156 -150 424zM457 541q0 -206 98 -314q98 -106 274 -106 q268 0 451 237q178 236 178 588q0 182 -82 285q-102 129 -297 129q-264 0 -442 -238q-180 -239 -180 -581z" />
<glyph unicode="R" horiz-adv-x="1478" vert-adv-y="2463" d="M166 0l295 1481h618q203 0 297 -70q92 -68 92 -219q0 -180 -141 -334q-96 -104 -248 -166l355 -692h-258l-295 627h-381l-125 -627h-209zM530 782h238q158 0 250 33q80 29 147 115q82 111 82 215q0 98 -69 137q-70 41 -238 41h-301z" />
<glyph unicode="S" horiz-adv-x="1363" vert-adv-y="2463" d="M131 51l41 209q266 -139 559 -139q377 0 377 297q0 82 -74 133q-63 41 -188 86l-189 65q-315 111 -315 330q0 180 129 318q156 168 506 168q233 0 467 -64l-39 -192q-240 98 -475 98q-172 0 -260 -53q-51 -31 -82 -80q-33 -53 -33 -121q0 -61 37 -102q57 -63 203 -113 l190 -68q186 -66 266 -143.5t80 -204.5q0 -219 -178 -366q-176 -145 -465 -146q-254 0 -557 88z" />
<glyph unicode="T" horiz-adv-x="1249" vert-adv-y="2463" d="M285 1323l32 158h1211l-33 -158h-500l-264 -1323h-211l266 1323h-501z" />
<glyph unicode="U" horiz-adv-x="1478" vert-adv-y="2463" d="M254 334q0 89 25 215l186 932h209l-187 -934q-25 -125 -24 -195q0 -231 325 -231q205 0 304 92q100 94 145 326l190 942h183l-187 -938q-41 -203 -100 -301q-61 -104 -178 -176q-164 -102 -404 -103q-487 0 -487 371z" />
<glyph unicode="V" horiz-adv-x="1363" vert-adv-y="2463" d="M332 1481h217l227 -1217l697 1217h178l-846 -1481h-199z" />
<glyph unicode="W" horiz-adv-x="1931" vert-adv-y="2463" d="M322 1481h200l70 -1170l582 1170h200l103 -1159l557 1159h170l-711 -1481h-209l-100 1141l-570 -1141h-208z" />
<glyph unicode="X" horiz-adv-x="1363" vert-adv-y="2463" d="M29 0l692 735l-373 746h248l287 -576l540 576h199l-670 -711l385 -770h-247l-299 598l-566 -598h-196z" />
<glyph unicode="Y" horiz-adv-x="1363" vert-adv-y="2463" d="M326 1481h239l285 -686l588 686h194l-737 -858l-125 -623h-209l123 616z" />
<glyph unicode="Z" horiz-adv-x="1249" vert-adv-y="2463" d="M100 0l35 170l1024 1153h-745l32 158h998l-31 -158l-1026 -1153h795l-33 -170h-1049z" />
<glyph unicode="[" horiz-adv-x="567" vert-adv-y="2463" d="M90 -297l375 1876h395l-31 -147h-221l-315 -1579h221l-29 -150h-395z" />
<glyph unicode="\" horiz-adv-x="567" vert-adv-y="2463" d="M238 1481h153l178 -1778h-153z" />
<glyph unicode="]" horiz-adv-x="567" vert-adv-y="2463" d="M-35 -297l31 150h221l315 1579h-221l31 147h393l-375 -1876h-395z" />
<glyph unicode="^" horiz-adv-x="958" vert-adv-y="2463" d="M154 592l622 889l266 -889h-165l-166 557l-392 -557h-165z" />
<glyph unicode="_" vert-adv-y="2463" d="M-31 -147l31 147h1139l-29 -147h-1141z" />
<glyph unicode="`" horiz-adv-x="681" vert-adv-y="2463" d="M426 1604h229l176 -322h-147z" />
<glyph unicode="a" vert-adv-y="2463" d="M145 213q0 199 182.5 313.5t501.5 114.5h48l26 131q8 35 8 74q0 117 -176 117q-162 0 -370 -97l32 162q227 82 406 82q311 0 311 -213q0 -59 -14 -125l-99 -491q-12 -61 -12 -86q0 -82 82 -82q6 0 39 4l-8 -111q-80 -31 -154 -31q-72 0 -108 39q-31 35 -35 123 q-217 -162 -393 -162q-121 0 -193 64q-74 63 -74 174zM358 268q0 -133 152 -133q123 0 287 111l57 280l-66 2q-14 1 -27 1q-147 0 -261 -60q-142 -72 -142 -201z" />
<glyph unicode="b" vert-adv-y="2463" d="M152 -12l317 1591h199l-140 -696q74 96 148 151q106 76 223 76q285 0 285 -369q0 -309 -180 -540q-176 -225 -472 -226q-86 0 -182 25zM381 150q143 -27 199 -27q166 0 276 172q113 176 113 420q0 223 -146 223q-127 0 -331 -236z" />
<glyph unicode="c" horiz-adv-x="1024" vert-adv-y="2463" d="M188 397q0 307 187 508q188 205 475 205q123 0 289 -37l-33 -164q-154 49 -250 49q-193 0 -317 -153q-127 -158 -127 -389q0 -283 268 -283q117 0 297 70l-35 -170q-186 -57 -352 -58q-186 0 -293 113q-109 112 -109 309z" />
<glyph unicode="d" vert-adv-y="2463" d="M178 344q0 311 180 543q174 223 471 223q90 0 183 -25l98 494h197l-316 -1579h-196l39 203q-70 -96 -148 -154q-104 -74 -223 -74q-285 0 -285 369zM395 369q0 -221 144 -222q127 0 331 236l111 555q-135 25 -197 25q-168 0 -278.5 -172t-110.5 -422z" />
<glyph unicode="e" vert-adv-y="2463" d="M197 418q0 285 180 489q178 203 436 203q354 0 354 -350q0 -98 -32 -248h-725q-8 -59 -9 -98q0 -289 320 -289q150 0 346 65l-33 -155q-207 -59 -385 -60q-217 0 -336 115q-116 115 -116 328zM442 659h523q12 82 12 121q0 182 -199 183q-152 0 -241 -109 q-54 -66 -95 -195z" />
<glyph unicode="f" horiz-adv-x="567" vert-adv-y="2463" d="M174 0l188 938h-143l31 147h141l29 132q80 387 383 387q66 0 143 -25l-33 -158q-70 35 -116 35q-133 0 -176 -219l-31 -152h194l-28 -147h-197l-186 -938h-199z" />
<glyph unicode="g" vert-adv-y="2463" d="M29 -360l32 170q197 -80 347 -80q334 0 403 352l35 172q-77 -101 -148 -154q-106 -76 -227 -75q-283 0 -283 370q0 281 162 492q172 223 475 223q94 0 187 -25h196l-157 -788q-72 -360 -162 -490q-157 -227 -510 -227q-176 1 -350 60zM406 420q0 -223 143 -223 q127 0 332 235l100 506q-138 25 -197 25q-166 0 -272 -154q-106 -149 -106 -389z" />
<glyph unicode="h" vert-adv-y="2463" d="M154 0l315 1579h199l-140 -696q209 227 416 227q221 0 221 -205q0 -61 -12 -125l-156 -780h-198l143 717q16 76 16 123q0 100 -102 100q-162 0 -364 -238l-142 -702h-196z" />
<glyph unicode="i" horiz-adv-x="454" vert-adv-y="2463" d="M129 0l217 1085h199l-219 -1085h-197zM385 1282l41 199h197l-39 -199h-199z" />
<glyph unicode="j" horiz-adv-x="454" vert-adv-y="2463" d="M-231 -387l30 156q70 -39 142 -39q100 0 137 75q27 53 55 195l219 1085h197l-217 -1085q-84 -420 -406 -420q-79 0 -157 33zM391 1282l39 199h199l-41 -199h-197z" />
<glyph unicode="k" horiz-adv-x="1024" vert-adv-y="2463" d="M154 0l315 1579h199l-205 -1020l469 526h188l-448 -512l334 -573h-240l-303 557l-113 -557h-196z" />
<glyph unicode="l" horiz-adv-x="454" vert-adv-y="2463" d="M129 0l315 1579h197l-315 -1579h-197z" />
<glyph unicode="m" horiz-adv-x="1705" vert-adv-y="2463" d="M154 0l217 1085h198l-41 -202q109 127 179 176q72 51 182 51q113 0 172 -59q55 -51 74 -168q117 131 178 176q72 51 182 51q238 0 238 -215q0 -59 -11 -104l-157 -791h-199l152 760q10 51 10 78q0 109 -117 108q-125 0 -307 -219l-146 -727h-198l151 760q10 51 11 78 q0 109 -117 108q-125 0 -307 -219l-148 -727h-196z" />
<glyph unicode="n" vert-adv-y="2463" d="M154 0l217 1085h198l-41 -202q209 227 416 227q221 0 221 -205q0 -61 -12 -125l-156 -780h-198l143 717q16 76 16 123q0 100 -102 100q-162 0 -364 -238l-142 -702h-196z" />
<glyph unicode="o" vert-adv-y="2463" d="M184 383q0 301 176.5 514t434.5 213q184 0 288 -104q102 -106 103 -304q0 -309 -178.5 -518t-446.5 -209q-158 0 -256 86q-121 109 -121 322zM395 373q0 -120 56 -185q55 -66 147 -65q143 0 244 135q133 180 133 455q0 250 -203 250q-162 0 -268 -172 q-109 -174 -109 -418z" />
<glyph unicode="p" vert-adv-y="2463" d="M76 -395l295 1480h198l-41 -202q74 96 148 151q106 76 223 76q285 0 285 -369q0 -309 -180 -540q-176 -225 -472 -226q-86 0 -182 25l-78 -395h-196zM381 150q143 -27 199 -27q166 0 276 172q113 176 113 420q0 223 -146 223q-127 0 -331 -236z" />
<glyph unicode="q" vert-adv-y="2463" d="M178 344q0 311 180 543q174 223 471 223q90 0 183 -25h196l-297 -1480h-196l119 598q-70 -96 -148 -154q-104 -74 -223 -74q-285 0 -285 369zM395 369q0 -221 144 -222q127 0 331 236l111 555q-135 25 -197 25q-168 0 -278.5 -172t-110.5 -422z" />
<glyph unicode="r" horiz-adv-x="681" vert-adv-y="2463" d="M154 0l217 1085h196l-39 -202q141 227 306 227q31 0 55 -4l-37 -184q-43 16 -80 16q-109 0 -278 -221l-144 -717h-196z" />
<glyph unicode="s" horiz-adv-x="1024" vert-adv-y="2463" d="M125 39l35 180q180 -96 346 -96q113 0 180 39q84 47 84 147q0 61 -49 97q-25 18 -82 38l-164 60q-199 70 -199 246q0 164 129.5 262t354.5 98q106 0 280 -33l-32 -164q-141 49 -291 50q-238 0 -238 -160q0 -82 117 -121l145 -49q233 -84 234 -273q0 -168 -141 -274 q-141 -111 -365 -111q-160 1 -344 64z" />
<glyph unicode="t" horiz-adv-x="567" vert-adv-y="2463" d="M199 168q0 59 14 131l127 639h-123l31 147h123l39 197l200 21l-43 -218h209l-28 -147h-209l-121 -602q-18 -89 -19 -129q0 -84 90 -84q43 0 68 10l-29 -139q-66 -18 -116 -19q-213 0 -213 193z" />
<glyph unicode="u" vert-adv-y="2463" d="M190 182q0 57 15 123l155 780h197l-143 -714q-16 -76 -17 -125q0 -100 103 -101q162 0 364 238l142 702h196l-217 -1085h-197l41 203q-209 -227 -417 -228q-222 0 -222 207z" />
<glyph unicode="v" horiz-adv-x="1024" vert-adv-y="2463" d="M236 1085h200l131 -843l488 843h174l-629 -1085h-197z" />
<glyph unicode="w" horiz-adv-x="1478" vert-adv-y="2463" d="M227 1085h195l33 -817l411 817h199l55 -821l391 821h170l-522 -1085h-196l-64 842l-428 -842h-199z" />
<glyph unicode="x" horiz-adv-x="1024" vert-adv-y="2463" d="M29 0l467 573l-240 512h229l191 -405l325 405h183l-443 -546l252 -539h-227l-207 436l-348 -436h-182z" />
<glyph unicode="y" horiz-adv-x="1024" vert-adv-y="2463" d="M154 -395l249 395l-167 1085h198l129 -831l492 831h174l-871 -1480h-204z" />
<glyph unicode="z" horiz-adv-x="1024" vert-adv-y="2463" d="M74 0l30 147l779 791h-590l29 147h833l-31 -147l-778 -791h635l-31 -147h-876z" />
<glyph unicode="{" horiz-adv-x="681" vert-adv-y="2463" d="M137 567l31 150h61q194 0 197 301l-2 86q2 475 459 475l-29 -147h-53q-184 0 -189 -220l-4 -102q-6 -143 -37 -223q-59 -152 -190 -246q94 -102 94 -219q0 -106 -53 -250l-37 -100q-35 -94 -35 -121q0 -98 135 -98h54l-31 -150q-139 2 -217 45q-109 61 -109 207 q0 90 58 223l36 88q49 115 50 191q0 111 -125 110h-64z" />
<glyph unicode="|" horiz-adv-x="530" vert-adv-y="2463" d="M133 -297l375 1876h147l-374 -1876h-148z" />
<glyph unicode="}" horiz-adv-x="681" vert-adv-y="2463" d="M57 -297l29 150h53q186 0 191 219l2 100q6 143 37 223q59 150 192 246q-94 100 -94 221q0 109 51 248l39 102q35 94 35 121q0 98 -135 99h-54l29 147q147 -4 219 -45q109 -61 109 -207q0 -80 -60 -223l-34 -86q-51 -125 -52 -193q0 -109 127 -108h62l-31 -150h-61 q-197 0 -197 -301l2 -88q0 -475 -459 -475z" />
<glyph unicode="~" horiz-adv-x="1193" vert-adv-y="2463" d="M193 444q23 100 57 162q92 166 274 166q96 0 185 -70l98 -75l55 -47q23 -20 72 -21q113 0 158 180h147q-25 -106 -55 -161q-92 -166 -275 -166q-98 0 -186 69l-96 76l-58 47q-23 20 -69 21q-113 0 -158 -181h-149z" />
<glyph vert-adv-y="2463" d="M106 537l76 122h113q15 92 43 197h-168l78 125h131q63 147 121 227q217 307 585 308q119 0 287 -46l-35 -182q-156 72 -278 72q-184 0 -320 -137q-84 -84 -159 -242h567l-76 -125h-536q-28 -101 -43 -197h458l-76 -122h-391q2 -127 29 -205q66 -205 287 -205 q125 0 321 72l-35 -172q-205 -63 -346 -64q-281 0 -387 189q-76 131 -69 319l2 66h-179z" />
<glyph unicode="&#xa0;" horiz-adv-x="567" vert-adv-y="2463" />
<glyph unicode="&#xa1;" horiz-adv-x="681" vert-adv-y="2463" d="M164 -395l57 297l185 788h147l-133 -788l-60 -297h-196zM420 889l39 196h198l-41 -196h-196z" />
<glyph unicode="&#xa2;" vert-adv-y="2463" d="M309 608q0 311 215 514q143 137 371 172l37 187h96l-37 -187q139 -6 277 -45l-33 -166q-162 59 -270 70l-168 -840q137 0 297 68l-31 -150q-162 -59 -295 -59l-35 -172h-98l35 172q-156 18 -244 111q-117 119 -117 325zM522 592q0 -131 66 -201q41 -41 110 -67l164 821 q-129 -18 -219 -146q-121 -174 -121 -407z" />
<glyph unicode="&#xa3;" vert-adv-y="2463" d="M121 0l35 172q223 68 272 317l45 228h-178l31 147h178l43 215q88 438 479 439q104 0 223 -31l-35 -166q-115 47 -225 47q-188 0 -233 -229l-56 -275h218l-31 -147h-215l-27 -127q-37 -184 -100 -268q-59 -82 -156 -150h612l-34 -172h-846z" />
<glyph unicode="&#xa4;" vert-adv-y="2463" d="M199 381l186 156q-31 71 -31 135q0 131 113 272l-125 156l104 88l125 -156q109 63 217.5 63.5t190.5 -63.5l188 156l70 -88l-188 -156q31 -71 30 -135q0 -133 -110 -272l123 -156l-105 -88l-125 156q-109 -63 -217 -64q-106 0 -190 64l-189 -156zM479 692q0 -82 56 -133 q51 -51 135 -51q100 0 180 67q104 88 104 213q0 80 -55 132q-53 53 -137 53q-111 0 -197 -86t-86 -195z" />
<glyph unicode="&#xa5;" vert-adv-y="2463" d="M225 344l25 125h295l30 147h-296l24 123h297l-281 742h230l211 -559h2l432 559h178l-575 -742h297l-25 -123h-297l-29 -147h295l-24 -125h-295l-70 -344h-196l67 344h-295z" />
<glyph unicode="&#xa6;" horiz-adv-x="530" vert-adv-y="2463" d="M133 -297l148 741h147l-147 -741h-148zM360 840l148 739h147l-147 -739h-148z" />
<glyph unicode="&#xa7;" vert-adv-y="2463" d="M78 -260l35 180q231 -104 391 -104q139 0 233 57t94 152q0 61 -49 98q-29 23 -143 78l-160 75q-229 106 -229 281q0 170 213 354q-98 76 -98 189q0 172 159.5 295t388.5 123q139 0 334 -48l-30 -159q-190 57 -334 57q-145 0 -237.5 -59.5t-92.5 -153.5q0 -86 141 -149 l125 -56q168 -74 233.5 -139.5t65.5 -161.5q0 -168 -217 -373q117 -82 117 -213q0 -172 -162 -284q-158 -113 -399 -113q-152 0 -379 74zM434 631q0 -115 189 -201l192 -88q119 129 119 227q0 100 -182 185l-203 92q-115 -119 -115 -215z" />
<glyph unicode="&#xa8;" horiz-adv-x="681" vert-adv-y="2463" d="M313 1282l35 174h172l-35 -174h-172zM709 1282l34 174h172l-34 -174h-172z" />
<glyph unicode="&#xa9;" horiz-adv-x="1507" vert-adv-y="2463" d="M158 598q0 342 276.5 612.5t628.5 270.5q258 0 432 -170q170 -168 170 -426q0 -344 -276.5 -614.5t-632.5 -270.5q-236 0 -394 137q-204 174 -204 461zM266 624.5q0 -227.5 142 -372.5q139 -145 372 -146q324 0 555 250q221 240 221 498q0 233 -143 376.5t-377 143.5 q-360 0 -602 -309q-168 -213 -168 -440.5zM518 643q0 213 148 365q147 150 358 149q94 0 211 -24l25 -5l-23 -118q-123 53 -217 53q-150 0 -254 -119q-104 -120 -104 -289q0 -231 237 -231q111 0 231 57l-24 -116q-152 -47 -258 -48q-152 0 -240 89q-90 90 -90 237z" />
<glyph unicode="&#xaa;" horiz-adv-x="757" vert-adv-y="2463" d="M287 969q0 121 106.5 194.5t284.5 73.5h49l14 70q4 29 4 41q0 70 -102 69q-94 0 -223 -59l22 110q135 49 248 50q207 0 207 -142q0 -33 -6 -65l-62 -297q-6 -31 -6 -47q0 -23 12.5 -35t32.5 -10h4q2 0 10.5 1t12.5 1l-12 -82q-66 -20 -101 -21q-96 0 -106 94h-4 q-123 -94 -226 -94q-159 1 -159 148zM440 1008q0 -76 80 -76q70 0 160 63l29 156h-37q-100 0 -166 -41t-66 -102z" />
<glyph unicode="&#xab;" vert-adv-y="2463" d="M223 543l484 444l84 -74l-371 -370l221 -371l-113 -74zM616 543l486 444l84 -74l-371 -370l221 -371l-112 -74z" />
<glyph unicode="&#xac;" horiz-adv-x="1193" vert-adv-y="2463" d="M233 739l31 150h987l-118 -592h-150l90 442h-840z" />
<glyph unicode="&#xad;" horiz-adv-x="681" vert-adv-y="2463" d="M193 518l28 148h506l-29 -148h-505z" />
<glyph unicode="&#xae;" horiz-adv-x="1507" vert-adv-y="2463" d="M158 598q0 342 276.5 612.5t628.5 270.5q258 0 432 -170q170 -168 170 -426q0 -344 -276.5 -614.5t-632.5 -270.5q-236 0 -394 137q-204 174 -204 461zM266 624.5q0 -227.5 142 -372.5q139 -145 372 -146q324 0 555 250q221 240 221 498q0 233 -143 376.5t-377 143.5 q-360 0 -602 -309q-168 -213 -168 -440.5zM588 338l160 799h251q207 0 207 -152q0 -163 -190 -276l166 -371h-150l-149 334h-101l-65 -334h-129zM795 770h34q248 0 248 186q0 98 -155 99h-72z" />
<glyph unicode="&#xaf;" vert-adv-y="2463" d="M389 1456l31 148h942l-31 -148h-942z" />
<glyph unicode="&#xb0;" horiz-adv-x="817" vert-adv-y="2463" d="M358 1163q0 138 111 246q113 109 252 109q104 0 172 -68q70 -70 70 -172q0 -137 -113 -246q-109 -106 -252 -106q-95 0 -160 55q-80 71 -80 182zM483 1186q0 -137 140 -137q76 0 135 51q78 66 78 157q0 137 -138 138q-86 0 -149 -64q-66 -65 -66 -145z" />
<glyph unicode="&#xb1;" horiz-adv-x="1193" vert-adv-y="2463" d="M104 0l29 147h987l-28 -147h-988zM238 666l28 147h420l74 371h149l-75 -371h419l-28 -147h-420l-74 -369h-147l73 369h-419z" />
<glyph unicode="&#xb2;" horiz-adv-x="681" vert-adv-y="2463" d="M193 592l24 123q90 117 225 219l82 61q211 160 211 295q0 111 -133 111q-90 0 -240 -70l23 119q139 53 264 53q246 0 246 -192q0 -164 -248 -344l-59 -43q-156 -113 -199 -209h389l-24 -123h-561z" />
<glyph unicode="&#xb3;" horiz-adv-x="681" vert-adv-y="2463" d="M195 598l22 123q121 -51 201 -51q92 0 155.5 57t63.5 141q0 147 -227 148h-52l21 92h43q133 0 205 51q76 53 75 141q0 102 -133 103q-94 0 -213 -49l23 110q127 39 233 39q244 0 244 -172q0 -176 -240 -260q104 -29 146 -84q33 -45 33 -108q0 -131 -109 -222 q-106 -88 -276 -88q-94 0 -215 29z" />
<glyph unicode="&#xb4;" horiz-adv-x="681" vert-adv-y="2463" d="M362 1282l306 322h229l-385 -322h-150z" />
<glyph unicode="&#xb5;" vert-adv-y="2463" d="M63 -395l295 1480h197l-141 -714q-18 -86 -19 -125q0 -100 105 -101q160 0 362 238l142 702h196l-217 -1085h-197l41 203q-203 -221 -364 -221q-61 0 -119 43l-84 -420h-197z" />
<glyph unicode="&#xb6;" horiz-adv-x="1099" vert-adv-y="2463" d="M313 1063q0 166 99 287q63 76 147 102q90 29 250 29h393l-354 -1778h-123l330 1655h-150l-330 -1655h-122l206 1036q-102 12 -165 35q-181 74 -181 289z" />
<glyph unicode="&#xb7;" horiz-adv-x="567" vert-adv-y="2463" d="M260 492l49 245h246l-47 -245h-248z" />
<glyph unicode="&#xb8;" horiz-adv-x="681" vert-adv-y="2463" d="M86 -412l16 82q45 -14 103 -14q119 0 119 84q0 82 -170 86l131 174h96l-82 -109q166 -12 166 -135q0 -70 -74 -131q-72 -57 -166 -57q-71 0 -139 20z" />
<glyph unicode="&#xb9;" horiz-adv-x="681" vert-adv-y="2463" d="M385 1303l23 112l362 88l-182 -911h-148l152 760z" />
<glyph unicode="&#xba;" horiz-adv-x="747" vert-adv-y="2463" d="M303 1077q0 187 111 314q109 127 270 127q238 0 238 -256q0 -187 -111 -314t-274 -127q-234 0 -234 256zM459 1065q0 -141 102 -141q76 0 131 82q74 108 74 270q0 139 -104 139q-88 0 -145.5 -102.5t-57.5 -247.5z" />
<glyph unicode="&#xbb;" vert-adv-y="2463" d="M170 172l371 371l-224 370l113 74l307 -444l-483 -445zM563 172l371 371l-221 370l112 74l308 -444l-486 -445z" />
<glyph unicode="&#xbc;" horiz-adv-x="1705" vert-adv-y="2463" d="M184 -37l1399 1555h135l-1399 -1555h-135zM377 1303l22 112l365 88l-182 -911h-150l154 760zM967 242l22 112l510 535h139l-104 -531h123l-23 -116h-125l-47 -242h-137l49 242h-407zM1120 358h279l71 365z" />
<glyph unicode="&#xbd;" horiz-adv-x="1705" vert-adv-y="2463" d="M133 -37l1401 1555h133l-1397 -1555h-137zM377 1303l22 112l365 88l-182 -911h-150l152 760zM1020 0l24 123q94 121 226 219l84 61q209 157 209 295q0 111 -133 111q-88 0 -240 -70l24 117q147 53 263 53q246 0 245 -190q0 -169 -245 -344l-62 -43q-156 -109 -198 -209 h389l-25 -123h-561z" />
<glyph unicode="&#xbe;" horiz-adv-x="1705" vert-adv-y="2463" d="M231 598l25 123q121 -51 199 -51q92 0 155.5 57t63.5 141q0 147 -228 148h-51l21 92h43q133 0 205 51q76 53 75 141q0 102 -133 103q-94 0 -213 -49l23 110q129 39 233 39q246 0 246 -172q0 -176 -242 -260q104 -29 146 -84q33 -45 32 -108q0 -131 -108 -222 q-106 -88 -274 -88q-97 0 -218 29zM276 -37l1399 1555h135l-1398 -1555h-136zM979 242l22 112l510 535h140l-107 -531h125l-24 -116h-123l-49 -242h-136l49 242h-407zM1133 358h276l74 365z" />
<glyph unicode="&#xbf;" horiz-adv-x="1249" vert-adv-y="2463" d="M166 -156q0 229 258 371l90 49q109 61 160 127q49 63 74 189l20 110h199l-11 -53q-49 -246 -237 -373l-105 -69q-236 -160 -235 -324q0 -156 239 -156q162 0 406 76l-33 -168q-230 -55 -418 -55q-407 0 -407 276zM809 889l39 196h196l-38 -196h-197z" />
<glyph unicode="&#xc0;" horiz-adv-x="1363" vert-adv-y="2463" d="M18 0l859 1481h208l256 -1481h-225l-72 410h-593l-238 -410h-195zM541 565h477l-111 635zM750 1925h229l174 -321h-147z" />
<glyph unicode="&#xc1;" horiz-adv-x="1363" vert-adv-y="2463" d="M18 0l859 1481h208l256 -1481h-225l-72 410h-593l-238 -410h-195zM541 565h477l-111 635zM858 1604l303 321h230l-385 -321h-148z" />
<glyph unicode="&#xc2;" horiz-adv-x="1363" vert-adv-y="2463" d="M18 0l859 1481h208l256 -1481h-225l-72 410h-593l-238 -410h-195zM541 565h477l-111 635zM655 1604l306 321h219l176 -321h-150l-159 200h-3l-239 -200h-150z" />
<glyph unicode="&#xc3;" horiz-adv-x="1363" vert-adv-y="2463" d="M18 0l859 1481h208l256 -1481h-225l-72 410h-593l-238 -410h-195zM541 565h477l-111 635zM674 1604q25 92 59 143q63 90 172 90q72 0 127 -37l53 -37q51 -35 80 -34q66 0 97 108h124q-23 -84 -61 -141q-63 -92 -174 -92q-70 0 -125 38l-51 37q-51 35 -82 35 q-61 0 -96 -110h-123z" />
<glyph unicode="&#xc4;" horiz-adv-x="1363" vert-adv-y="2463" d="M18 0l859 1481h208l256 -1481h-225l-72 410h-593l-238 -410h-195zM541 565h477l-111 635zM723 1604l33 174h174l-35 -174h-172zM1116 1604l35 174h172l-33 -174h-174z" />
<glyph unicode="&#xc5;" horiz-adv-x="1363" vert-adv-y="2463" d="M18 0l859 1481h208l256 -1481h-225l-72 410h-593l-238 -410h-195zM541 565h477l-111 635zM795 1663q0 104 84 188q88 84 194 84q80 0 133 -53q51 -51 51 -131q0 -104 -83 -186q-88 -84 -193 -84q-76 0 -125 43q-61 53 -61 139zM883 1679q0 -113 112 -112q61 0 111 43 q63 55 63 129q0 109 -112 108q-70 0 -121 -51q-53 -54 -53 -117z" />
<glyph unicode="&#xc6;" horiz-adv-x="2048" vert-adv-y="2463" d="M18 0l1237 1481h988l-31 -158h-723l-94 -475h622l-30 -156h-623l-109 -534h766l-30 -158h-975l82 414h-516l-346 -414h-218zM711 569h417l134 658z" />
<glyph unicode="&#xc7;" horiz-adv-x="1478" vert-adv-y="2463" d="M256 535q0 401 246 690q250 293 690 293q197 0 463 -66l-39 -197q-289 104 -469 105q-311 0 -490 -244q-176 -244 -176 -551q0 -438 441 -438q219 0 495 129l-37 -180q-250 -113 -522 -113q-602 1 -602 572zM582 -412l16 82q41 -14 100 -14q121 0 121 86q0 80 -170 84 l131 174h97l-82 -109q166 -12 166 -135q0 -72 -72 -131q-70 -57 -166 -57q-71 0 -141 20z" />
<glyph unicode="&#xc8;" horiz-adv-x="1363" vert-adv-y="2463" d="M190 0l297 1481h1074l-31 -158h-864l-97 -475h766l-32 -156h-764l-107 -534h907l-30 -158h-1119zM811 1925h227l176 -321h-147z" />
<glyph unicode="&#xc9;" horiz-adv-x="1363" vert-adv-y="2463" d="M190 0l297 1481h1074l-31 -158h-864l-97 -475h766l-32 -156h-764l-107 -534h907l-30 -158h-1119zM920 1604l305 321h227l-385 -321h-147z" />
<glyph unicode="&#xca;" horiz-adv-x="1363" vert-adv-y="2463" d="M190 0l297 1481h1074l-31 -158h-864l-97 -475h766l-32 -156h-764l-107 -534h907l-30 -158h-1119zM719 1604l305 321h219l176 -321h-147l-162 200h-2l-242 -200h-147z" />
<glyph unicode="&#xcb;" horiz-adv-x="1363" vert-adv-y="2463" d="M190 0l297 1481h1074l-31 -158h-864l-97 -475h766l-32 -156h-764l-107 -534h907l-30 -158h-1119zM770 1604l35 174h174l-35 -174h-174zM1165 1604l35 174h172l-35 -174h-172z" />
<glyph unicode="&#xcc;" horiz-adv-x="567" vert-adv-y="2463" d="M180 0l295 1481h211l-297 -1481h-209zM348 1925h230l176 -321h-148z" />
<glyph unicode="&#xcd;" horiz-adv-x="567" vert-adv-y="2463" d="M180 0l295 1481h211l-297 -1481h-209zM457 1604l305 321h229l-385 -321h-149z" />
<glyph unicode="&#xce;" horiz-adv-x="567" vert-adv-y="2463" d="M180 0l295 1481h211l-297 -1481h-209zM256 1604l305 321h217l178 -321h-149l-160 200h-2l-242 -200h-147z" />
<glyph unicode="&#xcf;" horiz-adv-x="567" vert-adv-y="2463" d="M180 0l295 1481h211l-297 -1481h-209zM322 1604l34 174h172l-32 -174h-174zM717 1604l35 174h172l-35 -174h-172z" />
<glyph unicode="&#xd0;" horiz-adv-x="1478" vert-adv-y="2463" d="M141 680l31 156h162l129 645h473q324 0 473 -125q152 -125 152 -398q0 -362 -228 -645q-252 -313 -690 -313h-477l135 680h-160zM408 158h251q190 0 299 53q111 51 205 182q166 233 166 525q0 229 -119 317q-115 88 -413 88h-158l-96 -487h334l-31 -156h-334z" />
<glyph unicode="&#xd1;" horiz-adv-x="1478" vert-adv-y="2463" d="M166 0l295 1481h205l534 -1143l230 1143h180l-297 -1481h-205l-535 1143l-229 -1143h-178zM752 1604q23 88 61 143q63 90 172 90q76 0 127 -37l51 -37q51 -35 82 -34q63 0 96 108h123q-23 -92 -59 -143q-66 -90 -172 -90q-70 0 -127 38l-53 37q-51 35 -80 35 q-63 0 -96 -110h-125z" />
<glyph unicode="&#xd2;" horiz-adv-x="1591" vert-adv-y="2463" d="M231 543q0 406 256 690.5t627 284.5q266 0 418 -152q150 -150 149 -428q0 -408 -256 -692q-255 -283 -632 -283q-237 0 -381 123q-181 154 -181 457zM455 545q0 -205 98 -316q96 -109 274 -108q244 0 414 188q219 244 219 629q0 209 -98 315.5t-283 106.5 q-268 0 -446 -238q-178 -236 -178 -577zM872 1925h230l176 -321h-148z" />
<glyph unicode="&#xd3;" horiz-adv-x="1591" vert-adv-y="2463" d="M231 543q0 406 256 690.5t627 284.5q266 0 418 -152q150 -150 149 -428q0 -408 -256 -692q-255 -283 -632 -283q-237 0 -381 123q-181 154 -181 457zM455 545q0 -205 98 -316q96 -109 274 -108q244 0 414 188q219 244 219 629q0 209 -98 315.5t-283 106.5 q-268 0 -446 -238q-178 -236 -178 -577zM981 1604l305 321h230l-386 -321h-149z" />
<glyph unicode="&#xd4;" horiz-adv-x="1591" vert-adv-y="2463" d="M231 543q0 406 256 690.5t627 284.5q266 0 418 -152q150 -150 149 -428q0 -408 -256 -692q-255 -283 -632 -283q-237 0 -381 123q-181 154 -181 457zM455 545q0 -205 98 -316q96 -109 274 -108q244 0 414 188q219 244 219 629q0 209 -98 315.5t-283 106.5 q-268 0 -446 -238q-178 -236 -178 -577zM780 1604l305 321h218l178 -321h-150l-160 200h-2l-241 -200h-148z" />
<glyph unicode="&#xd5;" horiz-adv-x="1591" vert-adv-y="2463" d="M231 543q0 406 256 690.5t627 284.5q266 0 418 -152q150 -150 149 -428q0 -408 -256 -692q-255 -283 -632 -283q-237 0 -381 123q-181 154 -181 457zM455 545q0 -205 98 -316q96 -109 274 -108q244 0 414 188q219 244 219 629q0 209 -98 315.5t-283 106.5 q-268 0 -446 -238q-178 -236 -178 -577zM797 1604q25 92 59 143q63 90 174 90q70 0 125 -37l53 -37q51 -35 80 -34q68 0 98 108h123q-25 -94 -61 -143q-66 -90 -172 -90q-70 0 -125 38l-53 37q-51 35 -80 35q-65 0 -98 -110h-123z" />
<glyph unicode="&#xd6;" horiz-adv-x="1591" vert-adv-y="2463" d="M231 543q0 406 256 690.5t627 284.5q266 0 418 -152q150 -150 149 -428q0 -408 -256 -692q-255 -283 -632 -283q-237 0 -381 123q-181 154 -181 457zM455 545q0 -205 98 -316q96 -109 274 -108q244 0 414 188q219 244 219 629q0 209 -98 315.5t-283 106.5 q-268 0 -446 -238q-178 -236 -178 -577zM846 1604l35 174h172l-33 -174h-174zM1241 1604l35 174h172l-35 -174h-172z" />
<glyph unicode="&#xd7;" horiz-adv-x="1193" vert-adv-y="2463" d="M162 217l450 375l-301 375l127 104l299 -375l451 375l84 -104l-451 -375l301 -375l-127 -104l-299 374l-450 -374z" />
<glyph unicode="&#xd8;" horiz-adv-x="1591" vert-adv-y="2463" d="M96 -37l217 221q-94 152 -94 359q0 410 254 690q256 285 627 285q238 0 399 -134l131 134h174l-225 -228q90 -152 90 -352q0 -406 -256 -690.5t-627 -284.5q-233 0 -391 127l-127 -127h-172zM444 539q0 -104 29 -195l885 895q-111 121 -289 121q-268 0 -446.5 -237.5 t-178.5 -583.5zM537 236q109 -115 280 -115q270 0 449 235q180 240 180 586q0 102 -29 184z" />
<glyph unicode="&#xd9;" horiz-adv-x="1478" vert-adv-y="2463" d="M254 334q0 89 25 215l186 932h209l-187 -934q-25 -125 -24 -195q0 -231 325 -231q205 0 304 92q100 94 145 326l190 942h183l-187 -938q-41 -203 -100 -301q-61 -104 -178 -176q-164 -102 -404 -103q-487 0 -487 371zM817 1925h230l176 -321h-148z" />
<glyph unicode="&#xda;" horiz-adv-x="1478" vert-adv-y="2463" d="M254 334q0 89 25 215l186 932h209l-187 -934q-25 -125 -24 -195q0 -231 325 -231q205 0 304 92q100 94 145 326l190 942h183l-187 -938q-41 -203 -100 -301q-61 -104 -178 -176q-164 -102 -404 -103q-487 0 -487 371zM928 1604l303 321h229l-385 -321h-147z" />
<glyph unicode="&#xdb;" horiz-adv-x="1478" vert-adv-y="2463" d="M254 334q0 89 25 215l186 932h209l-187 -934q-25 -125 -24 -195q0 -231 325 -231q205 0 304 92q100 94 145 326l190 942h183l-187 -938q-41 -203 -100 -301q-61 -104 -178 -176q-164 -102 -404 -103q-487 0 -487 371zM725 1604l305 321h217l178 -321h-147l-162 200h-2 l-242 -200h-147z" />
<glyph unicode="&#xdc;" horiz-adv-x="1478" vert-adv-y="2463" d="M254 334q0 89 25 215l186 932h209l-187 -934q-25 -125 -24 -195q0 -231 325 -231q205 0 304 92q100 94 145 326l190 942h183l-187 -938q-41 -203 -100 -301q-61 -104 -178 -176q-164 -102 -404 -103q-487 0 -487 371zM791 1604l34 174h172l-32 -174h-174zM1186 1604 l35 174h172l-33 -174h-174z" />
<glyph unicode="&#xdd;" horiz-adv-x="1363" vert-adv-y="2463" d="M326 1481h239l285 -686l588 686h194l-737 -858l-125 -623h-209l123 616zM864 1604l303 321h230l-385 -321h-148z" />
<glyph unicode="&#xde;" horiz-adv-x="1363" vert-adv-y="2463" d="M168 0l295 1481h211l-58 -281h371q297 0 399 -57q106 -61 107 -232q0 -270 -207 -436q-205 -168 -538 -168h-312l-61 -307h-207zM469 467h301q227 0 358 106q133 106 134 283q0 133 -111 164q-76 23 -260 22h-307z" />
<glyph unicode="&#xdf;" horiz-adv-x="1249" vert-adv-y="2463" d="M129 0l229 1151q53 258 162 354q111 98 346 99q336 0 336 -215q0 -158 -188 -326q-139 -123 -140 -195q0 -45 84 -118l156 -138q121 -104 121 -241q0 -178 -123 -285q-121 -111 -330 -111q-163 0 -288 56l32 172q172 -80 289 -80q123 0 180 63q45 51 45 127q0 78 -82 152 l-182 164q-92 83 -92 166q0 111 168 288q145 152 145 260q0 113 -170 113q-119 0 -174 -49t-80 -172l-247 -1235h-197z" />
<glyph unicode="&#xe0;" vert-adv-y="2463" d="M145 213q0 199 182.5 313.5t501.5 114.5h48l26 131q8 35 8 74q0 117 -176 117q-162 0 -370 -97l32 162q227 82 406 82q311 0 311 -213q0 -59 -14 -125l-99 -491q-12 -61 -12 -86q0 -82 82 -82q6 0 39 4l-8 -111q-80 -31 -154 -31q-72 0 -108 39q-31 35 -35 123 q-217 -162 -393 -162q-121 0 -193 64q-74 63 -74 174zM358 268q0 -133 152 -133q123 0 287 111l57 280l-66 2q-14 1 -27 1q-147 0 -261 -60q-142 -72 -142 -201zM580 1604h229l176 -322h-147z" />
<glyph unicode="&#xe1;" vert-adv-y="2463" d="M145 213q0 199 182.5 313.5t501.5 114.5h48l26 131q8 35 8 74q0 117 -176 117q-162 0 -370 -97l32 162q227 82 406 82q311 0 311 -213q0 -59 -14 -125l-99 -491q-12 -61 -12 -86q0 -82 82 -82q6 0 39 4l-8 -111q-80 -31 -154 -31q-72 0 -108 39q-31 35 -35 123 q-217 -162 -393 -162q-121 0 -193 64q-74 63 -74 174zM358 268q0 -133 152 -133q123 0 287 111l57 280l-66 2q-14 1 -27 1q-147 0 -261 -60q-142 -72 -142 -201zM690 1282l306 322h229l-385 -322h-150z" />
<glyph unicode="&#xe2;" vert-adv-y="2463" d="M145 213q0 199 182.5 313.5t501.5 114.5h48l26 131q8 35 8 74q0 117 -176 117q-162 0 -370 -97l32 162q227 82 406 82q311 0 311 -213q0 -59 -14 -125l-99 -491q-12 -61 -12 -86q0 -82 82 -82q6 0 39 4l-8 -111q-80 -31 -154 -31q-72 0 -108 39q-31 35 -35 123 q-217 -162 -393 -162q-121 0 -193 64q-74 63 -74 174zM358 268q0 -133 152 -133q123 0 287 111l57 280l-66 2q-14 1 -27 1q-147 0 -261 -60q-142 -72 -142 -201zM488 1282l305 322h217l176 -322h-147l-160 203h-2l-242 -203h-147z" />
<glyph unicode="&#xe3;" vert-adv-y="2463" d="M145 213q0 199 182.5 313.5t501.5 114.5h48l26 131q8 35 8 74q0 117 -176 117q-162 0 -370 -97l32 162q227 82 406 82q311 0 311 -213q0 -59 -14 -125l-99 -491q-12 -61 -12 -86q0 -82 82 -82q6 0 39 4l-8 -111q-80 -31 -154 -31q-72 0 -108 39q-31 35 -35 123 q-217 -162 -393 -162q-121 0 -193 64q-74 63 -74 174zM358 268q0 -133 152 -133q123 0 287 111l57 280l-66 2q-14 1 -27 1q-147 0 -261 -60q-142 -72 -142 -201zM473 1282q23 88 62 143q65 92 172 93q68 0 127 -39l53 -37q51 -35 80 -35q61 0 96 111h125q-23 -88 -61 -144 q-66 -92 -175 -92q-68 0 -125 41l-53 37q-47 33 -80 33q-68 0 -98 -111h-123z" />
<glyph unicode="&#xe4;" vert-adv-y="2463" d="M145 211q0 201 182.5 315.5t501.5 114.5h48l24 131q8 35 8 74q0 117 -174 117q-162 0 -370 -97l32 162q229 82 406 82q311 0 311 -215q0 -53 -14 -123l-99 -491q-12 -61 -12 -86q0 -82 82 -82q6 0 39 4l-8 -111q-80 -31 -154 -31q-72 0 -108 39q-31 35 -35 123 q-217 -162 -393 -162q-123 0 -193 64q-74 64 -74 172zM352 270q0 -135 156 -135q121 0 289 111l57 280l-68 2q-164 6 -290 -57q-144 -72 -144 -201zM535 1282l34 174h174l-34 -174h-174zM930 1282l35 174h172l-33 -174h-174z" />
<glyph unicode="&#xe5;" vert-adv-y="2463" d="M145 211q0 201 182.5 315.5t501.5 114.5h48l24 131q8 35 8 74q0 117 -174 117q-162 0 -370 -97l32 162q229 82 406 82q311 0 311 -215q0 -53 -14 -123l-99 -491q-12 -61 -12 -86q0 -82 82 -82q6 0 39 4l-8 -111q-80 -31 -154 -31q-72 0 -108 39q-31 35 -35 123 q-217 -162 -393 -162q-123 0 -193 64q-74 64 -74 172zM352 270q0 -135 156 -135q121 0 289 111l57 280l-68 2q-164 6 -290 -57q-144 -72 -144 -201zM651 1464q0 108 86 191q84 82 193 82q82 0 133 -51.5t51 -131.5q0 -106 -84 -188q-84 -84 -192 -84q-74 0 -123 43 q-64 51 -64 139zM739 1481q0 -113 115 -113q59 0 109 43q63 55 63 129q0 111 -113 111q-70 0 -120 -52q-54 -52 -54 -118z" />
<glyph unicode="&#xe6;" horiz-adv-x="1820" vert-adv-y="2463" d="M145 213q0 201 185 315q182 113 522 113h47l27 131q8 35 8 74q0 117 -191 117q-170 0 -378 -97l32 162q227 82 414 82q221 0 305 -127q176 127 371 127q352 0 352 -344q0 -96 -33 -254h-739q-8 -55 -8 -90q0 -141 88 -219t246 -78q147 0 344 65l-31 -155 q-207 -59 -389 -60q-193 0 -303 86q-68 51 -113 144q-137 -121 -231 -172q-109 -57 -244 -58q-131 0 -205 62q-76 65 -76 176zM352 270q0 -135 168 -135q131 0 299 111l55 280l-71 2q-178 6 -307 -57q-144 -72 -144 -201zM1106 659h532q12 68 13 109q0 195 -203 195 q-156 0 -248 -109q-53 -66 -94 -195z" />
<glyph unicode="&#xe7;" horiz-adv-x="1024" vert-adv-y="2463" d="M188 397q0 307 187 508q188 205 475 205q123 0 289 -37l-33 -164q-154 49 -250 49q-193 0 -317 -153q-127 -158 -127 -389q0 -283 268 -283q117 0 297 70l-35 -170q-186 -57 -352 -58q-186 0 -293 113q-109 112 -109 309zM356 -412l16 82q45 -14 103 -14q119 0 119 84 q0 82 -170 86l131 174h96l-82 -109q166 -12 166 -135q0 -70 -74 -131q-72 -57 -166 -57q-71 0 -139 20z" />
<glyph unicode="&#xe8;" vert-adv-y="2463" d="M191 418q0 285 180 489q178 203 436 203q354 0 354 -350q0 -98 -32 -248h-725q-8 -59 -9 -98q0 -289 320 -289q150 0 346 65l-33 -155q-207 -59 -385 -60q-217 0 -336 115q-116 115 -116 328zM436 659h523q12 82 12 121q0 182 -199 183q-152 0 -241 -109 q-54 -66 -95 -195zM578 1604h229l176 -322h-147z" />
<glyph unicode="&#xe9;" vert-adv-y="2463" d="M191 418q0 285 180 489q178 203 436 203q354 0 354 -350q0 -98 -32 -248h-725q-8 -59 -9 -98q0 -289 320 -289q150 0 346 65l-33 -155q-207 -59 -385 -60q-217 0 -336 115q-116 115 -116 328zM436 659h523q12 82 12 121q0 182 -199 183q-152 0 -241 -109 q-54 -66 -95 -195zM686 1282l306 322h229l-385 -322h-150z" />
<glyph unicode="&#xea;" vert-adv-y="2463" d="M191 418q0 285 180 489q178 203 436 203q354 0 354 -350q0 -98 -32 -248h-725q-8 -59 -9 -98q0 -289 320 -289q150 0 346 65l-33 -155q-207 -59 -385 -60q-217 0 -336 115q-116 115 -116 328zM436 659h523q12 82 12 121q0 182 -199 183q-152 0 -241 -109 q-54 -66 -95 -195zM496 1282l305 322h217l176 -322h-147l-160 203h-2l-242 -203h-147z" />
<glyph unicode="&#xeb;" vert-adv-y="2463" d="M190 420q0 287 181 487q178 203 438 203q352 0 352 -350q0 -98 -33 -248h-731q-8 -55 -8 -90q0 -139 86 -217q86 -80 242 -80q147 0 344 65l-33 -155q-209 -59 -385 -60q-221 0 -336 115q-117 115 -117 330zM436 659h525q12 68 12 109q0 195 -199 195q-156 0 -244 -109 q-53 -66 -94 -195zM563 1282l35 174h172l-35 -174h-172zM958 1282l33 174h174l-35 -174h-172z" />
<glyph unicode="&#xec;" horiz-adv-x="454" vert-adv-y="2463" d="M129 0l217 1085h199l-219 -1085h-197zM227 1604h229l176 -322h-147z" />
<glyph unicode="&#xed;" horiz-adv-x="454" vert-adv-y="2463" d="M129 0l217 1085h199l-219 -1085h-197zM335 1282l306 322h229l-385 -322h-150z" />
<glyph unicode="&#xee;" horiz-adv-x="454" vert-adv-y="2463" d="M129 0l217 1085h199l-219 -1085h-197zM133 1282l305 322h217l176 -322h-147l-160 203h-2l-242 -203h-147z" />
<glyph unicode="&#xef;" horiz-adv-x="454" vert-adv-y="2463" d="M129 0l217 1085h199l-219 -1085h-197zM201 1282l35 174h172l-35 -174h-172zM596 1282l35 174h172l-35 -174h-172z" />
<glyph unicode="&#xf0;" vert-adv-y="2463" d="M184 385q0 264 158 471q98 127 201 176q106 53 252 53q59 0 118 -14q-49 143 -170 246l-180 -166l-61 88l155 141q-88 53 -235 54l29 149q203 0 348 -76l186 168l62 -88l-158 -141q133 -119 203 -248q100 -186 100 -430q0 -342 -172 -567.5t-436 -225.5q-190 0 -295 107 q-105 104 -105 303zM393 379q0 -256 205 -256q162 0 268.5 161.5t106.5 397.5q0 256 -209 256q-156 0 -264 -164q-107 -164 -107 -395z" />
<glyph unicode="&#xf1;" vert-adv-y="2463" d="M154 0l217 1085h198l-41 -202q209 227 416 227q221 0 221 -205q0 -61 -12 -125l-156 -780h-198l143 717q16 76 16 123q0 100 -102 100q-162 0 -364 -238l-142 -702h-196zM483 1282q23 88 62 143q65 92 172 93q68 0 127 -39l53 -37q51 -35 80 -35q61 0 96 111h125 q-23 -88 -61 -144q-66 -92 -175 -92q-68 0 -125 41l-53 37q-47 33 -80 33q-68 0 -98 -111h-123z" />
<glyph unicode="&#xf2;" vert-adv-y="2463" d="M184 383q0 301 176.5 514t434.5 213q184 0 288 -104q102 -106 103 -304q0 -309 -178.5 -518t-446.5 -209q-158 0 -256 86q-121 109 -121 322zM395 373q0 -120 56 -185q55 -66 147 -65q143 0 244 135q133 180 133 455q0 250 -203 250q-162 0 -268 -172 q-109 -174 -109 -418zM576 1604h229l176 -322h-147z" />
<glyph unicode="&#xf3;" vert-adv-y="2463" d="M184 383q0 301 176.5 514t434.5 213q184 0 288 -104q102 -106 103 -304q0 -309 -178.5 -518t-446.5 -209q-158 0 -256 86q-121 109 -121 322zM395 373q0 -120 56 -185q55 -66 147 -65q143 0 244 135q133 180 133 455q0 250 -203 250q-162 0 -268 -172 q-109 -174 -109 -418zM684 1282l306 322h229l-385 -322h-150z" />
<glyph unicode="&#xf4;" vert-adv-y="2463" d="M184 383q0 301 176.5 514t434.5 213q184 0 288 -104q102 -106 103 -304q0 -309 -178.5 -518t-446.5 -209q-158 0 -256 86q-121 109 -121 322zM395 373q0 -120 56 -185q55 -66 147 -65q143 0 244 135q133 180 133 455q0 250 -203 250q-162 0 -268 -172 q-109 -174 -109 -418zM484 1282l305 322h217l176 -322h-147l-160 203h-2l-242 -203h-147z" />
<glyph unicode="&#xf5;" vert-adv-y="2463" d="M184 383q0 301 176.5 514t434.5 213q184 0 288 -104q102 -106 103 -304q0 -309 -178.5 -518t-446.5 -209q-158 0 -256 86q-121 109 -121 322zM395 373q0 -120 56 -185q55 -66 147 -65q143 0 244 135q133 180 133 455q0 250 -203 250q-162 0 -268 -172 q-109 -174 -109 -418zM500 1282q23 88 62 143q65 92 172 93q68 0 127 -39l53 -37q51 -35 80 -35q61 0 96 111h125q-23 -88 -61 -144q-66 -92 -175 -92q-68 0 -125 41l-53 37q-47 33 -80 33q-68 0 -98 -111h-123z" />
<glyph unicode="&#xf6;" vert-adv-y="2463" d="M184 383q0 301 176 514q178 213 435 213q184 0 288 -104q102 -106 103 -304q0 -309 -178.5 -518t-446.5 -209q-158 0 -256 86q-121 109 -121 322zM391 377q0 -254 205 -254q143 0 248 135q133 176 133 451q0 254 -205 254q-163 0 -270 -172q-111 -176 -111 -414z M549 1282l35 174h172l-33 -174h-174zM944 1282l35 174h172l-35 -174h-172z" />
<glyph unicode="&#xf7;" horiz-adv-x="1193" vert-adv-y="2463" d="M209 518l29 148h987l-31 -148h-985zM473 0l49 248h248l-49 -248h-248zM662 938l49 246h247l-51 -246h-245z" />
<glyph unicode="&#xf8;" horiz-adv-x="1249" vert-adv-y="2463" d="M137 -25l156 166q-59 109 -60 246q0 301 178.5 512t440.5 211q158 0 258 -84l78 84h143l-153 -168q57 -106 57 -240q0 -297 -176 -514q-174 -213 -434 -213q-164 0 -265 84l-77 -84h-146zM444 356q0 -18 5 -47l530 576l-2 2q-41 41 -70 55q-47 20 -92 21 q-158 0 -264 -175q-107 -170 -107 -432zM492 201v-2q25 -39 65 -58q40 -18 92 -18q162 0 269 172q106 170 106 428v2v16q0 4 -1 15.5t-1 17.5z" />
<glyph unicode="&#xf9;" vert-adv-y="2463" d="M190 182q0 57 15 123l155 780h197l-143 -714q-16 -76 -17 -125q0 -100 103 -101q162 0 364 238l142 702h196l-217 -1085h-197l41 203q-209 -227 -417 -228q-222 0 -222 207zM576 1604h229l176 -322h-147z" />
<glyph unicode="&#xfa;" vert-adv-y="2463" d="M190 182q0 57 15 123l155 780h197l-143 -714q-16 -76 -17 -125q0 -100 103 -101q162 0 364 238l142 702h196l-217 -1085h-197l41 203q-209 -227 -417 -228q-222 0 -222 207zM671 1282l306 322h229l-385 -322h-150z" />
<glyph unicode="&#xfb;" vert-adv-y="2463" d="M190 182q0 57 15 123l155 780h197l-143 -714q-16 -76 -17 -125q0 -100 103 -101q162 0 364 238l142 702h196l-217 -1085h-197l41 203q-209 -227 -417 -228q-222 0 -222 207zM471 1282l305 322h217l176 -322h-147l-160 203h-2l-242 -203h-147z" />
<glyph unicode="&#xfc;" vert-adv-y="2463" d="M190 182q0 57 15 123l155 780h197l-143 -714q-16 -76 -17 -125q0 -100 103 -101q162 0 364 238l142 702h196l-217 -1085h-197l41 203q-209 -227 -417 -228q-222 0 -222 207zM536 1282l35 174h172l-35 -174h-172zM932 1282l34 174h172l-34 -174h-172z" />
<glyph unicode="&#xfd;" horiz-adv-x="1024" vert-adv-y="2463" d="M154 -395l249 395l-167 1085h198l129 -831l492 831h174l-871 -1480h-204zM620 1282l306 322h229l-385 -322h-150z" />
<glyph unicode="&#xfe;" vert-adv-y="2463" d="M76 -395l393 1974h199l-140 -696q74 96 148 151q106 76 223 76q285 0 285 -369q0 -309 -180 -540q-176 -225 -472 -226q-86 0 -182 25l-78 -395h-196zM381 150q143 -27 199 -27q166 0 276 172q113 176 113 420q0 223 -146 223q-127 0 -331 -236z" />
<glyph unicode="&#xff;" horiz-adv-x="1024" vert-adv-y="2463" d="M154 -395l249 395l-167 1085h198l129 -831l492 831h174l-871 -1480h-204zM499 1282l35 174h172l-35 -174h-172zM895 1282l34 174h172l-34 -174h-172z" />
<glyph unicode="&#x100;" horiz-adv-x="1370" vert-adv-y="2463" d="M20 0l859 1481h208l256 -1481h-225l-71 410h-594l-238 -410h-195zM543 565h477l-111 635zM686 1604l31 147h641l-29 -147h-643z" />
<glyph unicode="&#x101;" horiz-adv-x="1150" vert-adv-y="2463" d="M155 213q0 199 182.5 313.5t501.5 114.5h48l26 131q8 35 8 74q0 117 -176 117q-162 0 -370 -97l32 162q227 82 406 82q311 0 311 -213q0 -59 -14 -125l-99 -491q-12 -61 -12 -86q0 -82 82 -82q6 0 39 4l-8 -111q-80 -31 -154 -31q-72 0 -108 39q-31 35 -35 123 q-217 -162 -393 -162q-121 0 -193 64q-74 63 -74 174zM368 268q0 -133 152 -133q123 0 287 111l57 280l-66 2q-14 1 -27 1q-147 0 -261 -60q-142 -72 -142 -201zM495 1282l29 150h643l-30 -150h-642z" />
<glyph unicode="&#x102;" horiz-adv-x="1370" vert-adv-y="2463" d="M20 0l859 1481h208l256 -1481h-225l-71 410h-594l-238 -410h-195zM543 565h477l-111 635zM735 1870q0 10 4 55h123q4 -94 47 -133q45 -41 127 -41q172 0 246 174h123q-43 -137 -131 -215q-115 -106 -264 -106q-119 0 -199 75q-76 74 -76 191z" />
<glyph unicode="&#x103;" horiz-adv-x="1150" vert-adv-y="2463" d="M155 213q0 199 182.5 313.5t501.5 114.5h48l26 131q8 35 8 74q0 117 -176 117q-162 0 -370 -97l32 162q227 82 406 82q311 0 311 -213q0 -59 -14 -125l-99 -491q-12 -61 -12 -86q0 -82 82 -82q6 0 39 4l-8 -111q-80 -31 -154 -31q-72 0 -108 39q-31 35 -35 123 q-217 -162 -393 -162q-121 0 -193 64q-74 63 -74 174zM368 268q0 -133 152 -133q123 0 287 111l57 280l-66 2q-14 1 -27 1q-147 0 -261 -60q-142 -72 -142 -201zM576 1550q0 4 4 54h123q4 -94 47 -134q41 -39 127 -38q172 0 245 172h123q-43 -133 -133 -215 q-113 -106 -264 -107q-115 0 -195 76q-77 73 -77 192z" />
<glyph unicode="&#x104;" horiz-adv-x="1363" vert-adv-y="2463" d="M18 0l859 1481h208l256 -1481h-225l-72 410h-593l-238 -410h-195zM541 565h477l-111 635zM913 -242q0 137 203 242h107q-166 -92 -166 -203q0 -72 98 -71q55 0 92 14l-14 -82q-70 -29 -146 -29q-174 0 -174 129z" />
<glyph unicode="&#x105;" vert-adv-y="2463" d="M145 213q0 199 182.5 313.5t501.5 114.5h48l26 131q8 35 8 74q0 117 -176 117q-162 0 -370 -97l32 162q227 82 406 82q311 0 311 -213q0 -59 -14 -125l-99 -491q-12 -61 -12 -86q0 -82 82 -82q6 0 39 4l-8 -111q-80 -31 -154 -31q-72 0 -108 39q-31 35 -35 123 q-217 -162 -393 -162q-121 0 -193 64q-74 63 -74 174zM358 268q0 -133 152 -133q123 0 287 111l57 280l-66 2q-14 1 -27 1q-147 0 -261 -60q-142 -72 -142 -201zM664 -242q0 135 205 242h106q-168 -94 -168 -203q0 -72 99 -71q57 0 94 14l-17 -82q-70 -29 -143 -29 q-176 0 -176 129z" />
<glyph unicode="&#x106;" horiz-adv-x="1478" vert-adv-y="2463" d="M256 535q0 401 246 690q250 293 690 293q197 0 463 -66l-39 -197q-289 104 -469 105q-285 0 -455 -201q-207 -244 -207 -594q0 -438 437 -438q219 0 495 129l-37 -180q-250 -113 -522 -113q-602 1 -602 572zM1040 1604l303 321h230l-385 -321h-148z" />
<glyph unicode="&#x107;" horiz-adv-x="1024" vert-adv-y="2463" d="M188 397q0 307 187 508q188 205 475 205q123 0 289 -37l-33 -164q-154 49 -250 49q-193 0 -317 -153q-127 -158 -127 -389q0 -283 268 -283q117 0 297 70l-35 -170q-186 -57 -352 -58q-186 0 -293 113q-109 112 -109 309zM724 1282l306 322h229l-385 -322h-150z" />
<glyph unicode="&#x108;" horiz-adv-x="1478" vert-adv-y="2463" d="M256 535q0 401 246 690q250 293 690 293q197 0 463 -66l-39 -197q-289 104 -469 105q-285 0 -455 -201q-207 -244 -207 -594q0 -438 437 -438q219 0 495 129l-37 -180q-250 -113 -522 -113q-602 1 -602 572zM838 1604l305 321h219l174 -321h-147l-160 200h-2l-242 -200 h-147z" />
<glyph unicode="&#x109;" horiz-adv-x="1024" vert-adv-y="2463" d="M188 397q0 307 187 508q188 205 475 205q123 0 289 -37l-33 -164q-154 49 -250 49q-193 0 -317 -153q-127 -158 -127 -389q0 -283 268 -283q117 0 297 70l-35 -170q-186 -57 -352 -58q-186 0 -293 113q-109 112 -109 309zM524 1282l303 322h220l176 -322h-148l-160 203 h-2l-241 -203h-148z" />
<glyph unicode="&#x10a;" horiz-adv-x="1478" vert-adv-y="2463" d="M256 535q0 401 246 690q250 293 690 293q197 0 463 -66l-39 -197q-289 104 -469 105q-285 0 -455 -201q-207 -244 -207 -594q0 -438 437 -438q219 0 495 129l-37 -180q-250 -113 -522 -113q-602 1 -602 572zM1090 1604l38 196h197l-39 -196h-196z" />
<glyph unicode="&#x10b;" horiz-adv-x="1024" vert-adv-y="2463" d="M188 397q0 307 187 508q188 205 475 205q123 0 289 -37l-33 -164q-154 49 -250 49q-193 0 -317 -153q-127 -158 -127 -389q0 -283 268 -283q117 0 297 70l-35 -170q-186 -57 -352 -58q-186 0 -293 113q-109 112 -109 309zM774 1282l39 199h199l-39 -199h-199z" />
<glyph unicode="&#x10c;" horiz-adv-x="1478" vert-adv-y="2463" d="M256 535q0 401 246 690q250 293 690 293q197 0 463 -66l-39 -197q-289 104 -469 105q-285 0 -455 -201q-207 -244 -207 -594q0 -438 437 -438q219 0 495 129l-37 -180q-250 -113 -522 -113q-602 1 -602 572zM901 1925h150l159 -203h2l242 203h148l-306 -321h-219z" />
<glyph unicode="&#x10d;" horiz-adv-x="1024" vert-adv-y="2463" d="M188 397q0 307 187 508q188 205 475 205q123 0 289 -37l-33 -164q-154 49 -250 49q-193 0 -317 -153q-127 -158 -127 -389q0 -283 268 -283q117 0 297 70l-35 -170q-186 -57 -352 -58q-186 0 -293 113q-109 112 -109 309zM587 1604h150l160 -201h2l239 201h150l-305 -322 h-220z" />
<glyph unicode="&#x10e;" horiz-adv-x="1478" vert-adv-y="2463" d="M166 0l295 1481h475q322 0 471 -125q154 -127 154 -398q0 -360 -230 -645q-252 -313 -690 -313h-475zM406 158h251q190 0 299 53q111 51 205 182q168 236 168 525q0 229 -119 317q-115 88 -415 88h-156zM717 1925h147l160 -203h2l242 203h147l-305 -321h-217z" />
<glyph unicode="&#x10f;" horiz-adv-x="1257" vert-adv-y="2463" d="M178 344q0 311 180 543q174 223 471 223q90 0 183 -25l98 494h197l-316 -1579h-196l39 203q-70 -96 -148 -154q-104 -74 -223 -74q-285 0 -285 369zM395 369q0 -221 144 -222q127 0 331 236l111 555q-135 25 -197 25q-168 0 -278.5 -172t-110.5 -422zM1292 1124l13 60 q82 20 112 182l4 16h-75l38 197h197l-35 -170q-55 -265 -254 -285z" />
<glyph unicode="&#x110;" horiz-adv-x="1478" vert-adv-y="2463" d="M141 680l31 156h162l129 645h473q324 0 473 -125q152 -125 152 -398q0 -362 -228 -645q-252 -313 -690 -313h-477l135 680h-160zM408 158h251q190 0 299 53q111 51 205 182q166 233 166 525q0 229 -119 317q-115 88 -413 88h-158l-96 -487h334l-31 -156h-334z" />
<glyph unicode="&#x111;" vert-adv-y="2463" d="M178 344q0 311 180 543q174 223 471 223q90 0 183 -25l32 172h-319l25 125h319l41 197h197l-39 -197h147l-24 -125h-148l-252 -1257h-196l39 203q-70 -96 -148 -154q-104 -74 -223 -74q-285 0 -285 369zM395 369q0 -221 144 -222q127 0 331 236l111 555q-135 25 -197 25 q-168 0 -278.5 -172t-110.5 -422z" />
<glyph unicode="&#x112;" horiz-adv-x="1363" vert-adv-y="2463" d="M190 0l297 1481h1074l-31 -158h-864l-97 -475h766l-32 -156h-764l-107 -534h907l-30 -158h-1119zM723 1604l29 147h641l-29 -147h-641z" />
<glyph unicode="&#x113;" vert-adv-y="2463" d="M197 418q0 285 180 489q178 203 436 203q354 0 354 -350q0 -98 -32 -248h-725q-8 -59 -9 -98q0 -289 320 -289q150 0 346 65l-33 -155q-207 -59 -385 -60q-217 0 -336 115q-116 115 -116 328zM442 659h523q12 82 12 121q0 182 -199 183q-152 0 -241 -109 q-54 -66 -95 -195zM518 1282l29 150h643l-30 -150h-642z" />
<glyph unicode="&#x114;" horiz-adv-x="1363" vert-adv-y="2463" d="M190 0l297 1481h1074l-31 -158h-864l-97 -475h766l-32 -156h-764l-107 -534h907l-30 -158h-1119zM786 1870q0 31 2 55h123q4 -94 50 -133q45 -41 126 -41q170 0 244 174h123q-45 -139 -131 -217q-114 -104 -264 -104q-117 0 -197 75q-76 74 -76 191z" />
<glyph unicode="&#x115;" vert-adv-y="2463" d="M197 418q0 285 180 489q178 203 436 203q354 0 354 -350q0 -98 -32 -248h-725q-8 -59 -9 -98q0 -289 320 -289q150 0 346 65l-33 -155q-207 -59 -385 -60q-217 0 -336 115q-116 115 -116 328zM442 659h523q12 82 12 121q0 182 -199 183q-152 0 -241 -109 q-54 -66 -95 -195zM567 1548v17q0 2 4 39h123q4 -94 47 -134q41 -39 127 -38q172 0 246 172h123q-43 -137 -131 -215q-117 -106 -266 -107q-117 0 -197 76q-76 73 -76 190z" />
<glyph unicode="&#x116;" horiz-adv-x="1363" vert-adv-y="2463" d="M190 0l297 1481h1074l-31 -158h-864l-97 -475h766l-32 -156h-764l-107 -534h907l-30 -158h-1119zM956 1604l39 196h199l-41 -196h-197z" />
<glyph unicode="&#x117;" vert-adv-y="2463" d="M197 418q0 285 180 489q178 203 436 203q354 0 354 -350q0 -98 -32 -248h-725q-8 -59 -9 -98q0 -289 320 -289q150 0 346 65l-33 -155q-207 -59 -385 -60q-217 0 -336 115q-116 115 -116 328zM442 659h523q12 82 12 121q0 182 -199 183q-152 0 -241 -109 q-54 -66 -95 -195zM742 1282l39 199h196l-39 -199h-196z" />
<glyph unicode="&#x118;" horiz-adv-x="1363" vert-adv-y="2463" d="M190 0l297 1481h1074l-31 -158h-864l-97 -475h766l-32 -156h-764l-107 -534h907l-30 -158h-1119zM870 -242q0 135 205 242h107q-166 -92 -166 -203q0 -72 96 -71q57 0 94 14l-16 -82q-70 -29 -143 -29q-177 0 -177 129z" />
<glyph unicode="&#x119;" vert-adv-y="2463" d="M197 418q0 285 180 489q178 203 436 203q354 0 354 -350q0 -98 -32 -248h-725q-8 -59 -9 -98q0 -289 320 -289q150 0 346 65l-33 -155q-207 -59 -385 -60q-217 0 -336 115q-116 115 -116 328zM442 659h523q12 82 12 121q0 182 -199 183q-152 0 -241 -109 q-54 -66 -95 -195zM494 -242q0 135 205 242h106q-168 -94 -168 -203q0 -72 99 -71q57 0 94 14l-17 -82q-70 -29 -143 -29q-176 0 -176 129z" />
<glyph unicode="&#x11a;" horiz-adv-x="1363" vert-adv-y="2463" d="M190 0l297 1481h1074l-31 -158h-864l-97 -475h766l-32 -156h-764l-107 -534h907l-30 -158h-1119zM768 1925h147l160 -203h2l242 203h147l-305 -321h-217z" />
<glyph unicode="&#x11b;" vert-adv-y="2463" d="M197 418q0 285 180 489q178 203 436 203q354 0 354 -350q0 -98 -32 -248h-725q-8 -59 -9 -98q0 -289 320 -289q150 0 346 65l-33 -155q-207 -59 -385 -60q-217 0 -336 115q-116 115 -116 328zM442 659h523q12 82 12 121q0 182 -199 183q-152 0 -241 -109 q-54 -66 -95 -195zM553 1604h150l160 -201h2l239 201h150l-305 -322h-220z" />
<glyph unicode="&#x11c;" horiz-adv-x="1591" vert-adv-y="2463" d="M231 532q0 387 232 672q255 313 731 314q244 0 512 -68l-39 -195q-301 104 -510 105q-315 0 -493 -205q-205 -236 -205 -600q0 -213 127 -323.5t352 -110.5q114 0 301 37l76 377h-246l31 153h456l-131 -647q-295 -78 -551 -78q-362 0 -518 174q-125 137 -125 395z M852 1604l303 321h219l176 -321h-147l-162 200h-2l-240 -200h-147z" />
<glyph unicode="&#x11d;" vert-adv-y="2463" d="M29 -360l32 170q197 -80 347 -80q334 0 403 352l35 172q-77 -101 -148 -154q-106 -76 -227 -75q-283 0 -283 370q0 281 162 492q172 223 475 223q94 0 187 -25h196l-157 -788q-72 -360 -162 -490q-157 -227 -510 -227q-176 1 -350 60zM406 420q0 -223 143 -223 q127 0 332 235l100 506q-138 25 -197 25q-166 0 -272 -154q-106 -149 -106 -389zM506 1282l305 322h217l178 -322h-147l-162 203h-2l-242 -203h-147z" />
<glyph unicode="&#x11e;" horiz-adv-x="1591" vert-adv-y="2463" d="M231 532q0 387 232 672q255 313 731 314q244 0 512 -68l-39 -195q-301 104 -510 105q-315 0 -493 -205q-205 -236 -205 -600q0 -213 127 -323.5t352 -110.5q114 0 301 37l76 377h-246l31 153h456l-131 -647q-295 -78 -551 -78q-362 0 -518 174q-125 137 -125 395z M928 1870l1 5q1 5 1 9q0 23 2 41h123q4 -94 49 -133q45 -41 127 -41q170 0 244 174h122q-45 -139 -131 -217q-115 -104 -266 -104q-115 0 -194 75q-78 74 -78 191z" />
<glyph unicode="&#x11f;" vert-adv-y="2463" d="M29 -360l32 170q197 -80 347 -80q334 0 403 352l35 172q-77 -101 -148 -154q-106 -76 -227 -75q-283 0 -283 370q0 281 162 492q172 223 475 223q94 0 187 -25h196l-157 -788q-72 -360 -162 -490q-157 -227 -510 -227q-176 1 -350 60zM406 420q0 -223 143 -223 q127 0 332 235l100 506q-138 25 -197 25q-166 0 -272 -154q-106 -149 -106 -389zM584 1550q0 4 4 54h123q4 -94 47 -134q41 -39 127 -38q172 0 245 172h123q-43 -133 -133 -215q-113 -106 -264 -107q-115 0 -195 76q-77 73 -77 192z" />
<glyph unicode="&#x120;" horiz-adv-x="1591" vert-adv-y="2463" d="M231 532q0 387 232 672q255 313 731 314q244 0 512 -68l-39 -195q-301 104 -510 105q-315 0 -493 -205q-205 -236 -205 -600q0 -213 127 -323.5t352 -110.5q114 0 301 37l76 377h-246l31 153h456l-131 -647q-295 -78 -551 -78q-362 0 -518 174q-125 137 -125 395z M1102 1604l39 196h198l-41 -196h-196z" />
<glyph unicode="&#x121;" vert-adv-y="2463" d="M29 -360l32 170q197 -80 347 -80q334 0 403 352l35 172q-77 -101 -148 -154q-106 -76 -227 -75q-283 0 -283 370q0 281 162 492q172 223 475 223q94 0 187 -25h196l-157 -788q-72 -360 -162 -490q-157 -227 -510 -227q-176 1 -350 60zM406 420q0 -223 143 -223 q127 0 332 235l100 506q-138 25 -197 25q-166 0 -272 -154q-106 -149 -106 -389zM745 1282l39 199h197l-39 -199h-197z" />
<glyph unicode="&#x122;" horiz-adv-x="1591" vert-adv-y="2463" d="M231 532q0 387 232 672q255 313 731 314q244 0 512 -68l-39 -195q-301 104 -510 105q-315 0 -493 -205q-205 -236 -205 -600q0 -213 127 -323.5t352 -110.5q114 0 301 37l76 377h-246l31 153h456l-131 -647q-299 -78 -551 -78q-362 0 -518 174q-125 137 -125 395z M629 -422l16 86q49 -8 96 -8q123 0 123 78q0 63 -139 78l14 77q127 -4 185 -28q78 -37 77.5 -115t-69.5 -127q-70 -51 -182 -51q-68 0 -121 10z" />
<glyph unicode="&#x123;" vert-adv-y="2463" d="M29 -360l32 170q197 -80 347 -80q334 0 403 352l35 172q-77 -101 -148 -154q-106 -76 -227 -75q-283 0 -283 370q0 281 162 492q172 223 475 223q94 0 187 -25h196l-157 -788q-72 -360 -162 -490q-157 -227 -510 -227q-176 1 -350 60zM406 420q0 -223 143 -223 q127 0 332 235l100 506q-138 25 -197 25q-166 0 -272 -154q-106 -149 -106 -389zM745 1282l33 172q55 262 254 283l-10 -60q-84 -23 -115 -180l-2 -16h76l-39 -199h-197z" />
<glyph unicode="&#x124;" horiz-adv-x="1478" vert-adv-y="2463" d="M166 0l295 1481h211l-125 -625h729l125 625h209l-297 -1481h-209l139 698h-729l-139 -698h-209zM711 1604l305 321h217l176 -321h-147l-160 200h-2l-242 -200h-147z" />
<glyph unicode="&#x125;" vert-adv-y="2463" d="M154 0l315 1579h199l-140 -696q209 227 416 227q221 0 221 -205q0 -61 -12 -125l-156 -780h-198l143 717q16 76 16 123q0 100 -102 100q-162 0 -364 -238l-142 -702h-196zM563 1677l305 322h219l177 -322h-150l-160 201h-2l-239 -201h-150z" />
<glyph unicode="&#x126;" horiz-adv-x="1478" vert-adv-y="2463" d="M166 0l221 1110h-147l24 125h148l49 246h211l-51 -246h729l51 246h209l-49 -246h147l-25 -125h-147l-223 -1110h-209l139 698h-729l-139 -698h-209zM547 856h729l49 254h-727z" />
<glyph unicode="&#x127;" vert-adv-y="2463" d="M154 0l252 1257h-148l25 125h147l39 197h199l-39 -197h295l-25 -125h-297l-74 -374q209 227 416 227q221 0 221 -205q0 -61 -12 -125l-156 -780h-198l143 717q16 76 16 123q0 100 -102 100q-162 0 -364 -238l-142 -702h-196z" />
<glyph unicode="&#x128;" horiz-adv-x="567" vert-adv-y="2463" d="M180 0l295 1481h211l-297 -1481h-209zM272 1604q23 88 62 143q63 90 172 90q76 0 127 -37l51 -37q51 -35 82 -34q66 0 96 108h123q-25 -94 -61 -143q-66 -90 -172 -90q-70 0 -125 38l-54 37q-51 35 -79 35q-65 0 -99 -110h-123z" />
<glyph unicode="&#x129;" horiz-adv-x="454" vert-adv-y="2463" d="M129 0l217 1085h199l-219 -1085h-197zM152 1282q23 88 61 143q65 92 172 93q72 0 127 -39l51 -37q51 -35 80 -35q65 0 98 111h123q-23 -90 -61 -146q-66 -90 -172 -90q-68 0 -125 41l-53 37q-47 33 -80 33q-68 0 -99 -111h-122z" />
<glyph unicode="&#x12a;" horiz-adv-x="567" vert-adv-y="2463" d="M180 0l295 1481h211l-297 -1481h-209zM285 1604l28 147h643l-30 -147h-641z" />
<glyph unicode="&#x12b;" horiz-adv-x="454" vert-adv-y="2463" d="M129 0l217 1085h199l-219 -1085h-197zM161 1282l29 150h643l-30 -150h-642z" />
<glyph unicode="&#x12c;" horiz-adv-x="567" vert-adv-y="2463" d="M180 0l295 1481h211l-297 -1481h-209zM334 1868q0 12 4 57h123q4 -94 47 -133q45 -41 127 -41q172 0 246 174h123q-43 -133 -134 -215q-113 -106 -264 -106q-117 0 -196 75q-76 74 -76 189z" />
<glyph unicode="&#x12d;" horiz-adv-x="454" vert-adv-y="2463" d="M129 0l217 1085h199l-219 -1085h-197zM213 1550q0 29 2 54h125q4 -94 47 -134q41 -39 127 -38q174 0 244 172h123q-43 -137 -131 -215q-113 -106 -265 -107q-117 0 -196 76q-76 73 -76 192z" />
<glyph unicode="&#x12e;" horiz-adv-x="567" vert-adv-y="2463" d="M78 -242q0 137 203 242h106q-166 -92 -166 -203q0 -72 98 -71q55 0 93 14l-17 -82q-70 -29 -143 -29q-174 0 -174 129zM182 0l295 1481h211l-297 -1481h-209z" />
<glyph unicode="&#x12f;" horiz-adv-x="454" vert-adv-y="2463" d="M131 0l217 1085h199l-219 -1085h-197zM387 1282l41 199h197l-39 -199h-199zM18 -242q0 135 205 242h106q-168 -94 -168 -203q0 -72 99 -71q57 0 94 14l-17 -82q-70 -29 -143 -29q-176 0 -176 129z" />
<glyph unicode="&#x130;" horiz-adv-x="567" vert-adv-y="2463" d="M180 0l295 1481h211l-297 -1481h-209zM508 1604l39 196h196l-38 -196h-197z" />
<glyph unicode="&#x131;" horiz-adv-x="454" vert-adv-y="2463" d="M129 0l217 1085h199l-219 -1085h-197z" />
<glyph unicode="&#x132;" horiz-adv-x="1503" vert-adv-y="2463" d="M180 0l295 1481h211l-297 -1481h-209zM483 -231l39 180q154 -76 303 -76q158 0 221 61q66 63 103 246l260 1301h209l-258 -1295q-98 -483 -578 -483q-162 0 -299 66z" />
<glyph unicode="&#x133;" horiz-adv-x="907" vert-adv-y="2463" d="M129 0l217 1085h199l-219 -1085h-197zM385 1282l41 199h197l-39 -199h-199zM224 -387l30 156q70 -39 142 -39q100 0 137 75q27 53 55 195l219 1085h197l-217 -1085q-84 -420 -406 -420q-79 0 -157 33zM846 1282l39 199h199l-41 -199h-197z" />
<glyph unicode="&#x134;" horiz-adv-x="1024" vert-adv-y="2463" d="M2 -231l39 180q154 -76 303 -76q158 0 221 61q66 63 103 246l260 1301h209l-258 -1295q-98 -483 -578 -483q-162 0 -299 66zM682 1604l305 321h219l176 -321h-147l-162 200h-2l-240 -200h-149z" />
<glyph unicode="&#x135;" horiz-adv-x="454" vert-adv-y="2463" d="M-231 -387l30 156q70 -39 142 -39q100 0 137 75q27 53 55 195l219 1085h197l-217 -1085q-84 -420 -406 -420q-79 0 -157 33zM123 1282l305 322h217l178 -322h-147l-162 203h-2l-242 -203h-147z" />
<glyph unicode="&#x136;" horiz-adv-x="1363" vert-adv-y="2463" d="M190 0l297 1481h197l-145 -729l759 729h211l-737 -707l545 -774h-266l-512 750l-152 -750h-197zM403 -422l17 86q49 -8 96 -8q123 0 123 78q0 63 -139 78l14 77q125 -4 182 -28q80 -37 80 -115t-71 -127q-70 -51 -183 -51q-66 0 -119 10z" />
<glyph unicode="&#x137;" horiz-adv-x="1024" vert-adv-y="2463" d="M154 0l315 1579h199l-205 -1020l469 526h188l-448 -512l334 -573h-240l-303 557l-113 -557h-196zM303 -422l16 86q49 -8 97 -8q123 0 123 78q0 63 -140 78l15 77q127 -4 184 -28q78 -37 78 -115t-72 -127q-70 -51 -180 -51q-68 0 -121 10z" />
<glyph unicode="&#x138;" horiz-adv-x="1024" vert-adv-y="2463" d="M154 0l217 1085h198l-106 -526l469 526h188l-448 -512l334 -573h-240l-303 557l-113 -557h-196z" />
<glyph unicode="&#x139;" vert-adv-y="2463" d="M166 0l295 1481h211l-266 -1323h727l-33 -158h-934zM498 1604l305 321h227l-385 -321h-147z" />
<glyph unicode="&#x13a;" horiz-adv-x="454" vert-adv-y="2463" d="M129 0l315 1579h197l-315 -1579h-197zM413 1677l306 322h229l-385 -322h-150z" />
<glyph unicode="&#x13b;" vert-adv-y="2463" d="M166 0l295 1481h211l-264 -1323h725l-31 -158h-936zM365 -422l18 86q49 -8 94 -8q123 0 123 78q0 63 -139 78l14 77q127 -4 184 -28q78 -37 78 -115t-69 -127q-70 -51 -183 -51q-67 0 -120 10z" />
<glyph unicode="&#x13c;" horiz-adv-x="454" vert-adv-y="2463" d="M129 0l315 1579h197l-315 -1579h-197zM-4 -422l16 86q49 -8 97 -8q123 0 123 78q0 63 -140 78l15 77q127 -4 184 -28q78 -37 78 -115t-72 -127q-70 -51 -180 -51q-68 0 -121 10z" />
<glyph unicode="&#x13d;" vert-adv-y="2463" d="M166 0l295 1481h211l-264 -1323h725l-31 -158h-936zM877 1026l12 59q82 23 112 183l3 14h-76l39 199h198l-35 -172q-54 -263 -253 -283z" />
<glyph unicode="&#x13e;" horiz-adv-x="595" vert-adv-y="2463" d="M129 0l315 1579h197l-315 -1579h-197zM639 1124l10 60q35 12 60 43q29 41 53 139l4 16h-78l41 197h197l-33 -170q-55 -265 -254 -285z" />
<glyph unicode="&#x13f;" vert-adv-y="2463" d="M166 0l295 1481h211l-264 -1323h725l-31 -158h-936zM870 641l39 199h199l-41 -199h-197z" />
<glyph unicode="&#x140;" horiz-adv-x="681" vert-adv-y="2463" d="M129 0l315 1579h197l-315 -1579h-197zM602 641l39 199h199l-39 -199h-199z" />
<glyph unicode="&#x141;" vert-adv-y="2463" d="M139 612l35 168l164 82l125 619h209l-101 -504l275 133l-35 -170l-274 -133l-129 -649h725l-31 -158h-936l139 692z" />
<glyph unicode="&#x142;" horiz-adv-x="454" vert-adv-y="2463" d="M123 649l33 164l151 76l137 690h197l-115 -582l150 68l-35 -164l-147 -72l-166 -829h-199l143 721z" />
<glyph unicode="&#x143;" horiz-adv-x="1478" vert-adv-y="2463" d="M166 0l295 1481h205l534 -1143l230 1143h180l-297 -1481h-205l-535 1143l-229 -1143h-178zM911 1604l306 321h229l-385 -321h-150z" />
<glyph unicode="&#x144;" vert-adv-y="2463" d="M154 0l217 1085h198l-41 -202q209 227 416 227q221 0 221 -205q0 -61 -12 -125l-156 -780h-198l143 717q16 76 16 123q0 100 -102 100q-162 0 -364 -238l-142 -702h-196zM669 1282l306 322h229l-385 -322h-150z" />
<glyph unicode="&#x145;" horiz-adv-x="1478" vert-adv-y="2463" d="M166 0l295 1481h205l534 -1143l230 1143h180l-297 -1481h-205l-535 1143l-229 -1143h-178zM434 -422l17 86q49 -8 96 -8q123 0 123 78q0 63 -140 78l15 77q129 -4 182 -28q80 -37 80 -115t-72 -127q-70 -51 -180 -51q-68 0 -121 10z" />
<glyph unicode="&#x146;" vert-adv-y="2463" d="M154 0l217 1085h198l-41 -202q209 227 416 227q221 0 221 -205q0 -61 -12 -125l-156 -780h-198l143 717q16 76 16 123q0 100 -102 100q-162 0 -364 -238l-142 -702h-196zM330 -422l16 86q49 -8 97 -8q123 0 123 78q0 63 -140 78l15 77q127 -4 184 -28q78 -37 78 -115 t-72 -127q-70 -51 -180 -51q-68 0 -121 10z" />
<glyph unicode="&#x147;" horiz-adv-x="1478" vert-adv-y="2463" d="M166 0l295 1481h205l534 -1143l230 1143h180l-297 -1481h-205l-535 1143l-229 -1143h-178zM774 1925h148l159 -203h4l240 203h150l-306 -321h-219z" />
<glyph unicode="&#x148;" vert-adv-y="2463" d="M154 0l217 1085h198l-41 -202q209 227 416 227q221 0 221 -205q0 -61 -12 -125l-156 -780h-198l143 717q16 76 16 123q0 100 -102 100q-162 0 -364 -238l-142 -702h-196zM555 1604h150l160 -201h2l239 201h150l-305 -322h-220z" />
<glyph unicode="&#x149;" horiz-adv-x="1236" vert-adv-y="2463" d="M225 1124l11 60q82 20 112 182l4 16h-76l39 197h197l-33 -170q-55 -265 -254 -285zM252 0l217 1085h199l-41 -202q209 227 415 227q221 0 222 -205q0 -61 -13 -125l-155 -780h-199l143 717q16 76 17 123q0 100 -103 100q-162 0 -364 -238l-141 -702h-197z" />
<glyph unicode="&#x14a;" horiz-adv-x="1478" vert-adv-y="2463" d="M166 0l295 1481h205l534 -1143l230 1143h180l-316 -1573q-63 -328 -383 -328q-78 0 -147 21l31 153q59 -27 135 -26q150 0 192 217l2 14l-551 1184l-229 -1143h-178z" />
<glyph unicode="&#x14b;" vert-adv-y="2463" d="M154 0l217 1085h198l-41 -202q86 94 177 153q117 74 239 74q221 0 221 -205q0 -61 -12 -125l-174 -872q-63 -328 -383 -328q-78 0 -147 21l30 153q55 -27 117 -26q150 0 192 217l154 772q16 76 16 123q0 100 -102 100q-162 0 -364 -238l-142 -702h-196z" />
<glyph unicode="&#x14c;" horiz-adv-x="1591" vert-adv-y="2463" d="M231 541q0 408 256 692.5t627 284.5q266 0 418 -152q150 -150 149 -428q0 -408 -256 -692q-255 -283 -632 -283q-237 0 -381 123q-181 154 -181 455zM457 541q0 -205 98 -312q98 -109 272 -108q244 0 412 188q219 244 219 629q0 209 -98 315.5t-281 106.5 q-266 0 -444 -237.5t-178 -581.5zM809 1604l31 147h641l-31 -147h-641z" />
<glyph unicode="&#x14d;" vert-adv-y="2463" d="M184 383q0 301 176.5 514t434.5 213q184 0 288 -104q102 -106 103 -304q0 -309 -178.5 -518t-446.5 -209q-158 0 -256 86q-121 109 -121 322zM395 373q0 -120 56 -185q55 -66 147 -65q143 0 244 135q133 180 133 455q0 250 -203 250q-162 0 -268 -172 q-109 -174 -109 -418zM512 1282l29 150h643l-30 -150h-642z" />
<glyph unicode="&#x14e;" horiz-adv-x="1591" vert-adv-y="2463" d="M231 541q0 408 256 692.5t627 284.5q266 0 418 -152q150 -150 149 -428q0 -408 -256 -692q-255 -283 -632 -283q-237 0 -381 123q-181 154 -181 455zM457 541q0 -205 98 -312q98 -109 272 -108q244 0 412 188q219 244 219 629q0 209 -98 315.5t-281 106.5 q-266 0 -444 -237.5t-178 -581.5zM858 1872q0 29 2 53h123q4 -94 49 -133q45 -41 127 -41q172 0 246 174h123q-43 -137 -133 -217q-114 -104 -265 -104q-115 0 -194 75q-78 74 -78 193z" />
<glyph unicode="&#x14f;" vert-adv-y="2463" d="M184 383q0 301 176.5 514t434.5 213q184 0 288 -104q102 -106 103 -304q0 -309 -178.5 -518t-446.5 -209q-158 0 -256 86q-121 109 -121 322zM395 373q0 -120 56 -185q55 -66 147 -65q143 0 244 135q133 180 133 455q0 250 -203 250q-162 0 -268 -172 q-109 -174 -109 -418zM559 1548l1 6q1 6 1 11q0 20 2 39h123q4 -94 49 -134q41 -39 127 -38q109 0 174 63q41 37 72 109h123q-43 -133 -133 -215q-117 -106 -264 -107q-117 0 -197 76q-78 73 -78 190z" />
<glyph unicode="&#x150;" horiz-adv-x="1591" vert-adv-y="2463" d="M231 541q0 408 256 692.5t627 284.5q266 0 418 -152q150 -150 149 -428q0 -408 -256 -692q-255 -283 -632 -283q-237 0 -381 123q-181 154 -181 455zM457 541q0 -205 98 -312q98 -109 272 -108q244 0 412 188q219 244 219 629q0 209 -98 315.5t-281 106.5 q-266 0 -444 -237.5t-178 -581.5zM899 1604l303 321h193l-385 -321h-111zM1249 1604l305 321h193l-385 -321h-113z" />
<glyph unicode="&#x151;" vert-adv-y="2463" d="M184 383q0 301 176.5 514t434.5 213q184 0 288 -104q102 -106 103 -304q0 -309 -178.5 -518t-446.5 -209q-158 0 -256 86q-121 109 -121 322zM395 373q0 -120 56 -185q55 -66 147 -65q143 0 244 135q133 180 133 455q0 250 -203 250q-162 0 -268 -172 q-109 -174 -109 -418zM602 1282l303 322h192l-385 -322h-110zM952 1282l305 322h191l-385 -322h-111z" />
<glyph unicode="&#x152;" horiz-adv-x="2048" vert-adv-y="2463" d="M231 543q0 406 254 690.5t615 284.5q182 0 325 -95l11 58h819l-33 -158h-606l-96 -475h508l-31 -156h-508l-109 -534h654l-31 -158h-862l10 57q-182 -94 -373 -94q-256 0 -401.5 152t-145.5 428zM455 541q0 -420 360 -420q348 0 438 448l70 342q23 111 23 201 q0 248 -271 248q-264 0 -442 -237.5t-178 -581.5z" />
<glyph unicode="&#x153;" horiz-adv-x="1931" vert-adv-y="2463" d="M182 399q0 298 191 504q188 207 463 207q154 0 247 -76q53 -43 93 -125q82 88 163 135q121 66 265 66q346 0 346 -344q0 -88 -31 -254h-713q-10 -86 -10 -111q0 -279 328 -278q152 0 331 72l-32 -158q-203 -61 -379 -62q-182 0 -277 58q-71 43 -135 141 q-82 -90 -160 -133q-121 -66 -268 -66q-199 0 -309 111q-113 112 -113 313zM391 389q0 -266 250 -266q225 0 317 233q33 82 56 195q18 90 18 186q0 225 -219 226q-186 0 -303 -162q-119 -166 -119 -412zM1239 647h498q14 86 14 135q0 180 -180 181q-145 0 -238 -115 q-53 -66 -94 -201z" />
<glyph unicode="&#x154;" horiz-adv-x="1478" vert-adv-y="2463" d="M166 0l295 1481h618q203 0 297 -70q92 -68 92 -219q0 -180 -141 -334q-96 -104 -248 -166l355 -692h-258l-295 627h-381l-125 -627h-209zM530 782h238q158 0 250 33q80 29 147 115q82 111 82 215q0 98 -69 137q-70 41 -238 41h-301zM844 1604l305 321h227l-385 -321h-147 z" />
<glyph unicode="&#x155;" horiz-adv-x="681" vert-adv-y="2463" d="M154 0l217 1085h196l-39 -202q141 227 306 227q31 0 55 -4l-37 -184q-43 16 -80 16q-109 0 -278 -221l-144 -717h-196zM507 1282l306 322h229l-385 -322h-150z" />
<glyph unicode="&#x156;" horiz-adv-x="1478" vert-adv-y="2463" d="M166 0l295 1481h618q203 0 297 -70q92 -68 92 -219q0 -180 -141 -334q-96 -104 -248 -166l355 -692h-258l-295 627h-381l-125 -627h-209zM438 -422l19 86q49 -8 96 -8q123 0 123 78q0 61 -141 78l16 77q125 -4 182 -28q78 -37 78 -115t-70 -127q-70 -51 -182 -51 q-68 0 -121 10zM530 782h238q158 0 250 33q80 29 147 115q82 111 82 215q0 98 -69 137q-70 41 -238 41h-301z" />
<glyph unicode="&#x157;" horiz-adv-x="681" vert-adv-y="2463" d="M154 0l217 1085h196l-39 -202q141 227 306 227q31 0 55 -4l-37 -184q-43 16 -80 16q-109 0 -278 -221l-144 -717h-196zM70 -422l16 86q49 -8 97 -8q123 0 123 78q0 63 -140 78l15 77q127 -4 184 -28q78 -37 78 -115t-72 -127q-70 -51 -180 -51q-68 0 -121 10z" />
<glyph unicode="&#x158;" horiz-adv-x="1478" vert-adv-y="2463" d="M166 0l295 1481h618q203 0 297 -70q92 -68 92 -219q0 -180 -141 -334q-96 -104 -248 -166l355 -692h-258l-295 627h-381l-125 -627h-209zM530 782h238q158 0 250 33q80 29 147 115q82 111 82 215q0 98 -69 137q-70 41 -238 41h-301zM668 1925h147l160 -203h4l240 203h147 l-303 -321h-219z" />
<glyph unicode="&#x159;" horiz-adv-x="681" vert-adv-y="2463" d="M154 0l217 1085h196l-39 -202q141 227 306 227q31 0 55 -4l-37 -184q-43 16 -80 16q-109 0 -278 -221l-144 -717h-196zM321 1604h150l160 -201h2l239 201h150l-305 -322h-220z" />
<glyph unicode="&#x15a;" horiz-adv-x="1363" vert-adv-y="2463" d="M131 51l41 209q266 -139 559 -139q377 0 377 297q0 82 -74 133q-63 41 -188 86l-189 65q-315 111 -315 330q0 180 129 318q156 168 506 168q233 0 467 -64l-39 -192q-240 98 -475 98q-172 0 -260 -53q-51 -31 -82 -80q-33 -53 -33 -121q0 -61 37 -102q57 -63 203 -113 l190 -68q186 -66 266 -143.5t80 -204.5q0 -219 -178 -366q-176 -145 -465 -146q-254 0 -557 88zM846 1604l303 321h229l-385 -321h-147z" />
<glyph unicode="&#x15b;" horiz-adv-x="1024" vert-adv-y="2463" d="M125 39l35 180q180 -96 346 -96q113 0 180 39q84 47 84 147q0 61 -49 97q-25 18 -82 38l-164 60q-199 70 -199 246q0 164 129.5 262t354.5 98q106 0 280 -33l-32 -164q-141 49 -291 50q-238 0 -238 -160q0 -82 117 -121l145 -49q233 -84 234 -273q0 -168 -141 -274 q-141 -111 -365 -111q-160 1 -344 64zM657 1282l306 322h229l-385 -322h-150z" />
<glyph unicode="&#x15c;" horiz-adv-x="1363" vert-adv-y="2463" d="M131 51l41 209q266 -139 559 -139q377 0 377 297q0 82 -74 133q-63 41 -188 86l-189 65q-315 111 -315 330q0 180 129 318q156 168 506 168q233 0 467 -64l-39 -192q-240 98 -475 98q-172 0 -260 -53q-51 -31 -82 -80q-33 -53 -33 -121q0 -61 37 -102q57 -63 203 -113 l190 -68q186 -66 266 -143.5t80 -204.5q0 -219 -178 -366q-176 -145 -465 -146q-254 0 -557 88zM643 1604l305 321h217l178 -321h-149l-160 200h-2l-241 -200h-148z" />
<glyph unicode="&#x15d;" horiz-adv-x="1024" vert-adv-y="2463" d="M125 39l35 180q180 -96 346 -96q113 0 180 39q84 47 84 147q0 61 -49 97q-25 18 -82 38l-164 60q-199 70 -199 246q0 164 129.5 262t354.5 98q106 0 280 -33l-32 -164q-141 49 -291 50q-238 0 -238 -160q0 -82 117 -121l145 -49q233 -84 234 -273q0 -168 -141 -274 q-141 -111 -365 -111q-160 1 -344 64zM457 1282l305 322h217l176 -322h-147l-160 203h-2l-242 -203h-147z" />
<glyph unicode="&#x15e;" horiz-adv-x="1363" vert-adv-y="2463" d="M131 51l41 209q266 -139 557 -139q379 0 379 297q0 82 -74 133q-63 41 -188 86l-189 65q-315 111 -315 330q0 180 129 318q156 168 506 168q233 0 467 -64l-39 -192q-240 98 -475 98q-172 0 -260 -53q-51 -31 -82 -80q-33 -53 -33 -121q0 -61 37 -102q57 -63 203 -113 l190 -68q186 -66 266 -143.5t80 -204.5q0 -219 -178 -366q-176 -145 -465 -146q-254 0 -557 88zM403 -412l17 82q43 -14 100 -14q121 0 121 86q0 80 -170 84l131 174h96l-82 -109q166 -12 166 -135q0 -72 -71 -131q-72 -57 -168 -57q-72 0 -140 20z" />
<glyph unicode="&#x15f;" horiz-adv-x="1024" vert-adv-y="2463" d="M125 39l35 180q180 -96 346 -96q113 0 180 39q84 47 84 147q0 61 -49 97q-25 18 -82 38l-164 60q-199 70 -199 246q0 164 129.5 262t354.5 98q106 0 280 -33l-32 -164q-141 49 -291 50q-238 0 -238 -160q0 -82 117 -121l145 -49q233 -84 234 -273q0 -168 -141 -274 q-141 -111 -365 -111q-160 1 -344 64zM252 -412l16 82q45 -14 103 -14q119 0 119 84q0 82 -170 86l131 174h96l-82 -109q166 -12 166 -135q0 -70 -74 -131q-72 -57 -166 -57q-71 0 -139 20z" />
<glyph unicode="&#x160;" horiz-adv-x="1363" vert-adv-y="2463" d="M131 51l41 209q266 -139 559 -139q377 0 377 297q0 82 -74 133q-63 41 -188 86l-189 65q-315 111 -315 330q0 180 129 318q156 168 506 168q233 0 467 -64l-39 -192q-240 98 -475 98q-172 0 -260 -53q-51 -31 -82 -80q-33 -53 -33 -121q0 -61 37 -102q57 -63 203 -113 l190 -68q186 -66 266 -143.5t80 -204.5q0 -219 -178 -366q-176 -145 -465 -146q-254 0 -557 88zM707 1925h147l162 -203h2l242 203h147l-305 -321h-217z" />
<glyph unicode="&#x161;" horiz-adv-x="1024" vert-adv-y="2463" d="M125 39l35 180q180 -96 346 -96q113 0 180 39q84 47 84 147q0 61 -49 97q-25 18 -82 38l-164 60q-199 70 -199 246q0 164 129.5 262t354.5 98q106 0 280 -33l-32 -164q-141 49 -291 50q-238 0 -238 -160q0 -82 117 -121l145 -49q233 -84 234 -273q0 -168 -141 -274 q-141 -111 -365 -111q-160 1 -344 64zM520 1604h150l160 -201h2l239 201h150l-305 -322h-220z" />
<glyph unicode="&#x162;" horiz-adv-x="1249" vert-adv-y="2463" d="M285 1323l32 158h1211l-33 -158h-500l-264 -1323h-211l266 1323h-501zM389 -412l17 82q45 -14 102 -14q119 0 119 84q0 82 -170 86l131 174h96l-82 -109q166 -12 166 -135q0 -70 -74 -131q-70 -57 -166 -57q-69 0 -139 20z" />
<glyph unicode="&#x163;" horiz-adv-x="567" vert-adv-y="2463" d="M102 -412l17 82q45 -14 100 -14q121 0 121 84q0 82 -170 86l129 174h98l-82 -109q164 -12 164 -135q0 -72 -71 -131q-72 -57 -166 -57q-70 0 -140 20zM199 168q0 59 14 131l127 639h-123l31 147h123l39 197l200 21l-43 -218h209l-28 -147h-209l-121 -602 q-18 -89 -19 -129q0 -84 90 -84q43 0 68 10l-29 -139q-65 -18 -116 -19q-213 0 -213 193z" />
<glyph unicode="&#x164;" horiz-adv-x="1249" vert-adv-y="2463" d="M285 1323l32 158h1211l-33 -158h-500l-264 -1323h-211l266 1323h-501zM662 1925h147l160 -203h4l239 203h150l-305 -321h-219z" />
<glyph unicode="&#x165;" horiz-adv-x="768" vert-adv-y="2463" d="M199 168q0 59 14 131l127 639h-123l31 147h123l39 197l200 21l-43 -218h209l-28 -147h-209l-121 -602q-18 -89 -19 -129q0 -84 90 -84q43 0 68 10l-29 -139q-66 -18 -116 -19q-213 0 -213 193zM770 1235l12 57q35 12 60 43q16 18 26 47q6 16 27 93l2 16h-76l39 197h199 l-35 -172q-55 -261 -254 -281z" />
<glyph unicode="&#x166;" horiz-adv-x="1249" vert-adv-y="2463" d="M285 1323l32 158h1211l-33 -158h-500l-92 -461h303l-28 -147h-304l-143 -715h-211l144 715h-304l31 147h303l92 461h-501z" />
<glyph unicode="&#x167;" horiz-adv-x="567" vert-adv-y="2463" d="M143 567l25 123h123l49 248h-123l31 147h123l39 197l200 21l-43 -218h209l-28 -147h-209l-50 -248h209l-24 -123h-209l-47 -231q-18 -89 -19 -129q0 -84 90 -84q43 0 68 10l-29 -139q-66 -18 -116 -19q-213 0 -213 191q0 61 14 133l53 268h-123z" />
<glyph unicode="&#x168;" horiz-adv-x="1478" vert-adv-y="2463" d="M254 334q0 89 25 215l186 932h209l-187 -934q-25 -125 -24 -195q0 -231 325 -231q205 0 304 92q100 94 145 326l190 942h183l-187 -938q-41 -203 -100 -301q-61 -104 -178 -176q-164 -102 -404 -103q-487 0 -487 371zM741 1604q23 90 62 145q63 88 172 88q72 0 127 -37 l51 -37q51 -35 82 -34q66 0 96 108h123q-25 -90 -59 -141q-65 -92 -172 -92q-72 0 -127 38l-54 37q-51 35 -79 35q-65 0 -99 -110h-123z" />
<glyph unicode="&#x169;" vert-adv-y="2463" d="M190 182q0 57 15 123l155 780h197l-143 -714q-16 -76 -17 -125q0 -100 103 -101q162 0 364 238l142 702h196l-217 -1085h-197l41 203q-209 -227 -417 -228q-222 0 -222 207zM487 1282q23 90 62 145q66 90 172 91q70 0 127 -39l51 -37q51 -35 82 -35q66 0 96 111h123 q-25 -92 -59 -144q-63 -92 -174 -92q-68 0 -125 41l-54 37q-47 33 -79 33q-68 0 -99 -111h-123z" />
<glyph unicode="&#x16a;" horiz-adv-x="1478" vert-adv-y="2463" d="M254 334q0 89 25 215l186 932h209l-187 -934q-25 -125 -24 -195q0 -231 325 -231q205 0 304 92q100 94 145 326l190 942h183l-187 -938q-41 -203 -100 -301q-61 -104 -178 -176q-164 -102 -404 -103q-487 0 -487 371zM754 1604l30 147h641l-28 -147h-643z" />
<glyph unicode="&#x16b;" vert-adv-y="2463" d="M190 182q0 57 15 123l155 780h197l-143 -714q-16 -76 -17 -125q0 -100 103 -101q162 0 364 238l142 702h196l-217 -1085h-197l41 203q-209 -227 -417 -228q-222 0 -222 207zM499 1282l29 150h643l-30 -150h-642z" />
<glyph unicode="&#x16c;" horiz-adv-x="1478" vert-adv-y="2463" d="M254 334q0 89 25 215l186 932h209l-187 -934q-25 -125 -24 -195q0 -231 325 -231q205 0 304 92q100 94 145 326l190 942h183l-187 -938q-41 -203 -100 -301q-61 -104 -178 -176q-164 -102 -404 -103q-487 0 -487 371zM803 1868q0 18 2 37q0 6 1 12t1 8h123q4 -94 47 -133 q45 -41 127 -41q172 0 246 174h123q-43 -133 -134 -215q-113 -106 -264 -106q-115 0 -194 75q-78 74 -78 189z" />
<glyph unicode="&#x16d;" vert-adv-y="2463" d="M190 182q0 57 15 123l155 780h197l-143 -714q-16 -76 -17 -125q0 -100 103 -101q162 0 364 238l142 702h196l-217 -1085h-197l41 203q-209 -227 -417 -228q-222 0 -222 207zM549 1548v17q0 2 4 39h123q4 -94 47 -134q41 -39 127 -38q170 0 244 172h125 q-43 -133 -134 -215q-113 -106 -264 -107q-117 0 -196 76q-76 73 -76 190z" />
<glyph unicode="&#x16e;" horiz-adv-x="1478" vert-adv-y="2463" d="M254 334q0 89 25 215l186 932h209l-187 -934q-25 -125 -24 -195q0 -231 325 -231q205 0 304 92q100 94 145 326l190 942h183l-187 -938q-41 -203 -100 -301q-61 -104 -178 -176q-164 -102 -404 -103q-487 0 -487 371zM885 1761q0 106 84 191q84 82 192 82q82 0 133 -52 q53 -53 54 -131q0 -106 -86 -188q-88 -84 -193 -84q-74 0 -123 43q-61 53 -61 139zM973 1778q0 -113 112 -113q57 0 109 41q66 55 66 129q0 113 -115 113q-68 0 -121 -54q-51 -50 -51 -116z" />
<glyph unicode="&#x16f;" vert-adv-y="2463" d="M190 182q0 57 15 123l155 780h197l-143 -714q-16 -76 -17 -125q0 -100 103 -101q162 0 364 238l142 702h196l-217 -1085h-197l41 203q-209 -227 -417 -228q-222 0 -222 207zM635 1464q0 108 86 191q82 82 190 82q84 0 135.5 -51.5t51.5 -131.5q0 -106 -84 -188 q-88 -84 -195 -84q-72 0 -121 43q-63 51 -63 139zM723 1481q0 -113 113 -113q61 0 110 43q63 55 64 129q0 111 -113 111q-72 0 -123 -51t-51 -119z" />
<glyph unicode="&#x170;" horiz-adv-x="1478" vert-adv-y="2463" d="M254 334q0 89 25 215l186 932h209l-187 -934q-25 -125 -24 -195q0 -231 325 -231q205 0 304 92q100 94 145 326l190 942h183l-187 -938q-41 -203 -100 -301q-61 -104 -178 -176q-164 -102 -404 -103q-487 0 -487 371zM821 1604l305 321h193l-385 -321h-113zM1174 1604 l305 321h190l-385 -321h-110z" />
<glyph unicode="&#x171;" vert-adv-y="2463" d="M190 182q0 57 15 123l155 780h197l-143 -714q-16 -76 -17 -125q0 -100 103 -101q162 0 364 238l142 702h196l-217 -1085h-197l41 203q-209 -227 -417 -228q-222 0 -222 207zM549 1282l303 322h192l-385 -322h-110zM899 1282l305 322h191l-385 -322h-111z" />
<glyph unicode="&#x172;" horiz-adv-x="1478" vert-adv-y="2463" d="M254 334q0 89 25 215l186 932h209l-187 -934q-25 -125 -24 -195q0 -231 325 -231q205 0 304 92q100 94 145 326l190 942h183l-187 -938q-41 -203 -100 -301q-61 -104 -178 -176q-164 -102 -404 -103q-487 0 -487 371zM598 -242q0 135 205 242h106q-166 -92 -166 -203 q0 -72 97 -71q57 0 94 14l-16 -82q-70 -29 -144 -29q-176 0 -176 129z" />
<glyph unicode="&#x173;" vert-adv-y="2463" d="M190 182q0 57 15 123l155 780h197l-143 -714q-16 -76 -17 -125q0 -100 103 -101q162 0 364 238l142 702h196l-217 -1085h-197l41 203q-209 -227 -417 -228q-222 0 -222 207zM590 -242q0 135 205 242h106q-168 -94 -168 -203q0 -72 99 -71q57 0 94 14l-17 -82 q-70 -29 -143 -29q-176 0 -176 129z" />
<glyph unicode="&#x174;" horiz-adv-x="1931" vert-adv-y="2463" d="M322 1481h200l70 -1170l582 1170h200l103 -1159l557 1159h170l-711 -1481h-209l-100 1141l-570 -1141h-208zM948 1604l305 321h220l176 -321h-148l-162 200h-2l-239 -200h-150z" />
<glyph unicode="&#x175;" horiz-adv-x="1478" vert-adv-y="2463" d="M227 1085h195l33 -817l411 817h199l55 -821l391 821h170l-522 -1085h-196l-64 842l-428 -842h-199zM655 1282l306 322h217l178 -322h-150l-159 203h-3l-241 -203h-148z" />
<glyph unicode="&#x176;" horiz-adv-x="1363" vert-adv-y="2463" d="M326 1481h239l285 -686l588 686h194l-737 -858l-125 -623h-209l123 616zM678 1604l303 321h219l176 -321h-147l-162 200l-242 -200h-147z" />
<glyph unicode="&#x177;" horiz-adv-x="1024" vert-adv-y="2463" d="M154 -395l249 395l-167 1085h198l129 -831l492 831h174l-871 -1480h-204zM434 1282l305 322h217l179 -322h-150l-160 203h-2l-241 -203h-148z" />
<glyph unicode="&#x178;" horiz-adv-x="1363" vert-adv-y="2463" d="M326 1481h239l285 -686l588 686h194l-737 -858l-125 -623h-209l123 616zM743 1604l35 174h172l-35 -174h-172zM1139 1604l32 174h175l-35 -174h-172z" />
<glyph unicode="&#x179;" horiz-adv-x="1249" vert-adv-y="2463" d="M100 0l35 170l1024 1153h-745l32 158h998l-31 -158l-1026 -1153h795l-33 -170h-1049zM797 1604l305 321h227l-385 -321h-147z" />
<glyph unicode="&#x17a;" horiz-adv-x="1024" vert-adv-y="2463" d="M74 0l30 147l779 791h-590l29 147h833l-31 -147l-778 -791h635l-31 -147h-876zM620 1282l306 322h229l-385 -322h-150z" />
<glyph unicode="&#x17b;" horiz-adv-x="1249" vert-adv-y="2463" d="M100 0l35 170l1024 1153h-745l32 158h998l-31 -158l-1026 -1153h795l-33 -170h-1049zM858 1604l39 196h199l-39 -196h-199z" />
<glyph unicode="&#x17c;" horiz-adv-x="1024" vert-adv-y="2463" d="M74 0l30 147l779 791h-590l29 147h833l-31 -147l-778 -791h635l-31 -147h-876zM668 1282l39 199h196l-39 -199h-196z" />
<glyph unicode="&#x17d;" horiz-adv-x="1249" vert-adv-y="2463" d="M100 0l35 170l1024 1153h-745l32 158h998l-31 -158l-1026 -1153h795l-33 -170h-1049zM672 1925h147l162 -203h2l242 203h147l-305 -321h-217z" />
<glyph unicode="&#x17e;" horiz-adv-x="1024" vert-adv-y="2463" d="M74 0l30 147l779 791h-590l29 147h833l-31 -147l-778 -791h635l-31 -147h-876zM485 1604h150l160 -201h2l239 201h150l-305 -322h-220z" />
<glyph unicode="&#x17f;" horiz-adv-x="454" vert-adv-y="2463" d="M143 0l189 938h-135l28 147h135l27 132q77 387 381 387q33 0 63 -5l-28 -147q-41 4 -43 4q-127 0 -170 -219l-248 -1237h-199z" />
<glyph unicode="&#x192;" vert-adv-y="2463" d="M-10 -297l403 1014h-166l29 147h197l43 105q115 279 260 411q150 137 350 138q96 0 217 -29l-61 -158q-106 39 -187 39q-221 0 -344 -309l-78 -197h189l-29 -147h-217l-406 -1014h-200z" />
<glyph unicode="&#x218;" horiz-adv-x="1363" vert-adv-y="2463" d="M131 51l41 209q266 -139 557 -139q379 0 379 297q0 82 -74 133q-63 41 -188 86l-189 65q-315 111 -315 330q0 180 129 318q156 168 506 168q233 0 467 -64l-39 -192q-240 98 -475 98q-172 0 -260 -53q-51 -31 -82 -80q-33 -53 -33 -121q0 -61 37 -102q57 -63 203 -113 l190 -68q186 -66 266 -143.5t80 -204.5q0 -219 -178 -366q-176 -145 -465 -146q-254 0 -557 88zM440 -422l19 86q49 -8 96 -8q123 0 123 78q0 61 -141 78l16 77q129 -4 182 -28q78 -37 78 -117q0 -76 -70 -125q-70 -51 -182 -51q-68 0 -121 10z" />
<glyph unicode="&#x219;" horiz-adv-x="1024" vert-adv-y="2463" d="M125 39l35 180q180 -96 346 -96q113 0 180 39q84 47 84 147q0 61 -49 97q-25 18 -82 38l-164 60q-199 70 -199 246q0 164 129.5 262t354.5 98q106 0 280 -33l-32 -164q-141 49 -291 50q-238 0 -238 -160q0 -82 117 -121l145 -49q233 -84 234 -273q0 -168 -141 -274 q-141 -111 -365 -111q-160 1 -344 64zM283 -422l16 86q49 -8 97 -8q123 0 123 78q0 63 -140 78l15 77q127 -4 184 -28q78 -37 78 -115t-72 -127q-70 -51 -180 -51q-68 0 -121 10z" />
<glyph unicode="&#x21a;" horiz-adv-x="1249" vert-adv-y="2463" d="M285 1323l32 158h1211l-33 -158h-500l-264 -1323h-211l266 1323h-501zM387 -422l19 86q49 -8 96 -8q123 0 123 78q0 61 -142 78l17 77q129 -4 182 -28q80 -37 80 -115t-72 -127q-70 -51 -182 -51q-68 0 -121 10z" />
<glyph unicode="&#x21b;" horiz-adv-x="567" vert-adv-y="2463" d="M199 168q0 59 14 131l127 639h-123l31 147h123l39 197l200 21l-43 -218h209l-28 -147h-209l-121 -602q-18 -89 -19 -129q0 -84 90 -84q43 0 68 10l-29 -139q-66 -18 -116 -19q-213 0 -213 193zM92 -422l16 86q49 -8 97 -8q123 0 123 78q0 63 -140 78l15 77 q127 -4 184 -28q78 -37 78 -115t-72 -127q-70 -51 -180 -51q-68 0 -121 10z" />
<glyph unicode="&#x2c6;" horiz-adv-x="681" vert-adv-y="2463" d="M248 1282l305 322h217l176 -322h-147l-160 203h-2l-242 -203h-147z" />
<glyph unicode="&#x2c7;" horiz-adv-x="681" vert-adv-y="2463" d="M311 1604h150l160 -201h2l239 201h150l-305 -322h-220z" />
<glyph unicode="&#x2c9;" horiz-adv-x="681" vert-adv-y="2463" d="M276 1282l29 150h643l-30 -150h-642z" />
<glyph unicode="&#x2d8;" horiz-adv-x="681" vert-adv-y="2463" d="M326 1550q0 4 4 54h123q4 -94 47 -134q41 -39 127 -38q172 0 245 172h123q-43 -133 -133 -215q-113 -106 -264 -107q-115 0 -195 76q-77 73 -77 192z" />
<glyph unicode="&#x2d9;" horiz-adv-x="681" vert-adv-y="2463" d="M500 1282l39 199h196l-39 -199h-196z" />
<glyph unicode="&#x2da;" horiz-adv-x="681" vert-adv-y="2463" d="M416 1464q0 108 86 191q84 82 192 82q82 0 133 -51q53 -53 54 -132q0 -104 -86 -188q-88 -84 -195 -84q-72 0 -121 43q-63 51 -63 139zM506 1481q0 -113 110 -113q61 0 111 43q66 55 66 127q0 113 -115 113q-70 0 -121 -51t-51 -119z" />
<glyph unicode="&#x2db;" horiz-adv-x="681" vert-adv-y="2463" d="M127 -242q0 135 205 242h106q-168 -94 -168 -203q0 -72 99 -71q57 0 94 14l-17 -82q-70 -29 -143 -29q-176 0 -176 129z" />
<glyph unicode="&#x2dc;" horiz-adv-x="681" vert-adv-y="2463" d="M264 1282q23 88 62 143q65 92 172 93q68 0 127 -39l53 -37q51 -35 80 -35q61 0 96 111h125q-23 -88 -61 -144q-66 -92 -175 -92q-68 0 -125 41l-53 37q-47 33 -80 33q-68 0 -98 -111h-123z" />
<glyph unicode="&#x2dd;" horiz-adv-x="681" vert-adv-y="2463" d="M207 1282l303 322h192l-385 -322h-110zM557 1282l305 322h191l-385 -322h-111z" />
<glyph unicode="&#x326;" horiz-adv-x="681" vert-adv-y="2463" d="M86 -422l16 86q49 -8 97 -8q123 0 123 78q0 63 -140 78l15 77q127 -4 184 -28q78 -37 78 -115t-72 -127q-70 -51 -180 -51q-68 0 -121 10z" />
<glyph unicode="&#x37e;" horiz-adv-x="567" vert-adv-y="2463" d="M123 -322l14 74q74 41 115 225l4 23h-70l39 197h199l-35 -166q-61 -304 -266 -353zM365 889l38 196h197l-39 -196h-196z" />
<glyph unicode="&#x387;" horiz-adv-x="567" vert-adv-y="2463" d="M260 492l49 245h246l-47 -245h-248z" />
<glyph unicode="&#x2000;" horiz-adv-x="1015" vert-adv-y="0" />
<glyph unicode="&#x2001;" horiz-adv-x="2031" vert-adv-y="0" />
<glyph unicode="&#x2002;" horiz-adv-x="1015" vert-adv-y="0" />
<glyph unicode="&#x2003;" horiz-adv-x="2031" vert-adv-y="0" />
<glyph unicode="&#x2004;" horiz-adv-x="675" vert-adv-y="0" />
<glyph unicode="&#x2005;" horiz-adv-x="507" vert-adv-y="0" />
<glyph unicode="&#x2006;" horiz-adv-x="337" vert-adv-y="0" />
<glyph unicode="&#x2007;" horiz-adv-x="337" vert-adv-y="0" />
<glyph unicode="&#x2008;" horiz-adv-x="253" vert-adv-y="0" />
<glyph unicode="&#x2009;" horiz-adv-x="405" vert-adv-y="0" />
<glyph unicode="&#x200a;" horiz-adv-x="110" vert-adv-y="0" />
<glyph unicode="&#x2010;" horiz-adv-x="681" vert-adv-y="2463" d="M193 518l28 148h506l-29 -148h-505z" />
<glyph unicode="&#x2011;" horiz-adv-x="681" vert-adv-y="2463" d="M193 518l28 148h506l-29 -148h-505z" />
<glyph unicode="&#x2012;" vert-adv-y="2463" d="M209 543l24 123h938l-24 -123h-938z" />
<glyph unicode="&#x2013;" vert-adv-y="2463" d="M209 543l24 123h938l-24 -123h-938z" />
<glyph unicode="&#x2014;" horiz-adv-x="2048" vert-adv-y="2463" d="M207 543l18 98h1852l-21 -98h-1849z" />
<glyph unicode="&#x2015;" horiz-adv-x="2048" vert-adv-y="2463" d="M207 543l18 98h1852l-21 -98h-1849z" />
<glyph unicode="&#x2018;" horiz-adv-x="454" vert-adv-y="2463" d="M295 1012l43 215q68 326 317 352l-16 -74q-100 -27 -139 -225l-4 -23h94l-49 -245h-246z" />
<glyph unicode="&#x2019;" horiz-adv-x="454" vert-adv-y="2463" d="M319 1012l15 73q100 27 141 228l4 18h-96l49 248h248l-43 -213q-68 -329 -318 -354z" />
<glyph unicode="&#x201a;" horiz-adv-x="454" vert-adv-y="2463" d="M45 -297l14 76q100 27 138 201l4 20h-97l50 248h245l-43 -215q-61 -305 -311 -330z" />
<glyph unicode="&#x201b;" horiz-adv-x="567" vert-adv-y="2463" />
<glyph unicode="&#x201c;" horiz-adv-x="681" vert-adv-y="2463" d="M268 1061l33 166q61 303 268 352l-14 -74q-78 -37 -115 -225l-4 -23h70l-39 -196h-199zM614 1061l33 166q61 303 268 352l-14 -74q-74 -35 -115 -225l-6 -23h72l-41 -196h-197z" />
<glyph unicode="&#x201d;" horiz-adv-x="681" vert-adv-y="2463" d="M295 1061l14 74q74 41 115 225l4 22h-70l39 197h199l-35 -166q-61 -303 -266 -352zM639 1061l14 74q80 37 117 225l4 22h-69l38 197h197l-33 -166q-61 -299 -268 -352z" />
<glyph unicode="&#x201e;" horiz-adv-x="681" vert-adv-y="2463" d="M4 -322l16 74q74 41 115 225l4 23h-69l39 197h196l-33 -166q-61 -304 -268 -353zM350 -322l15 74q74 39 114 225l6 23h-71l41 197h196l-33 -166q-61 -300 -268 -353z" />
<glyph unicode="&#x2020;" vert-adv-y="2463" d="M313 813l29 150l340 -25l86 543h197l-134 -543l351 25l-31 -150l-340 27l-203 -1137h-196l252 1137z" />
<glyph unicode="&#x2021;" vert-adv-y="2463" d="M195 221l28 150l342 -27l99 496l-351 -27l29 150l340 -25l86 543h197l-134 -543l351 25l-31 -150l-340 27l-98 -496l350 27l-31 -150l-340 27l-84 -545h-196l133 545z" />
<glyph unicode="&#x2022;" horiz-adv-x="716" vert-adv-y="2463" d="M248 780q0 129 102.5 229.5t237.5 100.5q98 0 161.5 -63.5t63.5 -159.5q0 -129 -104 -232q-102 -100 -236 -100q-90 0 -149 51q-76 63 -76 174z" />
<glyph unicode="&#x2026;" horiz-adv-x="2048" vert-adv-y="2463" d="M248 0l39 197h196l-39 -197h-196zM926 0l39 197h196l-39 -197h-196zM1604 0l41 197h196l-39 -197h-198z" />
<glyph unicode="&#x202f;" horiz-adv-x="405" vert-adv-y="0" />
<glyph unicode="&#x2030;" horiz-adv-x="2048" vert-adv-y="2463" d="M53 -37l1399 1555h135l-1399 -1555h-135zM236 1008q0 197 116 335q117 137 287 138q248 0 248 -269q0 -201 -117 -335q-117 -137 -289 -138q-245 1 -245 269zM385 1012q0 -172 121 -172q84 0 147 88q86 113 86 280q0 174 -123 174q-94 0 -161 -110q-70 -115 -70 -260z M756 266q0 203 114 336q117 137 287 137q248 0 248 -268q0 -199 -117 -334q-117 -137 -289 -137q-243 0 -243 266zM903 270q0 -172 121 -172q84 0 147 88q86 113 86 283q0 172 -122 172q-94 0 -162 -111q-70 -115 -70 -260zM1458 266q0 199 115 336q117 137 287 137 q250 0 249 -268q0 -199 -116 -334q-117 -137 -291 -137q-244 0 -244 266zM1606 270q0 -172 120 -172q86 0 150 88q84 111 84 283t-123 172q-94 0 -162 -111q-69 -115 -69 -260z" />
<glyph unicode="&#x2039;" horiz-adv-x="681" vert-adv-y="2463" d="M182 543l484 444l84 -74l-369 -370l221 -371l-113 -74z" />
<glyph unicode="&#x203a;" horiz-adv-x="681" vert-adv-y="2463" d="M150 172l368 371l-221 370l113 74l307 -444l-486 -445z" />
<glyph unicode="&#x203e;" vert-adv-y="2463" d="M389 1456l31 148h942l-31 -148h-942z" />
<glyph unicode="&#x2044;" horiz-adv-x="339" vert-adv-y="2463" d="M-449 -37l1399 1555h135l-1398 -1555h-136z" />
<glyph unicode="&#x205f;" horiz-adv-x="507" vert-adv-y="0" />
<glyph unicode="&#x20ac;" vert-adv-y="2463" d="M106 537l76 122h113q15 92 43 197h-168l78 125h131q63 147 121 227q217 307 585 308q119 0 287 -46l-35 -182q-156 72 -278 72q-184 0 -320 -137q-84 -84 -159 -242h567l-76 -125h-536q-28 -101 -43 -197h458l-76 -122h-391q2 -127 29 -205q66 -205 287 -205 q125 0 321 72l-35 -172q-205 -63 -346 -64q-281 0 -387 189q-76 131 -69 319l2 66h-179z" />
<glyph unicode="&#x2122;" horiz-adv-x="2048" vert-adv-y="2463" d="M494 1358l24 123h666l-25 -123h-246l-122 -619h-175l123 619h-245zM1159 739l150 742h231l72 -428l235 428h213l-147 -742h-174l108 539l-260 -475h-117l-75 432l-101 -496h-135z" />
<glyph unicode="&#x212e;" vert-adv-y="2463" d="M197 418q0 285 180 489q178 203 436 203q354 0 354 -350q0 -98 -32 -248h-725q-8 -59 -9 -98q0 -289 320 -289q150 0 346 65l-33 -155q-207 -59 -385 -60q-217 0 -336 115q-116 115 -116 328zM442 659h523q12 82 12 121q0 182 -199 183q-152 0 -241 -109 q-54 -66 -95 -195z" />
<glyph unicode="&#x2212;" horiz-adv-x="1193" vert-adv-y="2463" d="M209 518l29 148h987l-31 -148h-985z" />
<glyph unicode="&#x2215;" horiz-adv-x="339" vert-adv-y="2463" d="M-449 -37l1399 1555h135l-1398 -1555h-136z" />
<glyph unicode="&#x2219;" horiz-adv-x="567" vert-adv-y="2463" d="M260 492l49 245h246l-47 -245h-248z" />
<glyph unicode="&#x22c5;" horiz-adv-x="567" vert-adv-y="2463" d="M260 492l49 245h246l-47 -245h-248z" />
<glyph unicode="&#xe000;" horiz-adv-x="1085" vert-adv-y="2169" d="M0 1085h1085v-1085h-1085v1085z" />
<glyph unicode="&#xea01;" horiz-adv-x="1024" vert-adv-y="2463" d="M174 0l188 938h-143l31 147h141l29 132q80 387 383 387q66 0 143 -25l-33 -158q-70 35 -116 35q-133 0 -176 -219l-31 -152h522l-215 -1085h-199l189 938h-328l-186 -938h-199zM954 1282l41 199h197l-39 -199h-199z" />
<glyph unicode="&#xea02;" horiz-adv-x="1024" vert-adv-y="2463" d="M174 0l188 938h-143l29 147h143l27 132q77 387 381 387l215 -25h196l-313 -1579h-199l285 1432l-39 8q-74 16 -141 16q-78 0 -119 -47q-39 -49 -63 -172l-31 -152h178l-31 -147h-178l-186 -938h-199z" />
<glyph unicode="&#xf001;" horiz-adv-x="1024" vert-adv-y="2463" d="M174 0l188 938h-143l31 147h141l29 132q80 387 383 387q66 0 143 -25l-33 -158q-70 35 -116 35q-133 0 -176 -219l-31 -152h522l-215 -1085h-199l189 938h-328l-186 -938h-199zM954 1282l41 199h197l-39 -199h-199z" />
<glyph unicode="&#xfb01;" horiz-adv-x="1024" vert-adv-y="2463" d="M174 0l188 938h-143l31 147h141l29 132q80 387 383 387q66 0 143 -25l-33 -158q-70 35 -116 35q-133 0 -176 -219l-31 -152h522l-215 -1085h-199l189 938h-328l-186 -938h-199zM954 1282l41 199h197l-39 -199h-199z" />
<glyph unicode="&#xf002;" horiz-adv-x="1024" vert-adv-y="2463" d="M174 0l188 938h-143l29 147h143l27 132q77 387 381 387l215 -25h196l-313 -1579h-199l285 1432l-39 8q-74 16 -141 16q-78 0 -119 -47q-39 -49 -63 -172l-31 -152h178l-31 -147h-178l-186 -938h-199z" />
<glyph unicode="&#xfb02;" horiz-adv-x="1024" vert-adv-y="2463" d="M174 0l188 938h-143l29 147h143l27 132q77 387 381 387l215 -25h196l-313 -1579h-199l285 1432l-39 8q-74 16 -141 16q-78 0 -119 -47q-39 -49 -63 -172l-31 -152h178l-31 -147h-178l-186 -938h-199z" />
<glyph unicode="&#xf004;" horiz-adv-x="681" vert-adv-y="2463" d="M170 834l23 114l509 533h140l-107 -531h125l-24 -116h-123l-49 -242h-136l50 242h-408zM322 950h278l74 365z" />
<glyph unicode="&#xf6be;" horiz-adv-x="454" vert-adv-y="2463" d="M-231 -387l30 156q70 -39 142 -39q100 0 137 75q27 53 55 195l219 1085h197l-217 -1085q-84 -420 -406 -420q-79 0 -157 33z" />
<glyph horiz-adv-x="567" vert-adv-y="2463" />
<glyph horiz-adv-x="567" vert-adv-y="2463" />
<glyph horiz-adv-x="567" vert-adv-y="2463" />
<glyph horiz-adv-x="567" vert-adv-y="2463" />
<glyph horiz-adv-x="567" vert-adv-y="2463" />
<glyph horiz-adv-x="567" vert-adv-y="2463" />
<glyph horiz-adv-x="567" vert-adv-y="2463" />
<glyph horiz-adv-x="567" vert-adv-y="2463" />
<glyph horiz-adv-x="567" vert-adv-y="2463" />
<glyph horiz-adv-x="567" vert-adv-y="2463" />
<glyph horiz-adv-x="567" vert-adv-y="2463" />
<glyph horiz-adv-x="567" vert-adv-y="2463" />
<glyph horiz-adv-x="567" vert-adv-y="2463" />
<glyph vert-adv-y="1138" />
<glyph horiz-adv-x="567" vert-adv-y="2463" />
<glyph horiz-adv-x="567" vert-adv-y="2463" />
</font>
</defs>
</svg>
