<?xml version="1.0" standalone="no"?>
<!DOCTYPE svg PUBLIC "-//W3C//DTD SVG 1.1//EN" "http://www.w3.org/Graphics/SVG/1.1/DTD/svg11.dtd" >
<svg xmlns="http://www.w3.org/2000/svg">
<metadata>
This is a custom SVG webfont generated by Font Squirrel.
Copyright   : Copyright c 2001 by Bigelow  Holmes Inc Instructions copyright c 2001 by URW
Designer    : Kris Holmes and Charles Bigelow
Foundry     : Bigelow  Holmes Inc
Foundry URL : httpwwwurwppde
</metadata>
<defs>
<font id="webfontMmm2dE4L" horiz-adv-x="1138" vert-adv-y="2048" >
<font-face units-per-em="2048" ascent="1638" descent="-410" />
<missing-glyph horiz-adv-x="567" />
<glyph horiz-adv-x="0" vert-adv-y="0" />
<glyph horiz-adv-x="567" vert-adv-y="2504" />
<glyph unicode=" " horiz-adv-x="567" vert-adv-y="2504" />
<glyph unicode="!" horiz-adv-x="681" vert-adv-y="2504" d="M193 0l49 248h297l-50 -248h-296zM326 420l104 764l59 297h295l-59 -297l-201 -764h-198z" />
<glyph unicode="&#x22;" horiz-adv-x="970" vert-adv-y="2504" d="M362 987l68 592h297l-180 -592h-185zM807 987l67 592h297l-180 -592h-184z" />
<glyph unicode="#" vert-adv-y="2504" d="M111 426l59 147h213l149 334h-231l59 148h240l191 426h153l-192 -426h213l192 426h152l-191 -426h207l-59 -148h-215l-150 -334h232l-60 -147h-237l-193 -426h-151l190 426h-213l-190 -426h-154l192 426h-206zM537 573h213l149 334h-213z" />
<glyph unicode="$" vert-adv-y="2504" d="M115 78l43 219q170 -100 358 -113l94 475l-45 35q-129 98 -170 166q-41 66 -41 164q0 209 154 342q102 90 266 113l33 161h160l-31 -161q154 -10 281 -64l-41 -201q-180 92 -277 93l-88 -449l39 -31q221 -166 221 -346q0 -190 -172 -350q-111 -104 -260 -129l-33 -162 h-160l33 164q-143 0 -321 59zM618 1092q0 -94 80 -150l70 356q-66 -18 -98 -61q-52 -59 -52 -145zM647 197q162 53 162 219q0 92 -86 159z" />
<glyph unicode="%" horiz-adv-x="1820" vert-adv-y="2504" d="M221 -37l1475 1555h198l-1472 -1555h-201zM297 1014q0 203 123 334q123 133 311 133q289 0 289 -275q0 -199 -125 -334q-123 -133 -320 -133q-278 1 -278 275zM518 1022q0 -133 92 -133q66 0 119 74q68 100 68 235q0 133 -95 133q-74 0 -129 -92t-55 -217zM1098 274 q0 200 123 332q121 133 313 133q287 0 287 -272q0 -205 -123 -336t-320 -131q-280 0 -280 274zM1321 281q0 -133 92 -134q66 0 119 74q66 96 65 238q0 133 -94 133q-74 0 -129 -92q-53 -92 -53 -219z" />
<glyph unicode="&#x26;" horiz-adv-x="1478" vert-adv-y="2504" d="M131 352q0 219 170 371q104 92 299 172q-51 139 -51 240q0 158 139 270.5t338 112.5q150 0 238 -70q90 -70 90 -186q0 -152 -146 -273q-86 -70 -262 -149q84 -238 213 -445q131 145 187 430h249q-84 -344 -352 -579q68 -123 158 -246h-348l-49 80q-206 -117 -412 -117 q-211 0 -336 107q-125 104 -125 282zM430 424q0 -123 70 -195q72 -76 184 -75q115 0 229 69q-125 215 -219 459l-24 59q-106 -49 -162 -106q-78 -88 -78 -211zM834 1161q0 -71 43 -172l6 -12q221 111 221 250q0 104 -111 104q-68 0 -114 -49q-45 -47 -45 -121z" />
<glyph unicode="'" horiz-adv-x="485" vert-adv-y="2504" d="M338 963l61 616h322l-199 -616h-184z" />
<glyph unicode="(" horiz-adv-x="681" vert-adv-y="2504" d="M193 428q0 406 272 766q186 244 473 397l-37 -190q-190 -166 -303 -404q-145 -307 -145 -643q0 -276 145 -471l-39 -190q-168 106 -254 260q-112 201 -112 475z" />
<glyph unicode=")" horiz-adv-x="681" vert-adv-y="2504" d="M0 -307l39 190q193 168 303 402q143 301 143 645q0 182 -53 313q-37 88 -90 158l39 190q166 -104 254 -260q113 -201 113 -475q0 -401 -275 -766q-182 -241 -473 -397z" />
<glyph unicode="*" horiz-adv-x="796" vert-adv-y="2504" d="M256 1118l106 205l205 -141q-47 -41 -53 -101zM262 862l254 203q18 -51 74 -64l-178 -266zM584 1192l2 289h217l-115 -289q-25 12 -49 12t-55 -12zM608 1001q61 12 97 64l174 -203l-199 -127zM702 1182l261 141l24 -205l-272 -37q8 29 8 41q-1 33 -21 60z" />
<glyph unicode="+" horiz-adv-x="1193" vert-adv-y="2504" d="M207 506l33 174h407l82 405h172l-82 -405h408l-33 -174h-408l-81 -408h-173l80 408h-405z" />
<glyph unicode="," horiz-adv-x="567" vert-adv-y="2504" d="M59 -322l23 111q127 0 160 178l6 33h-123l63 322h322l-51 -250q-81 -394 -400 -394z" />
<glyph unicode="-" horiz-adv-x="681" vert-adv-y="2504" d="M182 543l37 184h535l-37 -184h-535z" />
<glyph unicode="." horiz-adv-x="567" vert-adv-y="2504" d="M125 0l63 322h322l-66 -322h-319z" />
<glyph unicode="/" horiz-adv-x="567" vert-adv-y="2504" d="M-131 -297l889 1778h180l-889 -1778h-180z" />
<glyph unicode="0" vert-adv-y="2504" d="M205 473q0 412 203 727q203 317 471 318q170 0 266 -133.5t96 -370.5q0 -215 -74 -447q-70 -221 -188 -372q-184 -231 -418 -232q-150 0 -242 107q-114 137 -114 403zM500 346q0 -199 104 -199q117 0 205 252q51 141 96 385q39 201 39 351q0 197 -102 196 q-125 0 -219 -295q-51 -158 -88 -366q-35 -197 -35 -324z" />
<glyph unicode="1" vert-adv-y="2504" d="M182 0l33 172h297l219 1094l-311 -74l37 176l620 150l-268 -1346h297l-37 -172h-887z" />
<glyph unicode="2" vert-adv-y="2504" d="M78 0l47 233q108 141 252 265l123 104l141 121q170 143 223 231q57 90 58 211q0 160 -181 160q-145 0 -383 -108l43 217q252 84 430 84q406 0 406 -330q0 -152 -86 -279q-94 -133 -303 -282l-115 -82q-225 -164 -274 -312h594l-47 -233h-928z" />
<glyph unicode="3" vert-adv-y="2504" d="M139 10l45 223q209 -86 316 -86q147 0 225 89q76 86 76 227q0 132 -92 184q-74 43 -205 43h-39h-53l34 176q229 4 330 64q127 74 127 252q0 152 -182 151q-150 0 -313 -84l38 201q197 68 373 68q395 0 395 -293q0 -181 -147 -301q-82 -68 -260 -129q84 -20 145 -56 q156 -94 156 -270q0 -211 -182 -358q-184 -147 -451 -148q-166 0 -336 47z" />
<glyph unicode="4" vert-adv-y="2504" d="M111 395l45 221l800 865h273l-174 -865h137l-45 -221h-135l-80 -395h-258l78 395h-641zM391 616h412l115 580z" />
<glyph unicode="5" vert-adv-y="2504" d="M184 6l43 213q139 -72 252 -72q133 0 223.5 102.5t90.5 250.5q0 246 -324 245q-59 0 -111 -8l150 744h774l-47 -236h-559l-80 -317q227 -4 354 -82q164 -100 164 -303q0 -246 -184 -412q-186 -168 -451 -168q-95 0 -295 43z" />
<glyph unicode="6" vert-adv-y="2504" d="M166 453q0 461 268 784q231 281 557 281q117 0 293 -48l-43 -215q-180 78 -276 78q-184 0 -308 -178q-86 -123 -133 -346q156 143 328 143q322 0 322 -334q0 -272 -173 -462q-174 -193 -426 -193q-409 1 -409 490zM459 356q0 -209 164 -209q113 0 194 132q80 131 80 309 q0 182 -143 182q-121 0 -207 -123q-88 -125 -88 -291z" />
<glyph unicode="7" vert-adv-y="2504" d="M176 0q55 166 166 334q109 164 406 526l309 379h-697l50 242h938l-50 -242q-670 -737 -792 -1239h-330z" />
<glyph unicode="8" vert-adv-y="2504" d="M160 276q0 174 108 308q78 96 262 213q-57 57 -92 112q-43 74 -43 156q0 193 148 321q145 131 375 132q346 0 346 -273q0 -145 -113 -274q-68 -80 -193 -158q98 -77 148 -141q72 -94 72 -193q0 -207 -181 -362q-178 -154 -430 -154q-190 0 -298.5 81.5t-108.5 231.5z M446 324q0 -178 187 -179q113 0 186 74q76 80 76 180q0 86 -145 217l-93 82q-211 -173 -211 -374zM664 1133q0 -88 112 -193l10 -10q2 -2 8.5 -7t10.5 -10l8 -10l8 -6q178 127 178 309q0 125 -133 125q-88 0 -145 -57t-57 -141z" />
<glyph unicode="9" vert-adv-y="2504" d="M152 8l43 217q184 -78 276 -78q184 0 307 177q88 129 133 348q-158 -145 -327 -146q-322 0 -322 336q0 272 172 463q174 193 426 193q199 0 303 -117q106 -119 107 -375q0 -457 -269 -784q-229 -279 -557 -279q-124 0 -292 45zM541 893q0 -184 143 -184q121 0 207 122.5 t86 290.5q0 211 -164 211q-115 0 -195 -131q-77 -129 -77 -309z" />
<glyph unicode=":" horiz-adv-x="681" vert-adv-y="2504" d="M193 0l59 297h297l-60 -297h-296zM352 803l62 295h295l-60 -295h-297z" />
<glyph unicode=";" horiz-adv-x="681" vert-adv-y="2504" d="M129 -322l23 111q117 31 147 180l4 31h-110l59 297h297l-45 -223q-74 -369 -375 -396zM352 803l62 295h295l-60 -295h-297z" />
<glyph unicode="&#x3c;" horiz-adv-x="1193" vert-adv-y="2504" d="M223 592l1086 493l-39 -192l-660 -299v-2l541 -299l-41 -195z" />
<glyph unicode="=" horiz-adv-x="1193" vert-adv-y="2504" d="M166 309l35 172h987l-35 -172h-987zM246 702l33 175h987l-33 -175h-987z" />
<glyph unicode="&#x3e;" horiz-adv-x="1193" vert-adv-y="2504" d="M125 98l39 195l657 299v2l-538 299l39 192l888 -493z" />
<glyph unicode="?" horiz-adv-x="1249" vert-adv-y="2504" d="M342 1231l43 225q262 61 500 62q500 0 499 -283q0 -127 -65 -207q-61 -76 -250 -178l-92 -51q-90 -49 -129 -107q-41 -59 -66 -188l-16 -84h-297l6 26q25 121 84 203q58 80 191 166l114 74q188 121 189 280q0 152 -244 152q-225 0 -467 -90zM387 0l49 248h295l-49 -248 h-295z" />
<glyph unicode="@" horiz-adv-x="1996" vert-adv-y="2504" d="M309 463q0 301 275 622q180 209 401 318q233 115 465 115q236 0 387.5 -139.5t151.5 -360.5q0 -281 -203 -502q-201 -219 -461 -219q-143 0 -143 84q0 49 104 254h-20q-100 -137 -213 -225q-145 -113 -258 -113q-137 0 -138 164q0 223 230 477q209 233 409 233 q27 0 70 -6q51 -8 131 -8h133l-221 -557q-35 -86 -35 -121q0 -45 68 -45q141 0 276 180.5t135 370.5q0 178 -122 291q-121 113 -320 113q-416 0 -731 -371q-238 -279 -238 -533q0 -184 115 -288.5t315 -104.5q147 0 322 72l20 -119q-195 -82 -370 -82q-250 0 -391 133 q-144 131 -144 367zM848 526q0 -76 49 -75q53 0 164 96q125 109 260 276l76 187q-74 37 -137 37q-164 0 -299 -216q-113 -180 -113 -305z" />
<glyph unicode="A" horiz-adv-x="1478" vert-adv-y="2504" d="M12 0l871 1481h307l276 -1481h-315l-72 395h-612l-229 -395h-226zM584 592h458l-112 590z" />
<glyph unicode="B" horiz-adv-x="1478" vert-adv-y="2504" d="M172 0l297 1481h717q395 0 395 -273q0 -168 -147 -290q-100 -86 -289 -146q135 -35 211 -90q131 -92 131 -252q0 -188 -151.5 -309t-399.5 -121h-764zM506 211h278q209 0 295 53q88 55 88 176q0 104 -82 166q-80 59 -215 60h-274zM637 864h285q144 0 239 80q96 80 96 203 q0 88 -77 113q-61 18 -187 18h-274z" />
<glyph unicode="C" horiz-adv-x="1478" vert-adv-y="2504" d="M221 545q0 379 232 659q139 166 315 240q178 74 449 74q246 0 481 -58l-49 -241q-264 96 -451 96q-313 0 -483 -228q-162 -217 -162 -499q0 -412 442 -412q229 0 482 111l-45 -228q-248 -96 -549 -96q-662 0 -662 582z" />
<glyph unicode="D" horiz-adv-x="1478" vert-adv-y="2504" d="M172 0l297 1481h516q588 0 588 -525q0 -344 -209 -620q-256 -336 -702 -336h-490zM522 211h111q309 0 463 227q141 209 141 463q0 377 -360 377h-140z" />
<glyph unicode="E" horiz-adv-x="1363" vert-adv-y="2504" d="M172 0l297 1481h1085l-41 -203h-776l-84 -414h668l-41 -198h-666l-92 -455h826l-41 -211h-1135z" />
<glyph unicode="F" horiz-adv-x="1249" vert-adv-y="2504" d="M172 0l297 1481h1032l-41 -203h-723l-90 -451h613l-41 -204h-613l-125 -623h-309z" />
<glyph unicode="G" horiz-adv-x="1591" vert-adv-y="2504" d="M221 545q0 373 232 657q145 174 317 242q180 74 469 74q274 0 510 -58l-47 -241q-295 96 -504 96q-313 0 -481 -228q-164 -223 -164 -505q0 -412 436 -412q84 0 199 14l65 332h-249l38 203h560l-138 -684q-305 -74 -532 -74q-371 0 -541 139.5t-170 444.5z" />
<glyph unicode="H" horiz-adv-x="1478" vert-adv-y="2504" d="M172 0l297 1481h309l-121 -602h517l120 602h308l-295 -1481h-310l136 676h-517l-135 -676h-309z" />
<glyph unicode="I" horiz-adv-x="567" vert-adv-y="2504" d="M129 0l297 1481h309l-297 -1481h-309z" />
<glyph unicode="J" vert-adv-y="2504" d="M-74 -244l43 221q199 -63 367 -63q156 0 221 57q70 59 100 213l261 1297h307l-252 -1264q-55 -266 -213 -391q-157 -123 -449 -123q-166 0 -385 53z" />
<glyph unicode="K" horiz-adv-x="1478" vert-adv-y="2504" d="M172 0l297 1481h297l-145 -719l759 719h256l-694 -666l522 -815h-385l-465 727l-145 -727h-297z" />
<glyph unicode="L" horiz-adv-x="1249" vert-adv-y="2504" d="M172 0l297 1481h309l-256 -1270h754l-43 -211h-1061z" />
<glyph unicode="M" horiz-adv-x="1705" vert-adv-y="2504" d="M172 0l297 1481h408l84 -1043l512 1043h358l-297 -1481h-285l226 1116l-502 -1018h-248l-84 1035l-225 -1133h-244z" />
<glyph unicode="N" horiz-adv-x="1478" vert-adv-y="2504" d="M172 0l297 1481h270l414 -1012l203 1012h246l-295 -1481h-277l-407 1012l-203 -1012h-248z" />
<glyph unicode="O" horiz-adv-x="1591" vert-adv-y="2504" d="M219 541q0 371 225 657q248 319 668 320q582 0 582 -580q0 -369 -228 -657q-248 -317 -682 -318q-565 0 -565 578zM545 545q0 -379 289 -379q184 0 315 143q100 109 160 277q57 158 57 348q0 381 -299 381q-218 0 -369 -228q-153 -227 -153 -542z" />
<glyph unicode="P" horiz-adv-x="1363" vert-adv-y="2504" d="M172 0l297 1481h602q276 0 378.5 -61.5t102.5 -229.5q0 -279 -200 -445q-203 -166 -547 -165h-213l-117 -580h-303zM633 782h143q212 0 332 86q119 86 119 238q0 113 -76 143q-68 29 -215 29h-205z" />
<glyph unicode="Q" horiz-adv-x="1591" vert-adv-y="2504" d="M219 543q0 365 225 655q248 319 668 320q580 0 580 -580q0 -336 -181 -598q-123 -176 -342 -305q274 -102 564 -133l-240 -199q-375 104 -594 264q-59 -4 -123 -4q-270 0 -413.5 149.5t-143.5 430.5zM547 541q0 -373 297 -373q221 0 370 225q152 229 152 543 q0 379 -299 379q-218 0 -369 -228q-151 -229 -151 -546z" />
<glyph unicode="R" horiz-adv-x="1478" vert-adv-y="2504" d="M172 0l297 1481h645q385 0 385 -289q0 -180 -137 -332q-98 -106 -242 -170l346 -690h-346l-295 604h-241l-121 -604h-291zM625 809h161q174 0 283 88q113 90 113 221q0 160 -267 160h-196z" />
<glyph unicode="S" horiz-adv-x="1363" vert-adv-y="2504" d="M104 12l50 252q276 -98 505 -98q175 0 271 55q113 66 112 195q0 92 -98 131l-127 51l-149 61q-209 88 -283 158q-78 74 -78 195q0 238 182 370q182 135 527 136q238 0 463 -52l-47 -233q-225 82 -451 82q-180 0 -270 -51q-84 -49 -84 -154q0 -51 53 -92q37 -25 84 -45 l104 -45l156 -64q178 -72 268 -157.5t90 -198.5q0 -174 -112 -318q-180 -227 -692 -227q-141 0 -322 27z" />
<glyph unicode="T" horiz-adv-x="1249" vert-adv-y="2504" d="M295 1278l41 203h1171l-41 -203h-430l-256 -1278h-309l256 1278h-432z" />
<glyph unicode="U" horiz-adv-x="1478" vert-adv-y="2504" d="M250 352q0 90 26 221l183 908h309l-182 -908q-23 -117 -23 -188q0 -217 234 -217q289 0 364 383l187 930h268l-182 -910q-41 -209 -101 -313q-61 -109 -180 -186q-168 -109 -401 -109q-231 0 -366.5 104.5t-135.5 284.5z" />
<glyph unicode="V" horiz-adv-x="1363" vert-adv-y="2504" d="M322 1481h327l168 -1106l592 1106h229l-790 -1481h-309z" />
<glyph unicode="W" horiz-adv-x="1931" vert-adv-y="2504" d="M322 1481h290l66 -1084l496 1084h256l38 -1088l519 1088h219l-709 -1481h-295l-37 1016l-467 -1016h-292z" />
<glyph unicode="X" horiz-adv-x="1363" vert-adv-y="2504" d="M49 0l621 729l-303 752h358l203 -500l424 500h250l-594 -699l313 -782h-358l-215 528l-449 -528h-250z" />
<glyph unicode="Y" horiz-adv-x="1363" vert-adv-y="2504" d="M324 1481h342l229 -627l496 627h243l-682 -858l-125 -623h-309l125 621z" />
<glyph unicode="Z" horiz-adv-x="1249" vert-adv-y="2504" d="M94 0l41 211l920 1067h-664l41 203h1022l-41 -203l-919 -1067h706l-43 -211h-1063z" />
<glyph unicode="[" horiz-adv-x="681" vert-adv-y="2504" d="M100 -297l375 1876h463l-35 -172h-217l-305 -1530h217l-37 -174h-461z" />
<glyph unicode="\" horiz-adv-x="567" vert-adv-y="2504" d="M223 1481h180l179 -1778h-181z" />
<glyph unicode="]" horiz-adv-x="681" vert-adv-y="2504" d="M0 -297l35 174h217l305 1530h-215l35 172h461l-375 -1876h-463z" />
<glyph unicode="^" horiz-adv-x="1193" vert-adv-y="2504" d="M272 592l623 889l266 -889h-192l-152 500h-2l-348 -500h-195z" />
<glyph unicode="_" vert-adv-y="2504" d="M-33 -160l33 160h1139l-31 -160h-1141z" />
<glyph unicode="`" horiz-adv-x="681" vert-adv-y="2504" d="M406 1604h272l176 -322h-190z" />
<glyph unicode="a" vert-adv-y="2504" d="M125 223q0 203 164 326q160 121 440 121h80l20 100q8 35 9 68q0 102 -148 102q-152 0 -350 -96l41 203q201 76 397 75q348 0 348 -239q0 -47 -12 -103l-96 -485q-8 -35 -8 -64q0 -66 63 -65q12 0 41 4l-24 -168q-100 -27 -175 -27q-174 0 -204 144h-13 q-141 -143 -307 -144q-121 0 -192 66q-74 65 -74 182zM420 289q0 -113 117 -113q102 0 194 100l43 224h-69q-129 0 -207 -57.5t-78 -153.5z" />
<glyph unicode="b" horiz-adv-x="1249" vert-adv-y="2504" d="M147 0l318 1579h295l-131 -664q203 207 389 207q287 0 287 -377q0 -326 -189 -548q-186 -221 -461 -222q-82 0 -211 25h-297zM479 176q115 -18 164 -18q150 0 246 157.5t96 395.5q0 180 -129 180q-119 0 -268 -174z" />
<glyph unicode="c" vert-adv-y="2504" d="M178 416q0 313 209 509.5t551 196.5q164 0 334 -43l-43 -213q-207 59 -314 60q-178 0 -298.5 -137.5t-120.5 -337.5q0 -281 295 -281q119 0 319 59l-41 -204q-227 -49 -387 -50q-504 1 -504 441z" />
<glyph unicode="d" horiz-adv-x="1249" vert-adv-y="2504" d="M170 352q0 326 188 549q186 221 463 221q76 0 209 -24l96 481h297l-315 -1579h-297l37 182q-203 -207 -389 -207q-289 0 -289 377zM489 387q0 -180 129 -180q117 0 271 176l106 539q-111 18 -161 18q-152 0 -248.5 -157.5t-96.5 -395.5z" />
<glyph unicode="e" vert-adv-y="2504" d="M180 426q0 291 184.5 493.5t448.5 202.5q356 0 356 -362q0 -98 -30 -271h-645q-6 -49 -7 -69q0 -244 271 -244q133 0 332 70l-41 -209q-203 -61 -381 -62q-488 0 -488 451zM522 657h359q14 72 14 136q0 145 -119 145q-162 0 -254 -281z" />
<glyph unicode="f" horiz-adv-x="681" vert-adv-y="2504" d="M168 0l182 913h-114l36 185h115l16 80q86 426 474 426q82 0 176 -25l-37 -193q-74 33 -142 33q-127 0 -174 -231l-18 -90h186l-37 -185h-186l-182 -913h-295z" />
<glyph unicode="g" horiz-adv-x="1249" vert-adv-y="2504" d="M55 -342l45 219q207 -88 357 -88q309 0 366 297l25 121q-203 -207 -389 -207q-289 0 -289 377q0 307 199 543q172 203 446 202q78 0 211 -24h297l-168 -838q-53 -260 -102 -362q-53 -113 -156 -189q-176 -129 -440 -129q-195 0 -402 78zM492 414q0 -182 126 -183 q117 0 271 177l102 514q-111 18 -164 18q-147 0 -241 -149.5t-94 -376.5z" />
<glyph unicode="h" horiz-adv-x="1249" vert-adv-y="2504" d="M147 0l318 1579h295l-133 -664q219 207 420 207q238 0 237 -217q0 -72 -12 -129l-156 -776h-297l142 702q14 66 14 105q0 84 -94 84q-119 0 -293 -174l-144 -717h-297z" />
<glyph unicode="i" horiz-adv-x="567" vert-adv-y="2504" d="M137 0l219 1098h297l-221 -1098h-295zM393 1282l49 248h297l-49 -248h-297z" />
<glyph unicode="j" horiz-adv-x="567" vert-adv-y="2504" d="M-229 -379l39 199q96 -53 149 -53q74 0 113 49q37 45 65 184l219 1098h297l-215 -1080q-86 -438 -473 -438q-83 0 -194 41zM371 1282l49 248h295l-49 -248h-295z" />
<glyph unicode="k" vert-adv-y="2504" d="M147 0l318 1579h295l-199 -993h19l448 512h246l-418 -477l274 -621h-317l-240 549h-18l-111 -549h-297z" />
<glyph unicode="l" horiz-adv-x="567" vert-adv-y="2504" d="M137 0l316 1579h297l-318 -1579h-295z" />
<glyph unicode="m" horiz-adv-x="1820" vert-adv-y="2504" d="M147 0l222 1098h295l-35 -183q182 207 379 207q117 0 176 -59q49 -47 63 -150q78 96 150 142q108 68 233 67q223 0 223 -217q0 -65 -12 -129l-155 -776h-297l141 702q14 70 14 113q0 76 -80 76q-121 0 -256 -174l-143 -717h-297l141 702q16 86 17 113q0 76 -80 76 q-123 0 -258 -174l-144 -717h-297z" />
<glyph unicode="n" horiz-adv-x="1249" vert-adv-y="2504" d="M147 0l222 1098h295l-37 -183q219 207 420 207q238 0 237 -217q0 -72 -12 -129l-156 -776h-297l142 702q14 66 14 105q0 84 -94 84q-119 0 -293 -174l-144 -717h-297z" />
<glyph unicode="o" horiz-adv-x="1249" vert-adv-y="2504" d="M180 414q0 295 199 504q197 205 485 204q215 0 330 -112q119 -115 119 -326q0 -295 -199 -504q-197 -205 -487 -205q-193 0 -305 95q-142 114 -142 344zM496 403q0 -244 172 -243q119 0 211 127q121 168 120 405q0 246 -174 246q-133 0 -231 -160t-98 -375z" />
<glyph unicode="p" horiz-adv-x="1249" vert-adv-y="2504" d="M70 -395l299 1493h295l-35 -183q203 207 389 207q287 0 287 -377q0 -326 -189 -548q-186 -221 -461 -222q-82 0 -211 25l-79 -395h-295zM479 176q111 -18 164 -18q150 0 246 157.5t96 395.5q0 180 -129 180q-119 0 -268 -174z" />
<glyph unicode="q" horiz-adv-x="1249" vert-adv-y="2504" d="M170 352q0 326 188 549q186 221 463 221q76 0 209 -24h297l-299 -1493h-297l117 577q-203 -207 -389 -207q-289 0 -289 377zM489 387q0 -180 129 -180q117 0 271 176l106 539q-111 18 -161 18q-152 0 -248.5 -157.5t-96.5 -395.5z" />
<glyph unicode="r" horiz-adv-x="796" vert-adv-y="2504" d="M172 0l221 1098h295l-37 -183q133 207 287 207q25 0 49 -6l-51 -262q-55 23 -90 23q-114 0 -234 -154l-143 -723h-297z" />
<glyph unicode="s" vert-adv-y="2504" d="M131 37l43 215q215 -92 375 -92q115 0 178 37q63 39 64 100q0 63 -150 127l-90 41q-170 74 -219 123q-51 51 -51 139q0 180 145 289q143 106 391 106q156 0 350 -39l-41 -202q-209 57 -319 57q-106 0 -163.5 -33t-57.5 -94q0 -57 137 -115l78 -32q184 -78 241 -132 q66 -59 66 -153q0 -176 -162 -291q-162 -113 -424 -113q-194 1 -391 62z" />
<glyph unicode="t" horiz-adv-x="681" vert-adv-y="2504" d="M217 209q0 61 14 127l117 577h-98l37 185h98l37 184l303 35l-43 -219h197l-37 -185h-199l-106 -538q-18 -88 -19 -127q0 -76 84 -76q27 0 103 14l-37 -186q-120 -25 -197 -25q-254 1 -254 234z" />
<glyph unicode="u" horiz-adv-x="1249" vert-adv-y="2504" d="M186 195q0 51 15 127l155 776h295l-139 -703q-14 -76 -14 -102q0 -84 92 -84q121 0 295 174l141 715h297l-219 -1098h-295l35 182q-219 -207 -420 -207q-238 1 -238 220z" />
<glyph unicode="v" vert-adv-y="2504" d="M246 1098h311l123 -772l434 772h219l-616 -1098h-297z" />
<glyph unicode="w" horiz-adv-x="1591" vert-adv-y="2504" d="M281 1098h268l31 -768l346 768h256l14 -772l356 772h199l-506 -1098h-282l-15 754l-338 -754h-282z" />
<glyph unicode="x" vert-adv-y="2504" d="M47 0l469 551l-231 547h336l147 -348l276 348h240l-432 -541l238 -557h-336l-156 362l-305 -362h-246z" />
<glyph unicode="y" vert-adv-y="2504" d="M92 -395l328 395l-174 1098h311l113 -711l444 711h219l-938 -1493h-303z" />
<glyph unicode="z" horiz-adv-x="1024" vert-adv-y="2504" d="M111 0l39 197l614 716h-442l36 185h775l-37 -185l-615 -716h484l-39 -197h-815z" />
<glyph unicode="{" horiz-adv-x="796" vert-adv-y="2504" d="M207 543l41 196h61q174 0 174 242v33l-6 92v6v16v9q4 440 512 442l-35 -172q-113 0 -166 -41q-55 -45 -57 -178l-4 -86q-6 -150 -45 -228q-74 -150 -231 -233q141 -98 141 -246q0 -92 -47 -215l-33 -86q-31 -82 -31 -119q0 -96 168 -98l-35 -174q-160 2 -254 43 q-131 61 -131 201q0 92 64 231l41 92q51 111 51 174q0 98 -115 99h-63z" />
<glyph unicode="|" horiz-adv-x="571" vert-adv-y="2504" d="M141 -297l375 1876h172l-375 -1876h-172z" />
<glyph unicode="}" horiz-adv-x="796" vert-adv-y="2504" d="M63 -297l35 174q115 0 166 39q55 45 58 178l4 86q6 152 45 230q70 145 231 231q-141 98 -141 246q0 92 49 217l31 84q31 82 30 121q0 96 -168 98l35 172q158 -2 252 -43q131 -61 131 -199q0 -96 -61 -231l-41 -92q-51 -113 -51 -176q0 -98 114 -99h64l-39 -196h-64 q-174 0 -174 -240v-33l6 -92v-2v-18v-15l3 -63q0 -18 -27 -103q-27 -82 -76 -135q-90 -100 -252 -127q-52 -9 -160 -12z" />
<glyph unicode="~" horiz-adv-x="1193" vert-adv-y="2504" d="M170 444q33 123 61 172q100 174 299 175q115 0 209 -78l72 -60q78 -66 168 -65q139 0 172 151h113q-33 -117 -64 -170q-102 -176 -299 -176q-115 0 -209 78l-69 59q-80 68 -168 68q-139 0 -174 -154h-111z" />
<glyph vert-adv-y="2504" d="M96 481l97 172h67q18 121 41 199h-131l96 172h101q66 131 127 209q227 285 600 285q143 0 266 -37l-43 -215q-113 55 -242 55q-156 0 -274 -109q-72 -66 -139 -188h518l-97 -172h-487q-23 -86 -39 -199h416l-99 -172h-321q18 -172 72 -235q68 -86 233 -86q111 0 248 53 l-41 -205q-135 -45 -303 -45q-250 0 -377 133q-82 84 -113 226q-10 45 -20 159h-156z" />
<glyph unicode="&#xa0;" horiz-adv-x="567" vert-adv-y="2504" />
<glyph unicode="&#xa1;" horiz-adv-x="681" vert-adv-y="2504" d="M193 0l59 297l203 764h196l-102 -764l-60 -297h-296zM440 1235l49 246h295l-49 -246h-295z" />
<glyph unicode="&#xa2;" vert-adv-y="2504" d="M287 604q0 346 225 553q152 141 401 170l29 154h150l-31 -156q115 -8 223 -41l-43 -215q-117 59 -219 66l-152 -760q123 10 242 53l-39 -201q-115 -37 -242 -47l-36 -180h-148l35 176q-117 12 -178 37q-217 92 -217 391zM578 643q0 -119 55 -186q29 -37 92 -66l149 739 q-120 -40 -196 -147q-100 -143 -100 -340z" />
<glyph unicode="&#xa3;" vert-adv-y="2504" d="M102 0l48 233q205 45 253 283l35 180h-164l37 187h164l35 170q92 465 547 465q90 0 258 -25l-41 -203q-119 41 -219 41q-193 0 -236 -213l-47 -235h195l-37 -187h-195q-37 -194 -98 -282q-66 -94 -211 -181h637l-47 -233h-914z" />
<glyph unicode="&#xa4;" vert-adv-y="2504" d="M61 295l238 199q-35 82 -35 159q0 166 133 334l-157 199l145 121l160 -197q139 74 262 74q121 0 231 -74l238 197l98 -121l-237 -199q33 -80 32 -162q0 -164 -133 -331l160 -199l-147 -123l-158 199q-137 -74 -262 -74t-232 74l-237 -199zM492 696q0 -76 51 -127t129 -51 q106 0 188 80q84 80 84 184q0 78 -51 129.5t-129 51.5q-94 0 -172 -66q-100 -86 -100 -201z" />
<glyph unicode="&#xa5;" vert-adv-y="2504" d="M236 301l28 150h248l29 147h-246l29 147h247l-274 736h342l186 -500l385 500h226l-570 -736h248l-31 -147h-245l-29 -147h246l-31 -150h-246l-59 -301h-297l59 301h-245z" />
<glyph unicode="&#xa6;" horiz-adv-x="788" vert-adv-y="2504" d="M250 -297l147 741h172l-147 -741h-172zM475 840l150 739h172l-148 -739h-174z" />
<glyph unicode="&#xa7;" vert-adv-y="2504" d="M94 -279l43 220q213 -88 361 -88q115 0 184.5 45t69.5 116.5t-134 141.5l-124 65q-236 125 -236 305.5t203 370.5q-96 84 -96 201q0 174 153.5 297t378.5 123q150 0 336 -41l-41 -205q-166 59 -311 59q-117 0 -187 -45q-70 -43 -69 -112q0 -68 116 -127l109 -56 q147 -72 205 -139q57 -66 57 -172q0 -176 -201 -381q98 -86 99 -213q0 -193 -156 -305q-158 -115 -416 -115q-147 0 -344 55zM487 645q0 -94 150 -176l168 -94q84 98 84 180q0 86 -146 166l-174 96q-82 -90 -82 -172z" />
<glyph unicode="&#xa8;" horiz-adv-x="681" vert-adv-y="2504" d="M276 1282l46 223h221l-43 -223h-224zM696 1282l45 223h222l-45 -223h-222z" />
<glyph unicode="&#xa9;" horiz-adv-x="1507" vert-adv-y="2504" d="M154 596q0 344 276.5 614.5t628.5 270.5q260 0 434 -170q172 -168 172 -428q0 -340 -279 -613q-280 -270 -632 -270q-233 0 -396 137q-204 174 -204 459zM283 631q0 -227 137 -367q138 -141 362 -141q319 0 541 244q213 231 213 483q0 227 -137 367q-137 141 -367 141 q-285 0 -520 -225q-229 -223 -229 -502zM502 651q0 217 147 363q150 147 377 147q113 0 262 -35l-24 -127q-132 55 -240 56q-141 0 -244 -115q-100 -115 -100 -272q0 -231 248 -232q126 0 233 49l-24 -125q-154 -43 -277 -43q-166 0 -262 90t-96 244z" />
<glyph unicode="&#xaa;" horiz-adv-x="757" vert-adv-y="2504" d="M254 981q0 125 104 199q106 72 289 71h49l9 47q4 20 4 29q0 66 -105 66q-113 0 -225 -60l29 142q133 43 260 43q254 0 254 -154q0 -23 -7 -53l-57 -291q-2 -6 -2 -25q0 -35 33 -34q2 0 22 4l-24 -127q-59 -14 -115 -15q-119 0 -145 76h-13q-94 -76 -192 -76 q-168 0 -168 158zM469 1022q0 -59 59 -59q55 0 121 57l23 113h-45q-158 0 -158 -111z" />
<glyph unicode="&#xab;" vert-adv-y="2504" d="M174 549l506 444l117 -108l-328 -336l193 -338l-160 -107zM631 549l506 444l116 -104l-329 -340l194 -338l-160 -107z" />
<glyph unicode="&#xac;" horiz-adv-x="1193" vert-adv-y="2504" d="M248 717l35 172h987l-119 -592h-172l84 420h-815z" />
<glyph unicode="&#xad;" horiz-adv-x="681" vert-adv-y="2504" d="M182 543l37 184h535l-37 -184h-535z" />
<glyph unicode="&#xae;" horiz-adv-x="1507" vert-adv-y="2504" d="M158 596q0 344 276.5 614.5t628.5 270.5q258 0 432 -170q172 -168 172 -428q0 -342 -276 -613q-280 -270 -633 -270q-233 0 -396 137q-204 174 -204 459zM285 631q0 -223 139 -367q137 -141 360 -141q319 0 541 244q215 233 215 483q0 227 -137 367q-137 141 -369 141 q-283 0 -518 -225q-231 -226 -231 -502zM555 342l162 803h348q207 0 207 -160q0 -176 -205 -268l152 -375h-187l-125 328h-129l-65 -328h-158zM801 780h88q94 0 153.5 47t59.5 121q0 86 -144 86h-106z" />
<glyph unicode="&#xaf;" vert-adv-y="2504" d="M367 1444l30 160h983l-30 -160h-983z" />
<glyph unicode="&#xb0;" horiz-adv-x="817" vert-adv-y="2504" d="M375 1251q0 137 110 244q113 109 252 109q104 0 172 -68q70 -70 70 -170q0 -137 -112.5 -245.5t-250.5 -108.5q-95 0 -159 55q-82 69 -82 184zM526 1278q0 -119 119 -119q63 0 115 43q68 58 67 135q0 119 -116 119q-76 0 -129 -53q-56 -55 -56 -125z" />
<glyph unicode="&#xb1;" horiz-adv-x="1193" vert-adv-y="2504" d="M104 0l35 172h987l-34 -172h-988zM236 653l32 174h408l72 357h174l-72 -357h405l-32 -174h-408l-72 -356h-174l72 356h-405z" />
<glyph unicode="&#xb2;" horiz-adv-x="681" vert-adv-y="2504" d="M160 606l33 170q111 96 120 105l90 67q168 127 226 199q55 68 55 141q0 94 -129 94q-100 0 -248 -61l31 149q166 47 299 48q132 0 209 -56q78 -55 78 -145q0 -104 -76 -187q-55 -58 -178 -147l-78 -53q-137 -96 -168 -154h397l-33 -170h-628z" />
<glyph unicode="&#xb3;" horiz-adv-x="681" vert-adv-y="2504" d="M160 614l30 150q127 -51 224 -51q86 0 137 45q53 41 53 112q0 137 -223 138h-62l27 127h45q274 0 275 163q0 92 -119 93q-106 0 -230 -52l27 136q156 43 279 43q276 0 276 -181q0 -178 -252 -258q188 -49 189 -198q0 -131 -117 -213q-115 -82 -309 -82q-117 -1 -250 28z " />
<glyph unicode="&#xb4;" horiz-adv-x="681" vert-adv-y="2504" d="M342 1282l303 322h273l-386 -322h-190z" />
<glyph unicode="&#xb5;" horiz-adv-x="1249" vert-adv-y="2504" d="M70 -395l299 1493h295l-136 -678q-12 -55 -12 -92q0 -113 107 -113q113 0 274 193l137 690h295l-153 -770q-20 -96 -21 -201q0 -57 16 -127h-319q-2 25 -2 68q0 55 6 139q-131 -225 -299 -225q-65 0 -111 30l-81 -407h-295z" />
<glyph unicode="&#xb6;" vert-adv-y="2504" d="M301 1059q0 162 92 278q68 84 150 113q86 31 248 31h450l-356 -1778h-160l328 1643h-148l-327 -1643h-160l207 1036q-100 18 -158 43q-166 80 -166 277z" />
<glyph unicode="&#xb7;" horiz-adv-x="567" vert-adv-y="2504" d="M217 469l64 319h321l-63 -319h-322z" />
<glyph unicode="&#xb8;" horiz-adv-x="681" vert-adv-y="2504" d="M43 -401l16 90q63 -14 117 -15q133 0 133 70q0 74 -180 74h-20l157 182h137l-98 -113q203 -25 203 -137q0 -72 -86 -127t-197 -55q-82 0 -182 31z" />
<glyph unicode="&#xb9;" horiz-adv-x="681" vert-adv-y="2504" d="M172 614l27 131h196l117 582l-207 -47l27 133l440 105l-156 -773h199l-27 -131h-616z" />
<glyph unicode="&#xba;" horiz-adv-x="747" vert-adv-y="2504" d="M272 1085q0 188 119 310q121 123 305 123q276 0 277 -265q0 -186 -119 -307q-120 -123 -307 -123q-275 0 -275 262zM496 1087q0 -137 82 -137q57 0 106 74q66 100 66 229q0 137 -82 138q-66 0 -119 -94.5t-53 -209.5z" />
<glyph unicode="&#xbb;" vert-adv-y="2504" d="M104 211l330 338l-194 340l159 104l328 -444l-506 -445zM561 213l330 336l-195 340l160 104l328 -444l-506 -445z" />
<glyph unicode="&#xbc;" horiz-adv-x="1705" vert-adv-y="2504" d="M160 -37l1419 1555h150l-1418 -1555h-151zM293 1274l24 133l467 111l-180 -904h-221l141 713zM911 225l33 166l512 498h201l-98 -498h92l-33 -166h-92l-45 -225h-197l47 225h-420zM1110 391h256l59 305z" />
<glyph unicode="&#xbd;" horiz-adv-x="1705" vert-adv-y="2504" d="M123 -37l1417 1555h152l-1418 -1555h-151zM293 1274l24 133l467 111l-180 -904h-221l141 713zM1012 0l32 170q94 82 121 102l90 70q170 131 225.5 198.5t55.5 141.5q0 94 -129 94q-96 0 -248 -61l31 149q162 45 299 45q133 0 211 -53q78 -55 78 -145q0 -102 -78 -187 q-61 -65 -178 -147l-78 -55q-139 -98 -168 -152h397l-33 -170h-628z" />
<glyph unicode="&#xbe;" horiz-adv-x="1705" vert-adv-y="2504" d="M221 614l31 150q127 -51 223 -51q86 0 137 45q55 43 56 112q0 137 -226 138h-59l25 127h45q274 0 274 163q0 92 -119 93q-106 0 -229 -52l27 136q156 43 278 43q279 0 279 -181q0 -178 -254 -258q115 -31 155 -88q33 -45 33 -110q0 -131 -117 -213q-115 -82 -309 -82 q-113 -1 -250 28zM252 -37l1419 1555h152l-1420 -1555h-151zM948 225l33 166l512 498h203l-101 -498h93l-33 -166h-92l-45 -225h-195l45 225h-420zM1149 391h254l59 305z" />
<glyph unicode="&#xbf;" horiz-adv-x="1249" vert-adv-y="2504" d="M90 -135q0 123 68 205q61 78 250 180l92 49q90 49 129 107q39 63 63 190l17 84h297l-7 -29q-25 -123 -84 -205q-59 -78 -190 -161l-115 -76q-188 -121 -188 -281q0 -150 246 -149q229 0 467 88l-45 -225q-261 -61 -498 -62q-502 0 -502 285zM743 852l50 246h297l-50 -246 h-297z" />
<glyph unicode="&#xc0;" horiz-adv-x="1478" vert-adv-y="2504" d="M12 0l871 1481h307l276 -1481h-315l-72 395h-612l-229 -395h-226zM584 592h458l-112 590zM805 1925h270l176 -321h-190z" />
<glyph unicode="&#xc1;" horiz-adv-x="1478" vert-adv-y="2504" d="M12 0l871 1481h307l276 -1481h-315l-72 395h-612l-229 -395h-226zM584 592h458l-112 590zM870 1604l304 321h272l-385 -321h-191z" />
<glyph unicode="&#xc2;" horiz-adv-x="1478" vert-adv-y="2504" d="M12 0l871 1481h307l276 -1481h-315l-72 395h-612l-229 -395h-226zM584 592h458l-112 590zM682 1604l305 321h275l176 -321h-178l-158 196h-2l-238 -196h-180z" />
<glyph unicode="&#xc3;" horiz-adv-x="1478" vert-adv-y="2504" d="M12 0l871 1481h307l276 -1481h-315l-72 395h-612l-229 -395h-226zM584 592h458l-112 590zM709 1604q35 143 79 213q72 109 187 108q61 0 117 -43l34 -27l11 -8q8 -8 14 -12q51 -45 84 -45q65 0 92 135h150q-29 -135 -80 -213q-72 -109 -185 -108q-66 0 -118 43l-33 26 q-4 4 -9.5 7.5t-9.5 7.5q-2 0 -4 2l-4 4l-2 2q-53 45 -84 45q-63 0 -92 -137h-147z" />
<glyph unicode="&#xc4;" horiz-adv-x="1478" vert-adv-y="2504" d="M12 0l871 1481h307l276 -1481h-315l-72 395h-612l-229 -395h-226zM584 592h458l-112 590zM739 1604l45 223h222l-43 -223h-224zM1159 1604l45 223h221l-45 -223h-221z" />
<glyph unicode="&#xc5;" horiz-adv-x="1478" vert-adv-y="2504" d="M12 0l871 1481h307l276 -1481h-315l-72 395h-612l-229 -395h-226zM584 592h458l-112 590zM844 1669q0 111 88 195q86 86 198 86q80 0 138 -54q55 -52 55 -135q0 -109 -88 -194q-86 -86 -201 -86q-76 0 -127 43q-63 55 -63 145zM956 1692q0 -98 101 -99q55 0 96 35 q55 47 55 113q0 98 -98 98q-61 0 -106 -45q-48 -47 -48 -102z" />
<glyph unicode="&#xc6;" horiz-adv-x="2048" vert-adv-y="2504" d="M12 0l1192 1481h1030l-39 -203h-679l-82 -414h567l-41 -205h-567l-90 -448h725l-41 -211h-1022l75 383h-475l-309 -383h-244zM719 573h360l119 596z" />
<glyph unicode="&#xc7;" horiz-adv-x="1478" vert-adv-y="2504" d="M221 545q0 383 232 659q139 166 315 240q178 74 449 74q246 0 481 -58l-49 -241q-264 96 -451 96q-313 0 -483 -228q-162 -217 -162 -499q0 -412 442 -412q229 0 482 111l-45 -228q-248 -96 -549 -96q-662 0 -662 582zM557 -401l21 90q63 -14 114 -15q133 0 133 70 q0 74 -180 74h-18l157 182h136l-99 -113q203 -25 203 -135q0 -74 -86 -129t-197 -55q-83 0 -184 31z" />
<glyph unicode="&#xc8;" horiz-adv-x="1363" vert-adv-y="2504" d="M172 0l297 1481h1085l-41 -203h-776l-84 -414h668l-41 -198h-666l-92 -455h826l-41 -211h-1135zM768 1925h270l179 -321h-193z" />
<glyph unicode="&#xc9;" horiz-adv-x="1363" vert-adv-y="2504" d="M172 0l297 1481h1085l-41 -203h-776l-84 -414h668l-41 -198h-666l-92 -455h826l-41 -211h-1135zM877 1604l305 321h270l-385 -321h-190z" />
<glyph unicode="&#xca;" horiz-adv-x="1363" vert-adv-y="2504" d="M172 0l297 1481h1085l-41 -203h-776l-84 -414h668l-41 -198h-666l-92 -455h826l-41 -211h-1135zM674 1604l305 321h272l176 -321h-178l-157 196h-2l-238 -196h-178z" />
<glyph unicode="&#xcb;" horiz-adv-x="1363" vert-adv-y="2504" d="M172 0l297 1481h1085l-41 -203h-776l-84 -414h668l-41 -198h-666l-92 -455h826l-41 -211h-1135zM717 1604l43 223h221l-43 -223h-221zM1135 1604l45 223h223l-45 -223h-223z" />
<glyph unicode="&#xcc;" horiz-adv-x="567" vert-adv-y="2504" d="M129 0l297 1481h309l-297 -1481h-309zM385 1925h272l177 -321h-193z" />
<glyph unicode="&#xcd;" horiz-adv-x="567" vert-adv-y="2504" d="M129 0l297 1481h309l-297 -1481h-309zM377 1604l305 321h270l-385 -321h-190z" />
<glyph unicode="&#xce;" horiz-adv-x="567" vert-adv-y="2504" d="M129 0l297 1481h309l-297 -1481h-309zM227 1604l305 321h275l176 -321h-178l-160 196h-2l-237 -196h-179z" />
<glyph unicode="&#xcf;" horiz-adv-x="567" vert-adv-y="2504" d="M129 0l297 1481h309l-297 -1481h-309zM285 1604l45 223h221l-45 -223h-221zM705 1604l43 223h223l-45 -223h-221z" />
<glyph unicode="&#xd0;" horiz-adv-x="1478" vert-adv-y="2504" d="M131 657l37 185h172l129 639h514q588 0 588 -525q0 -344 -209 -620q-256 -336 -703 -336h-487l131 657h-172zM522 211h109q311 0 465 227q141 213 141 463q0 377 -363 377h-139l-86 -436h209l-37 -185h-209z" />
<glyph unicode="&#xd1;" horiz-adv-x="1478" vert-adv-y="2504" d="M172 0l297 1481h270l414 -1012l203 1012h246l-295 -1481h-277l-407 1012l-203 -1012h-248zM725 1604q35 143 80 213q72 109 186 108q63 0 119 -43l33 -27q25 -18 26 -20q53 -45 84 -45q65 0 93 135h147q-35 -150 -80 -215q-70 -106 -184 -106q-66 0 -119 43l-33 26 q-6 4 -12 10.5t-10 9.5l-4 3q-14 12 -41 28.5t-43 16.5q-63 0 -93 -137h-149z" />
<glyph unicode="&#xd2;" horiz-adv-x="1591" vert-adv-y="2504" d="M219 541q0 371 225 657q248 319 668 320q582 0 582 -580q0 -369 -228 -657q-248 -317 -682 -318q-565 0 -565 578zM545 545q0 -379 289 -379q184 0 315 143q100 109 160 277q57 158 57 348q0 381 -299 381q-218 0 -369 -228q-153 -227 -153 -542zM872 1925h271l178 -321 h-193z" />
<glyph unicode="&#xd3;" horiz-adv-x="1591" vert-adv-y="2504" d="M219 541q0 371 225 657q248 319 668 320q582 0 582 -580q0 -369 -228 -657q-248 -317 -682 -318q-565 0 -565 578zM545 545q0 -379 289 -379q184 0 315 143q100 109 160 277q57 158 57 348q0 381 -299 381q-218 0 -369 -228q-153 -227 -153 -542zM938 1604l303 321h272 l-385 -321h-190z" />
<glyph unicode="&#xd4;" horiz-adv-x="1591" vert-adv-y="2504" d="M219 541q0 371 225 657q248 319 668 320q582 0 582 -580q0 -369 -228 -657q-248 -317 -682 -318q-565 0 -565 578zM545 545q0 -379 289 -379q184 0 315 143q100 109 160 277q57 158 57 348q0 381 -299 381q-218 0 -369 -228q-153 -227 -153 -542zM752 1604l305 321h272 l176 -321h-178l-158 196h-2l-237 -196h-178z" />
<glyph unicode="&#xd5;" horiz-adv-x="1591" vert-adv-y="2504" d="M219 541q0 371 225 657q248 319 668 320q582 0 582 -580q0 -369 -228 -657q-248 -317 -682 -318q-565 0 -565 578zM545 545q0 -379 289 -379q184 0 315 143q100 109 160 277q57 158 57 348q0 381 -299 381q-218 0 -369 -228q-153 -227 -153 -542zM776 1604q29 135 80 213 q72 109 186 108q61 0 117 -43l35 -27q10 -6 15 -12t10 -8q51 -45 84 -45q66 0 94 135h147q-29 -133 -80 -211q-71 -111 -184 -110q-68 0 -119 43l-33 26q-4 4 -9 7.5t-9 7.5l-6 6l-2 2q-53 45 -84 45q-63 0 -92 -137h-150z" />
<glyph unicode="&#xd6;" horiz-adv-x="1591" vert-adv-y="2504" d="M219 541q0 371 225 657q248 319 668 320q582 0 582 -580q0 -369 -228 -657q-248 -317 -682 -318q-565 0 -565 578zM545 545q0 -379 289 -379q184 0 315 143q100 109 160 277q57 158 57 348q0 381 -299 381q-218 0 -369 -228q-153 -227 -153 -542zM809 1604l43 223h221 l-43 -223h-221zM1227 1604l45 223h221l-43 -223h-223z" />
<glyph unicode="&#xd7;" horiz-adv-x="1193" vert-adv-y="2504" d="M158 244l440 364l-293 369l146 121l294 -367l439 367l98 -121l-440 -369l293 -364l-146 -123l-293 366l-440 -366z" />
<glyph unicode="&#xd8;" horiz-adv-x="1591" vert-adv-y="2504" d="M74 -37l223 223q-88 156 -88 359q0 367 223 653q248 319 668 320q258 0 407 -119l119 119h191l-224 -224q88 -152 88 -356q0 -365 -225 -655q-248 -319 -665 -320q-256 0 -408 121l-121 -121h-188zM532 547q0 -41 9 -115l759 758q-78 125 -237 125q-264 0 -416 -299 q-55 -109 -84 -236q-31 -122 -31 -233zM590 291q80 -123 244 -123q260 0 407 297q55 109 84 235q31 127 31 236q0 39 -8 113z" />
<glyph unicode="&#xd9;" horiz-adv-x="1478" vert-adv-y="2504" d="M250 352q0 90 26 221l183 908h309l-182 -908q-23 -117 -23 -188q0 -217 234 -217q289 0 364 383l187 930h268l-182 -910q-41 -209 -101 -313q-61 -109 -180 -186q-168 -109 -401 -109q-231 0 -366.5 104.5t-135.5 284.5zM825 1925h273l176 -321h-193z" />
<glyph unicode="&#xda;" horiz-adv-x="1478" vert-adv-y="2504" d="M250 352q0 90 26 221l183 908h309l-182 -908q-23 -117 -23 -188q0 -217 234 -217q289 0 364 383l187 930h268l-182 -910q-41 -209 -101 -313q-61 -109 -180 -186q-168 -109 -401 -109q-231 0 -366.5 104.5t-135.5 284.5zM891 1604l303 321h272l-385 -321h-190z" />
<glyph unicode="&#xdb;" horiz-adv-x="1478" vert-adv-y="2504" d="M250 352q0 90 26 221l183 908h309l-182 -908q-23 -117 -23 -188q0 -217 234 -217q289 0 364 383l187 930h268l-182 -910q-41 -209 -101 -313q-61 -109 -180 -186q-168 -109 -401 -109q-231 0 -366.5 104.5t-135.5 284.5zM705 1604l305 321h272l178 -321h-180l-158 196h-2 l-237 -196h-178z" />
<glyph unicode="&#xdc;" horiz-adv-x="1478" vert-adv-y="2504" d="M250 352q0 90 26 221l183 908h309l-182 -908q-23 -117 -23 -188q0 -217 234 -217q289 0 364 383l187 930h268l-182 -910q-41 -209 -101 -313q-61 -109 -180 -186q-168 -109 -401 -109q-231 0 -366.5 104.5t-135.5 284.5zM762 1604l45 223h221l-45 -223h-221zM1182 1604 l43 223h223l-45 -223h-221z" />
<glyph unicode="&#xdd;" horiz-adv-x="1363" vert-adv-y="2504" d="M324 1481h342l229 -627l496 627h243l-682 -858l-125 -623h-309l125 621zM862 1604l303 321h273l-385 -321h-191z" />
<glyph unicode="&#xde;" horiz-adv-x="1363" vert-adv-y="2504" d="M172 0l297 1481h301l-55 -285h291q283 0 380 -59q102 -59 103 -232q0 -276 -203 -442q-200 -166 -547 -166h-204l-60 -297h-303zM575 500h138q209 0 329 86q119 86 119 237q0 111 -76 142q-68 29 -215 28h-196z" />
<glyph unicode="&#xdf;" horiz-adv-x="1249" vert-adv-y="2504" d="M147 0l228 1130q96 473 553 474q360 0 360 -222q0 -113 -106 -227l-78 -86q-100 -106 -100 -162q0 -34 67 -141l66 -100q109 -170 108 -295q0 -170 -131 -283t-330 -113q-92 0 -215 31l39 195q119 -41 187 -41q88 0 131 47q35 41 35 100q0 47 -58 139l-74 117l-61 90 q-29 45 -29 127q0 98 72 193l63 80l66 88q76 100 76 174q0 106 -127 106q-160 0 -203 -213l-242 -1208h-297z" />
<glyph unicode="&#xe0;" vert-adv-y="2504" d="M125 223q0 203 164 326q160 121 440 121h80l20 100q8 35 9 68q0 102 -148 102q-152 0 -350 -96l41 203q201 76 397 75q348 0 348 -239q0 -47 -12 -103l-96 -485q-8 -35 -8 -64q0 -66 63 -65q12 0 41 4l-24 -168q-100 -27 -175 -27q-174 0 -204 144h-13 q-141 -143 -307 -144q-121 0 -192 66q-74 65 -74 182zM420 289q0 -113 117 -113q102 0 194 100l43 224h-69q-129 0 -207 -57.5t-78 -153.5zM568 1604h272l176 -322h-190z" />
<glyph unicode="&#xe1;" vert-adv-y="2504" d="M125 223q0 203 164 326q160 121 440 121h80l20 100q8 35 9 68q0 102 -148 102q-152 0 -350 -96l41 203q201 76 397 75q348 0 348 -239q0 -47 -12 -103l-96 -485q-8 -35 -8 -64q0 -66 63 -65q12 0 41 4l-24 -168q-100 -27 -175 -27q-174 0 -204 144h-13 q-141 -143 -307 -144q-121 0 -192 66q-74 65 -74 182zM420 289q0 -113 117 -113q102 0 194 100l43 224h-69q-129 0 -207 -57.5t-78 -153.5zM635 1282l303 322h273l-386 -322h-190z" />
<glyph unicode="&#xe2;" vert-adv-y="2504" d="M125 223q0 203 164 326q160 121 440 121h80l20 100q8 35 9 68q0 102 -148 102q-152 0 -350 -96l41 203q201 76 397 75q348 0 348 -239q0 -47 -12 -103l-96 -485q-8 -35 -8 -64q0 -66 63 -65q12 0 41 4l-24 -168q-100 -27 -175 -27q-174 0 -204 144h-13 q-141 -143 -307 -144q-121 0 -192 66q-74 65 -74 182zM420 289q0 -113 117 -113q102 0 194 100l43 224h-69q-129 0 -207 -57.5t-78 -153.5zM446 1282l305 322h275l176 -322h-178l-158 199h-4l-238 -199h-178z" />
<glyph unicode="&#xe3;" vert-adv-y="2504" d="M125 223q0 203 164 326q160 121 440 121h80l20 100q8 35 9 68q0 102 -148 102q-152 0 -350 -96l41 203q201 76 397 75q348 0 348 -239q0 -47 -12 -103l-96 -485q-8 -35 -8 -64q0 -66 63 -65q12 0 41 4l-24 -168q-100 -27 -175 -27q-174 0 -204 144h-13 q-141 -143 -307 -144q-121 0 -192 66q-74 65 -74 182zM420 289q0 -113 117 -113q102 0 194 100l43 224h-69q-129 0 -207 -57.5t-78 -153.5zM473 1282q29 133 80 211q71 111 184 111q63 0 119 -43l33 -25q6 -4 12 -10q6 -4 8 -7t6 -6q53 -45 84 -45q61 0 92 136h150 q-33 -139 -80 -211q-72 -111 -186 -111q-59 0 -117 43l-35 27q-6 6 -16 14q-2 2 -7 5l-4 3q-45 45 -84 45q-63 0 -92 -137h-147z" />
<glyph unicode="&#xe4;" vert-adv-y="2504" d="M125 223q0 203 164 326q160 121 440 121h80l20 100q8 35 9 68q0 102 -148 102q-152 0 -350 -96l41 203q201 76 397 75q348 0 348 -239q0 -47 -12 -103l-96 -485q-8 -35 -8 -64q0 -66 63 -65q12 0 41 4l-24 -168q-100 -27 -175 -27q-174 0 -204 144h-13 q-141 -143 -307 -144q-121 0 -192 66q-74 65 -74 182zM420 289q0 -113 117 -113q102 0 194 100l43 224h-69q-129 0 -207 -57.5t-78 -153.5zM503 1282l46 223h221l-43 -223h-224zM923 1282l45 223h222l-45 -223h-222z" />
<glyph unicode="&#xe5;" vert-adv-y="2504" d="M125 223q0 203 164 326q160 121 440 121h80l20 100q8 35 9 68q0 102 -148 102q-152 0 -350 -96l41 203q201 76 397 75q348 0 348 -239q0 -47 -12 -103l-96 -485q-8 -35 -8 -64q0 -66 63 -65q12 0 41 4l-24 -168q-100 -27 -175 -27q-174 0 -204 144h-13 q-141 -143 -307 -144q-121 0 -192 66q-74 65 -74 182zM420 289q0 -113 117 -113q102 0 194 100l43 224h-69q-129 0 -207 -57.5t-78 -153.5zM623 1470q0 109 86 195q90 86 198 86q84 0 137 -51q55 -52 56 -135q0 -111 -88 -197q-86 -86 -201 -86q-74 0 -125 43 q-63 55 -63 145zM735 1491q0 -96 99 -96q57 0 98 35q55 49 55 112q0 98 -100 98q-61 0 -106.5 -45t-45.5 -104z" />
<glyph unicode="&#xe6;" horiz-adv-x="1820" vert-adv-y="2504" d="M127 225q0 203 176 322t479 119h84l23 104q6 31 6 57q0 113 -176 113t-377 -96l41 203q225 76 408 75q176 0 325 -121q186 121 367 121q365 0 364 -368q0 -94 -30 -265h-699q-4 -53 -4 -67q0 -246 295 -246q139 0 358 70l-41 -209q-237 -61 -436 -62q-197 0 -315 82 q-66 45 -125 136q-95 -98 -178 -148q-121 -70 -262 -70q-131 0 -207 66q-76 63 -76 184zM420 291q0 -115 127 -115q111 0 244 100l43 224h-74q-152 0 -246 -57.5t-94 -151.5zM1149 657h410q14 72 14 119q0 164 -148 164q-115 0 -190 -100q-45 -62 -86 -183z" />
<glyph unicode="&#xe7;" vert-adv-y="2504" d="M178 416q0 313 209 509.5t551 196.5q164 0 334 -43l-43 -213q-207 59 -314 60q-178 0 -298.5 -137.5t-120.5 -337.5q0 -281 295 -281q119 0 319 59l-41 -204q-227 -49 -387 -50q-504 1 -504 441zM354 -401l16 90q63 -14 117 -15q133 0 133 70q0 74 -180 74h-20l157 182 h137l-98 -113q203 -25 203 -137q0 -72 -86 -127t-197 -55q-82 0 -182 31z" />
<glyph unicode="&#xe8;" vert-adv-y="2504" d="M180 426q0 291 184.5 493.5t448.5 202.5q356 0 356 -362q0 -98 -30 -271h-645q-6 -49 -7 -69q0 -244 271 -244q133 0 332 70l-41 -209q-203 -61 -381 -62q-488 0 -488 451zM522 657h359q14 72 14 136q0 145 -119 145q-162 0 -254 -281zM594 1604h272l176 -322h-190z" />
<glyph unicode="&#xe9;" vert-adv-y="2504" d="M180 426q0 291 184.5 493.5t448.5 202.5q356 0 356 -362q0 -98 -30 -271h-645q-6 -49 -7 -69q0 -244 271 -244q133 0 332 70l-41 -209q-203 -61 -381 -62q-488 0 -488 451zM522 657h359q14 72 14 136q0 145 -119 145q-162 0 -254 -281zM661 1282l303 322h273l-386 -322 h-190z" />
<glyph unicode="&#xea;" vert-adv-y="2504" d="M180 426q0 291 184.5 493.5t448.5 202.5q356 0 356 -362q0 -98 -30 -271h-645q-6 -49 -7 -69q0 -244 271 -244q133 0 332 70l-41 -209q-203 -61 -381 -62q-488 0 -488 451zM522 657h359q14 72 14 136q0 145 -119 145q-162 0 -254 -281zM473 1282l305 322h275l176 -322 h-178l-158 199h-4l-238 -199h-178z" />
<glyph unicode="&#xeb;" vert-adv-y="2504" d="M180 426q0 291 184.5 493.5t448.5 202.5q356 0 356 -362q0 -98 -30 -271h-645q-6 -49 -7 -69q0 -244 271 -244q133 0 332 70l-41 -209q-203 -61 -381 -62q-488 0 -488 451zM522 657h359q14 72 14 136q0 145 -119 145q-162 0 -254 -281zM530 1282l46 223h221l-43 -223 h-224zM950 1282l45 223h222l-45 -223h-222z" />
<glyph unicode="&#xec;" horiz-adv-x="567" vert-adv-y="2504" d="M137 0l219 1098h297l-221 -1098h-295zM322 1604h272l176 -322h-190z" />
<glyph unicode="&#xed;" horiz-adv-x="567" vert-adv-y="2504" d="M137 0l219 1098h297l-221 -1098h-295zM313 1282l303 322h273l-386 -322h-190z" />
<glyph unicode="&#xee;" horiz-adv-x="567" vert-adv-y="2504" d="M137 0l219 1098h297l-221 -1098h-295zM164 1282l305 322h275l176 -322h-178l-158 199h-4l-238 -199h-178z" />
<glyph unicode="&#xef;" horiz-adv-x="567" vert-adv-y="2504" d="M137 0l219 1098h297l-221 -1098h-295zM221 1282l43 223h223l-45 -223h-221zM639 1282l45 223h223l-45 -223h-223z" />
<glyph unicode="&#xf0;" horiz-adv-x="1249" vert-adv-y="2504" d="M172 406q0 267 190 466q190 201 443 201q59 0 137 -18q-37 143 -164 215l-286 -205l-80 131l219 158q-129 39 -240 39l-33 2l37 184q240 0 443 -76l254 189l82 -133l-187 -138q92 -63 137 -108q195 -205 195 -539q0 -336 -203 -567q-201 -231 -495 -232q-209 0 -328 113 q-121 115 -121 318zM481 399q0 -240 189 -239q120 0 215 123q125 162 125 383q0 223 -189 223q-141 0 -239 -146q-101 -143 -101 -344z" />
<glyph unicode="&#xf1;" horiz-adv-x="1249" vert-adv-y="2504" d="M147 0l222 1098h295l-37 -183q219 207 420 207q238 0 237 -217q0 -72 -12 -129l-156 -776h-297l142 702q14 66 14 105q0 84 -94 84q-119 0 -293 -174l-144 -717h-297zM541 1282q29 133 80 211q71 111 184 111q63 0 119 -43l33 -25q6 -4 12 -10q6 -4 8 -7t6 -6 q53 -45 84 -45q61 0 92 136h150q-33 -139 -80 -211q-72 -111 -186 -111q-59 0 -117 43l-35 27q-6 6 -16 14q-2 2 -7 5l-4 3q-45 45 -84 45q-63 0 -92 -137h-147z" />
<glyph unicode="&#xf2;" horiz-adv-x="1249" vert-adv-y="2504" d="M180 414q0 295 199 504q197 205 485 204q215 0 330 -112q119 -115 119 -326q0 -295 -199 -504q-197 -205 -487 -205q-193 0 -305 95q-142 114 -142 344zM496 403q0 -244 172 -243q119 0 211 127q121 168 120 405q0 246 -174 246q-133 0 -231 -160t-98 -375zM637 1604h272 l176 -322h-190z" />
<glyph unicode="&#xf3;" horiz-adv-x="1249" vert-adv-y="2504" d="M180 414q0 295 199 504q197 205 485 204q215 0 330 -112q119 -115 119 -326q0 -295 -199 -504q-197 -205 -487 -205q-193 0 -305 95q-142 114 -142 344zM496 403q0 -244 172 -243q119 0 211 127q121 168 120 405q0 246 -174 246q-133 0 -231 -160t-98 -375zM702 1282 l303 322h273l-386 -322h-190z" />
<glyph unicode="&#xf4;" horiz-adv-x="1249" vert-adv-y="2504" d="M180 414q0 295 199 504q197 205 485 204q215 0 330 -112q119 -115 119 -326q0 -295 -199 -504q-197 -205 -487 -205q-193 0 -305 95q-142 114 -142 344zM496 403q0 -244 172 -243q119 0 211 127q121 168 120 405q0 246 -174 246q-133 0 -231 -160t-98 -375zM516 1282 l305 322h275l176 -322h-178l-158 199h-4l-238 -199h-178z" />
<glyph unicode="&#xf5;" horiz-adv-x="1249" vert-adv-y="2504" d="M180 414q0 295 199 504q197 205 485 204q215 0 330 -112q119 -115 119 -326q0 -295 -199 -504q-197 -205 -487 -205q-193 0 -305 95q-142 114 -142 344zM496 403q0 -244 172 -243q119 0 211 127q121 168 120 405q0 246 -174 246q-133 0 -231 -160t-98 -375zM543 1282 q29 133 80 211q71 111 184 111q63 0 119 -43l33 -25q6 -4 12 -10q6 -4 8 -7t6 -6q53 -45 84 -45q61 0 92 136h150q-33 -139 -80 -211q-72 -111 -186 -111q-59 0 -117 43l-35 27q-6 6 -16 14q-2 2 -7 5l-4 3q-45 45 -84 45q-63 0 -92 -137h-147z" />
<glyph unicode="&#xf6;" horiz-adv-x="1249" vert-adv-y="2504" d="M180 414q0 295 199 504q197 205 485 204q215 0 330 -112q119 -115 119 -326q0 -295 -199 -504q-197 -205 -487 -205q-193 0 -305 95q-142 114 -142 344zM496 403q0 -244 172 -243q119 0 211 127q121 168 120 405q0 246 -174 246q-133 0 -231 -160t-98 -375zM573 1282 l46 223h221l-43 -223h-224zM993 1282l45 223h222l-45 -223h-222z" />
<glyph unicode="&#xf7;" horiz-adv-x="1193" vert-adv-y="2504" d="M207 506l33 174h987l-33 -174h-987zM481 37l51 248h246l-49 -248h-248zM655 901l50 246h245l-49 -246h-246z" />
<glyph unicode="&#xf8;" horiz-adv-x="1249" vert-adv-y="2504" d="M70 -25l170 170q-70 113 -70 269q0 295 196.5 501.5t483.5 206.5q170 0 295 -80l82 80h174l-170 -168q70 -113 69 -270q0 -295 -196.5 -502t-482.5 -207q-170 0 -295 82l-82 -82h-174zM483 385l471 469q-47 84 -141 84q-133 0 -231.5 -160t-98.5 -372v-21zM514 246 q49 -84 143 -84q135 0 232 157q98 156 98 371v23z" />
<glyph unicode="&#xf9;" horiz-adv-x="1249" vert-adv-y="2504" d="M186 195q0 51 15 127l155 776h295l-139 -703q-14 -76 -14 -102q0 -84 92 -84q121 0 295 174l141 715h297l-219 -1098h-295l35 182q-219 -207 -420 -207q-238 1 -238 220zM619 1604h272l176 -322h-190z" />
<glyph unicode="&#xfa;" horiz-adv-x="1249" vert-adv-y="2504" d="M186 195q0 51 15 127l155 776h295l-139 -703q-14 -76 -14 -102q0 -84 92 -84q121 0 295 174l141 715h297l-219 -1098h-295l35 182q-219 -207 -420 -207q-238 1 -238 220zM684 1282l303 322h273l-386 -322h-190z" />
<glyph unicode="&#xfb;" horiz-adv-x="1249" vert-adv-y="2504" d="M186 195q0 51 15 127l155 776h295l-139 -703q-14 -76 -14 -102q0 -84 92 -84q121 0 295 174l141 715h297l-219 -1098h-295l35 182q-219 -207 -420 -207q-238 1 -238 220zM498 1282l305 322h275l176 -322h-178l-158 199h-4l-238 -199h-178z" />
<glyph unicode="&#xfc;" horiz-adv-x="1249" vert-adv-y="2504" d="M186 195q0 51 15 127l155 776h295l-139 -703q-14 -76 -14 -102q0 -84 92 -84q121 0 295 174l141 715h297l-219 -1098h-295l35 182q-219 -207 -420 -207q-238 1 -238 220zM555 1282l46 223h221l-43 -223h-224zM975 1282l45 223h222l-45 -223h-222z" />
<glyph unicode="&#xfd;" vert-adv-y="2504" d="M92 -395l328 395l-174 1098h311l113 -711l444 711h219l-938 -1493h-303zM657 1282l303 322h273l-386 -322h-190z" />
<glyph unicode="&#xfe;" horiz-adv-x="1249" vert-adv-y="2504" d="M70 -395l395 1974h295l-131 -664q203 207 389 207q287 0 287 -377q0 -326 -189 -548q-186 -221 -461 -222q-82 0 -211 25l-79 -395h-295zM479 176q111 -18 164 -18q150 0 246 157.5t96 395.5q0 180 -129 180q-119 0 -268 -174z" />
<glyph unicode="&#xff;" vert-adv-y="2504" d="M92 -395l328 395l-174 1098h311l113 -711l444 711h219l-938 -1493h-303zM528 1282l43 223h224l-45 -223h-222zM946 1282l45 223h223l-45 -223h-223z" />
<glyph unicode="&#x100;" horiz-adv-x="1478" vert-adv-y="2504" d="M12 0l871 1481h307l276 -1481h-315l-72 395h-612l-229 -395h-226zM584 592h458l-112 590zM684 1604l35 174h739l-33 -174h-741z" />
<glyph unicode="&#x101;" vert-adv-y="2504" d="M125 223q0 203 164 326q160 121 440 121h80l20 100q8 35 9 68q0 102 -148 102q-152 0 -350 -96l41 203q201 76 397 75q348 0 348 -239q0 -47 -12 -103l-96 -485q-8 -35 -8 -64q0 -66 63 -65q12 0 41 4l-24 -168q-100 -27 -175 -27q-174 0 -204 144h-13 q-141 -143 -307 -144q-121 0 -192 66q-74 65 -74 182zM420 289q0 -113 117 -113q102 0 194 100l43 224h-69q-129 0 -207 -57.5t-78 -153.5zM426 1282l35 174h739l-32 -174h-742z" />
<glyph unicode="&#x102;" horiz-adv-x="1478" vert-adv-y="2504" d="M12 0l871 1481h307l276 -1481h-315l-72 395h-612l-229 -395h-226zM584 592h458l-112 590zM762 1870q0 10 4 55h147q18 -141 179 -141q154 0 231 141h150q-47 -137 -140 -217q-121 -104 -276 -104q-129 0 -211 75q-84 74 -84 191z" />
<glyph unicode="&#x103;" vert-adv-y="2504" d="M125 223q0 203 164 326q160 121 440 121h80l20 100q8 35 9 68q0 102 -148 102q-152 0 -350 -96l41 203q201 76 397 75q348 0 348 -239q0 -47 -12 -103l-96 -485q-8 -35 -8 -64q0 -66 63 -65q12 0 41 4l-24 -168q-100 -27 -175 -27q-174 0 -204 144h-13 q-141 -143 -307 -144q-121 0 -192 66q-74 65 -74 182zM420 289q0 -113 117 -113q102 0 194 100l43 224h-69q-129 0 -207 -57.5t-78 -153.5zM520 1548q0 33 2 56h150q18 -141 178 -142q156 0 231 142h150q-45 -133 -139 -215q-123 -106 -279 -107q-125 0 -209 77.5t-84 188.5 z" />
<glyph unicode="&#x104;" horiz-adv-x="1478" vert-adv-y="2504" d="M12 0l871 1481h307l276 -1481h-315l-72 395h-612l-229 -395h-226zM584 592h458l-112 590zM883 -233q0 127 268 233h158q-223 -98 -224 -197q0 -78 148 -77q80 0 135 14l-16 -82q-98 -29 -205 -29q-264 1 -264 138z" />
<glyph unicode="&#x105;" vert-adv-y="2504" d="M125 223q0 203 164 326q160 121 440 121h80l20 100q8 35 9 68q0 102 -148 102q-152 0 -350 -96l41 203q201 76 397 75q348 0 348 -239q0 -47 -12 -103l-96 -485q-8 -35 -8 -64q0 -66 63 -65q12 0 41 4l-24 -168q-100 -27 -175 -27q-174 0 -204 144h-13 q-141 -143 -307 -144q-121 0 -192 66q-74 65 -74 182zM420 289q0 -113 117 -113q102 0 194 100l43 224h-69q-129 0 -207 -57.5t-78 -153.5zM518 -233q0 126 271 233h157q-223 -98 -223 -197q0 -78 145 -77q86 0 138 14l-17 -82q-98 -29 -207 -29q-264 1 -264 138z" />
<glyph unicode="&#x106;" horiz-adv-x="1478" vert-adv-y="2504" d="M221 545q0 379 232 659q139 166 315 240q178 74 449 74q246 0 481 -58l-49 -241q-264 96 -451 96q-313 0 -483 -228q-162 -217 -162 -499q0 -412 442 -412q229 0 482 111l-45 -228q-248 -96 -549 -96q-662 0 -662 582zM1036 1604l305 321h273l-385 -321h-193z" />
<glyph unicode="&#x107;" vert-adv-y="2504" d="M178 416q0 313 209 509.5t551 196.5q164 0 334 -43l-43 -213q-207 59 -314 60q-178 0 -298.5 -137.5t-120.5 -337.5q0 -281 295 -281q119 0 319 59l-41 -204q-227 -49 -387 -50q-504 1 -504 441zM760 1282l303 322h273l-386 -322h-190z" />
<glyph unicode="&#x108;" horiz-adv-x="1478" vert-adv-y="2504" d="M221 545q0 379 232 659q139 166 315 240q178 74 449 74q246 0 481 -58l-49 -241q-264 96 -451 96q-313 0 -483 -228q-162 -217 -162 -499q0 -412 442 -412q229 0 482 111l-45 -228q-248 -96 -549 -96q-662 0 -662 582zM838 1604l305 321h272l176 -321h-178l-158 196h-2 l-237 -196h-178z" />
<glyph unicode="&#x109;" vert-adv-y="2504" d="M178 416q0 313 209 509.5t551 196.5q164 0 334 -43l-43 -213q-207 59 -314 60q-178 0 -298.5 -137.5t-120.5 -337.5q0 -281 295 -281q119 0 319 59l-41 -204q-227 -49 -387 -50q-504 1 -504 441zM559 1282l305 322h275l176 -322h-178l-158 199h-2l-238 -199h-180z" />
<glyph unicode="&#x10a;" horiz-adv-x="1478" vert-adv-y="2504" d="M221 545q0 379 232 659q139 166 315 240q178 74 449 74q246 0 481 -58l-49 -241q-264 96 -451 96q-313 0 -483 -228q-162 -217 -162 -499q0 -412 442 -412q229 0 482 111l-45 -228q-248 -96 -549 -96q-662 0 -662 582zM1067 1604l59 297h297l-59 -297h-297z" />
<glyph unicode="&#x10b;" vert-adv-y="2504" d="M178 416q0 313 209 509.5t551 196.5q164 0 334 -43l-43 -213q-207 59 -314 60q-178 0 -298.5 -137.5t-120.5 -337.5q0 -281 295 -281q119 0 319 59l-41 -204q-227 -49 -387 -50q-504 1 -504 441zM791 1282l59 297h297l-60 -297h-296z" />
<glyph unicode="&#x10c;" horiz-adv-x="1478" vert-adv-y="2504" d="M221 545q0 379 232 659q139 166 315 240q178 74 449 74q246 0 481 -58l-49 -241q-264 96 -451 96q-313 0 -483 -228q-162 -217 -162 -499q0 -412 442 -412q229 0 482 111l-45 -228q-248 -96 -549 -96q-662 0 -662 582zM899 1974h178l160 -196l238 196h180l-305 -321h-275 z" />
<glyph unicode="&#x10d;" vert-adv-y="2504" d="M178 416q0 313 209 509.5t551 196.5q164 0 334 -43l-43 -213q-207 59 -314 60q-178 0 -298.5 -137.5t-120.5 -337.5q0 -281 295 -281q119 0 319 59l-41 -204q-227 -49 -387 -50q-504 1 -504 441zM625 1604h178l158 -197h2l237 197h178l-305 -322h-272z" />
<glyph unicode="&#x10e;" horiz-adv-x="1478" vert-adv-y="2504" d="M172 0l297 1481h516q588 0 588 -525q0 -344 -209 -620q-256 -336 -702 -336h-490zM522 211h111q309 0 463 227q141 209 141 463q0 377 -360 377h-140zM684 1974h180l158 -196h2l238 196h178l-305 -321h-275z" />
<glyph unicode="&#x10f;" horiz-adv-x="1470" vert-adv-y="2504" d="M170 352q0 326 188 549q186 221 463 221q76 0 209 -24l96 481h297l-315 -1579h-297l37 182q-203 -207 -389 -207q-289 0 -289 377zM489 387q0 -180 129 -180q117 0 271 176l106 539q-111 18 -161 18q-152 0 -248.5 -157.5t-96.5 -395.5zM1415 987l21 103q115 0 147 163 l6 29h-114l59 297h258l-45 -229q-71 -341 -332 -363z" />
<glyph unicode="&#x110;" horiz-adv-x="1478" vert-adv-y="2504" d="M131 657l37 185h172l129 639h514q588 0 588 -525q0 -344 -209 -620q-256 -336 -703 -336h-487l131 657h-172zM522 211h109q311 0 465 227q141 213 141 463q0 377 -363 377h-139l-86 -436h209l-37 -185h-209z" />
<glyph unicode="&#x111;" horiz-adv-x="1249" vert-adv-y="2504" d="M170 352q0 326 188 549q186 221 463 221q76 0 209 -24l29 137h-260l35 172h258l34 172h297l-34 -172h147l-35 -172h-147l-246 -1235h-297l37 182q-203 -207 -389 -207q-289 0 -289 377zM489 387q0 -180 129 -180q117 0 271 176l106 539q-111 18 -161 18 q-152 0 -248.5 -157.5t-96.5 -395.5z" />
<glyph unicode="&#x112;" horiz-adv-x="1363" vert-adv-y="2504" d="M172 0l297 1481h1085l-41 -203h-776l-84 -414h668l-41 -198h-666l-92 -455h826l-41 -211h-1135zM690 1604l35 174h741l-34 -174h-742z" />
<glyph unicode="&#x113;" vert-adv-y="2504" d="M180 426q0 291 184.5 493.5t448.5 202.5q356 0 356 -362q0 -98 -30 -271h-645q-6 -49 -7 -69q0 -244 271 -244q133 0 332 70l-41 -209q-203 -61 -381 -62q-488 0 -488 451zM522 657h359q14 72 14 136q0 145 -119 145q-162 0 -254 -281zM481 1282l35 174h739l-32 -174 h-742z" />
<glyph unicode="&#x114;" horiz-adv-x="1363" vert-adv-y="2504" d="M172 0l297 1481h1085l-41 -203h-776l-84 -414h668l-41 -198h-666l-92 -455h826l-41 -211h-1135zM766 1870q0 33 2 55h147q18 -141 179 -141q157 0 233 141h148q-47 -139 -138 -217q-121 -104 -278 -104q-127 0 -209 75q-84 74 -84 191z" />
<glyph unicode="&#x115;" vert-adv-y="2504" d="M180 426q0 291 184.5 493.5t448.5 202.5q356 0 356 -362q0 -98 -30 -271h-645q-6 -49 -7 -69q0 -244 271 -244q133 0 332 70l-41 -209q-203 -61 -381 -62q-488 0 -488 451zM522 657h359q14 72 14 136q0 145 -119 145q-162 0 -254 -281zM559 1548q0 33 2 56h150 q18 -141 178 -142q156 0 231 142h150q-47 -137 -137 -215q-123 -106 -281 -107q-125 0 -209 77.5t-84 188.5z" />
<glyph unicode="&#x116;" horiz-adv-x="1363" vert-adv-y="2504" d="M172 0l297 1481h1085l-41 -203h-776l-84 -414h668l-41 -198h-666l-92 -455h826l-41 -211h-1135zM901 1604l60 297h294l-59 -297h-295z" />
<glyph unicode="&#x117;" vert-adv-y="2504" d="M180 426q0 291 184.5 493.5t448.5 202.5q356 0 356 -362q0 -98 -30 -271h-645q-6 -49 -7 -69q0 -244 271 -244q133 0 332 70l-41 -209q-203 -61 -381 -62q-488 0 -488 451zM522 657h359q14 72 14 136q0 145 -119 145q-162 0 -254 -281zM705 1282l59 297h295l-60 -297 h-294z" />
<glyph unicode="&#x118;" horiz-adv-x="1363" vert-adv-y="2504" d="M172 0l297 1481h1085l-41 -203h-776l-84 -414h668l-41 -198h-666l-92 -455h826l-41 -211h-1135zM717 -233q0 126 270 233h158q-223 -98 -223 -197q0 -78 145 -77q86 0 137 14l-16 -82q-98 -29 -205 -29q-266 1 -266 138z" />
<glyph unicode="&#x119;" vert-adv-y="2504" d="M180 426q0 291 184.5 493.5t448.5 202.5q356 0 356 -362q0 -98 -30 -271h-645q-6 -49 -7 -69q0 -244 271 -244q133 0 332 70l-41 -209q-203 -61 -381 -62q-488 0 -488 451zM522 657h359q14 72 14 136q0 145 -119 145q-162 0 -254 -281zM379 -233q0 126 271 233h157 q-223 -98 -223 -197q0 -78 145 -77q86 0 138 14l-17 -82q-98 -29 -207 -29q-264 1 -264 138z" />
<glyph unicode="&#x11a;" horiz-adv-x="1363" vert-adv-y="2504" d="M172 0l297 1481h1085l-41 -203h-776l-84 -414h668l-41 -198h-666l-92 -455h826l-41 -211h-1135zM725 1925h178l158 -199h4l235 199h179l-303 -321h-275z" />
<glyph unicode="&#x11b;" vert-adv-y="2504" d="M180 426q0 291 184.5 493.5t448.5 202.5q356 0 356 -362q0 -98 -30 -271h-645q-6 -49 -7 -69q0 -244 271 -244q133 0 332 70l-41 -209q-203 -61 -381 -62q-488 0 -488 451zM522 657h359q14 72 14 136q0 145 -119 145q-162 0 -254 -281zM541 1604h178l158 -197h2l237 197 h178l-305 -322h-272z" />
<glyph unicode="&#x11c;" horiz-adv-x="1591" vert-adv-y="2504" d="M221 545q0 373 232 657q145 174 317 242q180 74 469 74q274 0 510 -58l-47 -241q-295 96 -504 96q-313 0 -481 -228q-164 -223 -164 -505q0 -412 436 -412q84 0 199 14l65 332h-249l38 203h560l-138 -684q-305 -74 -532 -74q-371 0 -541 139.5t-170 444.5zM831 1604 l306 321h272l176 -321h-178l-158 196h-2l-237 -196h-179z" />
<glyph unicode="&#x11d;" horiz-adv-x="1249" vert-adv-y="2504" d="M55 -342l45 219q207 -88 357 -88q309 0 366 297l25 121q-203 -207 -389 -207q-289 0 -289 377q0 307 199 543q172 203 446 202q78 0 211 -24h297l-168 -838q-53 -260 -102 -362q-53 -113 -156 -189q-176 -129 -440 -129q-195 0 -402 78zM492 414q0 -182 126 -183 q117 0 271 177l102 514q-111 18 -164 18q-147 0 -241 -149.5t-94 -376.5zM506 1282l305 322h274l177 -322h-181l-157 199h-2l-238 -199h-178z" />
<glyph unicode="&#x11e;" horiz-adv-x="1591" vert-adv-y="2504" d="M221 545q0 373 232 657q145 174 317 242q180 74 469 74q274 0 510 -58l-47 -241q-295 96 -504 96q-313 0 -481 -228q-164 -223 -164 -505q0 -412 436 -412q84 0 199 14l65 332h-249l38 203h560l-138 -684q-305 -74 -532 -74q-371 0 -541 139.5t-170 444.5zM915 1870 q0 33 3 55h149q18 -141 176 -141q157 0 234 141h147q-47 -139 -137 -217q-119 -104 -279 -104q-127 0 -209 75q-84 74 -84 191z" />
<glyph unicode="&#x11f;" horiz-adv-x="1249" vert-adv-y="2504" d="M55 -342l45 219q207 -88 357 -88q309 0 366 297l25 121q-203 -207 -389 -207q-289 0 -289 377q0 307 199 543q172 203 446 202q78 0 211 -24h297l-168 -838q-53 -260 -102 -362q-53 -113 -156 -189q-176 -129 -440 -129q-195 0 -402 78zM492 414q0 -182 126 -183 q117 0 271 177l102 514q-111 18 -164 18q-147 0 -241 -149.5t-94 -376.5zM584 1548q0 33 2 56h150q18 -141 178 -142q156 0 231 142h150q-45 -133 -139 -215q-123 -106 -279 -107q-125 0 -209 77.5t-84 188.5z" />
<glyph unicode="&#x120;" horiz-adv-x="1591" vert-adv-y="2504" d="M221 545q0 373 232 657q145 174 317 242q180 74 469 74q274 0 510 -58l-47 -241q-295 96 -504 96q-313 0 -481 -228q-164 -223 -164 -505q0 -412 436 -412q84 0 199 14l65 332h-249l38 203h560l-138 -684q-305 -74 -532 -74q-371 0 -541 139.5t-170 444.5zM1083 1604 l60 297h297l-60 -297h-297z" />
<glyph unicode="&#x121;" horiz-adv-x="1249" vert-adv-y="2504" d="M55 -342l45 219q207 -88 357 -88q309 0 366 297l25 121q-203 -207 -389 -207q-289 0 -289 377q0 307 199 543q172 203 446 202q78 0 211 -24h297l-168 -838q-53 -260 -102 -362q-53 -113 -156 -189q-176 -129 -440 -129q-195 0 -402 78zM492 414q0 -182 126 -183 q117 0 271 177l102 514q-111 18 -164 18q-147 0 -241 -149.5t-94 -376.5zM768 1282l59 297h295l-57 -297h-297z" />
<glyph unicode="&#x122;" horiz-adv-x="1591" vert-adv-y="2504" d="M221 545q0 373 232 657q141 174 317 242q180 74 469 74q274 0 510 -58l-47 -241q-299 96 -504 96q-313 0 -481 -228q-164 -223 -164 -505q0 -412 436 -412q84 0 199 14l65 332h-249l38 203h560l-138 -684q-307 -74 -532 -74q-371 0 -541 139.5t-170 444.5zM557 -420 l18 98q63 -6 113 -6q139 0 139 72q0 51 -114 57l-37 2l18 101q172 -3 246 -37q86 -39 86 -113q0 -76 -84 -131q-82 -55 -199 -55q-69 0 -186 12z" />
<glyph unicode="&#x123;" horiz-adv-x="1249" vert-adv-y="2504" d="M55 -342l45 219q207 -88 357 -88q309 0 366 297l25 121q-203 -207 -389 -207q-289 0 -289 377q0 307 199 543q172 203 446 202q78 0 211 -24h297l-168 -838q-53 -260 -102 -362q-53 -113 -156 -189q-176 -129 -440 -129q-195 0 -402 78zM492 414q0 -182 126 -183 q117 0 271 177l102 514q-111 18 -164 18q-147 0 -241 -149.5t-94 -376.5zM768 1282l45 231q74 362 369 363l-21 -102q-111 0 -145 -164l-6 -31h112l-57 -297h-297z" />
<glyph unicode="&#x124;" horiz-adv-x="1478" vert-adv-y="2504" d="M172 0l297 1481h309l-121 -602h517l120 602h308l-295 -1481h-310l136 676h-517l-135 -676h-309zM682 1604l305 321h275l176 -321h-178l-158 196h-2l-238 -196h-180z" />
<glyph unicode="&#x125;" horiz-adv-x="1249" vert-adv-y="2504" d="M147 0l318 1579h295l-133 -664q219 207 420 207q238 0 237 -217q0 -72 -12 -129l-156 -776h-297l142 702q14 66 14 105q0 84 -94 84q-119 0 -293 -174l-144 -717h-297zM575 1677l306 322h274l176 -322h-180l-158 199h-2l-235 -199h-181z" />
<glyph unicode="&#x126;" horiz-adv-x="1478" vert-adv-y="2504" d="M172 0l221 1098h-147l28 147h148l47 236h309l-47 -236h516l47 236h308l-46 -236h148l-31 -147h-147l-219 -1098h-310l136 676h-517l-135 -676h-309zM657 879h517l43 219h-517z" />
<glyph unicode="&#x127;" horiz-adv-x="1249" vert-adv-y="2504" d="M147 0l252 1257h-123l29 150h123l37 172h295l-35 -172h297l-31 -150h-295l-69 -342q219 207 420 207q238 0 237 -217q0 -72 -12 -129l-156 -776h-297l142 702q14 66 14 105q0 84 -94 84q-119 0 -293 -174l-144 -717h-297z" />
<glyph unicode="&#x128;" horiz-adv-x="567" vert-adv-y="2504" d="M129 0l297 1481h309l-297 -1481h-309zM254 1604q35 147 78 213q72 109 186 108q63 0 119 -43l33 -27l12 -8l14 -12q51 -45 84 -45q65 0 92 135h150q-35 -143 -82 -215q-70 -106 -182 -106q-66 0 -121 43l-33 26q-25 20 -26 23q-45 45 -82 45q-66 0 -95 -137h-147z" />
<glyph unicode="&#x129;" horiz-adv-x="567" vert-adv-y="2504" d="M137 0l219 1098h297l-221 -1098h-295zM190 1282q31 137 78 211q72 111 187 111q63 0 118 -43l33 -25q6 -6 14 -11l7 -5q6 -6 6 -7q57 -45 84 -45q65 0 92 136h147q-31 -137 -77 -211q-72 -111 -187 -111q-63 0 -119 43l-32 27l-9 8l-8 6l-4 2l-6 6q-51 45 -84 45 q-63 0 -92 -137h-148z" />
<glyph unicode="&#x12a;" horiz-adv-x="567" vert-adv-y="2504" d="M129 0l297 1481h309l-297 -1481h-309zM236 1604l32 174h742l-35 -174h-739z" />
<glyph unicode="&#x12b;" horiz-adv-x="567" vert-adv-y="2504" d="M137 0l219 1098h297l-221 -1098h-295zM172 1282l35 174h739l-32 -174h-742z" />
<glyph unicode="&#x12c;" horiz-adv-x="567" vert-adv-y="2504" d="M129 0l297 1481h309l-297 -1481h-309zM313 1872q0 14 2 33v20h150q9 -71 49 -104q47 -37 127 -37q157 0 233 141h150q-47 -137 -139 -217q-119 -104 -279 -104q-127 0 -209 75q-84 74 -84 193z" />
<glyph unicode="&#x12d;" horiz-adv-x="567" vert-adv-y="2504" d="M137 0l219 1098h297l-221 -1098h-295zM250 1550q0 14 2 33v21h147q18 -141 179 -142q157 0 233 142h147q-47 -137 -137 -215q-123 -106 -278 -107q-121 0 -209 78q-84 77 -84 190z" />
<glyph unicode="&#x12e;" horiz-adv-x="567" vert-adv-y="2504" d="M-4 -233q0 127 268 233h160q-225 -98 -225 -197q0 -78 147 -77q80 0 135 14l-14 -82q-98 -29 -209 -29q-262 1 -262 138zM131 0l297 1481h309l-297 -1481h-309z" />
<glyph unicode="&#x12f;" horiz-adv-x="567" vert-adv-y="2504" d="M137 0l219 1098h297l-221 -1098h-295zM393 1282l49 248h297l-49 -248h-297zM-4 -233q0 126 271 233h157q-223 -98 -223 -197q0 -78 145 -77q86 0 138 14l-17 -82q-98 -29 -207 -29q-264 1 -264 138z" />
<glyph unicode="&#x130;" horiz-adv-x="567" vert-adv-y="2504" d="M129 0l297 1481h309l-297 -1481h-309zM457 1604l59 297h295l-57 -297h-297z" />
<glyph unicode="&#x131;" horiz-adv-x="567" vert-adv-y="2504" d="M137 0l219 1098h297l-221 -1098h-295z" />
<glyph unicode="&#x132;" horiz-adv-x="1605" vert-adv-y="2504" d="M129 0l297 1481h309l-297 -1481h-309zM395 -244l43 221q199 -63 367 -63q156 0 221 57q70 59 100 213l261 1297h307l-252 -1264q-55 -266 -213 -391q-157 -123 -449 -123q-166 0 -385 53z" />
<glyph unicode="&#x133;" vert-adv-y="2504" d="M137 0l219 1098h297l-221 -1098h-295zM393 1282l49 248h297l-49 -248h-297zM338 -379l39 199q96 -53 149 -53q74 0 113 49q37 45 65 184l219 1098h297l-215 -1080q-86 -438 -473 -438q-83 0 -194 41zM938 1282l49 248h295l-49 -248h-295z" />
<glyph unicode="&#x134;" vert-adv-y="2504" d="M-74 -244l43 221q199 -63 367 -63q156 0 221 57q70 59 100 213l261 1297h307l-252 -1264q-55 -266 -213 -391q-157 -123 -449 -123q-166 0 -385 53zM719 1604l305 321h272l177 -321h-179l-157 196h-2l-238 -196h-178z" />
<glyph unicode="&#x135;" horiz-adv-x="567" vert-adv-y="2504" d="M-229 -379l39 199q96 -53 149 -53q74 0 113 49q37 45 65 184l219 1098h297l-215 -1080q-86 -438 -473 -438q-83 0 -194 41zM166 1282l303 322h274l177 -322h-179l-157 199h-2l-238 -199h-178z" />
<glyph unicode="&#x136;" horiz-adv-x="1478" vert-adv-y="2504" d="M172 0l297 1481h297l-145 -719l759 719h256l-694 -666l522 -815h-385l-465 727l-145 -727h-297zM434 -420l21 98q66 -6 110 -6q141 0 142 72q0 51 -117 57l-37 2l20 101q172 -3 246 -37q84 -39 84 -113q0 -76 -82 -131q-84 -55 -198 -55q-72 0 -189 12z" />
<glyph unicode="&#x137;" vert-adv-y="2504" d="M147 0l318 1579h295l-199 -993h19l448 512h246l-418 -477l274 -621h-317l-240 549h-18l-111 -549h-297zM361 -420l20 98q65 -6 111 -6q141 0 141 72q0 51 -116 57l-37 2l20 101q172 -3 246 -37q84 -41 84 -113q0 -76 -82 -131t-199 -55q-71 0 -188 12z" />
<glyph unicode="&#x138;" vert-adv-y="2504" d="M147 0l222 1098h295l-103 -512h19l448 512h246l-418 -477l274 -621h-317l-240 549h-18l-111 -549h-297z" />
<glyph unicode="&#x139;" horiz-adv-x="1249" vert-adv-y="2504" d="M172 0l297 1481h309l-256 -1270h754l-43 -211h-1061zM614 1616l304 321h272l-385 -321h-191z" />
<glyph unicode="&#x13a;" horiz-adv-x="567" vert-adv-y="2504" d="M137 0l316 1579h297l-318 -1579h-295zM430 1677l303 322h273l-386 -322h-190z" />
<glyph unicode="&#x13b;" horiz-adv-x="1249" vert-adv-y="2504" d="M172 0l297 1481h309l-256 -1270h754l-43 -211h-1061zM434 -420l21 98q66 -6 110 -6q141 0 142 72q0 51 -117 57l-37 2l20 101q172 -3 246 -37q84 -39 84 -113q0 -76 -82 -131q-84 -55 -198 -55q-72 0 -189 12z" />
<glyph unicode="&#x13c;" horiz-adv-x="567" vert-adv-y="2504" d="M137 0l316 1579h297l-318 -1579h-295zM-8 -420l20 98q65 -6 111 -6q141 0 141 72q0 51 -116 57l-37 2l20 101q172 -3 246 -37q84 -41 84 -113q0 -76 -82 -131t-199 -55q-71 0 -188 12z" />
<glyph unicode="&#x13d;" horiz-adv-x="1249" vert-adv-y="2504" d="M172 0l297 1481h309l-256 -1270h754l-43 -211h-1061zM981 889l18 102q113 0 148 164l6 29h-115l60 297h260l-47 -230q-72 -342 -330 -362z" />
<glyph unicode="&#x13e;" horiz-adv-x="788" vert-adv-y="2504" d="M137 0l316 1579h297l-318 -1579h-295zM729 987l21 103q115 0 147 163l4 29h-113l60 297h260l-47 -229q-71 -341 -332 -363z" />
<glyph unicode="&#x13f;" horiz-adv-x="1249" vert-adv-y="2504" d="M172 0l297 1481h309l-256 -1270h754l-43 -211h-1061zM922 653l59 297h295l-59 -297h-295z" />
<glyph unicode="&#x140;" horiz-adv-x="980" vert-adv-y="2504" d="M137 0l316 1579h297l-318 -1579h-295zM758 653l59 297h297l-59 -297h-297z" />
<glyph unicode="&#x141;" horiz-adv-x="1249" vert-adv-y="2504" d="M100 506l39 192l191 93l139 690h307l-104 -525l272 134l-39 -197l-272 -133l-111 -549h752l-41 -211h-1061l119 596z" />
<glyph unicode="&#x142;" horiz-adv-x="567" vert-adv-y="2504" d="M113 559l39 199l151 73l150 748h297l-119 -590l151 72l-39 -195l-151 -71l-160 -795h-295l125 633z" />
<glyph unicode="&#x143;" horiz-adv-x="1478" vert-adv-y="2504" d="M172 0l297 1481h270l414 -1012l203 1012h246l-295 -1481h-277l-407 1012l-203 -1012h-248zM922 1616l305 321h270l-385 -321h-190z" />
<glyph unicode="&#x144;" horiz-adv-x="1249" vert-adv-y="2504" d="M147 0l222 1098h295l-37 -183q219 207 420 207q238 0 237 -217q0 -72 -12 -129l-156 -776h-297l142 702q14 66 14 105q0 84 -94 84q-119 0 -293 -174l-144 -717h-297zM700 1282l303 322h273l-386 -322h-190z" />
<glyph unicode="&#x145;" horiz-adv-x="1478" vert-adv-y="2504" d="M172 0l297 1481h270l414 -1012l203 1012h246l-295 -1481h-277l-407 1012l-203 -1012h-248zM434 -420l21 98q66 -6 110 -6q141 0 142 72q0 51 -117 57l-37 2l20 101q172 -3 246 -37q84 -39 84 -113q0 -76 -82 -131q-84 -55 -198 -55q-72 0 -189 12z" />
<glyph unicode="&#x146;" horiz-adv-x="1249" vert-adv-y="2504" d="M147 0l222 1098h295l-37 -183q219 207 420 207q238 0 237 -217q0 -72 -12 -129l-156 -776h-297l142 702q14 66 14 105q0 84 -94 84q-119 0 -293 -174l-144 -717h-297zM361 -420l20 98q65 -6 111 -6q141 0 141 72q0 51 -116 57l-37 2l20 101q172 -3 246 -37 q84 -41 84 -113q0 -76 -82 -131t-199 -55q-71 0 -188 12z" />
<glyph unicode="&#x147;" horiz-adv-x="1478" vert-adv-y="2504" d="M172 0l297 1481h270l414 -1012l203 1012h246l-295 -1481h-277l-407 1012l-203 -1012h-248zM748 1925h178l157 -199h2l238 199h178l-305 -321h-272z" />
<glyph unicode="&#x148;" horiz-adv-x="1249" vert-adv-y="2504" d="M147 0l222 1098h295l-37 -183q219 207 420 207q238 0 237 -217q0 -72 -12 -129l-156 -776h-297l142 702q14 66 14 105q0 84 -94 84q-119 0 -293 -174l-144 -717h-297zM549 1604h178l158 -197h2l237 197h178l-305 -322h-272z" />
<glyph unicode="&#x149;" horiz-adv-x="1449" vert-adv-y="2504" d="M213 987l20 103q115 0 148 163l4 29h-113l60 297h258l-45 -229q-71 -341 -332 -363zM348 0l219 1098h297l-37 -183q219 207 418 207q240 0 240 -219q0 -61 -15 -127l-153 -776h-297l139 702q14 66 15 105q0 84 -95 84q-119 0 -293 -174l-143 -717h-295z" />
<glyph unicode="&#x14a;" horiz-adv-x="1478" vert-adv-y="2504" d="M172 0l297 1481h270l414 -1012l203 1012h246l-295 -1481l-11 -45q-74 -375 -438 -375q-89 0 -178 25l41 198q68 -25 133 -24q82 0 129 45q43 37 66 133l-426 1055l-203 -1012h-248z" />
<glyph unicode="&#x14b;" horiz-adv-x="1249" vert-adv-y="2504" d="M147 0l222 1098h295l-37 -183q219 207 420 207q238 0 237 -217q0 -72 -12 -129l-166 -829q-74 -367 -426 -367q-76 0 -182 23l39 196q59 -20 112 -20q76 0 109 41q33 39 55 153l148 729q14 66 14 105q0 84 -94 84q-119 0 -293 -174l-144 -717h-297z" />
<glyph unicode="&#x14c;" horiz-adv-x="1591" vert-adv-y="2504" d="M219 541q0 371 225 657q248 319 668 320q582 0 582 -580q0 -369 -228 -657q-248 -317 -682 -318q-565 0 -565 578zM545 545q0 -379 289 -379q184 0 315 143q100 109 160 277q57 158 57 348q0 381 -299 381q-218 0 -369 -228q-153 -227 -153 -542zM758 1604l35 174h741 l-37 -174h-739z" />
<glyph unicode="&#x14d;" horiz-adv-x="1249" vert-adv-y="2504" d="M180 414q0 295 199 504q197 205 485 204q215 0 330 -112q119 -115 119 -326q0 -295 -199 -504q-197 -205 -487 -205q-193 0 -305 95q-142 114 -142 344zM496 403q0 -244 172 -243q119 0 211 127q121 168 120 405q0 246 -174 246q-133 0 -231 -160t-98 -375zM524 1282 l35 174h739l-32 -174h-742z" />
<glyph unicode="&#x14e;" horiz-adv-x="1591" vert-adv-y="2504" d="M219 541q0 371 225 657q248 319 668 320q582 0 582 -580q0 -369 -228 -657q-248 -317 -682 -318q-565 0 -565 578zM545 545q0 -379 289 -379q184 0 315 143q100 109 160 277q57 158 57 348q0 381 -299 381q-218 0 -369 -228q-153 -227 -153 -542zM836 1870q0 10 4 55h147 q18 -141 178 -141q157 0 234 141h147q-47 -139 -137 -217q-119 -104 -279 -104q-129 0 -210 75q-84 74 -84 191z" />
<glyph unicode="&#x14f;" horiz-adv-x="1249" vert-adv-y="2504" d="M180 414q0 295 199 504q197 205 485 204q215 0 330 -112q119 -115 119 -326q0 -295 -199 -504q-197 -205 -487 -205q-193 0 -305 95q-142 114 -142 344zM496 403q0 -244 172 -243q119 0 211 127q121 168 120 405q0 246 -174 246q-133 0 -231 -160t-98 -375zM602 1550 q0 14 2 33v21h150q18 -141 178 -142q154 0 231 142h150q-45 -133 -139 -215q-123 -106 -279 -107q-125 0 -209 77.5t-84 190.5z" />
<glyph unicode="&#x150;" horiz-adv-x="1591" vert-adv-y="2504" d="M219 541q0 371 225 657q248 319 668 320q582 0 582 -580q0 -369 -228 -657q-248 -317 -682 -318q-565 0 -565 578zM545 545q0 -379 289 -379q184 0 315 143q100 109 160 277q57 158 57 348q0 381 -299 381q-218 0 -369 -228q-153 -227 -153 -542zM813 1604l305 321h230 l-385 -321h-150zM1190 1604l305 321h229l-387 -321h-147z" />
<glyph unicode="&#x151;" horiz-adv-x="1249" vert-adv-y="2504" d="M180 414q0 295 199 504q197 205 485 204q215 0 330 -112q119 -115 119 -326q0 -295 -199 -504q-197 -205 -487 -205q-193 0 -305 95q-142 114 -142 344zM496 403q0 -244 172 -243q119 0 211 127q121 168 120 405q0 246 -174 246q-133 0 -231 -160t-98 -375zM577 1282 l305 322h230l-385 -322h-150zM954 1282l305 322h227l-385 -322h-147z" />
<glyph unicode="&#x152;" horiz-adv-x="2048" vert-adv-y="2504" d="M219 541q0 367 225 657q248 319 666 320q143 0 266 -37h873l-41 -203h-615l-84 -414h504l-39 -198h-504l-92 -455h662l-41 -211h-920q-135 -37 -280 -37q-580 0 -580 578zM545 545q0 -377 293 -377q120 0 239 74l199 997q-51 43 -88 59q-43 16 -123 17q-219 0 -369 -230 q-151 -231 -151 -540z" />
<glyph unicode="&#x153;" horiz-adv-x="1931" vert-adv-y="2504" d="M180 412q0 297 199 506q197 205 483 204q154 0 252 -53q55 -29 109 -88q172 141 387 141q356 0 356 -362q0 -86 -33 -271h-645q-4 -33 -4 -69q0 -244 270 -244q131 0 330 70l-41 -209q-203 -61 -377 -62q-164 0 -278 58q-61 29 -125 96q-195 -154 -432 -154 q-217 0 -332 113q-119 115 -119 324zM494 403q0 -244 172 -243q121 0 213 127q121 168 120 405q0 246 -174 246q-133 0 -231 -160q-100 -164 -100 -375zM1319 657h356q16 88 17 136q0 145 -119 145q-100 0 -170 -100q-45 -66 -84 -181z" />
<glyph unicode="&#x154;" horiz-adv-x="1478" vert-adv-y="2504" d="M172 0l297 1481h645q385 0 385 -289q0 -180 -137 -332q-98 -106 -242 -170l346 -690h-346l-295 604h-241l-121 -604h-291zM625 809h161q174 0 283 88q113 90 113 221q0 160 -267 160h-196zM836 1616l305 321h270l-385 -321h-190z" />
<glyph unicode="&#x155;" horiz-adv-x="796" vert-adv-y="2504" d="M172 0l221 1098h295l-37 -183q133 207 287 207q25 0 49 -6l-51 -262q-55 23 -90 23q-114 0 -234 -154l-143 -723h-297zM479 1282l303 322h273l-386 -322h-190z" />
<glyph unicode="&#x156;" horiz-adv-x="1478" vert-adv-y="2504" d="M172 0l297 1481h645q385 0 385 -289q0 -180 -137 -332q-98 -106 -242 -170l346 -690h-346l-295 604h-241l-121 -604h-291zM453 -420l20 98q65 -6 111 -6q141 0 141 72q0 51 -117 57l-37 2l21 101q172 -3 246 -37q86 -39 86 -113q0 -76 -84 -131q-82 -55 -199 -55 q-71 0 -188 12zM625 809h161q174 0 283 88q113 90 113 221q0 160 -267 160h-196z" />
<glyph unicode="&#x157;" horiz-adv-x="796" vert-adv-y="2504" d="M172 0l221 1098h295l-37 -183q133 207 287 207q25 0 49 -6l-51 -262q-55 23 -90 23q-114 0 -234 -154l-143 -723h-297zM115 -420l20 98q65 -6 111 -6q141 0 141 72q0 51 -116 57l-37 2l20 101q172 -3 246 -37q84 -41 84 -113q0 -76 -82 -131t-199 -55q-71 0 -188 12z" />
<glyph unicode="&#x158;" horiz-adv-x="1478" vert-adv-y="2504" d="M172 0l297 1481h645q385 0 385 -289q0 -180 -137 -332q-98 -106 -242 -170l346 -690h-346l-295 604h-241l-121 -604h-291zM625 809h161q174 0 283 88q113 90 113 221q0 160 -267 160h-196zM694 1925h178l158 -199h2l238 199h180l-305 -321h-275z" />
<glyph unicode="&#x159;" horiz-adv-x="796" vert-adv-y="2504" d="M172 0l221 1098h295l-37 -183q133 207 287 207q25 0 49 -6l-51 -262q-55 23 -90 23q-114 0 -234 -154l-143 -723h-297zM342 1604h178l158 -197h2l237 197h178l-305 -322h-272z" />
<glyph unicode="&#x15a;" horiz-adv-x="1363" vert-adv-y="2504" d="M104 12l50 252q276 -98 505 -98q175 0 271 55q113 66 112 195q0 92 -98 131l-127 51l-149 61q-209 88 -283 158q-78 74 -78 195q0 238 182 370q182 135 527 136q238 0 463 -52l-47 -233q-225 82 -451 82q-180 0 -270 -51q-84 -49 -84 -154q0 -51 53 -92q37 -25 84 -45 l104 -45l156 -64q178 -72 268 -157.5t90 -198.5q0 -174 -112 -318q-180 -227 -692 -227q-141 0 -322 27zM819 1616l305 321h271l-385 -321h-191z" />
<glyph unicode="&#x15b;" vert-adv-y="2504" d="M131 37l43 215q215 -92 375 -92q115 0 178 37q63 39 64 100q0 63 -150 127l-90 41q-170 74 -219 123q-51 51 -51 139q0 180 145 289q143 106 391 106q156 0 350 -39l-41 -202q-209 57 -319 57q-106 0 -163.5 -33t-57.5 -94q0 -57 137 -115l78 -32q184 -78 241 -132 q66 -59 66 -153q0 -176 -162 -291q-162 -113 -424 -113q-194 1 -391 62zM668 1282l303 322h273l-386 -322h-190z" />
<glyph unicode="&#x15c;" horiz-adv-x="1363" vert-adv-y="2504" d="M104 12l50 252q276 -98 505 -98q175 0 271 55q113 66 112 195q0 92 -98 131l-127 51l-149 61q-209 88 -283 158q-78 74 -78 195q0 238 182 370q182 135 527 136q238 0 463 -52l-47 -233q-225 82 -451 82q-180 0 -270 -51q-84 -49 -84 -154q0 -51 53 -92q37 -25 84 -45 l104 -45l156 -64q178 -72 268 -157.5t90 -198.5q0 -174 -112 -318q-180 -227 -692 -227q-141 0 -322 27zM653 1604l305 321h275l176 -321h-178l-160 196h-2l-238 -196h-178z" />
<glyph unicode="&#x15d;" vert-adv-y="2504" d="M131 37l43 215q215 -92 375 -92q115 0 178 37q63 39 64 100q0 63 -150 127l-90 41q-170 74 -219 123q-51 51 -51 139q0 180 145 289q143 106 391 106q156 0 350 -39l-41 -202q-209 57 -319 57q-106 0 -163.5 -33t-57.5 -94q0 -57 137 -115l78 -32q184 -78 241 -132 q66 -59 66 -153q0 -176 -162 -291q-162 -113 -424 -113q-194 1 -391 62zM465 1282l303 322h274l177 -322h-179l-157 199h-2l-238 -199h-178z" />
<glyph unicode="&#x15e;" horiz-adv-x="1363" vert-adv-y="2504" d="M104 12l50 252q276 -98 505 -98q175 0 271 55q113 66 112 195q0 92 -98 131l-127 51l-149 61q-209 88 -283 158q-78 74 -78 195q0 238 182 370q182 135 527 136q238 0 463 -52l-47 -233q-227 82 -449 82q-186 0 -272 -51q-84 -49 -84 -154q0 -51 53 -92q37 -25 84 -45 l104 -45l156 -64q180 -74 268 -157q90 -86 90 -199q0 -174 -112 -318q-180 -227 -692 -227q-141 0 -322 27zM397 -401l19 90q63 -14 116 -15q133 0 134 70q0 74 -181 74h-18l156 182h137l-98 -113q201 -25 200 -135q0 -74 -84 -129q-86 -55 -196 -55q-84 0 -185 31z" />
<glyph unicode="&#x15f;" vert-adv-y="2504" d="M131 37l43 215q215 -92 375 -92q115 0 178 37q63 39 64 100q0 63 -150 127l-90 41q-170 74 -219 123q-51 51 -51 139q0 180 145 289q143 106 391 106q156 0 350 -39l-41 -202q-209 57 -319 57q-106 0 -163.5 -33t-57.5 -94q0 -57 137 -115l78 -32q184 -78 241 -132 q66 -59 66 -153q0 -176 -162 -291q-162 -113 -424 -113q-194 1 -391 62zM287 -401l16 90q63 -14 117 -15q133 0 133 70q0 74 -180 74h-20l157 182h137l-98 -113q203 -25 203 -137q0 -72 -86 -127t-197 -55q-82 0 -182 31z" />
<glyph unicode="&#x160;" horiz-adv-x="1363" vert-adv-y="2504" d="M104 12l50 252q276 -98 505 -98q175 0 271 55q113 66 112 195q0 92 -98 131l-127 51l-149 61q-209 88 -283 158q-78 74 -78 195q0 238 182 370q182 135 527 136q238 0 463 -52l-47 -233q-225 82 -451 82q-180 0 -270 -51q-84 -49 -84 -154q0 -51 53 -92q37 -25 84 -45 l104 -45l156 -64q178 -72 268 -157.5t90 -198.5q0 -174 -112 -318q-180 -227 -692 -227q-141 0 -322 27zM694 1925h178l158 -199h4l238 199h178l-305 -321h-275z" />
<glyph unicode="&#x161;" vert-adv-y="2504" d="M131 37l43 215q215 -92 375 -92q115 0 178 37q63 39 64 100q0 63 -150 127l-90 41q-170 74 -219 123q-51 51 -51 139q0 180 145 289q143 106 391 106q156 0 350 -39l-41 -202q-209 57 -319 57q-106 0 -163.5 -33t-57.5 -94q0 -57 137 -115l78 -32q184 -78 241 -132 q66 -59 66 -153q0 -176 -162 -291q-162 -113 -424 -113q-194 1 -391 62zM523 1604h178l158 -197h2l237 197h178l-305 -322h-272z" />
<glyph unicode="&#x162;" horiz-adv-x="1249" vert-adv-y="2504" d="M295 1278l41 203h1171l-41 -203h-430l-256 -1278h-309l256 1278h-432zM340 -401l18 90q63 -14 117 -15q133 0 133 70q0 74 -180 74h-20l157 182h135l-98 -113q205 -25 205 -137q0 -72 -86 -127t-199 -55q-80 0 -182 31z" />
<glyph unicode="&#x163;" horiz-adv-x="681" vert-adv-y="2504" d="M135 -401l19 90q63 -14 116 -15q133 0 133 70q0 74 -180 74h-20l157 182h138l-99 -113q201 -25 201 -137q0 -74 -84 -127q-86 -55 -197 -55q-83 0 -184 31zM215 209q0 63 14 127l115 577h-98l37 185h100l37 184l303 35l-45 -219h196l-36 -185h-197l-109 -538 q-18 -88 -18 -127q0 -76 84 -76q29 0 104 14l-36 -186q-120 -25 -197 -25q-254 1 -254 234z" />
<glyph unicode="&#x164;" horiz-adv-x="1249" vert-adv-y="2504" d="M295 1278l41 203h1171l-41 -203h-430l-256 -1278h-309l256 1278h-432zM635 1925h176l160 -199h2l237 199h179l-306 -321h-272z" />
<glyph unicode="&#x165;" horiz-adv-x="980" vert-adv-y="2504" d="M217 209q0 61 14 127l117 577h-98l37 185h98l37 184l303 35l-43 -219h197l-37 -185h-199l-106 -538q-18 -88 -19 -127q0 -76 84 -76q27 0 103 14l-37 -186q-120 -25 -197 -25q-254 1 -254 234zM911 1135l21 102q113 0 145 166l6 29h-112l57 294h260l-47 -229 q-72 -342 -330 -362z" />
<glyph unicode="&#x166;" horiz-adv-x="1249" vert-adv-y="2504" d="M295 1278l41 203h1171l-41 -203h-430l-82 -401h310l-35 -175h-307l-142 -702h-309l141 702h-309l37 175h307l80 401h-432z" />
<glyph unicode="&#x167;" horiz-adv-x="681" vert-adv-y="2504" d="M174 555l31 147h98l41 211h-98l37 185h100l37 184l303 35l-45 -219h196l-36 -185h-197l-43 -211h199l-29 -147h-199l-37 -180q-18 -88 -18 -127q0 -76 84 -76q29 0 104 14l-36 -186q-120 -25 -197 -25q-254 0 -254 234q0 61 14 127l43 219h-98z" />
<glyph unicode="&#x168;" horiz-adv-x="1478" vert-adv-y="2504" d="M250 352q0 90 26 221l183 908h309l-182 -908q-23 -117 -23 -188q0 -217 234 -217q289 0 364 383l187 930h268l-182 -910q-41 -209 -101 -313q-61 -109 -180 -186q-168 -109 -401 -109q-231 0 -366.5 104.5t-135.5 284.5zM729 1604q35 143 80 213q72 109 186 108 q63 0 119 -43l33 -27q4 -2 10 -8q10 -8 17 -12q53 -45 83 -45q65 0 93 135h147q-35 -150 -80 -215q-70 -106 -182 -106q-66 0 -121 43l-33 26q-25 20 -26 23q-45 45 -84 45q-63 0 -92 -137h-150z" />
<glyph unicode="&#x169;" horiz-adv-x="1249" vert-adv-y="2504" d="M186 195q0 51 15 127l155 776h295l-139 -703q-14 -76 -14 -102q0 -84 92 -84q121 0 295 174l141 715h297l-219 -1098h-295l35 182q-219 -207 -420 -207q-238 1 -238 220zM524 1282q29 133 80 211q71 111 184 111q63 0 119 -43l33 -25q2 0 4 -2l4 -4l6 -6l15 -11 q45 -45 84 -45q65 0 92 136h147q-29 -133 -80 -211q-70 -111 -186 -111q-61 0 -117 43l-32 27q-14 10 -27 22q-45 45 -84 45q-63 0 -92 -137h-150z" />
<glyph unicode="&#x16a;" horiz-adv-x="1478" vert-adv-y="2504" d="M250 352q0 90 26 221l183 908h309l-182 -908q-23 -117 -23 -188q0 -217 234 -217q289 0 364 383l187 930h268l-182 -910q-41 -209 -101 -313q-61 -109 -180 -186q-168 -109 -401 -109q-231 0 -366.5 104.5t-135.5 284.5zM713 1604l35 174h739l-35 -174h-739z" />
<glyph unicode="&#x16b;" horiz-adv-x="1249" vert-adv-y="2504" d="M186 195q0 51 15 127l155 776h295l-139 -703q-14 -76 -14 -102q0 -84 92 -84q121 0 295 174l141 715h297l-219 -1098h-295l35 182q-219 -207 -420 -207q-238 1 -238 220zM506 1282l35 174h739l-32 -174h-742z" />
<glyph unicode="&#x16c;" horiz-adv-x="1478" vert-adv-y="2504" d="M250 352q0 90 26 221l183 908h309l-182 -908q-23 -117 -23 -188q0 -217 234 -217q289 0 364 383l187 930h268l-182 -910q-41 -209 -101 -313q-61 -109 -180 -186q-168 -109 -401 -109q-231 0 -366.5 104.5t-135.5 284.5zM791 1870q0 33 2 55h147q8 -70 51 -104 q45 -37 127 -37q157 0 234 141h147q-47 -139 -137 -217q-121 -104 -279 -104q-127 0 -209 75q-83 74 -83 191z" />
<glyph unicode="&#x16d;" horiz-adv-x="1249" vert-adv-y="2504" d="M186 195q0 51 15 127l155 776h295l-139 -703q-14 -76 -14 -102q0 -84 92 -84q121 0 295 174l141 715h297l-219 -1098h-295l35 182q-219 -207 -420 -207q-238 1 -238 220zM584 1548q0 10 4 56h147q18 -141 178 -142q157 0 234 142h147q-45 -133 -139 -215 q-123 -106 -278 -107q-125 0 -209 77.5t-84 188.5z" />
<glyph unicode="&#x16e;" horiz-adv-x="1478" vert-adv-y="2504" d="M250 352q0 90 26 221l183 908h309l-182 -908q-23 -117 -23 -188q0 -217 234 -217q289 0 364 383l187 930h268l-182 -910q-41 -209 -101 -313q-61 -109 -180 -186q-168 -109 -401 -109q-231 0 -366.5 104.5t-135.5 284.5zM891 1792q0 109 86 195q88 86 199 86 q82 0 139 -54q53 -51 53 -135q0 -106 -88 -194q-88 -86 -201 -86q-72 0 -125 43q-63 55 -63 145zM1004 1812q0 -98 98 -98q53 0 96 37q57 51 57 113q0 98 -100 98q-61 0 -106 -45.5t-45 -104.5z" />
<glyph unicode="&#x16f;" horiz-adv-x="1249" vert-adv-y="2504" d="M186 195q0 51 15 127l155 776h295l-139 -703q-14 -76 -14 -102q0 -84 92 -84q121 0 295 174l141 715h297l-219 -1098h-295l35 182q-219 -207 -420 -207q-238 1 -238 220zM684 1470q0 109 88 195t198 86q84 0 138 -51q55 -52 55 -135q0 -111 -88 -197q-86 -86 -201 -86 q-72 0 -125 43q-65 55 -65 145zM798 1493q0 -98 99 -98q55 0 96 35q55 49 55 112q0 98 -98 98q-61 0 -106.5 -45t-45.5 -102z" />
<glyph unicode="&#x170;" horiz-adv-x="1478" vert-adv-y="2504" d="M250 352q0 90 26 221l183 908h309l-182 -908q-23 -117 -23 -188q0 -217 234 -217q289 0 364 383l187 930h268l-182 -910q-41 -209 -101 -313q-61 -109 -180 -186q-168 -109 -401 -109q-231 0 -366.5 104.5t-135.5 284.5zM766 1604l305 321h229l-385 -321h-149zM1143 1604 l305 321h227l-385 -321h-147z" />
<glyph unicode="&#x171;" horiz-adv-x="1249" vert-adv-y="2504" d="M186 195q0 51 15 127l155 776h295l-139 -703q-14 -76 -14 -102q0 -84 92 -84q121 0 295 174l141 715h297l-219 -1098h-295l35 182q-219 -207 -420 -207q-238 1 -238 220zM541 1282l305 322h230l-385 -322h-150zM918 1282l305 322h227l-385 -322h-147z" />
<glyph unicode="&#x172;" horiz-adv-x="1478" vert-adv-y="2504" d="M250 352q0 90 26 221l183 908h309l-182 -908q-23 -117 -23 -188q0 -217 234 -217q289 0 364 383l187 930h268l-182 -910q-41 -209 -101 -313q-61 -109 -180 -186q-168 -109 -401 -109q-231 0 -366.5 104.5t-135.5 284.5zM526 -233q0 126 271 233h157q-223 -98 -223 -197 q0 -78 143 -77q88 0 140 14l-17 -82q-98 -29 -206 -29q-265 1 -265 138z" />
<glyph unicode="&#x173;" horiz-adv-x="1249" vert-adv-y="2504" d="M186 195q0 51 15 127l155 776h295l-139 -703q-14 -76 -14 -102q0 -84 92 -84q121 0 295 174l141 715h297l-219 -1098h-295h158q-225 -98 -226 -197q0 -78 148 -77q80 0 135 14l-14 -82q-102 -29 -207 -29q-264 0 -264 138q0 126 270 233l35 182q-94 -92 -180 -139 q-120 -68 -240 -68q-238 1 -238 220z" />
<glyph unicode="&#x174;" horiz-adv-x="1931" vert-adv-y="2504" d="M322 1481h290l66 -1084l496 1084h256l38 -1088l519 1088h219l-709 -1481h-295l-37 1016l-467 -1016h-292zM948 1604l305 321h275l176 -321h-178l-160 196h-2l-238 -196h-178z" />
<glyph unicode="&#x175;" horiz-adv-x="1591" vert-adv-y="2504" d="M281 1098h268l31 -768l346 768h256l14 -772l356 772h199l-506 -1098h-282l-15 754l-338 -754h-282zM715 1282l303 322h274l176 -322h-178l-157 199h-5l-235 -199h-178z" />
<glyph unicode="&#x176;" horiz-adv-x="1363" vert-adv-y="2504" d="M324 1481h342l229 -627l496 627h243l-682 -858l-125 -623h-309l125 621zM676 1604l305 321h272l177 -321h-179l-157 196h-2l-238 -196h-178z" />
<glyph unicode="&#x177;" vert-adv-y="2504" d="M92 -395l328 395l-174 1098h311l113 -711l444 711h219l-938 -1493h-303zM496 1282l305 322h272l176 -322h-178l-158 199h-2l-237 -199h-178z" />
<glyph unicode="&#x178;" horiz-adv-x="1363" vert-adv-y="2504" d="M324 1481h342l229 -627l496 627h243l-682 -858l-125 -623h-309l125 621zM731 1604l45 223h221l-43 -223h-223zM1151 1604l45 223h221l-45 -223h-221z" />
<glyph unicode="&#x179;" horiz-adv-x="1249" vert-adv-y="2504" d="M94 0l41 211l920 1067h-664l41 203h1022l-41 -203l-919 -1067h706l-43 -211h-1063zM756 1604l305 321h270l-385 -321h-190z" />
<glyph unicode="&#x17a;" horiz-adv-x="1024" vert-adv-y="2504" d="M111 0l39 197l614 716h-442l36 185h775l-37 -185l-615 -716h484l-39 -197h-815zM584 1282l303 322h273l-386 -322h-190z" />
<glyph unicode="&#x17b;" horiz-adv-x="1249" vert-adv-y="2504" d="M94 0l41 211l920 1067h-664l41 203h1022l-41 -203l-919 -1067h706l-43 -211h-1063zM819 1604l60 297h297l-60 -297h-297z" />
<glyph unicode="&#x17c;" horiz-adv-x="1024" vert-adv-y="2504" d="M111 0l39 197l614 716h-442l36 185h775l-37 -185l-615 -716h484l-39 -197h-815zM635 1282l59 297h295l-60 -297h-294z" />
<glyph unicode="&#x17d;" horiz-adv-x="1249" vert-adv-y="2504" d="M94 0l41 211l920 1067h-664l41 203h1022l-41 -203l-919 -1067h706l-43 -211h-1063zM655 1925h179l157 -199h2l238 199h178l-303 -321h-275z" />
<glyph unicode="&#x17e;" horiz-adv-x="1024" vert-adv-y="2504" d="M111 0l39 197l614 716h-442l36 185h775l-37 -185l-615 -716h484l-39 -197h-815zM469 1604h178l158 -197h2l237 197h178l-305 -322h-272z" />
<glyph unicode="&#x17f;" horiz-adv-x="628" vert-adv-y="2504" d="M168 0l182 913h-114l36 185h115l16 80q86 426 474 426q82 0 176 -25l-37 -193q-74 33 -142 33q-127 0 -174 -231l-237 -1188h-295z" />
<glyph unicode="&#x192;" vert-adv-y="2504" d="M-10 -297l395 993h-147l36 187h187l37 90q225 545 692 545q104 0 196 -19l-38 -205q-123 39 -207 39q-201 0 -310 -274l-69 -176h176l-37 -187h-213l-395 -993h-303z" />
<glyph unicode="&#x218;" horiz-adv-x="1363" vert-adv-y="2504" d="M104 12l50 252q276 -98 505 -98q175 0 271 55q113 66 112 195q0 92 -98 131l-127 51l-149 61q-209 88 -283 158q-78 74 -78 195q0 238 182 370q182 135 527 136q238 0 463 -52l-47 -233q-227 82 -449 82q-186 0 -272 -51q-84 -49 -84 -154q0 -51 53 -92q37 -25 84 -45 l104 -45l156 -64q180 -74 268 -157q90 -86 90 -199q0 -174 -112 -318q-180 -227 -692 -227q-141 0 -322 27zM420 -420l20 98q65 -6 111 -6q141 0 141 72q0 51 -117 57l-36 2l20 101q172 -3 246 -37q86 -39 86 -115q0 -74 -84 -129q-82 -55 -199 -55q-71 0 -188 12z" />
<glyph unicode="&#x219;" vert-adv-y="2504" d="M131 37l43 215q215 -92 375 -92q115 0 178 37q63 39 64 100q0 63 -150 127l-90 41q-170 74 -219 123q-51 51 -51 139q0 180 145 289q143 106 391 106q156 0 350 -39l-41 -202q-209 57 -319 57q-106 0 -163.5 -33t-57.5 -94q0 -57 137 -115l78 -32q184 -78 241 -132 q66 -59 66 -153q0 -176 -162 -291q-162 -113 -424 -113q-194 1 -391 62zM299 -420l20 98q65 -6 111 -6q141 0 141 72q0 51 -116 57l-37 2l20 101q172 -3 246 -37q84 -41 84 -113q0 -76 -82 -131t-199 -55q-71 0 -188 12z" />
<glyph unicode="&#x21a;" horiz-adv-x="1249" vert-adv-y="2504" d="M295 1278l41 203h1171l-41 -203h-430l-256 -1278h-309l256 1278h-432zM340 -420l18 98q63 -6 111 -6q141 0 141 72q0 51 -116 57l-37 2l20 101q172 -3 246 -37q86 -39 86 -113q0 -76 -84 -131q-82 -55 -199 -55q-69 0 -186 12z" />
<glyph unicode="&#x21b;" horiz-adv-x="681" vert-adv-y="2504" d="M215 209q0 61 14 127l117 577h-98l37 185h98l37 184l303 35l-43 -219h197l-37 -185h-199l-106 -538q-18 -88 -19 -127q0 -76 84 -76q27 0 103 14l-37 -186q-120 -25 -197 -25q-254 1 -254 234zM127 -420l20 98q65 -6 111 -6q141 0 141 72q0 51 -116 57l-37 2l20 101 q172 -3 246 -37q84 -41 84 -113q0 -76 -82 -131t-199 -55q-71 0 -188 12z" />
<glyph unicode="&#x2c6;" horiz-adv-x="681" vert-adv-y="2504" d="M219 1282l305 322h275l176 -322h-178l-158 199h-4l-238 -199h-178z" />
<glyph unicode="&#x2c7;" horiz-adv-x="681" vert-adv-y="2504" d="M285 1604h178l158 -197h2l237 197h178l-305 -322h-272z" />
<glyph unicode="&#x2c9;" horiz-adv-x="681" vert-adv-y="2504" d="M227 1282l35 174h739l-32 -174h-742z" />
<glyph unicode="&#x2d8;" horiz-adv-x="681" vert-adv-y="2504" d="M305 1548q0 33 2 56h150q18 -141 178 -142q156 0 231 142h150q-45 -133 -139 -215q-123 -106 -279 -107q-125 0 -209 77.5t-84 188.5z" />
<glyph unicode="&#x2d9;" horiz-adv-x="681" vert-adv-y="2504" d="M451 1282l59 297h295l-60 -297h-294z" />
<glyph unicode="&#x2da;" horiz-adv-x="681" vert-adv-y="2504" d="M410 1470q0 109 88 195t198 86q84 0 138 -51q55 -52 55 -135q0 -111 -88 -197q-86 -86 -201 -86q-72 0 -125 43q-65 55 -65 145zM524 1493q0 -98 99 -98q55 0 96 35q55 49 55 112q0 98 -98 98q-61 0 -106.5 -45t-45.5 -102z" />
<glyph unicode="&#x2db;" horiz-adv-x="681" vert-adv-y="2504" d="M51 -233q0 126 271 233h157q-223 -98 -223 -197q0 -78 145 -77q86 0 138 14l-17 -82q-98 -29 -207 -29q-264 1 -264 138z" />
<glyph unicode="&#x2dc;" horiz-adv-x="681" vert-adv-y="2504" d="M246 1282q29 133 80 211q71 111 184 111q63 0 119 -43l33 -25q6 -4 12 -10q6 -4 8 -7t6 -6q53 -45 84 -45q61 0 92 136h150q-33 -139 -80 -211q-72 -111 -186 -111q-59 0 -117 43l-35 27q-6 6 -16 14q-2 2 -7 5l-4 3q-45 45 -84 45q-63 0 -92 -137h-147z" />
<glyph unicode="&#x2dd;" horiz-adv-x="681" vert-adv-y="2504" d="M174 1282l305 322h230l-385 -322h-150zM551 1282l305 322h227l-385 -322h-147z" />
<glyph unicode="&#x326;" horiz-adv-x="681" vert-adv-y="2504" d="M39 -420l20 98q65 -6 111 -6q141 0 141 72q0 51 -116 57l-37 2l20 101q172 -3 246 -37q84 -41 84 -113q0 -76 -82 -131t-199 -55q-71 0 -188 12z" />
<glyph unicode="&#x37e;" horiz-adv-x="681" vert-adv-y="2504" d="M129 -322l23 111q117 31 147 180l4 31h-110l59 297h297l-45 -223q-74 -369 -375 -396zM352 803l62 295h295l-60 -295h-297z" />
<glyph unicode="&#x387;" horiz-adv-x="567" vert-adv-y="2504" d="M217 469l64 319h321l-63 -319h-322z" />
<glyph unicode="&#x2000;" horiz-adv-x="1034" vert-adv-y="0" />
<glyph unicode="&#x2001;" horiz-adv-x="2072" vert-adv-y="0" />
<glyph unicode="&#x2002;" horiz-adv-x="1034" vert-adv-y="0" />
<glyph unicode="&#x2003;" horiz-adv-x="2072" vert-adv-y="0" />
<glyph unicode="&#x2004;" horiz-adv-x="690" vert-adv-y="0" />
<glyph unicode="&#x2005;" horiz-adv-x="516" vert-adv-y="0" />
<glyph unicode="&#x2006;" horiz-adv-x="344" vert-adv-y="0" />
<glyph unicode="&#x2007;" horiz-adv-x="344" vert-adv-y="0" />
<glyph unicode="&#x2008;" horiz-adv-x="258" vert-adv-y="0" />
<glyph unicode="&#x2009;" horiz-adv-x="413" vert-adv-y="0" />
<glyph unicode="&#x200a;" horiz-adv-x="114" vert-adv-y="0" />
<glyph unicode="&#x2010;" horiz-adv-x="681" vert-adv-y="2504" d="M182 543l37 184h535l-37 -184h-535z" />
<glyph unicode="&#x2011;" horiz-adv-x="681" vert-adv-y="2504" d="M182 543l37 184h535l-37 -184h-535z" />
<glyph unicode="&#x2012;" vert-adv-y="2504" d="M197 537l30 159h965l-33 -159h-962z" />
<glyph unicode="&#x2013;" vert-adv-y="2504" d="M197 537l30 159h965l-33 -159h-962z" />
<glyph unicode="&#x2014;" horiz-adv-x="2048" vert-adv-y="2504" d="M188 537l25 122h1888l-24 -122h-1889z" />
<glyph unicode="&#x2015;" horiz-adv-x="2048" vert-adv-y="2504" d="M188 537l25 122h1888l-24 -122h-1889z" />
<glyph unicode="&#x2018;" horiz-adv-x="567" vert-adv-y="2504" d="M311 938l49 248q80 393 402 393l-25 -111q-121 0 -157 -178l-7 -33h123l-63 -319h-322z" />
<glyph unicode="&#x2019;" horiz-adv-x="567" vert-adv-y="2504" d="M311 938l23 111q123 0 160 178l6 30h-123l63 322h322l-51 -248q-81 -393 -400 -393z" />
<glyph unicode="&#x201a;" horiz-adv-x="567" vert-adv-y="2504" d="M59 -322l23 111q127 0 160 178l6 33h-123l63 322h322l-51 -250q-81 -394 -400 -394z" />
<glyph unicode="&#x201b;" horiz-adv-x="567" vert-adv-y="2504" />
<glyph unicode="&#x201c;" horiz-adv-x="1024" vert-adv-y="2504" d="M322 963l45 223q74 366 374 393l-20 -111q-120 -31 -148 -178l-6 -33h111l-60 -294h-296zM791 963l45 223q74 366 374 393l-20 -111q-120 -31 -148 -178l-6 -33h111l-60 -294h-296z" />
<glyph unicode="&#x201d;" horiz-adv-x="1024" vert-adv-y="2504" d="M322 963l22 110q117 31 148 178l6 31h-111l59 297h295l-45 -223q-76 -365 -374 -393zM791 963l22 110q121 31 148 178l6 31h-113l61 297h295l-45 -223q-76 -365 -374 -393z" />
<glyph unicode="&#x201e;" horiz-adv-x="1024" vert-adv-y="2504" d="M66 -322l20 111q117 31 147 180l7 31h-111l59 297h295l-43 -223q-73 -369 -374 -396zM535 -322l20 111q117 31 147 180l7 31h-111l59 297h295l-45 -223q-73 -367 -372 -396z" />
<glyph unicode="&#x2020;" vert-adv-y="2504" d="M250 776l45 223l346 -24l78 506h295l-125 -506l356 24l-45 -223l-346 27l-195 -1100h-297l244 1100z" />
<glyph unicode="&#x2021;" vert-adv-y="2504" d="M131 184l43 224l348 -25l84 420l-356 -27l45 223l346 -24l76 506h297l-127 -506l356 24l-45 -223l-344 27l-86 -420l356 25l-43 -224l-348 27l-76 -508h-295l125 508z" />
<glyph unicode="&#x2022;" horiz-adv-x="716" vert-adv-y="2504" d="M250 793q0 129 104 229q102 100 238 100q98 0 162 -63q61 -61 61 -162q0 -127 -102 -227q-106 -102 -238 -103q-84 0 -147 54q-78 66 -78 172z" />
<glyph unicode="&#x2026;" horiz-adv-x="2048" vert-adv-y="2504" d="M180 0l66 322h319l-63 -322h-322zM864 0l64 322h321l-65 -322h-320zM1546 0l66 322h319l-63 -322h-322z" />
<glyph unicode="&#x202f;" horiz-adv-x="413" vert-adv-y="0" />
<glyph unicode="&#x2030;" horiz-adv-x="2048" vert-adv-y="2504" d="M25 -37l1419 1555h151l-1419 -1555h-151zM233 1004q0 201 113 337q115 139 285 140q250 0 250 -264q0 -203 -113 -340.5t-291 -137.5q-244 1 -244 265zM430 1014q0 -125 82 -125q59 0 109 76q61 96 61 243q0 123 -82 123q-68 0 -119 -96t-51 -221zM737 262q0 201 115 340 q113 137 285 137q250 0 249 -262q0 -203 -112.5 -340t-290.5 -137q-246 0 -246 262zM936 272q0 -125 82 -125q59 0 106 78q63 100 64 244q0 123 -80 123q-70 0 -121 -96.5t-51 -223.5zM1462 262q0 203 113 340t285 137q250 0 249 -262q0 -203 -112.5 -340t-290.5 -137 q-244 0 -244 262zM1661 272q0 -125 80 -125q63 0 108 76q63 100 64 244q0 125 -82 125q-68 0 -119 -96.5t-51 -223.5z" />
<glyph unicode="&#x2039;" horiz-adv-x="681" vert-adv-y="2504" d="M170 549l506 444l119 -104l-330 -340l192 -338l-159 -107z" />
<glyph unicode="&#x203a;" horiz-adv-x="681" vert-adv-y="2504" d="M106 211l330 338l-192 340l157 104l328 -444l-504 -445z" />
<glyph unicode="&#x203e;" vert-adv-y="2504" d="M367 1444l30 160h983l-30 -160h-983z" />
<glyph unicode="&#x2044;" horiz-adv-x="339" vert-adv-y="2504" d="M-467 -37l1419 1555h152l-1419 -1555h-152z" />
<glyph unicode="&#x205f;" horiz-adv-x="516" vert-adv-y="0" />
<glyph unicode="&#x20ac;" vert-adv-y="2504" d="M96 481l97 172h67q18 121 41 199h-131l96 172h101q66 131 127 209q227 285 600 285q143 0 266 -37l-43 -215q-113 55 -242 55q-156 0 -274 -109q-72 -66 -139 -188h518l-97 -172h-487q-23 -86 -39 -199h416l-99 -172h-321q18 -172 72 -235q68 -86 233 -86q111 0 248 53 l-41 -205q-135 -45 -303 -45q-250 0 -377 133q-82 84 -113 226q-10 45 -20 159h-156z" />
<glyph unicode="&#x2122;" horiz-adv-x="2048" vert-adv-y="2504" d="M469 1358l25 123h735l-25 -123h-268l-125 -619h-197l123 619h-268zM1210 739l148 742h254l61 -473l254 473h219l-147 -742h-178l102 518l-254 -466h-143l-62 481l-106 -533h-148z" />
<glyph unicode="&#x212e;" vert-adv-y="2504" d="M180 426q0 291 184.5 493.5t448.5 202.5q356 0 356 -362q0 -98 -30 -271h-645q-6 -49 -7 -69q0 -244 271 -244q133 0 332 70l-41 -209q-203 -61 -381 -62q-488 0 -488 451zM522 657h359q14 72 14 136q0 145 -119 145q-162 0 -254 -281z" />
<glyph unicode="&#x2212;" horiz-adv-x="1193" vert-adv-y="2504" d="M207 506l35 174h987l-35 -174h-987z" />
<glyph unicode="&#x2215;" horiz-adv-x="339" vert-adv-y="2504" d="M-467 -37l1419 1555h152l-1419 -1555h-152z" />
<glyph unicode="&#x2219;" horiz-adv-x="567" vert-adv-y="2504" d="M217 469l64 319h321l-63 -319h-322z" />
<glyph unicode="&#x22c5;" horiz-adv-x="567" vert-adv-y="2504" d="M217 469l64 319h321l-63 -319h-322z" />
<glyph unicode="&#xe000;" horiz-adv-x="1100" vert-adv-y="2200" d="M0 1100h1100v-1100h-1100v1100z" />
<glyph unicode="&#xea01;" horiz-adv-x="1249" vert-adv-y="2504" d="M168 0l182 913h-114l36 185h115l14 76q41 207 162 319q121 111 303 111q104 0 232 -41l-41 -201q-109 53 -172 53q-135 0 -189 -250l-14 -67h653l-221 -1098h-295l182 913h-356l-182 -913h-295zM1124 1282l52 248h245l-49 -248h-248z" />
<glyph unicode="&#xea02;" horiz-adv-x="1249" vert-adv-y="2504" d="M168 0l182 913h-114l36 185h115l14 69q90 436 488 437l237 -25h306l-318 -1579h-295l279 1386q-86 35 -150 35q-203 0 -248 -229l-18 -94h215l-37 -185h-215l-182 -913h-295z" />
<glyph unicode="&#xf001;" horiz-adv-x="1249" vert-adv-y="2504" d="M168 0l182 913h-114l36 185h115l14 76q41 207 162 319q121 111 303 111q104 0 232 -41l-41 -201q-109 53 -172 53q-135 0 -189 -250l-14 -67h653l-221 -1098h-295l182 913h-356l-182 -913h-295zM1124 1282l52 248h245l-49 -248h-248z" />
<glyph unicode="&#xfb01;" horiz-adv-x="1249" vert-adv-y="2504" d="M168 0l182 913h-114l36 185h115l14 76q41 207 162 319q121 111 303 111q104 0 232 -41l-41 -201q-109 53 -172 53q-135 0 -189 -250l-14 -67h653l-221 -1098h-295l182 913h-356l-182 -913h-295zM1124 1282l52 248h245l-49 -248h-248z" />
<glyph unicode="&#xf002;" horiz-adv-x="1249" vert-adv-y="2504" d="M168 0l182 913h-114l36 185h115l14 69q90 436 488 437l237 -25h306l-318 -1579h-295l279 1386q-86 35 -150 35q-203 0 -248 -229l-18 -94h215l-37 -185h-215l-182 -913h-295z" />
<glyph unicode="&#xfb02;" horiz-adv-x="1249" vert-adv-y="2504" d="M168 0l182 913h-114l36 185h115l14 69q90 436 488 437l237 -25h306l-318 -1579h-295l279 1386q-86 35 -150 35q-203 0 -248 -229l-18 -94h215l-37 -185h-215l-182 -913h-295z" />
<glyph unicode="&#xf004;" horiz-adv-x="681" vert-adv-y="2504" d="M152 817l32 168l512 496h201l-98 -496h92l-33 -168h-92l-45 -225h-195l45 225h-419zM350 985h254l62 303z" />
<glyph unicode="&#xf6be;" horiz-adv-x="567" vert-adv-y="2504" d="M-229 -379l39 199q96 -53 149 -53q74 0 113 49q37 45 65 184l219 1098h297l-215 -1080q-86 -438 -473 -438q-83 0 -194 41z" />
<glyph horiz-adv-x="567" vert-adv-y="2504" />
<glyph horiz-adv-x="567" vert-adv-y="2504" />
<glyph horiz-adv-x="567" vert-adv-y="2504" />
<glyph horiz-adv-x="567" vert-adv-y="2504" />
<glyph horiz-adv-x="567" vert-adv-y="2504" />
<glyph horiz-adv-x="567" vert-adv-y="2504" />
<glyph horiz-adv-x="567" vert-adv-y="2504" />
<glyph horiz-adv-x="567" vert-adv-y="2504" />
<glyph horiz-adv-x="567" vert-adv-y="2504" />
<glyph horiz-adv-x="567" vert-adv-y="2504" />
<glyph horiz-adv-x="567" vert-adv-y="2504" />
<glyph horiz-adv-x="567" vert-adv-y="2504" />
<glyph horiz-adv-x="567" vert-adv-y="2504" />
<glyph vert-adv-y="1138" />
<glyph horiz-adv-x="567" vert-adv-y="2504" />
<glyph horiz-adv-x="567" vert-adv-y="2504" />
</font>
</defs>
</svg>
